<svg width="56" height="56" viewBox="0 0 56 56" fill="none" xmlns="http://www.w3.org/2000/svg">
<g clip-path="url(#clip0_1265_359052)">
<path d="M52.06 49.6674L11.4254 54.5145C11.3692 54.5211 11.314 54.5266 11.2596 54.5309C11.2052 54.5351 11.1505 54.5383 11.0953 54.5403C11.0407 54.5424 10.9864 54.5432 10.9326 54.5429C10.8782 54.5432 10.8245 54.5418 10.7714 54.5397C10.7184 54.5376 10.6644 54.5339 10.6149 54.5292C10.5654 54.5244 10.5089 54.5194 10.4576 54.5126C10.4063 54.5058 10.3526 54.4987 10.2996 54.4904C10.2466 54.4822 10.1965 54.4724 10.1448 54.4618C10.093 54.4511 10.0428 54.4402 9.99165 54.4278C9.94047 54.4154 9.89076 54.4022 9.84111 54.3896C9.79146 54.377 9.74058 54.3607 9.69131 54.3446C9.64203 54.3286 9.59262 54.3115 9.54307 54.2933C9.49353 54.2751 9.44552 54.2567 9.39738 54.2371C9.34923 54.2176 9.30096 54.197 9.25338 54.1757C9.20581 54.1545 9.15797 54.131 9.11039 54.1097C9.06282 54.0884 9.01727 54.0647 8.96987 54.0383C8.92246 54.012 8.87769 53.9882 8.83188 53.9622C8.78607 53.9362 8.74013 53.9091 8.69489 53.8814C8.64966 53.8537 8.60435 53.8254 8.56051 53.7964C8.51667 53.7674 8.47117 53.7375 8.42719 53.7074C8.38322 53.6772 8.34211 53.6451 8.29641 53.6135C8.25071 53.5819 8.21107 53.549 8.16836 53.5165C8.12566 53.484 8.08276 53.4498 8.04138 53.4155C8.00001 53.3811 7.95545 53.346 7.91701 53.3102C7.87856 53.2743 7.8354 53.238 7.79453 53.2013L7.67402 53.0894C7.63454 53.0514 7.59501 53.0129 7.55617 52.9738C7.51733 52.9346 7.47843 52.8949 7.44023 52.8546C7.40202 52.8142 7.36458 52.7738 7.32708 52.7328C7.28958 52.6918 7.25201 52.6502 7.21514 52.6081C7.17826 52.5659 7.14216 52.5236 7.10599 52.4807L6.99964 52.3509C6.9641 52.3068 6.92933 52.2627 6.89526 52.2179C6.86119 52.1732 6.82635 52.1285 6.79298 52.0831C6.75961 52.0376 6.72617 51.9917 6.6935 51.9456C6.66082 51.8996 6.62815 51.8535 6.59924 51.8064C6.57033 51.7594 6.53523 51.7125 6.50472 51.665C6.47421 51.6176 6.44211 51.5698 6.41 51.522C6.3779 51.4741 6.34962 51.4259 6.31981 51.3778L6.23249 51.2316C6.20408 51.1822 6.17573 51.1334 6.14809 51.0839C6.12045 51.0345 6.0928 50.985 6.06586 50.9349C6.03892 50.8848 6.01204 50.8352 5.98669 50.7855C5.96135 50.7358 5.93434 50.6851 5.90969 50.6347C5.88504 50.5843 5.85956 50.5335 5.83492 50.4831C5.81027 50.4327 5.78709 50.3816 5.76391 50.3305C5.74073 50.2793 5.71761 50.2288 5.69519 50.1776C5.67278 50.1263 5.65043 50.0757 5.62878 50.0244C5.60713 49.9731 5.58631 49.9222 5.56542 49.8708L5.5052 49.7175L5.44727 49.5639C5.42842 49.51 5.41099 49.4615 5.39324 49.4103C5.37548 49.3591 5.35773 49.3079 5.3408 49.2572C5.32388 49.2064 5.30772 49.1556 5.29232 49.1047C5.27693 49.0537 5.26077 49.0029 5.24621 48.9524C5.23165 48.902 5.21709 48.8515 5.20329 48.801C5.1895 48.7504 5.17577 48.7004 5.1628 48.6503C5.14984 48.6002 5.13431 48.5482 5.12288 48.4979C5.11145 48.4476 5.09951 48.3996 5.08898 48.3504C5.07844 48.3011 5.06791 48.2519 5.0582 48.2031C5.0485 48.1543 5.0388 48.1055 5.03025 48.0599C5.02171 48.0143 5.01301 47.9609 5.0058 47.9135C4.99859 47.8661 4.99438 47.8177 4.98411 47.7707C4.97384 47.7236 4.97289 47.6766 4.96734 47.6301L0.00155342 5.99976L46.194 0.489792L52.06 49.6674Z" fill="url(#paint0_linear_1265_359052)"/>
<path d="M8.30891 48.9326C8.30231 48.8773 8.2963 48.8269 8.2901 48.7749C8.28389 48.7229 8.27788 48.6725 8.27724 48.6215C8.27659 48.5705 8.26995 48.5213 8.26727 48.4728C8.26459 48.4243 8.26337 48.3751 8.26159 48.3276C8.2598 48.2801 8.25955 48.2324 8.25867 48.1859C8.25778 48.1394 8.25932 48.0938 8.26017 48.0488C8.26101 48.0037 8.26192 47.9593 8.26366 47.9153C8.2654 47.8713 8.26804 47.8283 8.27068 47.7854C8.27332 47.7424 8.27693 47.701 8.28129 47.6595C8.28566 47.618 8.2894 47.5777 8.2939 47.5373C8.2984 47.4969 8.30456 47.4574 8.31003 47.4186C8.31549 47.3798 8.32179 47.3414 8.32898 47.3041C8.33617 47.2668 8.3426 47.2295 8.34986 47.1927C8.35712 47.1559 8.36528 47.1202 8.3735 47.0849C8.38172 47.0497 8.39001 47.015 8.39913 46.9808C8.40825 46.9466 8.41738 46.9124 8.42739 46.8792C8.43741 46.846 8.44673 46.8135 8.45771 46.7819C8.4687 46.7503 8.47885 46.7182 8.4899 46.6871C8.50094 46.656 8.51239 46.6283 8.5233 46.5961C8.53422 46.5639 8.54733 46.5371 8.55941 46.5082C8.57148 46.4792 8.58419 46.4491 8.5966 46.4229C8.60901 46.3967 8.62262 46.3676 8.63579 46.3413C8.64897 46.3151 8.66284 46.2881 8.67608 46.2624L8.71823 46.1861L8.76077 46.1131L8.80524 46.0433C8.81958 46.0202 8.83475 45.9977 8.85005 45.9762L8.89588 45.9112C8.91124 45.8903 8.92667 45.8699 8.94287 45.8495C8.95907 45.829 8.97386 45.8099 8.99019 45.7905C9.00652 45.7712 9.02132 45.752 9.03778 45.7338C9.05424 45.7155 9.06994 45.6974 9.0857 45.6798L9.13464 45.6279L9.18316 45.5789C9.19912 45.563 9.21591 45.5475 9.23193 45.5321L9.28021 45.4876L9.32881 45.4459L9.37761 45.4058C9.39313 45.3927 9.40949 45.3801 9.42515 45.3682L9.47294 45.3327C9.4886 45.3207 9.50439 45.3099 9.51941 45.2991L9.56531 45.2672C9.58123 45.2575 9.59632 45.2473 9.61071 45.2377C9.62509 45.2281 9.64031 45.219 9.6556 45.2104L9.69833 45.1846L9.74049 45.1605L9.78132 45.1382L9.82082 45.1178L9.85898 45.0992L9.89498 45.082L9.92958 45.0661L9.96208 45.0521L9.99311 45.0388L10.0213 45.0276L10.0481 45.0177L10.0718 45.0087L10.0935 45.0016L10.1129 44.9948L10.1297 44.9928L10.1443 44.9911L10.155 44.9898L10.1634 44.9888L10.168 44.9882L41.4826 41.2529L41.4772 41.2536L41.4696 41.2545L41.4581 41.2559L41.4443 41.2575L41.4274 41.2595L41.4081 41.2663L41.3864 41.2734L41.3618 41.2825L41.3358 41.2923L41.3069 41.3036L41.2766 41.3168L41.2434 41.3309L41.2088 41.3468L41.1728 41.364L41.1346 41.3826L41.0959 41.4029L41.0551 41.4252L41.0129 41.4493L40.9694 41.4752L40.9253 41.5024L40.8799 41.532L40.834 41.5638C40.8182 41.5747 40.8024 41.5855 40.7867 41.5975L40.7397 41.6329C40.7233 41.6449 40.7077 41.6575 40.6914 41.6706L40.6434 41.7106L40.5948 41.7523L40.5457 41.7969L40.497 41.8437L40.4484 41.8927C40.4326 41.9097 40.416 41.9269 40.4003 41.9445C40.3845 41.9621 40.368 41.9798 40.3516 41.9986L40.304 42.0553C40.2884 42.0746 40.2721 42.0939 40.2567 42.1143L40.2104 42.1759L40.1677 42.2411C40.1524 42.2625 40.1373 42.2851 40.1222 42.3083C40.1071 42.3314 40.0927 42.3544 40.0785 42.378C40.0642 42.4016 40.0493 42.4264 40.0352 42.4511C40.021 42.4758 40.007 42.5016 39.9938 42.5273C39.9805 42.553 39.9666 42.5794 39.9535 42.6062C39.9404 42.6331 39.9273 42.6599 39.9143 42.6878C39.9013 42.7157 39.8895 42.7469 39.8771 42.7731C39.8647 42.7992 39.8523 42.8322 39.841 42.861C39.8297 42.8899 39.8177 42.9199 39.8068 42.9521C39.7959 42.9843 39.7848 43.0148 39.7746 43.0469C39.7645 43.079 39.7543 43.111 39.7443 43.1442C39.7343 43.1774 39.7251 43.2111 39.7168 43.2457C39.7085 43.2804 39.6987 43.3147 39.6904 43.3499C39.6822 43.3851 39.6741 43.4215 39.6668 43.4577C39.6595 43.4939 39.6523 43.5318 39.6459 43.5691C39.6395 43.6063 39.6332 43.6453 39.6277 43.6835C39.6222 43.7218 39.6162 43.7624 39.6116 43.8022C39.607 43.842 39.6026 43.883 39.5982 43.9245C39.5939 43.966 39.5911 44.0078 39.5884 44.0503C39.5857 44.0927 39.5831 44.1362 39.5814 44.1802C39.5796 44.2242 39.5779 44.2687 39.5771 44.3137C39.5763 44.3587 39.5763 44.4048 39.5764 44.4508C39.5764 44.4968 39.5774 44.5444 39.5793 44.5925C39.5811 44.6405 39.5822 44.6887 39.585 44.7377C39.5877 44.7868 39.5905 44.8364 39.5942 44.8865C39.5978 44.9366 39.6062 44.9878 39.6078 45.0398C39.6093 45.0918 39.6202 45.1438 39.6266 45.1975C39.6312 45.2357 39.6357 45.2739 39.6402 45.3115C39.6447 45.3492 39.6492 45.3868 39.6534 45.4222C39.6576 45.4576 39.6622 45.4958 39.6704 45.5325L39.6882 45.6426L39.7079 45.7486C39.7121 45.784 39.7216 45.8182 39.7288 45.8527L39.7504 45.9551C39.7544 45.9889 39.7654 46.0224 39.7732 46.0551C39.781 46.0879 39.7896 46.1211 39.7973 46.1533C39.805 46.1855 39.8143 46.2181 39.8228 46.2496C39.8312 46.2812 39.8404 46.3132 39.8496 46.3441L39.8769 46.4362C39.886 46.4672 39.8958 46.4974 39.9056 46.5271C39.9153 46.5568 39.9251 46.5865 39.9355 46.6156C39.946 46.6447 39.9556 46.6733 39.966 46.7018C39.9764 46.7303 39.9868 46.7588 39.9979 46.7867C40.009 46.8145 40.019 46.8403 40.0302 46.8692C40.0415 46.8982 40.0529 46.9227 40.0639 46.95L40.099 47.0289C40.1106 47.055 40.1224 47.0822 40.1345 47.1055L40.1715 47.1808C40.1837 47.2051 40.1959 47.2295 40.2089 47.2538C40.2219 47.278 40.234 47.3013 40.2468 47.3245C40.2597 47.3476 40.2733 47.3707 40.2862 47.3939L40.3268 47.4609C40.3403 47.4828 40.3538 47.5048 40.368 47.5261C40.3821 47.5474 40.3956 47.5688 40.4097 47.5896L40.4559 47.6515C40.4707 47.6716 40.4848 47.6918 40.4995 47.7114L40.5437 47.769L40.5883 47.8243L40.6344 47.8783C40.6496 47.8955 40.665 47.9134 40.68 47.929L40.7272 47.9795L40.7752 48.0299C40.7917 48.0453 40.8076 48.0608 40.8241 48.0757C40.8406 48.0906 40.8565 48.1061 40.8729 48.1204L40.9222 48.1628L40.9729 48.2033C40.9892 48.2165 41.0063 48.2291 41.0233 48.2416C41.0403 48.2542 41.0573 48.2668 41.075 48.2781C41.0927 48.2895 41.1097 48.3021 41.1265 48.313C41.1434 48.3239 41.1618 48.3357 41.1794 48.346L41.232 48.3773L41.2852 48.4063L41.3389 48.4336C41.3571 48.4426 41.3752 48.4511 41.3932 48.4591L41.4481 48.4829L41.5034 48.5043L41.5586 48.5241C41.5772 48.5303 41.5958 48.5365 41.6151 48.5421L41.6713 48.5578L41.7275 48.5725L41.7848 48.5847C41.8032 48.5887 41.8222 48.592 41.842 48.5953L41.8989 48.6037L41.9572 48.6107L42.0145 48.6157L42.0731 48.6188L42.1314 48.6197L42.1896 48.6189L42.2484 48.617L42.3073 48.6099C42.3265 48.6077 42.3464 48.6053 42.3663 48.6029L11.0517 52.3382C11.0326 52.3405 11.0127 52.3429 10.9928 52.3452L10.9346 52.3522C10.9147 52.3546 10.8952 52.3541 10.8758 52.3541L10.8169 52.355L10.7585 52.3541L10.7007 52.3509L10.6426 52.346L10.5851 52.3389C10.5654 52.3367 10.5464 52.3334 10.5274 52.3306L10.4703 52.32L10.4137 52.3077L10.3568 52.2931L10.3005 52.2774L10.2448 52.2593L10.1889 52.2396L10.1343 52.2181L10.0794 52.1943C10.0614 52.1863 10.0433 52.1778 10.0251 52.1688C10.007 52.1603 9.98886 52.1512 9.9714 52.1415C9.95393 52.1318 9.9357 52.1222 9.91747 52.1126L9.86482 52.0812C9.84728 52.071 9.82962 52.0596 9.81273 52.0482C9.79583 52.0367 9.77816 52.0253 9.76044 52.0134C9.74271 52.0015 9.72651 51.9894 9.70948 51.9768L9.65833 51.9386L9.60844 51.898L9.55836 51.8557L9.50954 51.811L9.46136 51.7651L9.41341 51.7147C9.39752 51.6986 9.38156 51.682 9.36623 51.6642L9.31981 51.6136C9.30449 51.5957 9.28916 51.5779 9.27454 51.5595C9.25991 51.541 9.24452 51.5226 9.22912 51.5043L9.18498 51.4467C9.17099 51.427 9.15616 51.4069 9.1421 51.3867C9.12804 51.3664 9.11322 51.3463 9.09909 51.3256C9.08497 51.3048 9.07154 51.2834 9.05735 51.2621C9.04316 51.2407 9.02967 51.2188 9.01618 51.1968C9.00268 51.1748 8.98989 51.1522 8.97634 51.1297C8.96278 51.1072 8.94992 51.084 8.937 51.0603L8.89829 50.9897C8.88607 50.9653 8.87308 50.9411 8.86085 50.9167C8.84863 50.8924 8.83627 50.8669 8.82468 50.8413C8.81309 50.8158 8.80047 50.7881 8.78838 50.7648C8.77628 50.7416 8.76493 50.7115 8.75411 50.6858C8.74328 50.6602 8.73142 50.6324 8.7204 50.6051L8.68727 50.5226C8.67694 50.4947 8.66579 50.4662 8.6554 50.4377C8.64501 50.4092 8.63538 50.3806 8.62493 50.3515C8.61447 50.3225 8.60472 50.2928 8.59496 50.2631C8.58521 50.2334 8.57615 50.203 8.56703 50.1721C8.5579 50.1412 8.54808 50.1109 8.53896 50.08C8.52984 50.0491 8.52141 50.0176 8.51293 49.9855C8.50444 49.9534 8.49601 49.9218 8.48746 49.8891C8.4789 49.8565 8.47118 49.8243 8.46333 49.791C8.45547 49.7577 8.44762 49.7244 8.44053 49.691C8.43344 49.6576 8.42545 49.6232 8.41823 49.5887C8.41101 49.5542 8.40455 49.5196 8.39803 49.4844C8.39151 49.4493 8.38498 49.4141 8.3784 49.3784C8.37181 49.3427 8.36592 49.3064 8.35983 49.2684C8.35375 49.2304 8.35112 49.1953 8.34663 49.1577L8.33343 49.047C8.31879 49.0089 8.31347 48.9708 8.30891 48.9326Z" fill="url(#paint1_linear_1265_359052)"/>
<path d="M32.6882 47.335C32.6841 47.3006 32.68 47.2663 32.6761 47.2331C32.6721 47.1999 32.6681 47.1662 32.6642 47.1341C32.6604 47.102 32.6527 47.0698 32.6474 47.0384C32.6421 47.007 32.6353 46.9759 32.6286 46.9458C32.6219 46.9157 32.616 46.8855 32.6086 46.8561C32.6012 46.8267 32.5947 46.7983 32.5874 46.77C32.5802 46.7416 32.5724 46.7156 32.5642 46.6863C32.5561 46.6569 32.5485 46.632 32.5399 46.6055C32.5313 46.5791 32.5233 46.5514 32.5143 46.5278C32.5052 46.5042 32.4966 46.4771 32.4875 46.4529C32.4784 46.4288 32.4692 46.404 32.4594 46.3805C32.4496 46.357 32.4406 46.3334 32.4301 46.3105C32.4196 46.2876 32.41 46.2657 32.4004 46.2439C32.3908 46.222 32.3797 46.2003 32.3686 46.1792C32.3576 46.158 32.3473 46.1374 32.3364 46.1173C32.3255 46.0973 32.3146 46.0773 32.3037 46.0578C32.2928 46.0383 32.2813 46.0195 32.2697 46.0007C32.2581 45.9819 32.2466 45.9636 32.2344 45.946C32.2222 45.9283 32.2116 45.9105 32.1995 45.894L32.163 45.8422C32.151 45.8257 32.139 45.8097 32.1263 45.7944C32.1136 45.7791 32.1016 45.7631 32.0897 45.7482L32.0519 45.705L32.0144 45.6635L31.9755 45.6238L31.9376 45.5862L31.8985 45.551L31.8594 45.5169L31.8207 45.4851L31.7822 45.4554C31.7694 45.4452 31.7566 45.436 31.7431 45.427L31.705 45.4001L31.6662 45.375C31.6536 45.3669 31.641 45.3589 31.6277 45.3515L31.5902 45.3296C31.5774 45.3221 31.5649 45.3152 31.5527 45.3088L31.5155 45.2896C31.5031 45.2833 31.4915 45.2774 31.4792 45.2721C31.467 45.2668 31.4553 45.2603 31.4431 45.2556L31.4079 45.2402L31.3729 45.2264C31.3614 45.2216 31.3508 45.2172 31.3395 45.2135L31.3062 45.2018L31.2739 45.191L31.2432 45.1812L31.2127 45.1725L31.1838 45.1648L31.1558 45.158L31.1287 45.1517L31.1032 45.1463L31.0793 45.1418L31.0563 45.1379L31.035 45.1348L31.0152 45.1315L30.9919 45.1315L30.9754 45.1301L30.9605 45.1285L30.9475 45.1301L30.9368 45.1314L30.9276 45.1324L30.9207 45.1333L10.6045 47.5566L10.6121 47.5557L10.6213 47.5546L10.6321 47.5534L10.6451 47.5518L10.66 47.5534L10.6765 47.5548L10.6946 47.5571L10.7144 47.5604L10.7358 47.5634L10.758 47.5675L10.7826 47.5719L10.8081 47.5773L10.8345 47.5837L10.8622 47.5888L10.8919 47.5965L10.9217 47.6052L10.9531 47.615L10.9855 47.6257L11.0179 47.6375L11.0521 47.6503L11.0871 47.6641L11.1223 47.6795L11.1585 47.696L11.1947 47.7136L11.232 47.7327C11.2441 47.7391 11.2566 47.746 11.2694 47.7535L11.3069 47.7754L11.3455 47.7989L11.3834 47.8241C11.3969 47.8326 11.4096 47.8417 11.4223 47.8509L11.4614 47.8793L11.4999 47.909L11.5387 47.9409L11.5777 47.9749C11.5907 47.9863 11.6038 47.9982 11.6161 48.0102C11.6284 48.0222 11.6423 48.0351 11.6547 48.0477C11.6671 48.0602 11.6803 48.0738 11.6928 48.0875C11.7053 48.1012 11.7186 48.1147 11.7312 48.1289C11.7437 48.1432 11.7563 48.1574 11.7682 48.1722C11.78 48.1871 11.7935 48.2023 11.8055 48.2183C11.8175 48.2343 11.8302 48.2496 11.8423 48.2661L11.8787 48.3179C11.8901 48.3351 11.9023 48.3527 11.9137 48.3699L11.9482 48.4247C11.9597 48.4435 11.9713 48.4623 11.9821 48.4818C11.993 48.5013 12.0046 48.5207 12.0156 48.5413C12.0266 48.5618 12.0368 48.582 12.0479 48.6031C12.0589 48.6242 12.0685 48.6455 12.0789 48.6679C12.0893 48.6902 12.0997 48.712 12.1093 48.7344L12.1387 48.8044C12.1485 48.828 12.1576 48.8521 12.1667 48.8769C12.1759 48.9016 12.185 48.9263 12.1935 48.9517L12.2191 49.0295C12.2277 49.0559 12.2356 49.0836 12.2435 49.1102C12.2513 49.1368 12.2593 49.1644 12.2667 49.1939C12.274 49.2233 12.2809 49.2483 12.2878 49.28L12.3078 49.3697C12.3114 49.4001 12.3206 49.4311 12.3259 49.4624C12.3312 49.4938 12.3335 49.5261 12.3427 49.5581C12.352 49.5901 12.3505 49.6234 12.3545 49.6571C12.3586 49.6909 12.3626 49.7247 12.3667 49.759C12.3696 49.7839 12.3725 49.8082 12.3755 49.8331C12.3785 49.858 12.3813 49.8818 12.3842 49.9056L12.3928 49.9776C12.3956 50.0014 12.3984 50.0246 12.4011 50.0479C12.4039 50.0711 12.4067 50.0944 12.4049 50.1182C12.403 50.1419 12.4103 50.1635 12.4076 50.1869C12.405 50.2102 12.4091 50.2322 12.4095 50.2546L12.4076 50.3233C12.4102 50.3449 12.4074 50.3671 12.4069 50.389C12.4064 50.411 12.4066 50.4323 12.4061 50.4537C12.4055 50.4751 12.4049 50.4959 12.4036 50.5174C12.4022 50.5389 12.4016 50.5592 12.4001 50.5796C12.3987 50.5999 12.398 50.6208 12.3966 50.6412C12.3951 50.6615 12.3928 50.6815 12.3913 50.7013C12.3898 50.7211 12.3868 50.7411 12.3849 50.7582C12.3831 50.7752 12.3803 50.7975 12.377 50.8153C12.3737 50.8331 12.3723 50.854 12.369 50.8723C12.3658 50.8907 12.3634 50.9095 12.3603 50.9295L12.3505 50.984C12.3473 51.0024 12.3432 51.0202 12.3399 51.038C12.3366 51.0558 12.3325 51.0737 12.3283 51.0911L12.3158 51.1425C12.3109 51.1599 12.3067 51.1767 12.3025 51.1935C12.2983 51.2103 12.2925 51.2267 12.2882 51.2429L12.273 51.2913C12.268 51.3076 12.2621 51.3235 12.2569 51.3387C12.2517 51.3539 12.2459 51.3698 12.2399 51.3851C12.234 51.4004 12.2288 51.4156 12.2228 51.4303L12.2048 51.4746C12.198 51.4894 12.192 51.5036 12.1851 51.5179C12.1783 51.5322 12.1721 51.5458 12.1652 51.5596C12.1583 51.5733 12.1522 51.5869 12.1453 51.6007L12.1236 51.6403C12.1166 51.6535 12.1088 51.6662 12.1018 51.6788C12.0948 51.6915 12.087 51.7042 12.0791 51.7163L12.0555 51.7528C12.0476 51.765 12.0397 51.7766 12.031 51.7883C12.0223 51.8 12.0151 51.8115 12.0064 51.8227L11.9808 51.856C11.9728 51.8666 11.964 51.8777 11.9551 51.8877C11.9462 51.8978 11.9375 51.9089 11.9278 51.9191L11.901 51.9486L11.8727 51.9778L11.8441 52.0054L11.8147 52.0319L11.7851 52.0573L11.7546 52.0817L11.7239 52.1045C11.7132 52.1125 11.7032 52.1199 11.6924 52.1268L11.66 52.148C11.65 52.1548 11.6391 52.1612 11.6282 52.1675L11.5947 52.1861L11.5611 52.2042L11.5273 52.2205L11.4927 52.2359L11.4579 52.2502C11.4456 52.2516 11.4349 52.2591 11.4229 52.2628L11.3871 52.2749L11.3503 52.286L11.3142 52.2954L11.2772 52.3043L11.2392 52.3116L11.2017 52.3161L31.5187 49.8926L31.5569 49.8881L31.5941 49.8808L31.6311 49.8719L31.668 49.8624L31.704 49.8514L31.7398 49.8393C31.7521 49.8378 31.7637 49.8308 31.7748 49.8267L31.8104 49.8124L31.8443 49.7971L31.8788 49.7806L31.9116 49.7627C31.9233 49.7568 31.9342 49.7504 31.9451 49.7441L31.9777 49.7245L32.0094 49.7033C32.0204 49.6963 32.031 49.6889 32.0409 49.681L32.0758 49.6611L32.1063 49.6367L32.1366 49.6112L32.1653 49.5848L32.1938 49.5572L32.2222 49.528L32.2497 49.4984L32.2763 49.4671L32.3028 49.4354L32.3283 49.402L32.3529 49.3676L32.3767 49.3322L32.4003 49.2957C32.4081 49.2836 32.4159 49.2709 32.423 49.2582C32.43 49.2456 32.4378 49.2329 32.4448 49.2197C32.4518 49.2065 32.4595 49.1933 32.4665 49.1801L32.4872 49.1389C32.4941 49.1251 32.5002 49.1115 32.5071 49.0972C32.5139 49.0829 32.52 49.0687 32.526 49.054L32.544 49.0097L32.5619 48.9644C32.567 48.9492 32.573 48.9339 32.5781 48.9181C32.5832 48.9023 32.5891 48.887 32.5942 48.8707L32.6094 48.8223C32.6144 48.806 32.6186 48.7892 32.6237 48.7729C32.6287 48.7566 32.6329 48.7392 32.637 48.7219L32.6495 48.6705C32.6536 48.6531 32.6577 48.6352 32.661 48.6174C32.6644 48.5996 32.6684 48.5818 32.6717 48.5634C32.6749 48.5451 32.679 48.5272 32.6815 48.5089L32.691 48.4517C32.6934 48.4328 32.6965 48.4134 32.6989 48.3946L32.7061 48.3376C32.7084 48.3182 32.71 48.2984 32.7125 48.2807C32.715 48.263 32.7162 48.2404 32.7178 48.2206L32.722 48.1589C32.7235 48.1385 32.7241 48.1176 32.7255 48.0967L32.7272 48.0331L32.7288 47.9683C32.7262 47.9468 32.729 47.9245 32.7288 47.9027C32.7285 47.8808 32.7289 47.8583 32.7278 47.836L32.7267 47.7682L32.7232 47.6996L32.7194 47.6293C32.7167 47.6061 32.7139 47.5828 32.7111 47.559C32.7082 47.5352 32.7054 47.5114 32.7025 47.4871C32.6996 47.4627 32.6967 47.4389 32.6938 47.4146L32.6882 47.335Z" fill="url(#paint2_linear_1265_359052)"/>
<path d="M54.4739 44.5359C54.4657 44.4673 54.4576 44.3992 54.4496 44.3323C54.4416 44.2653 54.4337 44.1989 54.4191 44.1349C54.4045 44.071 54.3975 44.0062 54.3862 43.9435C54.3748 43.8809 54.362 43.819 54.3493 43.7582C54.3366 43.6974 54.3233 43.6384 54.3093 43.5794C54.2953 43.5205 54.2807 43.4633 54.2662 43.4066C54.2517 43.35 54.2365 43.294 54.2207 43.2397C54.2049 43.1855 54.1883 43.1313 54.1718 43.0772C54.1552 43.023 54.1383 42.9723 54.1205 42.9211C54.1028 42.8699 54.0852 42.8203 54.067 42.7714C54.0487 42.7225 54.0297 42.6737 54.0109 42.6266C53.992 42.5794 53.9717 42.533 53.9523 42.487C53.9328 42.4411 53.912 42.397 53.8912 42.3529C53.8704 42.3088 53.8498 42.2663 53.8285 42.2239C53.8071 42.1816 53.786 42.1409 53.764 42.1003C53.7421 42.0597 53.7203 42.0202 53.6978 41.9813C53.6753 41.9425 53.653 41.9047 53.6298 41.8671C53.6067 41.8294 53.5838 41.7934 53.5609 41.758C53.5381 41.7225 53.5137 41.6873 53.4903 41.6541C53.4669 41.621 53.4427 41.5869 53.4178 41.5545C53.393 41.5221 53.3697 41.4895 53.345 41.4582C53.3203 41.4269 53.2957 41.3967 53.2705 41.3672C53.2452 41.3376 53.2208 41.3085 53.1956 41.2801C53.1705 41.2517 53.1454 41.2238 53.1197 41.1971C53.094 41.1704 53.0691 41.1436 53.0435 41.1181C53.0179 41.0925 52.9925 41.068 52.9662 41.0431C52.94 41.0181 52.9145 40.9931 52.8894 40.972C52.8644 40.9508 52.8374 40.9265 52.8115 40.9044L52.734 40.8406C52.7082 40.8201 52.6818 40.8003 52.6561 40.7803C52.6304 40.7604 52.6042 40.7422 52.5787 40.7239C52.5532 40.7056 52.527 40.6874 52.5009 40.6703C52.4748 40.6532 52.4503 40.6365 52.4242 40.6199C52.3982 40.6034 52.3731 40.5884 52.3479 40.5729L52.272 40.5286L52.1972 40.4876C52.1723 40.4741 52.1475 40.4614 52.1228 40.4493L52.0502 40.4137L51.9779 40.3807L51.9075 40.3504C51.8839 40.3409 51.861 40.3313 51.8382 40.3227L51.7697 40.2956L51.7033 40.272L51.6393 40.2505L51.5764 40.231L51.5162 40.2141C51.4961 40.2086 51.4768 40.2031 51.4577 40.1986L51.4024 40.1844L51.3481 40.1724C51.3313 40.1682 51.3139 40.1653 51.2972 40.1616L51.2494 40.1522L51.2034 40.1442L51.1607 40.1375L51.1213 40.1321L51.085 40.1274L51.0519 40.1235L51.0221 40.1209L50.9962 40.119L50.9735 40.1172L50.9547 40.116L50.9402 40.1178L50.9302 40.119L50.9233 40.1198L10.2887 44.9668L10.2948 44.9661L10.3055 44.9648L10.3201 44.9631L10.3388 44.9642L10.3608 44.9661L10.3874 44.9679L10.4165 44.9706L10.4496 44.9746L10.4866 44.9791L10.5261 44.9845L10.5688 44.9912L10.614 44.9993L10.6625 45.0087L10.7135 45.0194L10.767 45.0316L10.823 45.0456C10.8422 45.0501 10.8615 45.0556 10.8808 45.0612L10.9418 45.0781L11.0039 45.0976L11.0686 45.1191C11.0897 45.1267 11.1123 45.1341 11.1343 45.1427C11.1563 45.1513 11.179 45.1592 11.2018 45.1683C11.2246 45.1774 11.2482 45.1863 11.2711 45.1959L11.3423 45.2262L11.4138 45.2592L11.4871 45.2948C11.5119 45.307 11.5359 45.3198 11.5608 45.3331L11.6364 45.3741L11.7116 45.4185L11.7886 45.4654L11.8653 45.5157C11.8906 45.5329 11.9168 45.5506 11.9423 45.5694C11.9679 45.5883 11.9941 45.6065 12.0197 45.6259C12.0453 45.6453 12.0719 45.6657 12.0976 45.6862L12.1751 45.7499C12.201 45.7721 12.227 45.7942 12.253 45.8175C12.2791 45.8408 12.3044 45.8641 12.3306 45.8885L12.4071 45.9636C12.4327 45.9892 12.4581 46.0136 12.4833 46.0426C12.5085 46.0716 12.5341 46.0972 12.5592 46.1256L12.6348 46.2126C12.6593 46.2422 12.684 46.273 12.7086 46.3037C12.7332 46.3345 12.7581 46.3669 12.7822 46.3999C12.8063 46.4329 12.8304 46.4654 12.8539 46.4997C12.8774 46.5339 12.9017 46.5686 12.9245 46.6035C12.9473 46.6384 12.9712 46.6754 12.9942 46.7125C13.0173 46.7496 13.0397 46.7879 13.0622 46.8268C13.0847 46.8656 13.1065 46.9051 13.1284 46.9457C13.1503 46.9863 13.1716 47.0276 13.1929 47.0694C13.2142 47.1112 13.2349 47.1548 13.2556 47.1983C13.2763 47.2419 13.2965 47.2872 13.3159 47.3326C13.3353 47.378 13.3556 47.4244 13.3745 47.4721C13.3934 47.5198 13.4123 47.5675 13.4306 47.617C13.4489 47.6664 13.4665 47.716 13.4841 47.7666C13.5018 47.8173 13.519 47.8697 13.5354 47.9227C13.5518 47.9758 13.5685 48.031 13.5843 48.0853C13.6001 48.1395 13.6151 48.1939 13.6298 48.2522C13.6445 48.3105 13.659 48.3666 13.6729 48.425C13.6869 48.4834 13.7003 48.5435 13.7129 48.6038C13.7255 48.664 13.7376 48.7265 13.7498 48.7891C13.7619 48.8516 13.7726 48.9155 13.7835 48.9804C13.7943 49.0453 13.8036 49.1105 13.8132 49.1778C13.8228 49.2451 13.8293 49.3128 13.8375 49.3815C13.8435 49.4313 13.8493 49.4805 13.8552 49.5298C13.8611 49.579 13.8668 49.6272 13.8726 49.6753C13.8783 49.7235 13.8841 49.7716 13.8843 49.8193C13.8846 49.867 13.8956 49.914 13.8942 49.9613C13.8929 50.0086 13.9 50.0549 13.9024 50.1012C13.9048 50.1475 13.9064 50.1933 13.9079 50.2386C13.9094 50.2839 13.911 50.3297 13.9117 50.3746C13.9124 50.4194 13.913 50.4637 13.9136 50.5079L13.9129 50.6388C13.9127 50.6826 13.9116 50.7254 13.9105 50.7682C13.9094 50.811 13.9075 50.8533 13.9063 50.8955C13.9051 50.9378 13.9023 50.9791 13.8994 51.0204C13.8966 51.0617 13.8945 51.1024 13.8908 51.1433C13.8871 51.1841 13.8841 51.2238 13.8803 51.2635C13.8765 51.3032 13.8727 51.343 13.8681 51.3823C13.8634 51.4216 13.8587 51.4603 13.8537 51.4963C13.8487 51.5322 13.8434 51.5727 13.8378 51.6104C13.8322 51.6481 13.8259 51.6859 13.8196 51.7248C13.8134 51.7638 13.8075 51.7987 13.8001 51.8349C13.7928 51.8712 13.7863 51.9073 13.7789 51.943C13.7715 51.9787 13.7632 52.0134 13.7557 52.0485C13.7483 52.0836 13.7392 52.1178 13.73 52.152C13.7209 52.1862 13.7125 52.2198 13.7033 52.2534C13.6941 52.2871 13.6848 52.3196 13.6747 52.3523C13.6646 52.3849 13.6553 52.4175 13.6452 52.4495C13.635 52.4816 13.624 52.5132 13.613 52.5443L13.5798 52.637C13.5686 52.6675 13.5565 52.6959 13.5448 52.7276C13.533 52.7593 13.5207 52.7866 13.5079 52.8156C13.495 52.8447 13.4831 52.8747 13.4701 52.9021C13.457 52.9295 13.4441 52.9579 13.4304 52.986C13.4166 53.014 13.4035 53.0408 13.3889 53.0678C13.3742 53.0948 13.3611 53.1211 13.3463 53.147C13.3315 53.1729 13.3176 53.1992 13.3027 53.2246C13.2879 53.2499 13.2722 53.2748 13.2573 53.2996L13.2101 53.3726C13.1944 53.3969 13.1778 53.4202 13.1619 53.4435L13.1119 53.5123L13.0615 53.5784C13.0439 53.6001 13.0263 53.6219 13.0084 53.6408C12.9905 53.6598 12.973 53.6827 12.9553 53.7033C12.9375 53.7239 12.9189 53.7436 12.9006 53.766L12.8446 53.8237C12.8259 53.8422 12.8071 53.8607 12.7875 53.8788C12.7679 53.8969 12.7491 53.9148 12.7294 53.9318C12.7097 53.9487 12.6892 53.9663 12.6694 53.9827L12.6085 54.0315C12.5886 54.0473 12.568 54.0627 12.5472 54.0775C12.5264 54.0924 12.505 54.1078 12.4842 54.1221L12.4201 54.164L12.3502 54.2032L12.284 54.2403L12.2175 54.2757L12.1492 54.3086L12.0807 54.3392C12.057 54.3493 12.0341 54.3588 12.0065 54.3683C11.9789 54.3777 11.9597 54.3862 11.932 54.3945L11.8572 54.4192L11.7822 54.441L11.7069 54.4607L11.6313 54.4781L11.5554 54.4928L11.4792 54.5052C11.454 54.5082 11.4279 54.5114 11.4027 54.5144L52.0595 49.6647C52.0845 49.6617 52.1101 49.6587 52.1361 49.6556C52.1614 49.6526 52.1874 49.6494 52.2123 49.6431L52.2882 49.6284C52.3134 49.6254 52.3381 49.6174 52.3637 49.611L52.4391 49.5914L52.5141 49.5695L52.5888 49.5449C52.6127 49.537 52.6357 49.5281 52.6595 49.519C52.6833 49.51 52.7062 49.5006 52.7291 49.4905L52.7984 49.4598L52.866 49.4271C52.8886 49.4154 52.9113 49.4037 52.9332 49.3915L52.9994 49.3544L53.0645 49.3147L53.1279 49.2729C53.1495 49.2585 53.1702 49.2437 53.1909 49.2283C53.2116 49.2129 53.2323 49.1981 53.253 49.1822L53.3139 49.1334C53.3337 49.1172 53.3535 49.1002 53.3731 49.0825C53.3928 49.0656 53.4124 49.0475 53.432 49.0295L53.4891 48.9744L53.5451 48.9166C53.5637 48.897 53.5816 48.8775 53.5998 48.854L53.6529 48.7915C53.6706 48.7709 53.6882 48.7491 53.7052 48.7291C53.7223 48.7092 53.7396 48.6852 53.7563 48.663L53.8064 48.5941L53.8546 48.5233C53.8704 48.4995 53.8861 48.4752 53.901 48.4504C53.916 48.4256 53.9316 48.4007 53.9465 48.3754C53.9613 48.35 53.9761 48.3241 53.9908 48.2977C54.0055 48.2712 54.0195 48.2454 54.0334 48.2185L54.0748 48.1367L54.1145 48.0528C54.1275 48.0243 54.1393 47.9937 54.1524 47.9663C54.1654 47.9389 54.1772 47.9072 54.1892 47.8783C54.2013 47.8493 54.2125 47.8194 54.2242 47.7877L54.2575 47.695C54.2685 47.6639 54.2787 47.6324 54.2889 47.6003C54.299 47.5682 54.3092 47.5362 54.3192 47.503C54.3292 47.4698 54.3385 47.4372 54.3478 47.4041C54.357 47.371 54.3662 47.3368 54.3745 47.3027L54.3994 47.1993C54.4077 47.164 54.4151 47.1289 54.4226 47.0938L54.4446 46.9856L54.4641 46.8755C54.4706 46.8388 54.4762 46.8011 54.4815 46.7612C54.4869 46.7213 54.4927 46.6858 54.4982 46.6469C54.5036 46.6081 54.5076 46.57 54.5125 46.533C54.5174 46.4959 54.521 46.4545 54.5248 46.4142C54.5285 46.3739 54.5323 46.3341 54.5353 46.2939L54.5439 46.1711L54.55 46.0463C54.5519 46.004 54.5539 45.9617 54.555 45.9189C54.5561 45.8761 54.5564 45.8334 54.5574 45.7895C54.5584 45.7456 54.5579 45.7024 54.5574 45.6587C54.5568 45.615 54.5569 45.5701 54.5562 45.5253C54.5555 45.4804 54.554 45.4351 54.5524 45.3893C54.5508 45.3435 54.5493 45.2982 54.5469 45.2519C54.5445 45.2056 54.542 45.1587 54.5387 45.112L54.5288 44.97C54.5232 44.923 54.5174 44.8748 54.5163 44.8261C54.5151 44.7774 54.5047 44.7293 54.4989 44.6806C54.4931 44.6319 54.4798 44.5857 54.4739 44.5359Z" fill="url(#paint3_linear_1265_359052)"/>
<path d="M15.6001 28.0766L15.2046 24.8503C15.193 24.7557 15.184 24.6515 15.1774 24.5378C15.1709 24.4241 15.1677 24.3081 15.168 24.1898L12.7941 28.4206L15.6001 28.0766ZM17.6364 27.827L17.7046 28.3839C17.7118 28.4421 17.6996 28.4935 17.6681 28.538C17.6403 28.582 17.5899 28.6085 17.5171 28.6174L16.5454 28.7365L16.7977 30.7946L15.9461 30.899L15.6938 28.8409L12.2218 29.2665C12.149 29.2754 12.0828 29.2632 12.0234 29.2299C11.967 29.1925 11.9278 29.1437 11.9057 29.0836L11.7465 28.5989L14.9326 23.0828L15.8388 22.9717L16.4517 27.9723L17.6364 27.827ZM21.3614 29.5038C21.6234 29.4717 21.8549 29.4008 22.0557 29.2912C22.2602 29.1812 22.4279 29.0424 22.5588 28.8749C22.6934 28.707 22.7882 28.5162 22.8433 28.3026C22.902 28.0885 22.9166 27.8614 22.8872 27.6212C22.856 27.3664 22.7878 27.142 22.6828 26.948C22.5773 26.7504 22.4412 26.5898 22.2746 26.4661C22.1112 26.3384 21.9229 26.2488 21.7097 26.1973C21.4965 26.1459 21.268 26.1351 21.0242 26.165C20.7621 26.1971 20.5312 26.2716 20.3312 26.3885C20.1308 26.5017 19.9654 26.6439 19.8349 26.815C19.7076 26.9821 19.6162 27.1706 19.5607 27.3806C19.5084 27.5865 19.4954 27.7968 19.5217 28.0115C19.5525 28.2627 19.617 28.4875 19.7152 28.686C19.8134 28.8845 19.9408 29.0499 20.0974 29.1822C20.2576 29.314 20.4429 29.4095 20.6534 29.4687C20.867 29.5238 21.103 29.5355 21.3614 29.5038ZM20.2824 25.4026C20.224 25.4984 20.1671 25.5922 20.1119 25.6839C20.0598 25.7716 20.0096 25.859 19.9612 25.9462C20.1312 25.7961 20.3229 25.6728 20.5365 25.5765C20.75 25.4801 20.9878 25.4159 21.2498 25.3838C21.5664 25.3449 21.8713 25.3611 22.1645 25.4323C22.4572 25.4999 22.7196 25.621 22.9516 25.7958C23.1868 25.9664 23.3841 26.1897 23.5435 26.4657C23.7025 26.7381 23.8047 27.0599 23.8502 27.4311C23.8944 27.7914 23.8699 28.1342 23.7768 28.4597C23.6837 28.7851 23.5329 29.0769 23.3245 29.3352C23.1197 29.593 22.8597 29.8078 22.5446 29.9794C22.2331 30.1505 21.879 30.2604 21.4823 30.3091C21.0892 30.3572 20.725 30.3391 20.3895 30.2546C20.0537 30.1665 19.7588 30.0216 19.5051 29.82C19.2545 29.6143 19.0473 29.3552 18.8834 29.0429C18.7227 28.7264 18.6174 28.3643 18.5674 27.9567C18.5255 27.6146 18.5555 27.2415 18.6574 26.8375C18.7625 26.4293 18.9537 25.9848 19.2309 25.5038L20.8908 22.5907C20.9337 22.5189 20.9962 22.4559 21.0782 22.4015C21.1634 22.343 21.2642 22.3066 21.3807 22.2924L22.2432 22.1866L20.2824 25.4026ZM29.5702 21.2885L29.6238 21.7252C29.6389 21.849 29.6369 21.9527 29.6176 22.0363C29.6019 22.1195 29.5847 22.19 29.5659 22.2477L27.1242 29.1797C27.0884 29.2802 27.033 29.3701 26.9577 29.4495C26.8821 29.5253 26.7751 29.5716 26.6368 29.5886L25.938 29.6742L28.4334 22.8187C28.4696 22.7219 28.5085 22.6322 28.5501 22.5495C28.5916 22.4668 28.6373 22.3873 28.6871 22.3111L24.6036 22.8116C24.5418 22.8192 24.4843 22.8022 24.4312 22.7607C24.3776 22.7156 24.347 22.662 24.3394 22.6002L24.2585 21.9396L29.5702 21.2885ZM36.4872 24.4137C36.5711 25.0979 36.5692 25.7002 36.4815 26.2208C36.3971 26.7372 36.2475 27.1748 36.0329 27.5336C35.8183 27.8924 35.5461 28.1733 35.2164 28.3762C34.8903 28.5787 34.5288 28.7043 34.1321 28.7529C33.7318 28.802 33.349 28.7677 32.9836 28.6499C32.6218 28.5317 32.2935 28.3244 31.9986 28.0281C31.7037 27.7318 31.4529 27.3433 31.2462 26.8625C31.0391 26.3781 30.8936 25.7938 30.8097 25.1096C30.7258 24.4254 30.7259 23.8232 30.8099 23.3032C30.8939 22.7831 31.0432 22.3436 31.2578 21.9849C31.472 21.6224 31.7403 21.3402 32.0628 21.1381C32.3889 20.9356 32.7521 20.8098 33.1525 20.7607C33.5492 20.7121 33.9302 20.7467 34.2956 20.8644C34.6646 20.9817 34.9968 21.1904 35.2921 21.4903C35.5871 21.7867 35.8381 22.177 36.0452 22.6614C36.256 23.1454 36.4033 23.7294 36.4872 24.4137ZM35.4773 24.5375C35.4041 23.9406 35.2918 23.4464 35.1404 23.0549C34.9921 22.6594 34.8173 22.3483 34.6159 22.1218C34.4182 21.8948 34.2019 21.7422 33.9669 21.6639C33.7315 21.5819 33.4937 21.5556 33.2535 21.5851C33.0133 21.6145 32.7889 21.6974 32.5803 21.8338C32.3712 21.9666 32.1981 22.167 32.0611 22.435C31.924 22.703 31.8295 23.047 31.7775 23.4671C31.7288 23.8832 31.741 24.3896 31.8142 24.9865C31.8873 25.5833 31.9978 26.0777 32.1456 26.4697C32.297 26.8612 32.4716 27.1704 32.6693 27.3973C32.8671 27.6243 33.0837 27.7788 33.3191 27.8607C33.554 27.9391 33.7916 27.9635 34.0318 27.9341C34.272 27.9046 34.4966 27.8235 34.7057 27.6908C34.9143 27.5544 35.0871 27.3522 35.2242 27.0842C35.3649 26.8157 35.4597 26.4735 35.5084 26.0575C35.5608 25.641 35.5504 25.1343 35.4773 24.5375Z" fill="#1790AF"/>
</g>
<defs>
<linearGradient id="paint0_linear_1265_359052" x1="28.8154" y1="51.1845" x2="17.3088" y2="-45.2797" gradientUnits="userSpaceOnUse">
<stop stop-color="#128DAC"/>
<stop offset="0.01" stop-color="#1F94B2"/>
<stop offset="0.03" stop-color="#43A8C2"/>
<stop offset="0.06" stop-color="#63BBD1"/>
<stop offset="0.09" stop-color="#7FCADD"/>
<stop offset="0.12" stop-color="#95D6E7"/>
<stop offset="0.17" stop-color="#A6E0EF"/>
<stop offset="0.22" stop-color="#B1E6F4"/>
<stop offset="0.29" stop-color="#B8EAF7"/>
<stop offset="0.48" stop-color="#BAEBF8"/>
</linearGradient>
<linearGradient id="paint1_linear_1265_359052" x1="22.9465" y1="28.7322" x2="25.5845" y2="50.8472" gradientUnits="userSpaceOnUse">
<stop stop-color="#C0EDF8"/>
<stop offset="0.06" stop-color="#82CBDD"/>
<stop offset="0.14" stop-color="#329FBA"/>
<stop offset="0.18" stop-color="#128DAC"/>
<stop offset="0.2" stop-color="#2899B6"/>
<stop offset="0.25" stop-color="#54B2CA"/>
<stop offset="0.31" stop-color="#79C7DB"/>
<stop offset="0.36" stop-color="#95D7E7"/>
<stop offset="0.41" stop-color="#AAE2F1"/>
<stop offset="0.47" stop-color="#B6E9F6"/>
<stop offset="0.52" stop-color="#BAEBF8"/>
<stop offset="0.58" stop-color="#B4E8F5"/>
<stop offset="0.66" stop-color="#A3DEEE"/>
<stop offset="0.75" stop-color="#87CEE1"/>
<stop offset="0.84" stop-color="#60B9CF"/>
<stop offset="0.95" stop-color="#2E9DB9"/>
<stop offset="1" stop-color="#128DAC"/>
</linearGradient>
<linearGradient id="paint2_linear_1265_359052" x1="21.4971" y1="46.2304" x2="22.1921" y2="52.057" gradientUnits="userSpaceOnUse">
<stop stop-color="#128DAC"/>
<stop offset="0.05" stop-color="#2E9DB9"/>
<stop offset="0.16" stop-color="#60B9CF"/>
<stop offset="0.25" stop-color="#87CEE1"/>
<stop offset="0.34" stop-color="#A3DEEE"/>
<stop offset="0.42" stop-color="#B4E8F5"/>
<stop offset="0.48" stop-color="#BAEBF8"/>
<stop offset="0.53" stop-color="#B6E9F6"/>
<stop offset="0.59" stop-color="#AAE2F1"/>
<stop offset="0.64" stop-color="#95D7E7"/>
<stop offset="0.69" stop-color="#79C7DB"/>
<stop offset="0.75" stop-color="#54B2CA"/>
<stop offset="0.8" stop-color="#2899B6"/>
<stop offset="0.82" stop-color="#128DAC"/>
<stop offset="0.86" stop-color="#329FBA"/>
<stop offset="0.94" stop-color="#82CBDD"/>
<stop offset="1" stop-color="#C0EDF8"/>
</linearGradient>
<linearGradient id="paint3_linear_1265_359052" x1="32.0951" y1="42.3623" x2="33.2344" y2="51.913" gradientUnits="userSpaceOnUse">
<stop stop-color="#C0EDF8"/>
<stop offset="0.06" stop-color="#82CBDD"/>
<stop offset="0.14" stop-color="#329FBA"/>
<stop offset="0.18" stop-color="#128DAC"/>
<stop offset="0.2" stop-color="#2899B6"/>
<stop offset="0.25" stop-color="#54B2CA"/>
<stop offset="0.31" stop-color="#79C7DB"/>
<stop offset="0.36" stop-color="#95D7E7"/>
<stop offset="0.41" stop-color="#AAE2F1"/>
<stop offset="0.47" stop-color="#B6E9F6"/>
<stop offset="0.52" stop-color="#BAEBF8"/>
<stop offset="0.58" stop-color="#B4E8F5"/>
<stop offset="0.66" stop-color="#A3DEEE"/>
<stop offset="0.75" stop-color="#87CEE1"/>
<stop offset="0.84" stop-color="#60B9CF"/>
<stop offset="0.95" stop-color="#2E9DB9"/>
<stop offset="1" stop-color="#128DAC"/>
</linearGradient>
<clipPath id="clip0_1265_359052">
<rect width="49.5263" height="49.5263" fill="white" transform="translate(0 6) rotate(-6.80226)"/>
</clipPath>
</defs>
</svg>
