<svg width="91" height="134" viewBox="0 0 91 134" fill="none" xmlns="http://www.w3.org/2000/svg">
<g clip-path="url(#clip0_936_71620)">
<path d="M58.8818 52.8096C57.2859 48.3011 55.696 45.11 55.1328 42.5687C52.4527 44.2518 49.1913 45.1916 45.9268 43.8348C42.8985 42.8316 40.2911 41.0396 38.5256 38.6191C38.6377 40.0666 38.5468 41.7135 37.7928 42.7681C36.1848 45.0103 34.4617 48.0019 34.4617 48.0019L33.7107 54.52C33.7107 54.52 32.9627 68.1938 45.4877 68.1938C58.0127 68.1938 60.8078 58.258 58.8818 52.8096Z" fill="#D0B4A9"/>
<path d="M41.66 79.8689C41.5268 79.1396 41.3864 78.4113 41.2391 77.6841C41.0422 76.7231 40.8393 75.7652 40.6183 74.8073C40.2549 73.2299 39.8511 71.6545 39.407 70.0812C39.2041 69.3499 38.9981 68.6156 38.7801 67.8843C38.6923 67.5821 38.6075 67.2799 38.5197 66.9959C38.1169 65.6844 37.696 64.3729 37.2448 63.0675C36.3083 60.3404 35.7897 57.4879 35.7064 54.6064C35.555 50.2157 36.2818 45.8431 37.375 41.6699C36.8225 41.7036 36.284 41.8572 35.7972 42.1202C35.5641 42.2199 32.1421 45.4684 30.0435 47.5232C28.4658 51.5362 27.5573 55.7909 26.1582 60.0547C28.2235 60.4294 30.1343 59.5894 32.0149 58.6405C30.522 60.2209 29.3864 62.0068 27.7753 63.3183C28.487 64.7114 29.0654 66.2374 29.8527 67.5489C34.2892 73.5925 38.7226 78.8173 42.4171 84.6585C42.2011 83.0589 41.9487 81.4624 41.66 79.8689Z" fill="#F6FAFB"/>
<path d="M43.0014 89.7064C42.85 88.0222 42.6592 86.3411 42.4291 84.663C38.7346 78.8218 34.3012 73.6091 29.8647 67.5534C29.0774 66.2389 28.499 64.7129 27.7873 63.3228C29.3832 62.0113 30.5128 60.2254 32.0269 58.645C30.1464 59.5939 28.2355 60.4339 26.1702 60.0592C27.5572 55.7924 28.4657 51.5377 30.0555 47.5156L28.9048 48.6518L28.5535 48.8331C26.5033 53.3206 24.6652 58.0044 23.042 62.7094C24.158 62.6284 25.264 62.4443 26.3459 62.1594C25.9673 62.9118 25.5434 63.5464 25.2133 64.2414C31.1548 72.5061 38.6286 80.4384 43.0014 89.7064Z" fill="#D0D9F8"/>
<path d="M39.0287 103.702C37.7829 103.499 36.5053 103.631 35.3281 104.086C29.2715 105.349 23.7964 106.404 17.9851 106.331L17.4824 122.495C20.8468 124.81 24.1628 127.405 27.3001 126.2C31.1915 125.163 30.8886 120.349 31.4943 116.001C35.0677 115.551 38.6259 115.134 40.8002 112.42C42.7383 109.921 40.8275 106.458 39.0287 103.702Z" fill="#D0D9F8"/>
<path d="M33.8287 133.923H37.1235C34.7553 130.188 33.5228 125.716 32.4387 121.389C29.7829 125.103 31.5181 130.119 33.8287 133.923Z" fill="#DFE5F4"/>
<path d="M40.4668 126.201C43.2165 113.763 44.0826 101.64 43.0045 89.7065C38.6287 80.4386 31.1548 72.5063 25.2073 64.2416C25.5374 63.5466 25.9613 62.912 26.3399 62.1595C25.2597 62.441 24.1557 62.6221 23.0421 62.7005C24.6652 57.9955 26.5034 53.3116 28.5535 48.8242L13.3818 56.548L18.5208 89.1445L17.9848 106.345C23.7961 106.417 29.2652 105.363 35.3278 104.1C36.505 103.645 37.7826 103.512 39.0284 103.716C40.8272 106.472 42.738 109.935 40.7878 112.434C38.6135 115.153 35.0553 115.564 31.4819 116.015C30.8884 120.351 31.1912 125.165 27.2998 126.201C24.1625 127.41 20.8466 124.811 17.4821 122.496L17.1278 133.895L33.8288 133.925C31.5182 130.12 29.783 125.101 32.4388 121.396C33.523 125.724 34.7555 130.196 37.1236 133.931H40.8544C39.8915 131.562 39.9187 128.57 40.4668 126.201Z" fill="#F6FAFB"/>
<path d="M39.4189 70.082C39.7924 71.4358 40.1387 72.7906 40.4576 74.1464L42.1383 72.0855C41.1791 71.4921 40.2697 70.8221 39.4189 70.082Z" fill="#4783C3"/>
<path d="M40.458 74.1468C40.5095 74.3674 40.567 74.588 40.6185 74.8086C41.3907 74.0562 42.1508 73.2977 42.9079 72.515C42.6444 72.3821 42.3901 72.237 42.1387 72.0859L40.458 74.1468Z" fill="#4277A8"/>
<path d="M38.792 67.8848C39.01 68.616 39.2159 69.3504 39.4188 70.0816C40.2715 70.822 41.183 71.492 42.1443 72.0851L43.3344 70.6316C41.7537 69.8218 40.1244 69.0451 38.792 67.8848Z" fill="#71ADE6"/>
<path d="M42.1387 72.0863C42.39 72.2374 42.6444 72.3885 42.9079 72.5154C43.3591 72.0531 43.8163 71.5907 44.2554 71.1223C43.9506 70.9551 43.6417 70.792 43.3288 70.6328L42.1387 72.0863Z" fill="#6198C6"/>
<path d="M43.3291 70.6309C43.64 70.7921 43.9489 70.9553 44.2558 71.1205L44.6585 70.7035C44.3163 70.5584 43.9802 70.4013 43.644 70.2441L43.3291 70.6309Z" fill="#4277A8"/>
<path d="M38.5322 66.9961C38.62 67.2983 38.7048 67.6005 38.7927 67.8845C40.1251 69.0449 41.7543 69.8215 43.3351 70.6314L43.6379 70.2446C41.8142 69.3654 40.1005 68.275 38.5322 66.9961Z" fill="#4783C3"/>
<path d="M35.7334 54.5977C35.8167 57.4792 36.3354 60.3317 37.2718 63.0588C37.723 64.3672 38.1439 65.6787 38.5467 66.9872C40.1169 68.2665 41.8326 69.3568 43.6584 70.2356C44.6578 69.0108 45.649 67.7839 46.6322 66.555C42.8468 62.5844 39.113 58.7466 35.7334 54.5977Z" fill="#71ADE6"/>
<path d="M43.6436 70.245C43.9797 70.4052 44.3158 70.5472 44.658 70.7044C45.6362 69.6648 46.6022 68.6133 47.5349 67.5345C47.2321 67.2081 46.9292 66.8878 46.6264 66.5645C45.6392 67.7953 44.6449 69.0222 43.6436 70.245Z" fill="#6198C6"/>
<path d="M37.3477 43.4564C37.4537 42.852 38.2199 42.5257 38.4076 41.459C38.2895 41.459 37.4992 41.6645 37.3871 41.6614C37.1549 42.5499 36.9409 43.4473 36.7451 44.3539C36.948 44.1031 37.1449 43.8341 37.3326 43.5561C37.3387 43.5138 37.3447 43.4897 37.3477 43.4564Z" fill="#D0D9F8"/>
<path d="M37.0542 54.1542C36.6817 50.6247 36.7754 47.0618 37.3328 43.5566C37.1451 43.8346 36.9482 44.1036 36.7453 44.3544C35.982 47.7139 35.6372 51.1546 35.7187 54.5984C39.1134 58.7474 42.8473 62.5851 46.6206 66.5648L47.0173 66.0572C43.3621 62.3434 40.1885 58.3727 37.0542 54.1542Z" fill="#BAA199"/>
<path d="M57.2586 50.7663C56.7165 47.5208 56.0866 44.3086 55.0358 41.2173L54.9207 41.0723L54.4029 41.0964C55.4174 44.7952 56.2744 48.6178 56.3895 52.3981C53.6337 57.4264 50.2208 62.0498 46.6172 66.5795C46.92 66.9029 47.2228 67.2232 47.5257 67.5495C50.9295 63.6212 53.988 59.4238 56.3471 54.876C56.763 54.0702 57.1556 53.2643 57.5251 52.4585C57.4403 51.8803 57.3515 51.3163 57.2586 50.7663Z" fill="#BAA199"/>
<path d="M52.0322 85.1796C52.1069 86.0088 52.2231 86.8338 52.3805 87.6515C52.8647 85.8077 53.5302 84.0161 54.3671 82.3028C54.6305 78.1176 55.0151 73.9384 55.5784 69.7773C53.3556 74.6002 51.6295 79.5771 52.0322 85.1796Z" fill="#4783C3"/>
<path d="M52.3895 87.6516C52.9468 90.6734 53.828 93.7617 53.3253 97.0374C51.1661 109.65 50.7815 121.671 49.9033 133.952H52.4743C53.7916 129.175 53.6463 123.938 53.6463 119.145C53.828 106.907 53.5978 94.5655 54.3761 82.2969C53.5388 84.0121 52.8734 85.8057 52.3895 87.6516Z" fill="#4783C3"/>
<path d="M58.1219 56.0704C58.027 55.5043 57.9342 54.9372 57.8433 54.3691C55.7702 58.5009 53.4158 62.4859 50.7965 66.2963C48.2164 71.1312 45.7695 76.0024 41.6602 79.8704C41.9529 81.4659 42.2103 83.0634 42.4324 84.663C42.6625 86.3391 42.8533 88.0202 43.0047 89.7064C43.2833 92.7967 43.4317 95.9002 43.4499 99.0167C44.9852 110.536 44.0192 122.4 45.6424 133.946H49.882C50.7602 121.665 51.1447 109.644 53.3039 97.0313C53.8066 93.7557 52.9254 90.6855 52.3682 87.6455C52.2108 86.8279 52.0946 86.0029 52.0199 85.1737C51.6172 79.5712 53.3433 74.5973 55.557 69.7623C56.1663 65.1559 57.0225 60.5854 58.1219 56.0704Z" fill="#71ADE6"/>
<path d="M40.467 126.199C39.9188 128.568 39.8916 131.56 40.8546 133.935H45.6423C44.0191 122.389 44.9852 110.525 43.4498 99.0059C43.4774 108.153 42.4768 117.275 40.467 126.199Z" fill="#4783C3"/>
<path d="M41.2393 77.6842C41.3866 78.4135 41.5269 79.1417 41.6602 79.869C45.7696 76.001 48.2164 71.1329 50.7965 66.2949C47.9847 70.3888 44.7841 74.2028 41.2393 77.6842Z" fill="#4783C3"/>
<path d="M57.5379 52.4336C55.0668 57.9273 51.5388 62.9193 47.5445 67.5427C46.6118 68.6215 45.6458 69.658 44.6677 70.7126L44.2649 71.1297C43.8197 71.598 43.3564 72.0604 42.9173 72.5227C42.1602 73.2963 41.4032 74.0638 40.6279 74.8163C40.849 75.7742 41.0519 76.7321 41.2487 77.6931C44.7936 74.2117 47.9941 70.3976 50.806 66.3038C53.4215 62.4901 55.7719 58.502 57.8407 54.3676L57.5379 52.4336Z" fill="#71ADE6"/>
<path d="M65.0205 133.979L77.0822 134C77.0822 134 77.2033 133.078 77.3214 132.29C73.5451 131.283 70.1413 129.365 66.7799 127.527C66.0545 129.638 65.4668 131.793 65.0205 133.979Z" fill="#AFB6CD"/>
<path d="M77.9144 129.73C74.4955 128.923 71.2522 127.844 68.2239 125.901C67.9998 125.76 67.7757 125.612 67.5516 125.457C67.273 126.146 67.0146 126.836 66.7764 127.527C70.1378 129.364 73.5416 131.283 77.3178 132.289C77.3935 131.791 77.4662 131.347 77.5086 131.223C77.5086 131.174 77.6207 131.129 77.7751 131.093C77.7509 130.585 77.7206 130.102 77.9144 129.73Z" fill="#C5CBE5"/>
<path d="M72.3306 118.619C72.4003 118.41 72.4699 118.202 72.5335 117.99C72.4591 118.076 72.4027 118.176 72.3678 118.284C72.333 118.392 72.3203 118.506 72.3306 118.619Z" fill="#4ADBFF"/>
<path d="M72.5339 117.99C72.4704 118.201 72.4007 118.41 72.3311 118.618C72.3442 119.357 72.4396 120.092 72.6157 120.809C73.1315 120.126 73.5693 119.387 73.9209 118.606C73.6847 118.458 73.4545 118.319 73.2274 118.189C72.8943 117.923 72.6793 117.884 72.5339 117.99Z" fill="#82819B"/>
<path d="M79.5413 126.088C79.7008 125.616 79.8431 125.142 79.9683 124.664C78.6479 122.226 76.1436 120.008 73.9117 118.605C73.5601 119.386 73.1223 120.125 72.6065 120.808C72.5399 120.902 72.4642 120.993 72.3945 121.083C75.4561 120.267 77.9121 122.903 79.5413 126.088Z" fill="#B79B92"/>
<path d="M72.4035 121.083C71.1135 122.767 69.4994 124.268 68.2275 125.9C71.2558 127.84 74.487 128.922 77.9029 129.726C78.5677 128.574 79.1165 127.359 79.5412 126.1C77.912 122.903 75.4561 120.268 72.4035 121.083Z" fill="#D0B4A9"/>
<path d="M79.9677 124.666C79.5111 126.438 78.8164 128.141 77.9024 129.728C77.7086 130.099 77.7389 130.583 77.7661 131.09C78.491 130.957 79.2249 130.877 79.9616 130.852C81.3486 128.863 81.0669 126.688 79.9677 124.666Z" fill="#A18F9D"/>
<path d="M76.7614 64.9874C76.4252 69.7619 76.3525 74.5817 76.3223 79.4106C77.1884 72.8925 78.7207 66.3775 78.0454 59.8594C77.7244 61.4609 76.7614 63.0655 76.7614 64.9874Z" fill="#AFB6CD"/>
<path d="M79.3926 100.231C79.5924 100.186 79.7923 100.14 79.9982 100.101L80.3283 99.8262C80.0073 99.9501 79.6954 100.083 79.3926 100.231Z" fill="#4ADBFF"/>
<path d="M75.6311 101.666C75.5917 102.074 75.5463 102.482 75.5039 102.89C76.6752 101.834 77.9829 100.94 79.3922 100.23C78.0746 100.522 76.8072 101.005 75.6311 101.666Z" fill="#9BA1B9"/>
<path d="M75.1562 109.534L75.3289 109.486C75.2804 109.459 75.2259 109.465 75.1562 109.534Z" fill="#4ADBFF"/>
<path d="M81.3645 60.288L78.4755 56.3354L60.0029 47.3848C61.0628 48.9259 62.3922 50.3129 63.2735 51.848C63.6429 52.4524 64.0154 52.9993 64.3788 53.5402C70.7115 54.3049 76.6435 57.0352 81.3372 61.3456L81.3645 60.288Z" fill="#F6FAFB"/>
<path d="M87.8958 94.6862L89.6068 88.706L81.2578 63.2774L81.3274 61.3464C76.6337 57.036 70.7017 54.3057 64.369 53.541C65.3835 55.0519 66.3374 56.4148 67.0551 57.9801C64.793 57.7018 62.5143 57.5806 60.2354 57.6175C62.2316 59.2354 64.0902 61.0152 65.7923 62.9389C62.764 69.7138 57.5342 75.6668 54.3575 82.3028C53.6005 94.5835 53.8185 106.913 53.6368 119.151C53.6368 123.944 53.7821 129.18 52.4648 133.958H57.9854C59.8024 123.445 58.4881 112.252 62.9518 102.156C64.4811 112.853 62.973 123.351 62.9336 133.967H65.0201C65.4667 131.783 66.0544 129.63 66.7796 127.521C67.0178 126.83 67.2762 126.14 67.5548 125.451C67.7789 125.605 68.003 125.753 68.2271 125.896C69.5686 124.173 71.2947 122.599 72.6151 120.804C72.439 120.086 72.3435 119.352 72.3304 118.613C72.3201 118.5 72.3328 118.386 72.3676 118.278C72.4025 118.17 72.4588 118.07 72.5333 117.985C72.6756 117.879 72.8937 117.918 73.2268 118.184C73.4539 118.314 73.684 118.453 73.9203 118.601C77.9903 121.167 83.0051 126.458 79.9768 130.848C80.6794 130.806 81.2608 130.791 81.2608 130.791C81.2608 130.791 87.8958 116.159 89.7158 112.412C91.5358 108.665 89.1798 106.973 89.1798 106.973C89.1798 106.973 89.6068 106.224 90.7848 103.447C91.9628 100.669 87.8958 94.6862 87.8958 94.6862ZM68.7419 121.396H67.7759C65.7136 108.596 69.8078 96.3966 72.1941 84.0071C71.3795 96.3966 70.144 108.72 68.7419 121.396ZM76.7699 64.9877C76.7699 63.0658 77.7329 61.4612 78.0539 59.8506C78.7292 66.3687 77.1969 72.8838 76.3308 79.4018C76.352 74.582 76.4246 69.7622 76.7608 64.9877H76.7699ZM76.2096 91.048C77.6784 87.9778 79.2924 85.0043 81.5879 82.2847C81.3547 86.6995 78.7595 90.2714 76.137 93.7313C76.1571 92.8409 76.1783 91.9465 76.2006 91.048H76.2096ZM75.9219 97.9831C78.5263 95.7378 81.5455 94.0547 84.8009 93.5108C82.3147 96.2304 79.0471 97.4965 75.8553 99.0196C75.8705 98.6751 75.8917 98.3276 75.9129 97.9831H75.9219ZM79.5559 111.636C80.21 112.322 80.3947 113.089 79.6679 114.023C78.5626 115.401 75.8038 112.76 74.4351 110.36C74.541 109.811 74.638 109.264 74.7379 108.711C75.0983 108.928 75.4798 109.137 75.8674 109.342C79.9011 108.306 84.5435 108.856 85.455 113.703C83.417 113.452 81.4001 112.606 79.5408 111.636H79.5559ZM87.1629 111.204C85.6488 109.336 84.389 107.215 82.5418 105.68C85.2582 106.595 89.1071 108.348 87.1629 111.204ZM79.995 100.089C79.4893 100.515 79.0108 100.954 78.5475 101.404C80.4977 101.032 82.9718 101.204 84.4254 102.386C82.2329 101.685 79.565 101.93 77.209 102.806C76.5246 103.564 75.8705 104.362 75.2315 105.208C75.3304 104.433 75.4213 103.656 75.504 102.878C75.5464 102.47 75.5919 102.063 75.6312 101.655C75.6827 101.065 75.7342 100.473 75.7796 99.8808C79.7164 97.968 84.5768 98.1342 88.6438 99.911C85.9607 99.6239 82.8658 99.5363 79.995 100.101V100.089Z" fill="#D0D9F8"/>
<path d="M62.9517 102.164C58.488 112.26 59.8114 123.453 57.9854 133.966H62.9336C62.9881 123.359 64.481 112.861 62.9517 102.164Z" fill="#AFB6CD"/>
<path d="M67.7673 121.395H68.7425C70.1536 108.703 71.3892 96.3829 72.2038 84.0176C69.8084 96.395 65.7142 108.594 67.7673 121.395Z" fill="#AFB6CD"/>
<path d="M84.7922 93.5098C81.5368 94.0507 78.5176 95.7369 75.9133 97.9821C75.8921 98.3266 75.8709 98.6741 75.8467 99.0186C79.0385 97.4956 82.306 96.2173 84.7922 93.5098Z" fill="#AFB6CD"/>
<path d="M79.9956 100.101C82.8664 99.5364 85.9613 99.624 88.6444 99.9231C84.5774 98.1463 79.7049 97.9801 75.7802 99.8929C75.7348 100.497 75.6833 101.077 75.6318 101.667C76.8079 101.006 78.0753 100.523 79.393 100.231C79.6958 100.083 79.9986 99.9503 80.3257 99.8264L79.9956 100.101Z" fill="#AFB6CD"/>
<path d="M75.8464 109.341C75.4588 109.135 75.0773 108.927 74.7169 108.709C74.623 109.262 74.5261 109.809 74.4141 110.359C75.7828 112.758 78.5416 115.399 79.6469 114.021C80.3737 113.088 80.189 112.32 79.5349 111.634C81.3943 112.604 83.4111 113.447 85.4279 113.701C84.5225 108.854 79.8801 108.304 75.8464 109.341ZM75.156 109.534C75.2256 109.464 75.2802 109.458 75.3286 109.486L75.156 109.534Z" fill="#AFB6CD"/>
<path d="M76.2009 91.0472C76.1807 91.9437 76.1535 92.8412 76.1191 93.7397C78.7507 90.2797 81.346 86.7079 81.5701 82.293C79.2837 85.0005 77.6696 87.977 76.2009 91.0472Z" fill="#AFB6CD"/>
<path d="M82.542 105.691C84.3892 107.226 85.649 109.348 87.1632 111.215C89.1073 108.348 85.2584 106.595 82.542 105.691Z" fill="#AFB6CD"/>
<path d="M84.4254 102.398C82.9718 101.217 80.4887 101.044 78.5475 101.416C79.0108 100.966 79.4893 100.528 79.995 100.102C79.7921 100.141 79.5923 100.186 79.3894 100.231C77.9801 100.941 76.6723 101.835 75.5011 102.891C75.4183 103.668 75.3274 104.445 75.2285 105.221C75.8675 104.374 76.5216 103.577 77.206 102.818C79.565 101.942 82.2329 101.697 84.4254 102.398Z" fill="#AFB6CD"/>
<path d="M57.489 12.32C54.921 6.55131 46.89 5.27005 42.717 5.69613C40.0963 6.01894 37.6147 7.05378 35.543 8.68774C35.543 8.68774 34.9101 15.1605 34.792 20.8294C38.4956 15.7498 45.7332 14.958 51.387 11.4618C51.5345 11.3115 51.6673 11.1476 51.7837 10.9722C54.1579 13.6768 57.2104 16.1094 58.6246 19.3336C58.7306 16.9222 58.4671 14.5048 57.489 12.32Z" fill="#BC9384"/>
<path d="M31.1582 20.7871C31.1915 21.3915 31.4792 22.2134 31.4792 23.3224C31.4776 23.6948 31.5059 24.0666 31.564 24.4345C32.1697 25.4589 32.7026 26.5497 33.4022 27.4895C32.7953 25.2108 32.0458 22.9723 31.1582 20.7871Z" fill="#CAA18E"/>
<path d="M45.9269 43.8337C49.1914 45.1905 52.2439 44.42 54.9209 42.7398C54.8117 42.1412 54.7489 41.535 54.7331 40.9267C54.6271 38.1497 54.8149 34.6504 54.8149 34.6504L38.0049 35.6113C38.2665 36.6015 38.4407 37.6127 38.5257 38.6332C40.2912 41.0385 42.9107 42.8305 45.9269 43.8337Z" fill="#BC9384"/>
<path d="M21.6254 86.8354L7.22593 82.5625L6.13574 83.7048C10.7145 84.98 17.1678 86.7659 21.1894 87.8356C21.3347 87.5002 21.477 87.1708 21.6254 86.8354Z" fill="#C7CCD3"/>
<path d="M22.0606 88.0564L21.6246 86.8477C21.4762 87.1831 21.3217 87.5125 21.1885 87.8358L22.0606 88.0564Z" fill="#777F87"/>
<path d="M3.9611 82.254C2.9436 80.5467 2.99811 80.1055 2.99811 80.1055C2.99811 80.1055 1.39009 81.3505 0.926758 82.2389L5.11488 83.4023C4.64937 83.1101 4.25517 82.7177 3.9611 82.254Z" fill="#EFF4F9"/>
<path d="M41.8513 104.162C37.9145 107.803 31.8761 108.601 26.5342 109.329L26.9914 109.783C33.0056 109.783 41.3001 111.581 45.3762 107.667C44.1972 106.491 43.0222 105.322 41.8513 104.162Z" fill="#726B5B"/>
<path d="M27.8239 91.2097C18.418 88.7923 9.47551 85.2356 0.084792 83.0508L0 83.1596L26.5338 109.329C31.8757 108.6 37.9051 107.803 41.8509 104.161C37.3145 99.7192 32.6752 95.3496 27.8239 91.2097Z" fill="#8E8672"/>
<path d="M45.3759 107.662C41.2999 111.59 33.0054 109.777 26.9912 109.777L28.8082 111.56L51.3083 113.676C49.3379 111.663 47.3605 109.659 45.3759 107.662Z" fill="#8E8672"/>
<path d="M42.699 103.31C36.5516 97.3146 29.4563 90.5215 29.4563 90.5215C29.4563 90.5215 28.7083 89.7721 22.9273 88.2763L22.0764 88.0557L21.1982 87.823C17.1766 86.7533 10.7233 84.9674 6.14456 83.6922L5.11494 83.4021L0.926824 82.2387L0.751184 82.1934L0.0849609 83.0395C9.47265 85.2363 18.4182 88.7809 27.8241 91.1984C32.6693 95.3383 37.3147 99.6928 41.8511 104.15C42.1479 103.885 42.4309 103.604 42.699 103.31Z" fill="#CEBB8E"/>
<path d="M42.699 103.311C42.4361 103.609 42.1582 103.893 41.8662 104.163C43.0472 105.323 44.2222 106.49 45.3911 107.662C45.6855 107.384 45.955 107.08 46.1967 106.755C45.0974 105.671 43.9103 104.507 42.699 103.311Z" fill="#B2A17F"/>
<path d="M51.4961 112.207C51.2327 111.784 49.0735 109.584 46.1815 106.74C45.9399 107.065 45.6703 107.368 45.376 107.647C47.3625 109.641 49.337 111.649 51.2993 113.669L51.4961 113.687C51.4961 113.687 52.3531 113.597 51.4961 112.207Z" fill="#CEBB8E"/>
<path d="M37.248 23.3226C37.89 23.9662 38.211 24.9272 39.174 25.2475C40.8033 25.7884 42.4264 24.9453 43.4742 23.7185C41.6179 22.6971 39.1983 22.7696 37.248 23.3226Z" fill="#D0B4A9"/>
<path d="M56.3599 22.8998L56.0389 22.8242C56.0177 23.1929 55.9995 23.5887 55.9844 23.9997C56.1612 23.6527 56.2877 23.2823 56.3599 22.8998Z" fill="#BC9384"/>
<path d="M58.8755 22.8783C59.5993 21.9234 59.5235 20.627 58.9997 19.521C58.8725 19.4878 58.7483 19.4606 58.6241 19.4395C58.4688 21.7986 58.1265 24.1418 57.6006 26.4471C58.6302 25.4499 59.2752 24.1535 58.8755 22.8783Z" fill="#BC9384"/>
<path d="M59.5243 19.6906C59.3531 19.6243 59.1782 19.5678 59.0004 19.5214C59.5243 20.6274 59.6061 21.9389 58.8763 22.8787C59.276 24.1539 58.631 25.4502 57.6014 26.4474C58.1273 24.1422 58.4695 21.799 58.6249 19.4398C58.6249 19.4036 58.6249 19.3673 58.6249 19.3341C57.2168 16.1188 54.1643 13.6772 51.784 10.9727C51.6658 11.1493 51.531 11.3142 51.3813 11.4652C45.8728 14.8738 38.8563 15.7139 35.077 20.4612C34.9801 20.5821 34.8832 20.7029 34.7923 20.8299C34.7204 22.8201 34.7821 24.8129 34.977 26.795C34.8593 26.7706 34.738 26.7699 34.62 26.7927C34.502 26.8155 34.3897 26.8615 34.2896 26.9279C34.1866 26.5109 33.9868 26.1362 33.8657 25.7192C34.4138 25.136 34.9377 24.447 34.6863 23.9514C34.2502 22.4405 34.114 21.0505 34.6712 19.8236C34.005 19.189 32.9027 19.2948 31.9063 19.6755C31.2765 19.9173 31.1311 20.2799 31.1584 20.7724C32.0469 22.9655 32.7964 25.2121 33.4023 27.499C32.7028 26.5683 32.1698 25.4684 31.5642 24.444C31.7792 25.8068 32.3788 26.7315 32.9784 27.9281C33.6506 29.2668 35.1769 29.9195 35.4858 30.0434C36.1914 33.8207 37.2543 36.7519 39.8253 38.7191C43.0383 41.1758 43.7863 42.0431 46.6783 42.0431C49.5703 42.0431 52.2443 39.4806 53.6434 37.9848C55.0425 36.489 55.7844 36.1717 56.7474 30.7324C56.817 30.3396 56.8927 29.9377 56.9745 29.5237C57.5969 29.1259 58.1042 28.5728 58.4463 27.9191C59.1942 26.4082 59.9453 25.3535 59.9453 23.3229C59.9453 21.2922 60.9173 20.2255 59.5243 19.6906ZM39.1833 25.2478C38.2203 24.9275 37.8993 23.9665 37.2573 23.3229C39.1985 22.7699 41.6181 22.6974 43.4835 23.7187C42.4357 24.9577 40.8125 25.7887 39.1833 25.2478ZM54.9304 24.9275C53.392 25.5318 50.9694 25.2659 50.2063 23.2655C52.1535 22.9784 54.1007 22.4163 56.0478 22.8243L56.3688 22.8998C56.2966 23.2824 56.1702 23.6528 55.9933 23.9998C55.8929 24.2228 55.745 24.4214 55.5599 24.5816C55.3747 24.7418 55.1568 24.8598 54.9213 24.9275H54.9304Z" fill="#D0B4A9"/>
<path d="M34.6859 23.9662C34.9372 24.4618 34.4134 25.1508 33.8652 25.734C33.9955 26.1359 34.1862 26.5106 34.2892 26.9427C34.3893 26.8763 34.5016 26.8303 34.6196 26.8075C34.7376 26.7847 34.8589 26.7855 34.9766 26.8098C34.7817 24.8277 34.72 22.8349 34.7919 20.8447C34.8827 20.7178 34.9796 20.5969 35.0765 20.476C34.9882 20.2416 34.8497 20.0292 34.6708 19.8535C34.1136 21.0653 34.2498 22.4402 34.6859 23.9662Z" fill="#BC9384"/>
<path d="M50.1973 23.2681C50.9604 25.2686 53.383 25.5436 54.9214 24.9301C55.7299 24.7277 56.1539 23.8936 56.3598 22.9025C54.3067 22.3616 52.2535 22.9659 50.1973 23.2681Z" fill="#D0B4A9"/>
<path opacity="0.4" d="M37.5508 23.3226C38.1928 23.9662 38.5138 24.9272 39.4768 25.2475C41.106 25.7884 42.7291 24.9453 43.7769 23.7185C41.9206 22.6971 39.501 22.7696 37.5508 23.3226Z" fill="#BD9785"/>
<path opacity="0.4" d="M49.8945 23.2681C50.6577 25.2686 53.0803 25.5436 54.6187 24.9301C55.4272 24.7277 55.8512 23.8936 56.0571 22.9025C54.0039 22.3616 51.9507 22.9659 49.8945 23.2681Z" fill="#BD9785"/>
<path d="M28.8236 102.359L17.8672 99.8141C17.8672 99.8141 17.8672 99.6993 17.8975 99.4878C17.6159 99.4545 17.3403 99.4394 17.0678 99.4304C15.4295 99.385 13.9214 99.7628 12.4224 100.24C11.1596 101.277 10.3359 102.637 9.66966 104.036C9.90587 102.918 10.0936 101.821 10.5782 100.848C9.46229 101.234 8.31548 101.525 7.15013 101.718C9.51522 100.624 11.9954 98.9982 14.5482 98.6265C13.5731 97.306 12.1256 96.9434 10.9143 95.7558C12.8645 96.3118 14.5725 97.1096 16.0382 98.5661C16.3967 98.5917 16.7523 98.6483 17.1011 98.7353C17.3282 92.5285 17.4039 86.503 17.8884 80.275C15.8958 76.8875 14.3696 73.3399 12.8463 69.8043C15.0328 72.9531 17.0345 76.2862 18.9907 79.5225C18.9745 79.0933 18.9249 78.6659 18.8423 78.2443C18.0944 74.9203 13.3914 56.5566 13.3914 56.5566C13.3914 56.5566 8.03742 81.0335 6.12354 85.7233C4.20966 90.4132 3.63429 90.7335 4.38833 92.5496C4.96371 93.9397 5.40887 94.949 5.59965 95.3509C6.36278 95.9945 7.32274 96.4206 8.00411 97.0492C7.03301 96.8382 6.04234 96.7298 5.0485 96.7258L3.33146 99.9229C3.33146 99.9229 2.58348 100.775 3.33146 102.059C4.07945 103.344 7.49536 109.964 7.49536 109.964C7.49536 109.964 15.5233 117.655 19.1633 119.151C22.8033 120.647 26.6493 122.142 26.6493 122.142L26.8915 122.064C26.4266 121.613 26.0379 121.089 25.7408 120.514C25.7408 120.486 25.7105 120.459 25.6984 120.432C23.8542 117.368 24.6233 114.044 25.338 110.705C25.7438 108.81 26.1345 106.909 26.0194 105.051C26.0194 104.087 26.9824 103.126 28.5874 102.806C28.866 102.806 28.9023 102.621 28.8236 102.359Z" fill="#F6FAFB"/>
<path d="M10.9204 95.7559C12.1105 96.9434 13.5732 97.3061 14.5544 98.6266C11.9864 98.9953 9.52134 100.624 7.15625 101.718C8.3216 101.525 9.46841 101.234 10.5843 100.848C10.1119 101.821 9.9241 102.918 9.67578 104.036C10.342 102.637 11.1657 101.277 12.4285 100.24C14.1758 99.6842 15.9383 99.2551 17.9036 99.4878C17.9036 99.3609 17.9309 99.1856 17.946 99.0043C17.337 98.7597 16.6932 98.6118 16.0382 98.5662C14.5786 97.1096 12.8706 96.3119 10.9204 95.7559Z" fill="#D0D9F8"/>
<path d="M18.9901 79.5138C17.0338 76.2774 15.0321 72.9444 12.8457 69.8047C14.3598 73.3523 15.8952 76.8969 17.8939 80.2874C17.4063 86.5154 17.3336 92.5409 17.1065 98.7478C17.3943 98.8167 17.6767 98.9066 17.9514 99.0167C18.1937 96.3212 18.9507 87.5096 19.0264 82.1096C19.0385 81.0973 19.0295 80.2209 18.9901 79.5138ZM18.4147 81.1365C18.4147 81.1607 18.445 81.1879 18.4632 81.2121C18.445 81.1879 18.4299 81.1607 18.4147 81.1365Z" fill="#D0D9F8"/>
<path d="M7.99174 97.0479C7.31038 96.4193 6.35041 95.9933 5.58728 95.3496C5.64179 95.4735 5.6751 95.54 5.6751 95.54L5.03613 96.7245C6.02998 96.7285 7.02064 96.8369 7.99174 97.0479Z" fill="#D0D9F8"/>
<path d="M29.6041 109.91C28.1626 110.149 26.7272 110.445 25.3342 110.705C24.6195 114.029 23.8503 117.353 25.6946 120.432C25.6946 120.459 25.7248 120.487 25.737 120.514C24.7134 116.567 26.5092 112.249 29.6041 109.91Z" fill="#A18F9D"/>
<path d="M43.9106 100.164C44.0378 100.723 43.9288 101.355 43.9106 102.01C43.0021 103.684 41.3729 104.878 39.9072 106.262C41.3002 105.09 43.0294 104.023 43.9167 102.554C44.2637 101.994 44.4618 101.354 44.4921 100.696C44.3073 100.527 44.1165 100.351 43.9106 100.164Z" fill="#A3877E"/>
<path d="M45.3031 103.647C45.3031 103.799 45.2849 103.95 45.2849 104.083C45.2849 103.944 45.2849 103.799 45.3031 103.647C44.2795 105.237 42.623 106.192 41.7539 107.929C43.0712 105.814 45.8996 104.584 45.9935 102.26C45.7858 101.897 45.5128 101.574 45.188 101.309C45.4636 102.055 45.3485 102.91 45.3031 103.647Z" fill="#A3877E"/>
<path d="M29.341 110.127C26.4096 112.505 24.7441 116.681 25.7373 120.513C26.0382 121.089 26.4309 121.613 26.9002 122.063L31.2609 120.646C31.2609 120.646 32.6539 117.654 33.6169 115.207C34.5073 112.934 34.7586 110.121 34.7889 109.707C32.978 109.574 31.2216 109.897 29.341 110.127Z" fill="#CCC3D4"/>
<path d="M42.4296 98.7465L42.0723 98.399L41.4333 97.7734V100.662C40.655 101.944 39.1106 102.33 38.293 103.56C39.7163 102.98 40.649 101.517 42.2055 100.662C42.3963 100.047 42.4773 99.4022 42.4448 98.7586L42.4296 98.7465Z" fill="#A3877E"/>
<path d="M30.834 103.766C30.9703 103.63 31.1096 103.491 31.2428 103.352C31.0975 103.48 30.961 103.619 30.834 103.766Z" fill="#D0B4A9"/>
<path d="M37.5779 101.203C37.5779 101.173 37.5779 101.142 37.5779 101.115L37.4355 101.203H37.5779Z" fill="#D0B4A9"/>
<path d="M27.4366 103.191C26.5281 103.645 26.0163 104.346 26.0163 105.05C26.1314 106.908 25.7408 108.809 25.335 110.704C26.728 110.444 28.1634 110.148 29.6048 109.909C29.514 109.978 29.4292 110.054 29.3414 110.127C31.0826 109.912 32.7179 109.625 34.3895 109.682C31.122 108.359 28.0907 106.47 27.4366 103.191Z" fill="#D0B4A9"/>
<path d="M45.3028 103.648C45.3482 102.908 45.4633 102.053 45.1817 101.309C44.9758 101.131 44.7426 100.923 44.4943 100.705C44.464 101.363 44.2659 102.003 43.9189 102.564C43.7928 102.774 43.6532 102.976 43.501 103.168C43.9855 103.509 44.47 103.836 44.9606 104.153C45.0797 103.984 45.1938 103.816 45.3028 103.648Z" fill="#D0B4A9"/>
<path d="M45.9877 102.264C45.9371 103.001 45.6493 103.703 45.167 104.264C45.4547 104.448 45.7454 104.633 46.0391 104.814C46.2118 103.784 46.3995 103.043 45.9877 102.264Z" fill="#D0B4A9"/>
<path d="M43.2652 102.981C43.5064 102.676 43.7222 102.352 43.9102 102.011C43.9375 101.356 44.0465 100.724 43.9102 100.165C43.4257 99.7147 42.9169 99.2251 42.4355 98.7598C42.468 99.4034 42.387 100.048 42.1962 100.664C41.8377 100.866 41.4973 101.098 41.1787 101.359C41.2544 101.422 41.3366 101.478 41.424 101.525C42.0418 102.057 42.6505 102.534 43.2652 102.981Z" fill="#D0B4A9"/>
<path d="M41.0087 101.21C41.1688 101.043 41.3109 100.86 41.4326 100.663V97.7744C40.7997 97.155 40.3606 96.7168 40.3606 96.7168L38.2832 97.433C38.586 98.3395 38.7677 99.2672 38.5285 100.002C39.5581 99.8232 40.4181 100.694 41.0087 101.21Z" fill="#D0B4A9"/>
<path d="M45.1669 104.252C44.2069 105.479 42.6383 106.507 41.754 107.921C42.5323 106.365 43.9405 105.437 44.958 104.119C44.4674 103.802 43.9829 103.476 43.4983 103.134C42.5535 104.31 41.106 105.25 39.9068 106.25C41.0727 105.15 42.3294 104.165 43.2652 102.968C42.6595 102.521 42.0538 102.043 41.433 101.512C41.3456 101.465 41.2634 101.409 41.1877 101.345C40.1793 102.152 39.3708 103.104 38.2927 103.548C38.9801 102.512 40.1824 102.074 41.0182 101.197C40.4276 100.681 39.5676 99.8102 38.538 99.9885C38.4274 100.342 38.2068 100.651 37.9081 100.871C37.8061 100.954 37.7 101.031 37.5901 101.104C37.5901 101.131 37.5901 101.161 37.5901 101.191H37.4508C37.0347 101.428 36.5871 101.605 36.1214 101.717C35.8186 102.288 35.9852 102.953 35.9852 103.433C36.3062 103.754 36.9481 103.754 37.2691 103.754C37.5901 104.394 37.5901 105.358 37.9111 105.999C38.2321 106.319 38.8741 106.319 39.5161 106.319C39.5161 107.7 40.1581 108.392 41.0757 108.682C42.8563 108.078 45.7907 106.905 45.9391 105.57C45.9694 105.295 46.0088 105.041 46.0512 104.802C45.7453 104.633 45.4546 104.449 45.1669 104.252Z" fill="#D0B4A9"/>
<path d="M39.5042 106.332C38.8622 106.332 38.2203 106.332 37.8993 106.012C37.5783 105.371 37.5783 104.407 37.2573 103.767C36.9363 103.767 36.2943 103.767 35.9733 103.446C35.9733 102.966 35.7916 102.301 36.1095 101.73C34.4985 102.153 32.63 102.138 31.2431 103.353C31.1098 103.492 30.9705 103.631 30.8343 103.767C30.9613 103.62 31.0978 103.481 31.2431 103.353C31.6134 102.991 31.949 102.595 32.2454 102.171C34.0727 101.671 35.8695 101.065 37.6267 100.358C37.7097 99.8106 37.6567 99.2513 37.4723 98.7292V98.7503H37.4147C37.012 98.6989 34.3017 98.3635 33.5113 98.7503C32.6543 99.1764 29.7622 98.2154 29.2262 99.4967C28.6902 100.778 28.9052 102.383 28.9052 102.383L28.8235 102.361C28.9022 102.624 28.8659 102.809 28.5842 102.809C28.1861 102.886 27.8002 103.016 27.4365 103.195C28.0906 106.474 31.1219 108.363 34.4016 109.686C34.5348 109.686 34.6681 109.686 34.8013 109.686C34.8013 109.653 34.8013 109.632 34.8013 109.632L39.7253 109.097C39.7253 109.097 40.2855 108.946 41.0699 108.683C40.1462 108.405 39.5042 107.713 39.5042 106.332Z" fill="#D0B4A9"/>
<g style="mix-blend-mode:multiply" opacity="0.3">
<path d="M27.4366 103.191C26.5281 103.645 26.0163 104.346 26.0163 105.05C26.1314 106.908 25.7408 108.809 25.335 110.704C26.728 110.444 28.1634 110.148 29.6048 109.909C29.514 109.978 29.4292 110.054 29.3414 110.127C31.0826 109.912 32.7179 109.625 34.3895 109.682C31.122 108.359 28.0907 106.47 27.4366 103.191Z" fill="#D0B4A9"/>
</g>
<g style="mix-blend-mode:multiply" opacity="0.1">
<path d="M45.1669 104.252C44.2069 105.479 42.6383 106.507 41.754 107.921C42.5323 106.365 43.9405 105.437 44.958 104.119C44.4674 103.802 43.9829 103.476 43.4983 103.134C42.5535 104.31 41.106 105.25 39.9068 106.25C41.0727 105.15 42.3294 104.165 43.2652 102.968C42.6595 102.521 42.0538 102.043 41.433 101.512C41.3456 101.465 41.2634 101.409 41.1877 101.345C40.1793 102.152 39.3708 103.104 38.2927 103.548C38.9801 102.512 40.1824 102.074 41.0182 101.197C40.4276 100.681 39.5676 99.8102 38.538 99.9885C38.4274 100.342 38.2068 100.651 37.9081 100.871C37.8061 100.954 37.7 101.031 37.5901 101.104C37.5901 101.131 37.5901 101.161 37.5901 101.191H37.4508C37.0347 101.428 36.5871 101.605 36.1214 101.717C35.8186 102.288 35.9852 102.953 35.9852 103.433C36.3062 103.754 36.9481 103.754 37.2691 103.754C37.5901 104.394 37.5901 105.358 37.9111 105.999C38.2321 106.319 38.8741 106.319 39.5161 106.319C39.5161 107.7 40.1581 108.392 41.0757 108.682C42.8563 108.078 45.7907 106.905 45.9391 105.57C45.9694 105.295 46.0088 105.041 46.0512 104.802C45.7453 104.633 45.4546 104.449 45.1669 104.252Z" fill="#D0B4A9"/>
</g>
<g style="mix-blend-mode:multiply" opacity="0.2">
<path d="M39.5042 106.332C38.8622 106.332 38.2203 106.332 37.8993 106.012C37.5783 105.371 37.5783 104.407 37.2573 103.767C36.9363 103.767 36.2943 103.767 35.9733 103.446C35.9733 102.966 35.7916 102.301 36.1095 101.73C34.4985 102.153 32.63 102.138 31.2431 103.353C31.1098 103.492 30.9705 103.631 30.8343 103.767C30.9613 103.62 31.0978 103.481 31.2431 103.353C31.6134 102.991 31.949 102.595 32.2454 102.171C34.0727 101.671 35.8695 101.065 37.6267 100.358C37.7097 99.8106 37.6567 99.2513 37.4723 98.7292V98.7503H37.4147C37.012 98.6989 34.3017 98.3635 33.5113 98.7503C32.6543 99.1764 29.7622 98.2154 29.2262 99.4967C28.6902 100.778 28.9052 102.383 28.9052 102.383L28.8235 102.361C28.9022 102.624 28.8659 102.809 28.5842 102.809C28.1861 102.886 27.8002 103.016 27.4365 103.195C28.0906 106.474 31.1219 108.363 34.4016 109.686C34.5348 109.686 34.6681 109.686 34.8013 109.686C34.8013 109.653 34.8013 109.632 34.8013 109.632L39.7253 109.097C39.7253 109.097 40.2855 108.946 41.0699 108.683C40.1462 108.405 39.5042 107.713 39.5042 106.332Z" fill="#D0B4A9"/>
</g>
<path d="M38.2839 97.4316L37.6359 97.6583L37.5783 97.6764L37.4723 98.725C37.6568 99.2471 37.7098 99.8064 37.6268 100.354C35.8696 101.061 34.0728 101.666 32.2455 102.167C31.9491 102.591 31.6135 102.987 31.2432 103.348C33.0329 101.78 35.6372 102.267 37.439 101.2L37.5814 101.112C37.6912 101.04 37.7974 100.962 37.8993 100.88C38.9138 100.121 38.7261 98.7612 38.2839 97.4316Z" fill="#A3877E"/>
<path d="M30.9698 17.2522C30.9698 17.6843 30.9486 18.1043 30.9395 18.5183C30.9113 20.0224 31.033 21.5256 31.3029 23.0057C31.6542 18.2766 33.6165 13.5686 36.8265 10.1992C34.3494 11.8763 32.3174 14.4479 30.9698 17.2522Z" fill="#3F2827"/>
<path d="M42.9045 1.56496C41.8234 1.05125 40.4364 1.33833 39.1827 2.16933C37.1629 3.93106 34.9431 5.69883 33.7803 8.08909C36.1181 4.77112 39.3372 2.01522 42.9045 1.56496Z" fill="#3F2827"/>
<path d="M45.9365 2.2867L46.2394 2.17188C46.0304 2.17188 45.9577 2.17188 45.9365 2.2867Z" fill="#523634"/>
<path d="M46.0567 2.41618L46.3596 2.29833L46.4262 2.26207L46.4777 2.21976L46.514 2.17444C46.5228 2.1648 46.5291 2.15313 46.5323 2.14047C46.5355 2.12781 46.5354 2.11456 46.5322 2.10191C46.5356 2.09539 46.5374 2.08813 46.5374 2.08076C46.5374 2.07339 46.5356 2.06613 46.5322 2.05961C46.5309 2.05137 46.5275 2.04363 46.5221 2.03723C46.5168 2.03083 46.5098 2.02603 46.5019 2.02334C46.4896 2.0087 46.4724 1.99903 46.4534 1.99615C46.4244 1.98133 46.3921 1.97406 46.3596 1.975H46.1688C46.1406 1.97188 46.1122 1.97188 46.084 1.975C46.0471 1.97884 46.0106 1.98592 45.975 1.99615C45.9396 2.00512 45.9052 2.01725 45.872 2.03241C45.8235 2.05624 45.7787 2.08675 45.7388 2.12306C45.723 2.13986 45.7088 2.15807 45.6964 2.17746C45.6821 2.20006 45.6709 2.22444 45.6631 2.24998V2.28624C45.6595 2.31087 45.6641 2.33598 45.6761 2.35778C45.6882 2.37957 45.7069 2.39689 45.7297 2.40712C45.756 2.4238 45.7863 2.43319 45.8175 2.43431C45.8524 2.44192 45.8886 2.44192 45.9235 2.43431C46.0023 2.42763 46.0782 2.40168 46.1446 2.35877C46.1964 2.32831 46.2352 2.27992 46.2536 2.22279C46.2507 2.20883 46.2507 2.19444 46.2536 2.18048L46.2354 2.22883C46.2393 2.21916 46.2444 2.21003 46.2505 2.20163L46.2142 2.24696L46.1627 2.28927H46.1779L46.1112 2.32553H46.1294L46.0537 2.35272H46.087L46.0083 2.36783C46.0386 2.36783 46.0749 2.36783 46.1082 2.36783H46.1415L46.1264 2.04148L45.8236 2.1563C45.7905 2.17072 45.7599 2.19008 45.7327 2.21372C45.708 2.2313 45.6873 2.25397 45.6721 2.2802C45.6574 2.30038 45.6494 2.32472 45.6494 2.3497C45.6494 2.37469 45.6574 2.39903 45.6721 2.4192L45.7145 2.44942C45.7517 2.46998 45.7932 2.48137 45.8357 2.48266H45.9083C45.961 2.4683 46.011 2.44587 46.0567 2.41618Z" fill="#523634"/>
<path d="M31.4944 12.2497C31.3945 12.7302 31.3097 13.2046 31.2461 13.67C31.7006 12.8162 32.2253 12.0016 32.8147 11.2344L31.4944 12.2497Z" fill="#523634"/>
<path d="M48.9524 6.04236C47.414 5.9094 45.8999 5.99401 44.3009 6.01516C45.6061 5.30503 46.8084 4.50424 48.2377 3.89988C45.2972 4.33502 42.5536 5.89126 40.0038 7.22389C41.2009 5.56195 42.6651 4.109 44.3373 2.92383C39.9584 4.76412 35.6643 7.48377 32.8086 11.2339C34.5468 9.90123 36.3638 8.57163 38.4382 7.60766C37.781 8.623 37.6781 10.0251 37.2269 11.1674C40.458 8.22714 44.6734 6.26597 48.9524 6.04236Z" fill="#CEA09F"/>
<path d="M35.6758 14.5246C38.0984 11.9803 41.1116 9.9919 44.2186 8.33594C40.8814 9.49632 37.6018 11.6448 35.6758 14.5246Z" fill="#CEA09F"/>
<path d="M48.9096 1.06033L48.8187 1.10263C48.8187 1.10263 41.9657 -2.4178 36.5057 3.1333C33.5198 6.17024 32.1692 9.17696 31.5393 11.9933C31.5181 12.0779 31.506 12.1655 31.4879 12.2502L32.8082 11.2348C35.6639 7.48474 39.958 4.76509 44.3369 2.9248C42.6629 4.10373 41.1957 5.55052 39.9943 7.20673C42.5441 5.88619 45.2878 4.32995 48.2282 3.88272C46.808 4.48708 45.6057 5.29089 44.2915 5.998C45.8904 5.97684 47.4045 5.89223 48.9429 6.02519C44.6639 6.25183 40.4486 8.213 37.2174 11.1623C37.6686 10.0201 37.7716 8.61792 38.4287 7.60259C36.3543 8.55446 34.5373 9.88407 32.7991 11.2288C32.2096 11.996 31.6849 12.8106 31.2305 13.6644C31.077 14.8524 30.987 16.0477 30.9609 17.2452C32.3085 14.441 34.3405 11.8694 36.8176 10.1923C33.6137 13.5677 31.6544 18.2757 31.3031 23.0048C31.5061 24.2028 31.81 25.3814 32.2116 26.5283C32.2116 26.5283 33.8166 23.6425 36.0666 18.8377C38.3166 14.033 42.2746 12.64 45.2726 11.7848C47.5234 11.1243 49.7178 10.2856 51.8349 9.27668C51.9591 9.13163 52.0832 8.9745 52.2013 8.84154C52.4406 5.95267 51.4382 3.22093 48.9096 1.06033ZM33.7682 8.09212C34.9462 5.70186 37.1629 3.92804 39.1827 2.17236C40.4364 1.33833 41.8234 1.05126 42.9045 1.56799C39.3372 2.01522 36.1181 4.77113 33.7803 8.09212H33.7682ZM45.9358 2.28719C45.957 2.17236 46.0206 2.17236 46.2386 2.17236L45.9358 2.28719ZM35.676 14.5256C37.602 11.6458 40.8816 9.49727 44.2127 8.33689C41.1118 9.98681 38.0865 11.9812 35.676 14.5256ZM44.2127 8.33689C41.1057 9.98681 38.0804 11.9812 35.6699 14.5256L44.2127 8.33689Z" fill="#523634"/>
<path d="M52.2141 8.8418C52.096 8.98684 51.9718 9.14398 51.8477 9.27694C51.9713 9.21783 52.0889 9.147 52.1989 9.06541C52.208 8.98987 52.211 8.91734 52.2141 8.8418Z" fill="#523634"/>
<path d="M52.6743 3.1336C51.9308 2.10109 50.9061 1.30301 49.7217 0.833984C49.4431 0.8767 49.1706 0.952795 48.9102 1.06062C51.4388 3.22123 52.4411 5.95296 52.214 8.84183C53.5737 7.18587 54.5579 5.43925 52.6743 3.1336Z" fill="#3F2827"/>
<path d="M58.8822 11.7839C56.7412 4.83372 54.9212 2.38301 52.6743 1.31631C51.7637 0.854776 50.7323 0.685879 49.7217 0.832816C50.906 1.30184 51.9307 2.09992 52.6743 3.13243C54.5579 5.43204 53.5827 7.1847 52.214 8.84066C52.214 8.91621 52.214 8.98873 52.214 9.06428C52.2442 9.0401 52.2594 9.02197 52.2594 9.00686C52.2594 8.79231 53.4374 10.3969 55.2574 12.213C57.0774 14.0291 58.0404 17.9817 58.0404 19.1632C58.0535 19.9862 58.1254 20.8072 58.2554 21.62C58.2554 21.62 61.0232 18.7341 58.8822 11.7839Z" fill="#523634"/>
<path d="M60.2443 57.6177C62.5232 57.5809 64.8019 57.702 67.064 57.9803C66.3463 56.415 65.3924 55.0491 64.3779 53.5413C64.0145 53.0003 63.6421 52.4413 63.2726 51.849C62.3914 50.3139 61.062 48.9269 60.002 47.3858L59.9536 47.3616L55.0357 41.2031C56.2682 44.8293 56.9223 48.6217 57.534 52.4353L57.8368 54.3692C57.9277 54.9373 58.0205 55.5044 58.1154 56.0705C55.9956 64.7341 54.9145 73.5004 54.3604 82.303C57.537 75.655 62.779 69.7141 65.7952 62.9391C64.095 61.0157 62.2384 59.2358 60.2443 57.6177Z" fill="#F6FAFB"/>
<path d="M18.9151 86.0316L7.22593 82.5625L6.13574 83.7048C9.93018 84.7594 15.0056 86.1675 18.9212 87.2282C18.9212 86.8203 18.9181 86.4244 18.9151 86.0316Z" fill="#C7CCD3"/>
<path d="M3.9611 82.254C2.9436 80.5467 2.99811 80.1055 2.99811 80.1055C2.99811 80.1055 1.39009 81.3505 0.926758 82.2389L5.11488 83.4023C4.64937 83.1101 4.25517 82.7177 3.9611 82.254Z" fill="#EFF4F9"/>
<path d="M16.595 99.4476C17.2183 99.5045 17.8329 99.6322 18.4271 99.8283C18.4877 98.4443 18.5907 97.0634 18.6966 95.6824C18.8753 93.3163 18.9207 90.9774 18.9238 88.6264C12.6613 86.6592 6.4775 84.5349 0.084792 83.0391L0 83.1479L16.5163 99.4476H16.595Z" fill="#8E8672"/>
<path d="M18.9209 87.2156C15.0053 86.155 9.92992 84.7468 6.13548 83.6922L5.11494 83.4021L0.926825 82.2387L0.751184 82.1934L0.0849609 83.0395C6.47767 84.5353 12.6614 86.6657 18.9239 88.6268C18.9239 88.1554 18.9239 87.687 18.9209 87.2156Z" fill="#CEBB8E"/>
<path d="M51.5082 34.2218C51.5968 34.2218 51.6687 34.1135 51.6687 33.98C51.6687 33.8465 51.5968 33.7383 51.5082 33.7383C51.4195 33.7383 51.3477 33.8465 51.3477 33.98C51.3477 34.1135 51.4195 34.2218 51.5082 34.2218Z" fill="#CAA18E"/>
<path d="M42.6745 33.98C42.6745 34.113 42.6049 34.2188 42.514 34.2188C42.4232 34.2188 42.3535 34.113 42.3535 33.98C42.3535 33.8471 42.4262 33.7383 42.514 33.7383C42.6018 33.7383 42.6745 33.844 42.6745 33.98Z" fill="#CAA18E"/>
<path d="M48.4982 36.8244C48.4982 37.1266 47.6987 37.3472 46.7115 37.3472C45.7243 37.3472 44.9248 37.1115 44.9248 36.8244C44.9248 36.5374 45.7243 36.3047 46.7115 36.3047C47.6987 36.3047 48.4982 36.5374 48.4982 36.8244Z" fill="#BC9384"/>
<path d="M49.4609 30.5342C49.4609 30.8757 48.401 32.2174 47.0928 32.2174C45.7846 32.2174 44.8428 30.9573 44.8428 30.6128C44.8428 30.2683 45.7513 31.054 47.0534 31.054C48.3556 31.054 49.4609 30.1898 49.4609 30.5342Z" fill="#CAA18E"/>
<path d="M43.7584 20.3573C43.7584 20.3573 45.7661 22.4725 45.5754 25.165C45.3846 27.8574 45.4542 28.5706 45.0121 28.2896C44.57 28.0085 45.0303 24.2343 44.573 23.4818C42.8862 20.738 38.1561 19.6894 39.0282 19.1878C39.2644 19.0488 42.5834 19.7589 43.0922 19.9584C43.3423 20.0378 43.5704 20.1744 43.7584 20.3573Z" fill="#C7A99F"/>
<path d="M49.3612 20.3976C48.351 21.7315 47.8458 23.3787 47.9348 25.0482C48.1347 27.7316 48.0529 28.4508 48.4951 28.1728C48.9372 27.8948 48.5466 24.1538 48.9372 23.3651C50.5361 20.1347 54.5032 19.9897 54.4335 19.0016C54.3942 18.4727 50.9177 19.6392 50.409 19.8386C50.0434 19.9928 49.6927 20.18 49.3612 20.3976Z" fill="#C7A99F"/>
<path d="M46.5175 31.1493C46.5175 31.1493 45.2063 30.2427 44.9368 30.4271C44.6672 30.6114 44.7248 30.829 45.2396 30.9347C45.7544 31.0405 46.5175 31.1493 46.5175 31.1493Z" fill="#32282C"/>
<path d="M49.709 34.0821C48.1948 35.5508 45.7571 36.001 44.3277 34.1607L42.5107 34.058C42.5107 34.058 43.9552 37.2097 46.8745 37.0798C49.7938 36.9499 51.5835 33.9824 51.5835 33.9824L49.709 34.0821Z" fill="#A66772"/>
<path d="M49.7094 34.082L46.3026 34.2724L44.3281 34.1606C45.7575 36.0009 48.1922 35.5506 49.7094 34.082Z" fill="#77424D"/>
<path d="M42.2598 33.9255C42.2598 33.9255 44.4553 35.1009 45.3668 35.0224C46.2277 34.9186 47.0962 34.8913 47.962 34.9408C48.7136 35.0352 49.4769 34.9438 50.1848 34.6749C50.848 34.4029 51.3355 33.9798 51.5748 33.9798C51.814 33.9798 49.6881 33.1579 48.9099 33.2123C48.1316 33.2667 47.5865 33.7653 46.999 33.7381C46.4115 33.7109 46.3025 33.1337 45.5818 33.176C44.8611 33.2183 42.7958 33.9255 42.5838 33.9255H42.2598Z" fill="#934D5C"/>
<path d="M36.8633 20.3325C36.8633 20.3325 37.908 18.7823 39.5675 19.0483C41.227 19.3142 42.938 19.9034 43.3953 19.9548C43.8526 20.0062 44.4098 20.3809 43.8495 20.5592C43.2893 20.7375 39.8885 19.6405 39.1648 19.5831C38.5009 19.5765 37.8466 19.7421 37.266 20.0636L36.945 20.2449" fill="#473432"/>
<path d="M37.5869 23.2427C37.5869 23.2427 38.8164 22.0128 39.9944 21.9071C41.1724 21.8013 42.1627 22.1216 42.6169 22.5477C43.0711 22.9738 43.7222 23.5691 43.7222 23.5691C43.7222 23.5691 40.5032 24.5633 39.1798 24.0284C37.8564 23.4935 37.5869 23.2427 37.5869 23.2427Z" fill="#272127"/>
<path d="M40.0218 22.5752C39.7402 22.8563 39.2133 23.1343 38.8711 23.4153C39.3329 23.7788 39.873 24.0302 40.4488 24.1496C40.6344 24.1847 40.8233 24.1999 41.0121 24.1949C41.9794 24.1416 42.939 23.9928 43.8769 23.7507C43.8769 23.7507 43.8223 23.6752 43.7224 23.5573C42.7776 22.4695 41.2604 22.3274 40.0218 22.5752Z" fill="#F6FAFB"/>
<path d="M41.6537 22.2279C40.2365 21.8804 38.7617 23.3218 38.7617 23.3218C38.7963 23.355 38.8327 23.3863 38.8707 23.4155C39.2697 23.0949 39.7109 22.8305 40.182 22.6298C40.8033 22.4703 41.4553 22.473 42.0752 22.6376C42.6952 22.8022 43.2623 23.1231 43.7221 23.5696C43.1883 22.9196 42.4657 22.4508 41.6537 22.2279Z" fill="#9CA6B1"/>
<path d="M42.1355 23.1506C42.1212 23.4138 42.0063 23.6616 41.8145 23.8429C41.6227 24.0242 41.3686 24.1252 41.1044 24.1252C40.8402 24.1252 40.586 24.0242 40.3942 23.8429C40.2024 23.6616 40.0875 23.4138 40.0732 23.1506C40.0798 23.0175 40.1128 22.8871 40.1705 22.767C40.2282 22.6469 40.3094 22.5395 40.4093 22.4512C40.5091 22.3628 40.6257 22.2952 40.752 22.2524C40.8784 22.2095 41.0121 22.1923 41.1453 22.2017C41.274 22.1937 41.4031 22.2125 41.5242 22.2569C41.6454 22.3012 41.756 22.3701 41.849 22.4593C41.9421 22.5485 42.0156 22.656 42.0649 22.775C42.1142 22.8939 42.1383 23.0218 42.1355 23.1506Z" fill="#5E8E8E"/>
<path d="M41.5483 23.1502C41.5483 23.2374 41.5224 23.3227 41.4738 23.3953C41.4252 23.4678 41.3562 23.5244 41.2754 23.5578C41.1946 23.5912 41.1057 23.5999 41.0199 23.5829C40.9342 23.5659 40.8554 23.5238 40.7936 23.4621C40.7317 23.4004 40.6896 23.3218 40.6726 23.2362C40.6555 23.1507 40.6643 23.062 40.6977 22.9813C40.7312 22.9007 40.7878 22.8318 40.8606 22.7833C40.9333 22.7349 41.0187 22.709 41.1062 22.709C41.2235 22.709 41.3359 22.7555 41.4188 22.8382C41.5017 22.9209 41.5483 23.0332 41.5483 23.1502Z" fill="#272127"/>
<path opacity="0.5" d="M41.4271 23.1379C41.5976 23.1379 41.7359 22.9999 41.7359 22.8297C41.7359 22.6595 41.5976 22.5215 41.4271 22.5215C41.2565 22.5215 41.1182 22.6595 41.1182 22.8297C41.1182 22.9999 41.2565 23.1379 41.4271 23.1379Z" fill="#F4F2F4"/>
<path opacity="0.5" d="M40.8035 23.5702C40.8035 23.6138 40.7905 23.6565 40.7662 23.6928C40.7419 23.729 40.7074 23.7573 40.667 23.774C40.6266 23.7907 40.5821 23.7951 40.5393 23.7866C40.4964 23.778 40.457 23.757 40.4261 23.7262C40.3952 23.6953 40.3741 23.656 40.3656 23.6132C40.357 23.5704 40.3614 23.5261 40.3782 23.4858C40.3949 23.4455 40.4232 23.411 40.4596 23.3868C40.4959 23.3625 40.5387 23.3496 40.5824 23.3496C40.641 23.3496 40.6973 23.3729 40.7387 23.4142C40.7802 23.4556 40.8035 23.5117 40.8035 23.5702Z" fill="#F4F2F4"/>
<path d="M47.7197 31.0943C47.7197 31.0943 49.031 30.1878 49.3005 30.3751C49.57 30.5625 49.5155 30.774 48.9977 30.8828C48.4798 30.9916 47.7197 31.0943 47.7197 31.0943Z" fill="#32282C"/>
<path d="M56.7868 20.0366C56.7868 20.0366 55.7421 18.4894 54.0826 18.7553C52.4231 19.0213 50.7091 19.6105 50.2548 19.6619C49.8006 19.7133 49.2373 20.088 49.8006 20.2663C50.3639 20.4445 53.7616 19.3325 54.4853 19.2781C55.1492 19.2719 55.8034 19.4375 56.3841 19.7586L56.7051 19.9459" fill="#473432"/>
<path d="M56.0631 22.9654C56.0631 22.9654 54.8337 21.7355 53.6557 21.6297C52.4776 21.524 51.4874 21.8443 51.0332 22.2704C50.5789 22.6964 49.9248 23.2676 49.9248 23.2676C49.9248 23.2676 53.1469 24.2648 54.4854 23.7299C55.8239 23.195 56.0631 22.9654 56.0631 22.9654Z" fill="#272127"/>
<path d="M53.6275 22.2825C53.9091 22.5605 54.433 22.8415 54.7752 23.1226C54.3149 23.4916 53.7747 23.7482 53.1975 23.872C53.0129 23.9072 52.8251 23.9224 52.6372 23.9173C51.6701 23.8623 50.7107 23.7135 49.7725 23.4731C49.7725 23.4731 49.8239 23.3976 49.9239 23.2767C50.8748 22.1737 52.3889 22.0347 53.6275 22.2825Z" fill="#F6FAFB"/>
<path d="M51.9962 21.9349C53.4134 21.5874 54.8851 23.0288 54.8851 23.0288L54.7761 23.1225C54.3775 22.8022 53.9375 22.5369 53.4679 22.3338C52.8466 22.1745 52.1947 22.1767 51.5745 22.3401C50.9542 22.5036 50.3863 22.8229 49.9248 23.2676C50.4626 22.6226 51.1855 22.1576 51.9962 21.9349Z" fill="#9CA6B1"/>
<path d="M51.5139 22.8574C51.5139 23.1299 51.6224 23.3912 51.8155 23.5839C52.0085 23.7766 52.2704 23.8848 52.5435 23.8848C52.8166 23.8848 53.0785 23.7766 53.2716 23.5839C53.4646 23.3912 53.5731 23.1299 53.5731 22.8574C53.5666 22.7246 53.5336 22.5945 53.4761 22.4746C53.4186 22.3547 53.3377 22.2475 53.2382 22.1591C53.1386 22.0708 53.0225 22.0031 52.8964 21.9601C52.7704 21.9171 52.637 21.8995 52.5041 21.9085C52.3754 21.9006 52.2463 21.9193 52.1252 21.9637C52.004 22.008 51.8934 22.077 51.8004 22.1661C51.7073 22.2553 51.6338 22.3628 51.5845 22.4818C51.5352 22.6008 51.5111 22.7287 51.5139 22.8574Z" fill="#5E8E8E"/>
<path d="M52.1016 22.8572C52.1016 22.9445 52.1275 23.0298 52.1761 23.1023C52.2247 23.1749 52.2937 23.2314 52.3745 23.2648C52.4553 23.2982 52.5442 23.3069 52.6299 23.2899C52.7157 23.2729 52.7945 23.2309 52.8563 23.1692C52.9182 23.1075 52.9603 23.0289 52.9773 22.9433C52.9944 22.8577 52.9856 22.769 52.9522 22.6884C52.9187 22.6078 52.862 22.5388 52.7893 22.4904C52.7166 22.4419 52.6311 22.416 52.5437 22.416C52.4264 22.416 52.314 22.4625 52.2311 22.5452C52.1481 22.628 52.1016 22.7402 52.1016 22.8572Z" fill="#272127"/>
<path opacity="0.5" d="M52.2229 22.845C52.3935 22.845 52.5318 22.707 52.5318 22.5367C52.5318 22.3665 52.3935 22.2285 52.2229 22.2285C52.0524 22.2285 51.9141 22.3665 51.9141 22.5367C51.9141 22.707 52.0524 22.845 52.2229 22.845Z" fill="#F4F2F4"/>
<path opacity="0.5" d="M52.8438 23.2675C52.8437 23.3111 52.8567 23.3537 52.881 23.39C52.9053 23.4263 52.9398 23.4546 52.9802 23.4713C53.0206 23.488 53.0651 23.4923 53.1079 23.4838C53.1508 23.4753 53.1902 23.4543 53.2211 23.4235C53.252 23.3926 53.2731 23.3533 53.2816 23.3105C53.2902 23.2677 53.2858 23.2234 53.2691 23.1831C53.2523 23.1427 53.224 23.1083 53.1876 23.0841C53.1513 23.0598 53.1085 23.0469 53.0648 23.0469C53.0358 23.0469 53.007 23.0526 52.9802 23.0637C52.9534 23.0748 52.929 23.091 52.9085 23.1115C52.888 23.132 52.8717 23.1563 52.8606 23.1831C52.8495 23.2098 52.8438 23.2385 52.8438 23.2675Z" fill="#F4F2F4"/>
<path d="M47.8138 29.8135C47.8362 29.9411 47.8186 30.0726 47.7632 30.1898C47.7079 30.3071 47.6176 30.4044 47.5048 30.4685C47.3919 30.5325 47.2619 30.5602 47.1326 30.5477C47.0033 30.5352 46.8811 30.4832 46.7826 30.3987C46.6842 30.3142 46.6143 30.2014 46.5826 30.0757C46.5508 29.95 46.5588 29.8176 46.6054 29.6967C46.652 29.5757 46.7349 29.4721 46.8428 29.3999C46.9507 29.3278 47.0783 29.2907 47.2081 29.2937C47.3567 29.286 47.5025 29.3357 47.6153 29.4325C47.7281 29.5293 47.7992 29.6658 47.8138 29.8135Z" fill="#E2C8C0"/>
<path d="M37.5996 22.7246C37.5996 22.7246 38.8836 21.401 39.8466 21.4403C40.5019 21.4831 41.1496 21.6049 41.7756 21.8029C41.7756 21.8029 39.8072 21.5219 39.247 21.8029C38.6868 22.084 37.5996 22.7246 37.5996 22.7246Z" fill="#CAA18E"/>
<path d="M56.2659 22.4043C56.2659 22.4043 54.9788 21.0807 54.0158 21.12C53.3615 21.163 52.7149 21.2848 52.0898 21.4826C52.0898 21.4826 54.0552 21.2016 54.6185 21.4826C55.1817 21.7636 56.2659 22.4043 56.2659 22.4043Z" fill="#CAA18E"/>
<path opacity="0.4" d="M44.1132 29.1396C43.6771 29.5022 43.3167 30.025 43.45 30.6173C43.5196 30.9194 44.1404 30.7623 44.0708 30.4511C44.0475 30.2578 44.0782 30.0618 44.1594 29.8848C44.2406 29.7078 44.3693 29.5566 44.5311 29.4478C44.8551 29.1789 44.3645 28.9281 44.1132 29.1396Z" fill="#CAA18E"/>
<path opacity="0.4" d="M49.9126 29.1353C49.7551 29.0053 49.1858 29.244 49.3311 29.3679C49.7062 29.6877 49.9552 30.13 50.0337 30.616C50.07 30.8033 50.6939 30.6552 50.6545 30.4498C50.569 29.9385 50.3064 29.4733 49.9126 29.1353Z" fill="#CAA18E"/>
<path opacity="0.3" d="M45.1217 35.3541C45.0453 35.3506 44.9691 35.3639 44.8984 35.3932C44.8278 35.4224 44.7644 35.4668 44.7129 35.5233C44.6546 35.5923 44.6197 35.678 44.613 35.768C44.5888 36.0189 45.2186 35.898 45.2186 35.6895C45.2198 35.6325 45.2412 35.5779 45.2792 35.5354C45.3913 35.4296 45.2126 35.3692 45.1217 35.3541Z" fill="#F6FAFB"/>
<path opacity="0.3" d="M46.3332 35.7387C46.2969 35.6027 46.0788 35.6179 45.9759 35.6451C45.9395 35.6451 45.8941 35.6692 45.8547 35.6753C45.8366 35.4396 45.2127 35.5786 45.2339 35.8415C45.2642 36.2041 45.8638 36.0742 46.0758 36.0167C46.1576 35.9593 46.3574 35.8777 46.3332 35.7387Z" fill="#F6FAFB"/>
<path opacity="0.3" d="M48.813 35.2966H48.7706C48.6931 35.2899 48.6151 35.303 48.5441 35.3348C48.4731 35.3665 48.4114 35.4158 48.3648 35.4779C48.2467 35.5354 48.1286 35.5837 48.0196 35.6441L47.9862 35.6049C47.9084 35.5625 47.8205 35.542 47.732 35.5457C47.6434 35.5495 47.5575 35.5772 47.4836 35.626C47.4434 35.6297 47.4038 35.6378 47.3654 35.6502C47.3079 35.5233 47.102 35.5233 46.9415 35.5807C46.7598 35.481 46.3146 35.6411 46.3843 35.8164C46.4206 35.907 46.4267 36.0037 46.463 36.0944C46.4994 36.1851 46.7416 36.2153 46.9082 36.1427C46.9641 36.1755 47.0269 36.1948 47.0915 36.199C47.1562 36.2032 47.221 36.1922 47.2807 36.1669L47.3019 36.1851C47.3643 36.2126 47.4319 36.2269 47.5002 36.2269C47.5685 36.2269 47.6361 36.2126 47.6986 36.1851C47.7337 36.1681 47.7671 36.1478 47.7985 36.1246C47.8744 36.1393 47.9527 36.1363 48.0273 36.1159C48.1019 36.0954 48.1707 36.0581 48.2285 36.0068C48.3401 35.8965 48.476 35.8138 48.6252 35.765C48.6663 35.7454 48.7049 35.7211 48.7403 35.6925C48.792 35.6853 48.8415 35.667 48.8855 35.6388C48.9294 35.6106 48.9666 35.5733 48.9947 35.5293C49.0583 35.3964 48.9311 35.2966 48.813 35.2966Z" fill="#F6FAFB"/>
<path opacity="0.3" d="M44.4373 33.9024H44.3161C44.2389 33.8951 44.161 33.9076 44.09 33.9388C44.0189 33.97 43.9571 34.0189 43.9103 34.0807C43.8377 34.2076 43.9709 34.3013 44.086 34.3013H44.2071C44.2851 34.3083 44.3635 34.2953 44.4351 34.2636C44.5066 34.2318 44.5689 34.1824 44.6159 34.12C44.6886 33.9961 44.5523 33.9024 44.4373 33.9024Z" fill="#F6FAFB"/>
<path opacity="0.3" d="M45.0097 33.9863C44.8068 33.9863 44.3404 34.2885 44.7583 34.2885C44.9612 34.2946 45.4245 33.9863 45.0097 33.9863Z" fill="#F6FAFB"/>
<path opacity="0.5" d="M47.9288 35.6175C47.8605 35.6211 47.7941 35.6407 47.735 35.6749C47.7027 35.6721 47.6703 35.6721 47.638 35.6749C47.4441 35.6762 47.2513 35.6435 47.0687 35.5782C47.0158 35.5602 46.9596 35.5533 46.9039 35.558C46.8481 35.5626 46.7939 35.5788 46.7447 35.6054C46.5933 35.4785 46.1784 35.5872 46.1784 35.7837C46.1851 35.8609 46.1779 35.9386 46.1572 36.0133C46.0361 36.3155 46.6569 36.2792 46.7417 36.0556C46.7417 36.0556 46.7417 36.0345 46.7417 36.0224C47.011 36.1123 47.2935 36.1562 47.5775 36.1523C47.6382 36.1504 47.6975 36.1338 47.7503 36.1037C47.8031 36.0737 47.8477 36.0313 47.8803 35.9801C48.1044 35.8562 48.2498 35.6175 47.9288 35.6175Z" fill="#F6FAFB"/>
<path opacity="0.5" d="M45.3392 35.7054C45.3392 35.7265 45.3392 35.7386 45.3211 35.7446C45.2151 35.8564 45.4089 35.9018 45.4816 35.9018C45.6346 35.9012 45.7817 35.8429 45.8934 35.7386C45.9288 35.7075 45.9515 35.6645 45.957 35.6177C45.9661 35.3911 45.3483 35.524 45.3392 35.7054Z" fill="#F6FAFB"/>
</g>
<defs>
<clipPath id="clip0_936_71620">
<rect width="91" height="134" fill="white"/>
</clipPath>
</defs>
</svg>
