<svg width="72" height="72" viewBox="0 0 72 72" fill="none" xmlns="http://www.w3.org/2000/svg">
<g clip-path="url(#clip0_1265_368133)">
<path d="M68.0907 64.5021L15.4046 70.7866C15.3318 70.7953 15.2602 70.8024 15.1897 70.8079C15.1192 70.8134 15.0482 70.8175 14.9767 70.8202C14.9058 70.8228 14.8355 70.8239 14.7656 70.8235C14.6952 70.8239 14.6255 70.8221 14.5567 70.8194C14.4879 70.8166 14.4179 70.8119 14.3537 70.8057C14.2896 70.7995 14.2163 70.793 14.1498 70.7842C14.0833 70.7754 14.0138 70.7662 13.945 70.7555C13.8763 70.7448 13.8113 70.7321 13.7442 70.7183C13.6772 70.7045 13.612 70.6904 13.5457 70.6743C13.4793 70.6582 13.4149 70.6412 13.3505 70.6248C13.2861 70.6085 13.2202 70.5872 13.1563 70.5665C13.0924 70.5457 13.0283 70.5235 12.9641 70.4999C12.8998 70.4762 12.8376 70.4524 12.7752 70.4271C12.7127 70.4018 12.6502 70.375 12.5885 70.3474C12.5268 70.3199 12.4648 70.2894 12.4031 70.2619C12.3414 70.2343 12.2823 70.2035 12.2209 70.1693C12.1594 70.1352 12.1013 70.1043 12.042 70.0706C11.9826 70.0369 11.923 70.0018 11.8643 69.9659C11.8057 69.9299 11.7469 69.8933 11.6901 69.8556C11.6333 69.818 11.5743 69.7792 11.5172 69.7402C11.4602 69.7011 11.4069 69.6594 11.3477 69.6185C11.2884 69.5775 11.237 69.5349 11.1817 69.4927C11.1263 69.4506 11.0707 69.4062 11.017 69.3617C10.9634 69.3172 10.9056 69.2716 10.8557 69.2252C10.8059 69.1787 10.7499 69.1316 10.6969 69.084L10.5407 68.9389C10.4895 68.8897 10.4383 68.8398 10.3879 68.789C10.3375 68.7382 10.2871 68.6868 10.2376 68.6345C10.188 68.5821 10.1395 68.5297 10.0909 68.4766C10.0422 68.4234 9.99352 68.3695 9.94572 68.3148C9.89791 68.2601 9.8511 68.2053 9.8042 68.1498L9.66631 67.9814C9.62024 67.9243 9.57515 67.867 9.53097 67.809C9.4868 67.7509 9.44163 67.693 9.39836 67.6341C9.35509 67.5753 9.31173 67.5157 9.26937 67.4559C9.22701 67.3962 9.18464 67.3365 9.14716 67.2755C9.10967 67.2144 9.06416 67.1536 9.02461 67.0921C8.98505 67.0306 8.94342 66.9686 8.9018 66.9066C8.86017 66.8446 8.82351 66.7821 8.78486 66.7197L8.67163 66.5302C8.6348 66.4661 8.59805 66.4028 8.56221 66.3387C8.52637 66.2746 8.49052 66.2104 8.45559 66.1455C8.42065 66.0805 8.38581 66.0162 8.35294 65.9517C8.32008 65.8872 8.28506 65.8216 8.2531 65.7562C8.22115 65.6909 8.18811 65.625 8.15615 65.5596C8.1242 65.4943 8.09414 65.428 8.06408 65.3618C8.03403 65.2955 8.00406 65.2299 7.97499 65.1635C7.94593 65.0971 7.91695 65.0314 7.88888 64.9649C7.86081 64.8984 7.83381 64.8325 7.80674 64.7658L7.72865 64.567L7.65354 64.3678C7.6291 64.2979 7.6065 64.2351 7.58348 64.1687C7.56046 64.1023 7.53744 64.0359 7.51549 63.9702C7.49355 63.9044 7.4726 63.8384 7.45264 63.7724C7.43268 63.7064 7.41173 63.6405 7.39285 63.575C7.37397 63.5096 7.35509 63.4442 7.3372 63.3786C7.31931 63.3131 7.30151 63.2482 7.2847 63.1833C7.26789 63.1183 7.24777 63.0509 7.23294 62.9857C7.21812 62.9205 7.20264 62.8583 7.18898 62.7944C7.17532 62.7305 7.16166 62.6667 7.14908 62.6034C7.1365 62.5401 7.12392 62.4769 7.11284 62.4178C7.10177 62.3587 7.09049 62.2894 7.08114 62.228C7.0718 62.1665 7.06633 62.1038 7.05302 62.0428C7.0397 61.9818 7.03847 61.9208 7.03128 61.8606L0.829621 9.86939C0.698793 8.7726 1.48186 7.77742 2.57866 7.64659L58.499 0.976254C59.5957 0.845425 60.5909 1.62849 60.7218 2.72529L68.0907 64.5021Z" fill="url(#paint0_linear_1265_368133)"/>
<path d="M3 8.50459L57.4995 2.00213C57.9993 2.00213 59.5995 1.9046 59.9995 3.5046C60.3995 5.1046 63.4995 31.5046 64.9995 44.5046" stroke="url(#paint1_linear_1265_368133)"/>
<path d="M11.3636 63.549C11.355 63.4773 11.3472 63.412 11.3392 63.3445C11.3311 63.2771 11.3233 63.2118 11.3225 63.1456C11.3217 63.0795 11.313 63.0158 11.3096 62.9529C11.3061 62.89 11.3045 62.8261 11.3022 62.7645C11.2999 62.7029 11.2996 62.6411 11.2984 62.5808C11.2973 62.5206 11.2993 62.4614 11.3004 62.403C11.3015 62.3447 11.3026 62.287 11.3049 62.23C11.3072 62.173 11.3106 62.1172 11.314 62.0615C11.3174 62.0058 11.3221 61.9521 11.3278 61.8983C11.3334 61.8445 11.3383 61.7923 11.3441 61.7399C11.3499 61.6875 11.3579 61.6363 11.365 61.586C11.3721 61.5357 11.3803 61.4859 11.3896 61.4375C11.3989 61.3891 11.4072 61.3408 11.4167 61.2931C11.4261 61.2454 11.4366 61.199 11.4473 61.1533C11.458 61.1077 11.4687 61.0627 11.4805 61.0184C11.4924 60.974 11.5042 60.9297 11.5172 60.8866C11.5302 60.8436 11.5423 60.8014 11.5565 60.7604C11.5707 60.7194 11.5839 60.6778 11.5982 60.6375C11.6125 60.5973 11.6274 60.5613 11.6415 60.5196C11.6557 60.4778 11.6727 60.4431 11.6883 60.4055C11.704 60.368 11.7205 60.3289 11.7366 60.295C11.7527 60.261 11.7703 60.2233 11.7874 60.1892C11.8045 60.1552 11.8225 60.1203 11.8396 60.0869L11.8943 59.988L11.9494 59.8933L12.0071 59.8028C12.0257 59.7729 12.0454 59.7436 12.0652 59.7158L12.1246 59.6315C12.1445 59.6044 12.1645 59.578 12.1855 59.5515C12.2065 59.525 12.2257 59.5001 12.2469 59.475C12.2681 59.4499 12.2873 59.4251 12.3086 59.4014C12.3299 59.3778 12.3503 59.3543 12.3707 59.3314L12.4342 59.2642L12.4971 59.2006C12.5178 59.18 12.5396 59.1599 12.5603 59.14L12.6229 59.0823L12.6859 59.0282L12.7492 58.9762C12.7693 58.9593 12.7906 58.9429 12.8109 58.9274L12.8728 58.8814C12.8931 58.8659 12.9136 58.8518 12.9331 58.8379L12.9926 58.7966C13.0132 58.7839 13.0328 58.7707 13.0514 58.7583C13.0701 58.7458 13.0898 58.734 13.1097 58.7229L13.1651 58.6894L13.2197 58.6581L13.2727 58.6292L13.3239 58.6028L13.3734 58.5787L13.42 58.5564L13.4649 58.5357L13.507 58.5176L13.5473 58.5004L13.5838 58.4859L13.6185 58.473L13.6493 58.4613L13.6774 58.4521L13.7026 58.4433L13.7244 58.4407L13.7433 58.4385L13.7572 58.4368L13.7681 58.4355L13.774 58.4348L54.3758 53.5917L54.3689 53.5925L54.359 53.5937L54.3441 53.5955L54.3262 53.5976L54.3044 53.6002L54.2792 53.609L54.2511 53.6182L54.2193 53.63L54.1856 53.6428L54.1481 53.6574L54.1088 53.6745L54.0657 53.6927L54.0208 53.7134L53.9742 53.7357L53.9247 53.7598L53.8745 53.7861L53.8215 53.815L53.7669 53.8463L53.7105 53.8799L53.6533 53.9152L53.5944 53.9535L53.5349 53.9948C53.5144 54.0089 53.494 54.0229 53.4737 54.0385L53.4127 54.0843C53.3914 54.1 53.3712 54.1162 53.35 54.1333L53.2878 54.1851L53.2247 54.2392L53.1612 54.297L53.0979 54.3577L53.035 54.4212C53.0145 54.4433 52.993 54.4655 52.9725 54.4883C52.9521 54.5112 52.9307 54.5341 52.9094 54.5585L52.8477 54.632C52.8275 54.657 52.8064 54.6821 52.7864 54.7085L52.7264 54.7884L52.6711 54.8729C52.6512 54.9007 52.6316 54.93 52.612 54.96C52.5924 54.99 52.5738 55.0199 52.5553 55.0505C52.5368 55.0811 52.5175 55.1132 52.4992 55.1452C52.4808 55.1773 52.4627 55.2107 52.4455 55.2441C52.4283 55.2774 52.4103 55.3116 52.3933 55.3464C52.3763 55.3811 52.3593 55.4159 52.3425 55.4521C52.3256 55.4883 52.3103 55.5287 52.2942 55.5627C52.2781 55.5966 52.2621 55.6393 52.2474 55.6767C52.2327 55.7141 52.2173 55.7531 52.2031 55.7948C52.1889 55.8365 52.1745 55.8761 52.1614 55.9177C52.1482 55.9593 52.1351 56.0009 52.1221 56.0439C52.1091 56.0869 52.0972 56.1306 52.0864 56.1755C52.0757 56.2205 52.0629 56.2649 52.0522 56.3106C52.0415 56.3563 52.031 56.4034 52.0215 56.4504C52.012 56.4973 52.0028 56.5465 51.9945 56.5948C51.9861 56.6431 51.9781 56.6935 51.9709 56.7431C51.9637 56.7928 51.9559 56.8454 51.95 56.897C51.944 56.9487 51.9383 57.0018 51.9326 57.0556C51.927 57.1094 51.9234 57.1637 51.9199 57.2187C51.9164 57.2737 51.913 57.3301 51.9108 57.3871C51.9085 57.4442 51.9063 57.5019 51.9052 57.5603C51.9042 57.6186 51.9042 57.6783 51.9043 57.738C51.9044 57.7976 51.9057 57.8594 51.9081 57.9217C51.9105 57.984 51.9119 58.0464 51.9154 58.11C51.919 58.1736 51.9227 58.238 51.9274 58.3029C51.9321 58.3678 51.943 58.4342 51.945 58.5017C51.947 58.5691 51.9611 58.6366 51.9694 58.7062C51.9753 58.7557 51.9813 58.8052 51.9871 58.854C51.9929 58.9028 51.9987 58.9516 52.0042 58.9975C52.0097 59.0434 52.0156 59.0929 52.0263 59.1404L52.0493 59.2832L52.0748 59.4207C52.0803 59.4666 52.0926 59.511 52.102 59.5557L52.1299 59.6885C52.1351 59.7322 52.1494 59.7757 52.1595 59.8181C52.1696 59.8606 52.1807 59.9037 52.1908 59.9454C52.2008 59.9871 52.2129 60.0294 52.2238 60.0703C52.2347 60.1112 52.2467 60.1527 52.2585 60.1928L52.2939 60.3123C52.3057 60.3523 52.3185 60.3916 52.3311 60.4301C52.3438 60.4686 52.3564 60.5071 52.37 60.5448C52.3835 60.5825 52.396 60.6196 52.4095 60.6566C52.423 60.6935 52.4364 60.7305 52.4508 60.7666C52.4652 60.8028 52.4782 60.8361 52.4928 60.8737C52.5073 60.9113 52.5222 60.943 52.5365 60.9784L52.5819 61.0807C52.597 61.1145 52.6123 61.1498 52.628 61.18L52.6759 61.2776C52.6917 61.3092 52.7076 61.3408 52.7244 61.3723C52.7413 61.4037 52.7569 61.4339 52.7736 61.4639C52.7903 61.4939 52.8079 61.5239 52.8246 61.5539L52.8773 61.6408C52.8948 61.6693 52.9123 61.6977 52.9307 61.7254C52.9491 61.753 52.9665 61.7808 52.9848 61.8077L53.0447 61.8879C53.0639 61.914 53.0821 61.9402 53.1013 61.9656L53.1585 62.0403L53.2164 62.112L53.2761 62.182C53.2959 62.2044 53.3158 62.2275 53.3353 62.2477L53.3965 62.3132L53.4586 62.3785C53.4801 62.3985 53.5007 62.4187 53.5221 62.4379C53.5435 62.4572 53.564 62.4773 53.5854 62.4959L53.6493 62.5508L53.715 62.6034C53.7362 62.6205 53.7583 62.6368 53.7803 62.6531C53.8024 62.6694 53.8245 62.6857 53.8474 62.7004C53.8703 62.7152 53.8924 62.7315 53.9142 62.7456C53.936 62.7597 53.96 62.7751 53.9827 62.7884L54.051 62.829L54.1199 62.8666L54.1896 62.902C54.2132 62.9137 54.2366 62.9247 54.26 62.9351L54.3311 62.9659L54.4029 62.9937L54.4744 63.0194C54.4986 63.0274 54.5227 63.0355 54.5477 63.0427L54.6206 63.0631L54.6934 63.0821L54.7677 63.0979C54.7915 63.1031 54.8162 63.1074 54.8419 63.1116L54.9156 63.1225L54.9913 63.1317L55.0655 63.1381L55.1415 63.1421L55.2172 63.1433L55.2926 63.1423L55.3688 63.1398L55.4452 63.1306C55.47 63.1277 55.4958 63.1246 55.5217 63.1215L14.9198 67.9646C14.895 67.9676 14.8692 67.9707 14.8434 67.9737L14.7679 67.9827C14.7421 67.9858 14.7169 67.9852 14.6917 67.9853L14.6153 67.9864L14.5397 67.9852L14.4647 67.9811L14.3894 67.9748L14.3148 67.9655C14.2893 67.9627 14.2646 67.9584 14.24 67.9547L14.1659 67.941L14.0925 67.925L14.0188 67.9062L13.9459 67.8858L13.8736 67.8624L13.8011 67.8368L13.7303 67.8089L13.6592 67.778C13.6358 67.7677 13.6123 67.7567 13.5888 67.745C13.5653 67.7339 13.5418 67.7222 13.5191 67.7096C13.4965 67.697 13.4728 67.6845 13.4492 67.6721L13.3809 67.6315C13.3582 67.6182 13.3353 67.6034 13.3134 67.5886C13.2915 67.5737 13.2686 67.559 13.2456 67.5435C13.2226 67.5281 13.2016 67.5124 13.1795 67.4961L13.1132 67.4465L13.0485 67.3938L12.9836 67.339L12.9203 67.281L12.8578 67.2215L12.7956 67.1562C12.775 67.1353 12.7543 67.1138 12.7345 67.0907L12.6743 67.0251C12.6544 67.002 12.6345 66.9789 12.6156 66.9549C12.5966 66.931 12.5767 66.9072 12.5567 66.8834L12.4995 66.8087C12.4813 66.7832 12.4621 66.7571 12.4439 66.7309C12.4256 66.7047 12.4064 66.6786 12.3881 66.6517C12.3698 66.6247 12.3524 66.597 12.334 66.5693C12.3156 66.5417 12.2981 66.5132 12.2806 66.4847C12.2631 66.4562 12.2465 66.4269 12.2289 66.3977C12.2114 66.3685 12.1947 66.3385 12.1779 66.3077L12.1277 66.2162C12.1119 66.1846 12.095 66.1531 12.0792 66.1216C12.0633 66.09 12.0473 66.0569 12.0323 66.0238C12.0173 65.9907 12.0009 65.9548 11.9852 65.9246C11.9695 65.8945 11.9548 65.8555 11.9408 65.8222C11.9268 65.7889 11.9114 65.7529 11.8971 65.7175L11.8541 65.6106C11.8407 65.5743 11.8263 65.5375 11.8128 65.5005C11.7993 65.4635 11.7869 65.4265 11.7733 65.3888C11.7597 65.3511 11.7471 65.3126 11.7345 65.274C11.7218 65.2355 11.7101 65.1962 11.6982 65.1561C11.6864 65.116 11.6737 65.0768 11.6618 65.0367C11.65 64.9966 11.6391 64.9557 11.6281 64.9141C11.6171 64.8725 11.6062 64.8316 11.5951 64.7892C11.584 64.7469 11.574 64.7051 11.5638 64.662C11.5536 64.6188 11.5434 64.5756 11.5342 64.5323C11.525 64.489 11.5147 64.4444 11.5053 64.3996C11.4959 64.3549 11.4876 64.3101 11.4791 64.2645C11.4707 64.2189 11.4622 64.1734 11.4537 64.1271C11.4451 64.0808 11.4375 64.0337 11.4296 63.9844C11.4217 63.9351 11.4183 63.8897 11.4125 63.8409L11.3954 63.6973C11.3764 63.6479 11.3695 63.5985 11.3636 63.549Z" fill="url(#paint2_linear_1265_368133)"/>
<path d="M42.9736 61.4777C42.9683 61.4332 42.963 61.3887 42.9579 61.3457C42.9527 61.3026 42.9475 61.2589 42.9426 61.2172C42.9376 61.1756 42.9276 61.1339 42.9207 61.0932C42.9139 61.0525 42.905 61.0121 42.8963 60.9731C42.8877 60.9341 42.88 60.895 42.8704 60.8569C42.8608 60.8187 42.8524 60.7819 42.843 60.7451C42.8335 60.7084 42.8235 60.6747 42.8129 60.6366C42.8023 60.5986 42.7924 60.5663 42.7813 60.532C42.7701 60.4976 42.7598 60.4618 42.7481 60.4311C42.7364 60.4005 42.7252 60.3654 42.7134 60.3341C42.7016 60.3028 42.6897 60.2707 42.677 60.2402C42.6643 60.2097 42.6526 60.1791 42.639 60.1494C42.6254 60.1197 42.6129 60.0914 42.6005 60.063C42.5881 60.0347 42.5736 60.0065 42.5593 59.9791C42.5449 59.9517 42.5317 59.9249 42.5175 59.899C42.5033 59.873 42.4892 59.847 42.4751 59.8218C42.461 59.7965 42.446 59.7721 42.431 59.7477C42.416 59.7233 42.4011 59.6996 42.3853 59.6768C42.3695 59.6539 42.3556 59.6308 42.34 59.6094L42.2927 59.5422C42.2771 59.5208 42.2615 59.5001 42.245 59.4802C42.2286 59.4604 42.213 59.4397 42.1976 59.4204L42.1487 59.3644L42.0999 59.3105L42.0495 59.259L42.0004 59.2103L41.9496 59.1647L41.8991 59.1205L41.8488 59.0792L41.7989 59.0407C41.7823 59.0274 41.7657 59.0156 41.7482 59.0038L41.6988 58.969L41.6486 58.9364C41.6322 58.926 41.6159 58.9156 41.5986 58.906L41.5499 58.8776C41.5333 58.8679 41.5172 58.8589 41.5014 58.8506L41.4531 58.8258C41.437 58.8175 41.422 58.8099 41.4061 58.803C41.3902 58.7962 41.3751 58.7878 41.3593 58.7817L41.3136 58.7617L41.2682 58.7438C41.2533 58.7376 41.2396 58.7319 41.2249 58.7271L41.1818 58.7119L41.1399 58.698L41.1001 58.6852L41.0605 58.674L41.023 58.6639L40.9867 58.6551L40.9515 58.6469L40.9185 58.6399L40.8876 58.6342L40.8578 58.629L40.8301 58.625L40.8044 58.6208L40.7742 58.6208L40.7529 58.6189L40.7335 58.6169L40.7166 58.6189L40.7027 58.6206L40.6908 58.622L40.6819 58.623L14.3403 61.7651L14.3503 61.764L14.3622 61.7625L14.3761 61.7609L14.3929 61.7589L14.4123 61.7609L14.4337 61.7627L14.4572 61.7658L14.4829 61.77L14.5105 61.7739L14.5394 61.7792L14.5712 61.7849L14.6043 61.7919L14.6385 61.8002L14.6745 61.8068L14.713 61.8168L14.7516 61.8282L14.7924 61.8408L14.8343 61.8547L14.8764 61.87L14.9207 61.8866L14.9661 61.9045L15.0118 61.9245L15.0586 61.9458L15.1056 61.9686L15.1539 61.9934C15.1697 62.0017 15.1858 62.0107 15.2024 62.0204L15.2511 62.0488L15.3011 62.0792L15.3503 62.1119C15.3677 62.1229 15.3842 62.1348 15.4007 62.1466L15.4514 62.1835L15.5013 62.222L15.5516 62.2633L15.6022 62.3075C15.619 62.3222 15.636 62.3377 15.6519 62.3532C15.6679 62.3688 15.686 62.3855 15.702 62.4018C15.718 62.4181 15.7352 62.4357 15.7515 62.4534C15.7677 62.4711 15.7849 62.4887 15.8012 62.5072C15.8175 62.5256 15.8337 62.544 15.8491 62.5633C15.8645 62.5826 15.882 62.6023 15.8975 62.623C15.9131 62.6437 15.9296 62.6636 15.9452 62.685L15.9925 62.7522C16.0072 62.7744 16.023 62.7973 16.0378 62.8196L16.0825 62.8906C16.0975 62.915 16.1125 62.9395 16.1266 62.9647C16.1407 62.99 16.1557 63.0151 16.17 63.0418C16.1843 63.0685 16.1974 63.0945 16.2118 63.1219C16.2261 63.1493 16.2385 63.177 16.252 63.2059C16.2655 63.2349 16.279 63.2631 16.2915 63.2922L16.3295 63.383C16.3422 63.4135 16.354 63.4448 16.3659 63.4769C16.3778 63.509 16.3896 63.541 16.4006 63.5739L16.4338 63.6748C16.4449 63.7091 16.4552 63.745 16.4654 63.7794C16.4755 63.8139 16.4859 63.8498 16.4955 63.8879C16.505 63.9261 16.5139 63.9585 16.5229 63.9997L16.5488 64.1159C16.5535 64.1554 16.5654 64.1955 16.5722 64.2361C16.5791 64.2768 16.5821 64.3186 16.5941 64.3602C16.6061 64.4017 16.6042 64.4448 16.6094 64.4886C16.6146 64.5324 16.6198 64.5761 16.6251 64.6206C16.629 64.6529 16.6328 64.6845 16.6366 64.7168C16.6405 64.7491 16.6441 64.7799 16.6478 64.8108L16.659 64.9041C16.6626 64.9349 16.6662 64.9651 16.6698 64.9952C16.6734 65.0254 16.677 65.0555 16.6747 65.0863C16.6723 65.1172 16.6817 65.1452 16.6782 65.1754C16.6748 65.2057 16.6802 65.2342 16.6806 65.2632L16.6782 65.3523C16.6815 65.3803 16.6779 65.4091 16.6773 65.4375C16.6766 65.466 16.6769 65.4936 16.6762 65.5214C16.6755 65.5491 16.6747 65.5761 16.673 65.604C16.6713 65.6319 16.6704 65.6582 16.6685 65.6846C16.6666 65.711 16.6658 65.738 16.6639 65.7645C16.662 65.7909 16.6591 65.8167 16.6571 65.8424C16.6551 65.8681 16.6512 65.8941 16.6488 65.9162C16.6464 65.9383 16.6428 65.9671 16.6385 65.9902C16.6342 66.0133 16.6324 66.0404 16.6282 66.0642C16.624 66.088 16.6208 66.1124 16.6169 66.1383L16.6042 66.209C16.6 66.2328 16.5947 66.256 16.5904 66.2791C16.5861 66.3021 16.5808 66.3253 16.5754 66.3478L16.5592 66.4145C16.5529 66.4371 16.5474 66.4589 16.5419 66.4806C16.5365 66.5024 16.5289 66.5236 16.5234 66.5447L16.5037 66.6074C16.4972 66.6286 16.4895 66.6492 16.4828 66.6689C16.4761 66.6886 16.4685 66.7092 16.4608 66.729C16.4531 66.7488 16.4464 66.7686 16.4386 66.7877L16.4153 66.8451C16.4065 66.8643 16.3986 66.8827 16.3897 66.9012C16.3809 66.9198 16.3729 66.9374 16.364 66.9552C16.355 66.9731 16.347 66.9907 16.3381 67.0086L16.31 67.0599C16.301 67.077 16.2908 67.0935 16.2817 67.1099C16.2726 67.1263 16.2625 67.1428 16.2523 67.1585L16.2217 67.2058C16.2115 67.2216 16.2012 67.2367 16.1899 67.2518C16.1786 67.267 16.1693 67.282 16.158 67.2964L16.1249 67.3397C16.1144 67.3533 16.1031 67.3677 16.0915 67.3808C16.08 67.3938 16.0686 67.4082 16.0561 67.4214L16.0214 67.4597L15.9846 67.4976L15.9476 67.5333L15.9094 67.5677L15.8711 67.6006L15.8316 67.6323L15.7918 67.6618C15.7779 67.6722 15.765 67.6817 15.7509 67.6907L15.7089 67.7182C15.6959 67.7271 15.6817 67.7353 15.6676 67.7435L15.6242 67.7676L15.5807 67.791L15.5369 67.8123L15.4919 67.8322L15.4468 67.8507C15.4309 67.8526 15.417 67.8622 15.4014 67.867L15.355 67.8827L15.3074 67.8971L15.2605 67.9093L15.2125 67.9208L15.1633 67.9303L15.1147 67.9361L41.4572 64.7939L41.5069 64.788L41.5551 64.7786L41.603 64.7671L41.6509 64.7548L41.6975 64.7405L41.744 64.7248C41.7599 64.7229 41.7749 64.7138 41.7893 64.7084L41.8355 64.6898L41.8794 64.67L41.9242 64.6487L41.9667 64.6254C41.9819 64.6178 41.996 64.6096 42.0102 64.6013L42.0524 64.5759L42.0935 64.5484C42.1078 64.5394 42.1214 64.5297 42.1343 64.5196L42.1796 64.4938L42.2191 64.4621L42.2584 64.4291L42.2956 64.3948L42.3326 64.3591L42.3694 64.3212L42.4051 64.2827L42.4395 64.2423L42.4739 64.201L42.507 64.1578L42.5389 64.1132L42.5697 64.0673L42.6003 64.02C42.6105 64.0043 42.6206 63.9878 42.6297 63.9714C42.6389 63.955 42.649 63.9385 42.658 63.9214C42.667 63.9043 42.6771 63.8871 42.6861 63.8701L42.713 63.8166C42.7219 63.7988 42.7299 63.7811 42.7387 63.7626C42.7476 63.7441 42.7555 63.7257 42.7633 63.7066L42.7866 63.6492L42.8098 63.5904C42.8165 63.5707 42.8242 63.5508 42.8308 63.5304C42.8375 63.5099 42.8452 63.4901 42.8517 63.4689L42.8714 63.4062C42.8779 63.385 42.8834 63.3633 42.8899 63.3421C42.8965 63.321 42.9019 63.2985 42.9072 63.276L42.9234 63.2093C42.9288 63.1868 42.9341 63.1636 42.9384 63.1406C42.9427 63.1175 42.948 63.0943 42.9522 63.0705C42.9564 63.0467 42.9617 63.0235 42.9649 62.9998L42.9772 62.9256C42.9803 62.9012 42.9844 62.876 42.9875 62.8516L42.9968 62.7777C42.9998 62.7526 43.0018 62.7269 43.0051 62.7039C43.0084 62.681 43.01 62.6517 43.0119 62.626L43.0175 62.546C43.0194 62.5195 43.0202 62.4925 43.022 62.4654L43.0242 62.3829L43.0263 62.2989C43.0229 62.2709 43.0266 62.2421 43.0262 62.2138C43.0258 62.1855 43.0264 62.1563 43.0249 62.1273L43.0235 62.0394L43.019 61.9505L43.0141 61.8593C43.0105 61.8292 43.0069 61.7991 43.0033 61.7682C42.9996 61.7374 42.9959 61.7065 42.9921 61.6749C42.9884 61.6433 42.9847 61.6125 42.9809 61.5809L42.9736 61.4777Z" fill="url(#paint3_linear_1265_368133)"/>
<path d="M71.2206 57.8487C71.21 57.7597 71.1995 57.6714 71.1891 57.5846C71.1788 57.4978 71.1685 57.4117 71.1495 57.3288C71.1306 57.2459 71.1216 57.1618 71.1068 57.0806C71.0921 56.9994 71.0755 56.9191 71.059 56.8403C71.0426 56.7615 71.0254 56.6849 71.0072 56.6085C70.989 56.5321 70.9701 56.4579 70.9513 56.3845C70.9325 56.311 70.9127 56.2384 70.8923 56.1681C70.8718 56.0977 70.8503 56.0275 70.8289 55.9573C70.8074 55.8871 70.7855 55.8213 70.7624 55.7549C70.7394 55.6885 70.7167 55.6243 70.693 55.5608C70.6693 55.4974 70.6446 55.4342 70.6202 55.373C70.5958 55.3119 70.5695 55.2517 70.5443 55.1921C70.5191 55.1325 70.4921 55.0754 70.4651 55.0182C70.4382 54.961 70.4115 54.9059 70.3838 54.851C70.3561 54.7961 70.3286 54.7433 70.3002 54.6907C70.2718 54.638 70.2435 54.5868 70.2144 54.5364C70.1852 54.4861 70.1562 54.4371 70.1262 54.3883C70.0962 54.3395 70.0665 54.2928 70.0369 54.2468C70.0072 54.2009 69.9756 54.1552 69.9453 54.1122C69.915 54.0692 69.8835 54.025 69.8513 53.983C69.8191 53.9409 69.7889 53.8987 69.7569 53.8581C69.7249 53.8176 69.693 53.7784 69.6603 53.7401C69.6275 53.7018 69.5958 53.6641 69.5632 53.6272C69.5306 53.5904 69.4981 53.5542 69.4648 53.5196C69.4315 53.485 69.3992 53.4503 69.366 53.4171C69.3328 53.384 69.2999 53.3522 69.2658 53.3199C69.2317 53.2876 69.1987 53.2551 69.1662 53.2277C69.1337 53.2003 69.0988 53.1688 69.0651 53.1401L68.9647 53.0574C68.9313 53.0309 68.897 53.0051 68.8637 52.9792C68.8304 52.9534 68.7964 52.9298 68.7634 52.9061C68.7303 52.8823 68.6963 52.8587 68.6624 52.8366C68.6286 52.8144 68.5968 52.7927 68.563 52.7713C68.5293 52.7499 68.4967 52.7304 68.4641 52.7103L68.3657 52.6529L68.2687 52.5997C68.2364 52.5822 68.2042 52.5657 68.1722 52.5501L68.0781 52.5038L67.9844 52.4611L67.8931 52.4218C67.8624 52.4095 67.8327 52.397 67.8032 52.386L67.7144 52.3507L67.6282 52.3202L67.5454 52.2923L67.4638 52.2671L67.3857 52.2451C67.3597 52.238 67.3347 52.2308 67.3098 52.225L67.2381 52.2066L67.1678 52.191C67.146 52.1856 67.1234 52.1817 67.1017 52.1771L67.0398 52.1648L66.9802 52.1544L66.9248 52.1458L66.8736 52.1388L66.8266 52.1327L66.7837 52.1277L66.745 52.1243L66.7115 52.1217L66.682 52.1194L66.6577 52.1179L66.6388 52.1202L66.6259 52.1217L66.617 52.1228L13.9309 58.4073L13.9389 58.4064L13.9528 58.4047L13.9716 58.4025L13.996 58.404L14.0245 58.4064L14.059 58.4088L14.0967 58.4123L14.1395 58.4174L14.1876 58.4233L14.2387 58.4303L14.2941 58.439L14.3528 58.4495L14.4157 58.4616L14.4818 58.4756L14.5511 58.4913L14.6237 58.5096C14.6486 58.5153 14.6736 58.5225 14.6986 58.5297L14.7778 58.5516L14.8583 58.5769L14.9422 58.6048C14.9695 58.6146 14.9989 58.6242 15.0274 58.6354C15.0559 58.6465 15.0853 58.6568 15.1149 58.6686C15.1445 58.6803 15.1751 58.692 15.2048 58.7044L15.2971 58.7437L15.3898 58.7865L15.4849 58.8326C15.517 58.8484 15.5481 58.8651 15.5804 58.8823L15.6784 58.9354L15.7758 58.9929L15.8757 59.0538L15.9751 59.1191C16.008 59.1414 16.0419 59.1643 16.0751 59.1887C16.1082 59.2131 16.1422 59.2367 16.1754 59.2619C16.2086 59.287 16.243 59.3135 16.2764 59.3401L16.3768 59.4227C16.4105 59.4514 16.4441 59.4802 16.4779 59.5104C16.5117 59.5405 16.5445 59.5708 16.5785 59.6024L16.6777 59.6998C16.7109 59.7329 16.7438 59.7647 16.7765 59.8022C16.8092 59.8398 16.8423 59.873 16.8749 59.9099L16.973 60.0226C17.0047 60.061 17.0367 60.1009 17.0686 60.1408C17.1005 60.1806 17.1327 60.2226 17.164 60.2655C17.1953 60.3083 17.2265 60.3504 17.257 60.3948C17.2874 60.4392 17.319 60.4842 17.3486 60.5295C17.3781 60.5747 17.409 60.6227 17.4389 60.6708C17.4688 60.7189 17.4979 60.7686 17.5271 60.819C17.5562 60.8693 17.5845 60.9205 17.6129 60.9732C17.6413 61.0258 17.6689 61.0793 17.6965 61.1335C17.7241 61.1877 17.751 61.2442 17.7778 61.3007C17.8047 61.3571 17.8308 61.4159 17.856 61.4748C17.8811 61.5336 17.9074 61.5938 17.9319 61.6557C17.9564 61.7175 17.9809 61.7794 18.0047 61.8435C18.0284 61.9076 18.0512 61.9718 18.0741 62.0375C18.0971 62.1032 18.1193 62.1711 18.1406 62.2399C18.1619 62.3087 18.1835 62.3804 18.204 62.4507C18.2244 62.521 18.2439 62.5915 18.263 62.6671C18.2821 62.7427 18.3008 62.8154 18.3189 62.8911C18.337 62.9668 18.3544 63.0448 18.3707 63.1229C18.3871 63.201 18.4028 63.2821 18.4185 63.3632C18.4342 63.4443 18.4482 63.5271 18.4622 63.6113C18.4763 63.6955 18.4884 63.7799 18.5008 63.8672C18.5132 63.9545 18.5217 64.0423 18.5323 64.1313C18.54 64.1959 18.5476 64.2597 18.5552 64.3236C18.5629 64.3875 18.5703 64.4499 18.5778 64.5123C18.5852 64.5748 18.5926 64.6372 18.593 64.699C18.5933 64.7608 18.6076 64.8217 18.6059 64.8831C18.6041 64.9444 18.6133 65.0044 18.6164 65.0645C18.6196 65.1245 18.6216 65.1839 18.6236 65.2427C18.6256 65.3014 18.6276 65.3608 18.6285 65.4189C18.6294 65.477 18.6302 65.5344 18.631 65.5918L18.6301 65.7615C18.6298 65.8183 18.6284 65.8738 18.627 65.9293C18.6255 65.9848 18.623 66.0397 18.6215 66.0944C18.62 66.1492 18.6163 66.2028 18.6126 66.2563C18.6089 66.3099 18.6062 66.3626 18.6014 66.4156C18.5966 66.4686 18.5927 66.52 18.5878 66.5715C18.5829 66.623 18.5779 66.6746 18.5719 66.7255C18.5659 66.7764 18.5598 66.8267 18.5533 66.8733C18.5468 66.9199 18.54 66.9724 18.5327 67.0213C18.5254 67.0702 18.5172 67.1192 18.5091 67.1697C18.501 67.2201 18.4934 67.2654 18.4839 67.3124C18.4744 67.3594 18.4659 67.4063 18.4563 67.4525C18.4467 67.4988 18.4359 67.5438 18.4263 67.5893C18.4166 67.6349 18.4048 67.6792 18.3929 67.7236C18.3811 67.7679 18.3702 67.8114 18.3583 67.8551C18.3464 67.8987 18.3343 67.9409 18.3212 67.9832C18.3081 68.0255 18.2961 68.0677 18.2829 68.1093C18.2697 68.1509 18.2555 68.1919 18.2412 68.2322L18.1981 68.3523C18.1837 68.3919 18.168 68.4287 18.1527 68.4698C18.1375 68.5109 18.1216 68.5463 18.1049 68.584C18.0883 68.6216 18.0728 68.6606 18.0559 68.6961C18.039 68.7316 18.0222 68.7685 18.0044 68.8048C17.9866 68.8411 17.9696 68.8759 17.9506 68.9109C17.9316 68.946 17.9146 68.98 17.8954 69.0136C17.8763 69.0472 17.8582 69.0814 17.8389 69.1142C17.8197 69.1471 17.7994 69.1793 17.7801 69.2115L17.7189 69.3061C17.6985 69.3377 17.6769 69.3679 17.6563 69.398L17.5915 69.4873L17.5262 69.5729C17.5033 69.6011 17.4805 69.6293 17.4573 69.6539C17.434 69.6785 17.4114 69.7081 17.3884 69.7349C17.3654 69.7617 17.3413 69.7871 17.3176 69.8161L17.2449 69.891C17.2206 69.915 17.1963 69.939 17.1709 69.9625C17.1455 69.9859 17.1211 70.0091 17.0955 70.0311C17.07 70.0531 17.0435 70.0759 17.0178 70.0972L16.9388 70.1604C16.913 70.181 16.8862 70.2009 16.8593 70.2201C16.8324 70.2394 16.8046 70.2594 16.7776 70.2779L16.6945 70.3322L16.6039 70.3831L16.518 70.4312L16.4319 70.4771L16.3433 70.5197L16.2544 70.5594C16.2237 70.5725 16.194 70.5848 16.1582 70.5971C16.1224 70.6093 16.0976 70.6203 16.0616 70.6312L15.9647 70.6631L15.8674 70.6914L15.7698 70.7169L15.6718 70.7395L15.5734 70.7585L15.4746 70.7747C15.4419 70.7786 15.4081 70.7826 15.3753 70.7865L68.0902 64.4985C68.1226 64.4947 68.1557 64.4907 68.1895 64.4867C68.2222 64.4828 68.256 64.4788 68.2882 64.4705L68.3866 64.4515C68.4194 64.4476 68.4514 64.4373 68.4846 64.4289L68.5823 64.4035L68.6796 64.3751L68.7764 64.3432C68.8074 64.3329 68.8373 64.3214 68.8681 64.3097C68.8989 64.298 68.9287 64.2857 68.9583 64.2727L69.0482 64.2329L69.1358 64.1904C69.1652 64.1753 69.1946 64.1601 69.2229 64.1444L69.3088 64.0963L69.3933 64.0447L69.4754 63.9905C69.5034 63.9719 69.5303 63.9527 69.5571 63.9327C69.5839 63.9128 69.6108 63.8936 69.6376 63.8729L69.7166 63.8096C69.7423 63.7886 69.7679 63.7666 69.7933 63.7437C69.8189 63.7217 69.8443 63.6983 69.8697 63.6749L69.9437 63.6035L70.0164 63.5286C70.0405 63.5032 70.0637 63.4779 70.0872 63.4474L70.1561 63.3664C70.1791 63.3396 70.2019 63.3114 70.224 63.2855C70.246 63.2596 70.2685 63.2285 70.2902 63.1997L70.3551 63.1105L70.4177 63.0186C70.4381 62.9878 70.4585 62.9562 70.4779 62.9241C70.4972 62.8919 70.5175 62.8597 70.5367 62.8268C70.556 62.794 70.5751 62.7604 70.5942 62.7261C70.6133 62.6918 70.6314 62.6583 70.6494 62.6234L70.7032 62.5173L70.7547 62.4085C70.7714 62.3716 70.7868 62.3319 70.8037 62.2964C70.8206 62.2609 70.8359 62.2198 70.8515 62.1823C70.8672 62.1448 70.8817 62.1059 70.8969 62.0648L70.94 61.9447C70.9543 61.9044 70.9675 61.8635 70.9807 61.8219C70.9939 61.7803 71.007 61.7387 71.02 61.6957C71.033 61.6526 71.0451 61.6104 71.0571 61.5675C71.0691 61.5246 71.0809 61.4803 71.0917 61.436L71.1241 61.3019C71.1347 61.2562 71.1444 61.2107 71.1541 61.1651L71.1826 61.0249L71.2079 60.8822C71.2163 60.8346 71.2236 60.7857 71.2305 60.7339C71.2374 60.6821 71.245 60.6361 71.2521 60.5858C71.2592 60.5354 71.2644 60.4861 71.2707 60.438C71.2771 60.3899 71.2817 60.3362 71.2866 60.284C71.2914 60.2317 71.2963 60.1802 71.3002 60.1281L71.3114 59.9688L71.3193 59.807C71.3218 59.7521 71.3243 59.6973 71.3258 59.6418C71.3272 59.5863 71.3276 59.5309 71.3289 59.474C71.3302 59.4171 71.3295 59.3611 71.3288 59.3044C71.3281 59.2478 71.3282 59.1895 71.3273 59.1314C71.3264 59.0733 71.3244 59.0146 71.3224 58.9551C71.3203 58.8957 71.3184 58.837 71.3152 58.777C71.3121 58.7169 71.3089 58.6562 71.3047 58.5955L71.2918 58.4115C71.2845 58.3505 71.277 58.2881 71.2756 58.2249C71.2741 58.1618 71.2606 58.0994 71.253 58.0362C71.2455 57.9731 71.2283 57.9133 71.2206 57.8487Z" fill="url(#paint4_linear_1265_368133)"/>
<path d="M37.6913 42.9154C38.2959 42.7848 38.8174 42.5893 39.2556 42.3287C39.6927 42.0588 40.0488 41.7425 40.324 41.3797C40.6085 41.0157 40.8034 40.611 40.9087 40.1655C41.022 39.7097 41.0469 39.2223 40.9833 38.7036C40.9266 38.2404 40.7897 37.8528 40.5728 37.5409C40.3652 37.2278 40.0984 36.969 39.7724 36.7645C39.4453 36.5507 39.0724 36.3848 38.6536 36.2669C38.2336 36.1397 37.7876 36.0298 37.3155 35.9373L37.6913 42.9154ZM35.2637 26.9078C34.6683 27.0372 34.1597 27.2218 33.7377 27.4616C33.325 27.7002 32.9921 27.9761 32.739 28.2893C32.4859 28.6024 32.3114 28.9435 32.2156 29.3125C32.1187 29.6723 32.0935 30.0421 32.14 30.422C32.1946 30.8666 32.321 31.2461 32.5194 31.5603C32.7166 31.8652 32.9695 32.1257 33.2781 32.3418C33.5867 32.5578 33.9376 32.7358 34.3309 32.8756C34.7241 33.0155 35.1475 33.1329 35.6011 33.2277L35.2637 26.9078ZM37.1893 33.5267C37.8824 33.658 38.568 33.8044 39.246 33.9657C39.924 34.1271 40.5457 34.3659 41.111 34.6821C41.6764 34.9984 42.1517 35.4244 42.5371 35.9601C42.9306 36.4855 43.1796 37.1743 43.2841 38.0266C43.3863 38.8604 43.3433 39.6602 43.1551 40.4261C42.9668 41.192 42.6382 41.8859 42.169 42.5076C41.7091 43.1281 41.1116 43.6621 40.3766 44.1095C39.6497 44.5466 38.7946 44.8582 37.8113 45.0446L37.9426 47.4968C37.9549 47.674 37.9042 47.8354 37.7904 47.981C37.6777 48.1358 37.5241 48.2252 37.3296 48.249L36.4124 48.3614L36.2376 45.2093C35.1031 45.2355 34.0453 45.0831 33.0644 44.752C32.0916 44.4104 31.2292 43.9332 30.477 43.3201L31.0877 42.0887C31.1493 41.9777 31.2317 41.883 31.3349 41.8045C31.4382 41.726 31.5546 41.6788 31.6843 41.6629C31.8603 41.6414 32.0703 41.7049 32.3142 41.8537C32.5581 42.0025 32.8558 42.1681 33.2073 42.3507C33.5681 42.5322 33.9838 42.7022 34.4546 42.8608C34.9347 43.0182 35.4942 43.0954 36.1333 43.0923L35.7291 35.6522C35.0567 35.5371 34.3908 35.3978 33.7313 35.2341C33.0811 35.0693 32.4815 34.8184 31.9324 34.4814C31.3926 34.1432 30.9335 33.6964 30.5551 33.141C30.186 32.5844 29.9463 31.8569 29.8362 30.9583C29.7533 30.282 29.8024 29.6083 29.9834 28.9373C30.1726 28.2559 30.4912 27.6339 30.9394 27.0712C31.3876 26.5084 31.963 26.0242 32.6655 25.6184C33.3669 25.2033 34.1924 24.9187 35.142 24.7647L35.0357 22.7466C35.0234 22.5695 35.069 22.4041 35.1724 22.2503C35.285 22.0955 35.4433 22.0056 35.6471 21.9806L36.5642 21.8681L36.7191 24.6278C37.6973 24.6301 38.5617 24.7781 39.3124 25.0716C40.0722 25.364 40.759 25.75 41.3726 26.2295L40.8874 27.2199C40.7362 27.5205 40.5402 27.6856 40.2993 27.7151C40.1696 27.731 40.0007 27.6953 39.7925 27.608C39.5925 27.5103 39.3485 27.3991 39.0605 27.2746C38.7818 27.1489 38.4527 27.0341 38.0733 26.9301C37.7031 26.8251 37.2865 26.7633 36.8235 26.7448L37.1893 33.5267Z" fill="#0B8DAE"/>
</g>
<defs>
<linearGradient id="paint0_linear_1265_368133" x1="37.9521" y1="66.469" x2="23.033" y2="-58.6044" gradientUnits="userSpaceOnUse">
<stop stop-color="#128DAC"/>
<stop offset="0.48" stop-color="#07EEDC"/>
</linearGradient>
<linearGradient id="paint1_linear_1265_368133" x1="56.9995" y1="2.00098" x2="57.5829" y2="27.8294" gradientUnits="userSpaceOnUse">
<stop stop-color="#A1FFF7"/>
<stop offset="1" stop-color="#00FFE9" stop-opacity="0"/>
</linearGradient>
<linearGradient id="paint2_linear_1265_368133" x1="30.3424" y1="37.3576" x2="33.7627" y2="66.0314" gradientUnits="userSpaceOnUse">
<stop stop-color="#C0EDF8"/>
<stop offset="0.06" stop-color="#82CBDD"/>
<stop offset="0.14" stop-color="#329FBA"/>
<stop offset="0.18" stop-color="#128DAC"/>
<stop offset="0.2" stop-color="#2899B6"/>
<stop offset="0.25" stop-color="#54B2CA"/>
<stop offset="0.31" stop-color="#79C7DB"/>
<stop offset="0.36" stop-color="#95D7E7"/>
<stop offset="0.41" stop-color="#AAE2F1"/>
<stop offset="0.47" stop-color="#B6E9F6"/>
<stop offset="0.52" stop-color="#BAEBF8"/>
<stop offset="0.58" stop-color="#B4E8F5"/>
<stop offset="0.66" stop-color="#A3DEEE"/>
<stop offset="0.75" stop-color="#87CEE1"/>
<stop offset="0.84" stop-color="#60B9CF"/>
<stop offset="0.95" stop-color="#2E9DB9"/>
<stop offset="1" stop-color="#128DAC"/>
</linearGradient>
<linearGradient id="paint3_linear_1265_368133" x1="28.4635" y1="60.0456" x2="29.3646" y2="67.6002" gradientUnits="userSpaceOnUse">
<stop stop-color="#128DAC"/>
<stop offset="0.05" stop-color="#2E9DB9"/>
<stop offset="0.16" stop-color="#60B9CF"/>
<stop offset="0.25" stop-color="#87CEE1"/>
<stop offset="0.34" stop-color="#A3DEEE"/>
<stop offset="0.42" stop-color="#B4E8F5"/>
<stop offset="0.48" stop-color="#BAEBF8"/>
<stop offset="0.53" stop-color="#B6E9F6"/>
<stop offset="0.59" stop-color="#AAE2F1"/>
<stop offset="0.64" stop-color="#95D7E7"/>
<stop offset="0.69" stop-color="#79C7DB"/>
<stop offset="0.75" stop-color="#54B2CA"/>
<stop offset="0.8" stop-color="#2899B6"/>
<stop offset="0.82" stop-color="#128DAC"/>
<stop offset="0.86" stop-color="#329FBA"/>
<stop offset="0.94" stop-color="#82CBDD"/>
<stop offset="1" stop-color="#C0EDF8"/>
</linearGradient>
<linearGradient id="paint4_linear_1265_368133" x1="42.2048" y1="55.0304" x2="43.6819" y2="67.4137" gradientUnits="userSpaceOnUse">
<stop stop-color="#C0EDF8"/>
<stop offset="0.06" stop-color="#82CBDD"/>
<stop offset="0.14" stop-color="#329FBA"/>
<stop offset="0.18" stop-color="#128DAC"/>
<stop offset="0.2" stop-color="#2899B6"/>
<stop offset="0.25" stop-color="#54B2CA"/>
<stop offset="0.31" stop-color="#79C7DB"/>
<stop offset="0.36" stop-color="#95D7E7"/>
<stop offset="0.41" stop-color="#AAE2F1"/>
<stop offset="0.47" stop-color="#B6E9F6"/>
<stop offset="0.52" stop-color="#BAEBF8"/>
<stop offset="0.58" stop-color="#B4E8F5"/>
<stop offset="0.66" stop-color="#A3DEEE"/>
<stop offset="0.75" stop-color="#87CEE1"/>
<stop offset="0.84" stop-color="#60B9CF"/>
<stop offset="0.95" stop-color="#2E9DB9"/>
<stop offset="1" stop-color="#128DAC"/>
</linearGradient>
<clipPath id="clip0_1265_368133">
<rect width="64.2147" height="64.2147" fill="white" transform="translate(0.590576 7.88379) rotate(-6.80226)"/>
</clipPath>
</defs>
</svg>
