<svg width="671" height="629" viewBox="0 0 671 629" fill="none" xmlns="http://www.w3.org/2000/svg">
<g opacity="0.8">
<circle cx="308.097" cy="344.141" r="172.858" fill="#221D60" fill-opacity="0.4" stroke="#4F47AE"/>
<circle cx="308.097" cy="344.141" r="146.253" fill="#221D60" fill-opacity="0.4" stroke="#4F47AE"/>
<g filter="url(#filter0_f_1265_358184)">
<ellipse cx="338.992" cy="486.174" rx="216.268" ry="63.0782" fill="#4A40CA"/>
</g>
<g filter="url(#filter1_f_1265_358184)">
<path d="M313.699 520.163C282.46 521.88 281.373 513.437 278.512 506.857C274.221 483.685 343.819 469.577 368.195 467.38C392.57 465.182 378.493 473.816 393.941 473.816C409.389 473.816 516.665 444.637 537.262 436.484C557.859 428.331 571.59 407.304 558.717 375.98C550.685 356.435 468.353 370.499 420.545 381.988C365.191 395.29 331.135 409.88 344.165 409.88C344.165 409.88 347.169 418.887 344.165 439.488C341.161 460.089 323.997 467.809 290.098 473.816C256.199 479.824 242.467 475.532 234.314 467.38C226.161 459.227 238.542 436.706 252.766 425.327C276.367 406.447 314.986 401.155 339.445 395.29C352.747 388.14 375.061 375.982 410.247 360.103C438.946 347.152 488.773 334.361 524.817 335.649C560.862 336.936 581.459 356.246 589.612 373.839C597.765 391.432 596.049 434.343 554.855 456.227C521.9 473.734 433.847 484.691 393.941 487.98C393.655 492.844 386.046 501.021 375.061 506.857C361.329 514.152 352.747 518.018 313.699 520.163Z" fill="url(#paint0_linear_1265_358184)"/>
</g>
<path d="M185.373 384.047C185.945 396.205 180.652 418.376 198.246 459.57" stroke="url(#paint1_radial_1265_358184)" stroke-width="7" stroke-linecap="round" stroke-linejoin="round"/>
<g filter="url(#filter2_f_1265_358184)">
<ellipse cx="217.43" cy="509.199" rx="27.8917" ry="4.29103" transform="rotate(19.0413 217.43 509.199)" fill="black"/>
</g>
<path d="M204.482 375.224L218.165 321.632C220.851 311.123 224.978 301.035 230.428 291.657L264.413 233.201L244.999 224.095L211.014 282.552C205.577 291.91 201.46 301.975 198.778 312.46L185.106 366.057L204.933 375.614L204.482 375.224ZM222.451 297.081C221.61 298.578 220.229 299.698 218.59 300.213C217.821 300.45 217.01 300.521 216.211 300.42C215.412 300.319 214.644 300.049 213.957 299.628C213.264 299.194 212.667 298.622 212.203 297.949C211.739 297.275 211.418 296.514 211.259 295.712C210.916 294.005 211.215 292.232 212.1 290.733L225.752 267.327L239.42 243.915C240.265 242.421 241.644 241.302 243.281 240.783C244.053 240.548 244.866 240.479 245.666 240.58C246.466 240.682 247.236 240.952 247.925 241.372C248.62 241.803 249.218 242.373 249.68 243.046C250.143 243.72 250.46 244.482 250.613 245.284C250.96 246.991 250.664 248.766 249.783 250.268L236.115 273.68L222.451 297.081Z" fill="url(#paint2_linear_1265_358184)"/>
<path d="M205.67 375.938L219.331 322.337C222.016 311.853 226.137 301.79 231.578 292.433L265.531 233.99L246.14 224.829L212.166 283.29C206.723 292.65 202.603 302.719 199.926 313.21L186.242 366.802L206.069 376.359L205.67 375.938ZM223.639 297.795C222.788 299.284 221.411 300.402 219.778 300.927C219.006 301.162 218.193 301.231 217.393 301.13C216.592 301.028 215.822 300.758 215.134 300.338C214.44 299.906 213.843 299.336 213.38 298.663C212.918 297.99 212.6 297.228 212.446 296.426C212.099 294.719 212.394 292.944 213.276 291.442L226.944 268.03L240.596 244.625C241.445 243.13 242.825 242.008 244.462 241.481C245.232 241.246 246.042 241.177 246.841 241.278C247.64 241.379 248.408 241.647 249.095 242.066C249.788 242.501 250.385 243.073 250.849 243.746C251.313 244.42 251.635 245.181 251.794 245.983C252.136 247.69 251.837 249.463 250.953 250.962L237.318 274.323L223.639 297.795Z" fill="url(#paint3_linear_1265_358184)"/>
<path d="M218.057 275.857C217.904 276.235 217.746 276.624 217.717 277.014C217.689 277.403 217.533 277.755 217.454 278.111C216.915 280.3 216.846 281.747 222.423 281.602L223.999 281.516C224.706 281.467 225.437 281.388 226.204 281.285C226.971 281.182 227.487 281.093 228.134 280.967C233.121 280.1 237.785 277.917 241.644 274.643C243.304 273.211 244.78 271.579 246.037 269.784C250.69 263.103 252.404 255.112 253.005 247.913C253.041 247.474 253.076 247.036 253.123 246.602C253.529 242.323 254.266 238.082 255.328 233.917C255.542 232.932 255.427 231.903 255 230.989C255 230.989 253.782 231.789 253.051 232.346C252.002 233.125 251.027 234 250.139 234.958C247.263 238.632 248.364 249.616 245.911 258.601C244.861 263.22 242.397 267.396 238.862 270.55C233.511 275.278 229.001 275.157 222.415 275.14C221.613 275.138 220.753 275.087 220.017 275.112C219.282 275.137 218.36 275.333 218.057 275.857Z" fill="#1D1487"/>
<mask id="mask0_1265_358184" style="mask-type:luminance" maskUnits="userSpaceOnUse" x="217" y="230" width="39" height="52">
<path d="M218.058 275.854C217.905 276.232 217.747 276.621 217.718 277.011C217.69 277.4 217.534 277.752 217.455 278.108C216.916 280.297 216.847 281.744 222.424 281.599L224 281.514C224.707 281.464 225.438 281.385 226.205 281.282C226.972 281.179 227.488 281.09 228.135 280.964C233.122 280.097 237.786 277.914 241.645 274.64C243.305 273.208 244.781 271.576 246.038 269.781C250.691 263.1 252.405 255.109 253.006 247.91C253.042 247.471 253.077 247.033 253.124 246.599C253.53 242.32 254.267 238.079 255.329 233.914C255.543 232.929 255.428 231.9 255.001 230.986C255.001 230.986 253.783 231.786 253.052 232.344C252.003 233.122 251.028 233.997 250.14 234.955C247.264 238.629 248.365 249.613 245.912 258.598C244.862 263.217 242.398 267.393 238.863 270.547C233.512 275.276 229.002 275.155 222.416 275.137C221.614 275.135 220.754 275.084 220.018 275.109C219.283 275.134 218.361 275.33 218.058 275.854Z" fill="white"/>
</mask>
<g mask="url(#mask0_1265_358184)">
<path style="mix-blend-mode:screen" d="M233.464 267.891C245.948 259.467 257.948 255.429 260.286 258.863C262.623 262.296 254.317 271.884 241.804 280.283C229.291 288.682 217.32 292.745 214.987 289.3C212.654 285.855 220.962 276.294 233.464 267.891Z" fill="url(#paint4_radial_1265_358184)"/>
<path style="mix-blend-mode:screen" opacity="0.4" d="M228.462 269.525C242.956 265.373 255.623 265.217 256.77 269.19C257.917 273.163 247.08 279.731 232.596 283.887C218.113 288.044 205.435 288.196 204.299 284.227C203.163 280.258 213.978 273.681 228.462 269.525Z" fill="url(#paint5_radial_1265_358184)"/>
<path style="mix-blend-mode:screen" opacity="0.4" d="M223.45 269.873C238.174 266.656 250.83 267.324 251.712 271.345C252.594 275.366 241.369 281.258 226.645 284.476C211.921 287.694 199.272 287.041 198.383 283.005C197.495 278.968 208.73 273.08 223.45 269.873Z" fill="url(#paint6_radial_1265_358184)"/>
<path style="mix-blend-mode:screen" opacity="0.4" d="M237.819 263.987C246.725 251.834 256.653 243.965 259.985 246.417C263.316 248.869 258.786 260.675 249.869 272.823C240.951 284.972 231.024 292.841 227.699 290.405C224.374 287.969 228.908 276.087 237.819 263.987Z" fill="url(#paint7_radial_1265_358184)"/>
</g>
<path d="M218.637 310.924C213.753 313.383 200.806 319.755 199.283 320.573C186.025 327.712 176.485 350.366 179.925 379.022C183.161 405.912 192.234 417.903 204.731 424.487C206.567 425.452 228.774 433.709 233.046 433.203L218.637 310.924Z" fill="url(#paint8_linear_1265_358184)"/>
<path d="M220.796 310.103C205.015 312.956 192.108 337.907 191.233 368.644C190.417 397.477 200.469 421.838 214.589 427.838L220.796 310.103Z" fill="#3C2BCE"/>
<path d="M226.404 498.502L223.403 498.502L223.403 495.002L226.404 498.502Z" fill="#3C2BCE"/>
<mask id="mask1_1265_358184" style="mask-type:luminance" maskUnits="userSpaceOnUse" x="191" y="310" width="30" height="118">
<path d="M220.796 310.103C205.015 312.956 192.108 337.907 191.233 368.644C190.417 397.477 200.469 421.838 214.589 427.838L220.796 310.103Z" fill="white"/>
</mask>
<g mask="url(#mask1_1265_358184)">
<path style="mix-blend-mode:screen" d="M233.091 358.661C131.892 353.232 50.7835 333.081 51.8405 313.743C52.8975 294.406 135.68 283.161 236.806 288.612C337.932 294.062 419.065 314.185 418.057 333.529C417.049 352.874 334.161 364.089 233.091 358.661Z" fill="url(#paint9_radial_1265_358184)"/>
<path style="mix-blend-mode:screen" d="M204.18 386.155C103.059 380.693 21.9215 360.581 22.9673 341.239C24.0132 321.898 106.794 310.69 207.928 316.119C309.063 321.547 390.191 341.681 389.179 361.037C388.166 380.392 305.306 391.605 204.18 386.155Z" fill="url(#paint10_radial_1265_358184)"/>
<path style="mix-blend-mode:screen" d="M230.289 420.744C129.832 433.57 46.4188 428.392 43.9539 409.18C41.489 389.967 120.908 364.025 221.363 351.172C321.818 338.319 405.233 343.524 407.698 362.737C410.163 381.949 330.735 407.914 230.289 420.744Z" fill="url(#paint11_radial_1265_358184)"/>
</g>
<g style="mix-blend-mode:color-dodge">
<path d="M191.553 368.813C192.425 338.307 205.159 313.494 220.788 310.346L220.796 310.103C205.015 312.956 192.108 337.907 191.233 368.644C190.438 396.657 199.902 420.456 213.399 427.29C200.084 420.232 190.773 396.599 191.553 368.813Z" fill="#666666"/>
</g>
<path d="M361.724 463.746C330.557 483.995 292.855 481.943 277.528 459.157C262.2 436.37 275.023 401.471 306.222 381.235C337.422 361 375.09 363.038 390.452 385.838C405.813 408.638 392.957 443.525 361.724 463.746Z" fill="#4936F7"/>
<mask id="mask2_1265_358184" style="mask-type:luminance" maskUnits="userSpaceOnUse" x="271" y="367" width="126" height="111">
<path d="M361.724 463.746C330.557 483.995 292.855 481.943 277.528 459.157C262.2 436.37 275.023 401.471 306.222 381.235C337.422 361 375.09 363.038 390.452 385.838C405.813 408.638 392.957 443.525 361.724 463.746Z" fill="white"/>
</mask>
<g mask="url(#mask2_1265_358184)">
<path style="mix-blend-mode:screen" d="M325.737 403.054C235.79 356.574 170.029 304.941 178.93 287.724C187.831 270.508 267.958 294.261 357.935 340.766C447.911 387.271 513.643 438.879 504.742 456.096C495.841 473.313 415.703 449.555 325.737 403.054Z" fill="url(#paint12_radial_1265_358184)"/>
<path style="mix-blend-mode:screen" d="M278.372 442.737C181.449 413.452 107.37 374.664 112.974 356.123C118.578 337.582 201.705 346.307 298.66 375.579C395.614 404.851 469.662 443.652 464.058 462.193C458.454 480.734 375.313 472.042 278.372 442.737Z" fill="url(#paint13_radial_1265_358184)"/>
</g>
<path d="M409.836 367.177C408.685 367.875 402.288 367.04 396.287 368.645C392.821 369.641 389.65 371.464 387.047 373.958C384.188 376.651 381.801 379.804 379.986 383.287C378.535 381.565 377.176 379.769 375.912 377.906C376.601 376.604 377.374 375.348 378.227 374.147C380.46 371.017 383.195 368.277 386.322 366.039C388.067 364.676 389.981 363.542 392.016 362.667C395.64 361.092 399.571 360.347 403.522 360.486L404.92 362.115C405.288 362.549 405.641 362.99 405.96 363.417C407.279 365.273 408.281 366.857 409.836 367.177Z" fill="#6859F0"/>
<path d="M409.836 367.177C408.685 367.875 402.288 367.04 396.287 368.645C392.821 369.641 389.65 371.464 387.047 373.958C384.188 376.651 381.801 379.804 379.986 383.287C378.535 381.565 377.176 379.769 375.912 377.906C376.601 376.604 377.374 375.348 378.227 374.147C380.46 371.017 383.195 368.277 386.322 366.039C388.067 364.676 389.981 363.542 392.016 362.667C395.64 361.092 399.571 360.347 403.522 360.486L404.92 362.115C405.288 362.549 405.641 362.99 405.96 363.417C407.279 365.273 408.281 366.857 409.836 367.177Z" fill="#6859F0"/>
<path d="M409.836 367.177C408.685 367.875 402.288 367.04 396.287 368.645C392.821 369.641 389.65 371.464 387.047 373.958C384.188 376.651 381.801 379.804 379.986 383.287C378.535 381.565 377.176 379.769 375.912 377.906C376.601 376.604 377.374 375.348 378.227 374.147C380.46 371.017 383.195 368.277 386.322 366.039C388.067 364.676 389.981 363.542 392.016 362.667C395.64 361.092 399.571 360.347 403.522 360.486L404.92 362.115C405.288 362.549 405.641 362.99 405.96 363.417C407.279 365.273 408.281 366.857 409.836 367.177Z" fill="#6859F0"/>
<path d="M409.836 367.177C408.685 367.875 402.288 367.04 396.287 368.645C392.821 369.641 389.65 371.464 387.047 373.958C384.188 376.651 381.801 379.804 379.986 383.287C378.535 381.565 377.176 379.769 375.912 377.906C376.601 376.604 377.374 375.348 378.227 374.147C380.46 371.017 383.195 368.277 386.322 366.039C388.067 364.676 389.981 363.542 392.016 362.667C395.64 361.092 399.571 360.347 403.522 360.486L404.92 362.115C405.288 362.549 405.641 362.99 405.96 363.417C407.279 365.273 408.281 366.857 409.836 367.177Z" fill="#6859F0"/>
<path d="M409.836 367.177C408.685 367.875 402.288 367.04 396.287 368.645C392.821 369.641 389.65 371.464 387.047 373.958C384.188 376.651 381.801 379.804 379.986 383.287C378.535 381.565 377.176 379.769 375.912 377.906C376.601 376.604 377.374 375.348 378.227 374.147C380.46 371.017 383.195 368.277 386.322 366.039C388.067 364.676 389.981 363.542 392.016 362.667C395.64 361.092 399.571 360.347 403.522 360.486L404.92 362.115C405.288 362.549 405.641 362.99 405.96 363.417C407.279 365.273 408.281 366.857 409.836 367.177Z" fill="#6859F0"/>
<mask id="mask3_1265_358184" style="mask-type:alpha" maskUnits="userSpaceOnUse" x="375" y="360" width="35" height="24">
<path d="M409.834 367.18C408.683 367.878 402.286 367.044 396.286 368.648C392.82 369.644 389.649 371.467 387.046 373.961C384.186 376.654 381.799 379.808 379.984 383.29C378.534 381.569 377.174 379.773 375.911 377.91C376.6 376.608 377.373 375.352 378.226 374.15C380.458 371.02 383.193 368.281 386.32 366.043C388.066 364.679 389.979 363.546 392.014 362.67C395.639 361.095 399.57 360.35 403.52 360.49L404.919 362.119C405.287 362.553 405.639 362.993 405.958 363.42C407.278 365.276 408.28 366.861 409.834 367.18Z" fill="#6859F0"/>
<path d="M409.834 367.18C408.683 367.878 402.286 367.044 396.286 368.648C392.82 369.644 389.649 371.467 387.046 373.961C384.186 376.654 381.799 379.808 379.984 383.29C378.534 381.569 377.174 379.773 375.911 377.91C376.6 376.608 377.373 375.352 378.226 374.15C380.458 371.02 383.193 368.281 386.32 366.043C388.066 364.679 389.979 363.546 392.014 362.67C395.639 361.095 399.57 360.35 403.52 360.49L404.919 362.119C405.287 362.553 405.639 362.993 405.958 363.42C407.278 365.276 408.28 366.861 409.834 367.18Z" fill="#6859F0"/>
<path d="M409.834 367.18C408.683 367.878 402.286 367.044 396.286 368.648C392.82 369.644 389.649 371.467 387.046 373.961C384.186 376.654 381.799 379.808 379.984 383.29C378.534 381.569 377.174 379.773 375.911 377.91C376.6 376.608 377.373 375.352 378.226 374.15C380.458 371.02 383.193 368.281 386.32 366.043C388.066 364.679 389.979 363.546 392.014 362.67C395.639 361.095 399.57 360.35 403.52 360.49L404.919 362.119C405.287 362.553 405.639 362.993 405.958 363.42C407.278 365.276 408.28 366.861 409.834 367.18Z" fill="#6859F0"/>
<path d="M409.834 367.18C408.683 367.878 402.286 367.044 396.286 368.648C392.82 369.644 389.649 371.467 387.046 373.961C384.186 376.654 381.799 379.808 379.984 383.29C378.534 381.569 377.174 379.773 375.911 377.91C376.6 376.608 377.373 375.352 378.226 374.15C380.458 371.02 383.193 368.281 386.32 366.043C388.066 364.679 389.979 363.546 392.014 362.67C395.639 361.095 399.57 360.35 403.52 360.49L404.919 362.119C405.287 362.553 405.639 362.993 405.958 363.42C407.278 365.276 408.28 366.861 409.834 367.18Z" fill="#6859F0"/>
<path d="M409.834 367.18C408.683 367.878 402.286 367.044 396.286 368.648C392.82 369.644 389.649 371.467 387.046 373.961C384.186 376.654 381.799 379.808 379.984 383.29C378.534 381.569 377.174 379.773 375.911 377.91C376.6 376.608 377.373 375.352 378.226 374.15C380.458 371.02 383.193 368.281 386.32 366.043C388.066 364.679 389.979 363.546 392.014 362.67C395.639 361.095 399.57 360.35 403.52 360.49L404.919 362.119C405.287 362.553 405.639 362.993 405.958 363.42C407.278 365.276 408.28 366.861 409.834 367.18Z" fill="#6859F0"/>
</mask>
<g mask="url(#mask3_1265_358184)">
<path style="mix-blend-mode:screen" opacity="0.7" d="M386.034 358.766C404.083 346.968 420.557 340.202 422.81 343.653C425.063 347.104 412.275 359.469 394.226 371.266C376.177 383.064 359.703 389.83 357.45 386.379C355.197 382.928 367.985 370.563 386.034 358.766Z" fill="url(#paint14_radial_1265_358184)"/>
</g>
<path d="M413.492 363.3C413.214 363.73 412.96 364.197 412.648 364.614C410.655 367.262 409.637 369.865 405.465 365.143C405.112 364.767 404.756 364.338 404.372 363.846C403.989 363.354 403.57 362.822 403.165 362.256C402.13 360.834 401.172 359.356 400.297 357.831C397.052 352.336 395.326 346.078 395.295 339.699C395.323 336.933 395.687 334.182 396.379 331.504C398.992 321.549 405.271 313.352 411.695 306.871C412.089 306.474 412.479 306.089 412.862 305.687L413.878 304.65C418.032 300.381 421.707 296.176 423.554 290.919C423.554 290.919 424.275 288.856 424.36 289.667C424.317 292.135 426.739 296.573 426.501 299.014C425.324 304.789 413.863 312.734 407.236 322.46C403.964 327.333 401.644 332.255 401.514 339.024C401.361 348.023 405.201 352.286 410.577 358.609C412.053 360.269 413.975 361.981 413.492 363.3Z" fill="#3B2BCE"/>
<mask id="mask4_1265_358184" style="mask-type:luminance" maskUnits="userSpaceOnUse" x="395" y="289" width="32" height="79">
<path d="M413.493 363.303C413.214 363.734 412.96 364.2 412.649 364.618C410.655 367.265 409.638 369.868 405.465 365.147C405.113 364.771 404.756 364.341 404.373 363.849C403.989 363.357 403.571 362.825 403.165 362.259C402.13 360.837 401.173 359.36 400.298 357.834C397.052 352.339 395.326 346.082 395.296 339.702C395.324 336.937 395.687 334.185 396.379 331.508C398.993 321.552 405.271 313.355 411.695 306.875C412.089 306.478 412.479 306.092 412.862 305.691L413.879 304.654C418.033 300.384 421.707 296.179 423.555 290.923C423.555 290.923 424.275 288.859 424.361 289.67C424.318 292.138 426.74 296.577 426.501 299.017C425.324 304.792 413.863 312.738 407.237 322.463C403.965 327.336 401.644 332.259 401.515 339.028C401.362 348.027 405.202 352.29 410.577 358.612C412.054 360.273 413.976 361.985 413.493 363.303Z" fill="white"/>
</mask>
<g mask="url(#mask4_1265_358184)">
<path style="mix-blend-mode:screen" d="M391.926 326.361C399.252 306.034 408.318 290.774 412.192 292.177C416.065 293.58 413.303 311.151 405.983 331.43C398.664 351.708 389.591 367.017 385.715 365.588C381.839 364.158 384.606 346.64 391.926 326.361Z" fill="url(#paint15_radial_1265_358184)"/>
</g>
<path d="M370.25 463.579C341.462 486.139 300.961 485.398 282.613 466.227C264.264 447.057 272.707 413.215 301.495 390.655C330.283 368.095 368.49 365.356 386.873 384.54C405.255 403.724 399.027 441.015 370.25 463.579Z" fill="url(#paint16_linear_1265_358184)"/>
<g style="mix-blend-mode:color-dodge">
<path d="M306.603 478.962C303.191 477.367 300.093 475.172 297.457 472.482C291.666 466.483 288.884 458.494 289.572 449.453C290.57 435.114 299.922 419.724 314.606 408.271C331.532 395.06 352.761 389.058 369.979 392.625C376.828 393.886 383.138 397.181 388.086 402.08C390.817 404.948 392.931 408.344 394.297 412.06C395.664 415.776 396.254 419.732 396.031 423.684C396.147 423.174 396.241 422.656 396.341 422.153C396.401 414.604 393.51 407.329 388.285 401.876C383.932 397.511 378.478 394.404 372.503 392.885C371.684 392.669 370.834 392.467 369.985 392.291C352.692 388.719 331.418 394.768 314.391 408.003C299.651 419.498 290.252 434.972 289.249 449.387C288.607 458.537 291.345 466.573 297.211 472.642C299.581 475.067 302.33 477.091 305.35 478.635L306.603 478.962Z" fill="#666666"/>
</g>
<g style="mix-blend-mode:color-dodge">
<path d="M303.855 477.977C295.892 475.949 288.62 471.819 282.8 466.019C275.807 458.703 272.518 449.059 273.293 438.112C274.475 421.531 285.081 403.879 301.663 390.879C321.734 375.151 347.697 368.493 367.793 373.939C374.946 375.729 381.465 379.462 386.628 384.726C394.085 392.527 397.695 403.648 396.824 416.045C396.722 417.479 396.55 418.924 396.363 420.375C396.408 420.808 396.437 421.247 396.446 421.703C398.934 407.555 395.813 393.888 386.906 384.553C368.546 365.378 330.351 368.084 301.528 390.668C272.704 413.253 264.286 447.066 282.646 466.241C288.761 472.326 296.451 476.589 304.853 478.55L303.855 477.977Z" fill="#333333"/>
</g>
<path d="M315.564 481.938C308.715 480.678 302.405 477.383 297.458 472.483C291.666 466.484 288.884 458.494 289.572 449.454C290.57 435.115 299.922 419.725 314.607 408.272C331.532 395.061 352.762 389.059 369.979 392.626C376.828 393.886 383.138 397.181 388.086 402.081C393.877 408.08 396.604 416.047 395.971 425.11C394.973 439.449 385.621 454.839 370.937 466.292C354 479.498 332.786 485.494 315.564 481.938Z" fill="#362ACE"/>
<g style="mix-blend-mode:screen">
<path d="M315.564 481.938C308.715 480.678 302.405 477.383 297.458 472.483C291.666 466.484 288.884 458.494 289.572 449.454C290.57 435.115 299.922 419.725 314.607 408.272C331.532 395.061 352.762 389.059 369.979 392.626C376.828 393.886 383.138 397.181 388.086 402.081C393.877 408.08 396.604 416.047 395.971 425.11C394.973 439.449 385.621 454.839 370.937 466.292C354 479.498 332.786 485.494 315.564 481.938Z" fill="url(#paint17_linear_1265_358184)"/>
</g>
<g style="mix-blend-mode:screen">
<path d="M293.311 434.841C291.237 439.458 289.958 444.392 289.528 449.435C288.895 458.498 291.678 466.487 297.413 472.464C302.361 477.364 308.671 480.659 315.52 481.919C325.366 483.959 336.519 482.839 347.43 479.059C362.359 466.747 355.951 426.984 293.311 434.841Z" fill="url(#paint18_linear_1265_358184)"/>
</g>
<path d="M419.023 365.249L443.936 295.501L423.489 286.132L399.068 354.474C391.982 374.531 380.977 392.978 366.692 408.742L327.764 450.967C322.101 457.136 322.21 467.406 327.975 469.797L334.248 472.341C337.207 473.541 340.87 472.27 343.698 469.003L389.349 416.431C402.305 401.34 412.365 383.989 419.023 365.249ZM379.367 420.602L341.31 462.469C338.745 465.311 335.313 465.408 333.696 462.719C332.079 460.031 332.84 455.538 335.407 452.722L373.464 410.855C376.029 408.012 379.451 407.912 381.079 410.604C382.706 413.297 381.935 417.786 379.367 420.602ZM406.469 369.916C403.754 369.074 402.649 365.286 404.001 361.472L424.118 305.079C425.478 301.281 428.807 298.852 431.494 299.67C434.18 300.488 435.325 304.305 433.962 308.114L413.845 364.507C412.53 368.323 409.189 370.748 406.469 369.916Z" fill="url(#paint19_linear_1265_358184)"/>
<path d="M419.936 365.618L444.826 295.862L424.368 286.488L399.948 354.831C392.867 374.89 381.861 393.338 367.572 409.099L328.699 451.346C323.036 457.515 323.145 467.785 328.91 470.175L335.184 472.72C338.131 473.916 341.794 472.645 344.633 469.382L390.284 416.81C403.238 401.718 413.291 384.363 419.936 365.618ZM380.291 420.976L342.234 462.843C339.658 465.681 336.236 465.782 334.62 463.094C333.003 460.406 333.764 455.912 336.32 453.091L374.377 411.225C376.953 408.387 380.375 408.286 381.992 410.974C383.608 413.662 382.859 418.16 380.291 420.976ZM407.338 370.268C404.623 369.426 403.506 365.633 404.87 361.824L424.987 305.431C426.346 301.633 429.676 299.204 432.362 300.022C435.048 300.84 436.194 304.657 434.83 308.466L414.713 364.859C413.454 368.697 410.113 371.122 407.393 370.291L407.338 370.268Z" fill="url(#paint20_linear_1265_358184)"/>
<path d="M337.72 472.531C333.909 472.093 330.313 470.535 327.387 468.055C325.684 466.527 324.334 464.647 323.431 462.546C322.527 460.445 322.092 458.173 322.154 455.888C322.146 448.118 326.699 439.48 334.339 432.78C343.158 425.057 354.63 421.077 364.236 422.397C368.048 422.83 371.646 424.388 374.569 426.874C376.273 428.399 377.623 430.277 378.528 432.376C379.432 434.475 379.868 436.746 379.806 439.03C379.815 446.8 375.257 455.449 367.617 462.149C358.798 469.872 347.342 473.846 337.72 472.531Z" fill="url(#paint21_linear_1265_358184)"/>
<g style="mix-blend-mode:color-dodge">
<path d="M337.72 472.531C333.909 472.093 330.313 470.535 327.387 468.055C325.684 466.527 324.334 464.647 323.431 462.546C322.527 460.445 322.092 458.173 322.154 455.888C322.146 448.118 326.699 439.48 334.339 432.78C343.158 425.057 354.63 421.077 364.236 422.397C368.048 422.83 371.646 424.388 374.569 426.874C376.273 428.399 377.623 430.277 378.528 432.376C379.432 434.475 379.868 436.746 379.806 439.03C379.815 446.8 375.257 455.449 367.617 462.149C358.798 469.872 347.342 473.846 337.72 472.531Z" fill="#333333"/>
</g>
<g style="mix-blend-mode:screen">
<path d="M379.806 439.03C379.868 436.746 379.432 434.475 378.528 432.376C377.623 430.277 376.273 428.399 374.569 426.874C371.646 424.388 368.048 422.83 364.236 422.397C354.603 421.079 343.158 425.057 334.339 432.78C326.699 439.48 322.146 448.118 322.154 455.888C322.092 458.173 322.527 460.445 323.431 462.546C324.334 464.647 325.684 466.527 327.387 468.055C330.313 470.535 333.909 472.093 337.72 472.531C347.342 473.846 358.798 469.872 367.617 462.149C375.257 455.449 379.81 446.811 379.806 439.03ZM367.44 461.948C358.677 469.629 347.305 473.585 337.759 472.276C337.1 472.176 336.434 472.062 335.809 471.911C332.761 471.273 329.924 469.878 327.559 467.853C325.885 466.35 324.558 464.502 323.669 462.436C322.781 460.37 322.352 458.136 322.413 455.889C322.427 448.128 326.935 439.601 334.516 432.981C343.279 425.3 354.651 421.344 364.197 422.653C364.856 422.752 365.511 422.863 366.152 423.006C369.199 423.648 372.034 425.048 374.397 427.076C376.071 428.578 377.398 430.427 378.286 432.493C379.175 434.558 379.604 436.792 379.543 439.04C379.545 446.73 375.019 455.301 367.44 461.948Z" fill="#666666"/>
</g>
<g style="mix-blend-mode:screen">
<path d="M341.627 471.969C338.512 471.531 335.586 470.214 333.193 468.172C331.717 466.846 330.545 465.215 329.759 463.392C328.973 461.569 328.592 459.598 328.643 457.615C328.649 450.925 332.555 443.5 339.102 437.768C346.646 431.146 356.472 427.741 364.729 428.877L365.23 428.95C368.345 429.387 371.271 430.705 373.664 432.747C375.141 434.074 376.312 435.704 377.098 437.527C377.884 439.35 378.265 441.321 378.215 443.305C378.219 449.999 374.313 457.424 367.761 463.167C360.211 469.773 350.396 473.183 342.139 472.047L341.627 471.969Z" fill="#666666"/>
</g>
<path d="M342.176 471.736C338.923 471.37 335.854 470.04 333.364 467.915C331.918 466.62 330.772 465.027 330.005 463.245C329.238 461.463 328.869 459.535 328.923 457.596C328.909 450.989 332.799 443.635 339.266 437.974C346.745 431.416 356.471 428.035 364.64 429.162C367.893 429.527 370.963 430.858 373.453 432.982C374.898 434.279 376.045 435.873 376.813 437.655C377.582 439.438 377.954 441.366 377.904 443.306C377.907 449.908 374.029 457.267 367.55 462.923C360.072 469.481 350.328 472.907 342.176 471.736Z" fill="url(#paint22_linear_1265_358184)"/>
<path d="M345.229 454.726L360.133 442.572L362.514 444.431C362.986 444.778 363.396 445.203 363.727 445.686C363.986 446.081 364.119 446.546 364.106 447.018C364.049 447.566 363.838 448.086 363.498 448.519C363.021 449.166 362.455 449.742 361.818 450.232C361.045 450.92 360.176 451.492 359.238 451.93C358.532 452.251 357.746 452.356 356.979 452.23L351.074 459.349L349.175 457.867L354.746 451.35L353.897 450.695L347.103 456.237L345.229 454.726ZM355.685 449.194L356.149 449.551C356.379 449.753 356.649 449.904 356.943 449.991C357.236 450.079 357.545 450.102 357.847 450.058C358.638 449.86 359.364 449.465 359.959 448.909C360.56 448.496 361.043 447.933 361.359 447.276C361.535 446.843 361.301 446.398 360.75 445.968L360.177 445.528L355.685 449.194Z" fill="url(#paint23_linear_1265_358184)"/>
<path d="M419.89 267.96L421.746 268.079L455.914 284.527C460.396 259.46 463.688 214.817 439.725 185.888C432.587 177.27 408.753 158.179 389.975 148.878C387.045 147.2 384.004 145.725 380.873 144.462C356.493 134.572 330.525 141.176 307.347 154.504C280.219 170.1 257.822 194.786 245 213.144L244.443 213.941L245.401 214.485L273.7 230.456C290.296 209.15 317.815 183.267 346.524 173.865C360.265 169.369 374.264 168.64 387.478 174C418.743 186.683 424.769 218.99 423.151 247.692C422.261 255.252 421.049 262.165 419.834 268.002C419.843 268.109 419.883 268.009 419.89 267.96Z" fill="url(#paint24_linear_1265_358184)"/>
<path d="M389.622 149.331C446.377 186.476 417.021 285.41 417.021 285.41L451.838 301.565C455.393 289.066 470.762 224.198 439.375 186.302C432.214 177.676 408.371 158.606 389.622 149.331Z" fill="#3738B1"/>
<mask id="mask5_1265_358184" style="mask-type:luminance" maskUnits="userSpaceOnUse" x="389" y="148" width="71" height="154">
<path d="M389.976 148.969C446.742 186.119 417.374 285.048 417.374 285.048L452.169 301.195C455.713 288.692 471.093 223.827 439.706 185.931C432.568 177.314 408.734 158.222 389.976 148.969Z" fill="white"/>
</mask>
<g mask="url(#mask5_1265_358184)">
<path style="mix-blend-mode:screen" d="M393.489 203.88C317.179 137.289 265.663 71.4876 278.405 56.9035C291.147 42.3193 363.321 84.4636 439.672 151.084C516.023 217.705 567.443 283.454 554.701 298.039C541.959 312.623 469.785 270.478 393.489 203.88Z" fill="url(#paint25_radial_1265_358184)"/>
<path style="mix-blend-mode:screen" d="M388.568 306.824C341.343 265.662 317.994 215.169 336.371 194.134C354.748 173.098 407.927 189.492 455.117 230.64C502.308 271.789 525.68 322.29 507.303 343.326C488.926 364.362 435.767 348.014 388.568 306.824Z" fill="url(#paint26_radial_1265_358184)"/>
</g>
<g style="mix-blend-mode:overlay">
<path d="M456.009 283.906L421.842 267.457C420.411 274.177 419.023 279.258 418.186 282.09C417.994 282.743 418.044 283.442 418.325 284.062C418.605 284.682 419.099 285.181 419.717 285.468L449.148 299.128C449.527 299.303 449.94 299.393 450.357 299.39C450.775 299.388 451.187 299.294 451.564 299.114C451.941 298.935 452.274 298.675 452.538 298.352C452.803 298.03 452.994 297.653 453.097 297.248C453.981 293.982 455.021 289.408 456.009 283.906Z" fill="#D9D9D9"/>
</g>
<path d="M237.672 224.871C247.653 206.887 273.917 173.834 307.37 154.604C330.548 141.276 356.516 134.671 380.896 144.561C453.76 174.118 417.374 285.048 417.374 285.048L415.806 284.412C420.466 268.711 445.757 172.037 380.368 145.512C323.016 122.247 255.606 193.445 238.81 225.597C236.835 229.379 236.573 226.853 237.672 224.871Z" fill="url(#paint27_linear_1265_358184)"/>
<g filter="url(#filter3_f_1265_358184)">
<path d="M238.187 223.955C248.534 205.784 274.477 173.512 307.37 154.604C330.548 141.276 356.516 134.671 380.896 144.561C453.76 174.119 417.374 285.048 417.374 285.048L415.806 284.412C420.465 268.711 445.757 172.037 380.368 145.512C323.465 122.429 256.66 192.336 239.214 224.835C236.663 229.587 235.778 228.187 238.187 223.955Z" fill="url(#paint28_linear_1265_358184)"/>
</g>
<path d="M238.582 229.348L244.501 232.318L245.497 214.6L244.443 214.004C241.882 217.689 239.506 221.499 237.325 225.42C237.14 225.759 237.025 226.131 236.988 226.515C236.951 226.898 236.993 227.286 237.111 227.653C237.228 228.021 237.419 228.36 237.672 228.651C237.925 228.943 238.235 229.18 238.582 229.348Z" fill="#F4F4F4"/>
<path d="M238.582 229.348L244.501 232.318L245.497 214.6L244.443 214.004C241.882 217.689 239.506 221.499 237.325 225.42C237.14 225.759 237.025 226.131 236.988 226.515C236.951 226.898 236.993 227.286 237.111 227.653C237.228 228.021 237.419 228.36 237.672 228.651C237.925 228.943 238.235 229.18 238.582 229.348Z" fill="url(#paint29_linear_1265_358184)"/>
<path d="M238.49 226.126C238.152 226.799 238.096 227.578 238.333 228.293C238.57 229.008 239.081 229.6 239.754 229.939L242.893 231.523L262.796 241.5C263.417 241.811 264.13 241.884 264.802 241.706C265.473 241.528 266.056 241.11 266.44 240.531C267.903 238.329 269.519 236.038 271.288 233.657C272.039 232.667 272.858 231.575 273.68 230.537L245.381 214.566C242.855 218.278 240.554 222.138 238.49 226.126Z" fill="url(#paint30_linear_1265_358184)"/>
<path d="M419.89 267.959C418.648 273.927 417.391 278.815 416.471 282.105C416.287 282.753 416.343 283.447 416.627 284.058C416.911 284.67 417.405 285.16 418.02 285.438L424.442 288.38L421.728 268.122L419.89 267.959Z" fill="#EBEBEB"/>
<g style="mix-blend-mode:multiply">
<path d="M419.89 267.959C418.648 273.927 417.391 278.815 416.471 282.105C416.287 282.753 416.343 283.447 416.627 284.058C416.911 284.67 417.405 285.16 418.02 285.438L424.442 288.38L421.728 268.122L419.89 267.959Z" fill="url(#paint31_linear_1265_358184)"/>
</g>
<path d="M455.896 284.571L421.729 268.122C420.294 274.853 418.888 279.978 418.073 282.754C417.879 283.407 417.927 284.108 418.208 284.728C418.489 285.349 418.985 285.847 419.604 286.132L449.035 299.793C449.413 299.969 449.826 300.06 450.243 300.059C450.661 300.059 451.073 299.966 451.451 299.788C451.828 299.61 452.162 299.351 452.428 299.03C452.694 298.708 452.886 298.332 452.991 297.928C453.864 294.658 454.91 290.099 455.896 284.571Z" fill="url(#paint32_linear_1265_358184)"/>
<path d="M455.896 284.571L421.729 268.122C420.294 274.853 418.888 279.978 418.073 282.754C417.879 283.407 417.927 284.108 418.208 284.728C418.489 285.349 418.985 285.847 419.604 286.132L449.035 299.793C449.413 299.969 449.826 300.06 450.243 300.059C450.661 300.059 451.073 299.966 451.451 299.788C451.828 299.61 452.162 299.351 452.428 299.03C452.694 298.708 452.886 298.332 452.991 297.928C453.864 294.658 454.91 290.099 455.896 284.571Z" fill="url(#paint33_linear_1265_358184)"/>
<path d="M370.945 427.218L371.05 427.183L371.742 426.946C371.459 427.038 371.191 427.123 370.945 427.218Z" fill="black"/>
<path style="mix-blend-mode:screen" d="M376.787 421.314C378.537 421.231 380.273 421.669 381.775 422.573C383.277 423.477 384.477 424.805 385.224 426.391C385.97 427.976 386.229 429.747 385.968 431.479C385.707 433.211 384.938 434.827 383.758 436.122C382.578 437.416 381.04 438.332 379.338 438.752C377.637 439.172 375.849 439.078 374.201 438.483C372.552 437.887 371.118 436.815 370.078 435.404C369.039 433.993 368.441 432.306 368.362 430.556C368.258 428.215 369.086 425.928 370.665 424.196C372.244 422.464 374.445 421.428 376.787 421.314Z" fill="url(#paint34_radial_1265_358184)"/>
<path style="mix-blend-mode:screen" d="M376.787 421.314C378.537 421.231 380.273 421.669 381.775 422.573C383.277 423.477 384.477 424.805 385.224 426.391C385.97 427.976 386.229 429.747 385.968 431.479C385.707 433.211 384.938 434.827 383.758 436.122C382.578 437.416 381.04 438.332 379.338 438.752C377.637 439.172 375.849 439.078 374.201 438.483C372.552 437.887 371.118 436.815 370.078 435.404C369.039 433.993 368.441 432.306 368.362 430.556C368.258 428.215 369.086 425.928 370.665 424.196C372.244 422.464 374.445 421.428 376.787 421.314Z" fill="url(#paint35_radial_1265_358184)"/>
<path style="mix-blend-mode:screen" d="M376.409 413.589C377.626 413.526 378.974 420.933 379.395 430.113C379.816 439.294 379.177 446.775 377.949 446.834C376.721 446.892 375.384 439.489 374.963 430.309C374.542 421.129 375.204 413.592 376.409 413.589Z" fill="url(#paint36_radial_1265_358184)"/>
<path style="mix-blend-mode:screen" d="M362.409 422.497C362.971 421.43 370.055 423.955 378.237 428.18C386.419 432.405 392.557 436.72 392.001 437.802C391.446 438.884 384.35 436.355 376.173 432.119C367.995 427.883 361.849 423.59 362.409 422.497Z" fill="url(#paint37_radial_1265_358184)"/>
<path style="mix-blend-mode:screen" d="M363.19 439.125C362.521 438.09 368.26 433.234 376.006 428.286C383.751 423.338 390.552 420.142 391.22 421.177C391.889 422.212 386.134 427.074 378.4 432.027C370.666 436.98 363.847 440.155 363.19 439.125Z" fill="url(#paint38_radial_1265_358184)"/>
<path style="mix-blend-mode:screen" d="M371.508 421.27C372.158 420.848 375.239 424.492 378.392 429.396C381.546 434.299 383.549 438.62 382.917 438.998C382.284 439.375 379.174 435.771 376.032 430.872C372.89 425.973 370.846 421.688 371.508 421.27Z" fill="url(#paint39_radial_1265_358184)"/>
<path style="mix-blend-mode:screen" d="M366.657 430.643C366.622 429.865 371.32 429.014 377.14 428.747C382.961 428.48 387.704 428.89 387.738 429.667C387.772 430.445 383.09 431.29 377.265 431.568C371.441 431.846 366.691 431.42 366.657 430.643Z" fill="url(#paint40_radial_1265_358184)"/>
<path style="mix-blend-mode:screen" d="M372.352 439.526C371.656 439.166 373.254 434.714 375.951 429.504C378.647 424.294 381.357 420.423 382.076 420.792C382.794 421.161 381.162 425.599 378.477 430.813C375.791 436.028 373.037 439.881 372.352 439.526Z" fill="url(#paint41_radial_1265_358184)"/>
<path d="M261.571 370.985C260.868 400.337 262.61 427.508 248.78 434.029C246.285 435.205 231.237 433.03 228.578 432.967C211.187 432.55 197.763 404.124 198.593 369.475C199.424 334.827 214.195 307.076 231.586 307.493C235.087 307.577 249.943 307.097 253.038 309.273C265.32 317.907 262.235 343.31 261.571 370.985Z" fill="url(#paint42_radial_1265_358184)"/>
<ellipse cx="247.448" cy="371.637" rx="31.498" ry="63.6094" transform="rotate(3.90235 247.448 371.637)" fill="url(#paint43_linear_1265_358184)"/>
<ellipse cx="240.334" cy="373.728" rx="24.5419" ry="48.8957" transform="rotate(3.90235 240.334 373.728)" fill="url(#paint44_linear_1265_358184)"/>
<g filter="url(#filter4_f_1265_358184)">
<ellipse cx="240.334" cy="373.728" rx="24.5419" ry="48.8957" transform="rotate(3.90235 240.334 373.728)" fill="url(#paint45_linear_1265_358184)"/>
</g>
<mask id="mask6_1265_358184" style="mask-type:alpha" maskUnits="userSpaceOnUse" x="215" y="324" width="51" height="99">
<ellipse cx="240.335" cy="373.726" rx="24.5419" ry="48.8957" transform="rotate(3.90235 240.335 373.726)" fill="url(#paint46_linear_1265_358184)"/>
</mask>
<g mask="url(#mask6_1265_358184)">
<ellipse cx="228.429" cy="378.305" rx="20.8949" ry="40.1725" transform="rotate(3.90235 228.429 378.305)" fill="url(#paint47_linear_1265_358184)"/>
</g>
<rect x="211.052" y="450.559" width="57.1336" height="33.4701" rx="16.735" transform="rotate(52.4542 211.052 450.559)" fill="url(#paint48_radial_1265_358184)"/>
</g>
<defs>
<filter id="filter0_f_1265_358184" x="7.72363" y="308.096" width="662.536" height="356.156" filterUnits="userSpaceOnUse" color-interpolation-filters="sRGB">
<feFlood flood-opacity="0" result="BackgroundImageFix"/>
<feBlend mode="normal" in="SourceGraphic" in2="BackgroundImageFix" result="shape"/>
<feGaussianBlur stdDeviation="57.5" result="effect1_foregroundBlur_1265_358184"/>
</filter>
<filter id="filter1_f_1265_358184" x="205.716" y="309.559" width="413.777" height="236.83" filterUnits="userSpaceOnUse" color-interpolation-filters="sRGB">
<feFlood flood-opacity="0" result="BackgroundImageFix"/>
<feBlend mode="normal" in="SourceGraphic" in2="BackgroundImageFix" result="shape"/>
<feGaussianBlur stdDeviation="13" result="effect1_foregroundBlur_1265_358184"/>
</filter>
<filter id="filter2_f_1265_358184" x="172.026" y="480.234" width="90.8071" height="57.9307" filterUnits="userSpaceOnUse" color-interpolation-filters="sRGB">
<feFlood flood-opacity="0" result="BackgroundImageFix"/>
<feBlend mode="normal" in="SourceGraphic" in2="BackgroundImageFix" result="shape"/>
<feGaussianBlur stdDeviation="9.5" result="effect1_foregroundBlur_1265_358184"/>
</filter>
<filter id="filter3_f_1265_358184" x="225.772" y="128.808" width="211.687" height="167.241" filterUnits="userSpaceOnUse" color-interpolation-filters="sRGB">
<feFlood flood-opacity="0" result="BackgroundImageFix"/>
<feBlend mode="normal" in="SourceGraphic" in2="BackgroundImageFix" result="shape"/>
<feGaussianBlur stdDeviation="5.5" result="effect1_foregroundBlur_1265_358184"/>
</filter>
<filter id="filter4_f_1265_358184" x="191.621" y="300.917" width="97.4258" height="145.623" filterUnits="userSpaceOnUse" color-interpolation-filters="sRGB">
<feFlood flood-opacity="0" result="BackgroundImageFix"/>
<feBlend mode="normal" in="SourceGraphic" in2="BackgroundImageFix" result="shape"/>
<feGaussianBlur stdDeviation="12" result="effect1_foregroundBlur_1265_358184"/>
</filter>
<linearGradient id="paint0_linear_1265_358184" x1="181.535" y1="520.59" x2="547.989" y2="397.008" gradientUnits="userSpaceOnUse">
<stop/>
<stop offset="1" stop-opacity="0"/>
</linearGradient>
<radialGradient id="paint1_radial_1265_358184" cx="0" cy="0" r="1" gradientUnits="userSpaceOnUse" gradientTransform="translate(207.686 423.954) rotate(22.4098) scale(45.0231 34.367)">
<stop offset="0.385031" stop-color="#8F42D3"/>
<stop offset="1" stop-color="#5649EE"/>
</radialGradient>
<linearGradient id="paint2_linear_1265_358184" x1="270.436" y1="237.694" x2="179.506" y2="362.052" gradientUnits="userSpaceOnUse">
<stop stop-color="#978F91"/>
<stop offset="0.08" stop-color="#4E4B46"/>
<stop offset="0.11" stop-color="#777271"/>
<stop offset="0.13" stop-color="#958E90"/>
<stop offset="0.15" stop-color="#A7A0A3"/>
<stop offset="0.16" stop-color="#AEA6AA"/>
<stop offset="0.2" stop-color="#999294"/>
<stop offset="0.23" stop-color="#898384"/>
<stop offset="0.26" stop-color="#847E7E"/>
<stop offset="0.46" stop-color="#DADADA"/>
<stop offset="0.58" stop-color="#C4BEC2"/>
<stop offset="0.7" stop-color="#847E7E"/>
<stop offset="0.75" stop-color="#AEA6AA"/>
<stop offset="0.81" stop-color="#C1BABE"/>
<stop offset="0.91" stop-color="#999193"/>
<stop offset="1" stop-color="#4D4A45"/>
</linearGradient>
<linearGradient id="paint3_linear_1265_358184" x1="262.594" y1="234.707" x2="173.822" y2="357.547" gradientUnits="userSpaceOnUse">
<stop stop-color="#955EC0"/>
<stop offset="0.09" stop-color="#975FC0"/>
<stop offset="0.19" stop-color="#D679CA"/>
<stop offset="0.25" stop-color="#5D47B7"/>
<stop offset="0.3" stop-color="#C472C8"/>
<stop offset="0.42" stop-color="#8758BE"/>
<stop offset="0.54" stop-color="#E77CC3"/>
<stop offset="0.74" stop-color="#945DC0"/>
<stop offset="0.77" stop-color="#A364C2"/>
<stop offset="0.8" stop-color="#8C5ABE"/>
<stop offset="0.84" stop-color="#BC6FC6"/>
<stop offset="0.86" stop-color="#CCC5C8"/>
<stop offset="0.89" stop-color="#BAB3B5"/>
<stop offset="0.93" stop-color="#9B9596"/>
<stop offset="0.97" stop-color="#706D6B"/>
<stop offset="1" stop-color="#494743"/>
</linearGradient>
<radialGradient id="paint4_radial_1265_358184" cx="0" cy="0" r="1" gradientUnits="userSpaceOnUse" gradientTransform="translate(236.642 275.375) rotate(-123.777) scale(6.85843 24.916)">
<stop offset="0.01" stop-color="#FFADAD"/>
<stop offset="0.14" stop-color="#FF6969"/>
<stop offset="0.15" stop-color="#EB6060"/>
<stop offset="0.18" stop-color="#BD4D4D"/>
<stop offset="0.22" stop-color="#953C3C"/>
<stop offset="0.25" stop-color="#732E2E"/>
<stop offset="0.29" stop-color="#572222"/>
<stop offset="0.33" stop-color="#421919"/>
<stop offset="0.37" stop-color="#331313"/>
<stop offset="0.42" stop-color="#2A0F0F"/>
<stop offset="0.5" stop-color="#270E0E"/>
<stop offset="0.72" stop-color="#140707"/>
<stop offset="1"/>
</radialGradient>
<radialGradient id="paint5_radial_1265_358184" cx="0" cy="0" r="1" gradientUnits="userSpaceOnUse" gradientTransform="translate(228.281 276.003) rotate(-105.714) scale(6.83673 24.9216)">
<stop offset="0.01" stop-color="#FFADAD"/>
<stop offset="0.14" stop-color="#FF6969"/>
<stop offset="0.15" stop-color="#EB6060"/>
<stop offset="0.18" stop-color="#BD4D4D"/>
<stop offset="0.22" stop-color="#953C3C"/>
<stop offset="0.25" stop-color="#732E2E"/>
<stop offset="0.29" stop-color="#572222"/>
<stop offset="0.33" stop-color="#421919"/>
<stop offset="0.37" stop-color="#331313"/>
<stop offset="0.42" stop-color="#2A0F0F"/>
<stop offset="0.5" stop-color="#270E0E"/>
<stop offset="0.72" stop-color="#140707"/>
<stop offset="1"/>
</radialGradient>
<radialGradient id="paint6_radial_1265_358184" cx="0" cy="0" r="1" gradientUnits="userSpaceOnUse" gradientTransform="translate(224.153 274.683) rotate(-102.416) scale(6.80103 24.9243)">
<stop offset="0.01" stop-color="#FFADAD"/>
<stop offset="0.14" stop-color="#FF6969"/>
<stop offset="0.15" stop-color="#EB6060"/>
<stop offset="0.18" stop-color="#BD4D4D"/>
<stop offset="0.22" stop-color="#953C3C"/>
<stop offset="0.25" stop-color="#732E2E"/>
<stop offset="0.29" stop-color="#572222"/>
<stop offset="0.33" stop-color="#421919"/>
<stop offset="0.37" stop-color="#331313"/>
<stop offset="0.42" stop-color="#2A0F0F"/>
<stop offset="0.5" stop-color="#270E0E"/>
<stop offset="0.72" stop-color="#140707"/>
<stop offset="1"/>
</radialGradient>
<radialGradient id="paint7_radial_1265_358184" cx="0" cy="0" r="1" gradientUnits="userSpaceOnUse" gradientTransform="translate(242.663 268.339) rotate(-143.618) scale(6.83421 24.9295)">
<stop offset="0.01" stop-color="#FFADAD"/>
<stop offset="0.14" stop-color="#FF6969"/>
<stop offset="0.15" stop-color="#EB6060"/>
<stop offset="0.18" stop-color="#BD4D4D"/>
<stop offset="0.22" stop-color="#953C3C"/>
<stop offset="0.25" stop-color="#732E2E"/>
<stop offset="0.29" stop-color="#572222"/>
<stop offset="0.33" stop-color="#421919"/>
<stop offset="0.37" stop-color="#331313"/>
<stop offset="0.42" stop-color="#2A0F0F"/>
<stop offset="0.5" stop-color="#270E0E"/>
<stop offset="0.72" stop-color="#140707"/>
<stop offset="1"/>
</radialGradient>
<linearGradient id="paint8_linear_1265_358184" x1="230.466" y1="375.494" x2="146.625" y2="384.564" gradientUnits="userSpaceOnUse">
<stop stop-color="#1D1487"/>
<stop offset="0.09" stop-color="#2A1FA9"/>
<stop offset="0.12" stop-color="#3126AE"/>
<stop offset="0.16" stop-color="#796FFB"/>
<stop offset="0.2" stop-color="#FF94D4"/>
<stop offset="0.21" stop-color="#8178FE"/>
<stop offset="0.26" stop-color="#7C71FF"/>
<stop offset="0.73" stop-color="#F099FF"/>
<stop offset="0.76" stop-color="#8D99FE"/>
<stop offset="0.78" stop-color="#5B4FFF"/>
<stop offset="0.81" stop-color="#E43CD4"/>
<stop offset="0.88" stop-color="#E796FF"/>
<stop offset="0.94" stop-color="#8072FF"/>
<stop offset="0.97" stop-color="#150B92"/>
</linearGradient>
<radialGradient id="paint9_radial_1265_358184" cx="0" cy="0" r="1" gradientUnits="userSpaceOnUse" gradientTransform="translate(235.41 324.266) rotate(93.0983) scale(32.197 167.491)">
<stop offset="0.01" stop-color="#FFADAD"/>
<stop offset="0.14" stop-color="#FF6969"/>
<stop offset="0.15" stop-color="#EB6060"/>
<stop offset="0.18" stop-color="#BD4D4D"/>
<stop offset="0.22" stop-color="#953C3C"/>
<stop offset="0.25" stop-color="#732E2E"/>
<stop offset="0.29" stop-color="#572222"/>
<stop offset="0.33" stop-color="#421919"/>
<stop offset="0.37" stop-color="#331313"/>
<stop offset="0.42" stop-color="#2A0F0F"/>
<stop offset="0.5" stop-color="#270E0E"/>
<stop offset="0.72" stop-color="#140707"/>
<stop offset="1"/>
</radialGradient>
<radialGradient id="paint10_radial_1265_358184" cx="0" cy="0" r="1" gradientUnits="userSpaceOnUse" gradientTransform="translate(206.507 351.909) rotate(93.0983) scale(32.197 167.491)">
<stop offset="0.01" stop-color="#FFADAD"/>
<stop offset="0.14" stop-color="#FF6969"/>
<stop offset="0.15" stop-color="#EB6060"/>
<stop offset="0.18" stop-color="#BD4D4D"/>
<stop offset="0.22" stop-color="#953C3C"/>
<stop offset="0.25" stop-color="#732E2E"/>
<stop offset="0.29" stop-color="#572222"/>
<stop offset="0.33" stop-color="#421919"/>
<stop offset="0.37" stop-color="#331313"/>
<stop offset="0.42" stop-color="#2A0F0F"/>
<stop offset="0.5" stop-color="#270E0E"/>
<stop offset="0.72" stop-color="#140707"/>
<stop offset="1"/>
</radialGradient>
<radialGradient id="paint11_radial_1265_358184" cx="0" cy="0" r="1" gradientUnits="userSpaceOnUse" gradientTransform="translate(227.065 386.308) rotate(82.4597) scale(32.1044 167.504)">
<stop offset="0.01" stop-color="#FFADAD"/>
<stop offset="0.14" stop-color="#FF6969"/>
<stop offset="0.15" stop-color="#EB6060"/>
<stop offset="0.18" stop-color="#BD4D4D"/>
<stop offset="0.22" stop-color="#953C3C"/>
<stop offset="0.25" stop-color="#732E2E"/>
<stop offset="0.29" stop-color="#572222"/>
<stop offset="0.33" stop-color="#421919"/>
<stop offset="0.37" stop-color="#331313"/>
<stop offset="0.42" stop-color="#2A0F0F"/>
<stop offset="0.5" stop-color="#270E0E"/>
<stop offset="0.72" stop-color="#140707"/>
<stop offset="1"/>
</radialGradient>
<radialGradient id="paint12_radial_1265_358184" cx="0" cy="0" r="1" gradientUnits="userSpaceOnUse" gradientTransform="translate(341.287 371.741) rotate(117.175) scale(32.159 167.62)">
<stop offset="0.01" stop-color="#FFADAD"/>
<stop offset="0.14" stop-color="#FF6969"/>
<stop offset="0.15" stop-color="#EB6060"/>
<stop offset="0.18" stop-color="#BD4D4D"/>
<stop offset="0.22" stop-color="#953C3C"/>
<stop offset="0.25" stop-color="#732E2E"/>
<stop offset="0.29" stop-color="#572222"/>
<stop offset="0.33" stop-color="#421919"/>
<stop offset="0.37" stop-color="#331313"/>
<stop offset="0.42" stop-color="#2A0F0F"/>
<stop offset="0.5" stop-color="#270E0E"/>
<stop offset="0.72" stop-color="#140707"/>
<stop offset="1"/>
</radialGradient>
<radialGradient id="paint13_radial_1265_358184" cx="0" cy="0" r="1" gradientUnits="userSpaceOnUse" gradientTransform="translate(288.612 408.255) rotate(106.985) scale(32.159 167.62)">
<stop offset="0.01" stop-color="#FFADAD"/>
<stop offset="0.14" stop-color="#FF6969"/>
<stop offset="0.15" stop-color="#EB6060"/>
<stop offset="0.18" stop-color="#BD4D4D"/>
<stop offset="0.22" stop-color="#953C3C"/>
<stop offset="0.25" stop-color="#732E2E"/>
<stop offset="0.29" stop-color="#572222"/>
<stop offset="0.33" stop-color="#421919"/>
<stop offset="0.37" stop-color="#331313"/>
<stop offset="0.42" stop-color="#2A0F0F"/>
<stop offset="0.5" stop-color="#270E0E"/>
<stop offset="0.72" stop-color="#140707"/>
<stop offset="1"/>
</radialGradient>
<radialGradient id="paint14_radial_1265_358184" cx="0" cy="0" r="1" gradientUnits="userSpaceOnUse" gradientTransform="translate(389.514 367.025) rotate(138.363) scale(20.3966 106.366)">
<stop offset="0.01" stop-color="#FFADAD"/>
<stop offset="1" stop-color="#3B2BCE"/>
</radialGradient>
<radialGradient id="paint15_radial_1265_358184" cx="0" cy="0" r="1" gradientUnits="userSpaceOnUse" gradientTransform="translate(398.879 327.825) rotate(-160.186) scale(6.83047 35.685)">
<stop offset="0.01" stop-color="#FFADAD"/>
<stop offset="0.14" stop-color="#FF6969"/>
<stop offset="0.15" stop-color="#EB6060"/>
<stop offset="0.18" stop-color="#BD4D4D"/>
<stop offset="0.22" stop-color="#953C3C"/>
<stop offset="0.25" stop-color="#732E2E"/>
<stop offset="0.29" stop-color="#572222"/>
<stop offset="0.33" stop-color="#421919"/>
<stop offset="0.37" stop-color="#331313"/>
<stop offset="0.42" stop-color="#2A0F0F"/>
<stop offset="0.5" stop-color="#270E0E"/>
<stop offset="0.72" stop-color="#140707"/>
<stop offset="1"/>
</radialGradient>
<linearGradient id="paint16_linear_1265_358184" x1="394.755" y1="395.166" x2="273.451" y2="460.787" gradientUnits="userSpaceOnUse">
<stop stop-color="#1D1487"/>
<stop offset="0.09" stop-color="#2A1FA9"/>
<stop offset="0.12" stop-color="#3126AE"/>
<stop offset="0.16" stop-color="#796FFB"/>
<stop offset="0.2" stop-color="#FF94D4"/>
<stop offset="0.21" stop-color="#8178FE"/>
<stop offset="0.26" stop-color="#7C71FF"/>
<stop offset="0.73" stop-color="#F099FF"/>
<stop offset="0.76" stop-color="#8D99FE"/>
<stop offset="0.78" stop-color="#5B4FFF"/>
<stop offset="0.81" stop-color="#E43CD4"/>
<stop offset="0.88" stop-color="#E796FF"/>
<stop offset="0.94" stop-color="#8072FF"/>
<stop offset="0.97" stop-color="#150B92"/>
</linearGradient>
<linearGradient id="paint17_linear_1265_358184" x1="349.009" y1="481.551" x2="334.449" y2="377.883" gradientUnits="userSpaceOnUse">
<stop stop-color="#910000"/>
<stop offset="0.21" stop-color="#3E0000"/>
<stop offset="0.36" stop-color="#240000"/>
<stop offset="0.55" stop-color="#100000"/>
<stop offset="0.72" stop-color="#060000"/>
<stop offset="1"/>
</linearGradient>
<linearGradient id="paint18_linear_1265_358184" x1="311.101" y1="511.556" x2="329.195" y2="419.944" gradientUnits="userSpaceOnUse">
<stop stop-color="#963C3C"/>
<stop offset="1"/>
</linearGradient>
<linearGradient id="paint19_linear_1265_358184" x1="442.086" y1="297.922" x2="331.166" y2="467.968" gradientUnits="userSpaceOnUse">
<stop stop-color="#978F91"/>
<stop offset="0.08" stop-color="#4E4B46"/>
<stop offset="0.11" stop-color="#777271"/>
<stop offset="0.13" stop-color="#958E90"/>
<stop offset="0.15" stop-color="#A7A0A3"/>
<stop offset="0.16" stop-color="#AEA6AA"/>
<stop offset="0.2" stop-color="#999294"/>
<stop offset="0.23" stop-color="#898384"/>
<stop offset="0.26" stop-color="#847E7E"/>
<stop offset="0.46" stop-color="#DADADA"/>
<stop offset="0.58" stop-color="#C4BEC2"/>
<stop offset="0.7" stop-color="#847E7E"/>
<stop offset="0.75" stop-color="#AEA6AA"/>
<stop offset="0.81" stop-color="#C1BABE"/>
<stop offset="0.91" stop-color="#999193"/>
<stop offset="1" stop-color="#4D4A45"/>
</linearGradient>
<linearGradient id="paint20_linear_1265_358184" x1="443.01" y1="298.296" x2="332.089" y2="468.343" gradientUnits="userSpaceOnUse">
<stop stop-color="#955EC0"/>
<stop offset="0.09" stop-color="#975FC0"/>
<stop offset="0.19" stop-color="#D679CA"/>
<stop offset="0.25" stop-color="#5D47B7"/>
<stop offset="0.3" stop-color="#C472C8"/>
<stop offset="0.42" stop-color="#8758BE"/>
<stop offset="0.54" stop-color="#E77CC3"/>
<stop offset="0.74" stop-color="#945DC0"/>
<stop offset="0.77" stop-color="#A364C2"/>
<stop offset="0.8" stop-color="#8C5ABE"/>
<stop offset="0.84" stop-color="#BC6FC6"/>
<stop offset="0.86" stop-color="#CCC5C8"/>
<stop offset="0.89" stop-color="#BAB3B5"/>
<stop offset="0.93" stop-color="#9B9596"/>
<stop offset="0.97" stop-color="#706D6B"/>
<stop offset="1" stop-color="#494743"/>
</linearGradient>
<linearGradient id="paint21_linear_1265_358184" x1="323.807" y1="465.165" x2="377.578" y2="430.134" gradientUnits="userSpaceOnUse">
<stop stop-color="#B083FF"/>
<stop offset="0.06" stop-color="#8B76FF"/>
<stop offset="0.1" stop-color="#8975FF"/>
<stop offset="0.12" stop-color="#8073FF"/>
<stop offset="0.16" stop-color="#C770C2"/>
<stop offset="0.21" stop-color="#8975FF"/>
<stop offset="0.26" stop-color="#C2B4FF"/>
<stop offset="0.33" stop-color="#E0E0E0"/>
<stop offset="0.34" stop-color="#C46FC2"/>
<stop offset="0.36" stop-color="#BE6DC2"/>
<stop offset="0.37" stop-color="#BF6DC2"/>
<stop offset="0.38" stop-color="#C971C2"/>
<stop offset="0.4" stop-color="#C870C2"/>
<stop offset="0.41" stop-color="#8374FF"/>
<stop offset="0.44" stop-color="#8A76FF"/>
<stop offset="0.47" stop-color="#8574FF"/>
<stop offset="0.64" stop-color="#7D71FF"/>
<stop offset="0.67" stop-color="#8674FF"/>
<stop offset="0.68" stop-color="#9E7DFF"/>
<stop offset="0.69" stop-color="#9B7CFF"/>
<stop offset="0.71" stop-color="#C6BFFF"/>
<stop offset="0.72" stop-color="#E7E7E7"/>
<stop offset="0.75" stop-color="#EAEAEA"/>
<stop offset="0.79" stop-color="#E5E5E5"/>
<stop offset="0.84" stop-color="#E4A2E1"/>
<stop offset="0.86" stop-color="#A965C1"/>
<stop offset="0.89" stop-color="#967AFF"/>
<stop offset="0.92" stop-color="#8574FF"/>
<stop offset="0.93" stop-color="#9178FF"/>
<stop offset="0.99" stop-color="#957AFF"/>
<stop offset="1" stop-color="#8B8B8B"/>
</linearGradient>
<linearGradient id="paint22_linear_1265_358184" x1="329.798" y1="451.185" x2="382.631" y2="449.489" gradientUnits="userSpaceOnUse">
<stop stop-color="#C26ABC"/>
<stop offset="1" stop-color="#553199"/>
</linearGradient>
<linearGradient id="paint23_linear_1265_358184" x1="343.614" y1="446.75" x2="362.781" y2="445.828" gradientUnits="userSpaceOnUse">
<stop stop-color="#640000"/>
<stop offset="1" stop-color="#FF0627"/>
</linearGradient>
<linearGradient id="paint24_linear_1265_358184" x1="445.261" y1="140.566" x2="290.553" y2="206.04" gradientUnits="userSpaceOnUse">
<stop stop-color="#0C00A0"/>
<stop offset="1" stop-color="#342B9D"/>
</linearGradient>
<radialGradient id="paint25_radial_1265_358184" cx="0" cy="0" r="1" gradientUnits="userSpaceOnUse" gradientTransform="translate(417.547 176.28) rotate(131.062) scale(32.197 167.491)">
<stop offset="0.01" stop-color="#FFADAD"/>
<stop offset="0.14" stop-color="#FF6969"/>
<stop offset="0.15" stop-color="#EB6060"/>
<stop offset="0.18" stop-color="#BD4D4D"/>
<stop offset="0.22" stop-color="#953C3C"/>
<stop offset="0.25" stop-color="#732E2E"/>
<stop offset="0.29" stop-color="#572222"/>
<stop offset="0.33" stop-color="#421919"/>
<stop offset="0.37" stop-color="#331313"/>
<stop offset="0.42" stop-color="#2A0F0F"/>
<stop offset="0.5" stop-color="#270E0E"/>
<stop offset="0.72" stop-color="#140707"/>
<stop offset="1"/>
</radialGradient>
<radialGradient id="paint26_radial_1265_358184" cx="0" cy="0" r="1" gradientUnits="userSpaceOnUse" gradientTransform="translate(423.575 268.004) rotate(131.271) scale(46.3415 103.767)">
<stop stop-color="#FD6868"/>
<stop offset="0.03" stop-color="#EE6262"/>
<stop offset="0.06" stop-color="#E55E5E"/>
<stop offset="0.11" stop-color="#E25D5D"/>
<stop offset="0.72" stop-color="#140707"/>
<stop offset="1"/>
</radialGradient>
<linearGradient id="paint27_linear_1265_358184" x1="404.739" y1="268.299" x2="276.859" y2="155.736" gradientUnits="userSpaceOnUse">
<stop offset="0.03" stop-color="#C74C59"/>
<stop offset="0.425" stop-color="#FFF3F4"/>
<stop offset="1" stop-color="#A34850"/>
</linearGradient>
<linearGradient id="paint28_linear_1265_358184" x1="384.048" y1="220.563" x2="314.144" y2="121.841" gradientUnits="userSpaceOnUse">
<stop offset="0.03" stop-color="#C74C59"/>
<stop offset="0.827984" stop-color="white"/>
<stop offset="1" stop-color="#A34850"/>
</linearGradient>
<linearGradient id="paint29_linear_1265_358184" x1="248.547" y1="216.213" x2="239.416" y2="231.292" gradientUnits="userSpaceOnUse">
<stop stop-color="#FAFAFA"/>
<stop offset="1" stop-color="#CFCCCC"/>
</linearGradient>
<linearGradient id="paint30_linear_1265_358184" x1="275.105" y1="229.005" x2="237.241" y2="227.525" gradientUnits="userSpaceOnUse">
<stop stop-color="#1D1487"/>
<stop offset="1" stop-color="#F383CB"/>
</linearGradient>
<linearGradient id="paint31_linear_1265_358184" x1="424.65" y1="268.518" x2="420.101" y2="286.206" gradientUnits="userSpaceOnUse">
<stop stop-color="#FAFAFA"/>
<stop offset="0.38" stop-color="#F8F7F7"/>
<stop offset="0.62" stop-color="#F0EFEF"/>
<stop offset="0.82" stop-color="#E2E0E0"/>
<stop offset="1" stop-color="#CFCCCC"/>
</linearGradient>
<linearGradient id="paint32_linear_1265_358184" x1="455.151" y1="282.288" x2="416.538" y2="285.892" gradientUnits="userSpaceOnUse">
<stop stop-color="#8B8B8B"/>
<stop offset="0.3" stop-color="white"/>
<stop offset="0.4" stop-color="#F1F1F1"/>
<stop offset="0.49" stop-color="#EAEAEA"/>
<stop offset="0.61" stop-color="#E7E7E7"/>
<stop offset="0.69" stop-color="#DFDFDF"/>
<stop offset="0.75" stop-color="#D0D0D0"/>
<stop offset="0.81" stop-color="#BBBBBB"/>
<stop offset="0.86" stop-color="#A0A0A0"/>
<stop offset="0.91" stop-color="#7F7F7F"/>
<stop offset="0.96" stop-color="#585858"/>
<stop offset="1" stop-color="#2D2D2D"/>
</linearGradient>
<linearGradient id="paint33_linear_1265_358184" x1="455.151" y1="282.288" x2="416.538" y2="285.892" gradientUnits="userSpaceOnUse">
<stop stop-color="#442893"/>
<stop offset="1" stop-color="#D674C2"/>
</linearGradient>
<radialGradient id="paint34_radial_1265_358184" cx="0" cy="0" r="1" gradientUnits="userSpaceOnUse" gradientTransform="translate(377.224 430.182) rotate(-92.654) scale(12.9441 12.9495)">
<stop stop-color="#5C5C5C"/>
<stop offset="0.11" stop-color="#424242"/>
<stop offset="0.25" stop-color="#252525"/>
<stop offset="0.39" stop-color="#101010"/>
<stop offset="0.54" stop-color="#040404"/>
<stop offset="0.67"/>
</radialGradient>
<radialGradient id="paint35_radial_1265_358184" cx="0" cy="0" r="1" gradientUnits="userSpaceOnUse" gradientTransform="translate(377.224 430.182) rotate(-92.654) scale(12.9441 12.9495)">
<stop stop-color="#5C5C5C"/>
<stop offset="0.11" stop-color="#424242"/>
<stop offset="0.25" stop-color="#252525"/>
<stop offset="0.39" stop-color="#101010"/>
<stop offset="0.54" stop-color="#040404"/>
<stop offset="0.67"/>
</radialGradient>
<radialGradient id="paint36_radial_1265_358184" cx="0" cy="0" r="1" gradientUnits="userSpaceOnUse" gradientTransform="translate(378.017 421.476) rotate(-92.7092) scale(15.2335 2.03907)">
<stop stop-color="#5C5C5C"/>
<stop offset="0.05" stop-color="#4B4B4B"/>
<stop offset="0.14" stop-color="#303030"/>
<stop offset="0.24" stop-color="#1B1B1B"/>
<stop offset="0.35" stop-color="#0C0C0C"/>
<stop offset="0.48" stop-color="#030303"/>
<stop offset="0.67"/>
</radialGradient>
<radialGradient id="paint37_radial_1265_358184" cx="0" cy="0" r="1" gradientUnits="userSpaceOnUse" gradientTransform="translate(370.324 435.346) rotate(-152.78) scale(15.2809 1.98294)">
<stop stop-color="#5C5C5C"/>
<stop offset="0.05" stop-color="#4B4B4B"/>
<stop offset="0.14" stop-color="#303030"/>
<stop offset="0.24" stop-color="#1B1B1B"/>
<stop offset="0.35" stop-color="#0C0C0C"/>
<stop offset="0.48" stop-color="#030303"/>
<stop offset="0.67"/>
</radialGradient>
<radialGradient id="paint38_radial_1265_358184" cx="0" cy="0" r="1" gradientUnits="userSpaceOnUse" gradientTransform="translate(380.318 424.377) rotate(147.37) scale(15.2797 2.06945)">
<stop stop-color="#5C5C5C"/>
<stop offset="0.05" stop-color="#4B4B4B"/>
<stop offset="0.14" stop-color="#303030"/>
<stop offset="0.24" stop-color="#1B1B1B"/>
<stop offset="0.35" stop-color="#0C0C0C"/>
<stop offset="0.48" stop-color="#030303"/>
<stop offset="0.67"/>
</radialGradient>
<radialGradient id="paint39_radial_1265_358184" cx="0" cy="0" r="1" gradientUnits="userSpaceOnUse" gradientTransform="translate(386.971 431.748) rotate(-122.665) scale(9.69048 1.31189)">
<stop stop-color="#5C5C5C"/>
<stop offset="0.05" stop-color="#4B4B4B"/>
<stop offset="0.14" stop-color="#303030"/>
<stop offset="0.24" stop-color="#1B1B1B"/>
<stop offset="0.35" stop-color="#0C0C0C"/>
<stop offset="0.48" stop-color="#030303"/>
<stop offset="0.67"/>
</radialGradient>
<radialGradient id="paint40_radial_1265_358184" cx="0" cy="0" r="1" gradientUnits="userSpaceOnUse" gradientTransform="translate(368.549 428.763) rotate(177.319) scale(9.65878 1.29178)">
<stop stop-color="#5C5C5C"/>
<stop offset="0.05" stop-color="#4B4B4B"/>
<stop offset="0.14" stop-color="#303030"/>
<stop offset="0.24" stop-color="#1B1B1B"/>
<stop offset="0.35" stop-color="#0C0C0C"/>
<stop offset="0.48" stop-color="#030303"/>
<stop offset="0.67"/>
</radialGradient>
<radialGradient id="paint41_radial_1265_358184" cx="0" cy="0" r="1" gradientUnits="userSpaceOnUse" gradientTransform="translate(376.687 425.802) rotate(117.226) scale(9.68301 1.25812)">
<stop stop-color="#5C5C5C"/>
<stop offset="0.05" stop-color="#4B4B4B"/>
<stop offset="0.14" stop-color="#303030"/>
<stop offset="0.24" stop-color="#1B1B1B"/>
<stop offset="0.35" stop-color="#0C0C0C"/>
<stop offset="0.48" stop-color="#030303"/>
<stop offset="0.67"/>
</radialGradient>
<radialGradient id="paint42_radial_1265_358184" cx="0" cy="0" r="1" gradientUnits="userSpaceOnUse" gradientTransform="translate(302.947 356.585) rotate(135.503) scale(138.366 114.323)">
<stop stop-color="#1D1487"/>
<stop offset="0.09" stop-color="#2A1FA9"/>
<stop offset="0.12" stop-color="#3126AE"/>
<stop offset="0.16" stop-color="#796FFB"/>
<stop offset="0.2" stop-color="#FF94D4"/>
<stop offset="0.21" stop-color="#8178FE"/>
<stop offset="0.26" stop-color="#7C71FF"/>
<stop offset="0.73" stop-color="#F099FF"/>
<stop offset="0.76" stop-color="#8D99FE"/>
<stop offset="0.78" stop-color="#5B4FFF"/>
<stop offset="0.81" stop-color="#E43CD4"/>
<stop offset="0.88" stop-color="#E796FF"/>
<stop offset="0.94" stop-color="#8072FF"/>
<stop offset="0.97" stop-color="#150B92"/>
</radialGradient>
<linearGradient id="paint43_linear_1265_358184" x1="226.134" y1="464.377" x2="192.058" y2="310.77" gradientUnits="userSpaceOnUse">
<stop stop-color="#3F2BCE"/>
<stop offset="1" stop-color="#D380FF"/>
</linearGradient>
<linearGradient id="paint44_linear_1265_358184" x1="252.095" y1="409.873" x2="188.081" y2="395.768" gradientUnits="userSpaceOnUse">
<stop stop-color="#3F2BCE"/>
<stop offset="1" stop-color="#A447D5"/>
</linearGradient>
<linearGradient id="paint45_linear_1265_358184" x1="252.096" y1="409.873" x2="188.082" y2="395.768" gradientUnits="userSpaceOnUse">
<stop stop-color="#3F2BCE"/>
<stop offset="1" stop-color="#A447D5"/>
</linearGradient>
<linearGradient id="paint46_linear_1265_358184" x1="252.096" y1="409.87" x2="188.082" y2="395.765" gradientUnits="userSpaceOnUse">
<stop stop-color="#3F2BCE"/>
<stop offset="1" stop-color="#A447D5"/>
</linearGradient>
<linearGradient id="paint47_linear_1265_358184" x1="177.712" y1="425.775" x2="248.86" y2="336.553" gradientUnits="userSpaceOnUse">
<stop stop-color="#3F2BCE"/>
<stop offset="0.865985" stop-color="#A447D5"/>
</linearGradient>
<radialGradient id="paint48_radial_1265_358184" cx="0" cy="0" r="1" gradientUnits="userSpaceOnUse" gradientTransform="translate(224.935 455.733) rotate(14.9656) scale(44.769 26.2266)">
<stop stop-color="#C389FF"/>
<stop offset="1" stop-color="#5933D0"/>
</radialGradient>
</defs>
</svg>
