<svg width="90" height="36" viewBox="0 0 90 36" fill="none" xmlns="http://www.w3.org/2000/svg">
<rect x="1.43994" y="2.88281" width="88.56" height="33.12" rx="4" fill="url(#paint0_linear_1265_359043)"/>
<rect x="0.5" y="0.5" width="87.56" height="32.12" rx="3.5" fill="url(#paint1_linear_1265_359043)" stroke="url(#paint2_linear_1265_359043)"/>
<path d="M13.9809 16.4104C13.9809 17.0997 13.9058 17.6974 13.7554 18.2034C13.6088 18.7094 13.4053 19.1292 13.1449 19.4629C12.8883 19.7929 12.5839 20.0385 12.2319 20.1999C11.8836 20.3612 11.5078 20.4419 11.1044 20.4419C10.7011 20.4419 10.3234 20.3612 9.97142 20.1999C9.62309 20.0385 9.32059 19.7929 9.06392 19.4629C8.80726 19.1292 8.60559 18.7094 8.45892 18.2034C8.31226 17.6974 8.23892 17.0997 8.23892 16.4104C8.23892 15.721 8.31226 15.1234 8.45892 14.6174C8.60559 14.1077 8.80726 13.6879 9.06392 13.3579C9.32059 13.0242 9.62309 12.7767 9.97142 12.6154C10.3234 12.454 10.7011 12.3734 11.1044 12.3734C11.5078 12.3734 11.8836 12.454 12.2319 12.6154C12.5839 12.7767 12.8883 13.0242 13.1449 13.3579C13.4053 13.6879 13.6088 14.1077 13.7554 14.6174C13.9058 15.1234 13.9809 15.721 13.9809 16.4104ZM12.8699 16.4104C12.8699 15.8164 12.8204 15.3195 12.7214 14.9199C12.6261 14.5202 12.4959 14.1994 12.3309 13.9574C12.1696 13.7117 11.9826 13.5375 11.7699 13.4349C11.5573 13.3322 11.3354 13.2809 11.1044 13.2809C10.8734 13.2809 10.6516 13.3322 10.4389 13.4349C10.2263 13.5375 10.0374 13.7117 9.87242 13.9574C9.71109 14.1994 9.58276 14.5202 9.48742 14.9199C9.39209 15.3195 9.34442 15.8164 9.34442 16.4104C9.34442 17.0044 9.39209 17.5012 9.48742 17.9009C9.58276 18.3005 9.71109 18.6214 9.87242 18.8634C10.0374 19.1054 10.2263 19.2777 10.4389 19.3804C10.6516 19.483 10.8734 19.5344 11.1044 19.5344C11.3354 19.5344 11.5573 19.483 11.7699 19.3804C11.9826 19.2777 12.1696 19.1054 12.3309 18.8634C12.4959 18.6214 12.6261 18.3005 12.7214 17.9009C12.8204 17.5012 12.8699 17.0044 12.8699 16.4104ZM17.4908 19.5949C17.7401 19.5949 17.9619 19.56 18.1563 19.4904C18.3506 19.4207 18.5156 19.3235 18.6513 19.1989C18.7869 19.0705 18.8896 18.9184 18.9593 18.7424C19.0289 18.5664 19.0638 18.3739 19.0638 18.1649C19.0638 17.9082 19.0216 17.6882 18.9373 17.5049C18.8529 17.3179 18.7393 17.1657 18.5963 17.0484C18.4533 16.9274 18.2864 16.8394 18.0958 16.7844C17.9051 16.7257 17.7034 16.6964 17.4908 16.6964C17.2744 16.6964 17.0709 16.7257 16.8803 16.7844C16.6896 16.8394 16.5228 16.9274 16.3798 17.0484C16.2368 17.1657 16.1231 17.3179 16.0388 17.5049C15.9581 17.6882 15.9178 17.9082 15.9178 18.1649C15.9178 18.3739 15.9526 18.5664 16.0223 18.7424C16.0919 18.9184 16.1946 19.0705 16.3303 19.1989C16.4659 19.3235 16.6309 19.4207 16.8253 19.4904C17.0196 19.56 17.2414 19.5949 17.4908 19.5949ZM17.4908 13.1984C17.2634 13.1984 17.0636 13.2332 16.8913 13.3029C16.7226 13.3689 16.5814 13.4605 16.4678 13.5779C16.3541 13.6952 16.2679 13.8309 16.2093 13.9849C16.1543 14.1389 16.1268 14.3039 16.1268 14.4799C16.1268 14.6522 16.1506 14.8209 16.1983 14.9859C16.2496 15.1472 16.3284 15.292 16.4348 15.4204C16.5448 15.545 16.6859 15.6459 16.8583 15.7229C17.0306 15.7999 17.2414 15.8384 17.4908 15.8384C17.7364 15.8384 17.9454 15.7999 18.1178 15.7229C18.2938 15.6459 18.4349 15.545 18.5413 15.4204C18.6513 15.292 18.7301 15.1472 18.7778 14.9859C18.8291 14.8209 18.8548 14.6522 18.8548 14.4799C18.8548 14.3039 18.8254 14.1389 18.7668 13.9849C18.7118 13.8309 18.6274 13.6952 18.5138 13.5779C18.4001 13.4605 18.2571 13.3689 18.0848 13.3029C17.9161 13.2332 17.7181 13.1984 17.4908 13.1984ZM18.6733 16.2399C19.1646 16.3865 19.5368 16.623 19.7898 16.9494C20.0464 17.2757 20.1748 17.6882 20.1748 18.1869C20.1748 18.5315 20.1088 18.8432 19.9768 19.1219C19.8484 19.4005 19.6651 19.6389 19.4268 19.8369C19.1921 20.0312 18.9098 20.1815 18.5798 20.2879C18.2498 20.3942 17.8868 20.4474 17.4908 20.4474C17.0948 20.4474 16.7318 20.3942 16.4018 20.2879C16.0718 20.1815 15.7876 20.0312 15.5493 19.8369C15.3146 19.6389 15.1313 19.4005 14.9993 19.1219C14.8709 18.8432 14.8068 18.5315 14.8068 18.1869C14.8068 17.6882 14.9333 17.2757 15.1863 16.9494C15.4429 16.623 15.8169 16.3865 16.3083 16.2399C15.9013 16.0859 15.5951 15.8567 15.3898 15.5524C15.1844 15.2444 15.0818 14.8795 15.0818 14.4579C15.0818 14.1645 15.1386 13.8914 15.2523 13.6384C15.3696 13.3817 15.5328 13.1599 15.7418 12.9729C15.9544 12.7859 16.2093 12.6392 16.5063 12.5329C16.8033 12.4265 17.1314 12.3734 17.4908 12.3734C17.8501 12.3734 18.1783 12.4265 18.4753 12.5329C18.7723 12.6392 19.0253 12.7859 19.2343 12.9729C19.4469 13.1599 19.6101 13.3817 19.7238 13.6384C19.8411 13.8914 19.8998 14.1645 19.8998 14.4579C19.8998 14.8795 19.7971 15.2444 19.5918 15.5524C19.3864 15.8567 19.0803 16.0859 18.6733 16.2399ZM23.8716 19.5949C24.121 19.5949 24.3428 19.56 24.5371 19.4904C24.7315 19.4207 24.8965 19.3235 25.0321 19.1989C25.1678 19.0705 25.2705 18.9184 25.3401 18.7424C25.4098 18.5664 25.4446 18.3739 25.4446 18.1649C25.4446 17.9082 25.4025 17.6882 25.3181 17.5049C25.2338 17.3179 25.1201 17.1657 24.9771 17.0484C24.8341 16.9274 24.6673 16.8394 24.4766 16.7844C24.286 16.7257 24.0843 16.6964 23.8716 16.6964C23.6553 16.6964 23.4518 16.7257 23.2611 16.7844C23.0705 16.8394 22.9036 16.9274 22.7606 17.0484C22.6176 17.1657 22.504 17.3179 22.4196 17.5049C22.339 17.6882 22.2986 17.9082 22.2986 18.1649C22.2986 18.3739 22.3335 18.5664 22.4031 18.7424C22.4728 18.9184 22.5755 19.0705 22.7111 19.1989C22.8468 19.3235 23.0118 19.4207 23.2061 19.4904C23.4005 19.56 23.6223 19.5949 23.8716 19.5949ZM23.8716 13.1984C23.6443 13.1984 23.4445 13.2332 23.2721 13.3029C23.1035 13.3689 22.9623 13.4605 22.8486 13.5779C22.735 13.6952 22.6488 13.8309 22.5901 13.9849C22.5351 14.1389 22.5076 14.3039 22.5076 14.4799C22.5076 14.6522 22.5315 14.8209 22.5791 14.9859C22.6305 15.1472 22.7093 15.292 22.8156 15.4204C22.9256 15.545 23.0668 15.6459 23.2391 15.7229C23.4115 15.7999 23.6223 15.8384 23.8716 15.8384C24.1173 15.8384 24.3263 15.7999 24.4986 15.7229C24.6746 15.6459 24.8158 15.545 24.9221 15.4204C25.0321 15.292 25.111 15.1472 25.1586 14.9859C25.21 14.8209 25.2356 14.6522 25.2356 14.4799C25.2356 14.3039 25.2063 14.1389 25.1476 13.9849C25.0926 13.8309 25.0083 13.6952 24.8946 13.5779C24.781 13.4605 24.638 13.3689 24.4656 13.3029C24.297 13.2332 24.099 13.1984 23.8716 13.1984ZM25.0541 16.2399C25.5455 16.3865 25.9176 16.623 26.1706 16.9494C26.4273 17.2757 26.5556 17.6882 26.5556 18.1869C26.5556 18.5315 26.4896 18.8432 26.3576 19.1219C26.2293 19.4005 26.046 19.6389 25.8076 19.8369C25.573 20.0312 25.2906 20.1815 24.9606 20.2879C24.6306 20.3942 24.2676 20.4474 23.8716 20.4474C23.4756 20.4474 23.1126 20.3942 22.7826 20.2879C22.4526 20.1815 22.1685 20.0312 21.9301 19.8369C21.6955 19.6389 21.5121 19.4005 21.3801 19.1219C21.2518 18.8432 21.1876 18.5315 21.1876 18.1869C21.1876 17.6882 21.3141 17.2757 21.5671 16.9494C21.8238 16.623 22.1978 16.3865 22.6891 16.2399C22.2821 16.0859 21.976 15.8567 21.7706 15.5524C21.5653 15.2444 21.4626 14.8795 21.4626 14.4579C21.4626 14.1645 21.5195 13.8914 21.6331 13.6384C21.7505 13.3817 21.9136 13.1599 22.1226 12.9729C22.3353 12.7859 22.5901 12.6392 22.8871 12.5329C23.1841 12.4265 23.5123 12.3734 23.8716 12.3734C24.231 12.3734 24.5591 12.4265 24.8561 12.5329C25.1531 12.6392 25.4061 12.7859 25.6151 12.9729C25.8278 13.1599 25.991 13.3817 26.1046 13.6384C26.222 13.8914 26.2806 14.1645 26.2806 14.4579C26.2806 14.8795 26.178 15.2444 25.9726 15.5524C25.7673 15.8567 25.4611 16.0859 25.0541 16.2399ZM28.685 14.7934C28.685 15.281 28.817 15.6569 29.081 15.9209C29.345 16.1849 29.7117 16.3169 30.181 16.3169C30.434 16.3169 30.6577 16.2765 30.852 16.1959C31.0463 16.1115 31.2095 16.0015 31.3415 15.8659C31.4772 15.7265 31.5798 15.567 31.6495 15.3874C31.7192 15.204 31.754 15.0134 31.754 14.8154C31.754 14.577 31.7155 14.3625 31.6385 14.1719C31.5652 13.9775 31.4607 13.8144 31.325 13.6824C31.1893 13.5467 31.028 13.444 30.841 13.3744C30.6577 13.301 30.4542 13.2644 30.2305 13.2644C29.9995 13.2644 29.7887 13.3029 29.598 13.3799C29.4073 13.4532 29.2442 13.5577 29.1085 13.6934C28.9728 13.829 28.8683 13.9904 28.795 14.1774C28.7217 14.3644 28.685 14.5697 28.685 14.7934ZM30.852 17.2354C30.995 17.0484 31.1288 16.865 31.2535 16.6854C31.0555 16.8357 30.8337 16.9494 30.588 17.0264C30.346 17.1034 30.0875 17.1419 29.8125 17.1419C29.5228 17.1419 29.2442 17.0924 28.9765 16.9934C28.7125 16.8944 28.4778 16.7495 28.2725 16.5589C28.0708 16.3645 27.9095 16.1262 27.7885 15.8439C27.6675 15.5615 27.607 15.237 27.607 14.8704C27.607 14.5257 27.6712 14.2012 27.7995 13.8969C27.9278 13.5925 28.1075 13.3285 28.3385 13.1049C28.5732 12.8775 28.8518 12.6997 29.1745 12.5714C29.5008 12.4394 29.8583 12.3734 30.247 12.3734C30.632 12.3734 30.9803 12.4357 31.292 12.5604C31.6073 12.685 31.875 12.861 32.095 13.0884C32.315 13.312 32.4855 13.5815 32.6065 13.8969C32.7275 14.2122 32.788 14.5587 32.788 14.9364C32.788 15.1674 32.766 15.3874 32.722 15.5964C32.6817 15.8054 32.6212 16.0089 32.5405 16.2069C32.4635 16.4049 32.3682 16.601 32.2545 16.7954C32.1445 16.986 32.018 17.1822 31.875 17.3839L29.9775 20.1064C29.9262 20.1797 29.851 20.2402 29.752 20.2879C29.6567 20.3355 29.5467 20.3594 29.422 20.3594H28.4375L30.852 17.2354ZM36.6334 19.5949C36.8827 19.5949 37.1045 19.56 37.2989 19.4904C37.4932 19.4207 37.6582 19.3235 37.7939 19.1989C37.9295 19.0705 38.0322 18.9184 38.1019 18.7424C38.1715 18.5664 38.2064 18.3739 38.2064 18.1649C38.2064 17.9082 38.1642 17.6882 38.0799 17.5049C37.9955 17.3179 37.8819 17.1657 37.7389 17.0484C37.5959 16.9274 37.429 16.8394 37.2384 16.7844C37.0477 16.7257 36.846 16.6964 36.6334 16.6964C36.417 16.6964 36.2135 16.7257 36.0229 16.7844C35.8322 16.8394 35.6654 16.9274 35.5224 17.0484C35.3794 17.1657 35.2657 17.3179 35.1814 17.5049C35.1007 17.6882 35.0604 17.9082 35.0604 18.1649C35.0604 18.3739 35.0952 18.5664 35.1649 18.7424C35.2345 18.9184 35.3372 19.0705 35.4729 19.1989C35.6085 19.3235 35.7735 19.4207 35.9679 19.4904C36.1622 19.56 36.384 19.5949 36.6334 19.5949ZM36.6334 13.1984C36.406 13.1984 36.2062 13.2332 36.0339 13.3029C35.8652 13.3689 35.724 13.4605 35.6104 13.5779C35.4967 13.6952 35.4105 13.8309 35.3519 13.9849C35.2969 14.1389 35.2694 14.3039 35.2694 14.4799C35.2694 14.6522 35.2932 14.8209 35.3409 14.9859C35.3922 15.1472 35.471 15.292 35.5774 15.4204C35.6874 15.545 35.8285 15.6459 36.0009 15.7229C36.1732 15.7999 36.384 15.8384 36.6334 15.8384C36.879 15.8384 37.088 15.7999 37.2604 15.7229C37.4364 15.6459 37.5775 15.545 37.6839 15.4204C37.7939 15.292 37.8727 15.1472 37.9204 14.9859C37.9717 14.8209 37.9974 14.6522 37.9974 14.4799C37.9974 14.3039 37.968 14.1389 37.9094 13.9849C37.8544 13.8309 37.77 13.6952 37.6564 13.5779C37.5427 13.4605 37.3997 13.3689 37.2274 13.3029C37.0587 13.2332 36.8607 13.1984 36.6334 13.1984ZM37.8159 16.2399C38.3072 16.3865 38.6794 16.623 38.9324 16.9494C39.189 17.2757 39.3174 17.6882 39.3174 18.1869C39.3174 18.5315 39.2514 18.8432 39.1194 19.1219C38.991 19.4005 38.8077 19.6389 38.5694 19.8369C38.3347 20.0312 38.0524 20.1815 37.7224 20.2879C37.3924 20.3942 37.0294 20.4474 36.6334 20.4474C36.2374 20.4474 35.8744 20.3942 35.5444 20.2879C35.2144 20.1815 34.9302 20.0312 34.6919 19.8369C34.4572 19.6389 34.2739 19.4005 34.1419 19.1219C34.0135 18.8432 33.9494 18.5315 33.9494 18.1869C33.9494 17.6882 34.0759 17.2757 34.3289 16.9494C34.5855 16.623 34.9595 16.3865 35.4509 16.2399C35.0439 16.0859 34.7377 15.8567 34.5324 15.5524C34.327 15.2444 34.2244 14.8795 34.2244 14.4579C34.2244 14.1645 34.2812 13.8914 34.3949 13.6384C34.5122 13.3817 34.6754 13.1599 34.8844 12.9729C35.097 12.7859 35.3519 12.6392 35.6489 12.5329C35.9459 12.4265 36.274 12.3734 36.6334 12.3734C36.9927 12.3734 37.3209 12.4265 37.6179 12.5329C37.9149 12.6392 38.1679 12.7859 38.3769 12.9729C38.5895 13.1599 38.7527 13.3817 38.8664 13.6384C38.9837 13.8914 39.0424 14.1645 39.0424 14.4579C39.0424 14.8795 38.9397 15.2444 38.7344 15.5524C38.529 15.8567 38.2229 16.0859 37.8159 16.2399ZM43.8502 14.5404L43.5917 14.9914L42.6622 14.4469C42.5962 14.4065 42.5357 14.3662 42.4807 14.3259C42.4257 14.2819 42.3781 14.2305 42.3377 14.1719C42.3927 14.3002 42.4202 14.4377 42.4202 14.5844V15.6514H41.8977V14.5899C41.8977 14.5165 41.9014 14.4487 41.9087 14.3864C41.9197 14.3204 41.9399 14.2562 41.9692 14.1939C41.9289 14.2452 41.8831 14.291 41.8317 14.3314C41.7804 14.3717 41.7236 14.4102 41.6612 14.4469L40.7372 14.9859L40.4787 14.5349L41.4027 13.9959C41.4687 13.9592 41.5329 13.9299 41.5952 13.9079C41.6576 13.8822 41.7236 13.8657 41.7932 13.8584C41.6539 13.84 41.5237 13.7924 41.4027 13.7154L40.4732 13.1709L40.7317 12.7199L41.6612 13.2644C41.7272 13.3047 41.7859 13.3469 41.8372 13.3909C41.8922 13.4349 41.9399 13.4862 41.9802 13.5449C41.9509 13.4825 41.9289 13.4165 41.9142 13.3469C41.9032 13.2772 41.8977 13.2057 41.8977 13.1324V12.0599H42.4202V13.1214C42.4202 13.1947 42.4147 13.2662 42.4037 13.3359C42.3964 13.4019 42.3799 13.466 42.3542 13.5284C42.3946 13.4734 42.4404 13.4257 42.4917 13.3854C42.5431 13.345 42.5999 13.3047 42.6622 13.2644L43.5862 12.7309L43.8447 13.1819L42.9207 13.7154C42.8584 13.752 42.7961 13.7832 42.7337 13.8089C42.6751 13.8345 42.6127 13.851 42.5467 13.8584C42.6714 13.873 42.7961 13.9189 42.9207 13.9959L43.8502 14.5404ZM48.5231 14.5404L48.2646 14.9914L47.3351 14.4469C47.2691 14.4065 47.2086 14.3662 47.1536 14.3259C47.0986 14.2819 47.0509 14.2305 47.0106 14.1719C47.0656 14.3002 47.0931 14.4377 47.0931 14.5844V15.6514H46.5706V14.5899C46.5706 14.5165 46.5742 14.4487 46.5816 14.3864C46.5926 14.3204 46.6127 14.2562 46.6421 14.1939C46.6017 14.2452 46.5559 14.291 46.5046 14.3314C46.4532 14.3717 46.3964 14.4102 46.3341 14.4469L45.4101 14.9859L45.1516 14.5349L46.0756 13.9959C46.1416 13.9592 46.2057 13.9299 46.2681 13.9079C46.3304 13.8822 46.3964 13.8657 46.4661 13.8584C46.3267 13.84 46.1966 13.7924 46.0756 13.7154L45.1461 13.1709L45.4046 12.7199L46.3341 13.2644C46.4001 13.3047 46.4587 13.3469 46.5101 13.3909C46.5651 13.4349 46.6127 13.4862 46.6531 13.5449C46.6237 13.4825 46.6017 13.4165 46.5871 13.3469C46.5761 13.2772 46.5706 13.2057 46.5706 13.1324V12.0599H47.0931V13.1214C47.0931 13.1947 47.0876 13.2662 47.0766 13.3359C47.0692 13.4019 47.0527 13.466 47.0271 13.5284C47.0674 13.4734 47.1132 13.4257 47.1646 13.3854C47.2159 13.345 47.2727 13.3047 47.3351 13.2644L48.2591 12.7309L48.5176 13.1819L47.5936 13.7154C47.5312 13.752 47.4689 13.7832 47.4066 13.8089C47.3479 13.8345 47.2856 13.851 47.2196 13.8584C47.3442 13.873 47.4689 13.9189 47.5936 13.9959L48.5231 14.5404ZM53.1959 14.5404L52.9374 14.9914L52.0079 14.4469C51.9419 14.4065 51.8814 14.3662 51.8264 14.3259C51.7714 14.2819 51.7238 14.2305 51.6834 14.1719C51.7384 14.3002 51.7659 14.4377 51.7659 14.5844V15.6514H51.2434V14.5899C51.2434 14.5165 51.2471 14.4487 51.2544 14.3864C51.2654 14.3204 51.2856 14.2562 51.3149 14.1939C51.2746 14.2452 51.2288 14.291 51.1774 14.3314C51.1261 14.3717 51.0693 14.4102 51.0069 14.4469L50.0829 14.9859L49.8244 14.5349L50.7484 13.9959C50.8144 13.9592 50.8786 13.9299 50.9409 13.9079C51.0033 13.8822 51.0693 13.8657 51.1389 13.8584C50.9996 13.84 50.8694 13.7924 50.7484 13.7154L49.8189 13.1709L50.0774 12.7199L51.0069 13.2644C51.0729 13.3047 51.1316 13.3469 51.1829 13.3909C51.2379 13.4349 51.2856 13.4862 51.3259 13.5449C51.2966 13.4825 51.2746 13.4165 51.2599 13.3469C51.2489 13.2772 51.2434 13.2057 51.2434 13.1324V12.0599H51.7659V13.1214C51.7659 13.1947 51.7604 13.2662 51.7494 13.3359C51.7421 13.4019 51.7256 13.466 51.6999 13.5284C51.7403 13.4734 51.7861 13.4257 51.8374 13.3854C51.8888 13.345 51.9456 13.3047 52.0079 13.2644L52.9319 12.7309L53.1904 13.1819L52.2664 13.7154C52.2041 13.752 52.1418 13.7832 52.0794 13.8089C52.0208 13.8345 51.9584 13.851 51.8924 13.8584C52.0171 13.873 52.1418 13.9189 52.2664 13.9959L53.1959 14.5404ZM57.8688 14.5404L57.6103 14.9914L56.6808 14.4469C56.6148 14.4065 56.5543 14.3662 56.4993 14.3259C56.4443 14.2819 56.3966 14.2305 56.3563 14.1719C56.4113 14.3002 56.4388 14.4377 56.4388 14.5844V15.6514H55.9163V14.5899C55.9163 14.5165 55.9199 14.4487 55.9273 14.3864C55.9383 14.3204 55.9584 14.2562 55.9878 14.1939C55.9474 14.2452 55.9016 14.291 55.8503 14.3314C55.7989 14.3717 55.7421 14.4102 55.6798 14.4469L54.7558 14.9859L54.4973 14.5349L55.4213 13.9959C55.4873 13.9592 55.5514 13.9299 55.6138 13.9079C55.6761 13.8822 55.7421 13.8657 55.8118 13.8584C55.6724 13.84 55.5423 13.7924 55.4213 13.7154L54.4918 13.1709L54.7503 12.7199L55.6798 13.2644C55.7458 13.3047 55.8044 13.3469 55.8558 13.3909C55.9108 13.4349 55.9584 13.4862 55.9988 13.5449C55.9694 13.4825 55.9474 13.4165 55.9328 13.3469C55.9218 13.2772 55.9163 13.2057 55.9163 13.1324V12.0599H56.4388V13.1214C56.4388 13.1947 56.4333 13.2662 56.4223 13.3359C56.4149 13.4019 56.3984 13.466 56.3728 13.5284C56.4131 13.4734 56.4589 13.4257 56.5103 13.3854C56.5616 13.345 56.6184 13.3047 56.6808 13.2644L57.6048 12.7309L57.8633 13.1819L56.9393 13.7154C56.8769 13.752 56.8146 13.7832 56.7523 13.8089C56.6936 13.8345 56.6313 13.851 56.5653 13.8584C56.6899 13.873 56.8146 13.9189 56.9393 13.9959L57.8688 14.5404ZM62.5416 14.5404L62.2831 14.9914L61.3536 14.4469C61.2876 14.4065 61.2271 14.3662 61.1721 14.3259C61.1171 14.2819 61.0695 14.2305 61.0291 14.1719C61.0841 14.3002 61.1116 14.4377 61.1116 14.5844V15.6514H60.5891V14.5899C60.5891 14.5165 60.5928 14.4487 60.6001 14.3864C60.6111 14.3204 60.6313 14.2562 60.6606 14.1939C60.6203 14.2452 60.5745 14.291 60.5231 14.3314C60.4718 14.3717 60.415 14.4102 60.3526 14.4469L59.4286 14.9859L59.1701 14.5349L60.0941 13.9959C60.1601 13.9592 60.2243 13.9299 60.2866 13.9079C60.349 13.8822 60.415 13.8657 60.4846 13.8584C60.3453 13.84 60.2151 13.7924 60.0941 13.7154L59.1646 13.1709L59.4231 12.7199L60.3526 13.2644C60.4186 13.3047 60.4773 13.3469 60.5286 13.3909C60.5836 13.4349 60.6313 13.4862 60.6716 13.5449C60.6423 13.4825 60.6203 13.4165 60.6056 13.3469C60.5946 13.2772 60.5891 13.2057 60.5891 13.1324V12.0599H61.1116V13.1214C61.1116 13.1947 61.1061 13.2662 61.0951 13.3359C61.0878 13.4019 61.0713 13.466 61.0456 13.5284C61.086 13.4734 61.1318 13.4257 61.1831 13.3854C61.2345 13.345 61.2913 13.3047 61.3536 13.2644L62.2776 12.7309L62.5361 13.1819L61.6121 13.7154C61.5498 13.752 61.4875 13.7832 61.4251 13.8089C61.3665 13.8345 61.3041 13.851 61.2381 13.8584C61.3628 13.873 61.4875 13.9189 61.6121 13.9959L62.5416 14.5404ZM67.2145 14.5404L66.956 14.9914L66.0265 14.4469C65.9605 14.4065 65.9 14.3662 65.845 14.3259C65.79 14.2819 65.7423 14.2305 65.702 14.1719C65.757 14.3002 65.7845 14.4377 65.7845 14.5844V15.6514H65.262V14.5899C65.262 14.5165 65.2656 14.4487 65.273 14.3864C65.284 14.3204 65.3041 14.2562 65.3335 14.1939C65.2931 14.2452 65.2473 14.291 65.196 14.3314C65.1446 14.3717 65.0878 14.4102 65.0255 14.4469L64.1015 14.9859L63.843 14.5349L64.767 13.9959C64.833 13.9592 64.8971 13.9299 64.9595 13.9079C65.0218 13.8822 65.0878 13.8657 65.1575 13.8584C65.0181 13.84 64.888 13.7924 64.767 13.7154L63.8375 13.1709L64.096 12.7199L65.0255 13.2644C65.0915 13.3047 65.1501 13.3469 65.2015 13.3909C65.2565 13.4349 65.3041 13.4862 65.3445 13.5449C65.3151 13.4825 65.2931 13.4165 65.2785 13.3469C65.2675 13.2772 65.262 13.2057 65.262 13.1324V12.0599H65.7845V13.1214C65.7845 13.1947 65.779 13.2662 65.768 13.3359C65.7606 13.4019 65.7441 13.466 65.7185 13.5284C65.7588 13.4734 65.8046 13.4257 65.856 13.3854C65.9073 13.345 65.9641 13.3047 66.0265 13.2644L66.9505 12.7309L67.209 13.1819L66.285 13.7154C66.2226 13.752 66.1603 13.7832 66.098 13.8089C66.0393 13.8345 65.977 13.851 65.911 13.8584C66.0356 13.873 66.1603 13.9189 66.285 13.9959L67.2145 14.5404ZM71.8873 14.5404L71.6288 14.9914L70.6993 14.4469C70.6333 14.4065 70.5728 14.3662 70.5178 14.3259C70.4628 14.2819 70.4152 14.2305 70.3748 14.1719C70.4298 14.3002 70.4573 14.4377 70.4573 14.5844V15.6514H69.9348V14.5899C69.9348 14.5165 69.9385 14.4487 69.9458 14.3864C69.9568 14.3204 69.977 14.2562 70.0063 14.1939C69.966 14.2452 69.9202 14.291 69.8688 14.3314C69.8175 14.3717 69.7607 14.4102 69.6983 14.4469L68.7743 14.9859L68.5158 14.5349L69.4398 13.9959C69.5058 13.9592 69.57 13.9299 69.6323 13.9079C69.6947 13.8822 69.7607 13.8657 69.8303 13.8584C69.691 13.84 69.5608 13.7924 69.4398 13.7154L68.5103 13.1709L68.7688 12.7199L69.6983 13.2644C69.7643 13.3047 69.823 13.3469 69.8743 13.3909C69.9293 13.4349 69.977 13.4862 70.0173 13.5449C69.988 13.4825 69.966 13.4165 69.9513 13.3469C69.9403 13.2772 69.9348 13.2057 69.9348 13.1324V12.0599H70.4573V13.1214C70.4573 13.1947 70.4518 13.2662 70.4408 13.3359C70.4335 13.4019 70.417 13.466 70.3913 13.5284C70.4317 13.4734 70.4775 13.4257 70.5288 13.3854C70.5802 13.345 70.637 13.3047 70.6993 13.2644L71.6233 12.7309L71.8818 13.1819L70.9578 13.7154C70.8955 13.752 70.8332 13.7832 70.7708 13.8089C70.7122 13.8345 70.6498 13.851 70.5838 13.8584C70.7085 13.873 70.8332 13.9189 70.9578 13.9959L71.8873 14.5404Z" fill="white"/>
<defs>
<linearGradient id="paint0_linear_1265_359043" x1="45.7199" y1="2.88281" x2="45.7199" y2="36.0028" gradientUnits="userSpaceOnUse">
<stop stop-color="#6304C6"/>
<stop offset="1" stop-color="#060CA9"/>
</linearGradient>
<linearGradient id="paint1_linear_1265_359043" x1="44.28" y1="0" x2="44.28" y2="33.12" gradientUnits="userSpaceOnUse">
<stop stop-color="#881EF6"/>
<stop offset="1" stop-color="#038BED"/>
</linearGradient>
<linearGradient id="paint2_linear_1265_359043" x1="13.32" y1="-15.84" x2="44.28" y2="33.12" gradientUnits="userSpaceOnUse">
<stop stop-color="white"/>
<stop offset="1" stop-color="white" stop-opacity="0"/>
</linearGradient>
</defs>
</svg>
