<svg width="49" height="59" viewBox="0 0 49 59" fill="none" xmlns="http://www.w3.org/2000/svg">
<path d="M45.5 18.0332C46.0311 14.5333 44 -0.310725 21.934 1.09336C14.5 1.5664 8.64008 5.64534 6.73355 12.5798C5.5 17.0665 6.27293 21.8711 6.73355 22.0753L1.05261 30.9582C0.899069 31.5709 0.991192 32.8573 2.588 33.1024C4.58401 33.4087 5.04465 33.4087 5.35173 34.0213C5.5974 34.5114 4.73757 35.6549 4.27696 36.1655L5.81235 38.3096C5.30055 38.5649 4.33837 39.2285 4.58404 39.8411C4.89111 40.6069 6.11943 41.2195 6.27297 41.679C6.42651 42.1384 5.81235 44.8952 5.81235 46.1204C5.81235 47.3457 6.73359 48.5709 9.34376 49.0303C11.9539 49.4898 16.4066 49.643 17.4813 51.7871C18.3412 53.5024 18.6585 56.688 18.7097 58.0664L39 57.6069C39.6653 57.0964 40.9346 55.6466 40.6889 53.9313C40.3819 51.7871 38 41.679 41.5 36.1655" stroke="#2C51A2"/>
<circle cx="38.5" cy="26.5664" r="10.5" fill="#C377FC"/>
<path d="M37.9994 19.8164C37.5448 19.8164 37.1087 19.997 36.7873 20.3185C36.4658 20.64 36.2852 21.076 36.2852 21.5307V26.1021C36.2852 26.5568 36.4658 26.9928 36.7873 27.3143C37.1087 27.6358 37.5448 27.8164 37.9994 27.8164C38.4541 27.8164 38.8901 27.6358 39.2116 27.3143C39.5331 26.9928 39.7137 26.5568 39.7137 26.1021V21.5307C39.7137 21.076 39.5331 20.64 39.2116 20.3185C38.8901 19.997 38.4541 19.8164 37.9994 19.8164Z" stroke="#E6F1FA" stroke-linecap="round" stroke-linejoin="round"/>
<path d="M42 24.9609V26.1038C42 27.1647 41.5786 28.1821 40.8284 28.9322C40.0783 29.6824 39.0609 30.1038 38 30.1038C36.9391 30.1038 35.9217 29.6824 35.1716 28.9322C34.4214 28.1821 34 27.1647 34 26.1038V24.9609" stroke="#E6F1FA" stroke-linecap="round" stroke-linejoin="round"/>
<path d="M38 30.1016V32.3873" stroke="#E6F1FA" stroke-linecap="round" stroke-linejoin="round"/>
<path d="M35.7148 32.3867H40.2863" stroke="#E6F1FA" stroke-linecap="round" stroke-linejoin="round"/>
<path d="M33 15.0312C29 16.0313 25 21.0624 25 26.7868C25 32.5112 28 36.0313 30.5385 38.0313" stroke="#C377FC"/>
<path d="M31 11.0312C26 12.2921 21 18.6357 21 25.8535C21 33.0713 24.75 37.5095 27.9231 40.0313" stroke="#C377FC"/>
</svg>
