<svg width="34" height="34" viewBox="0 0 34 34" fill="none" xmlns="http://www.w3.org/2000/svg">
<circle cx="17.1008" cy="16.8" r="16.3" stroke="#033C81"/>
<path d="M20.6016 9.79688H13.6016C11.6686 9.79688 10.1016 11.3639 10.1016 13.2969V20.2969C10.1016 22.2299 11.6686 23.7969 13.6016 23.7969H20.6016C22.5346 23.7969 24.1016 22.2299 24.1016 20.2969V13.2969C24.1016 11.3639 22.5346 9.79688 20.6016 9.79688Z" stroke="#033C81" stroke-linecap="round" stroke-linejoin="round"/>
<path d="M19.9017 16.358C19.9881 16.9406 19.8886 17.5356 19.6174 18.0583C19.3461 18.5811 18.917 19.005 18.3909 19.2698C17.8648 19.5346 17.2687 19.6268 16.6872 19.5332C16.1057 19.4396 15.5686 19.1651 15.1521 18.7487C14.7357 18.3322 14.4612 17.7951 14.3676 17.2136C14.274 16.6321 14.3662 16.036 14.631 15.5099C14.8958 14.9838 15.3197 14.5547 15.8424 14.2834C16.3652 14.0122 16.9602 13.9127 17.5427 13.999C18.137 14.0872 18.6871 14.3641 19.1119 14.7889C19.5367 15.2136 19.8136 15.7638 19.9017 16.358Z" stroke="#033C81" stroke-linecap="round" stroke-linejoin="round"/>
<path d="M20.9512 12.9453H20.9586" stroke="#033C81" stroke-linecap="round" stroke-linejoin="round"/>
</svg>
