<svg width="148" height="134" viewBox="0 0 148 134" fill="none" xmlns="http://www.w3.org/2000/svg">
<path opacity="0.3" d="M135.065 42.2228L135.062 42.2188C127.625 32.6155 121.357 24.1967 116.213 17.1183L116.207 17.1109L116.202 17.1033C110.999 9.83706 102.799 4.9321 93.4998 3.63645C84.1646 2.33581 75.1533 4.72522 68.713 10.347L68.7046 10.3543L68.6961 10.3616L11.4801 59.465L11.4756 59.4689C4.42782 65.49 1.4921 74.3553 3.17786 83.2565C5.0384 92.2133 11.546 100.198 20.844 104.474C20.8452 104.474 20.8465 104.475 20.8478 104.475L71.5623 127.674L71.5625 127.674C83.8687 133.304 98.0382 131.259 106.825 122.93L106.832 122.924L106.838 122.918C113.793 116.415 122.623 107.412 133.221 96.3352L133.239 96.316L133.258 96.2971C138.015 91.5208 141.257 85.841 142.991 79.8881C146.587 67.54 144.061 53.7932 135.065 42.2228ZM133.163 42.4068L133.167 42.4109C145.986 59.03 145.398 80.9 131.387 95.4991L131.381 95.5056C120.825 106.43 111.96 115.363 104.895 121.968C96.4192 130.038 83.2409 131.643 72.036 126.555L72.0292 126.552L21.3101 103.352L21.3055 103.349C12.6172 99.355 6.55532 92.0614 4.82768 83.4448C2.95336 74.539 6.08318 66.1216 12.8414 60.2224L12.8506 60.2143L12.86 60.2063L70.2888 11.004C70.2898 11.0031 70.2908 11.0023 70.2918 11.0014C76.4903 5.65701 84.8613 3.49075 93.3427 4.67881C101.843 5.8695 109.597 10.4967 114.31 17.2681C119.355 24.4272 125.748 32.8318 133.163 42.4068Z" fill="white" stroke="white" stroke-width="5.325"/>
</svg>
