<svg width="268" height="221" viewBox="0 0 268 221" fill="none" xmlns="http://www.w3.org/2000/svg">
<g filter="url(#filter0_f_763_235)">
<circle cx="134" cy="134" r="50" fill="white"/>
</g>
<path opacity="0.3" d="M181.066 101.223L181.063 101.219C173.626 91.6155 167.358 83.1967 162.214 76.1183L162.208 76.1109L162.203 76.1033C157 68.8371 148.8 63.9321 139.501 62.6365C130.166 61.3358 121.154 63.7252 114.714 69.347L114.706 69.3543L114.697 69.3616L57.4811 118.465L57.4766 118.469C50.4288 124.49 47.4931 133.355 49.1788 142.257C51.0394 151.213 57.547 159.198 66.8449 163.474C66.8462 163.474 66.8475 163.475 66.8488 163.475L117.563 186.674L117.563 186.674C129.87 192.304 144.039 190.259 152.826 181.93L152.833 181.924L152.839 181.918C159.794 175.415 168.624 166.412 179.222 155.335L179.24 155.316L179.259 155.297C184.016 150.521 187.258 144.841 188.992 138.888C192.588 126.54 190.062 112.793 181.066 101.223ZM179.164 101.407L179.167 101.411C191.987 118.03 191.399 139.9 177.388 154.499L177.382 154.506C166.826 165.43 157.961 174.363 150.896 180.968C142.42 189.038 129.242 190.643 118.037 185.555L118.03 185.552L67.3111 162.352L67.3065 162.349C58.6182 158.355 52.5563 151.061 50.8287 142.445C48.9543 133.539 52.0842 125.122 58.8423 119.222L58.8516 119.214L58.8609 119.206L116.29 70.004C116.291 70.0031 116.292 70.0023 116.293 70.0014C122.491 64.657 130.862 62.4908 139.344 63.6788C147.844 64.8695 155.598 69.4967 160.311 76.2681C165.356 83.4272 171.749 91.8318 179.164 101.407Z" fill="white" stroke="white" stroke-width="5.325"/>
<defs>
<filter id="filter0_f_763_235" x="0" y="0" width="268" height="268" filterUnits="userSpaceOnUse" color-interpolation-filters="sRGB">
<feFlood flood-opacity="0" result="BackgroundImageFix"/>
<feBlend mode="normal" in="SourceGraphic" in2="BackgroundImageFix" result="shape"/>
<feGaussianBlur stdDeviation="42" result="effect1_foregroundBlur_763_235"/>
</filter>
</defs>
</svg>
