<svg width="40" height="42" viewBox="0 0 40 42" fill="none" xmlns="http://www.w3.org/2000/svg">
<g filter="url(#filter0_f_82_65)">
<path d="M17.6531 36.2122C20.4899 36.9023 23.565 36.1765 26.0652 34.0362C28.0276 32.3626 29.75 30.9493 31.1989 29.7881C32.818 28.509 33.8551 26.5705 34.0579 24.429C34.2606 22.2875 33.6318 20.2226 32.2526 18.7718L21.3133 7.06895C19.8281 5.47286 17.7104 4.87809 15.6462 5.37178C13.5728 5.90307 11.8047 7.50443 10.9221 9.67968L6.47242 20.7064C5.31588 23.5718 5.90393 26.8218 7.93501 28.7896C9.39009 30.219 11.391 32.0202 13.8376 34.1688C14.9654 35.2 16.2848 35.8794 17.6531 36.2122Z" fill="white" fill-opacity="0.68"/>
<path d="M24.3337 32.0136L24.3375 32.0104C26.3222 30.3178 28.0656 28.8872 29.5339 27.7105L29.5411 27.7047L29.5484 27.6989C30.5735 26.8891 31.2701 25.6266 31.4072 24.178C31.5478 22.6933 31.0998 21.4236 30.3229 20.6063L30.3152 20.5982L30.3075 20.59L19.3682 8.88709L19.3642 8.88271C18.557 8.01535 17.438 7.68804 16.2865 7.9563C15.1161 8.26392 13.9829 9.21942 13.3902 10.6784C13.3898 10.6792 13.3895 10.6799 13.3892 10.6807L8.94147 21.7027L8.9414 21.7029C8.1416 23.6845 8.62422 25.7502 9.78768 26.8774L9.79429 26.8838L9.80086 26.8903C11.1981 28.2628 13.1497 30.0213 15.5945 32.1683L15.6146 32.1859L15.6343 32.2039C16.4259 32.9276 17.3419 33.3964 18.2824 33.6252C20.2385 34.101 22.4449 33.6306 24.3337 32.0136Z" stroke="white" stroke-width="5.325"/>
</g>
<defs>
<filter id="filter0_f_82_65" x="0.885895" y="0.202881" width="38.2092" height="41.2617" filterUnits="userSpaceOnUse" color-interpolation-filters="sRGB">
<feFlood flood-opacity="0" result="BackgroundImageFix"/>
<feBlend mode="normal" in="SourceGraphic" in2="BackgroundImageFix" result="shape"/>
<feGaussianBlur stdDeviation="2.5" result="effect1_foregroundBlur_82_65"/>
</filter>
</defs>
</svg>
