<svg width="116" height="122" viewBox="0 0 116 122" fill="none" xmlns="http://www.w3.org/2000/svg">
<g filter="url(#filter0_f_82_93)">
<path d="M58.9151 100.264C66.4897 100.468 73.897 96.95 79.0741 90.1558C83.1413 84.839 86.7412 80.3136 89.7847 76.577C93.1956 72.4484 94.7703 66.964 94.1172 61.4195C93.464 55.875 90.7424 50.9782 86.4516 48.0488L52.3122 24.3175C47.6732 21.0773 41.9754 20.7227 37.0065 23.101C32.035 25.5796 28.4215 30.6072 27.368 36.6081L22.0894 67.0145C20.7171 74.9161 23.9814 82.8423 30.2082 86.7282C34.6798 89.562 40.7393 93.0414 48.1192 97.1595C51.5431 99.1611 55.2615 100.166 58.9151 100.264Z" fill="#F1E3F9"/>
<path d="M76.9564 88.5421L76.9594 88.5381C81.0443 83.1981 84.6611 78.6514 87.7204 74.8955L87.7262 74.8884L87.7321 74.8813C90.6609 71.3362 92.0446 66.5842 91.4729 61.731C90.897 56.8416 88.5192 52.6842 84.9504 50.2477L84.9411 50.2414L84.932 50.235L50.7925 26.5037L50.7876 26.5002C46.9647 23.8301 42.2999 23.5271 38.1754 25.4933C34.0412 27.5628 30.9122 31.8245 29.991 37.0648C29.9908 37.0661 29.9906 37.0673 29.9904 37.0685L24.7127 67.4699L24.7127 67.4701C23.5035 74.4326 26.4158 81.2231 31.6178 84.4695L31.6256 84.4743L31.6334 84.4793C36.0365 87.2696 42.0388 90.7176 49.4165 94.8344L49.4398 94.8474L49.4629 94.8609C52.4936 96.6326 55.7734 97.516 58.9868 97.6027C65.6554 97.7824 72.267 94.6962 76.9564 88.5421Z" stroke="white" stroke-width="5.325"/>
</g>
<defs>
<filter id="filter0_f_82_93" x="0.779175" y="0.561035" width="114.483" height="120.712" filterUnits="userSpaceOnUse" color-interpolation-filters="sRGB">
<feFlood flood-opacity="0" result="BackgroundImageFix"/>
<feBlend mode="normal" in="SourceGraphic" in2="BackgroundImageFix" result="shape"/>
<feGaussianBlur stdDeviation="10.5" result="effect1_foregroundBlur_82_93"/>
</filter>
</defs>
</svg>
