<svg width="216" height="232" viewBox="0 0 216 232" fill="none" xmlns="http://www.w3.org/2000/svg">
<g filter="url(#filter0_f_82_92)">
<path d="M112.28 220.562C132.513 220.674 152.088 210.859 165.521 192.425C176.076 177.998 185.428 165.711 193.34 155.562C202.21 144.346 206.101 129.614 204.041 114.849C201.98 100.084 194.435 87.1668 182.813 79.5914L90.3168 18.1853C77.7471 9.79982 62.5156 9.1785 49.3861 15.8114C36.2551 22.7125 26.8953 36.3407 24.4253 52.4215L12.0692 133.898C8.85662 155.071 18.0236 176.045 34.8691 186.064C46.9687 193.374 63.3441 202.317 83.2811 212.889C92.5363 218.038 102.52 220.507 112.28 220.562Z" fill="white" fill-opacity="0.57"/>
<path d="M163.369 190.857L163.372 190.853C173.944 176.403 183.313 164.094 191.24 153.925L191.246 153.918L191.251 153.911C199.652 143.288 203.368 129.293 201.404 115.217C199.435 101.106 192.249 88.92 181.359 81.8219L181.35 81.8157L181.34 81.8095L88.8442 20.4035L88.8392 20.4002C77.0978 12.5672 62.9003 11.9753 50.606 18.1781C38.3027 24.6525 29.4101 37.5062 27.057 52.8257L14.7016 134.297L14.7015 134.297C11.632 154.528 20.4229 174.374 36.2301 183.776L36.238 183.78L36.2459 183.785C48.2761 191.053 64.5937 199.966 84.5285 210.537L84.5521 210.55L84.5754 210.563C93.4325 215.489 102.976 217.847 112.295 217.899C131.622 218.007 150.41 208.64 163.369 190.857Z" stroke="white" stroke-width="5.325"/>
</g>
<defs>
<filter id="filter0_f_82_92" x="0.433228" y="0.310303" width="215.148" height="231.252" filterUnits="userSpaceOnUse" color-interpolation-filters="sRGB">
<feFlood flood-opacity="0" result="BackgroundImageFix"/>
<feBlend mode="normal" in="SourceGraphic" in2="BackgroundImageFix" result="shape"/>
<feGaussianBlur stdDeviation="5.5" result="effect1_foregroundBlur_82_92"/>
</filter>
</defs>
</svg>
