<svg width="59" height="54" viewBox="0 0 59 54" fill="none" xmlns="http://www.w3.org/2000/svg">
<path d="M44.5663 51.5081C49.9444 49.0922 53.9477 44.1236 55.281 37.6124C56.3355 32.5118 57.3299 28.1237 58.2008 24.4764C59.1967 20.4303 58.4475 16.0542 56.1166 12.3886C53.7856 8.72306 50.2236 6.21029 46.2265 5.60665L14.2804 0.50675C9.93411 -0.197098 5.82067 1.47932 3.1414 4.82498C0.494168 8.24193 -0.340034 12.9866 0.94889 17.5486L7.52161 40.6442C9.22924 46.6462 14.195 51.0989 19.8723 51.7189C23.9639 52.1944 29.3865 52.5861 35.9504 52.9793C39.0265 53.2255 41.9722 52.6734 44.5663 51.5081Z" fill="#F0E8FD"/>
</svg>
