<svg width="317" height="98" viewBox="0 0 317 98" fill="none" xmlns="http://www.w3.org/2000/svg">
<path fill-rule="evenodd" clip-rule="evenodd" d="M315.318 53.1541C312.677 53.128 310.041 53.1493 307.403 53.1541L298.445 53.1212C296.439 53.0624 294.432 53.0053 292.426 52.9498C292.386 52.9498 292.345 53.0108 292.304 53.0466L291.762 53.036C291.701 52.9546 291.64 52.8026 291.575 52.8007C288.595 52.7213 285.609 52.6632 282.634 52.5858C280.954 52.5422 279.274 52.489 277.596 52.3979C277.172 52.3747 276.556 51.9574 276.37 52.1162C275.159 53.1454 274.218 52.4067 273.298 51.8103L272.124 52.6884L269.875 51.5769L268.812 52.9324C267.627 50.9708 266.419 52.0852 265.183 52.7804C264.943 52.3476 264.748 52 264.521 51.5934L261.959 52.3912L261.079 51.5334C260.604 52.6032 259.49 50.9621 258.97 51.9961C258.962 52.0107 258.368 51.6186 258.059 51.634C257.719 51.6515 257.393 51.9245 257.002 52.1114C256.89 51.697 256.787 51.3136 256.699 50.9892C255.872 50.8082 255.298 50.8924 255.209 51.7793C254.524 51.2458 254.501 52.4289 253.831 52.2033C253.733 51.9652 253.613 51.6447 253.484 51.3242C253.426 51.3395 253.368 51.3589 253.312 51.3823V53.4242C253.219 53.4329 253.126 53.4313 253.033 53.4194C252.984 52.4444 252.929 51.4704 252.878 50.4955C251.936 51.3872 251.105 51.9226 249.908 51.27C249.763 50.8547 249.593 50.3696 249.446 49.9475L247.695 51.756C247.194 51.18 246.678 50.5942 246.187 50.0327C245.637 50.6271 245.262 51.0531 244.617 51.7212V53.4087C244.544 53.4156 244.47 53.4156 244.398 53.4087C244.279 52.2556 244.164 51.1035 244.006 49.6096C243.649 50.4132 243.461 50.8421 243.224 51.3707L242.539 49.4159L242.219 49.4866C242.149 49.961 242.079 50.4345 241.971 51.1635C241.811 50.6388 241.739 50.4083 241.662 50.1547L240.924 50.754C240.858 49.6057 240.806 48.7014 240.754 47.7981H240.544L239.957 51.3494C239.601 50.3367 239.366 49.6841 239.136 49.0325C239.06 49.0403 239.006 49.048 238.904 49.0558V51.4927L238.714 51.5033C238.597 50.844 238.483 50.1856 238.366 49.5273L238.119 49.5805C237.958 50.4364 237.797 51.2926 237.635 52.1491C237.502 50.2815 237.922 48.3674 237.129 46.4136C236.987 47.9917 236.857 49.4353 236.727 50.8779L236.404 50.8605C236.23 50.2602 236.051 49.6609 235.877 49.0606L235.575 49.0945V51.5692L235.167 51.5624C235.114 50.5942 235.064 49.6338 235.008 48.6046L234.519 49.0345C234.341 47.5299 234.171 46.096 233.964 44.3417C233.795 46.129 233.658 47.5832 233.521 49.0374L233.14 51.2255L232.888 51.1964C232.845 50.4848 232.804 49.7732 232.75 48.8805C232.417 49.8807 232.175 50.6533 231.903 51.4269V48.5998C230.85 48.9483 230.914 48.2706 230.906 47.6974C230.889 46.3855 230.9 45.0727 230.9 43.7598C230.417 45.9402 230.178 48.1166 229.954 50.2931C229.903 50.782 229.903 51.2749 229.88 51.7667L229.759 51.7541L229.36 48.9928L229.038 49.0345L228.932 50.8643H228.724L228.592 47.8911L228.154 47.9065C228.077 48.7689 228.002 49.6318 227.927 50.4955L227.488 50.4761V42.8003L227.14 42.8071C226.913 46.0196 226.687 49.2313 226.464 52.4425L226.129 52.4251V49.9426C224.805 49.6899 224.221 49.0664 224.2 47.8881C224.176 46.4901 224.191 45.0911 224.191 43.693C223.415 45.7475 223.757 48.0692 222.226 49.8545C222.087 49.2533 221.948 48.652 221.807 48.044C221.612 48.378 221.406 48.715 221.207 49.0529C221.118 49.0383 221.034 49.0248 220.932 49.0103V43.2893C220.491 45.0949 220.052 46.7457 219.536 48.7566C219.412 48.0334 219.355 47.6868 219.26 47.1281C218.771 47.983 218.374 48.6675 217.838 49.597C217.684 47.5638 217.909 45.8133 217.678 44.1064L217.236 44.12C217.184 45.0772 217.131 46.0354 217.077 46.9945L216.783 46.9722V44.0019L216.635 43.9961C216.526 44.5954 216.418 45.1947 216.271 46.0089L215.74 45.3031C215.395 46.6247 215.055 47.9588 214.664 49.4479C212.843 46.464 214.091 43.2293 213.429 40.2782C213.278 40.2869 213.116 40.2947 212.98 40.3034V46.3497C212.882 46.3449 212.821 46.34 212.745 46.3362C212.676 45.5674 212.606 44.7987 212.538 44.0299L212.04 44.0551C211.82 46.8635 211.601 49.6712 211.381 52.4783C211.277 51.8199 211.088 51.1625 211.081 50.5022C211.046 47.9114 211.072 45.3205 211.072 42.7297H210.738V51.4811H210.456C210.299 47.9427 210.141 44.4046 209.981 40.8669H209.803C209.707 42.9543 209.611 45.0417 209.514 47.1291C209.433 47.2337 209.351 47.3373 209.269 47.4418C209.242 47.4012 209.19 47.3605 209.19 47.3198C209.19 46.1938 209.19 45.0688 209.19 43.9438L208.779 43.9331C208.686 45.0097 208.604 46.0883 208.497 47.1639C208.311 49.0287 208.106 50.8934 207.91 52.7571C207.882 49.4008 207.854 46.0444 207.826 42.688L207.287 42.6706C207.132 45.0514 207.287 47.4573 207.184 49.8429L206.832 49.8294V37.4085C206.458 40.345 206.363 43.2815 206.245 46.219C206.22 46.829 206.049 47.4331 205.952 48.0402V45.8637L205.528 45.8433C205.344 46.8851 205.16 47.9275 204.975 48.9706C204.872 48.4691 204.726 47.9724 204.673 47.466C204.506 45.8801 204.366 44.2904 204.22 42.7035C204.167 42.7035 204.123 42.7093 204.049 42.7113V53.4494H203.658C203.671 48.9822 203.701 44.515 203.684 40.0478C203.684 39.4669 203.462 38.8928 203.342 38.3148C203.066 40.8862 203.088 43.4074 203.049 45.9276C203.04 46.5337 202.853 47.1378 202.743 47.7429L202.403 45.2208L202.169 45.2557C202.046 46.3904 201.923 47.5248 201.801 48.6588C201.697 48.0537 201.531 47.4515 201.507 46.8425C201.458 45.7698 201.494 44.6941 201.494 43.6194L201.068 43.6088C200.592 46.5356 201.024 49.5253 200.656 52.4648L200.189 38.643C199.896 41.4371 199.909 44.2245 199.878 47.0119C199.87 47.6819 199.696 48.3509 199.598 49.0209C199.484 48.4845 199.292 47.9559 199.269 47.4128C199.218 46.2432 199.253 45.0698 199.253 43.8973H198.916C198.916 44.6631 198.94 45.4299 198.888 46.1919C198.88 46.3013 198.497 46.3855 198.293 46.4823C198.186 45.8753 197.999 45.2711 197.989 44.6622C197.947 42.9494 197.975 41.2358 197.975 39.5221H197.741C197.571 42.8739 197.401 46.2255 197.231 49.5767L197.005 49.5689V48.0121C197.005 43.9515 197.01 39.8919 196.993 35.8323C196.993 35.3357 196.855 34.8399 196.783 34.3442L196.364 34.4014V35.9505C196.364 39.1135 196.382 42.2775 196.352 45.4386C196.352 45.9905 196.157 46.5414 196.05 47.0923C195.968 44.7532 195.886 42.414 195.805 40.0749H195.49C195.359 42.8362 195.226 45.5977 195.09 48.3597C194.981 47.7555 194.785 47.1533 194.781 46.5492C194.752 42.6445 194.768 38.7388 194.768 34.8341V32.8774C194.36 35.7617 194.202 38.642 194.142 41.5243C194.082 44.4066 194.128 47.2966 194.128 50.1837L193.909 50.1789C193.747 44.8268 193.584 39.475 193.42 34.1235H193.136V47.649H192.927C192.76 44.9381 192.592 42.2246 192.424 39.5085H192.341C192.194 41.501 192.047 43.4939 191.9 45.4871C191.279 42.5535 192.027 39.5502 191.076 36.6679C190.98 36.8604 190.931 37.0721 190.932 37.2865C190.821 40.5987 190.719 43.9118 190.588 47.223C190.572 47.6209 190.385 48.0111 190.284 48.4052V36.7047H189.968C189.968 38.3332 190.032 39.9645 189.959 41.5901C189.886 43.2157 190.317 44.9245 189.332 46.4959V38.2034H189.148C188.992 40.0107 188.836 41.8163 188.683 43.6204C188.122 41.5214 188.788 39.3255 187.667 37.2914V48.2319L187.124 48.2386C187.034 44.0851 187.134 39.9229 186.896 35.7713C186.636 38.3932 186.553 41.014 186.438 43.634C186.411 44.2439 186.242 44.849 186.145 45.4561V40.4728L185.737 40.4806V47.0255C184.31 44.4114 185.099 41.5717 184.584 38.8608C183.985 43.1896 184.374 47.5483 184.009 51.8848C183.878 48.0644 183.744 44.2442 183.605 40.4244H183.223V45.5558C182.951 45.0349 182.93 44.5208 182.93 44.0067C182.93 41.0053 182.951 37.9943 182.916 34.9881C182.907 34.2648 182.721 33.5426 182.609 32.8203L182.401 32.8532C182.27 36.6653 182.14 40.4767 182.01 44.2875H181.774C181.622 41.5275 181.471 38.7672 181.32 36.0066H181.012V37.4986C181.012 42.0345 181.026 46.5695 181.001 51.1054C181.001 51.8848 180.827 52.6642 180.733 53.4436C180.697 53.5408 180.697 53.6474 180.733 53.7447C180.684 53.9006 180.635 54.0564 180.5 54.495C180.411 53.9306 180.37 53.6827 180.337 53.43V39.2365H179.997V46.128C179.521 42.963 180.132 39.7477 179.198 36.6243C179.089 39.7225 179.107 42.8207 179.076 45.9111C179.071 46.5133 178.881 47.1146 178.783 47.7158C178.783 46.2906 178.849 44.8606 178.763 43.4403C178.58 40.408 178.318 37.3805 178.089 34.35C177.905 34.5524 177.809 34.8172 177.819 35.0888C177.723 41.3058 177.63 47.5225 177.539 53.7389L177.422 55.0943H177.248C177.211 54.5434 177.179 53.9916 177.145 53.4397V42.721H176.805V44.8664L176.452 44.8606C176.342 40.2134 176.23 35.5661 176.117 30.9188H175.888V46.1996H175.582V34.7334L175.277 34.7286V37.9236C174.971 37.4744 174.865 37.2856 174.743 37.0968L174.394 37.09V42.9349L174.113 42.9098C173.959 41.9551 173.795 40.9995 173.643 40.0439C173.535 40.0526 173.447 40.0614 173.307 40.0701V47.1378H172.967V33.8476L172.627 33.8543V36.3155C172.56 36.3155 172.53 36.3087 172.48 36.3048C172.306 34.5079 172.132 32.7106 171.958 30.913H171.737V32.4747C171.737 36.7492 171.749 41.0228 171.722 45.2973C171.722 45.8995 171.526 46.4998 171.415 47.101L171.403 42.3714L170.958 42.3589C170.77 43.8537 170.583 45.3489 170.397 46.8444C170.312 46.8386 170.216 46.8338 170.148 46.828V42.2901L169.952 42.2553C169.863 42.5157 169.773 42.7761 169.684 43.0376H169.447C169.22 38.6911 168.992 34.3452 168.762 30C168.672 34.8119 168.676 39.6102 167.318 44.2129C167.281 43.9447 167.22 43.5701 167.128 42.8923C166.932 44.394 166.781 45.5664 166.612 46.7379V32.9084H166.068V45.5422H165.626V37.852C165.219 41.047 165.707 44.3165 164.477 47.3092C164.325 42.9524 164.177 38.4881 164.022 34.0451H163.69V44.5595H163.351V40.7749L163.206 40.7817C163.037 42.5812 162.869 44.3804 162.7 46.1793C162.45 45.6526 162.487 45.1337 162.44 44.6225C162.393 44.1113 162.266 43.6233 162.173 43.1237L161.813 43.1528C161.652 43.662 161.489 44.1713 161.324 44.6806L161.014 44.6738C160.93 43.3441 160.846 42.0145 160.763 40.6849C160.522 42.6212 160.546 44.5499 160.51 46.4794C160.498 47.0884 160.328 47.6945 160.231 48.3016C160.116 42.8843 159.999 37.4673 159.88 32.0506C159.862 31.786 159.83 31.5225 159.782 31.2615L159.54 31.279V45.518H159.36C159.244 41.6001 159.13 37.6812 159.016 33.7614L158.657 33.7672V53.4465C158.622 53.5425 158.622 53.6477 158.657 53.7437C158.608 53.9064 158.56 54.07 158.42 54.5299C158.33 53.949 158.289 53.6895 158.249 53.4349C158.262 52.1172 158.283 50.7995 158.286 49.4808C158.286 47.5299 158.223 45.5771 158.297 43.6281C158.374 41.6395 156.769 40.0943 156.894 38.1095C156.899 38.0185 156.691 37.9159 156.351 37.6254V46.8231H156.09C155.929 42.9969 155.769 39.1713 155.609 35.3463H155.522C155.352 38.6239 155.184 41.9009 155.018 45.1772L154.725 45.1676V31.2257H154.529C154.36 34.3026 154.19 37.3795 154.005 40.7401C153.809 39.2645 153.659 38.0882 153.506 36.9119C153.386 35.6532 153.774 34.3258 152.788 32.8232V43.5701L152.516 43.5652V33.4893L152.329 33.4796C152.162 35.5006 151.995 37.5208 151.826 39.5405L151.672 39.5511C151.597 39.1096 151.522 38.6678 151.447 38.2257C151.193 39.25 151.545 40.4428 151.11 41.199C150.464 42.3317 150.633 43.4132 150.607 44.5237C150.558 46.6866 150.613 48.8515 150.587 51.0163C150.58 51.5808 150.432 52.1433 150.348 52.7078C150.326 51.1819 150.338 49.6551 150.269 48.1312C150.201 46.6421 150.057 45.1579 149.942 43.6707L149.62 43.6901V48.3848L149.432 48.3926C149.253 46.8906 149.074 45.3886 148.896 43.8866L148.67 43.8983V49.3733H148.493C148.332 46.3784 148.173 43.3835 148.014 40.3886H147.685V44.9139L147.48 44.9023C147.428 44.6999 147.373 44.4966 147.321 44.2943C147.243 43.6717 147.175 43.0472 147.08 42.4276C146.983 41.7596 146.844 41.0944 146.727 40.4283C146.608 40.4409 146.496 40.4525 146.36 40.4651V45.7901L146.24 45.7775C146.079 43.2764 145.919 40.7752 145.761 38.2741C145.479 41.9716 145.5 45.6584 145.468 49.3433C145.468 49.8691 145.236 50.3928 145.134 50.9176V41.4178H144.908C144.868 42.173 144.826 42.9281 144.767 44.0319C144.564 43.4171 144.474 43.1605 144.389 42.8952L144.123 42.9049C143.916 45.479 143.708 48.0531 143.499 50.6271L143.187 50.661C142.945 49.4537 142.705 48.2464 142.441 46.9296L142.075 47.9946C141.894 44.7028 141.731 41.6298 141.562 38.5568L141.33 38.5645V44.8674C139.87 44.8297 140.696 43.451 140.141 42.8342C140.015 42.9756 139.825 43.0879 139.824 43.2021C139.792 46.614 139.778 50.0259 139.762 53.4378C139.721 53.9625 139.679 54.4873 139.638 55.012L139.458 54.9965L139.36 53.4378C139.364 48.8447 139.364 44.2523 139.36 39.6605C139.36 39.5163 139.262 39.3701 139.195 39.2307C139.164 39.1883 139.12 39.157 139.07 39.1416C138.966 39.1133 138.861 39.0923 138.755 39.0787C138.755 41.3655 138.775 43.6291 138.741 45.883C138.731 46.4891 138.55 47.0933 138.447 47.6984C138.441 46.4882 138.497 45.2731 138.4 44.0706C138.351 43.4703 138.015 42.8923 137.813 42.3037C137.671 42.3356 137.519 42.3676 137.385 42.4005V47.7768C137.257 47.6529 137.172 47.4924 137.142 47.3179C137.101 47.2041 137.051 47.0937 136.993 46.9877L136.762 47.0081L136.401 50.5787L136.31 50.5652C136.146 48.3429 135.983 46.1212 135.821 43.9002C135.559 46.159 135.581 48.41 135.546 50.6601C135.536 51.2623 135.35 51.8606 135.245 52.4599L134.952 43.9147L134.486 43.8983C134.415 44.9607 134.344 46.0221 134.271 47.0826C133.359 46.9432 133.654 46.2113 133.641 45.7049C133.598 44.1723 133.625 42.6377 133.625 41.1031L133.167 41.0857C133.079 42.3637 132.992 43.6414 132.906 44.9187H132.698V39.1639H132.417C132.251 42.6493 132.085 46.1322 131.919 49.6125L131.846 49.6038C131.687 46.4294 131.529 43.2544 131.371 40.0788L130.908 40.0594C130.553 42.0781 130.931 44.1665 130.419 46.1958V43.3164L130.223 43.3222C130.112 45.2315 130.008 47.1407 129.898 49.05L129.47 49.0354V42.0161C129.029 44.1665 129.079 46.3855 128.178 48.4061C128.058 48.3916 127.943 48.378 127.807 48.3635V45.2121C127.636 44.6389 127.343 44.0783 127.252 43.4907C127.079 42.3792 127.011 41.2513 126.9 40.1311C126.619 40.5948 126.629 41.4091 126.459 41.4468C125.199 41.7315 125.728 42.6299 125.687 43.3319C125.532 43.3774 125.244 43.4742 125.239 43.4616C125.037 42.9398 124.735 42.415 124.703 41.8757C124.627 40.5697 124.679 39.2558 124.679 37.9449C124.575 38.0094 124.49 38.1005 124.434 38.2085C124.378 38.3165 124.352 38.4374 124.359 38.5587C124.337 39.9287 124.723 41.472 124.215 42.6319C123.281 44.7851 123.452 46.9471 123.379 49.1313C123.366 49.5563 123.25 49.9785 123.183 50.4025C123.039 50.3919 122.916 50.3812 122.746 50.3706V44.2846L122.474 44.2904V53.4339H122.067V49.8758C121.829 50.3812 121.76 50.5216 121.599 50.8566C121.388 49.598 121.208 48.501 121.026 47.4079C120.942 47.4147 120.844 47.4215 120.776 47.4283V50.5681C120.505 49.2998 120.56 48.0382 120.499 46.7825C120.441 45.5984 120.776 44.3514 120.253 43.2254L119.862 43.2506V46.8193H119.682C119.365 44.7209 119.05 42.6232 118.735 40.5261L118.571 40.5348V46.4988C118.265 45.5703 118.332 44.636 118.265 43.7095C118.202 42.8255 118.015 41.9503 117.847 40.8417C117.169 43.1015 118.434 45.367 116.821 47.3653C116.713 46.9248 116.637 46.6218 116.572 46.3594C115.421 47.7313 115.747 49.3443 115.715 50.8973C115.699 51.7405 115.703 52.5848 115.697 53.4291C115.604 53.4408 115.509 53.4338 115.419 53.4087C115.128 51.666 114.837 49.9249 114.545 48.1854L114.153 48.1912V52.4512L113.746 52.4405V44.5886H113.569C113.328 45.6355 113.085 46.6799 112.841 47.7216C112.826 47.407 112.939 46.9732 112.776 46.7951C111.994 45.9527 112.306 44.9381 112.176 43.9873C112.066 43.1828 111.725 42.4111 111.573 41.6075C111.481 41.1235 111.557 40.6113 111.557 40.1117L111.191 40.0846C111.101 40.68 110.946 41.2755 110.934 41.8738C110.894 43.9815 110.903 46.0902 110.886 48.1989C110.886 48.259 110.781 48.319 110.776 48.3229L109.873 47.2201C109.589 48.501 109.393 49.4101 109.166 50.4325C108.983 49.1148 108.813 47.922 108.648 46.7292C108.538 46.737 108.453 46.7447 108.313 46.7534V49.9852H108.008V46.7805L107.857 46.7864C107.719 47.6422 107.585 48.4991 107.447 49.3549L107.023 49.3065V46.4872L106.827 46.4959C106.776 47.1223 106.729 47.7487 106.683 48.3751C106.585 48.3703 106.48 48.3655 106.411 48.3606V45.1927L106.191 45.1976C106.145 45.946 106.094 46.6934 106.048 47.4418C105.786 46.189 105.662 44.942 105.446 43.7114C105.405 43.4752 104.993 43.3019 104.754 43.1005C104.607 43.3261 104.46 43.5507 104.307 43.7869C104.102 43.389 103.905 43.0124 103.709 42.6251C103.637 42.6396 103.559 42.6551 103.491 42.6706V47.4099L103.306 47.4041C103.258 46.9645 103.21 46.5249 103.163 46.0854C102.271 48.5058 102.693 50.9883 102.636 53.4436C102.6 53.5404 102.6 53.6469 102.636 53.7437C102.605 54.4744 102.572 55.2054 102.538 55.9367C102.435 55.1021 102.331 54.2678 102.228 53.4339V45.337L101.745 45.3099C101.685 46.451 101.624 47.5922 101.564 48.7334L101.425 48.7237C101.346 48.4623 101.266 48.2009 101.157 47.8426C101.025 48.2212 100.937 48.4797 100.847 48.7392L100.631 48.7101V42.02C100.533 42.0074 100.451 41.9939 100.361 41.9813C99.9258 43.2722 99.4903 44.566 99.0547 45.8627C98.0043 43.7521 98.7329 41.3936 98.3124 39.068C98.1051 39.738 97.9271 40.3005 97.753 40.862L97.4439 40.8156V35.9911L97.0703 35.9679C96.9911 36.6127 96.8493 37.2575 96.8454 37.9042C96.8219 41.3365 96.8346 44.7677 96.8346 48.1999V49.6222C96.7368 49.6222 96.5969 49.6154 96.461 49.6115V40.4225H96.3153C96.1637 43.5207 96.0219 46.6189 95.8595 49.8419C94.3397 49.0509 95.2649 47.7119 94.7465 46.7728C94.5451 47.3537 94.3553 47.8717 94.1734 48.3945C94.0883 48.3848 94.0159 48.3761 93.9142 48.3674V42.964L93.7049 42.9494C93.3861 43.5855 93.0643 44.2226 92.6232 45.1191V42.3424C91.1963 42.4934 92.0824 41.1244 91.6452 40.7933C91.3381 40.8311 90.9802 40.8901 90.9763 40.8746C90.8785 40.4176 90.7807 39.9549 90.7679 39.4901C90.7406 38.339 90.7591 37.1859 90.7591 36.0337L90.5508 36.0444C90.3797 37.7387 90.2075 39.433 90.0217 41.2726L89.5327 40.498C89.3635 43.9922 89.2051 47.2753 89.0437 50.5565L88.8764 50.5487C88.8484 49.9323 88.8204 49.3153 88.7923 48.6975L88.5967 48.6917C88.553 49.5496 88.5087 50.4067 88.4637 51.2632H88.2681C88.2212 50.5042 88.1739 49.7454 88.1263 48.987H87.8681V52.1569H87.5278V44.9613L87.338 44.971C87.1659 46.8377 86.9924 48.7046 86.8177 50.572L86.6955 50.5555C86.0813 46.0321 85.4645 41.5088 84.845 36.9854H84.6338V49.9484C84.5416 49.876 84.4679 49.7831 84.4185 49.6774C84.369 49.5716 84.3453 49.4559 84.3492 49.3395C84.239 43.8595 84.1308 38.3799 84.0245 32.9007C84.0176 32.5754 83.9648 32.251 83.9325 31.9257C83.7125 33.2483 83.7252 34.5601 83.7047 35.8711C83.6988 36.2244 83.6225 36.8712 83.5208 36.8818C82.3902 37.0077 82.7707 37.85 82.7658 38.4309C82.7384 41.9677 82.754 45.5054 82.7472 49.0432C82.7472 49.4421 82.7012 49.841 82.6758 50.2399C82.4313 49.6996 82.4518 49.1749 82.4254 48.6549C82.399 48.135 82.3276 47.6432 82.2719 47.1378L81.8484 47.1804V50.9069C80.0488 48.7072 81.2713 46.3429 80.5584 44.2788V53.4339C80.5241 54.0816 80.485 54.7293 80.4478 55.377H80.2522C80.2223 54.7271 80.1884 54.0794 80.1505 53.4339C80.1593 51.696 80.3285 49.9484 80.043 48.2299L79.642 48.2396C79.5872 48.6172 79.5285 48.9948 79.4728 49.3714L79.1989 49.3511V40.4041H78.928V43.0259L78.7471 43.0308C78.5867 42.0626 78.4322 41.1041 78.2718 40.1407L77.9422 40.1756V43.9322H77.7544C77.5842 40.5706 77.4121 37.2088 77.238 33.8466L76.9573 33.8572V44.577C76.3803 42.8265 77.1412 40.9143 76.127 39.2345C76.0291 42.1391 76.0468 45.0436 76.0174 47.9395C76.0115 48.4923 75.8296 49.0442 75.7299 49.596C75.6751 49.1862 75.6207 48.7769 75.5665 48.3684C74.5083 50.1353 74.8056 51.9681 74.7792 53.766C74.6472 53.6556 74.5122 53.5452 74.3763 53.4339V42.7181H74.1113C73.9645 44.1819 73.8149 45.6468 73.6623 47.1126H73.5508L73.3807 45.2043L73.2154 45.2169C73.1763 45.976 73.1375 46.7354 73.099 47.4951L72.8564 47.6132C72.7498 47.3227 72.6452 47.0323 72.5386 46.7486C72.4154 46.829 72.2735 46.9103 72.1718 46.9906V49.3143L71.9058 49.323C71.645 45.5432 71.3862 41.7634 71.1293 37.9836C71.0481 37.9836 70.9493 37.9904 70.8818 37.9943V45.8598H70.6432V42.8168C70.1004 42.4702 69.763 42.2359 69.3189 41.9571V49.5922C69.0471 48.0198 68.7918 46.4475 68.514 44.7696C68.0592 46.0883 68.7752 47.5135 67.6886 48.6327V39.83C67.4167 40.5871 67.6827 41.6366 67.2749 42.051C66.4925 42.8488 66.5335 43.692 66.4993 44.5963V48.5659C64.7672 48.2038 65.891 46.8338 65.2435 46.0099C65.1829 46.8725 65.1262 47.6335 65.0724 48.3945L64.733 48.381C64.6264 44.9846 64.5188 41.5882 64.4279 38.6778L62.6029 50.6659L62.373 50.6436C62.3 50.0691 62.226 49.4947 62.151 48.9202L61.7138 48.9135L61.5994 53.7708L61.3745 53.7457C61.3402 53.6488 61.305 53.5472 61.2708 53.4475C61.2434 51.9255 61.5329 50.3754 61.0967 48.8883L60.6908 48.8999V52.5248L60.3857 52.517V49.7635C59.9104 49.9359 59.614 50.054 59.2561 50.1886C59.1172 49.5292 58.9959 48.9667 58.8776 48.4032L58.5314 48.4342C58.4746 49.3569 58.412 50.2805 58.3358 51.5053C57.7978 49.9775 58.5842 48.5572 57.3959 47.4544V49.626L57.2003 49.6164C57.1651 49.0664 57.1318 48.5155 57.0966 47.9646L56.813 47.9337C56.5528 49.2368 56.2937 50.539 56.0306 51.8751L55.1132 51.5062C54.9988 51.9613 54.9058 52.3292 54.812 52.6981C54.7406 52.5867 54.6692 52.4754 54.5968 52.365L53.8907 52.5955C53.5777 52.2159 53.3479 51.6631 53.0163 51.5963C52.4618 51.483 52.3141 50.3096 51.4965 51.0318C51.0642 49.6987 50.3708 50.6281 50.0108 50.9767C48.9722 51.9855 48.0685 52.6836 47.245 52.8239L46.223 51.7667L45.8063 52.4919C44.6718 51.9109 44.354 51.9623 43.063 52.395C42.2444 52.6681 41.3348 52.9275 40.4986 52.8491C38.6081 52.6739 36.7518 52.7688 34.8828 53.0118C34.3546 53.0754 33.8199 53.0653 33.2945 52.9818C32.204 52.8162 31.1428 52.4831 30.0416 53.0253C29.7893 53.1434 29.3394 52.8859 29 52.8026V54.069C30.5648 54.5667 32.0984 54.5783 33.6945 54.1658C34.3879 53.9848 35.1684 54.0787 35.9039 54.1329C36.2383 54.1581 36.7068 54.3004 36.8516 54.5434C37.234 55.1853 37.7474 54.9704 38.2355 54.8813C39.4815 54.6528 40.7196 54.3808 41.9627 54.1378C42.6473 54.0042 43.1715 54.1252 43.5178 54.862C43.6547 55.1524 44.398 55.5097 44.5183 55.4138C45.4181 54.6809 46.5447 55.6501 47.4416 54.9733C47.5589 54.8842 48.0079 55.225 48.1203 55.2783L49.7135 53.8483C50.1047 54.9743 50.3884 55.8021 50.6915 56.6725C50.7375 56.2968 50.7835 55.9202 50.8637 55.2609C51.0299 55.7905 51.1062 56.0296 51.2079 56.353C51.6314 56.3181 52.2173 55.3528 52.5204 56.8584L52.7659 55.4777L53.0153 55.3219C53.031 55.5358 53.0515 55.7498 53.0681 55.9638C53.1522 55.9047 53.2217 55.8456 53.3234 55.7866V55.012C53.4936 55.6811 53.6608 56.351 53.9229 57.3773C54.1537 56.5776 54.2916 56.0916 54.5244 55.2822C54.5929 56.2571 54.6369 56.8932 54.675 57.4344L56.6311 55.1844C56.8648 56.1293 57.0751 57.0075 57.2922 57.8866L57.5025 57.8508V53.7728H57.6433L57.7832 53.7844C57.9631 55.1524 57.434 56.6154 58.4874 57.8866V55.2822H58.6125C58.7739 56.5728 58.9343 57.8633 59.1104 59.2643C59.4546 58.1644 59.7412 57.2437 60.0287 56.3239C60.1823 57.5893 60.3407 58.8557 60.4943 60.1211H60.6899V56.8971L60.8855 56.8913C61.0641 58.0531 61.2424 59.2149 61.4204 60.3767C61.616 59.394 61.5759 58.4171 61.6307 57.4451C61.6767 56.6376 61.8371 55.8369 61.9476 55.0333C62.1236 56.2591 61.4351 57.6716 62.777 58.6824C62.9775 57.9911 63.1682 57.3095 63.3638 56.6279C63.4479 56.6415 63.5408 56.655 63.6083 56.6676V61.4505C64.5931 60.2334 63.889 58.8093 64.3672 57.3763C64.5579 59.4308 64.735 61.3275 64.911 63.2232L65.2044 63.2067V60.0776L65.5095 60.0844V64.2417H65.8157V59.4483H66.0602C66.0973 59.9991 66.1325 60.55 66.1697 61.1009C66.4357 60.4929 66.3986 59.8839 66.4436 59.2798C66.5091 58.4084 66.6304 57.5371 66.737 56.6657V63.5766H67.1644C67.2296 60.1996 67.2948 56.8225 67.36 53.4455C67.4001 53.1067 67.4411 52.7678 67.4812 52.4309H67.6583L67.7561 53.4184C67.8294 56.7102 67.4157 60.0234 68.2627 63.2832C68.343 62.7745 68.3757 62.2595 68.3605 61.7448C68.3605 59.3243 68.3546 56.8952 68.3693 54.4699C68.3693 54.0119 68.4573 53.5549 68.5052 53.0979C68.5688 53.1582 68.628 53.2229 68.6823 53.2916C68.7063 53.3384 68.7225 53.3887 68.7302 53.4407C68.813 55.1389 68.8958 56.8364 68.9786 58.5333H69.2133C69.3952 57.2605 69.5762 55.9876 69.7561 54.7148L70.0388 54.738V61.4698C70.4124 60.1231 70.7439 58.9729 71.0373 57.934C71.543 59.5925 72.0691 61.3227 72.5963 63.0538C72.9445 62.5549 73.1366 61.9657 73.1489 61.3594C73.1851 60.0417 73.1352 58.7202 73.1821 57.4025C73.2095 56.6337 73.368 55.8679 73.4697 55.1011V66.0852H73.7181C73.8892 63.5485 74.0526 61.0109 74.2237 58.4743H74.4545V63.5417H74.8047C74.9005 61.2465 74.9983 58.9513 75.0981 56.656C75.3602 57.9088 75.6242 59.1617 75.9069 60.5094C76.0546 58.0734 76.1944 55.7488 76.3353 53.4242C76.3731 52.9079 76.4116 52.3915 76.4507 51.8751L76.6297 51.8848C76.6603 52.4012 76.6929 52.9175 76.7275 53.4339V64.8681C77.1695 62.8446 76.8898 60.7931 77.5558 58.7483C78.0898 57.1023 77.9011 55.2318 78.0331 53.461L78.1241 53.4659H78.216C78.2385 55.1515 78.2365 56.839 78.3011 58.5236C78.3177 58.9593 78.4527 59.6922 78.6923 59.7619C79.4063 59.9711 79.2243 60.4494 79.2322 60.8734C79.2527 61.982 79.239 63.0915 79.239 64.2011L79.4659 64.1807L79.6615 63.5175L79.9843 63.5466V71.8391H80.4596V60.1318L80.8674 60.1395V69.5861L81.0865 69.6016C81.3916 67.5761 81.6948 65.5507 81.9951 63.564L82.4362 64.2843C82.6083 62.6984 82.7501 61.3798 82.8929 60.0679H83.0093C83.0523 60.9283 83.095 61.7887 83.1374 62.6491C84.0176 59.6012 83.6323 56.5079 83.6822 53.4358L83.78 51.4849H83.9756L84.0734 53.4416C84.1213 56.4111 84.1771 59.3805 84.224 62.3489H84.7003V55.3006H85.0054V63.5514L85.3712 63.5611C85.4993 61.9733 85.6196 60.3864 85.7477 58.7996H85.9571V66.0784H86.1781C86.2436 65.5594 86.3189 65.0395 86.3844 64.5206L86.67 64.5399V68.8968L86.7864 68.8784C86.937 67.9383 87.0798 66.9981 87.2295 66.058L87.5874 66.0861V68.9248L87.9268 68.919V64.4586C88.1644 64.9737 88.2534 65.1499 88.3542 65.3609L88.6916 64.6319L88.9772 65.3474L89.3361 65.3232C89.6608 62.0546 89.3537 58.7589 89.5034 55.4826C89.6012 56.0373 89.7684 56.5911 89.7752 57.1479C89.8056 59.5092 89.788 61.8706 89.788 64.232C90.9029 61.311 90.14 58.2584 90.5811 54.9627C91.0858 57.5922 90.2711 60.0166 91.3577 62.2608V49.658L91.7655 49.6638V63.5253L92.1205 63.532C92.2509 61.7829 92.3849 60.0334 92.5225 58.2835C93.3186 59.6225 92.5127 61.1474 93.6678 62.7275V57.8798C93.9387 59.1384 93.9074 60.3971 93.9837 61.6489C94.057 62.8475 93.5993 64.1226 94.5842 65.2312V61.6431C95.5358 64.1149 95.5915 66.6845 95.573 69.2637L95.9094 69.2492V64.2466C96.1813 64.7752 96.3241 65.0114 96.5735 65.4723C96.7075 65.0201 96.8062 64.8323 96.8121 64.6435C96.9236 60.9102 97.0279 57.1769 97.1251 53.4436L97.5163 53.7515C97.5779 57.0365 97.1358 60.3448 98.1207 63.5998V56.5989H98.4268V66.4627C98.5628 66.4676 98.7202 66.4715 98.8689 66.4753C99.0156 62.9647 99.1721 59.4541 99.3188 55.9434L99.7511 55.9551V63.9087H99.8958C100.024 63.4652 100.149 63.0208 100.277 62.5765C100.398 62.591 100.498 62.6055 100.634 62.62V67.398H101.008V60.6953L101.265 60.6904C101.305 61.2378 101.346 61.7864 101.386 62.3363H101.653V59.4318L101.96 59.4366V69.8698H102.363C102.438 66.729 102.508 63.5882 102.605 60.4484C102.624 59.8346 102.775 59.2236 102.877 58.6088V64.8585L103.131 64.8633C103.453 63.0567 103.773 61.251 104.12 59.305C104.177 60.3806 104.232 61.3381 104.283 62.3063L104.577 62.2928V55.9512H104.849V66.4385L105.098 66.454C105.349 64.8443 105.6 63.2342 105.851 61.6238L106.074 61.6596C106.108 61.9723 106.141 62.285 106.172 62.5978C106.278 63.4546 106.378 64.3124 106.485 65.1692L106.778 65.1499V60.1047C107.355 63.5669 106.608 67.0911 107.729 70.5175V66.4511C108.001 66.8268 108.09 66.971 108.344 67.3457C108.344 64.8875 108.327 62.6888 108.363 60.49C108.371 59.9401 108.558 59.394 108.667 58.8441C108.829 61.6199 108.098 64.5225 109.959 67.3302C110.52 63.503 111.031 59.911 111.545 56.4721V63.9174H111.71C111.875 62.8524 112.038 61.7874 112.199 60.7224C113.029 61.1097 112.777 61.8697 112.838 62.5232C112.911 63.3065 112.996 64.0888 113.073 64.872L113.546 64.8391V57.6281L113.851 57.6368V68.5937C114.225 67.6875 114.34 66.7658 114.444 65.846C114.485 65.4946 114.536 65.1441 114.584 64.7926C114.647 64.8539 114.706 64.9185 114.762 64.9863C114.786 65.0328 114.804 65.0827 114.814 65.1344C115.022 66.637 115.23 68.139 115.438 69.6403L115.67 69.62L115.776 68.2645H115.912C116.01 68.6876 116.115 69.1107 116.214 69.5348L116.605 69.5203V60.4377H116.893C117.061 63.7024 117.22 66.9672 117.389 70.2319H117.658V57.2369C118.1 59.122 117.755 61.0651 118.265 62.9279C119.068 60.3138 117.828 57.4722 119.56 54.6983V63.6056H119.866V61.3081L120.044 61.2936C120.234 61.9707 120.423 62.6484 120.612 63.3268L120.795 63.3007L120.918 60.7834H121.346C121.53 63.0928 121.714 65.4019 121.897 67.7107H122.108V64.143C122.278 64.1294 122.419 64.1168 122.572 64.1033C122.674 65.2993 122.776 66.4934 122.877 67.6856L123.049 67.6701C123.212 65.451 123.375 63.2319 123.539 61.0128H123.601C123.724 62.5987 123.855 64.1846 123.979 65.7705L124.454 65.7434V60.1144L124.726 60.1221V64.3124L125.123 64.3473C125.313 62.3883 125.503 60.43 125.694 58.4723L125.89 58.4801C126.057 60.796 126.227 63.1157 126.399 65.4394L126.554 65.4326V53.4339C126.554 52.6903 126.549 51.9468 126.549 51.2071C126.684 51.9506 126.818 52.6949 126.951 53.4397C126.951 54.8097 126.915 56.1806 126.945 57.5496C126.975 58.9187 126.787 60.3022 127.114 61.7632C127.538 61.434 127.776 61.2549 128.252 60.8831V69.5629H128.558V64.8488L128.837 64.8372C129.109 66.2275 129.382 67.6175 129.655 69.0071C130.389 66.9575 130.037 64.8556 130.101 62.7846C130.165 60.7137 130.116 58.6611 130.116 56.5989L130.44 56.6037C130.44 59.2294 130.425 61.8561 130.453 64.4818C130.459 65.0424 130.625 65.602 130.719 66.1616L131.105 66.1171V60.0747C131.683 63.2387 131.683 63.2387 132.362 63.9706V53.7689L132.515 53.7505L132.668 53.7641V66.4327L133.195 66.4511C133.483 63.5166 133.2 60.5384 133.379 57.5952L133.722 57.6058V61.3817L133.959 61.3672V60.1289C134.84 60.0108 134.546 60.6798 134.582 61.0729C134.747 62.7614 134.884 64.4538 135.04 66.2894C135.236 65.5052 135.388 64.873 135.543 64.2408C135.824 65.7899 136.108 67.3448 136.36 68.7351L137.16 64.1846C137.267 63.715 137.441 63.2503 137.467 62.7769C137.515 61.8697 137.489 60.9586 137.489 60.0495H137.831V63.3094L137.97 63.3026C138.128 62.2376 138.273 61.1803 138.443 60.1192V69.8611H138.802C138.936 66.7242 139.069 63.5872 139.201 60.4503H139.462V68.2626L139.612 68.2539C139.724 66.7693 139.836 65.2832 139.948 63.7954H140.241L140.446 64.6106C140.702 63.7944 140.987 62.8843 141.272 61.9752L141.416 60.368C141.777 62.9666 142.044 65.5449 142.318 68.1222C142.325 68.188 142.407 68.2461 142.508 68.3797C142.576 67.8511 142.632 67.4193 142.688 66.9875C142.778 66.9933 142.859 67.0001 142.961 67.0059V75.278C143.233 74.6555 143.214 74.031 143.237 73.4085C143.335 70.6269 143.393 67.8424 143.573 65.0657C143.682 63.3994 143.986 61.7458 144.202 60.0873C144.365 61.677 144.528 63.2671 144.691 64.8575C144.737 64.8575 144.797 64.8652 144.83 64.8691V61.9646H145.204V67.032L145.51 67.0194V59.7929C146.088 61.4388 145.374 63.2474 146.39 65.1131V50.6107L146.798 50.6223V64.5322L146.986 64.539C147.056 64.1856 147.128 63.8332 147.235 63.2968C147.384 63.7654 147.465 64.0026 147.54 64.2398C147.63 64.2204 147.715 64.2001 147.817 64.1807V58.8848L147.93 58.8964C148.097 61.4137 148.263 63.9309 148.428 66.4482L148.595 66.4318C148.664 66.2013 148.733 65.9709 148.802 65.7405L149.039 65.7492V70.319C149.137 70.3268 149.215 70.3355 149.303 70.3432C149.477 69.9792 149.645 69.6151 149.818 69.2521L150.024 69.2898V74.9489C151.009 69.286 150.328 63.5776 150.938 57.9088C151.079 61.3846 151.22 64.861 151.363 68.3381C152.565 63.411 152.116 58.4133 152.153 53.4387C152.193 52.9869 152.232 52.5316 152.272 52.0726H152.448C152.488 52.5277 152.538 52.9818 152.572 53.4368V68.9529H152.865C152.978 66.1336 153.09 63.3149 153.2 60.4968C153.896 59.6942 153.284 58.3668 154.405 57.6687C154.645 57.5187 154.492 56.747 154.52 56.262C154.755 58.909 154.748 61.5405 154.759 64.172C154.753 64.8563 154.783 65.5404 154.849 66.2217C155.24 69.8107 155.68 73.3949 156.023 76.9879C156.149 78.3143 156.049 79.662 156.049 81H156.38V74.2963C156.414 74.2963 156.493 74.2915 156.552 74.2886C156.645 74.5422 156.734 74.7949 156.826 75.0476L157.035 75.0186L157.44 62.6549L157.704 62.6607V69.2869L157.802 69.2724C158.216 66.6467 158.632 64.0213 159.049 61.3962C159.13 61.403 159.193 61.4098 159.296 61.4156V67.3757H159.566V55.0072H159.756C159.92 59.1317 160.083 63.2558 160.245 67.3796L160.548 67.3738V61.7487C161.941 63.138 161.384 64.6881 161.457 66.1055C161.534 67.5849 161.471 69.071 161.471 70.5543H161.815V64.1643L162.056 64.1585C162.252 65.9541 162.447 67.7501 162.643 69.5464C162.796 69.5338 162.936 69.5212 163.108 69.5086V62.622C163.206 62.622 163.347 62.6278 163.449 62.6316V73.088H163.599C163.722 71.4789 163.845 69.8701 163.969 68.2616L164.311 68.2849C164.349 68.8367 164.388 69.3886 164.428 69.9405L164.643 69.9356C164.675 69.2743 164.71 68.6131 164.741 67.9518H165.009V70.8738L165.139 70.867C165.506 67.8844 165.875 64.9014 166.244 61.9181L166.635 61.9539V64.5845H166.941V57.023C167.039 58.1073 167.2 59.1898 167.221 60.2751C167.264 62.5474 167.237 64.8207 167.237 67.094H167.472L167.992 59.7668L168.146 59.7736C168.188 60.4358 168.233 61.0971 168.275 61.7593L168.569 61.7525V56.9194L168.916 56.9252C169.033 59.0416 169.15 61.1574 169.266 63.2726H169.426C169.463 62.7226 169.5 62.174 169.537 61.6267H169.694L170.202 70.6385C171.347 66.9836 170.972 63.2067 171.116 59.4773L171.456 59.4909V74.9479C171.762 73.4201 171.518 71.8497 171.794 70.379C172.381 67.2257 171.774 64.0287 172.564 60.8444C173.119 58.6069 172.649 56.1206 172.637 53.7447C172.675 53.6485 172.677 53.5421 172.643 53.4445C172.68 52.6961 172.726 51.9487 172.763 51.2003L173.019 51.208V52.608C173.019 57.3476 173.019 62.0875 173.019 66.8277C173.019 67.2431 173.002 68.0022 173.109 68.0225C174.541 68.2994 173.906 69.4031 173.936 70.1225C174.023 72.1624 173.965 74.2082 173.965 76.252L174.278 76.2578V74.6023C174.278 69.4386 174.278 64.2769 174.278 59.1171C174.278 57.4315 174.278 55.7459 174.298 54.0613C174.298 53.8105 174.454 53.5627 174.537 53.3138C174.571 53.3545 174.611 53.3942 174.644 53.4349C174.401 56.4527 174.923 59.3718 175.975 62.2453V59.8152C176.009 59.82 176.051 59.8239 176.092 59.8278C176.253 64.4318 176.41 69.0355 176.565 73.6389L176.858 73.6321V57.5245H177.164V75.92C177.533 74.065 177.739 72.182 177.781 70.2919C177.845 67.4425 177.781 64.5903 177.811 61.7399C177.817 61.189 178.006 60.6411 178.12 60.094C178.325 61.8184 177.533 63.7112 179.134 65.3929V62.0924C179.232 62.6529 179.379 63.2135 179.387 63.776C179.42 65.7279 179.355 67.6817 179.416 69.6316C179.468 71.3056 179.635 72.9747 179.754 74.6468L180.086 74.6323V56.6405H180.357V58.36C180.357 63.5834 180.349 68.8057 180.375 74.0291C180.375 74.7707 180.571 75.5114 180.669 76.2559L180.996 76.2259V74.6623C180.996 70.653 180.962 66.6428 181.028 62.6345C181.042 61.7884 181.425 60.948 181.638 60.1047C181.745 62.6355 181.853 65.1663 181.962 67.6972L182.142 67.6768C182.286 66.5557 182.43 65.4349 182.575 64.3143C182.725 65.7647 182.876 67.2147 183.028 68.6644L183.154 68.6915C183.209 68.2281 183.264 67.7649 183.319 67.3022H183.618L184.01 70.8593C184.205 69.1717 184.146 67.4958 184.216 65.8247C184.286 64.1788 183.876 62.4864 184.625 60.7398C185.637 62.2182 184.82 63.8138 185.391 65.206C185.488 64.6377 185.453 64.0684 185.499 63.5069C185.566 62.6926 185.695 61.8842 185.793 61.0729C185.904 65.2825 186.016 69.4922 186.128 73.7018C186.123 73.7541 186.124 73.8069 186.134 73.8587C186.219 74.0969 186.312 74.3312 186.402 74.5674L186.762 74.5142C186.762 72.6843 186.706 70.8515 186.779 69.0246C186.839 67.5306 186.377 65.9835 187.398 64.5603C187.751 64.0694 187.699 63.2474 187.711 62.5745C187.75 60.6227 187.717 58.6698 187.738 56.717C187.738 56.3607 187.873 56.0044 187.943 55.652C188.086 55.6665 188.237 55.6801 188.375 55.6946V66.3514L188.715 66.3456V61.0409L188.948 61.0293C189.224 63.1277 189.501 65.2254 189.777 67.3225C189.853 67.3157 189.937 67.3099 190.006 67.3031V56.2852C190.515 59.638 189.87 63.0576 190.923 66.3746V57.8701L191.188 57.8401C191.678 60.8666 192.167 63.8935 192.655 66.9207L193.041 66.9062C193.23 65.056 193.432 63.2067 193.617 61.3575H193.806V66.7619H194.164C194.299 63.7935 194.43 60.824 194.577 57.5952C194.766 59.0339 194.918 60.2092 195.072 61.3827L195.17 62.0256L195.337 61.9984C195.385 61.3711 195.433 60.744 195.48 60.1173L195.647 60.1328C195.891 63.067 196.134 66.0012 196.376 68.9355C196.458 68.9297 196.556 68.9239 196.623 68.9181V53.7408C196.661 53.6439 196.68 53.5408 196.68 53.4368L196.838 53.431L196.997 53.4407V68.8619H197.475C197.556 64.6929 197.636 60.5242 197.715 56.3559L197.856 56.3656C197.966 57.6565 198.075 58.9451 198.184 60.2315L198.498 60.2577C198.694 59.8588 198.891 59.4599 199.092 59.061L199.368 59.0678C199.468 61.1978 199.565 63.3262 199.662 65.4529H199.883V58.5372C199.981 59.0842 200.135 59.6274 200.185 60.1831C200.354 62.0275 200.489 63.8748 200.636 65.7201L200.778 65.7095L201.169 59.4918C201.334 59.8075 201.501 60.1231 201.814 60.7204C201.814 59.7377 201.76 59.0629 201.842 58.4055C201.874 58.147 202.214 57.9263 202.412 57.6881C202.584 59.6245 202.755 61.5608 202.924 63.4972H203.25V55.3867H203.691V65.7463L203.975 65.7627C204.148 64.4944 204.324 63.2271 204.498 61.952C204.625 62.0885 204.745 62.2134 204.889 62.3683C205.043 60.4319 205.194 58.5507 205.342 56.6744C206.059 56.5311 205.94 57.0617 205.95 57.449C205.985 58.7405 205.996 60.0321 206.015 61.3217C206.021 61.3739 206.033 61.4252 206.051 61.4747C206.079 61.5181 206.112 61.5581 206.149 61.5937C206.295 61.2065 206.555 60.8192 206.569 60.4222C206.619 58.9632 206.588 57.5003 206.588 56.0393C207.162 58.9574 206.542 61.9258 207.56 64.7994V58.8557L207.901 58.8509V63.4836L207.999 63.4556C208.286 61.0829 208.574 58.7095 208.862 56.3355L209.134 56.3568C209.294 57.6949 209.46 59.0339 209.623 60.3729H209.773V53.4445C209.773 53.0331 209.804 52.6216 209.822 52.2101C209.935 52.6216 210.046 53.034 210.16 53.4465C210.132 53.5433 210.132 53.6459 210.16 53.7428C210.147 56.2784 209.894 58.8306 210.612 61.4398C210.736 61.0525 210.825 60.7853 210.905 60.5181L211.126 60.5549V64.1497L211.455 64.1711C211.543 63.3626 211.65 62.5571 211.713 61.7506C211.835 60.1415 211.931 58.5294 212.039 56.9194L213.198 59.2914C213.274 57.8798 213.332 56.8041 213.393 55.7285C213.925 57.8188 213.014 60.0853 214.481 61.9859C214.844 60.3003 215.209 58.6079 215.654 56.5582C215.901 57.7723 216.074 58.5914 216.241 59.4037C216.36 59.3902 216.467 59.3776 216.603 59.364V55.1147C216.603 55.1205 216.636 55.1253 216.658 55.1311C216.905 57.4115 217.151 59.6919 217.396 61.9723H217.847C218.051 60.0953 218.255 58.22 218.457 56.3462C218.815 56.3762 218.999 56.3588 219.013 56.3985C219.242 57.0617 219.449 57.7326 219.759 58.7105C219.955 57.9447 220.084 57.4732 220.271 56.7451C220.499 59.4889 220.475 59.4889 221.799 59.4376V56.11L222.08 56.1003C222.246 56.8351 222.409 57.569 222.576 58.3029C222.742 58.7667 222.906 59.2294 223.114 59.8065C223.281 58.8267 223.415 58.0308 223.563 57.1633L224.507 58.2283C224.533 58.5188 224.556 58.8141 224.583 59.1055L224.823 59.0997V54.7429L225.128 54.7206C225.294 55.8728 225.463 57.0259 225.639 58.2448C225.743 58.0715 225.811 57.9456 225.893 57.8295C225.909 57.8082 225.983 57.8295 226.025 57.8295C226.123 58.1828 226.213 58.5391 226.307 58.8945L226.543 58.8683C226.728 57.8059 226.912 56.7441 227.096 55.683C227.365 56.8071 227.627 57.9321 227.896 59.0561H228.117V55.8844C228.253 55.8737 228.344 55.8631 228.455 55.8515C228.82 56.839 229.189 57.8256 229.556 58.817C231.003 57.9456 229.684 56.0954 230.855 55.0314C230.923 55.8505 230.99 56.6279 231.05 57.4054L231.433 57.3889C231.51 56.625 231.589 55.8611 231.647 55.2967C232.038 56.2349 232.473 57.2737 232.987 58.5043L234.147 56.0838C234.349 56.7451 234.465 57.1198 234.67 57.7869C234.745 56.8419 234.793 56.2484 234.866 55.3064C235.053 55.9115 235.127 56.1535 235.202 56.3994L235.875 56.0248L236.322 57.5661L237.548 56.6425C237.606 56.7983 237.699 57.0549 237.842 57.4548L239.357 55.8728C239.676 56.3568 239.982 56.8187 240.289 57.2824C240.387 57.266 240.472 57.2495 240.573 57.234V54.8136L240.769 54.8339C240.831 55.4913 240.892 56.1487 240.965 56.9165C241.995 55.9802 242.627 55.0517 242.476 53.7699L242.598 53.7602L242.721 53.767L243.369 57.3202C244.332 57.3396 244.672 56.9804 244.898 56.2503C245.061 55.7275 245.628 55.3277 246.072 54.7981L246.728 57.2853C248.227 56.534 249.022 55.529 249.148 54.041C249.53 55.0895 249.912 56.1371 250.313 57.236C250.405 56.8487 250.483 56.5205 250.566 56.171L251.075 56.4769L252.754 54.4021L253.558 57.1595C253.949 56.6154 254.268 56.1526 254.608 55.7072C255.203 54.9326 256.09 54.9907 256.509 55.8379C256.683 56.1884 256.803 56.565 256.901 56.8138L258.084 55.0014L259.935 55.2434L260.183 56.0674C260.486 55.6094 260.757 55.196 261.135 54.6238C261.867 55.9647 262.835 55.3015 263.735 55.1573C264.148 55.0895 264.607 54.5764 264.902 55.3509C264.942 55.4564 265.347 55.5174 265.54 55.4593C266.26 55.2415 266.962 54.9656 267.752 54.6848L268.174 55.4884C269.446 55.3741 270.585 54.1087 271.989 55.0837C272.055 55.1249 272.13 55.1509 272.209 55.1598C272.287 55.1686 272.366 55.1602 272.44 55.135C273.92 54.3963 275.57 54.7477 277.06 54.739C280.45 54.7284 283.84 54.0303 287.231 54.6093C287.389 54.6199 287.547 54.6118 287.703 54.5851C289.23 54.4734 290.756 54.3614 292.283 54.2491C293.164 54.1823 294.044 54.1058 294.924 54.0342C296.172 54.0623 297.421 54.1184 298.669 54.1145C303.723 54.101 308.776 54.0735 313.828 54.0322C314.29 54.0322 314.751 53.8783 315.212 53.797C315.808 53.888 316.386 53.979 317 54.07V53.4339C316.429 53.3371 315.881 53.1599 315.318 53.1541Z" fill="#F8F5FF"/>
<mask id="mask0_19_12029" style="mask-type:alpha" maskUnits="userSpaceOnUse" x="0" y="0" width="114" height="91">
<rect width="114" height="91" fill="#D6E2F5"/>
</mask>
<g mask="url(#mask0_19_12029)">
<path fill-rule="evenodd" clip-rule="evenodd" d="M315.318 53.1541C312.677 53.128 310.041 53.1493 307.403 53.1541L298.445 53.1212C296.439 53.0624 294.432 53.0053 292.426 52.9498C292.386 52.9498 292.345 53.0108 292.304 53.0466L291.762 53.036C291.701 52.9546 291.64 52.8026 291.575 52.8007C288.595 52.7213 285.609 52.6632 282.634 52.5858C280.954 52.5422 279.274 52.489 277.596 52.3979C277.172 52.3747 276.556 51.9574 276.37 52.1162C275.159 53.1454 274.218 52.4067 273.298 51.8103L272.124 52.6884L269.875 51.5769L268.812 52.9324C267.627 50.9708 266.419 52.0852 265.183 52.7804C264.943 52.3476 264.748 52 264.521 51.5934L261.959 52.3912L261.079 51.5334C260.604 52.6032 259.49 50.9621 258.97 51.9961C258.962 52.0107 258.368 51.6186 258.059 51.634C257.719 51.6515 257.393 51.9245 257.002 52.1114C256.89 51.697 256.787 51.3136 256.699 50.9892C255.872 50.8082 255.298 50.8924 255.209 51.7793C254.524 51.2458 254.501 52.4289 253.831 52.2033C253.733 51.9652 253.613 51.6447 253.484 51.3242C253.426 51.3395 253.368 51.3589 253.312 51.3823V53.4242C253.219 53.4329 253.126 53.4313 253.033 53.4194C252.984 52.4444 252.929 51.4704 252.878 50.4955C251.936 51.3872 251.105 51.9226 249.908 51.27C249.763 50.8547 249.593 50.3696 249.446 49.9475L247.695 51.756C247.194 51.18 246.678 50.5942 246.187 50.0327C245.637 50.6271 245.262 51.0531 244.617 51.7212V53.4087C244.544 53.4156 244.47 53.4156 244.398 53.4087C244.279 52.2556 244.164 51.1035 244.006 49.6096C243.649 50.4132 243.461 50.8421 243.224 51.3707L242.539 49.4159L242.219 49.4866C242.149 49.961 242.079 50.4345 241.971 51.1635C241.811 50.6388 241.739 50.4083 241.662 50.1547L240.924 50.754C240.858 49.6057 240.806 48.7014 240.754 47.7981H240.544L239.957 51.3494C239.601 50.3367 239.366 49.6841 239.136 49.0325C239.06 49.0403 239.006 49.048 238.904 49.0558V51.4927L238.714 51.5033C238.597 50.844 238.483 50.1856 238.366 49.5273L238.119 49.5805C237.958 50.4364 237.797 51.2926 237.635 52.1491C237.502 50.2815 237.922 48.3674 237.129 46.4136C236.987 47.9917 236.857 49.4353 236.727 50.8779L236.404 50.8605C236.23 50.2602 236.051 49.6609 235.877 49.0606L235.575 49.0945V51.5692L235.167 51.5624C235.114 50.5942 235.064 49.6338 235.008 48.6046L234.519 49.0345C234.341 47.5299 234.171 46.096 233.964 44.3417C233.795 46.129 233.658 47.5832 233.521 49.0374L233.14 51.2255L232.888 51.1964C232.845 50.4848 232.804 49.7732 232.75 48.8805C232.417 49.8807 232.175 50.6533 231.903 51.4269V48.5998C230.85 48.9483 230.914 48.2706 230.906 47.6974C230.889 46.3855 230.9 45.0727 230.9 43.7598C230.417 45.9402 230.178 48.1166 229.954 50.2931C229.903 50.782 229.903 51.2749 229.88 51.7667L229.759 51.7541L229.36 48.9928L229.038 49.0345L228.932 50.8643H228.724L228.592 47.8911L228.154 47.9065C228.077 48.7689 228.002 49.6318 227.927 50.4955L227.488 50.4761V42.8003L227.14 42.8071C226.913 46.0196 226.687 49.2313 226.464 52.4425L226.129 52.4251V49.9426C224.805 49.6899 224.221 49.0664 224.2 47.8881C224.176 46.4901 224.191 45.0911 224.191 43.693C223.415 45.7475 223.757 48.0692 222.226 49.8545C222.087 49.2533 221.948 48.652 221.807 48.044C221.612 48.378 221.406 48.715 221.207 49.0529C221.118 49.0383 221.034 49.0248 220.932 49.0103V43.2893C220.491 45.0949 220.052 46.7457 219.536 48.7566C219.412 48.0334 219.355 47.6868 219.26 47.1281C218.771 47.983 218.374 48.6675 217.838 49.597C217.684 47.5638 217.909 45.8133 217.678 44.1064L217.236 44.12C217.184 45.0772 217.131 46.0354 217.077 46.9945L216.783 46.9722V44.0019L216.635 43.9961C216.526 44.5954 216.418 45.1947 216.271 46.0089L215.74 45.3031C215.395 46.6247 215.055 47.9588 214.664 49.4479C212.843 46.464 214.091 43.2293 213.429 40.2782C213.278 40.2869 213.116 40.2947 212.98 40.3034V46.3497C212.882 46.3449 212.821 46.34 212.745 46.3362C212.676 45.5674 212.606 44.7987 212.538 44.0299L212.04 44.0551C211.82 46.8635 211.601 49.6712 211.381 52.4783C211.277 51.8199 211.088 51.1625 211.081 50.5022C211.046 47.9114 211.072 45.3205 211.072 42.7297H210.738V51.4811H210.456C210.299 47.9427 210.141 44.4046 209.981 40.8669H209.803C209.707 42.9543 209.611 45.0417 209.514 47.1291C209.433 47.2337 209.351 47.3373 209.269 47.4418C209.242 47.4012 209.19 47.3605 209.19 47.3198C209.19 46.1938 209.19 45.0688 209.19 43.9438L208.779 43.9331C208.686 45.0097 208.604 46.0883 208.497 47.1639C208.311 49.0287 208.106 50.8934 207.91 52.7571C207.882 49.4008 207.854 46.0444 207.826 42.688L207.287 42.6706C207.132 45.0514 207.287 47.4573 207.184 49.8429L206.832 49.8294V37.4085C206.458 40.345 206.363 43.2815 206.245 46.219C206.22 46.829 206.049 47.4331 205.952 48.0402V45.8637L205.528 45.8433C205.344 46.8851 205.16 47.9275 204.975 48.9706C204.872 48.4691 204.726 47.9724 204.673 47.466C204.506 45.8801 204.366 44.2904 204.22 42.7035C204.167 42.7035 204.123 42.7093 204.049 42.7113V53.4494H203.658C203.671 48.9822 203.701 44.515 203.684 40.0478C203.684 39.4669 203.462 38.8928 203.342 38.3148C203.066 40.8862 203.088 43.4074 203.049 45.9276C203.04 46.5337 202.853 47.1378 202.743 47.7429L202.403 45.2208L202.169 45.2557C202.046 46.3904 201.923 47.5248 201.801 48.6588C201.697 48.0537 201.531 47.4515 201.507 46.8425C201.458 45.7698 201.494 44.6941 201.494 43.6194L201.068 43.6088C200.592 46.5356 201.024 49.5253 200.656 52.4648L200.189 38.643C199.896 41.4371 199.909 44.2245 199.878 47.0119C199.87 47.6819 199.696 48.3509 199.598 49.0209C199.484 48.4845 199.292 47.9559 199.269 47.4128C199.218 46.2432 199.253 45.0698 199.253 43.8973H198.916C198.916 44.6631 198.94 45.4299 198.888 46.1919C198.88 46.3013 198.497 46.3855 198.293 46.4823C198.186 45.8753 197.999 45.2711 197.989 44.6622C197.947 42.9494 197.975 41.2358 197.975 39.5221H197.741C197.571 42.8739 197.401 46.2255 197.231 49.5767L197.005 49.5689V48.0121C197.005 43.9515 197.01 39.8919 196.993 35.8323C196.993 35.3357 196.855 34.8399 196.783 34.3442L196.364 34.4014V35.9505C196.364 39.1135 196.382 42.2775 196.352 45.4386C196.352 45.9905 196.157 46.5414 196.05 47.0923C195.968 44.7532 195.886 42.414 195.805 40.0749H195.49C195.359 42.8362 195.226 45.5977 195.09 48.3597C194.981 47.7555 194.785 47.1533 194.781 46.5492C194.752 42.6445 194.768 38.7388 194.768 34.8341V32.8774C194.36 35.7617 194.202 38.642 194.142 41.5243C194.082 44.4066 194.128 47.2966 194.128 50.1837L193.909 50.1789C193.747 44.8268 193.584 39.475 193.42 34.1235H193.136V47.649H192.927C192.76 44.9381 192.592 42.2246 192.424 39.5085H192.341C192.194 41.501 192.047 43.4939 191.9 45.4871C191.279 42.5535 192.027 39.5502 191.076 36.6679C190.98 36.8604 190.931 37.0721 190.932 37.2865C190.821 40.5987 190.719 43.9118 190.588 47.223C190.572 47.6209 190.385 48.0111 190.284 48.4052V36.7047H189.968C189.968 38.3332 190.032 39.9645 189.959 41.5901C189.886 43.2157 190.317 44.9245 189.332 46.4959V38.2034H189.148C188.992 40.0107 188.836 41.8163 188.683 43.6204C188.122 41.5214 188.788 39.3255 187.667 37.2914V48.2319L187.124 48.2386C187.034 44.0851 187.134 39.9229 186.896 35.7713C186.636 38.3932 186.553 41.014 186.438 43.634C186.411 44.2439 186.242 44.849 186.145 45.4561V40.4728L185.737 40.4806V47.0255C184.31 44.4114 185.099 41.5717 184.584 38.8608C183.985 43.1896 184.374 47.5483 184.009 51.8848C183.878 48.0644 183.744 44.2442 183.605 40.4244H183.223V45.5558C182.951 45.0349 182.93 44.5208 182.93 44.0067C182.93 41.0053 182.951 37.9943 182.916 34.9881C182.907 34.2648 182.721 33.5426 182.609 32.8203L182.401 32.8532C182.27 36.6653 182.14 40.4767 182.01 44.2875H181.774C181.622 41.5275 181.471 38.7672 181.32 36.0066H181.012V37.4986C181.012 42.0345 181.026 46.5695 181.001 51.1054C181.001 51.8848 180.827 52.6642 180.733 53.4436C180.697 53.5408 180.697 53.6474 180.733 53.7447C180.684 53.9006 180.635 54.0564 180.5 54.495C180.411 53.9306 180.37 53.6827 180.337 53.43V39.2365H179.997V46.128C179.521 42.963 180.132 39.7477 179.198 36.6243C179.089 39.7225 179.107 42.8207 179.076 45.9111C179.071 46.5133 178.881 47.1146 178.783 47.7158C178.783 46.2906 178.849 44.8606 178.763 43.4403C178.58 40.408 178.318 37.3805 178.089 34.35C177.905 34.5524 177.809 34.8172 177.819 35.0888C177.723 41.3058 177.63 47.5225 177.539 53.7389L177.422 55.0943H177.248C177.211 54.5434 177.179 53.9916 177.145 53.4397V42.721H176.805V44.8664L176.452 44.8606C176.342 40.2134 176.23 35.5661 176.117 30.9188H175.888V46.1996H175.582V34.7334L175.277 34.7286V37.9236C174.971 37.4744 174.865 37.2856 174.743 37.0968L174.394 37.09V42.9349L174.113 42.9098C173.959 41.9551 173.795 40.9995 173.643 40.0439C173.535 40.0526 173.447 40.0614 173.307 40.0701V47.1378H172.967V33.8476L172.627 33.8543V36.3155C172.56 36.3155 172.53 36.3087 172.48 36.3048C172.306 34.5079 172.132 32.7106 171.958 30.913H171.737V32.4747C171.737 36.7492 171.749 41.0228 171.722 45.2973C171.722 45.8995 171.526 46.4998 171.415 47.101L171.403 42.3714L170.958 42.3589C170.77 43.8537 170.583 45.3489 170.397 46.8444C170.312 46.8386 170.216 46.8338 170.148 46.828V42.2901L169.952 42.2553C169.863 42.5157 169.773 42.7761 169.684 43.0376H169.447C169.22 38.6911 168.992 34.3452 168.762 30C168.672 34.8119 168.676 39.6102 167.318 44.2129C167.281 43.9447 167.22 43.5701 167.128 42.8923C166.932 44.394 166.781 45.5664 166.612 46.7379V32.9084H166.068V45.5422H165.626V37.852C165.219 41.047 165.707 44.3165 164.477 47.3092C164.325 42.9524 164.177 38.4881 164.022 34.0451H163.69V44.5595H163.351V40.7749L163.206 40.7817C163.037 42.5812 162.869 44.3804 162.7 46.1793C162.45 45.6526 162.487 45.1337 162.44 44.6225C162.393 44.1113 162.266 43.6233 162.173 43.1237L161.813 43.1528C161.652 43.662 161.489 44.1713 161.324 44.6806L161.014 44.6738C160.93 43.3441 160.846 42.0145 160.763 40.6849C160.522 42.6212 160.546 44.5499 160.51 46.4794C160.498 47.0884 160.328 47.6945 160.231 48.3016C160.116 42.8843 159.999 37.4673 159.88 32.0506C159.862 31.786 159.83 31.5225 159.782 31.2615L159.54 31.279V45.518H159.36C159.244 41.6001 159.13 37.6812 159.016 33.7614L158.657 33.7672V53.4465C158.622 53.5425 158.622 53.6477 158.657 53.7437C158.608 53.9064 158.56 54.07 158.42 54.5299C158.33 53.949 158.289 53.6895 158.249 53.4349C158.262 52.1172 158.283 50.7995 158.286 49.4808C158.286 47.5299 158.223 45.5771 158.297 43.6281C158.374 41.6395 156.769 40.0943 156.894 38.1095C156.899 38.0185 156.691 37.9159 156.351 37.6254V46.8231H156.09C155.929 42.9969 155.769 39.1713 155.609 35.3463H155.522C155.352 38.6239 155.184 41.9009 155.018 45.1772L154.725 45.1676V31.2257H154.529C154.36 34.3026 154.19 37.3795 154.005 40.7401C153.809 39.2645 153.659 38.0882 153.506 36.9119C153.386 35.6532 153.774 34.3258 152.788 32.8232V43.5701L152.516 43.5652V33.4893L152.329 33.4796C152.162 35.5006 151.995 37.5208 151.826 39.5405L151.672 39.5511C151.597 39.1096 151.522 38.6678 151.447 38.2257C151.193 39.25 151.545 40.4428 151.11 41.199C150.464 42.3317 150.633 43.4132 150.607 44.5237C150.558 46.6866 150.613 48.8515 150.587 51.0163C150.58 51.5808 150.432 52.1433 150.348 52.7078C150.326 51.1819 150.338 49.6551 150.269 48.1312C150.201 46.6421 150.057 45.1579 149.942 43.6707L149.62 43.6901V48.3848L149.432 48.3926C149.253 46.8906 149.074 45.3886 148.896 43.8866L148.67 43.8983V49.3733H148.493C148.332 46.3784 148.173 43.3835 148.014 40.3886H147.685V44.9139L147.48 44.9023C147.428 44.6999 147.373 44.4966 147.321 44.2943C147.243 43.6717 147.175 43.0472 147.08 42.4276C146.983 41.7596 146.844 41.0944 146.727 40.4283C146.608 40.4409 146.496 40.4525 146.36 40.4651V45.7901L146.24 45.7775C146.079 43.2764 145.919 40.7752 145.761 38.2741C145.479 41.9716 145.5 45.6584 145.468 49.3433C145.468 49.8691 145.236 50.3928 145.134 50.9176V41.4178H144.908C144.868 42.173 144.826 42.9281 144.767 44.0319C144.564 43.4171 144.474 43.1605 144.389 42.8952L144.123 42.9049C143.916 45.479 143.708 48.0531 143.499 50.6271L143.187 50.661C142.945 49.4537 142.705 48.2464 142.441 46.9296L142.075 47.9946C141.894 44.7028 141.731 41.6298 141.562 38.5568L141.33 38.5645V44.8674C139.87 44.8297 140.696 43.451 140.141 42.8342C140.015 42.9756 139.825 43.0879 139.824 43.2021C139.792 46.614 139.778 50.0259 139.762 53.4378C139.721 53.9625 139.679 54.4873 139.638 55.012L139.458 54.9965L139.36 53.4378C139.364 48.8447 139.364 44.2523 139.36 39.6605C139.36 39.5163 139.262 39.3701 139.195 39.2307C139.164 39.1883 139.12 39.157 139.07 39.1416C138.966 39.1133 138.861 39.0923 138.755 39.0787C138.755 41.3655 138.775 43.6291 138.741 45.883C138.731 46.4891 138.55 47.0933 138.447 47.6984C138.441 46.4882 138.497 45.2731 138.4 44.0706C138.351 43.4703 138.015 42.8923 137.813 42.3037C137.671 42.3356 137.519 42.3676 137.385 42.4005V47.7768C137.257 47.6529 137.172 47.4924 137.142 47.3179C137.101 47.2041 137.051 47.0937 136.993 46.9877L136.762 47.0081L136.401 50.5787L136.31 50.5652C136.146 48.3429 135.983 46.1212 135.821 43.9002C135.559 46.159 135.581 48.41 135.546 50.6601C135.536 51.2623 135.35 51.8606 135.245 52.4599L134.952 43.9147L134.486 43.8983C134.415 44.9607 134.344 46.0221 134.271 47.0826C133.359 46.9432 133.654 46.2113 133.641 45.7049C133.598 44.1723 133.625 42.6377 133.625 41.1031L133.167 41.0857C133.079 42.3637 132.992 43.6414 132.906 44.9187H132.698V39.1639H132.417C132.251 42.6493 132.085 46.1322 131.919 49.6125L131.846 49.6038C131.687 46.4294 131.529 43.2544 131.371 40.0788L130.908 40.0594C130.553 42.0781 130.931 44.1665 130.419 46.1958V43.3164L130.223 43.3222C130.112 45.2315 130.008 47.1407 129.898 49.05L129.47 49.0354V42.0161C129.029 44.1665 129.079 46.3855 128.178 48.4061C128.058 48.3916 127.943 48.378 127.807 48.3635V45.2121C127.636 44.6389 127.343 44.0783 127.252 43.4907C127.079 42.3792 127.011 41.2513 126.9 40.1311C126.619 40.5948 126.629 41.4091 126.459 41.4468C125.199 41.7315 125.728 42.6299 125.687 43.3319C125.532 43.3774 125.244 43.4742 125.239 43.4616C125.037 42.9398 124.735 42.415 124.703 41.8757C124.627 40.5697 124.679 39.2558 124.679 37.9449C124.575 38.0094 124.49 38.1005 124.434 38.2085C124.378 38.3165 124.352 38.4374 124.359 38.5587C124.337 39.9287 124.723 41.472 124.215 42.6319C123.281 44.7851 123.452 46.9471 123.379 49.1313C123.366 49.5563 123.25 49.9785 123.183 50.4025C123.039 50.3919 122.916 50.3812 122.746 50.3706V44.2846L122.474 44.2904V53.4339H122.067V49.8758C121.829 50.3812 121.76 50.5216 121.599 50.8566C121.388 49.598 121.208 48.501 121.026 47.4079C120.942 47.4147 120.844 47.4215 120.776 47.4283V50.5681C120.505 49.2998 120.56 48.0382 120.499 46.7825C120.441 45.5984 120.776 44.3514 120.253 43.2254L119.862 43.2506V46.8193H119.682C119.365 44.7209 119.05 42.6232 118.735 40.5261L118.571 40.5348V46.4988C118.265 45.5703 118.332 44.636 118.265 43.7095C118.202 42.8255 118.015 41.9503 117.847 40.8417C117.169 43.1015 118.434 45.367 116.821 47.3653C116.713 46.9248 116.637 46.6218 116.572 46.3594C115.421 47.7313 115.747 49.3443 115.715 50.8973C115.699 51.7405 115.703 52.5848 115.697 53.4291C115.604 53.4408 115.509 53.4338 115.419 53.4087C115.128 51.666 114.837 49.9249 114.545 48.1854L114.153 48.1912V52.4512L113.746 52.4405V44.5886H113.569C113.328 45.6355 113.085 46.6799 112.841 47.7216C112.826 47.407 112.939 46.9732 112.776 46.7951C111.994 45.9527 112.306 44.9381 112.176 43.9873C112.066 43.1828 111.725 42.4111 111.573 41.6075C111.481 41.1235 111.557 40.6113 111.557 40.1117L111.191 40.0846C111.101 40.68 110.946 41.2755 110.934 41.8738C110.894 43.9815 110.903 46.0902 110.886 48.1989C110.886 48.259 110.781 48.319 110.776 48.3229L109.873 47.2201C109.589 48.501 109.393 49.4101 109.166 50.4325C108.983 49.1148 108.813 47.922 108.648 46.7292C108.538 46.737 108.453 46.7447 108.313 46.7534V49.9852H108.008V46.7805L107.857 46.7864C107.719 47.6422 107.585 48.4991 107.447 49.3549L107.023 49.3065V46.4872L106.827 46.4959C106.776 47.1223 106.729 47.7487 106.683 48.3751C106.585 48.3703 106.48 48.3655 106.411 48.3606V45.1927L106.191 45.1976C106.145 45.946 106.094 46.6934 106.048 47.4418C105.786 46.189 105.662 44.942 105.446 43.7114C105.405 43.4752 104.993 43.3019 104.754 43.1005C104.607 43.3261 104.46 43.5507 104.307 43.7869C104.102 43.389 103.905 43.0124 103.709 42.6251C103.637 42.6396 103.559 42.6551 103.491 42.6706V47.4099L103.306 47.4041C103.258 46.9645 103.21 46.5249 103.163 46.0854C102.271 48.5058 102.693 50.9883 102.636 53.4436C102.6 53.5404 102.6 53.6469 102.636 53.7437C102.605 54.4744 102.572 55.2054 102.538 55.9367C102.435 55.1021 102.331 54.2678 102.228 53.4339V45.337L101.745 45.3099C101.685 46.451 101.624 47.5922 101.564 48.7334L101.425 48.7237C101.346 48.4623 101.266 48.2009 101.157 47.8426C101.025 48.2212 100.937 48.4797 100.847 48.7392L100.631 48.7101V42.02C100.533 42.0074 100.451 41.9939 100.361 41.9813C99.9258 43.2722 99.4903 44.566 99.0547 45.8627C98.0043 43.7521 98.7329 41.3936 98.3124 39.068C98.1051 39.738 97.9271 40.3005 97.753 40.862L97.4439 40.8156V35.9911L97.0703 35.9679C96.9911 36.6127 96.8493 37.2575 96.8454 37.9042C96.8219 41.3365 96.8346 44.7677 96.8346 48.1999V49.6222C96.7368 49.6222 96.5969 49.6154 96.461 49.6115V40.4225H96.3153C96.1637 43.5207 96.0219 46.6189 95.8595 49.8419C94.3397 49.0509 95.2649 47.7119 94.7465 46.7728C94.5451 47.3537 94.3553 47.8717 94.1734 48.3945C94.0883 48.3848 94.0159 48.3761 93.9142 48.3674V42.964L93.7049 42.9494C93.3861 43.5855 93.0643 44.2226 92.6232 45.1191V42.3424C91.1963 42.4934 92.0824 41.1244 91.6452 40.7933C91.3381 40.8311 90.9802 40.8901 90.9763 40.8746C90.8785 40.4176 90.7807 39.9549 90.7679 39.4901C90.7406 38.339 90.7591 37.1859 90.7591 36.0337L90.5508 36.0444C90.3797 37.7387 90.2075 39.433 90.0217 41.2726L89.5327 40.498C89.3635 43.9922 89.2051 47.2753 89.0437 50.5565L88.8764 50.5487C88.8484 49.9323 88.8204 49.3153 88.7923 48.6975L88.5967 48.6917C88.553 49.5496 88.5087 50.4067 88.4637 51.2632H88.2681C88.2212 50.5042 88.1739 49.7454 88.1263 48.987H87.8681V52.1569H87.5278V44.9613L87.338 44.971C87.1659 46.8377 86.9924 48.7046 86.8177 50.572L86.6955 50.5555C86.0813 46.0321 85.4645 41.5088 84.845 36.9854H84.6338V49.9484C84.5416 49.876 84.4679 49.7831 84.4185 49.6774C84.369 49.5716 84.3453 49.4559 84.3492 49.3395C84.239 43.8595 84.1308 38.3799 84.0245 32.9007C84.0176 32.5754 83.9648 32.251 83.9325 31.9257C83.7125 33.2483 83.7252 34.5601 83.7047 35.8711C83.6988 36.2244 83.6225 36.8712 83.5208 36.8818C82.3902 37.0077 82.7707 37.85 82.7658 38.4309C82.7384 41.9677 82.754 45.5054 82.7472 49.0432C82.7472 49.4421 82.7012 49.841 82.6758 50.2399C82.4313 49.6996 82.4518 49.1749 82.4254 48.6549C82.399 48.135 82.3276 47.6432 82.2719 47.1378L81.8484 47.1804V50.9069C80.0488 48.7072 81.2713 46.3429 80.5584 44.2788V53.4339C80.5241 54.0816 80.485 54.7293 80.4478 55.377H80.2522C80.2223 54.7271 80.1884 54.0794 80.1505 53.4339C80.1593 51.696 80.3285 49.9484 80.043 48.2299L79.642 48.2396C79.5872 48.6172 79.5285 48.9948 79.4728 49.3714L79.1989 49.3511V40.4041H78.928V43.0259L78.7471 43.0308C78.5867 42.0626 78.4322 41.1041 78.2718 40.1407L77.9422 40.1756V43.9322H77.7544C77.5842 40.5706 77.4121 37.2088 77.238 33.8466L76.9573 33.8572V44.577C76.3803 42.8265 77.1412 40.9143 76.127 39.2345C76.0291 42.1391 76.0468 45.0436 76.0174 47.9395C76.0115 48.4923 75.8296 49.0442 75.7299 49.596C75.6751 49.1862 75.6207 48.7769 75.5665 48.3684C74.5083 50.1353 74.8056 51.9681 74.7792 53.766C74.6472 53.6556 74.5122 53.5452 74.3763 53.4339V42.7181H74.1113C73.9645 44.1819 73.8149 45.6468 73.6623 47.1126H73.5508L73.3807 45.2043L73.2154 45.2169C73.1763 45.976 73.1375 46.7354 73.099 47.4951L72.8564 47.6132C72.7498 47.3227 72.6452 47.0323 72.5386 46.7486C72.4154 46.829 72.2735 46.9103 72.1718 46.9906V49.3143L71.9058 49.323C71.645 45.5432 71.3862 41.7634 71.1293 37.9836C71.0481 37.9836 70.9493 37.9904 70.8818 37.9943V45.8598H70.6432V42.8168C70.1004 42.4702 69.763 42.2359 69.3189 41.9571V49.5922C69.0471 48.0198 68.7918 46.4475 68.514 44.7696C68.0592 46.0883 68.7752 47.5135 67.6886 48.6327V39.83C67.4167 40.5871 67.6827 41.6366 67.2749 42.051C66.4925 42.8488 66.5335 43.692 66.4993 44.5963V48.5659C64.7672 48.2038 65.891 46.8338 65.2435 46.0099C65.1829 46.8725 65.1262 47.6335 65.0724 48.3945L64.733 48.381C64.6264 44.9846 64.5188 41.5882 64.4279 38.6778L62.6029 50.6659L62.373 50.6436C62.3 50.0691 62.226 49.4947 62.151 48.9202L61.7138 48.9135L61.5994 53.7708L61.3745 53.7457C61.3402 53.6488 61.305 53.5472 61.2708 53.4475C61.2434 51.9255 61.5329 50.3754 61.0967 48.8883L60.6908 48.8999V52.5248L60.3857 52.517V49.7635C59.9104 49.9359 59.614 50.054 59.2561 50.1886C59.1172 49.5292 58.9959 48.9667 58.8776 48.4032L58.5314 48.4342C58.4746 49.3569 58.412 50.2805 58.3358 51.5053C57.7978 49.9775 58.5842 48.5572 57.3959 47.4544V49.626L57.2003 49.6164C57.1651 49.0664 57.1318 48.5155 57.0966 47.9646L56.813 47.9337C56.5528 49.2368 56.2937 50.539 56.0306 51.8751L55.1132 51.5062C54.9988 51.9613 54.9058 52.3292 54.812 52.6981C54.7406 52.5867 54.6692 52.4754 54.5968 52.365L53.8907 52.5955C53.5777 52.2159 53.3479 51.6631 53.0163 51.5963C52.4618 51.483 52.3141 50.3096 51.4965 51.0318C51.0642 49.6987 50.3708 50.6281 50.0108 50.9767C48.9722 51.9855 48.0685 52.6836 47.245 52.8239L46.223 51.7667L45.8063 52.4919C44.6718 51.9109 44.354 51.9623 43.063 52.395C42.2444 52.6681 41.3348 52.9275 40.4986 52.8491C38.6081 52.6739 36.7518 52.7688 34.8828 53.0118C34.3546 53.0754 33.8199 53.0653 33.2945 52.9818C32.204 52.8162 31.1428 52.4831 30.0416 53.0253C29.7893 53.1434 29.3394 52.8859 29 52.8026V54.069C30.5648 54.5667 32.0984 54.5783 33.6945 54.1658C34.3879 53.9848 35.1684 54.0787 35.9039 54.1329C36.2383 54.1581 36.7068 54.3004 36.8516 54.5434C37.234 55.1853 37.7474 54.9704 38.2355 54.8813C39.4815 54.6528 40.7196 54.3808 41.9627 54.1378C42.6473 54.0042 43.1715 54.1252 43.5178 54.862C43.6547 55.1524 44.398 55.5097 44.5183 55.4138C45.4181 54.6809 46.5447 55.6501 47.4416 54.9733C47.5589 54.8842 48.0079 55.225 48.1203 55.2783L49.7135 53.8483C50.1047 54.9743 50.3884 55.8021 50.6915 56.6725C50.7375 56.2968 50.7835 55.9202 50.8637 55.2609C51.0299 55.7905 51.1062 56.0296 51.2079 56.353C51.6314 56.3181 52.2173 55.3528 52.5204 56.8584L52.7659 55.4777L53.0153 55.3219C53.031 55.5358 53.0515 55.7498 53.0681 55.9638C53.1522 55.9047 53.2217 55.8456 53.3234 55.7866V55.012C53.4936 55.6811 53.6608 56.351 53.9229 57.3773C54.1537 56.5776 54.2916 56.0916 54.5244 55.2822C54.5929 56.2571 54.6369 56.8932 54.675 57.4344L56.6311 55.1844C56.8648 56.1293 57.0751 57.0075 57.2922 57.8866L57.5025 57.8508V53.7728H57.6433L57.7832 53.7844C57.9631 55.1524 57.434 56.6154 58.4874 57.8866V55.2822H58.6125C58.7739 56.5728 58.9343 57.8633 59.1104 59.2643C59.4546 58.1644 59.7412 57.2437 60.0287 56.3239C60.1823 57.5893 60.3407 58.8557 60.4943 60.1211H60.6899V56.8971L60.8855 56.8913C61.0641 58.0531 61.2424 59.2149 61.4204 60.3767C61.616 59.394 61.5759 58.4171 61.6307 57.4451C61.6767 56.6376 61.8371 55.8369 61.9476 55.0333C62.1236 56.2591 61.4351 57.6716 62.777 58.6824C62.9775 57.9911 63.1682 57.3095 63.3638 56.6279C63.4479 56.6415 63.5408 56.655 63.6083 56.6676V61.4505C64.5931 60.2334 63.889 58.8093 64.3672 57.3763C64.5579 59.4308 64.735 61.3275 64.911 63.2232L65.2044 63.2067V60.0776L65.5095 60.0844V64.2417H65.8157V59.4483H66.0602C66.0973 59.9991 66.1325 60.55 66.1697 61.1009C66.4357 60.4929 66.3986 59.8839 66.4436 59.2798C66.5091 58.4084 66.6304 57.5371 66.737 56.6657V63.5766H67.1644C67.2296 60.1996 67.2948 56.8225 67.36 53.4455C67.4001 53.1067 67.4411 52.7678 67.4812 52.4309H67.6583L67.7561 53.4184C67.8294 56.7102 67.4157 60.0234 68.2627 63.2832C68.343 62.7745 68.3757 62.2595 68.3605 61.7448C68.3605 59.3243 68.3546 56.8952 68.3693 54.4699C68.3693 54.0119 68.4573 53.5549 68.5052 53.0979C68.5688 53.1582 68.628 53.2229 68.6823 53.2916C68.7063 53.3384 68.7225 53.3887 68.7302 53.4407C68.813 55.1389 68.8958 56.8364 68.9786 58.5333H69.2133C69.3952 57.2605 69.5762 55.9876 69.7561 54.7148L70.0388 54.738V61.4698C70.4124 60.1231 70.7439 58.9729 71.0373 57.934C71.543 59.5925 72.0691 61.3227 72.5963 63.0538C72.9445 62.5549 73.1366 61.9657 73.1489 61.3594C73.1851 60.0417 73.1352 58.7202 73.1821 57.4025C73.2095 56.6337 73.368 55.8679 73.4697 55.1011V66.0852H73.7181C73.8892 63.5485 74.0526 61.0109 74.2237 58.4743H74.4545V63.5417H74.8047C74.9005 61.2465 74.9983 58.9513 75.0981 56.656C75.3602 57.9088 75.6242 59.1617 75.9069 60.5094C76.0546 58.0734 76.1944 55.7488 76.3353 53.4242C76.3731 52.9079 76.4116 52.3915 76.4507 51.8751L76.6297 51.8848C76.6603 52.4012 76.6929 52.9175 76.7275 53.4339V64.8681C77.1695 62.8446 76.8898 60.7931 77.5558 58.7483C78.0898 57.1023 77.9011 55.2318 78.0331 53.461L78.1241 53.4659H78.216C78.2385 55.1515 78.2365 56.839 78.3011 58.5236C78.3177 58.9593 78.4527 59.6922 78.6923 59.7619C79.4063 59.9711 79.2243 60.4494 79.2322 60.8734C79.2527 61.982 79.239 63.0915 79.239 64.2011L79.4659 64.1807L79.6615 63.5175L79.9843 63.5466V71.8391H80.4596V60.1318L80.8674 60.1395V69.5861L81.0865 69.6016C81.3916 67.5761 81.6948 65.5507 81.9951 63.564L82.4362 64.2843C82.6083 62.6984 82.7501 61.3798 82.8929 60.0679H83.0093C83.0523 60.9283 83.095 61.7887 83.1374 62.6491C84.0176 59.6012 83.6323 56.5079 83.6822 53.4358L83.78 51.4849H83.9756L84.0734 53.4416C84.1213 56.4111 84.1771 59.3805 84.224 62.3489H84.7003V55.3006H85.0054V63.5514L85.3712 63.5611C85.4993 61.9733 85.6196 60.3864 85.7477 58.7996H85.9571V66.0784H86.1781C86.2436 65.5594 86.3189 65.0395 86.3844 64.5206L86.67 64.5399V68.8968L86.7864 68.8784C86.937 67.9383 87.0798 66.9981 87.2295 66.058L87.5874 66.0861V68.9248L87.9268 68.919V64.4586C88.1644 64.9737 88.2534 65.1499 88.3542 65.3609L88.6916 64.6319L88.9772 65.3474L89.3361 65.3232C89.6608 62.0546 89.3537 58.7589 89.5034 55.4826C89.6012 56.0373 89.7684 56.5911 89.7752 57.1479C89.8056 59.5092 89.788 61.8706 89.788 64.232C90.9029 61.311 90.14 58.2584 90.5811 54.9627C91.0858 57.5922 90.2711 60.0166 91.3577 62.2608V49.658L91.7655 49.6638V63.5253L92.1205 63.532C92.2509 61.7829 92.3849 60.0334 92.5225 58.2835C93.3186 59.6225 92.5127 61.1474 93.6678 62.7275V57.8798C93.9387 59.1384 93.9074 60.3971 93.9837 61.6489C94.057 62.8475 93.5993 64.1226 94.5842 65.2312V61.6431C95.5358 64.1149 95.5915 66.6845 95.573 69.2637L95.9094 69.2492V64.2466C96.1813 64.7752 96.3241 65.0114 96.5735 65.4723C96.7075 65.0201 96.8062 64.8323 96.8121 64.6435C96.9236 60.9102 97.0279 57.1769 97.1251 53.4436L97.5163 53.7515C97.5779 57.0365 97.1358 60.3448 98.1207 63.5998V56.5989H98.4268V66.4627C98.5628 66.4676 98.7202 66.4715 98.8689 66.4753C99.0156 62.9647 99.1721 59.4541 99.3188 55.9434L99.7511 55.9551V63.9087H99.8958C100.024 63.4652 100.149 63.0208 100.277 62.5765C100.398 62.591 100.498 62.6055 100.634 62.62V67.398H101.008V60.6953L101.265 60.6904C101.305 61.2378 101.346 61.7864 101.386 62.3363H101.653V59.4318L101.96 59.4366V69.8698H102.363C102.438 66.729 102.508 63.5882 102.605 60.4484C102.624 59.8346 102.775 59.2236 102.877 58.6088V64.8585L103.131 64.8633C103.453 63.0567 103.773 61.251 104.12 59.305C104.177 60.3806 104.232 61.3381 104.283 62.3063L104.577 62.2928V55.9512H104.849V66.4385L105.098 66.454C105.349 64.8443 105.6 63.2342 105.851 61.6238L106.074 61.6596C106.108 61.9723 106.141 62.285 106.172 62.5978C106.278 63.4546 106.378 64.3124 106.485 65.1692L106.778 65.1499V60.1047C107.355 63.5669 106.608 67.0911 107.729 70.5175V66.4511C108.001 66.8268 108.09 66.971 108.344 67.3457C108.344 64.8875 108.327 62.6888 108.363 60.49C108.371 59.9401 108.558 59.394 108.667 58.8441C108.829 61.6199 108.098 64.5225 109.959 67.3302C110.52 63.503 111.031 59.911 111.545 56.4721V63.9174H111.71C111.875 62.8524 112.038 61.7874 112.199 60.7224C113.029 61.1097 112.777 61.8697 112.838 62.5232C112.911 63.3065 112.996 64.0888 113.073 64.872L113.546 64.8391V57.6281L113.851 57.6368V68.5937C114.225 67.6875 114.34 66.7658 114.444 65.846C114.485 65.4946 114.536 65.1441 114.584 64.7926C114.647 64.8539 114.706 64.9185 114.762 64.9863C114.786 65.0328 114.804 65.0827 114.814 65.1344C115.022 66.637 115.23 68.139 115.438 69.6403L115.67 69.62L115.776 68.2645H115.912C116.01 68.6876 116.115 69.1107 116.214 69.5348L116.605 69.5203V60.4377H116.893C117.061 63.7024 117.22 66.9672 117.389 70.2319H117.658V57.2369C118.1 59.122 117.755 61.0651 118.265 62.9279C119.068 60.3138 117.828 57.4722 119.56 54.6983V63.6056H119.866V61.3081L120.044 61.2936C120.234 61.9707 120.423 62.6484 120.612 63.3268L120.795 63.3007L120.918 60.7834H121.346C121.53 63.0928 121.714 65.4019 121.897 67.7107H122.108V64.143C122.278 64.1294 122.419 64.1168 122.572 64.1033C122.674 65.2993 122.776 66.4934 122.877 67.6856L123.049 67.6701C123.212 65.451 123.375 63.2319 123.539 61.0128H123.601C123.724 62.5987 123.855 64.1846 123.979 65.7705L124.454 65.7434V60.1144L124.726 60.1221V64.3124L125.123 64.3473C125.313 62.3883 125.503 60.43 125.694 58.4723L125.89 58.4801C126.057 60.796 126.227 63.1157 126.399 65.4394L126.554 65.4326V53.4339C126.554 52.6903 126.549 51.9468 126.549 51.2071C126.684 51.9506 126.818 52.6949 126.951 53.4397C126.951 54.8097 126.915 56.1806 126.945 57.5496C126.975 58.9187 126.787 60.3022 127.114 61.7632C127.538 61.434 127.776 61.2549 128.252 60.8831V69.5629H128.558V64.8488L128.837 64.8372C129.109 66.2275 129.382 67.6175 129.655 69.0071C130.389 66.9575 130.037 64.8556 130.101 62.7846C130.165 60.7137 130.116 58.6611 130.116 56.5989L130.44 56.6037C130.44 59.2294 130.425 61.8561 130.453 64.4818C130.459 65.0424 130.625 65.602 130.719 66.1616L131.105 66.1171V60.0747C131.683 63.2387 131.683 63.2387 132.362 63.9706V53.7689L132.515 53.7505L132.668 53.7641V66.4327L133.195 66.4511C133.483 63.5166 133.2 60.5384 133.379 57.5952L133.722 57.6058V61.3817L133.959 61.3672V60.1289C134.84 60.0108 134.546 60.6798 134.582 61.0729C134.747 62.7614 134.884 64.4538 135.04 66.2894C135.236 65.5052 135.388 64.873 135.543 64.2408C135.824 65.7899 136.108 67.3448 136.36 68.7351L137.16 64.1846C137.267 63.715 137.441 63.2503 137.467 62.7769C137.515 61.8697 137.489 60.9586 137.489 60.0495H137.831V63.3094L137.97 63.3026C138.128 62.2376 138.273 61.1803 138.443 60.1192V69.8611H138.802C138.936 66.7242 139.069 63.5872 139.201 60.4503H139.462V68.2626L139.612 68.2539C139.724 66.7693 139.836 65.2832 139.948 63.7954H140.241L140.446 64.6106C140.702 63.7944 140.987 62.8843 141.272 61.9752L141.416 60.368C141.777 62.9666 142.044 65.5449 142.318 68.1222C142.325 68.188 142.407 68.2461 142.508 68.3797C142.576 67.8511 142.632 67.4193 142.688 66.9875C142.778 66.9933 142.859 67.0001 142.961 67.0059V75.278C143.233 74.6555 143.214 74.031 143.237 73.4085C143.335 70.6269 143.393 67.8424 143.573 65.0657C143.682 63.3994 143.986 61.7458 144.202 60.0873C144.365 61.677 144.528 63.2671 144.691 64.8575C144.737 64.8575 144.797 64.8652 144.83 64.8691V61.9646H145.204V67.032L145.51 67.0194V59.7929C146.088 61.4388 145.374 63.2474 146.39 65.1131V50.6107L146.798 50.6223V64.5322L146.986 64.539C147.056 64.1856 147.128 63.8332 147.235 63.2968C147.384 63.7654 147.465 64.0026 147.54 64.2398C147.63 64.2204 147.715 64.2001 147.817 64.1807V58.8848L147.93 58.8964C148.097 61.4137 148.263 63.9309 148.428 66.4482L148.595 66.4318C148.664 66.2013 148.733 65.9709 148.802 65.7405L149.039 65.7492V70.319C149.137 70.3268 149.215 70.3355 149.303 70.3432C149.477 69.9792 149.645 69.6151 149.818 69.2521L150.024 69.2898V74.9489C151.009 69.286 150.328 63.5776 150.938 57.9088C151.079 61.3846 151.22 64.861 151.363 68.3381C152.565 63.411 152.116 58.4133 152.153 53.4387C152.193 52.9869 152.232 52.5316 152.272 52.0726H152.448C152.488 52.5277 152.538 52.9818 152.572 53.4368V68.9529H152.865C152.978 66.1336 153.09 63.3149 153.2 60.4968C153.896 59.6942 153.284 58.3668 154.405 57.6687C154.645 57.5187 154.492 56.747 154.52 56.262C154.755 58.909 154.748 61.5405 154.759 64.172C154.753 64.8563 154.783 65.5404 154.849 66.2217C155.24 69.8107 155.68 73.3949 156.023 76.9879C156.149 78.3143 156.049 79.662 156.049 81H156.38V74.2963C156.414 74.2963 156.493 74.2915 156.552 74.2886C156.645 74.5422 156.734 74.7949 156.826 75.0476L157.035 75.0186L157.44 62.6549L157.704 62.6607V69.2869L157.802 69.2724C158.216 66.6467 158.632 64.0213 159.049 61.3962C159.13 61.403 159.193 61.4098 159.296 61.4156V67.3757H159.566V55.0072H159.756C159.92 59.1317 160.083 63.2558 160.245 67.3796L160.548 67.3738V61.7487C161.941 63.138 161.384 64.6881 161.457 66.1055C161.534 67.5849 161.471 69.071 161.471 70.5543H161.815V64.1643L162.056 64.1585C162.252 65.9541 162.447 67.7501 162.643 69.5464C162.796 69.5338 162.936 69.5212 163.108 69.5086V62.622C163.206 62.622 163.347 62.6278 163.449 62.6316V73.088H163.599C163.722 71.4789 163.845 69.8701 163.969 68.2616L164.311 68.2849C164.349 68.8367 164.388 69.3886 164.428 69.9405L164.643 69.9356C164.675 69.2743 164.71 68.6131 164.741 67.9518H165.009V70.8738L165.139 70.867C165.506 67.8844 165.875 64.9014 166.244 61.9181L166.635 61.9539V64.5845H166.941V57.023C167.039 58.1073 167.2 59.1898 167.221 60.2751C167.264 62.5474 167.237 64.8207 167.237 67.094H167.472L167.992 59.7668L168.146 59.7736C168.188 60.4358 168.233 61.0971 168.275 61.7593L168.569 61.7525V56.9194L168.916 56.9252C169.033 59.0416 169.15 61.1574 169.266 63.2726H169.426C169.463 62.7226 169.5 62.174 169.537 61.6267H169.694L170.202 70.6385C171.347 66.9836 170.972 63.2067 171.116 59.4773L171.456 59.4909V74.9479C171.762 73.4201 171.518 71.8497 171.794 70.379C172.381 67.2257 171.774 64.0287 172.564 60.8444C173.119 58.6069 172.649 56.1206 172.637 53.7447C172.675 53.6485 172.677 53.5421 172.643 53.4445C172.68 52.6961 172.726 51.9487 172.763 51.2003L173.019 51.208V52.608C173.019 57.3476 173.019 62.0875 173.019 66.8277C173.019 67.2431 173.002 68.0022 173.109 68.0225C174.541 68.2994 173.906 69.4031 173.936 70.1225C174.023 72.1624 173.965 74.2082 173.965 76.252L174.278 76.2578V74.6023C174.278 69.4386 174.278 64.2769 174.278 59.1171C174.278 57.4315 174.278 55.7459 174.298 54.0613C174.298 53.8105 174.454 53.5627 174.537 53.3138C174.571 53.3545 174.611 53.3942 174.644 53.4349C174.401 56.4527 174.923 59.3718 175.975 62.2453V59.8152C176.009 59.82 176.051 59.8239 176.092 59.8278C176.253 64.4318 176.41 69.0355 176.565 73.6389L176.858 73.6321V57.5245H177.164V75.92C177.533 74.065 177.739 72.182 177.781 70.2919C177.845 67.4425 177.781 64.5903 177.811 61.7399C177.817 61.189 178.006 60.6411 178.12 60.094C178.325 61.8184 177.533 63.7112 179.134 65.3929V62.0924C179.232 62.6529 179.379 63.2135 179.387 63.776C179.42 65.7279 179.355 67.6817 179.416 69.6316C179.468 71.3056 179.635 72.9747 179.754 74.6468L180.086 74.6323V56.6405H180.357V58.36C180.357 63.5834 180.349 68.8057 180.375 74.0291C180.375 74.7707 180.571 75.5114 180.669 76.2559L180.996 76.2259V74.6623C180.996 70.653 180.962 66.6428 181.028 62.6345C181.042 61.7884 181.425 60.948 181.638 60.1047C181.745 62.6355 181.853 65.1663 181.962 67.6972L182.142 67.6768C182.286 66.5557 182.43 65.4349 182.575 64.3143C182.725 65.7647 182.876 67.2147 183.028 68.6644L183.154 68.6915C183.209 68.2281 183.264 67.7649 183.319 67.3022H183.618L184.01 70.8593C184.205 69.1717 184.146 67.4958 184.216 65.8247C184.286 64.1788 183.876 62.4864 184.625 60.7398C185.637 62.2182 184.82 63.8138 185.391 65.206C185.488 64.6377 185.453 64.0684 185.499 63.5069C185.566 62.6926 185.695 61.8842 185.793 61.0729C185.904 65.2825 186.016 69.4922 186.128 73.7018C186.123 73.7541 186.124 73.8069 186.134 73.8587C186.219 74.0969 186.312 74.3312 186.402 74.5674L186.762 74.5142C186.762 72.6843 186.706 70.8515 186.779 69.0246C186.839 67.5306 186.377 65.9835 187.398 64.5603C187.751 64.0694 187.699 63.2474 187.711 62.5745C187.75 60.6227 187.717 58.6698 187.738 56.717C187.738 56.3607 187.873 56.0044 187.943 55.652C188.086 55.6665 188.237 55.6801 188.375 55.6946V66.3514L188.715 66.3456V61.0409L188.948 61.0293C189.224 63.1277 189.501 65.2254 189.777 67.3225C189.853 67.3157 189.937 67.3099 190.006 67.3031V56.2852C190.515 59.638 189.87 63.0576 190.923 66.3746V57.8701L191.188 57.8401C191.678 60.8666 192.167 63.8935 192.655 66.9207L193.041 66.9062C193.23 65.056 193.432 63.2067 193.617 61.3575H193.806V66.7619H194.164C194.299 63.7935 194.43 60.824 194.577 57.5952C194.766 59.0339 194.918 60.2092 195.072 61.3827L195.17 62.0256L195.337 61.9984C195.385 61.3711 195.433 60.744 195.48 60.1173L195.647 60.1328C195.891 63.067 196.134 66.0012 196.376 68.9355C196.458 68.9297 196.556 68.9239 196.623 68.9181V53.7408C196.661 53.6439 196.68 53.5408 196.68 53.4368L196.838 53.431L196.997 53.4407V68.8619H197.475C197.556 64.6929 197.636 60.5242 197.715 56.3559L197.856 56.3656C197.966 57.6565 198.075 58.9451 198.184 60.2315L198.498 60.2577C198.694 59.8588 198.891 59.4599 199.092 59.061L199.368 59.0678C199.468 61.1978 199.565 63.3262 199.662 65.4529H199.883V58.5372C199.981 59.0842 200.135 59.6274 200.185 60.1831C200.354 62.0275 200.489 63.8748 200.636 65.7201L200.778 65.7095L201.169 59.4918C201.334 59.8075 201.501 60.1231 201.814 60.7204C201.814 59.7377 201.76 59.0629 201.842 58.4055C201.874 58.147 202.214 57.9263 202.412 57.6881C202.584 59.6245 202.755 61.5608 202.924 63.4972H203.25V55.3867H203.691V65.7463L203.975 65.7627C204.148 64.4944 204.324 63.2271 204.498 61.952C204.625 62.0885 204.745 62.2134 204.889 62.3683C205.043 60.4319 205.194 58.5507 205.342 56.6744C206.059 56.5311 205.94 57.0617 205.95 57.449C205.985 58.7405 205.996 60.0321 206.015 61.3217C206.021 61.3739 206.033 61.4252 206.051 61.4747C206.079 61.5181 206.112 61.5581 206.149 61.5937C206.295 61.2065 206.555 60.8192 206.569 60.4222C206.619 58.9632 206.588 57.5003 206.588 56.0393C207.162 58.9574 206.542 61.9258 207.56 64.7994V58.8557L207.901 58.8509V63.4836L207.999 63.4556C208.286 61.0829 208.574 58.7095 208.862 56.3355L209.134 56.3568C209.294 57.6949 209.46 59.0339 209.623 60.3729H209.773V53.4445C209.773 53.0331 209.804 52.6216 209.822 52.2101C209.935 52.6216 210.046 53.034 210.16 53.4465C210.132 53.5433 210.132 53.6459 210.16 53.7428C210.147 56.2784 209.894 58.8306 210.612 61.4398C210.736 61.0525 210.825 60.7853 210.905 60.5181L211.126 60.5549V64.1497L211.455 64.1711C211.543 63.3626 211.65 62.5571 211.713 61.7506C211.835 60.1415 211.931 58.5294 212.039 56.9194L213.198 59.2914C213.274 57.8798 213.332 56.8041 213.393 55.7285C213.925 57.8188 213.014 60.0853 214.481 61.9859C214.844 60.3003 215.209 58.6079 215.654 56.5582C215.901 57.7723 216.074 58.5914 216.241 59.4037C216.36 59.3902 216.467 59.3776 216.603 59.364V55.1147C216.603 55.1205 216.636 55.1253 216.658 55.1311C216.905 57.4115 217.151 59.6919 217.396 61.9723H217.847C218.051 60.0953 218.255 58.22 218.457 56.3462C218.815 56.3762 218.999 56.3588 219.013 56.3985C219.242 57.0617 219.449 57.7326 219.759 58.7105C219.955 57.9447 220.084 57.4732 220.271 56.7451C220.499 59.4889 220.475 59.4889 221.799 59.4376V56.11L222.08 56.1003C222.246 56.8351 222.409 57.569 222.576 58.3029C222.742 58.7667 222.906 59.2294 223.114 59.8065C223.281 58.8267 223.415 58.0308 223.563 57.1633L224.507 58.2283C224.533 58.5188 224.556 58.8141 224.583 59.1055L224.823 59.0997V54.7429L225.128 54.7206C225.294 55.8728 225.463 57.0259 225.639 58.2448C225.743 58.0715 225.811 57.9456 225.893 57.8295C225.909 57.8082 225.983 57.8295 226.025 57.8295C226.123 58.1828 226.213 58.5391 226.307 58.8945L226.543 58.8683C226.728 57.8059 226.912 56.7441 227.096 55.683C227.365 56.8071 227.627 57.9321 227.896 59.0561H228.117V55.8844C228.253 55.8737 228.344 55.8631 228.455 55.8515C228.82 56.839 229.189 57.8256 229.556 58.817C231.003 57.9456 229.684 56.0954 230.855 55.0314C230.923 55.8505 230.99 56.6279 231.05 57.4054L231.433 57.3889C231.51 56.625 231.589 55.8611 231.647 55.2967C232.038 56.2349 232.473 57.2737 232.987 58.5043L234.147 56.0838C234.349 56.7451 234.465 57.1198 234.67 57.7869C234.745 56.8419 234.793 56.2484 234.866 55.3064C235.053 55.9115 235.127 56.1535 235.202 56.3994L235.875 56.0248L236.322 57.5661L237.548 56.6425C237.606 56.7983 237.699 57.0549 237.842 57.4548L239.357 55.8728C239.676 56.3568 239.982 56.8187 240.289 57.2824C240.387 57.266 240.472 57.2495 240.573 57.234V54.8136L240.769 54.8339C240.831 55.4913 240.892 56.1487 240.965 56.9165C241.995 55.9802 242.627 55.0517 242.476 53.7699L242.598 53.7602L242.721 53.767L243.369 57.3202C244.332 57.3396 244.672 56.9804 244.898 56.2503C245.061 55.7275 245.628 55.3277 246.072 54.7981L246.728 57.2853C248.227 56.534 249.022 55.529 249.148 54.041C249.53 55.0895 249.912 56.1371 250.313 57.236C250.405 56.8487 250.483 56.5205 250.566 56.171L251.075 56.4769L252.754 54.4021L253.558 57.1595C253.949 56.6154 254.268 56.1526 254.608 55.7072C255.203 54.9326 256.09 54.9907 256.509 55.8379C256.683 56.1884 256.803 56.565 256.901 56.8138L258.084 55.0014L259.935 55.2434L260.183 56.0674C260.486 55.6094 260.757 55.196 261.135 54.6238C261.867 55.9647 262.835 55.3015 263.735 55.1573C264.148 55.0895 264.607 54.5764 264.902 55.3509C264.942 55.4564 265.347 55.5174 265.54 55.4593C266.26 55.2415 266.962 54.9656 267.752 54.6848L268.174 55.4884C269.446 55.3741 270.585 54.1087 271.989 55.0837C272.055 55.1249 272.13 55.1509 272.209 55.1598C272.287 55.1686 272.366 55.1602 272.44 55.135C273.92 54.3963 275.57 54.7477 277.06 54.739C280.45 54.7284 283.84 54.0303 287.231 54.6093C287.389 54.6199 287.547 54.6118 287.703 54.5851C289.23 54.4734 290.756 54.3614 292.283 54.2491C293.164 54.1823 294.044 54.1058 294.924 54.0342C296.172 54.0623 297.421 54.1184 298.669 54.1145C303.723 54.101 308.776 54.0735 313.828 54.0322C314.29 54.0322 314.751 53.8783 315.212 53.797C315.808 53.888 316.386 53.979 317 54.07V53.4339C316.429 53.3371 315.881 53.1599 315.318 53.1541Z" fill="#D091DA"/>
</g>
<g filter="url(#filter0_f_19_12029)">
<circle cx="173.306" cy="51.3056" r="34.3056" fill="white"/>
</g>
<g filter="url(#filter1_d_19_12029)">
<circle cx="173.306" cy="51.3056" r="34.3056" fill="white"/>
</g>
<path d="M173.305 37.2734C172.29 37.2734 171.317 37.6766 170.599 38.3942C169.882 39.1117 169.479 40.085 169.479 41.0998V51.3035C169.479 52.3183 169.882 53.2916 170.599 54.0092C171.317 54.7268 172.29 55.1299 173.305 55.1299C174.32 55.1299 175.293 54.7268 176.011 54.0092C176.728 53.2916 177.131 52.3183 177.131 51.3035V41.0998C177.131 40.085 176.728 39.1117 176.011 38.3942C175.293 37.6766 174.32 37.2734 173.305 37.2734Z" stroke="black" stroke-linecap="round" stroke-linejoin="round"/>
<path d="M182.233 48.7539V51.3048C182.233 53.6727 181.293 55.9437 179.618 57.618C177.944 59.2924 175.673 60.2331 173.305 60.2331C170.937 60.2331 168.666 59.2924 166.992 57.618C165.318 55.9437 164.377 53.6727 164.377 51.3048V48.7539" stroke="black" stroke-linecap="round" stroke-linejoin="round"/>
<path d="M173.305 60.2344V65.3362" stroke="black" stroke-linecap="round" stroke-linejoin="round"/>
<path d="M168.203 65.3359H178.407" stroke="black" stroke-linecap="round" stroke-linejoin="round"/>
<defs>
<filter id="filter0_f_19_12029" x="127" y="5" width="92.6111" height="92.6111" filterUnits="userSpaceOnUse" color-interpolation-filters="sRGB">
<feFlood flood-opacity="0" result="BackgroundImageFix"/>
<feBlend mode="normal" in="SourceGraphic" in2="BackgroundImageFix" result="shape"/>
<feGaussianBlur stdDeviation="6" result="effect1_foregroundBlur_19_12029"/>
</filter>
<filter id="filter1_d_19_12029" x="130" y="9" width="86.6111" height="86.6111" filterUnits="userSpaceOnUse" color-interpolation-filters="sRGB">
<feFlood flood-opacity="0" result="BackgroundImageFix"/>
<feColorMatrix in="SourceAlpha" type="matrix" values="0 0 0 0 0 0 0 0 0 0 0 0 0 0 0 0 0 0 127 0" result="hardAlpha"/>
<feOffset dy="1"/>
<feGaussianBlur stdDeviation="4.5"/>
<feComposite in2="hardAlpha" operator="out"/>
<feColorMatrix type="matrix" values="0 0 0 0 0.501961 0 0 0 0 0.894118 0 0 0 0 0.992157 0 0 0 1 0"/>
<feBlend mode="normal" in2="BackgroundImageFix" result="effect1_dropShadow_19_12029"/>
<feBlend mode="normal" in="SourceGraphic" in2="effect1_dropShadow_19_12029" result="shape"/>
</filter>
</defs>
</svg>
