<svg width="178" height="119" viewBox="0 0 178 119" fill="none" xmlns="http://www.w3.org/2000/svg">
<path d="M0.5 10C0.5 4.7533 4.7533 0.5 10 0.5H168C173.247 0.5 177.5 4.75329 177.5 10V78C177.5 83.2467 173.247 87.5 168 87.5H90.5981C88.4791 87.5 86.4097 88.1411 84.6619 89.3391L51.7821 111.875C49.0868 113.722 45.5547 111.196 46.4319 108.048L48.4466 100.819C50.3117 94.1263 45.2796 87.5 38.332 87.5H10C4.7533 87.5 0.5 83.2467 0.5 78V10Z" fill="white" fill-opacity="0.31" stroke="white"/>
<path d="M69.19 37.092V47.508C69.19 51.708 69.4 54.228 69.82 55.068C69.96 55.404 70.198 55.698 70.534 55.95C70.87 56.202 71.234 56.356 71.626 56.412C72.046 56.468 72.592 56.496 73.264 56.496L73.348 57H62.008L62.092 56.496C62.792 56.496 63.338 56.468 63.73 56.412C64.15 56.356 64.528 56.202 64.864 55.95C65.228 55.698 65.48 55.418 65.62 55.11C65.788 54.774 65.928 54.228 66.04 53.472C66.18 52.492 66.25 50.504 66.25 47.508V42.888H49.24V47.508C49.24 50.504 49.324 52.548 49.492 53.64C49.688 54.732 49.954 55.418 50.29 55.698C50.934 56.23 51.956 56.496 53.356 56.496L53.44 57H42.1L42.184 56.496C42.884 56.496 43.43 56.468 43.822 56.412C44.214 56.356 44.578 56.202 44.914 55.95C45.278 55.698 45.53 55.418 45.67 55.11C45.838 54.774 45.978 54.228 46.09 53.472C46.23 52.492 46.3 50.504 46.3 47.508V37.092C46.3 34.18 46.216 32.15 46.048 31.002C45.88 29.854 45.628 29.14 45.292 28.86C44.62 28.328 43.584 28.062 42.184 28.062L42.1 27.6H53.44L53.356 28.062C51.956 28.062 50.934 28.328 50.29 28.86C49.59 29.448 49.24 32.192 49.24 37.092V41.796H66.25V37.092C66.25 32.92 66.04 30.386 65.62 29.49C65.48 29.154 65.228 28.86 64.864 28.608C64.528 28.356 64.15 28.202 63.73 28.146C63.338 28.09 62.792 28.062 62.092 28.062L62.008 27.6H73.348L73.264 28.062C72.592 28.062 72.046 28.09 71.626 28.146C71.234 28.202 70.87 28.356 70.534 28.608C70.198 28.86 69.946 29.154 69.778 29.49C69.638 29.826 69.512 30.372 69.4 31.128C69.26 32.36 69.19 34.348 69.19 37.092ZM94.0855 46.374H80.3095V47.088C80.3095 50.056 80.9395 52.324 82.1995 53.892C83.4595 55.432 85.0275 56.202 86.9035 56.202C89.7035 56.202 91.7195 55.082 92.9515 52.842L93.5815 53.178C92.1255 56.006 89.6895 57.42 86.2735 57.42C83.7535 57.42 81.5975 56.51 79.8055 54.69C78.0135 52.87 77.1175 50.42 77.1175 47.34C77.1175 44.232 77.9015 41.684 79.4695 39.696C81.0655 37.708 83.1795 36.714 85.8115 36.714C88.4715 36.714 90.5155 37.624 91.9435 39.444C93.3715 41.236 94.0855 43.546 94.0855 46.374ZM85.9375 37.554C84.3135 37.554 83.0255 38.254 82.0735 39.654C81.1495 41.026 80.5895 42.86 80.3935 45.156H90.8515C90.6555 40.088 89.0175 37.554 85.9375 37.554ZM103.877 26.088V49.692C103.877 52.8 104.059 54.718 104.423 55.446C104.787 56.146 105.795 56.496 107.447 56.496L107.531 57H97.2414L97.3254 56.496C99.0054 56.496 100.027 56.146 100.391 55.446C100.755 54.746 100.937 52.828 100.937 49.692V33.648C100.937 30.54 100.769 28.664 100.433 28.02C100.321 27.824 100.111 27.628 99.8034 27.432C99.4954 27.236 99.1594 27.124 98.7954 27.096C98.4594 27.068 97.9694 27.054 97.3254 27.054L97.2414 26.592C99.3414 26.256 101.553 26.088 103.877 26.088ZM116.469 26.088V49.692C116.469 52.8 116.651 54.718 117.015 55.446C117.379 56.146 118.387 56.496 120.039 56.496L120.123 57H109.833L109.917 56.496C111.597 56.496 112.619 56.146 112.983 55.446C113.347 54.746 113.529 52.828 113.529 49.692V33.648C113.529 30.54 113.361 28.664 113.025 28.02C112.913 27.824 112.703 27.628 112.395 27.432C112.087 27.236 111.751 27.124 111.387 27.096C111.051 27.068 110.561 27.054 109.917 27.054L109.833 26.592C111.933 26.256 114.145 26.088 116.469 26.088ZM123.055 47.088C123.055 44.148 123.895 41.684 125.575 39.696C127.255 37.708 129.537 36.714 132.421 36.714C135.305 36.714 137.629 37.708 139.393 39.696C141.157 41.684 142.039 44.148 142.039 47.088C142.039 50.028 141.185 52.492 139.477 54.48C137.797 56.44 135.515 57.42 132.631 57.42C129.747 57.42 127.423 56.426 125.659 54.438C123.923 52.45 123.055 50 123.055 47.088ZM127.885 53.892C129.005 55.684 130.587 56.58 132.631 56.58C134.675 56.58 136.215 55.698 137.251 53.934C138.315 52.17 138.847 49.902 138.847 47.13C138.847 44.33 138.287 42.034 137.167 40.242C136.047 38.45 134.465 37.554 132.421 37.554C130.405 37.554 128.865 38.45 127.801 40.242C126.765 42.006 126.247 44.274 126.247 47.046C126.247 49.818 126.793 52.1 127.885 53.892Z" fill="white"/>
</svg>
