<svg width="133" height="120" viewBox="0 0 133 120" fill="none" xmlns="http://www.w3.org/2000/svg">
<g filter="url(#filter0_f_82_64)">
<path d="M98.1455 111.65C109.357 106.614 117.703 96.2554 120.482 82.6815C122.681 72.0482 124.754 62.9002 126.569 55.2968C128.645 46.8618 127.084 37.7389 122.224 30.0973C117.365 22.4556 109.939 17.2173 101.607 15.9588L35.0081 5.32703C25.9474 3.85972 17.3721 7.35456 11.7866 14.3293C6.26792 21.4526 4.52884 31.3438 7.21587 40.8544L20.9181 89.0018C24.478 101.514 34.8301 110.797 46.6656 112.089C55.1954 113.081 66.5 113.897 80.1838 114.717C86.5966 115.23 92.7375 114.079 98.1455 111.65Z" fill="white" fill-opacity="0.68"/>
<path d="M117.874 82.1474L117.875 82.1425C120.079 71.4805 122.158 62.306 123.98 54.6784L123.982 54.6694L123.984 54.6604C125.879 46.9605 124.464 38.5803 119.978 31.526C115.472 24.441 108.677 19.7194 101.209 18.5915L101.198 18.5898L101.187 18.588L34.5884 7.95625L34.5825 7.95529C26.5045 6.64712 18.882 9.73992 13.8782 15.9769C8.93565 22.3688 7.30052 31.3613 9.77808 40.1305L23.4789 88.273L23.4789 88.2732C26.778 99.8688 36.32 108.281 46.9547 109.443L46.9638 109.444L46.973 109.445C55.4221 110.427 66.6617 111.24 80.343 112.059L80.3696 112.061L80.3962 112.063C86.355 112.54 92.0481 111.47 97.0545 109.221C107.439 104.556 115.256 94.9329 117.874 82.1474Z" stroke="white" stroke-width="5.325"/>
</g>
<defs>
<filter id="filter0_f_82_64" x="0.973694" y="-0.00341797" width="131.492" height="119.841" filterUnits="userSpaceOnUse" color-interpolation-filters="sRGB">
<feFlood flood-opacity="0" result="BackgroundImageFix"/>
<feBlend mode="normal" in="SourceGraphic" in2="BackgroundImageFix" result="shape"/>
<feGaussianBlur stdDeviation="2.5" result="effect1_foregroundBlur_82_64"/>
</filter>
</defs>
</svg>
