<svg width="343" height="370" viewBox="0 0 343 370" fill="none" xmlns="http://www.w3.org/2000/svg">
<path opacity="0.3" d="M272.129 318.104L272.132 318.1C290.76 292.434 307.272 270.568 321.245 252.504L321.251 252.496L321.257 252.489C336.439 233.141 343.033 207.763 339.327 182.337C335.616 156.876 322.448 134.811 302.457 121.987L302.448 121.981L302.438 121.975L137.48 14.1801L137.475 14.1768C115.887 0.00088322 89.8478 -0.925673 67.4149 10.5141C44.9761 22.4313 28.9463 45.8734 24.8303 73.5999L3.6825 217.954L1.04813 217.568L3.68246 217.954C-1.67709 254.52 14.4315 290.433 43.4207 307.394L43.4287 307.399L43.4366 307.403C64.9384 320.183 94.0655 335.824 129.593 354.343L129.616 354.355L129.64 354.368C145.737 363.172 163.061 367.337 179.965 367.337C215.015 367.337 248.915 350.217 272.129 318.104ZM263.33 308.407L263.327 308.411C232.158 351.18 179.144 364.946 134.318 341.493L134.31 341.489C99.2023 322.968 70.3942 307.273 48.7627 294.417C24.0247 280.027 10.969 249.93 15.3315 219.564L15.3326 219.557L36.481 75.1973L36.4818 75.1923C39.976 51.6551 53.1143 32.3551 72.1302 22.4195C91.6449 11.9682 113.396 13.5002 131.915 25.3808L131.925 25.3875L131.935 25.3942L297.309 133.659C297.311 133.66 297.312 133.661 297.314 133.662C314.098 144.573 325.044 162.858 328.101 183.945C331.162 205.053 325.494 226.698 312.739 242.503C298.4 260.496 281.936 282.77 263.33 308.407Z" fill="white" stroke="white" stroke-width="5.325"/>
</svg>
