<svg width="133" height="128" viewBox="0 0 133 128" fill="none" xmlns="http://www.w3.org/2000/svg">
<g filter="url(#filter0_f_1327_447)">
<ellipse cx="66.5" cy="64" rx="32.5" ry="30" fill="#0057FF"/>
</g>
<g filter="url(#filter1_d_1327_447)">
<path d="M48.3174 41.1102L38.3174 43.5L39.3174 45.6102L55.3174 66.6102L64.3174 59.6102C60.3174 54.4435 52.0174 43.7102 50.8174 42.1102C49.6174 40.5102 48.8174 41.1102 48.3174 41.1102Z" fill="url(#paint0_linear_1327_447)"/>
<path d="M31.8174 79C31.0174 79.4 27.8174 79 27.8174 78.5L30.8174 70.5L39.8174 60L47.8174 62C45.484 66 41.1174 73.3 40.3174 74.5C39.93 75.0811 39.8174 75.5 39.3174 76C38.7696 76.5224 37.8174 77.086 37.8174 77C35.8174 77.6667 32.6174 78.6 31.8174 79Z" fill="url(#paint1_linear_1327_447)"/>
<path d="M60.3174 84C59.5174 84.4 56.3174 83.5 56.3174 83L59.3174 75.5L79.8174 39.5L87.8174 47C85.484 51 69.6174 78.3 68.8174 79.5C68.43 80.0811 68.3174 80.5 67.8174 81C67.2696 81.5224 66.3174 82.086 66.3174 82C64.3174 82.6667 61.1174 83.6 60.3174 84Z" fill="url(#paint2_linear_1327_447)"/>
<path d="M22.9802 68.5C21.8176 70 21.8176 71.6667 22.3176 72C23.3176 73.1667 26.1803 76.8 26.9803 78C27.7803 79.2 29.3136 78.5 29.9803 78C33.3177 73 36.8177 66.5 38.8177 63.5C40.0728 61.6173 40.4803 61.8333 40.9803 62C45.1469 68.1667 54.3177 81.4 56.3177 83C58.3177 84.6 59.3177 82.5 60.3177 81L80.4803 45C85.3136 46.8333 95.2176 51.7 96.8176 52.5C98.4176 53.3 98.9803 50.1667 98.9803 49C97.6469 40.3333 94.9803 22.5 94.9803 20.5C94.9803 18.5 92.6469 18 91.4803 18C82.8136 22.1667 64.7803 30.8 61.9803 32C59.1803 33.2 60.8136 34.5 61.9803 35C62.8136 35.3333 64.3176 36.2 66.3176 37C68.3176 37.8 69.8136 38.6667 69.9803 39C66.4803 45.5 59.0803 59.2 57.4803 62C55.8803 64.8 54.1469 63.1667 53.4803 62C50.3136 57.1667 43.7176 48.2 41.3176 45C38.9176 41.8 37.4223 44 36.8176 45C32.4843 52.1667 24.8464 66.0922 22.9802 68.5Z" fill="url(#paint3_linear_1327_447)"/>
<g filter="url(#filter2_f_1327_447)">
<path d="M29.8174 77.5L38.3174 63" stroke="white"/>
</g>
<path d="M94.3174 21.0004L98.3174 48.0004L88.3174 20.0004C88.8174 19.8337 90.2174 19.3004 91.8174 18.5004C93.4174 17.7004 94.1507 19.8337 94.3174 21.0004Z" fill="url(#paint4_linear_1327_447)"/>
<g filter="url(#filter3_f_1327_447)">
<path d="M41.3174 45.5L54.3174 62.5" stroke="white"/>
</g>
<g filter="url(#filter4_f_1327_447)">
<path d="M41.3174 45.5L54.3174 62.5" stroke="white"/>
</g>
</g>
<g style="mix-blend-mode:screen" filter="url(#filter5_f_1327_447)">
<ellipse cx="83.8174" cy="33.5" rx="11.5" ry="13.5" fill="#C7FF26"/>
</g>
<defs>
<filter id="filter0_f_1327_447" x="0" y="0" width="133" height="128" filterUnits="userSpaceOnUse" color-interpolation-filters="sRGB">
<feFlood flood-opacity="0" result="BackgroundImageFix"/>
<feBlend mode="normal" in="SourceGraphic" in2="BackgroundImageFix" result="shape"/>
<feGaussianBlur stdDeviation="17" result="effect1_foregroundBlur_1327_447"/>
</filter>
<filter id="filter1_d_1327_447" x="18" y="18" width="84.9805" height="86.0996" filterUnits="userSpaceOnUse" color-interpolation-filters="sRGB">
<feFlood flood-opacity="0" result="BackgroundImageFix"/>
<feColorMatrix in="SourceAlpha" type="matrix" values="0 0 0 0 0 0 0 0 0 0 0 0 0 0 0 0 0 0 127 0" result="hardAlpha"/>
<feOffset dy="16"/>
<feGaussianBlur stdDeviation="2"/>
<feComposite in2="hardAlpha" operator="out"/>
<feColorMatrix type="matrix" values="0 0 0 0 0 0 0 0 0 0 0 0 0 0 0 0 0 0 0.25 0"/>
<feBlend mode="normal" in2="BackgroundImageFix" result="effect1_dropShadow_1327_447"/>
<feBlend mode="normal" in="SourceGraphic" in2="effect1_dropShadow_1327_447" result="shape"/>
</filter>
<filter id="filter2_f_1327_447" x="25.3862" y="58.7471" width="17.3623" height="23.0059" filterUnits="userSpaceOnUse" color-interpolation-filters="sRGB">
<feFlood flood-opacity="0" result="BackgroundImageFix"/>
<feBlend mode="normal" in="SourceGraphic" in2="BackgroundImageFix" result="shape"/>
<feGaussianBlur stdDeviation="2" result="effect1_foregroundBlur_1327_447"/>
</filter>
<filter id="filter3_f_1327_447" x="36.9204" y="41.1963" width="21.7939" height="25.6074" filterUnits="userSpaceOnUse" color-interpolation-filters="sRGB">
<feFlood flood-opacity="0" result="BackgroundImageFix"/>
<feBlend mode="normal" in="SourceGraphic" in2="BackgroundImageFix" result="shape"/>
<feGaussianBlur stdDeviation="2" result="effect1_foregroundBlur_1327_447"/>
</filter>
<filter id="filter4_f_1327_447" x="36.9204" y="41.1963" width="21.7939" height="25.6074" filterUnits="userSpaceOnUse" color-interpolation-filters="sRGB">
<feFlood flood-opacity="0" result="BackgroundImageFix"/>
<feBlend mode="normal" in="SourceGraphic" in2="BackgroundImageFix" result="shape"/>
<feGaussianBlur stdDeviation="2" result="effect1_foregroundBlur_1327_447"/>
</filter>
<filter id="filter5_f_1327_447" x="62.3174" y="10" width="43" height="47" filterUnits="userSpaceOnUse" color-interpolation-filters="sRGB">
<feFlood flood-opacity="0" result="BackgroundImageFix"/>
<feBlend mode="normal" in="SourceGraphic" in2="BackgroundImageFix" result="shape"/>
<feGaussianBlur stdDeviation="5" result="effect1_foregroundBlur_1327_447"/>
</filter>
<linearGradient id="paint0_linear_1327_447" x1="59.8174" y1="67" x2="34.3174" y2="41" gradientUnits="userSpaceOnUse">
<stop stop-color="#38B8F1"/>
<stop offset="0.75" stop-color="#41C3DC"/>
</linearGradient>
<linearGradient id="paint1_linear_1327_447" x1="44.4424" y1="79.5134" x2="25.304" y2="60.0132" gradientUnits="userSpaceOnUse">
<stop stop-color="#38B8F1"/>
<stop offset="0.75" stop-color="#41C3DC"/>
</linearGradient>
<linearGradient id="paint2_linear_1327_447" x1="72.9424" y1="84.5134" x2="53.804" y2="65.0132" gradientUnits="userSpaceOnUse">
<stop stop-color="#38B8F1"/>
<stop offset="0.75" stop-color="#41C3DC"/>
</linearGradient>
<linearGradient id="paint3_linear_1327_447" x1="22" y1="53.5672" x2="98.9803" y2="53.5672" gradientUnits="userSpaceOnUse">
<stop stop-color="#38B8F1"/>
<stop offset="0.25" stop-color="#5CD7F5"/>
<stop offset="0.5" stop-color="#A8E3EC"/>
<stop offset="0.75" stop-color="#62D0E5"/>
<stop offset="1" stop-color="#78DDDF"/>
</linearGradient>
<linearGradient id="paint4_linear_1327_447" x1="95.8174" y1="19.0004" x2="87.3174" y2="23.0004" gradientUnits="userSpaceOnUse">
<stop stop-color="white"/>
<stop offset="1" stop-color="white" stop-opacity="0"/>
</linearGradient>
</defs>
</svg>
