<svg width="133" height="128" viewBox="0 0 133 128" fill="none" xmlns="http://www.w3.org/2000/svg">
<g filter="url(#filter0_f_1398_2)">
<ellipse cx="66.5" cy="64" rx="32.5" ry="30" fill="#0057FF"/>
</g>
<g filter="url(#filter1_d_1398_2)">
<path d="M78.1713 27.2746C67.4075 23.6672 56.1849 25.5474 51.7542 27.3809C45.7728 29.8562 37.5622 35.5665 36.4979 47.6539C35.1356 63.1258 48.3965 73.0454 55.109 75.295C61.8215 77.5447 61.9135 82.2213 61.5119 84.4096C61.212 85.3046 59.897 86.2577 58.8172 89.4797C57.4674 93.5072 59.405 95.1521 62.5399 94.7094C65.6749 94.2667 77.9219 88.9137 84.6441 85.1934C91.3663 81.4732 101.5 76.5001 103.938 60.3003C106.329 44.4048 91.5963 31.7739 78.1713 27.2746Z" fill="url(#paint0_linear_1398_2)"/>
<g style="mix-blend-mode:screen" filter="url(#filter2_f_1398_2)">
<ellipse cx="59.1915" cy="42.3741" rx="14" ry="16.5" transform="rotate(-17.4512 59.1915 42.3741)" fill="#C7FF26"/>
</g>
<g filter="url(#filter3_f_1398_2)">
<path d="M45 38.5C49 33.3 56.6667 30.3334 60 29.5C63.9307 28.0366 67.9797 31.5657 64 36.5001C61.9049 39.0979 54.5 39.5001 50.5 45C44.1782 53.6923 49.6667 65.8334 54 71.5C36.5 57.5 40 45 45 38.5Z" fill="url(#paint1_linear_1398_2)"/>
</g>
<g filter="url(#filter4_f_1398_2)">
<path d="M81.5 87.0005C105.1 69.8005 103 51.5005 99 44.5005C93 41.0005 96.5752 56.0005 93.9998 65.5005C90.2045 79.5005 64.8736 99.1181 81.5 87.0005Z" fill="#51BCD1"/>
</g>
<circle cx="60.5" cy="47.5" r="5.5" fill="#0A356D"/>
<circle cx="73" cy="53" r="6" fill="#0A356D"/>
<ellipse cx="85.5" cy="59" rx="5.5" ry="6" fill="#0A356D"/>
</g>
<defs>
<filter id="filter0_f_1398_2" x="0" y="0" width="133" height="128" filterUnits="userSpaceOnUse" color-interpolation-filters="sRGB">
<feFlood flood-opacity="0" result="BackgroundImageFix"/>
<feBlend mode="normal" in="SourceGraphic" in2="BackgroundImageFix" result="shape"/>
<feGaussianBlur stdDeviation="17" result="effect1_foregroundBlur_1398_2"/>
</filter>
<filter id="filter1_d_1398_2" x="34.4004" y="25.2231" width="75.7944" height="85.5562" filterUnits="userSpaceOnUse" color-interpolation-filters="sRGB">
<feFlood flood-opacity="0" result="BackgroundImageFix"/>
<feColorMatrix in="SourceAlpha" type="matrix" values="0 0 0 0 0 0 0 0 0 0 0 0 0 0 0 0 0 0 127 0" result="hardAlpha"/>
<feOffset dx="2" dy="12"/>
<feGaussianBlur stdDeviation="2"/>
<feComposite in2="hardAlpha" operator="out"/>
<feColorMatrix type="matrix" values="0 0 0 0 0 0 0 0 0 0 0 0 0 0 0 0 0 0 0.25 0"/>
<feBlend mode="normal" in2="BackgroundImageFix" result="effect1_dropShadow_1398_2"/>
<feBlend mode="normal" in="SourceGraphic" in2="effect1_dropShadow_1398_2" result="shape"/>
</filter>
<filter id="filter2_f_1398_2" x="34.9448" y="16.0791" width="48.4932" height="52.5898" filterUnits="userSpaceOnUse" color-interpolation-filters="sRGB">
<feFlood flood-opacity="0" result="BackgroundImageFix"/>
<feBlend mode="normal" in="SourceGraphic" in2="BackgroundImageFix" result="shape"/>
<feGaussianBlur stdDeviation="5" result="effect1_foregroundBlur_1398_2"/>
</filter>
<filter id="filter3_f_1398_2" x="36.9316" y="25.166" width="32.7036" height="50.334" filterUnits="userSpaceOnUse" color-interpolation-filters="sRGB">
<feFlood flood-opacity="0" result="BackgroundImageFix"/>
<feBlend mode="normal" in="SourceGraphic" in2="BackgroundImageFix" result="shape"/>
<feGaussianBlur stdDeviation="2" result="effect1_foregroundBlur_1398_2"/>
</filter>
<filter id="filter4_f_1398_2" x="71.9009" y="39.9814" width="33.585" height="54.8066" filterUnits="userSpaceOnUse" color-interpolation-filters="sRGB">
<feFlood flood-opacity="0" result="BackgroundImageFix"/>
<feBlend mode="normal" in="SourceGraphic" in2="BackgroundImageFix" result="shape"/>
<feGaussianBlur stdDeviation="2" result="effect1_foregroundBlur_1398_2"/>
</filter>
<linearGradient id="paint0_linear_1398_2" x1="34.1704" y1="52.2975" x2="99.3958" y2="74.1572" gradientUnits="userSpaceOnUse">
<stop stop-color="#38B8F1"/>
<stop offset="0.25" stop-color="#5CD7F5"/>
<stop offset="0.5" stop-color="#A8E3EC"/>
<stop offset="0.75" stop-color="#62D0E5"/>
<stop offset="1" stop-color="#78DDDF"/>
</linearGradient>
<linearGradient id="paint1_linear_1398_2" x1="52.716" y1="29.0874" x2="52.716" y2="71.5001" gradientUnits="userSpaceOnUse">
<stop stop-color="white"/>
<stop offset="1" stop-color="white" stop-opacity="0"/>
</linearGradient>
</defs>
</svg>
