<svg width="133" height="128" viewBox="0 0 133 128" fill="none" xmlns="http://www.w3.org/2000/svg">
<g filter="url(#filter0_f_1327_477)">
<ellipse cx="66.5" cy="64" rx="32.5" ry="30" fill="#0057FF"/>
</g>
<g filter="url(#filter1_d_1327_477)">
<path d="M54.1745 31.2366C52.6923 28.997 48.8221 30.3034 47.0723 31.2366C45.0137 31.9623 40.4025 34.2226 38.4262 37.4575C35.9559 41.5011 37.1911 51.4547 38.4262 55.1872C39.6614 58.9198 44.2932 68.8734 52.013 76.0275C59.7327 83.1815 65.5997 86.6031 73.3194 90.0246C81.0392 93.4461 87.5238 91.5798 89.6853 90.6467C91.8468 89.7136 94.9347 87.8473 97.405 81.6263C99.3813 76.6495 95.964 73.7464 94.0083 72.917C92.0527 71.7765 87.462 69.1844 84.7446 67.9402C82.0273 66.696 80.1128 68.4586 79.4952 69.4954C79.2894 70.0139 78.4453 71.4239 76.7161 72.917C74.5546 74.7833 71.1579 72.917 70.2315 72.2949C69.3052 71.6728 66.2173 69.8065 63.4382 66.696C60.6591 63.5855 57.88 60.7861 56.0272 57.3646C54.545 54.6274 56.0272 52.2841 56.9536 51.4547C57.1595 51.351 58.127 50.7082 60.3503 48.9663C62.5736 47.2244 61.2767 43.8858 60.3503 42.4343C58.9093 39.6349 55.6567 33.4761 54.1745 31.2366Z" fill="url(#paint0_linear_1327_477)"/>
<g filter="url(#filter2_f_1327_477)">
<path d="M41.5002 37C44.0001 34 48.0002 32.6667 50.0002 31.5C50.0002 34.3 50.6668 36.3333 51.0001 37C49.1668 37.5 45.2001 38.9 44.0001 40.5C42.5001 42.5 41.5002 45.5 41.5002 49.5C41.5002 53.5 44.5001 61.5 48.5001 67.5C52.5001 73.5 70.0001 86.5 68.5001 85.5C67.3001 84.7 60.3335 79.8333 57.0001 77.5C44.5002 67.5001 40.5003 55.5002 39.0002 51.0001L39.0002 51C37.5002 46.5 39.4507 39.4596 41.5002 37Z" fill="url(#paint1_linear_1327_477)"/>
</g>
<ellipse cx="90.3315" cy="72.4261" rx="8.65587" ry="2" transform="rotate(33.3212 90.3315 72.4261)" fill="url(#paint2_linear_1327_477)"/>
<ellipse cx="57.4332" cy="38.3274" rx="8.65587" ry="2" transform="rotate(61.7019 57.4332 38.3274)" fill="url(#paint3_linear_1327_477)"/>
</g>
<g style="mix-blend-mode:screen" filter="url(#filter3_f_1327_477)">
<ellipse cx="51" cy="42" rx="8" ry="9" fill="#C7FF26"/>
</g>
<defs>
<filter id="filter0_f_1327_477" x="0" y="0" width="133" height="128" filterUnits="userSpaceOnUse" color-interpolation-filters="sRGB">
<feFlood flood-opacity="0" result="BackgroundImageFix"/>
<feBlend mode="normal" in="SourceGraphic" in2="BackgroundImageFix" result="shape"/>
<feGaussianBlur stdDeviation="17" result="effect1_foregroundBlur_1327_477"/>
</filter>
<filter id="filter1_d_1327_477" x="37" y="30" width="70" height="78" filterUnits="userSpaceOnUse" color-interpolation-filters="sRGB">
<feFlood flood-opacity="0" result="BackgroundImageFix"/>
<feColorMatrix in="SourceAlpha" type="matrix" values="0 0 0 0 0 0 0 0 0 0 0 0 0 0 0 0 0 0 127 0" result="hardAlpha"/>
<feOffset dx="5" dy="12"/>
<feGaussianBlur stdDeviation="2"/>
<feComposite in2="hardAlpha" operator="out"/>
<feColorMatrix type="matrix" values="0 0 0 0 0 0 0 0 0 0 0 0 0 0 0 0 0 0 0.25 0"/>
<feBlend mode="normal" in2="BackgroundImageFix" result="effect1_dropShadow_1327_477"/>
<feBlend mode="normal" in="SourceGraphic" in2="effect1_dropShadow_1327_477" result="shape"/>
</filter>
<filter id="filter2_f_1327_477" x="34.4697" y="27.5" width="38.1211" height="62.0547" filterUnits="userSpaceOnUse" color-interpolation-filters="sRGB">
<feFlood flood-opacity="0" result="BackgroundImageFix"/>
<feBlend mode="normal" in="SourceGraphic" in2="BackgroundImageFix" result="shape"/>
<feGaussianBlur stdDeviation="2" result="effect1_foregroundBlur_1327_477"/>
</filter>
<filter id="filter3_f_1327_477" x="33" y="23" width="36" height="38" filterUnits="userSpaceOnUse" color-interpolation-filters="sRGB">
<feFlood flood-opacity="0" result="BackgroundImageFix"/>
<feBlend mode="normal" in="SourceGraphic" in2="BackgroundImageFix" result="shape"/>
<feGaussianBlur stdDeviation="5" result="effect1_foregroundBlur_1327_477"/>
</filter>
<linearGradient id="paint0_linear_1327_477" x1="37" y1="63.629" x2="98" y2="63.629" gradientUnits="userSpaceOnUse">
<stop stop-color="#38B8F1"/>
<stop offset="0.25" stop-color="#5CD7F5"/>
<stop offset="0.5" stop-color="#A8E3EC"/>
<stop offset="0.75" stop-color="#62D0E5"/>
<stop offset="1" stop-color="#78DDDF"/>
</linearGradient>
<linearGradient id="paint1_linear_1327_477" x1="39.0001" y1="33" x2="53.4964" y2="85.5546" gradientUnits="userSpaceOnUse">
<stop stop-color="white"/>
<stop offset="1" stop-color="white" stop-opacity="0"/>
</linearGradient>
<linearGradient id="paint2_linear_1327_477" x1="81.6756" y1="72.4261" x2="98.9873" y2="72.4261" gradientUnits="userSpaceOnUse">
<stop stop-color="#3B9CBB"/>
<stop offset="1" stop-color="#177695"/>
</linearGradient>
<linearGradient id="paint3_linear_1327_477" x1="48.7774" y1="38.3274" x2="66.0891" y2="38.3274" gradientUnits="userSpaceOnUse">
<stop stop-color="#3B9CBB"/>
<stop offset="1" stop-color="#177695"/>
</linearGradient>
</defs>
</svg>
