<svg width="60" height="60" viewBox="0 0 60 60" fill="none" xmlns="http://www.w3.org/2000/svg">
<path d="M54.7137 30.9101C55.0895 31.9658 56.089 32.7275 57.2725 32.7275C58.7756 32.7275 60 31.5056 60 30C60 28.4969 58.7781 27.2725 57.2725 27.2725C56.089 27.2725 55.0895 28.0343 54.7137 29.0899H48.1851V24.545H51.82C52.321 24.545 52.73 24.1385 52.73 23.635C52.73 23.134 52.3236 22.725 51.82 22.725H48.1851V19.09H52.73C52.9703 19.09 53.2029 18.9929 53.3716 18.8242L57.9166 14.2792C58.0879 14.108 58.1824 13.8779 58.1824 13.6376V12.5615C59.2382 12.1857 59.9999 11.1862 59.9999 10.0026C59.9999 8.49957 58.778 7.27514 57.2724 7.27514C55.7693 7.27514 54.5449 8.49702 54.5449 10.0026C54.5449 11.1862 55.3066 12.1856 56.3623 12.5615V13.2619L52.3516 17.2726H48.1824V16.3626C48.1824 13.8575 46.1425 11.8176 43.6374 11.8176H42.7274V7.6484L46.7381 3.63769H47.4385C47.8143 4.69343 48.8138 5.45514 49.9974 5.45514C51.5004 5.45514 52.7249 4.23326 52.7249 2.72763C52.7249 1.22455 51.503 0.000117639 49.9974 0.000117639C48.8138 0.000117639 47.8144 0.761897 47.4385 1.81756H46.3624C46.1221 1.81756 45.8895 1.9147 45.7208 2.08341L41.1758 6.62837C41.0046 6.79964 40.91 7.0297 40.91 7.26998V11.8149H37.275V8.17998C37.275 7.67896 36.8686 7.26998 36.365 7.26998C35.864 7.26998 35.455 7.67642 35.455 8.17998V11.8149H30.9101V5.28632C31.9658 4.91055 32.7275 3.91105 32.7275 2.72751C32.7275 1.22443 31.5056 0 30 0C28.4969 0 27.2725 1.22188 27.2725 2.72751C27.2725 3.91105 28.0343 4.9105 29.0899 5.28632V11.8149H24.545V8.17998C24.545 7.67896 24.1385 7.26998 23.635 7.26998C23.134 7.26998 22.725 7.67642 22.725 8.17998V11.8149H19.09V7.26998C19.09 7.0297 18.9929 6.79708 18.8242 6.62837L14.2792 2.08341C14.108 1.91214 13.8779 1.81756 13.6376 1.81756H12.5615C12.1857 0.761832 11.1862 0.000117639 10.0026 0.000117639C8.49957 0.000117639 7.27514 1.222 7.27514 2.72763C7.27514 4.2307 8.49702 5.45514 10.0026 5.45514C11.1862 5.45514 12.1856 4.69336 12.5615 3.63769H13.2619L17.2726 7.6484V11.8176H16.3626C13.8575 11.8176 11.8176 13.8575 11.8176 16.3626V17.2726H7.6484L3.63769 13.2619V12.5615C4.69343 12.1857 5.45514 11.1862 5.45514 10.0026C5.45514 8.49957 4.23326 7.27514 2.72763 7.27514C1.22455 7.27514 0.000117639 8.49702 0.000117639 10.0026C0.000117639 11.1862 0.761897 12.1856 1.81756 12.5615V13.6376C1.81756 13.8779 1.9147 14.1105 2.08341 14.2792L6.62837 18.8242C6.79964 18.9954 7.02969 19.09 7.26998 19.09H11.8149V22.725H8.17998C7.67896 22.725 7.26998 23.1314 7.26998 23.635C7.26998 24.136 7.67642 24.545 8.17998 24.545H11.8149V29.0899H5.28632C4.91055 28.0342 3.91105 27.2725 2.72751 27.2725C1.22444 27.2725 0 28.4944 0 30C0 31.5031 1.22188 32.7275 2.72751 32.7275C3.91105 32.7275 4.9105 31.9657 5.28632 30.9101H11.8149V35.455H8.17998C7.67896 35.455 7.26998 35.8615 7.26998 36.365C7.26998 36.866 7.67642 37.275 8.17998 37.275H11.8149V40.91H7.26998C7.02969 40.91 6.79708 41.0071 6.62837 41.1758L2.08341 45.7208C1.91214 45.892 1.81756 46.1221 1.81756 46.3624V47.4385C0.761832 47.8143 0.000117639 48.8138 0.000117639 49.9974C0.000117639 51.5004 1.222 52.7249 2.72763 52.7249C4.2307 52.7249 5.45514 51.503 5.45514 49.9974C5.45514 48.8138 4.69336 47.8144 3.63769 47.4385V46.7381L7.6484 42.7274H11.8176V43.6374C11.8176 46.1425 13.8575 48.1824 16.3626 48.1824H17.2726V52.3516L13.2619 56.3623H12.5615C12.1857 55.3066 11.1862 54.5449 10.0026 54.5449C8.49957 54.5449 7.27514 55.7667 7.27514 57.2724C7.27514 58.7754 8.49702 59.9999 10.0026 59.9999C11.1862 59.9999 12.1856 59.2381 12.5615 58.1824H13.6376C13.8779 58.1824 14.1105 58.0853 14.2792 57.9166L18.8242 53.3716C18.9954 53.2004 19.09 52.9703 19.09 52.73V48.1851H22.725V51.82C22.725 52.321 23.1314 52.73 23.635 52.73C24.136 52.73 24.545 52.3236 24.545 51.82V48.1851H29.0899V54.7137C28.0342 55.0894 27.2725 56.089 27.2725 57.2725C27.2725 58.7756 28.4944 60 30 60C31.5031 60 32.7275 58.7781 32.7275 57.2725C32.7275 56.089 31.9657 55.0895 30.9101 54.7137V48.1851H35.455V51.82C35.455 52.321 35.8615 52.73 36.365 52.73C36.866 52.73 37.275 52.3236 37.275 51.82V48.1851H40.91V52.73C40.91 52.9703 41.0071 53.2029 41.1758 53.3716L45.7208 57.9166C45.892 58.0879 46.1221 58.1824 46.3624 58.1824H47.4385C47.8143 59.2382 48.8138 59.9999 49.9974 59.9999C51.5004 59.9999 52.7249 58.778 52.7249 57.2724C52.7249 55.7693 51.503 54.5449 49.9974 54.5449C48.8138 54.5449 47.8144 55.3066 47.4385 56.3623H46.7381L42.7274 52.3516V48.1824H43.6374C46.1425 48.1824 48.1824 46.1425 48.1824 43.6374V42.7274H52.3516L56.3623 46.7381V47.4385C55.3066 47.8143 54.5449 48.8138 54.5449 49.9974C54.5449 51.5004 55.7667 52.7249 57.2724 52.7249C58.7755 52.7249 59.9999 51.503 59.9999 49.9974C59.9999 48.8138 59.2381 47.8144 58.1824 47.4385V46.3624C58.1824 46.1221 58.0853 45.8895 57.9166 45.7208L53.3716 41.1758C53.2004 41.0046 52.9703 40.91 52.73 40.91H48.1851V37.275H51.82C52.321 37.275 52.73 36.8686 52.73 36.365C52.73 35.864 52.3236 35.455 51.82 35.455H48.1851V30.9101H54.7137ZM57.2725 29.0901C57.7735 29.0901 58.1825 29.4991 58.1825 30.0001C58.1825 30.5011 57.7735 30.9101 57.2725 30.9101C56.7715 30.9101 56.3625 30.5011 56.3625 30.0001C56.3625 29.4991 56.7715 29.0901 57.2725 29.0901ZM57.2725 9.09508C57.7735 9.09508 58.1825 9.50408 58.1825 10.0051C58.1825 10.5061 57.7735 10.9151 57.2725 10.9151C56.7715 10.9151 56.3625 10.5061 56.3625 10.0051C56.3625 9.50407 56.7715 9.09508 57.2725 9.09508ZM50.0002 1.82543C50.5012 1.82543 50.9102 2.23443 50.9102 2.73543C50.9102 3.23645 50.5012 3.64543 50.0002 3.64543C49.4992 3.64543 49.0902 3.23643 49.0902 2.73543C49.0902 2.23441 49.4992 1.82543 50.0002 1.82543ZM30.0052 1.82543C30.5063 1.82543 30.9152 2.23443 30.9152 2.73543C30.9152 3.23645 30.5062 3.64543 30.0052 3.64543C29.5042 3.64543 29.0952 3.23643 29.0952 2.73543C29.0952 2.23441 29.5042 1.82543 30.0052 1.82543ZM10.0103 3.64288C9.50924 3.64288 9.10025 3.23388 9.10025 2.73288C9.10025 2.23187 9.50925 1.82288 10.0103 1.82288C10.5113 1.82288 10.9203 2.23187 10.9203 2.73288C10.9203 3.23388 10.5113 3.64288 10.0103 3.64288ZM2.73798 9.09528C3.239 9.09528 3.64798 9.50428 3.64798 10.0053C3.64798 10.5063 3.23898 10.9153 2.73798 10.9153C2.23698 10.9153 1.82798 10.5063 1.82798 10.0053C1.82798 9.50426 2.23698 9.09528 2.73798 9.09528ZM2.73798 30.9101C2.23696 30.9101 1.82798 30.5011 1.82798 30.0001C1.82798 29.4991 2.23698 29.0901 2.73798 29.0901C3.23898 29.0901 3.64798 29.4991 3.64798 30.0001C3.64798 30.5011 3.23898 30.9101 2.73798 30.9101ZM2.73798 50.9051C2.23696 50.9051 1.82798 50.4961 1.82798 49.9951C1.82798 49.4941 2.23698 49.0851 2.73798 49.0851C3.23898 49.0851 3.64798 49.4941 3.64798 49.9951C3.64798 50.4961 3.23898 50.9051 2.73798 50.9051ZM10.0103 58.1748C9.50924 58.1748 9.10025 57.7658 9.10025 57.2648C9.10025 56.7638 9.50925 56.3548 10.0103 56.3548C10.5113 56.3548 10.9203 56.7638 10.9203 57.2648C10.9203 57.7658 10.5113 58.1748 10.0103 58.1748ZM30.0052 58.1748C29.5042 58.1748 29.0952 57.7658 29.0952 57.2648C29.0952 56.7638 29.5042 56.3548 30.0052 56.3548C30.5062 56.3548 30.9152 56.7638 30.9152 57.2648C30.9152 57.7658 30.5062 58.1748 30.0052 58.1748ZM50.0002 56.3573C50.5012 56.3573 50.9102 56.7663 50.9102 57.2673C50.9102 57.7683 50.5012 58.1773 50.0002 58.1773C49.4992 58.1773 49.0902 57.7683 49.0902 57.2673C49.0902 56.7663 49.4992 56.3573 50.0002 56.3573ZM57.2725 50.9049C56.7715 50.9049 56.3625 50.4959 56.3625 49.9949C56.3625 49.4939 56.7715 49.0849 57.2725 49.0849C57.7735 49.0849 58.1825 49.4939 58.1825 49.9949C58.1825 50.4959 57.7735 50.9049 57.2725 50.9049ZM46.3651 43.6326C46.3651 45.1357 45.1432 46.3602 43.6376 46.3602H16.3703C14.8672 46.3602 13.6428 45.1383 13.6428 43.6326V16.3654C13.6428 14.8623 14.8647 13.6379 16.3703 13.6379H43.6376C45.1406 13.6379 46.3651 14.8598 46.3651 16.3654V43.6326Z" fill="#A600FF"/>
<path d="M22.9766 36L27.375 24.5469H29.0078L33.6953 36H31.9688L30.6328 32.5312H25.8438L24.5859 36H22.9766ZM26.2812 31.2969H30.1641L28.9688 28.125C28.6042 27.1615 28.3333 26.3698 28.1562 25.75C28.0104 26.4844 27.8047 27.2135 27.5391 27.9375L26.2812 31.2969Z" fill="white"/>
<path d="M35.1641 36V24.5469H36.6797V36H35.1641Z" fill="white"/>
</svg>
