<svg width="42" height="31" viewBox="0 0 42 31" fill="none" xmlns="http://www.w3.org/2000/svg">
<path d="M41.7686 25.3678L29.8827 21.8837L23.9879 19.923C26.1562 18.5898 28.289 17.3541 31.2776 14.2018C31.6946 13.7766 32.0014 13.4235 32.2954 13.0938C35.1526 13.2076 40.092 13.4015 40.027 13.4015C40.091 13.4015 40.1532 13.3827 40.2066 13.3469L41.1313 12.7257C41.3449 12.5822 41.3099 12.258 41.0735 12.1614L35.3687 9.85297C35.4051 9.74838 35.6783 9.46628 35.6167 8.91133C35.5713 8.58039 35.4441 8.27104 35.1564 8.10673L37.3333 0.409634C37.4111 0.13013 37.1111 -0.0997498 36.8618 0.0442755C36.4775 0.267758 35.1815 1.02805 34.6709 1.30859C34.0576 1.6501 33.8536 2.07195 33.8008 2.21069C33.6474 2.48628 32.161 5.15518 30.7879 7.61758L27.5942 4.90651C27.4913 4.8165 27.337 4.80367 27.2213 4.87437L26.4692 5.33719C26.3599 5.4015 26.3021 5.52364 26.3214 5.64578L26.9385 11.0263C24.0042 12.5967 20.4556 14.4996 17.1747 16.2665C2.99049 1.06869 7.88266 6.31043 6.82433 5.17648C6.72146 5.06078 6.55432 5.04151 6.41935 5.11865L4.7287 6.16003C4.60012 6.2436 4.54225 6.40431 4.59369 6.54572L5.66438 9.52124C4.9888 9.95143 4.30141 10.4864 3.71302 11.1227C3.55685 11.2869 3.43087 11.5867 3.43087 11.9341C3.43087 12.7377 3.97515 13.6765 4.66694 14.0695C5.08326 14.312 5.39285 14.291 5.64943 14.1747C5.91321 14.1345 6.80374 13.7577 7.13429 13.6061L7.63348 14.9935C6.73307 15.4694 5.18514 16.5505 4.82322 17.1296C4.66894 17.3184 4.57717 17.5738 4.57717 17.8866C4.57717 18.6901 5.12144 19.6289 5.81324 20.0219C6.22972 20.2646 6.53902 20.2432 6.79522 20.1274C7.21668 20.0641 8.49685 19.4806 9.12489 19.1381L9.57362 20.3852C8.56728 20.937 7.81082 21.3577 7.41573 21.588C4.36228 23.3622 3.28876 24.4807 1.56594 26.602C0.540594 27.8387 0.256806 28.3563 0.209581 28.4213C-0.260944 29.2224 0.0959022 30.0362 0.929548 30.369C3.09865 31.4544 8.38305 28.8934 10.5334 27.7527C12.3705 26.747 13.7869 25.9886 17.0132 24.0821L18.4624 24.2822C18.3266 24.4023 17.8282 24.8531 17.7345 25.0094C17.574 25.2065 17.4784 25.4736 17.4784 25.8011C17.4784 26.6505 18.0534 27.6417 18.7841 28.0564C19.3235 28.3707 19.5616 28.2228 19.8545 28.1641C21.6442 27.6083 23.3981 26.6062 25.0795 25.1958L27.0921 25.4737C26.9549 25.5942 26.4376 26.0583 26.3442 26.2152C26.1816 26.4128 26.085 26.6816 26.085 27.0111C26.085 27.8602 26.66 28.8517 27.3914 29.2661C27.9873 29.6152 28.3013 29.4048 28.462 29.3726C30.259 28.8145 32.0201 27.8067 33.7078 26.387L39.0366 27.1227C39.1009 27.1189 39.0735 27.1308 39.178 27.1099L41.7686 26.3256C41.9036 26.2806 42 26.1585 42 26.0171V25.6764C42 25.535 41.9036 25.4064 41.7686 25.3678ZM39.9347 12.7549L31.33 12.4122L34.8197 10.3239L40.2718 12.5286L39.9347 12.7549ZM34.4004 2.44202C34.4048 2.42947 34.5121 2.13253 34.9823 1.87107C35.3647 1.66101 36.1576 1.19833 36.4977 1.00099L34.433 8.3022L29.63 11.0113C31.0713 8.43246 34.379 2.4913 34.4004 2.44202ZM26.9835 5.77435L27.3563 5.5429L30.4682 8.19073C30.2053 8.66218 29.9518 9.11657 29.7169 9.53736C29.0572 9.89099 28.3302 10.2802 27.5492 10.6984L26.9835 5.77435ZM4.07371 11.9341C4.07371 11.5516 4.29069 11.3796 4.67448 11.5914C5.19085 11.8967 5.58363 12.6267 5.58363 13.1733C5.58363 13.5518 5.38462 13.7435 4.98773 13.5123C4.50058 13.2358 4.07371 12.4982 4.07371 11.9341ZM6.22007 13.3019C6.32348 12.6793 5.83591 11.5312 4.99275 11.033C4.93492 11.0008 4.8701 10.9684 4.81227 10.9491C5.13875 10.6641 5.50513 10.3968 5.88834 10.1436L6.91732 13.0032C6.6865 13.1108 6.45501 13.2115 6.22007 13.3019ZM5.22 17.8866C5.22 17.4796 5.42984 17.327 5.82152 17.5446C6.32075 17.8391 6.72789 18.5447 6.72789 19.1259C6.72789 19.517 6.52622 19.6932 6.13403 19.4648C5.64688 19.1883 5.22 18.4506 5.22 17.8866ZM7.37072 19.2545C7.35237 19.1901 7.43602 17.7518 6.13905 16.9854C6.13312 16.9822 6.12747 16.9813 6.12159 16.9781C6.0687 16.9488 6.01581 16.9194 5.96292 16.9017C6.51127 16.4212 7.15297 15.9887 7.85406 15.6064L8.90309 18.5218C8.39688 18.8039 7.88463 19.0543 7.37072 19.2545ZM5.28796 6.57145L6.53505 5.80648C7.56274 6.90845 2.81218 1.81455 16.5859 16.5837C14.1245 17.91 11.8512 19.14 10.1463 20.0717L5.28796 6.57145ZM10.212 27.1934C8.22491 28.2467 3.18006 30.7009 1.13812 29.7579C0.595467 29.5073 0.513375 29.1651 0.768841 28.7427C0.816262 28.6753 0.906058 28.4634 1.66678 27.5017C2.53067 28.1959 3.23584 28.1505 5.09622 27.5657C5.7276 27.367 6.10832 27.1919 6.42982 27.011C6.83743 26.7817 7.15682 26.6043 6.96279 26.166C6.84976 25.91 6.53805 25.7454 6.20622 25.943C5.87535 26.1401 5.49441 26.232 5.12129 26.3273C4.17147 26.5699 3.8023 26.6027 2.84556 26.0652C4.12644 24.5772 5.26132 23.5801 7.73714 22.1408C10.1517 20.739 26.3488 12.0707 29.1369 10.5761C28.8507 11.0883 28.6284 11.4854 28.5094 11.6965C28.3493 11.9806 28.6664 12.2928 28.9476 12.1344C35.7246 8.30124 34.8089 8.84536 34.9123 8.75584C35.1222 9.17518 34.8062 9.50628 34.7604 9.64742C34.7138 9.65197 34.6679 9.66547 34.6264 9.69019L30.0738 12.4144C29.8005 12.5785 29.9081 12.9988 30.2264 13.0114L31.4645 13.0607C31.2598 13.286 31.0451 13.5185 30.8147 13.7583C27.7807 16.9188 25.767 18.0978 23.1843 19.653L21.9565 19.2481C21.873 19.2224 21.7894 19.2288 21.7123 19.2674C20.4539 19.9144 15.4938 22.4648 14.2361 23.1115C13.9582 23.2577 14.0355 23.6723 14.339 23.7157L15.9911 23.9407C12.2834 26.0912 12.2131 26.1014 10.212 27.1934ZM18.1212 25.8011C18.1212 25.3424 18.3589 25.1805 18.7923 25.4188C19.331 25.7371 19.77 26.499 19.7708 27.1178C19.7702 27.5298 19.5473 27.7577 19.1049 27.4989C18.5713 27.1966 18.1212 26.4192 18.1212 25.8011ZM20.4073 27.2899C20.4296 27.1108 20.404 26.7008 20.2471 26.2828C19.9478 25.4819 19.3509 24.9244 18.8902 24.7571C19.0323 24.6332 19.1905 24.5211 19.3421 24.4037L24.1999 25.0744C22.9663 26.0456 21.6985 26.7969 20.4073 27.2899ZM26.7278 27.0111C26.7278 26.5429 26.9747 26.3953 27.3989 26.6282C27.9388 26.9477 28.3782 27.7108 28.3782 28.3294C28.3782 28.7319 28.1535 28.9682 27.7122 28.7089C27.1786 28.4063 26.7278 27.6289 26.7278 27.0111ZM29.0084 28.4984C29.1094 27.6907 28.5309 26.4352 27.4977 25.9656C27.6459 25.836 27.8122 25.7181 27.972 25.5951L32.8251 26.2652C31.5803 27.2468 30.3058 27.9994 29.0084 28.4984ZM39.0558 26.4735C38.9041 26.4525 21.333 24.0291 15.4254 23.2143C15.5847 23.1327 21.5234 20.0895 21.8858 19.9037C23.8352 20.5514 28.9452 22.2492 29.6834 22.4943C29.6898 22.4943 29.6962 22.5008 29.6962 22.5008L41.1258 25.8499L39.0558 26.4735Z" fill="#2C51A2"/>
<path d="M12 22.5L27.5 14.5" stroke="#C377FC"/>
</svg>
