<svg width="42" height="43" viewBox="0 0 42 43" fill="none" xmlns="http://www.w3.org/2000/svg">
<path d="M22.1499 37.4528H4.79651C3.20965 37.4528 1.9186 36.1618 1.9186 34.5749V12.511H35.4942V22.7676C35.4942 23.2972 35.9239 23.7269 36.4535 23.7269C36.9831 23.7269 37.4128 23.2972 37.4128 22.7676V7.71446C37.4128 5.07036 35.2604 2.91795 32.6163 2.91795H29.7384C29.7384 1.33108 28.4473 0.0400391 26.8605 0.0400391C25.2736 0.0400391 23.9826 1.33108 23.9826 2.91795H13.4302C13.4302 1.33108 12.1392 0.0400391 10.5523 0.0400391C8.96546 0.0400391 7.67442 1.33108 7.67442 2.91795H4.79651C2.15242 2.91795 0 5.07036 0 7.71446V34.5749C0 37.219 2.15242 39.3714 4.79651 39.3714H22.1499C22.6795 39.3714 23.1092 38.9417 23.1092 38.4121C23.1092 37.8825 22.6795 37.4528 22.1499 37.4528ZM25.9012 2.91795C25.9012 2.38831 26.3308 1.95864 26.8605 1.95864C27.3901 1.95864 27.8198 2.38833 27.8198 2.91795V4.83655C27.8198 5.36619 27.3901 5.79585 26.8605 5.79585C26.3308 5.79585 25.9012 5.36617 25.9012 4.83655V2.91795ZM9.59302 2.91795C9.59302 2.38831 10.0227 1.95864 10.5523 1.95864C11.0819 1.95864 11.5116 2.38833 11.5116 2.91795V4.83655C11.5116 5.36619 11.0819 5.79585 10.5523 5.79585C10.0227 5.79585 9.59302 5.36617 9.59302 4.83655V2.91795ZM1.9186 7.71446C1.9186 6.12759 3.20965 4.83655 4.79651 4.83655H7.67442C7.67442 6.42342 8.96546 7.71446 10.5523 7.71446C12.1392 7.71446 13.4302 6.42342 13.4302 4.83655H23.9826C23.9826 6.42342 25.2736 7.71446 26.8605 7.71446C28.4473 7.71446 29.7384 6.42342 29.7384 4.83655H32.6163C34.2031 4.83655 35.4942 6.12759 35.4942 7.71446V10.5924H1.9186V7.71446Z" fill="#A600FF"/>
<path d="M11.5115 18.2653C11.5115 17.2081 10.6501 16.3467 9.5929 16.3467H6.71499C5.65776 16.3467 4.79639 17.2081 4.79639 18.2653V21.1432C4.79639 22.2004 5.65776 23.0618 6.71499 23.0618H9.5929C10.6501 23.0618 11.5115 22.2004 11.5115 21.1432V18.2653ZM6.71499 21.1432V18.2653H9.5929L9.5949 21.1432H6.71499Z" fill="#A600FF"/>
<path d="M22.064 18.2653C22.064 17.2081 21.2026 16.3467 20.1454 16.3467H17.2675C16.2103 16.3467 15.3489 17.2081 15.3489 18.2653V21.1432C15.3489 22.2004 16.2103 23.0618 17.2675 23.0618H20.1454C21.2026 23.0618 22.064 22.2004 22.064 21.1432V18.2653ZM17.2675 21.1432V18.2653H20.1454L20.1474 21.1432H17.2675Z" fill="#A600FF"/>
<path d="M27.8197 16.3467C26.7625 16.3467 25.9011 17.2081 25.9011 18.2653V21.1432C25.9011 22.2004 26.7625 23.0618 27.8197 23.0618H30.6976C31.7549 23.0618 32.6162 22.2004 32.6162 21.1432V18.2653C32.6162 17.2081 31.7549 16.3467 30.6976 16.3467H27.8197ZM27.8197 21.1432V18.2653H30.6976L30.6996 21.1432H27.8197Z" fill="#A600FF"/>
<path d="M9.5929 26.9023H6.71499C5.65776 26.9023 4.79639 27.7637 4.79639 28.8209V31.6989C4.79639 32.7561 5.65776 33.6175 6.71499 33.6175H9.5929C10.6501 33.6175 11.5115 32.7561 11.5115 31.6989V28.8209C11.5115 27.7637 10.6501 26.9023 9.5929 26.9023ZM6.71499 31.6989V28.8209H9.5929L9.5949 31.6989H6.71499Z" fill="#A600FF"/>
<path d="M20.1454 26.9023H17.2675C16.2103 26.9023 15.3489 27.7637 15.3489 28.8209V31.6989C15.3489 32.7561 16.2103 33.6175 17.2675 33.6175H20.1454C21.2026 33.6175 22.064 32.7561 22.064 31.6989V28.8209C22.064 27.7637 21.2026 26.9023 20.1454 26.9023ZM17.2675 31.6989V28.8209H20.1454L20.1474 31.6989H17.2675Z" fill="#A600FF"/>
<path d="M32.6159 24.9834C27.8554 24.9834 23.9822 28.8566 23.9822 33.6171C23.9822 38.3777 27.8554 42.2508 32.6159 42.2508C37.3764 42.2508 41.2496 38.3777 41.2496 33.6171C41.2496 28.8566 37.3764 24.9834 32.6159 24.9834ZM32.6159 40.3322C28.9146 40.3322 25.9008 37.3184 25.9008 33.6171C25.9008 29.9158 28.9146 26.902 32.6159 26.902C36.3172 26.902 39.331 29.9158 39.331 33.6171C39.331 37.3184 36.3172 40.3322 32.6159 40.3322Z" fill="white"/>
<path d="M34.8167 31.0205L31.657 34.1802L30.4159 32.9391C30.0421 32.5654 29.4345 32.5654 29.0589 32.9391C28.6851 33.3129 28.6851 33.9204 29.0589 34.2961L30.9775 36.2147C31.1653 36.4026 31.4112 36.4965 31.655 36.4965C31.9008 36.4965 32.1466 36.4026 32.3325 36.2147L36.1697 32.3775C36.5434 32.0038 36.5434 31.3962 36.1697 31.0205C35.7959 30.6468 35.1884 30.6468 34.8127 31.0205H34.8167Z" fill="white"/>
</svg>
