<svg width="58" height="58" viewBox="0 0 58 58" fill="none" xmlns="http://www.w3.org/2000/svg">
<path d="M43.5 19.334C43.5 15.4883 41.9723 11.8002 39.2531 9.08094C36.5338 6.36166 32.8456 4.83398 29 4.83398C25.1544 4.83398 21.4662 6.36166 18.747 9.08094C16.0277 11.8002 14.5 15.4883 14.5 19.334C14.5 36.2507 7.25 41.084 7.25 41.084H50.75C50.75 41.084 43.5 36.2507 43.5 19.334Z" stroke="#A600FF" stroke-width="4" stroke-linecap="round" stroke-linejoin="round"/>
<path d="M33.181 50.75C32.7561 51.4824 32.1463 52.0904 31.4125 52.513C30.6788 52.9357 29.8469 53.1581 29.0002 53.1581C28.1534 53.1581 27.3215 52.9357 26.5878 52.513C25.854 52.0904 25.2442 51.4824 24.8193 50.75" stroke="white" stroke-width="3" stroke-linecap="round" stroke-linejoin="round"/>
</svg>
