<svg width="51" height="65" viewBox="0 0 51 65" fill="none" xmlns="http://www.w3.org/2000/svg">
<rect x="0.5" y="30.4023" width="12.4194" height="34.0968" stroke="#2C51A2"/>
<path d="M13.4199 16.0312H18.2409" stroke="#C377FC" stroke-width="2" stroke-linecap="round"/>
<path d="M18.4336 4.54297L21.678 7.70779" stroke="#C377FC" stroke-width="2" stroke-linecap="round"/>
<path d="M29.6349 1V4.6129" stroke="#C377FC" stroke-width="2" stroke-linecap="round"/>
<path d="M38.1934 7.70817L40.8361 4.96875" stroke="#C377FC" stroke-width="2" stroke-linecap="round"/>
<path d="M42.3223 16.0312H46.4513" stroke="#C377FC" stroke-width="2" stroke-linecap="round"/>
<mask id="path-7-inside-1_82_11787" fill="white">
<path d="M32.7136 25.3495C34.6563 24.7408 36.3452 23.5109 37.5208 21.8488C38.6963 20.1867 39.2934 18.1845 39.2202 16.15C39.1469 14.1155 38.4075 12.1614 37.1154 10.5881C35.8234 9.01482 34.0504 7.90949 32.069 7.44205C30.0876 6.97462 28.0075 7.17096 26.1485 8.00089C24.2896 8.83082 22.7547 10.2484 21.7798 12.0356C20.805 13.8229 20.4443 15.8808 20.753 17.8931C21.0617 19.9054 22.0229 21.7605 23.4887 23.1733L24.0925 22.5468C22.764 21.2663 21.8928 19.5849 21.613 17.7611C21.3332 15.9373 21.6602 14.0721 22.5437 12.4522C23.4272 10.8324 24.8183 9.54758 26.5032 8.79538C28.1881 8.04317 30.0734 7.86522 31.8692 8.28888C33.6651 8.71254 35.272 9.71435 36.4431 11.1403C37.6141 12.5662 38.2843 14.3373 38.3507 16.1813C38.417 18.0252 37.8759 19.8399 36.8104 21.3464C35.745 22.8528 34.2142 23.9676 32.4534 24.5192L32.7136 25.3495Z"/>
</mask>
<path d="M32.7136 25.3495C34.6563 24.7408 36.3452 23.5109 37.5208 21.8488C38.6963 20.1867 39.2934 18.1845 39.2202 16.15C39.1469 14.1155 38.4075 12.1614 37.1154 10.5881C35.8234 9.01482 34.0504 7.90949 32.069 7.44205C30.0876 6.97462 28.0075 7.17096 26.1485 8.00089C24.2896 8.83082 22.7547 10.2484 21.7798 12.0356C20.805 13.8229 20.4443 15.8808 20.753 17.8931C21.0617 19.9054 22.0229 21.7605 23.4887 23.1733L24.0925 22.5468C22.764 21.2663 21.8928 19.5849 21.613 17.7611C21.3332 15.9373 21.6602 14.0721 22.5437 12.4522C23.4272 10.8324 24.8183 9.54758 26.5032 8.79538C28.1881 8.04317 30.0734 7.86522 31.8692 8.28888C33.6651 8.71254 35.272 9.71435 36.4431 11.1403C37.6141 12.5662 38.2843 14.3373 38.3507 16.1813C38.417 18.0252 37.8759 19.8399 36.8104 21.3464C35.745 22.8528 34.2142 23.9676 32.4534 24.5192L32.7136 25.3495Z" stroke="#C377FC" stroke-width="2" mask="url(#path-7-inside-1_82_11787)"/>
<path d="M25.8065 18.0335L23.742 23.1948C21.6775 21.1303 20.345 17.9848 21.1613 13.9045C21.6776 11.3238 25.2904 7.71094 30.4517 7.71094C35.613 7.71094 37.6775 11.84 38.1937 13.3884C38.7098 14.9367 39.2259 18.5496 37.6775 21.1303C36.4388 23.1948 33.7205 24.9152 32.5162 25.2593C33.0323 24.2271 34.0646 21.8529 34.0646 20.6142C34.0646 19.0658 34.5807 15.4529 34.0646 14.9367C33.5484 14.4206 33.5484 12.8722 30.9678 11.84C28.9033 11.0142 27.3549 12.1841 26.8387 12.8722L25.8065 18.0335Z" fill="#C377FC"/>
<path d="M12.3867 35.8802C13.4265 35.7857 18.3479 33.8667 19.7091 31.4846C21.0704 29.1025 24.152 21.7008 25.5227 18.2978C26.6695 15.4506 26.2033 11.8604 28.3586 11.6335C31.0526 11.3499 34.5975 12.4842 34.3139 18.2978C34.0303 24.1113 31.6198 26.2382 31.6198 27.9398C31.6198 29.301 31.6198 30.8702 31.6198 31.4846C35.3065 31.3901 43.1902 31.3995 45.232 32.1936C47.7843 33.1861 48.7769 33.8951 48.9186 35.8802C49.0321 37.4683 47.9261 38.8106 47.3589 39.2833C48.1152 39.4251 49.7127 40.3042 50.053 42.6863C50.3933 45.0684 48.3987 46.7983 47.3589 47.3655C48.0679 47.8854 49.3724 49.4924 48.9186 51.7611C48.4649 54.0298 46.2718 55.2587 45.232 55.5895C45.5156 56.9602 45.7425 60.0419 44.3812 61.4031C42.6797 63.1046 38.2841 63.6718 35.7318 63.6718C33.1795 63.6718 23.963 64.5225 21.8361 63.6718C20.1345 62.9912 15.6444 60.3633 13.612 59.1344" stroke="#2C51A2"/>
</svg>
