<svg width="60" height="49" viewBox="0 0 60 49" fill="none" xmlns="http://www.w3.org/2000/svg">
<path d="M41.25 31.875C39.6996 31.875 38.4375 33.1371 38.4375 34.6875C38.4375 36.2379 39.6996 37.5 41.25 37.5C42.8004 37.5 44.0625 36.2379 44.0625 34.6875C44.0625 33.1371 42.8004 31.875 41.25 31.875ZM41.25 35.625C40.7332 35.625 40.3125 35.2043 40.3125 34.6875C40.3125 34.1707 40.7332 33.75 41.25 33.75C41.7668 33.75 42.1875 34.1707 42.1875 34.6875C42.1875 35.2043 41.7668 35.625 41.25 35.625Z" fill="white"/>
<path d="M32.8125 31.875C31.2621 31.875 30 33.1371 30 34.6875C30 36.2379 31.2621 37.5 32.8125 37.5C34.3629 37.5 35.625 36.2379 35.625 34.6875C35.625 33.1371 34.3629 31.875 32.8125 31.875ZM32.8125 35.625C32.2957 35.625 31.875 35.2043 31.875 34.6875C31.875 34.1707 32.2957 33.75 32.8125 33.75C33.3293 33.75 33.75 34.1707 33.75 34.6875C33.75 35.2043 33.3293 35.625 32.8125 35.625Z" fill="white"/>
<path d="M49.6875 31.875C48.1371 31.875 46.875 33.1371 46.875 34.6875C46.875 36.2379 48.1371 37.5 49.6875 37.5C51.2379 37.5 52.5 36.2379 52.5 34.6875C52.5 33.1371 51.2379 31.875 49.6875 31.875ZM49.6875 35.625C49.1707 35.625 48.75 35.2043 48.75 34.6875C48.75 34.1707 49.1707 33.75 49.6875 33.75C50.2043 33.75 50.625 34.1707 50.625 34.6875C50.625 35.2043 50.2043 35.625 49.6875 35.625Z" fill="white"/>
<path d="M54.375 15H39.375V5.625C39.375 2.52305 36.852 0 33.75 0H5.625C2.52305 0 0 2.52305 0 5.625V23.4375C0 26.5395 2.52305 29.0625 5.625 29.0625H8.31328L10.5797 32.8395C10.9172 33.4008 11.5324 33.75 12.1875 33.75C12.8426 33.75 13.4578 33.4008 13.7953 32.8395L16.0617 29.0625H20.625V38.4375C20.625 41.5395 23.148 44.0625 26.25 44.0625H43.9383L46.2047 47.8395C46.5422 48.4008 47.1574 48.75 47.8125 48.75C48.4676 48.75 49.0828 48.4008 49.4203 47.8395L51.6867 44.0625H54.375C57.477 44.0625 60 41.5395 60 38.4375V20.625C60 17.523 57.477 15 54.375 15ZM15.5309 27.1875C15.2016 27.1875 14.8969 27.3598 14.727 27.6422L12.1875 31.875L9.64805 27.6422C9.47813 27.3598 9.17344 27.1875 8.84414 27.1875H5.625C3.55664 27.1875 1.875 25.5047 1.875 23.4375V5.625C1.875 3.55781 3.55664 1.875 5.625 1.875H33.75C35.8172 1.875 37.5 3.55781 37.5 5.625V23.4375C37.5 25.5047 35.8172 27.1875 33.75 27.1875H15.5309ZM58.125 38.4375C58.125 40.5047 56.4422 42.1875 54.375 42.1875H51.1559C50.8266 42.1875 50.5219 42.3598 50.352 42.6422L47.8125 46.875L45.273 42.6422C45.1031 42.3598 44.7984 42.1875 44.4691 42.1875H26.25C24.1816 42.1875 22.5 40.5047 22.5 38.4375V29.0625H33.75C36.852 29.0625 39.375 26.5395 39.375 23.4375V16.875H54.375C56.4422 16.875 58.125 18.5578 58.125 20.625V38.4375Z" fill="#A600FF"/>
<path d="M19.6875 5.625C17.1023 5.625 15 7.72734 15 10.3125C15 10.8305 15.4195 11.25 15.9375 11.25C16.4555 11.25 16.875 10.8305 16.875 10.3125C16.875 8.76211 18.1371 7.5 19.6875 7.5C21.2379 7.5 22.5 8.76211 22.5 10.3125C22.5 11.9637 21.607 12.9598 20.6625 14.0145C19.7227 15.0645 18.75 16.1496 18.75 17.8125V18.75C18.75 19.268 19.1695 19.6875 19.6875 19.6875C20.2055 19.6875 20.625 19.268 20.625 18.75V17.8125C20.625 16.9113 21.1699 16.2574 22.0594 15.2648C23.0906 14.1129 24.375 12.6809 24.375 10.3125C24.375 7.72734 22.2727 5.625 19.6875 5.625Z" fill="#A600FF"/>
<path d="M19.6875 23.4375C20.2053 23.4375 20.625 23.0178 20.625 22.5C20.625 21.9822 20.2053 21.5625 19.6875 21.5625C19.1697 21.5625 18.75 21.9822 18.75 22.5C18.75 23.0178 19.1697 23.4375 19.6875 23.4375Z" fill="#A600FF"/>
</svg>
