<svg width="40" height="40" viewBox="0 0 40 40" fill="none" xmlns="http://www.w3.org/2000/svg">
<path d="M14.5703 6.42857L14.5703 1" stroke="#2C51A2" stroke-linecap="round"/>
<path d="M14.5703 38.9989L14.5703 33.5703" stroke="#2C51A2" stroke-linecap="round"/>
<path d="M19.998 6.42857L19.998 1" stroke="#2C51A2" stroke-linecap="round"/>
<path d="M20 38.9989L20 33.5703" stroke="#2C51A2" stroke-linecap="round"/>
<path d="M25.4277 6.42857L25.4277 1" stroke="#2C51A2" stroke-linecap="round"/>
<path d="M25.4277 38.9989L25.4277 33.5703" stroke="#2C51A2" stroke-linecap="round"/>
<path d="M33.5714 14.5742L39 14.5742" stroke="#2C51A2" stroke-linecap="round"/>
<path d="M0.999163 14.5742L6.42773 14.5742" stroke="#2C51A2" stroke-linecap="round"/>
<path d="M33.5714 20.0039L39 20.0039" stroke="#2C51A2" stroke-linecap="round"/>
<path d="M0.999163 20.0039L6.42773 20.0039" stroke="#2C51A2" stroke-linecap="round"/>
<path d="M33.5714 25.4297L39 25.4297" stroke="#2C51A2" stroke-linecap="round"/>
<path d="M0.999163 25.4297L6.42773 25.4297" stroke="#2C51A2" stroke-linecap="round"/>
<rect x="6.38672" y="6.92969" width="26.1429" height="26.1429" rx="1.5" stroke="#2C51A2"/>
<rect x="10" y="10.5" width="19" height="19" rx="1.5" stroke="#2C51A2"/>
<path d="M20.0785 21.9999H16.1173L15.3876 24.0196H14.1367L17.4204 14.9896H18.7885L22.0591 24.0196H20.8082L20.0785 21.9999ZM19.7397 21.0357L18.0979 16.449L16.4561 21.0357H19.7397Z" fill="#C377FC"/>
<path d="M24.676 14.9375V24.0196H23.4902V14.9375H24.676Z" fill="#C377FC"/>
</svg>
