<svg width="62" height="31" viewBox="0 0 62 31" fill="none" xmlns="http://www.w3.org/2000/svg">
<path d="M49.3358 1.04756C60.5764 0.332307 61.611 7.89397 61.3405 9.67681C61.4289 11.0653 61.1452 14.8566 59.3028 18.9135C57.5199 21.7221 58.7333 26.8713 58.8897 27.9635C59.0148 28.8373 58.3683 29.5759 58.0293 29.8359L47.6933 30.07C47.6672 29.3678 47.5056 27.7451 47.0676 26.8713C46.5201 25.779 44.2519 25.701 42.9222 25.467C41.5926 25.2329 41.1233 24.6088 41.1233 23.9846C41.1233 23.3605 41.4362 21.9562 41.358 21.7221C41.2797 21.4881 40.654 21.176 40.4976 20.7859C40.3725 20.4739 40.8626 20.1358 41.1233 20.0058L40.3412 18.9135C40.5758 18.6535 41.0138 18.0709 40.8887 17.8213C40.7322 17.5092 40.4976 17.5092 39.4808 17.3532C38.6674 17.2283 38.6205 16.573 38.6987 16.2609L41.5926 11.7359C41.3579 11.6319 40.9642 9.18439 41.5926 6.89884C42.5638 3.36637 45.5489 1.28853 49.3358 1.04756Z" stroke="#2C51A2"/>
<path d="M13.0402 1.04756C1.79962 0.332307 0.764954 7.89397 1.03551 9.67681C0.947052 11.0653 1.23074 14.8566 3.07313 18.9135C4.85606 21.7221 3.64272 26.8713 3.4863 27.9635C3.36115 28.8373 4.00772 29.5759 4.34665 29.8359L14.6827 30.07C14.7088 29.3678 14.8704 27.7451 15.3084 26.8713C15.8559 25.779 18.1241 25.701 19.4537 25.467C20.7834 25.2329 21.2527 24.6088 21.2527 23.9846C21.2527 23.3605 20.9398 21.9562 21.018 21.7221C21.0962 21.4881 21.7219 21.176 21.8784 20.7859C22.0035 20.4739 21.5134 20.1358 21.2527 20.0058L22.0348 18.9135C21.8002 18.6535 21.3622 18.0709 21.4873 17.8213C21.6437 17.5092 21.8784 17.5092 22.8952 17.3532C23.7086 17.2283 23.7555 16.573 23.6773 16.2609L20.7834 11.7359C21.018 11.6319 21.4118 9.18439 20.7834 6.89884C19.8122 3.36637 16.8271 1.28853 13.0402 1.04756Z" stroke="#2C51A2"/>
<path d="M35.7704 14.043C34.3217 14.4839 32.873 16.7021 32.873 19.2261C32.873 21.75 33.9596 23.302 34.8789 24.1838" stroke="#C377FC"/>
<path d="M32.8739 12.5859C31.4253 13.1528 29.9766 16.0048 29.9766 19.2499C29.9766 22.495 31.0631 24.4904 31.9824 25.6242" stroke="#C377FC"/>
</svg>
