<svg width="50" height="40" viewBox="0 0 50 40" fill="none" xmlns="http://www.w3.org/2000/svg">
<path d="M12.5646 15.096L9.19065 11.876L12.5646 8.67H14.1746L10.7866 11.876L14.1746 15.096H12.5646ZM21.6183 3.812L17.7823 19.38H16.5223L20.3443 3.812H21.6183ZM23.7545 8.67H25.3645L28.7525 11.876L25.3645 15.096H23.7545L27.1425 11.876L23.7545 8.67Z" fill="#C377FC"/>
<path d="M49.0435 22.1738L48.044 21.9935C47.9879 21.9827 47.9555 21.9548 47.9382 21.899C47.7677 21.3002 47.5237 20.7228 47.2193 20.1797C47.1912 20.1303 47.1912 20.0852 47.2258 20.0423L47.8065 19.2116C48.126 18.7565 48.0656 18.1405 47.6748 17.7434L46.3817 16.4576C45.9888 16.067 45.365 16.0133 44.9051 16.3267L44.0696 16.9041C44.0265 16.9363 43.9747 16.9363 43.9315 16.9106C43.3853 16.6079 42.8046 16.3718 42.2023 16.1958C42.1461 16.1786 42.1202 16.1464 42.1073 16.0906L41.926 15.0967C41.8266 14.5537 41.3517 14.1522 40.7926 14.1522H40.3889V3.06093C40.3889 1.37377 39.0072 0 37.3104 0H3.07845C1.38164 0 0 1.37377 0 3.06093V26.52C0 28.2072 1.38164 29.581 3.07845 29.581H14.8439L13.7386 35.2068H12.2296C11.1631 35.2068 10.2888 36.0697 10.2888 37.1366V38.0703C10.2888 39.1307 11.1567 40 12.2296 40H28.1681C29.2346 40 30.1089 39.1371 30.1089 38.0703V37.1366C30.1089 36.0762 29.2411 35.2068 28.1681 35.2068H26.6548L25.5495 29.581H31.784C31.6847 29.9652 31.7905 30.3881 32.0819 30.68L33.375 31.9657C33.7679 32.3564 34.3918 32.4101 34.8516 32.0967L35.6871 31.5192C35.7303 31.487 35.7821 31.487 35.8317 31.5128C36.3779 31.8155 36.9586 32.0516 37.5609 32.2276C37.6171 32.2448 37.643 32.277 37.6559 32.3328L37.8373 33.3266C37.9366 33.8697 38.4115 34.2711 38.9706 34.2711H40.7992C41.3583 34.2711 41.8332 33.8762 41.9325 33.3266L42.1139 32.3328C42.1247 32.277 42.1527 32.2448 42.2089 32.2276C42.8047 32.058 43.3919 31.8155 43.9381 31.5128C43.9877 31.4849 44.0331 31.4849 44.0762 31.5192L44.9117 32.0967C45.3693 32.4144 45.9889 32.3543 46.3883 31.9657L47.6814 30.68C48.0743 30.2893 48.1348 29.669 47.8131 29.2118L47.2324 28.3811C47.2 28.3381 47.2 28.2866 47.2259 28.2372C47.5303 27.6942 47.7678 27.1167 47.9448 26.5179C47.9621 26.4621 47.9944 26.4363 48.0506 26.4234L49.0501 26.2431C49.5963 26.1444 50 25.6721 50 25.1162V23.2981C49.9935 22.7507 49.5962 22.2725 49.0435 22.1738ZM3.07814 1.01768H37.3101C38.4435 1.01768 39.3653 1.9364 39.3653 3.06119V14.1563H38.9616C38.4025 14.1563 37.9276 14.5513 37.8282 15.1008L37.6469 16.0947C37.6361 16.1505 37.608 16.1827 37.5519 16.1999C36.9561 16.3694 36.3689 16.612 35.8227 16.9147C35.7731 16.9426 35.7277 16.9426 35.6846 16.9082L34.8491 16.3308C34.3914 16.0131 33.7719 16.0732 33.3725 16.4617L32.0794 17.7475C31.6865 18.1381 31.626 18.7585 31.9477 19.2157L32.5284 20.0464C32.5608 20.0893 32.5608 20.1409 32.5349 20.1902C32.2305 20.7333 31.9887 21.3107 31.816 21.9096C31.7987 21.9654 31.7663 21.9911 31.7102 22.004L30.7107 22.1843C30.1645 22.2831 29.7608 22.7553 29.7608 23.3113V23.9101H1.02274V3.06119C1.02274 1.93425 1.94476 1.01768 3.07814 1.01768ZM1.02293 26.5204V24.9148H29.7676V25.123C29.7676 25.6789 30.1648 26.1512 30.7175 26.2499L31.717 26.4302C31.7732 26.441 31.8055 26.4689 31.8228 26.5247C31.9934 27.1171 32.2373 27.701 32.5417 28.2441C32.5698 28.2934 32.5698 28.3385 32.5352 28.3879L32.4079 28.5682L3.07849 28.5703C1.9451 28.5639 1.02293 27.6473 1.02293 26.5204ZM29.0812 37.1309V38.0646C29.0812 38.5648 28.6732 38.9769 28.1637 38.9769H12.2251C11.7221 38.9769 11.3076 38.5712 11.3076 38.0646V37.1309C11.3076 36.6243 11.7156 36.2186 12.2251 36.2186H28.1637C28.671 36.2186 29.0812 36.6307 29.0812 37.1309ZM25.6163 35.2076H14.7793L15.8846 29.5817H24.511L25.6163 35.2076ZM48.9704 25.123C48.9704 25.1895 48.9272 25.2432 48.8603 25.2539L47.8608 25.4342C47.4247 25.5115 47.0814 25.8249 46.9606 26.2478C46.8116 26.7694 46.5957 27.2803 46.3302 27.7589C46.1143 28.1432 46.1359 28.6047 46.3906 28.9674L46.9714 29.7981C47.0102 29.8539 47.0038 29.9183 46.9541 29.9677L45.661 31.2534C45.6114 31.3028 45.5444 31.3092 45.4905 31.2706L44.655 30.6932C44.2902 30.4399 43.826 30.4184 43.4396 30.6331C42.9582 30.8971 42.4509 31.1053 41.9198 31.2598C41.4945 31.3801 41.1858 31.7278 41.1016 32.1549L40.9203 33.1488C40.9095 33.2153 40.8534 33.2583 40.7886 33.2583H38.9601C38.8932 33.2583 38.8392 33.2153 38.8284 33.1488L38.647 32.1549C38.5693 31.7213 38.2541 31.38 37.8288 31.2598C37.3043 31.1117 36.7905 30.8971 36.309 30.6331C36.132 30.5343 35.9377 30.4893 35.7499 30.4893C35.5168 30.4893 35.2923 30.5601 35.0915 30.6932L34.256 31.2706C34.1999 31.3092 34.1352 31.3028 34.0855 31.2534L32.7924 29.9677C32.7427 29.9183 32.7363 29.8518 32.7751 29.7981L33.3559 28.9674C33.6106 28.6047 33.6322 28.1432 33.4163 27.7589C33.1508 27.2803 32.9414 26.7758 32.7859 26.2478C32.6651 25.8249 32.3153 25.518 31.8857 25.4342L30.8862 25.2539C30.8193 25.2432 30.7761 25.1874 30.7761 25.123V23.3049C30.7761 23.2384 30.8193 23.1847 30.8862 23.174L31.8857 22.9937C32.3218 22.9164 32.6651 22.603 32.7859 22.1801C32.9349 21.6585 33.1508 21.1476 33.4163 20.669C33.6322 20.2847 33.6106 19.8232 33.3559 19.4605L32.7751 18.6298C32.7363 18.574 32.7427 18.5096 32.7924 18.4602L34.0855 17.1745C34.1352 17.1251 34.2021 17.1187 34.256 17.1573L35.0915 17.7347C35.4563 17.988 35.9205 18.0095 36.3069 17.7948C36.7883 17.5308 37.2956 17.3226 37.8267 17.168C38.252 17.0478 38.5607 16.7001 38.6449 16.273L38.8262 15.2791C38.837 15.2126 38.8932 15.1696 38.9579 15.1696H40.7864C40.8534 15.1696 40.9073 15.2126 40.9181 15.2791L41.0995 16.273C41.1772 16.7065 41.4924 17.0479 41.9177 17.168C42.4423 17.3162 42.956 17.5308 43.4375 17.7948C43.8239 18.0095 44.2881 17.9816 44.6529 17.7347L45.4883 17.1573C45.5444 17.1187 45.6092 17.1251 45.6589 17.1745L46.952 18.4602C47.0016 18.5096 47.0081 18.5761 46.9692 18.6298L46.3885 19.4605C46.1338 19.8232 46.1122 20.2847 46.328 20.669C46.5936 21.1476 46.803 21.6521 46.9584 22.1801C47.0793 22.603 47.429 22.9099 47.8586 22.9937L48.8582 23.174C48.9251 23.1847 48.9683 23.2405 48.9683 23.3049L48.9704 25.123ZM39.8798 19.7159C37.3864 19.7159 35.3592 21.7337 35.3592 24.2108C35.3592 26.69 37.3885 28.7056 39.8798 28.7056C42.3732 28.7056 44.4003 26.6878 44.4003 24.2108C44.4003 21.7337 42.3732 19.7159 39.8798 19.7159ZM39.8798 27.6904C37.952 27.6904 36.3825 26.1299 36.3825 24.2131C36.3825 22.2962 37.952 20.7357 39.8798 20.7357C41.8076 20.7357 43.377 22.2962 43.377 24.2131C43.3792 26.1299 41.8098 27.6904 39.8798 27.6904Z" fill="#2C51A2"/>
</svg>
