<svg width="33" height="46" viewBox="0 0 33 46" fill="none" xmlns="http://www.w3.org/2000/svg">
<g clip-path="url(#clip0_455_12499)">
<path d="M24.4017 25.5878L23.9324 25.4526C23.4292 26.3817 22.7874 27.2288 22.0291 27.9647C21.5575 28.4032 20.7389 29.1239 19.7697 29.7343C18.7937 30.349 17.6958 30.8319 16.6625 30.8319C15.6289 30.8319 14.5213 30.3476 13.5386 29.7321C12.5633 29.1213 11.7415 28.4009 11.2837 27.9667C9.94828 26.6341 8.95775 24.996 8.39792 23.1944L7.91354 23.315C7.9782 23.6568 8.03393 23.9993 8.0852 24.3431C8.0852 24.3884 8.0871 24.4649 8.11604 24.5471C8.11847 24.5715 8.11691 24.5962 8.11137 24.6203C8.10437 24.6506 8.09119 24.6791 8.07265 24.7041L7.98601 24.8208L8.04457 24.9538C8.65441 26.3392 9.52399 27.5949 10.6063 28.653L10.6075 28.6542C11.0913 29.121 11.9773 29.8997 13.0476 30.5633C14.1129 31.2239 15.3897 31.7887 16.6482 31.7887C17.9069 31.7887 19.1791 31.2237 20.2419 30.5632C21.3098 29.8996 22.1954 29.1211 22.6872 28.6559L22.6886 28.6545C23.4409 27.9314 24.0868 27.1052 24.6069 26.2006L24.7193 26.0051L24.5363 25.8732C24.4916 25.8409 24.4557 25.7978 24.4322 25.7479C24.4086 25.698 24.3981 25.6429 24.4017 25.5878Z" fill="#A600FF" stroke="#A600FF" stroke-width="0.5"/>
<path d="M19.5858 19.1074L19.5863 19.1074C19.6751 19.1067 19.762 19.0818 19.8376 19.0354L19.7069 18.8223L19.8376 19.0354C19.9127 18.9893 19.9739 18.9238 20.0147 18.8458C20.1608 18.5736 20.3773 18.3457 20.6416 18.1858C20.9063 18.0257 21.2092 17.9397 21.5185 17.9368L21.5185 17.9369L21.5241 17.9367C21.8455 17.9266 22.164 18.001 22.4477 18.1524C22.7309 18.3035 22.9695 18.5261 23.14 18.798C23.1729 18.8522 23.216 18.8995 23.2671 18.9373C23.3189 18.9756 23.3779 19.0033 23.4405 19.0187C23.5031 19.0342 23.5681 19.037 23.6319 19.0272C23.6956 19.0173 23.7567 18.9949 23.8117 18.9612L23.8117 18.9613L23.8138 18.96C23.9225 18.8921 24.0004 18.7845 24.0311 18.66C24.0618 18.5356 24.0427 18.4041 23.978 18.2934L23.9781 18.2934L23.9744 18.2874C23.72 17.879 23.3651 17.5426 22.9436 17.3104C22.5224 17.0783 22.0487 16.958 21.5678 16.961H21.502V16.961L21.4979 16.961C21.0159 16.9688 20.5446 17.105 20.1327 17.3556C19.7208 17.6062 19.3832 17.9622 19.1548 18.3868L19.1546 18.3871C19.1241 18.444 19.1052 18.5065 19.0989 18.5708C19.0927 18.6351 19.0993 18.7 19.1184 18.7617C19.1375 18.8235 19.1686 18.8808 19.21 18.9304C19.2504 18.9788 19.2998 19.0189 19.3555 19.0485C19.4259 19.0876 19.5053 19.1079 19.5858 19.1074Z" fill="#A600FF" stroke="#A600FF" stroke-width="0.5"/>
<path d="M22.6925 19.26C22.8399 19.0176 22.9116 18.7366 22.8984 18.4532C22.8936 18.2708 22.853 18.0911 22.779 17.9243C22.7046 17.7565 22.5979 17.6051 22.4649 17.4786C22.332 17.3521 22.1754 17.253 22.0042 17.1871C21.8339 17.1215 21.6524 17.0899 21.47 17.0941C21.1862 17.0951 20.9092 17.1806 20.6744 17.34C20.4387 17.4999 20.2564 17.7267 20.1508 17.9912C20.0453 18.2557 20.0214 18.5458 20.0822 18.824C20.1431 19.1022 20.2859 19.3558 20.4922 19.5521C20.6985 19.7484 20.9589 19.8784 21.2398 19.9253C21.5207 19.9722 21.8092 19.9339 22.0681 19.8153C22.327 19.6968 22.5445 19.5034 22.6925 19.26Z" fill="#A600FF" stroke="#A600FF" stroke-width="0.5"/>
<path d="M9.94372 18.6671L10.1564 18.7985C10.3254 18.525 10.5639 18.3012 10.8476 18.1498C11.1313 17.9984 11.45 17.9249 11.7713 17.9367L11.7713 17.9368L11.7786 17.9369C12.0872 17.9391 12.3895 18.0248 12.6533 18.1849C12.9172 18.3449 13.1328 18.5734 13.2774 18.8461L13.2776 18.8466C13.3189 18.9239 13.38 18.9889 13.4547 19.0347C13.5295 19.0806 13.6151 19.1057 13.7027 19.1074L13.7114 19.1076L13.72 19.1071C13.7928 19.1035 13.8639 19.0841 13.9284 19.0503L13.9285 19.0504L13.9358 19.0463C14.0469 18.9832 14.1291 18.8794 14.1651 18.7569C14.2012 18.6343 14.1882 18.5026 14.129 18.3894L14.129 18.3894L14.1277 18.3869C13.8992 17.9623 13.5617 17.6063 13.1498 17.3556C12.7383 17.1053 12.2676 16.9691 11.7861 16.9611C11.2954 16.9472 10.8097 17.0623 10.3774 17.2949C9.9447 17.5278 9.58074 17.8703 9.32197 18.288L9.32195 18.288L9.32056 18.2903C9.25345 18.4013 9.23317 18.5344 9.2642 18.6604C9.29523 18.7863 9.37503 18.8948 9.48604 18.9619C9.59704 19.029 9.73016 19.0493 9.85611 19.0183C9.98207 18.9873 10.0905 18.9075 10.1577 18.7965L9.94372 18.6671ZM9.94372 18.6671C9.91091 18.7214 9.85788 18.7604 9.79631 18.7755C9.73473 18.7907 9.66966 18.7808 9.61539 18.748C9.56112 18.7152 9.52211 18.6622 9.50694 18.6006C9.49177 18.539 9.50168 18.4739 9.5345 18.4197L11.7805 17.211C12.2181 17.218 12.6459 17.3417 13.0198 17.5692C13.3937 17.7967 13.7001 18.1199 13.9075 18.5053C13.9367 18.5611 13.9431 18.626 13.9253 18.6863C13.9075 18.7467 13.867 18.7978 13.8123 18.8289C13.7799 18.8459 13.7442 18.8556 13.7076 18.8574C13.6645 18.8566 13.6223 18.8442 13.5855 18.8216C13.5487 18.7991 13.5186 18.7671 13.4983 18.729C13.3326 18.4165 13.0854 18.1546 12.783 17.9711C12.4806 17.7877 12.1342 17.6894 11.7805 17.6869C11.415 17.6734 11.0525 17.7571 10.7299 17.9293C10.4073 18.1014 10.136 18.356 9.94372 18.6671Z" fill="#A600FF" stroke="#A600FF" stroke-width="0.5"/>
<path d="M10.5154 17.9253C10.4421 18.0921 10.4022 18.2716 10.398 18.4537C10.3849 18.7372 10.4568 19.0182 10.6044 19.2607C10.7526 19.5041 10.9704 19.6975 11.2297 19.8159C11.4889 19.9344 11.7778 19.9723 12.0588 19.9249C12.3399 19.8775 12.6003 19.747 12.8064 19.5501C13.0125 19.3532 13.1548 19.099 13.215 18.8204C13.2752 18.5418 13.2505 18.2516 13.144 17.9872C13.0376 17.7228 12.8543 17.4963 12.6179 17.3372C12.3824 17.1786 12.105 17.094 11.8212 17.0941C11.6391 17.09 11.458 17.1216 11.288 17.1873C11.117 17.2534 10.9607 17.3526 10.8281 17.4792C10.6955 17.6059 10.5893 17.7575 10.5154 17.9253Z" fill="#A600FF" stroke="#A600FF" stroke-width="0.5"/>
<path d="M14.5769 15.3206L14.577 15.3204L14.5663 15.3164C13.6751 14.9819 12.7297 14.8151 11.7779 14.8246L11.7683 14.8247L11.7588 14.8255C10.9266 14.8976 10.1191 15.1448 9.38909 15.5508L9.33317 15.582L9.29907 15.6361C9.27717 15.6709 9.24744 15.7336 9.25513 15.8146C9.26346 15.9025 9.31089 15.9646 9.35497 16.001C9.42441 16.0583 9.50924 16.0724 9.54364 16.0778C9.63457 16.092 9.76215 16.0927 9.89963 16.0901C10.0132 16.0879 10.1395 16.0834 10.2805 16.0783C10.5122 16.0701 10.7834 16.0604 11.1023 16.0574C11.5646 16.053 12.0476 16.1893 12.5154 16.3393C12.5742 16.3581 12.6332 16.3773 12.6919 16.3965C12.8604 16.4513 13.0268 16.5055 13.1803 16.5486C13.3865 16.6065 13.5947 16.6522 13.7837 16.6522C14.2097 16.6522 14.495 16.3796 14.6402 16.1281C14.7132 16.0017 14.761 15.8647 14.7749 15.7416C14.7817 15.6812 14.782 15.6096 14.7621 15.5394C14.7423 15.4695 14.6919 15.3699 14.5769 15.3206ZM9.60946 15.5814C9.60961 15.5813 9.61174 15.5817 9.61539 15.5829C9.61114 15.5821 9.60931 15.5815 9.60946 15.5814Z" fill="#A600FF" stroke="#A600FF" stroke-width="0.5"/>
<path d="M16.6378 25.5027L16.6488 25.5032L16.6598 25.5027C17.1673 25.4792 17.6475 25.2661 18.0056 24.9057L18.0056 24.9057L18.0078 24.9035C18.0969 24.8116 18.1467 24.6886 18.1467 24.5606C18.1467 24.4326 18.0969 24.3096 18.0078 24.2176L18.0078 24.2176L18.0058 24.2156C17.9604 24.1699 17.9065 24.1336 17.847 24.1088C17.7875 24.084 17.7238 24.0713 17.6594 24.0713C17.595 24.0713 17.5312 24.084 17.4717 24.1088C17.4123 24.1336 17.3583 24.1699 17.3129 24.2156L17.3129 24.2156L17.3084 24.2203C17.1348 24.4048 16.8996 24.5187 16.6478 24.5406C16.4002 24.5199 16.1682 24.4103 15.9948 24.2318L15.9948 24.2318L15.993 24.2299C15.9476 24.1842 15.8937 24.1479 15.8342 24.1231C15.7747 24.0983 15.711 24.0856 15.6465 24.0856C15.5821 24.0856 15.5184 24.0983 15.4589 24.1231C15.3994 24.1479 15.3455 24.1842 15.3001 24.2299L15.3001 24.2299L15.2981 24.2319C15.209 24.3238 15.1592 24.4468 15.1592 24.5749C15.1592 24.7029 15.209 24.8259 15.2981 24.9178L15.2981 24.9178L15.302 24.9217C15.6595 25.2748 16.1358 25.4819 16.6378 25.5027Z" fill="#A600FF" stroke="#A600FF" stroke-width="0.5"/>
<path d="M14.457 27.6693L14.4714 27.684L14.488 27.6962C15.1135 28.1529 15.8757 28.383 16.6491 28.3488C17.4153 28.3775 18.1691 28.1478 18.7892 27.6964L18.8007 27.688L18.8112 27.6784C18.8585 27.6349 18.8968 27.5826 18.9238 27.5243C18.9509 27.466 18.9662 27.403 18.9689 27.3389C18.9717 27.2747 18.9617 27.2106 18.9396 27.1503L18.9396 27.1503C18.9176 27.09 18.8839 27.0346 18.8404 26.9873L18.8404 26.9873C18.7969 26.94 18.7446 26.9017 18.6864 26.8746C18.6281 26.8476 18.5651 26.8322 18.5009 26.8295C18.4367 26.8268 18.3727 26.8368 18.3123 26.8588L18.3982 27.0936L18.3123 26.8588C18.2587 26.8784 18.209 26.9073 18.1654 26.9439C17.7199 27.2455 17.1885 27.3945 16.6509 27.3683L16.6388 27.3677L16.6266 27.3683C16.0853 27.3946 15.5501 27.2442 15.1017 26.9401C15.0061 26.867 14.8869 26.8317 14.7667 26.8413C14.6427 26.8511 14.5271 26.908 14.4436 27.0002C14.3601 27.0924 14.315 27.213 14.3175 27.3374C14.32 27.4618 14.3699 27.5805 14.457 27.6693Z" fill="#A600FF" stroke="#A600FF" stroke-width="0.5"/>
<mask id="path-9-outside-1_455_12499" maskUnits="userSpaceOnUse" x="19.8213" y="28.1738" width="14" height="16" fill="black">
<rect fill="white" x="19.8213" y="28.1738" width="14" height="16"/>
<path d="M32.0036 43.7774C31.4326 41.8217 30.8045 40.9985 29.2009 40.1087C28.4633 39.6995 27.5354 39.2569 26.5504 38.7811C25.337 38.2006 24.0856 37.601 22.9911 36.9776C20.926 35.7833 20.8213 34.7888 20.8213 32.8331V29.4117C20.8213 29.3486 20.8464 29.2881 20.891 29.2435C20.9356 29.1989 20.9961 29.1738 21.0592 29.1738C21.1223 29.1738 21.1828 29.1989 21.2274 29.2435C21.2721 29.2881 21.2971 29.3486 21.2971 29.4117V32.8331C21.2971 34.6365 21.2971 35.4597 23.2005 36.5541C24.2807 37.168 25.5226 37.7675 26.7265 38.3433C27.7162 38.8192 28.6537 39.2664 29.4007 39.6852C31.1185 40.6369 31.8275 41.5552 32.4318 43.6347"/>
</mask>
<path d="M32.0036 43.7774C31.4326 41.8217 30.8045 40.9985 29.2009 40.1087C28.4633 39.6995 27.5354 39.2569 26.5504 38.7811C25.337 38.2006 24.0856 37.601 22.9911 36.9776C20.926 35.7833 20.8213 34.7888 20.8213 32.8331V29.4117C20.8213 29.3486 20.8464 29.2881 20.891 29.2435C20.9356 29.1989 20.9961 29.1738 21.0592 29.1738C21.1223 29.1738 21.1828 29.1989 21.2274 29.2435C21.2721 29.2881 21.2971 29.3486 21.2971 29.4117V32.8331C21.2971 34.6365 21.2971 35.4597 23.2005 36.5541C24.2807 37.168 25.5226 37.7675 26.7265 38.3433C27.7162 38.8192 28.6537 39.2664 29.4007 39.6852C31.1185 40.6369 31.8275 41.5552 32.4318 43.6347" fill="#A600FF"/>
<path d="M29.2009 40.1087L29.4435 39.6715L29.4435 39.6715L29.2009 40.1087ZM26.5504 38.7811L26.7679 38.3309L26.7662 38.33L26.5504 38.7811ZM22.9911 36.9776L22.7408 37.4105L22.7437 37.4121L22.9911 36.9776ZM23.2005 36.5541L22.9513 36.9876L22.9535 36.9889L23.2005 36.5541ZM26.7265 38.3433L26.9431 37.8927L26.9422 37.8922L26.7265 38.3433ZM29.4007 39.6852L29.1563 40.1213L29.1584 40.1225L29.4007 39.6852ZM32.4835 43.6373C32.1907 42.6344 31.8697 41.8722 31.3868 41.2399C30.9007 40.6034 30.2783 40.1347 29.4435 39.6715L28.9583 40.5459C29.727 40.9725 30.2205 41.3603 30.5921 41.8468C30.9669 42.3375 31.2454 42.9648 31.5236 43.9176L32.4835 43.6373ZM29.4435 39.6715C28.6903 39.2536 27.7463 38.8035 26.7679 38.3309L26.3329 39.2313C27.3246 39.7104 28.2363 40.1453 28.9583 40.5459L29.4435 39.6715ZM26.7662 38.33C25.5493 37.7479 24.3147 37.1561 23.2386 36.5432L22.7437 37.4121C23.8565 38.0459 25.1247 38.6533 26.3346 39.2321L26.7662 38.33ZM23.2415 36.5448C22.2548 35.9742 21.8132 35.495 21.589 34.9885C21.3539 34.4573 21.3213 33.8253 21.3213 32.8331H20.3213C20.3213 33.7965 20.341 34.6396 20.6746 35.3932C21.019 36.1715 21.6623 36.7867 22.7408 37.4105L23.2415 36.5448ZM21.3213 32.8331V29.4117H20.3213V32.8331H21.3213ZM21.3213 29.4117C21.3213 29.4813 21.2937 29.5479 21.2445 29.5971L20.5374 28.89C20.399 29.0283 20.3213 29.216 20.3213 29.4117H21.3213ZM21.2445 29.5971C21.1954 29.6462 21.1287 29.6738 21.0592 29.6738V28.6738C20.8635 28.6738 20.6758 28.7516 20.5374 28.89L21.2445 29.5971ZM21.0592 29.6738C20.9897 29.6738 20.923 29.6462 20.8739 29.5971L21.581 28.89C21.4426 28.7516 21.2549 28.6738 21.0592 28.6738V29.6738ZM20.8739 29.5971C20.8247 29.5479 20.7971 29.4813 20.7971 29.4117H21.7971C21.7971 29.216 21.7194 29.0283 21.581 28.89L20.8739 29.5971ZM20.7971 29.4117V32.8331H21.7971V29.4117H20.7971ZM20.7971 32.8331C20.7971 33.7028 20.789 34.4726 21.0739 35.1526C21.373 35.8669 21.9579 36.4164 22.9513 36.9876L23.4497 36.1207C22.5397 35.5974 22.1729 35.1882 21.9962 34.7663C21.8052 34.3103 21.7971 33.7668 21.7971 32.8331H20.7971ZM22.9535 36.9889C24.0514 37.6128 25.3089 38.2196 26.5108 38.7944L26.9422 37.8922C25.7363 37.3155 24.51 36.7232 23.4475 36.1194L22.9535 36.9889ZM26.5098 38.7939C27.5056 39.2727 28.4261 39.7121 29.1563 40.1213L29.6452 39.249C28.8812 38.8208 27.9269 38.3656 26.9431 37.8927L26.5098 38.7939ZM29.1584 40.1225C29.9828 40.5793 30.5263 41.0066 30.9374 41.5417C31.3511 42.0801 31.6577 42.7627 31.9517 43.7742L32.912 43.4951C32.6016 42.4272 32.2516 41.6109 31.7303 40.9324C31.2064 40.2505 30.5364 39.7428 29.643 39.2478L29.1584 40.1225Z" fill="#A600FF" mask="url(#path-9-outside-1_455_12499)"/>
<mask id="path-11-outside-2_455_12499" maskUnits="userSpaceOnUse" x="-0.164062" y="28.1738" width="14" height="16" fill="black">
<rect fill="white" x="-0.164062" y="28.1738" width="14" height="16"/>
<path d="M0.835938 43.6299C1.44026 41.5505 2.14926 40.6321 3.86229 39.6804C4.61413 39.2617 5.54678 38.8144 6.53653 38.3385C7.74041 37.7628 8.98712 37.1632 10.0673 36.5494C11.9706 35.4549 11.9706 34.646 11.9706 32.8283V29.4117C11.9706 29.3486 11.9957 29.2881 12.0403 29.2435C12.085 29.1989 12.1455 29.1738 12.2086 29.1738C12.2713 29.175 12.3311 29.2005 12.3755 29.2449C12.4198 29.2892 12.4453 29.349 12.4465 29.4117V32.8331C12.4465 34.7935 12.3513 35.788 10.2862 36.9681C9.21076 37.5915 7.97357 38.1863 6.7459 38.7668C5.76091 39.2427 4.84253 39.6852 4.09546 40.0944C2.49187 40.9842 1.86376 41.8074 1.31178 43.7774"/>
</mask>
<path d="M0.835938 43.6299C1.44026 41.5505 2.14926 40.6321 3.86229 39.6804C4.61413 39.2617 5.54678 38.8144 6.53653 38.3385C7.74041 37.7628 8.98712 37.1632 10.0673 36.5494C11.9706 35.4549 11.9706 34.646 11.9706 32.8283V29.4117C11.9706 29.3486 11.9957 29.2881 12.0403 29.2435C12.085 29.1989 12.1455 29.1738 12.2086 29.1738C12.2713 29.175 12.3311 29.2005 12.3755 29.2449C12.4198 29.2892 12.4453 29.349 12.4465 29.4117V32.8331C12.4465 34.7935 12.3513 35.788 10.2862 36.9681C9.21076 37.5915 7.97357 38.1863 6.7459 38.7668C5.76091 39.2427 4.84253 39.6852 4.09546 40.0944C2.49187 40.9842 1.86376 41.8074 1.31178 43.7774" fill="#A600FF"/>
<path d="M3.86229 39.6804L4.10512 40.1175L4.10559 40.1172L3.86229 39.6804ZM6.53653 38.3385L6.3208 37.8875L6.31988 37.8879L6.53653 38.3385ZM10.0673 36.5494L10.3143 36.9841L10.3165 36.9828L10.0673 36.5494ZM12.2086 29.1738L12.2183 28.6738H12.2086V29.1738ZM12.4465 29.4117H12.9466L12.9464 29.402L12.4465 29.4117ZM10.2862 36.9681L10.0381 36.534L10.0354 36.5355L10.2862 36.9681ZM6.7459 38.7668L6.53215 38.3148L6.5284 38.3166L6.7459 38.7668ZM4.09546 40.0944L3.85525 39.6559L3.85286 39.6572L4.09546 40.0944ZM1.31607 43.7695C1.61003 42.758 1.91674 42.0752 2.33002 41.5367C2.74066 41.0015 3.28309 40.5742 4.10512 40.1175L3.61947 39.2433C2.72847 39.7383 2.05988 40.2461 1.53668 40.9279C1.01612 41.6063 0.666163 42.4224 0.355802 43.4904L1.31607 43.7695ZM4.10559 40.1172C4.84141 39.7074 5.75868 39.2673 6.75318 38.7892L6.31988 37.8879C5.33487 38.3615 4.38684 38.8159 3.619 39.2436L4.10559 40.1172ZM6.75226 38.7896C7.95336 38.2152 9.21619 37.6081 10.3143 36.9841L9.82024 36.1147C8.75804 36.7183 7.52746 37.3104 6.3208 37.8875L6.75226 38.7896ZM10.3165 36.9828C11.3085 36.4124 11.8941 35.8667 12.1937 35.1538C12.4788 34.4751 12.4706 33.7047 12.4706 32.8283H11.4706C11.4706 33.7697 11.4625 34.3125 11.2718 34.7664C11.0955 35.1859 10.7294 35.5919 9.81804 36.1159L10.3165 36.9828ZM12.4706 32.8283V29.4117H11.4706V32.8283H12.4706ZM12.4706 29.4117C12.4706 29.4813 12.443 29.5479 12.3939 29.5971L11.6868 28.89C11.5484 29.0283 11.4706 29.216 11.4706 29.4117H12.4706ZM12.3939 29.5971C12.3447 29.6462 12.2781 29.6738 12.2086 29.6738V28.6738C12.0129 28.6738 11.8252 28.7516 11.6868 28.89L12.3939 29.5971ZM12.1989 29.6737C12.1324 29.6724 12.0689 29.6455 12.0219 29.5984L12.729 28.8913C12.5933 28.7556 12.4102 28.6777 12.2183 28.6739L12.1989 29.6737ZM12.0219 29.5984C11.9749 29.5514 11.9479 29.488 11.9466 29.4215L12.9464 29.402C12.9427 29.2101 12.8648 29.0271 12.729 28.8913L12.0219 29.5984ZM11.9465 29.4117V32.8331H12.9465V29.4117H11.9465ZM11.9465 32.8331C11.9465 33.8294 11.9161 34.462 11.6831 34.992C11.4616 35.4956 11.0238 35.9708 10.0381 36.534L10.5342 37.4022C11.6137 36.7854 12.2561 36.1732 12.5985 35.3945C12.9293 34.642 12.9465 33.7972 12.9465 32.8331H11.9465ZM10.0354 36.5355C8.98057 37.147 7.76135 37.7335 6.53216 38.3148L6.95964 39.2188C8.18579 38.639 9.44095 38.036 10.5369 37.4007L10.0354 36.5355ZM6.5284 38.3166C5.54752 38.7904 4.61602 39.2392 3.85525 39.6559L4.33567 40.5329C5.06904 40.1312 5.97429 39.6949 6.9634 39.217L6.5284 38.3166ZM3.85286 39.6572C3.01819 40.1204 2.3949 40.5894 1.91063 41.229C1.42947 41.8646 1.11354 42.6317 0.830322 43.6425L1.79324 43.9123C2.06199 42.9531 2.33611 42.3237 2.7079 41.8327C3.07657 41.3457 3.56913 40.9583 4.33806 40.5316L3.85286 39.6572Z" fill="#A600FF" mask="url(#path-11-outside-2_455_12499)"/>
<path d="M10.3243 10.297L10.0744 10.2896C10.0441 11.319 9.84779 12.5998 9.52193 13.8134C9.19508 15.0307 8.74447 16.1556 8.21835 16.8884C8.18082 16.9399 8.15377 16.9984 8.13874 17.0604C8.1236 17.1228 8.12094 17.1876 8.13091 17.2511C8.14089 17.3146 8.1633 17.3755 8.19686 17.4302C8.23042 17.485 8.27447 17.5326 8.32648 17.5704L8.32641 17.5705L8.33266 17.5747C8.41451 17.6304 8.5111 17.6603 8.61008 17.6608L8.61008 17.6612L8.62372 17.6605C8.69527 17.6569 8.76519 17.6378 8.82859 17.6044C8.892 17.571 8.94735 17.5242 8.99081 17.4673L8.9909 17.4674L8.99534 17.4612C9.62002 16.5886 10.1114 15.3423 10.4569 14.0574C10.8032 12.769 11.0087 11.4193 11.0499 10.3257M10.3243 10.297L10.0743 10.2921C10.0756 10.2278 10.0897 10.1644 10.1158 10.1056C10.1418 10.0468 10.1794 9.99376 10.2262 9.94968C10.2731 9.9056 10.3283 9.87131 10.3885 9.84883C10.4479 9.82667 10.5111 9.81642 10.5745 9.81866C10.6385 9.82025 10.7015 9.83441 10.7601 9.86035C10.8194 9.88666 10.873 9.92455 10.9175 9.97182L10.7355 10.1433L10.9175 9.97182C10.962 10.0191 10.9967 10.0748 11.0194 10.1356C11.0421 10.1963 11.0525 10.2609 11.0499 10.3257M10.3243 10.297C10.2624 12.4002 9.52486 15.4979 8.4209 17.0349L10.567 10.0686C10.5359 10.0673 10.505 10.0722 10.4759 10.0831C10.4468 10.0939 10.4202 10.1105 10.3976 10.1317C10.375 10.153 10.3569 10.1786 10.3443 10.207C10.3317 10.2353 10.3249 10.2659 10.3243 10.297ZM11.0499 10.3257C11.0499 10.3256 11.0499 10.3255 11.0499 10.3254L10.8001 10.316L11.0499 10.326C11.0499 10.3259 11.0499 10.3258 11.0499 10.3257Z" fill="#A600FF" stroke="#A600FF" stroke-width="0.5"/>
<path d="M8.95182 15.2057C8.95271 15.1426 8.94136 15.08 8.91839 15.0212C8.89505 14.9615 8.86019 14.907 8.81579 14.8608C8.77138 14.8146 8.71831 14.7775 8.6596 14.7518C8.60088 14.7261 8.53768 14.7123 8.47361 14.711L8.47361 14.7108L8.46426 14.711C8.33882 14.7132 8.21884 14.7627 8.12837 14.8496C8.03789 14.9366 7.98361 15.0545 7.97639 15.1797L7.97619 15.1797L7.97601 15.1898C7.96178 16.02 7.93331 16.8362 7.90475 17.655L7.90473 17.6556C7.78591 21.2917 7.68338 24.7668 8.64528 28.4372C8.67197 28.5419 8.73294 28.6346 8.81849 28.7005C8.90433 28.7667 9.00993 28.8021 9.11831 28.801L9.12665 28.8009L9.13497 28.8003L9.19683 28.7955L9.2204 28.7937L9.24321 28.7875C9.36833 28.7535 9.475 28.6716 9.5401 28.5594L9.3239 28.4339L9.5401 28.5594C9.6052 28.4473 9.62348 28.3141 9.59098 28.1885L9.59099 28.1885L9.5905 28.1867C8.65013 24.665 8.76111 21.3003 8.88019 17.6898L8.88029 17.6867C8.88029 17.6866 8.8803 17.6865 8.8803 17.6865C8.88724 17.4876 8.89506 17.2876 8.90293 17.0866C8.92717 16.467 8.95176 15.8383 8.95182 15.2057ZM8.95182 15.2057C8.95182 15.205 8.95182 15.2043 8.95182 15.2036H8.70182L8.95177 15.2087C8.95179 15.2077 8.9518 15.2067 8.95182 15.2057ZM8.1546 17.6637C8.18315 16.8453 8.2117 16.0268 8.22598 15.1941L8.8874 28.3749C7.93571 24.7443 8.03564 21.3039 8.1546 17.6637Z" fill="#A600FF" stroke="#A600FF" stroke-width="0.5"/>
<path d="M9.18477 28.8429L9.42729 28.8357V28.7643C9.44114 28.7563 9.45463 28.7477 9.46771 28.7383L9.42729 28.682L9.46771 28.7383C9.55482 28.6757 9.61864 28.586 9.64914 28.4832C9.67965 28.3804 9.67508 28.2704 9.63618 28.1705L9.40321 28.2612L9.63618 28.1705C9.59804 28.0725 9.52902 27.9897 9.43966 27.9346C7.90345 26.9215 7.0594 25.2042 6.57903 23.2006C6.09839 21.1958 5.99167 18.9481 5.89628 16.9186C5.84401 15.7641 5.79136 14.6746 5.67587 13.7122L5.67589 13.7122L5.67548 13.7091C5.65857 13.5817 5.59254 13.4659 5.49147 13.3865C5.3904 13.3071 5.2623 13.2703 5.1345 13.2841L5.13449 13.284L5.12826 13.2848C5.00024 13.3018 4.88417 13.3689 4.80552 13.4713C4.7273 13.5732 4.69241 13.7018 4.70838 13.8292C4.81656 14.7705 4.86858 15.832 4.92096 16.9749L4.92097 16.9752L4.92401 17.04C5.02052 19.0983 5.12988 21.4306 5.644 23.5324C6.16373 25.6571 7.10633 27.5864 8.90647 28.7637C8.98882 28.8182 9.08604 28.8459 9.18477 28.8429Z" fill="#A600FF" stroke="#A600FF" stroke-width="0.5"/>
<path d="M23.5426 17.723C23.6535 17.7234 23.7612 17.6859 23.848 17.6168C23.935 17.5476 23.9957 17.4508 24.0202 17.3424L24.0203 17.3425L24.0221 17.3327C24.0452 17.2074 24.0189 17.0781 23.9486 16.9718C23.8784 16.8655 23.7697 16.7906 23.6454 16.7627L23.6454 16.7627L23.6405 16.7617C17.8528 15.5853 13.8585 13.3582 11.0496 9.77248C10.9705 9.67074 10.8544 9.6044 10.7266 9.58797C10.5985 9.57151 10.4692 9.60645 10.3669 9.68515L10.3669 9.68514L10.3647 9.68689C10.263 9.76692 10.1969 9.8837 10.1807 10.012C10.1644 10.1404 10.1993 10.2699 10.2777 10.3728L10.2777 10.3728L10.2799 10.3757C13.2616 14.1692 17.4559 16.5009 23.4457 17.718L23.4704 17.723H23.4955H23.5426Z" fill="#A600FF" stroke="#A600FF" stroke-width="0.5"/>
<mask id="path-17-outside-3_455_12499" maskUnits="userSpaceOnUse" x="22.1333" y="13.1865" width="3" height="17" fill="black">
<rect fill="white" x="22.1333" y="13.1865" width="3" height="17"/>
<path d="M23.6286 28.831C23.6034 28.8357 23.5776 28.8357 23.5525 28.831C23.4931 28.8094 23.4444 28.7656 23.4169 28.7087C23.3893 28.6518 23.3851 28.5864 23.405 28.5265C24.0902 26.585 23.9807 24.439 23.8808 22.3405C23.8808 21.9836 23.8427 21.6363 23.8285 21.2889C23.7883 19.0039 23.5575 16.7262 23.1385 14.4796C23.1252 14.4165 23.1376 14.3507 23.1728 14.2967C23.2081 14.2427 23.2633 14.205 23.3264 14.1917C23.3895 14.1785 23.4553 14.1908 23.5093 14.2261C23.5633 14.2613 23.6011 14.3166 23.6143 14.3797C24.0323 16.6567 24.2599 18.9646 24.2948 21.2794C24.2948 21.622 24.3281 21.9741 24.3471 22.3215C24.4566 24.4485 24.5708 26.6469 23.8713 28.674C23.8537 28.7232 23.8204 28.7652 23.7765 28.7936C23.7327 28.8219 23.6807 28.8351 23.6286 28.831Z"/>
</mask>
<path d="M23.6286 28.831C23.6034 28.8357 23.5776 28.8357 23.5525 28.831C23.4931 28.8094 23.4444 28.7656 23.4169 28.7087C23.3893 28.6518 23.3851 28.5864 23.405 28.5265C24.0902 26.585 23.9807 24.439 23.8808 22.3405C23.8808 21.9836 23.8427 21.6363 23.8285 21.2889C23.7883 19.0039 23.5575 16.7262 23.1385 14.4796C23.1252 14.4165 23.1376 14.3507 23.1728 14.2967C23.2081 14.2427 23.2633 14.205 23.3264 14.1917C23.3895 14.1785 23.4553 14.1908 23.5093 14.2261C23.5633 14.2613 23.6011 14.3166 23.6143 14.3797C24.0323 16.6567 24.2599 18.9646 24.2948 21.2794C24.2948 21.622 24.3281 21.9741 24.3471 22.3215C24.4566 24.4485 24.5708 26.6469 23.8713 28.674C23.8537 28.7232 23.8204 28.7652 23.7765 28.7936C23.7327 28.8219 23.6807 28.8351 23.6286 28.831Z" fill="#A600FF"/>
<path d="M23.6286 28.831L23.6678 28.3325L23.6023 28.3274L23.5377 28.3393L23.6286 28.831ZM23.5525 28.831L23.3818 29.301L23.4208 29.3151L23.4616 29.3227L23.5525 28.831ZM23.405 28.5265L22.9334 28.36L22.9304 28.369L23.405 28.5265ZM23.8808 22.3405H23.3808V22.3524L23.3814 22.3643L23.8808 22.3405ZM23.8285 21.2889L23.3284 21.2977L23.3289 21.3094L23.8285 21.2889ZM23.1385 14.4796L23.6301 14.3879L23.6278 14.3768L23.1385 14.4796ZM23.6143 14.3797L24.1063 14.2894L24.1037 14.2769L23.6143 14.3797ZM24.2948 21.2794H24.7948L24.7947 21.2719L24.2948 21.2794ZM24.3471 22.3215L24.8465 22.2958L24.8464 22.2941L24.3471 22.3215ZM23.8713 28.674L24.3421 28.8424L24.3439 28.8371L23.8713 28.674ZM23.5377 28.3393C23.5726 28.3329 23.6085 28.3329 23.6434 28.3393L23.4616 29.3227C23.5468 29.3384 23.6343 29.3384 23.7195 29.3227L23.5377 28.3393ZM23.7231 28.361C23.7861 28.3839 23.8377 28.4304 23.8669 28.4907L22.9669 28.9266C23.0512 29.1007 23.2001 29.235 23.3818 29.301L23.7231 28.361ZM23.8669 28.4907C23.8961 28.551 23.9006 28.6203 23.8795 28.6839L22.9304 28.369C22.8695 28.5525 22.8826 28.7526 22.9669 28.9266L23.8669 28.4907ZM23.8765 28.6929C24.6002 26.6422 24.4791 24.3928 24.3802 22.3167L23.3814 22.3643C23.4824 24.4852 23.5801 26.5278 22.9335 28.3601L23.8765 28.6929ZM24.3808 22.3405C24.3808 21.9789 24.3401 21.5619 24.328 21.2684L23.3289 21.3094C23.3454 21.7107 23.3808 21.9884 23.3808 22.3405H24.3808ZM24.3284 21.2801C24.2877 18.9673 24.0541 16.6619 23.63 14.3879L22.647 14.5713C23.0609 16.7905 23.2889 19.0405 23.3285 21.2977L24.3284 21.2801ZM23.6278 14.3768C23.6418 14.4435 23.6288 14.513 23.5915 14.5701L22.7542 14.0234C22.6464 14.1884 22.6087 14.3895 22.6492 14.5824L23.6278 14.3768ZM23.5915 14.5701C23.5543 14.6271 23.4959 14.667 23.4292 14.681L23.2237 13.7024C23.0308 13.7429 22.8619 13.8584 22.7542 14.0234L23.5915 14.5701ZM23.4292 14.681C23.3625 14.695 23.293 14.682 23.236 14.6447L23.7827 13.8074C23.6176 13.6997 23.4166 13.6619 23.2237 13.7024L23.4292 14.681ZM23.236 14.6447C23.1789 14.6075 23.139 14.5491 23.125 14.4824L24.1037 14.2769C24.0632 14.084 23.9477 13.9151 23.7827 13.8074L23.236 14.6447ZM23.1225 14.4699C23.5355 16.7197 23.7604 18.9999 23.7948 21.2869L24.7947 21.2719C24.7594 18.9293 24.5291 16.5937 24.1061 14.2894L23.1225 14.4699ZM23.7948 21.2794C23.7948 21.6397 23.8304 22.029 23.8479 22.3488L24.8464 22.2941C24.8258 21.9192 24.7948 21.6043 24.7948 21.2794H23.7948ZM23.8478 22.3472C23.9582 24.4934 24.061 26.5914 23.3986 28.5109L24.3439 28.8371C25.0806 26.7023 24.9549 24.4036 24.8465 22.2958L23.8478 22.3472ZM23.4005 28.5055C23.4199 28.4513 23.4566 28.405 23.5049 28.3738L24.0482 29.2134C24.1842 29.1253 24.2875 28.995 24.3421 28.8424L23.4005 28.5055ZM23.5049 28.3738C23.5532 28.3425 23.6105 28.328 23.6678 28.3325L23.5894 29.3295C23.7509 29.3422 23.9121 29.3014 24.0482 29.2134L23.5049 28.3738Z" fill="#A600FF" mask="url(#path-17-outside-3_455_12499)"/>
<path d="M23.421 29.3528L23.421 29.3526C23.3486 29.3517 23.2772 29.3352 23.2118 29.3041L23.2118 29.3041C23.1464 29.273 23.0885 29.2282 23.042 29.1726L23.0348 29.164L23.035 29.1639C22.9566 29.061 22.9217 28.9314 22.938 28.8031C22.9543 28.6748 23.0203 28.558 23.122 28.478L23.1276 28.4735L23.1277 28.4736C23.8451 27.9413 24.4897 27.3171 25.0448 26.6172C26.2729 25.019 26.8985 22.975 27.2155 20.8053C27.5323 18.6364 27.5376 16.3667 27.5424 14.3255L27.5424 14.323L27.5424 14.3224L27.5424 14.028V14.0231L27.5424 14.0231C27.5449 13.8958 27.5966 13.7744 27.6866 13.6843L27.8634 13.8611L27.6866 13.6843C27.7767 13.5942 27.8981 13.5426 28.0254 13.5401L28.0302 13.54V13.54C28.0945 13.54 28.1582 13.5528 28.2175 13.5777M23.421 29.3528L28.2175 13.5777M23.421 29.3528L23.4292 29.3526C23.5311 29.3505 23.6298 29.3166 23.7115 29.2556L23.421 29.3528ZM28.2175 13.5777C28.2767 13.6026 28.3304 13.6391 28.3754 13.685L28.3754 13.685C28.4204 13.7309 28.4558 13.7854 28.4795 13.8451M28.2175 13.5777L28.2635 14.028L28.5134 14.0331C28.5134 14.0321 28.5134 14.0311 28.5135 14.0301C28.5144 13.9668 28.5028 13.904 28.4795 13.8451M28.4795 13.8451L28.2471 13.9373L28.4795 13.8451C28.4795 13.8451 28.4795 13.8451 28.4795 13.8451Z" fill="#A600FF" stroke="#A600FF" stroke-width="0.5"/>
<path d="M1.89325 29.4954L1.89329 29.4954C1.19208 26.8622 1.74917 25.2389 2.50308 23.0726L2.50316 23.0723L2.67822 22.5709C2.67839 22.5704 2.67855 22.5699 2.67872 22.5694C2.94523 21.7734 3.01831 20.8056 2.98478 19.7155C2.95127 18.6261 2.81238 17.4358 2.66696 16.1985L2.66683 16.1974C2.66101 16.1458 2.65517 16.0941 2.64932 16.0424C2.41766 13.9924 2.17864 11.8774 2.42842 10.0407C2.68654 8.14277 3.47191 6.50596 5.34066 5.5315L5.34146 5.53108C5.45653 5.47161 5.5905 5.46029 5.71391 5.4996M1.89325 29.4954L5.71391 5.4996M1.89325 29.4954L1.89448 29.4997M1.89325 29.4954L1.89448 29.4997M5.71391 5.4996C5.83732 5.53891 5.94007 5.62563 5.99954 5.74069C6.05901 5.85575 6.07033 5.98973 6.03102 6.11314L5.79281 6.03726M5.71391 5.4996L5.79281 6.03726M1.89448 29.4997C1.92385 29.6026 1.98594 29.6932 2.07134 29.7576C2.15278 29.8191 2.25119 29.8538 2.35294 29.8569C2.40121 29.8611 2.44987 29.8565 2.49656 29.8433C2.62039 29.8091 2.72572 29.7274 2.78967 29.6159L2.57283 29.4915L2.78967 29.6159C2.85361 29.5045 2.87102 29.3723 2.8381 29.2481L2.83805 29.2479C2.21703 26.911 2.67659 25.5512 3.41087 23.4051M1.89448 29.4997L5.79281 6.03726M5.79281 6.03726L6.03102 6.11314C5.99174 6.23646 5.90511 6.33914 5.79018 6.39863M5.79018 6.39863C5.79009 6.39868 5.79001 6.39872 5.78993 6.39876L5.67514 6.17667L5.79043 6.3985C5.79034 6.39855 5.79026 6.39859 5.79018 6.39863ZM5.79018 6.39863C4.25838 7.19483 3.59604 8.57433 3.37859 10.2908C3.15957 12.0197 3.39804 14.0472 3.63936 16.0828L3.63941 16.0833L3.64222 16.1073C3.78846 17.3598 3.93226 18.5913 3.96752 19.7316C4.00299 20.8785 3.92969 21.9525 3.6289 22.8797L3.62577 22.8894L3.62187 22.8988L3.41087 23.4051M3.41087 23.4051C3.41175 23.4026 3.41263 23.4 3.41351 23.3974L3.17697 23.3165L3.40774 23.4127L3.41087 23.4051Z" fill="#A600FF" stroke="#A600FF" stroke-width="0.5"/>
<mask id="path-21-outside-4_455_12499" maskUnits="userSpaceOnUse" x="1.98633" y="24.502" width="11" height="12" fill="black">
<rect fill="white" x="1.98633" y="24.502" width="11" height="12"/>
<path d="M11 35.25C9.84659 35.2526 8.706 35.0086 7.65468 34.5342C6.60337 34.0598 5.66565 33.3661 4.90443 32.4996C4.10006 31.5822 3.52424 30.4873 3.22403 29.3047C2.92382 28.1221 2.90775 26.8852 3.17712 25.6951C3.19037 25.632 3.22815 25.5767 3.28213 25.5415C3.33612 25.5063 3.4019 25.4939 3.465 25.5071C3.5281 25.5204 3.58336 25.5582 3.61861 25.6122C3.65385 25.6661 3.66621 25.7319 3.65296 25.795C3.39999 26.9124 3.41378 28.0737 3.69321 29.1848C3.97263 30.2959 4.50984 31.3255 5.26131 32.1904C6.04887 33.076 7.03119 33.7669 8.13101 34.2087C9.23082 34.6504 10.4181 34.831 11.5995 34.7361C11.6616 34.7334 11.7223 34.7546 11.7693 34.7953C11.8162 34.836 11.8457 34.8932 11.8517 34.955C11.8543 34.9863 11.8507 35.0177 11.8411 35.0476C11.8315 35.0775 11.8161 35.1051 11.7957 35.129C11.7754 35.1529 11.7505 35.1725 11.7226 35.1867C11.6946 35.201 11.6641 35.2095 11.6328 35.2119C11.4235 35.2453 11.2093 35.25 11 35.25Z"/>
</mask>
<path d="M11 35.25C9.84659 35.2526 8.706 35.0086 7.65468 34.5342C6.60337 34.0598 5.66565 33.3661 4.90443 32.4996C4.10006 31.5822 3.52424 30.4873 3.22403 29.3047C2.92382 28.1221 2.90775 26.8852 3.17712 25.6951C3.19037 25.632 3.22815 25.5767 3.28213 25.5415C3.33612 25.5063 3.4019 25.4939 3.465 25.5071C3.5281 25.5204 3.58336 25.5582 3.61861 25.6122C3.65385 25.6661 3.66621 25.7319 3.65296 25.795C3.39999 26.9124 3.41378 28.0737 3.69321 29.1848C3.97263 30.2959 4.50984 31.3255 5.26131 32.1904C6.04887 33.076 7.03119 33.7669 8.13101 34.2087C9.23082 34.6504 10.4181 34.831 11.5995 34.7361C11.6616 34.7334 11.7223 34.7546 11.7693 34.7953C11.8162 34.836 11.8457 34.8932 11.8517 34.955C11.8543 34.9863 11.8507 35.0177 11.8411 35.0476C11.8315 35.0775 11.8161 35.1051 11.7957 35.129C11.7754 35.1529 11.7505 35.1725 11.7226 35.1867C11.6946 35.201 11.6641 35.2095 11.6328 35.2119C11.4235 35.2453 11.2093 35.25 11 35.25Z" fill="#A600FF"/>
<path d="M11 35.25V34.75L10.9988 34.75L11 35.25ZM4.90443 32.4996L4.52846 32.8293L4.52879 32.8296L4.90443 32.4996ZM3.17712 25.6951L3.66484 25.8055L3.66645 25.7979L3.17712 25.6951ZM3.65296 25.795L4.14068 25.9054L4.14229 25.8978L3.65296 25.795ZM5.26131 32.1904L4.88387 32.5183L4.88766 32.5226L5.26131 32.1904ZM11.5995 34.7361L11.5776 34.2366L11.5685 34.237L11.5595 34.2377L11.5995 34.7361ZM11.8517 34.955L12.3501 34.9135L12.3494 34.9065L11.8517 34.955ZM11.6328 35.2119L11.5946 34.7134L11.5743 34.715L11.5543 34.7182L11.6328 35.2119ZM10.9988 34.75C9.91675 34.7525 8.84666 34.5235 7.86032 34.0784L7.44904 34.99C8.56534 35.4936 9.77643 35.7528 11.0011 35.75L10.9988 34.75ZM7.86032 34.0784C6.87399 33.6334 5.99423 32.9826 5.28006 32.1696L4.52879 32.8296C5.33707 33.7497 6.33275 34.4863 7.44904 34.99L7.86032 34.0784ZM5.2804 32.17C4.52805 31.3119 3.98946 30.2879 3.70866 29.1817L2.7394 29.4277C3.05902 30.6868 3.67208 31.8525 4.52846 32.8293L5.2804 32.17ZM3.70866 29.1817C3.42786 28.0755 3.41283 26.9186 3.66478 25.8055L2.68946 25.5847C2.40266 26.8517 2.41978 28.1686 2.7394 29.4277L3.70866 29.1817ZM3.66645 25.7979C3.65244 25.8645 3.61253 25.9229 3.55548 25.9602L3.00879 25.1228C2.84376 25.2306 2.7283 25.3995 2.68779 25.5923L3.66645 25.7979ZM3.55548 25.9602C3.49843 25.9974 3.42892 26.0105 3.36224 25.9965L3.56776 25.0178C3.37488 24.9773 3.17381 25.0151 3.00879 25.1228L3.55548 25.9602ZM3.36224 25.9965C3.29557 25.9825 3.23719 25.9426 3.19994 25.8855L4.03727 25.3388C3.92953 25.1738 3.76064 25.0583 3.56776 25.0178L3.36224 25.9965ZM3.19994 25.8855C3.16269 25.8285 3.14963 25.7589 3.16363 25.6923L4.14229 25.8978C4.18279 25.7049 4.14502 25.5038 4.03727 25.3388L3.19994 25.8855ZM3.1653 25.6846C2.895 26.8786 2.90973 28.1195 3.20831 29.3068L4.17811 29.0629C3.91784 28.0279 3.90499 26.9462 4.14062 25.9054L3.1653 25.6846ZM3.20831 29.3068C3.50688 30.494 4.08091 31.5942 4.88389 32.5183L5.63873 31.8624C4.93877 31.0569 4.43838 30.0978 4.17811 29.0629L3.20831 29.3068ZM4.88766 32.5226C5.72663 33.4661 6.77306 34.2021 7.94465 34.6727L8.31736 33.7447C7.28933 33.3318 6.37112 32.686 5.63496 31.8581L4.88766 32.5226ZM7.94465 34.6727C9.11624 35.1432 10.381 35.3356 11.6395 35.2345L11.5595 34.2377C10.4552 34.3264 9.34539 34.1576 8.31736 33.7447L7.94465 34.6727ZM11.6215 35.2356C11.5557 35.2385 11.4913 35.2161 11.4415 35.1729L12.097 34.4177C11.9534 34.293 11.7675 34.2282 11.5776 34.2366L11.6215 35.2356ZM11.4415 35.1729C11.3918 35.1297 11.3605 35.0691 11.3541 35.0035L12.3494 34.9065C12.3309 34.7172 12.2406 34.5423 12.097 34.4177L11.4415 35.1729ZM11.3534 34.9965C11.3506 34.962 11.3546 34.9274 11.3651 34.8945L12.3171 35.2007C12.3469 35.1081 12.3581 35.0105 12.35 34.9135L11.3534 34.9965ZM11.3651 34.8945C11.3757 34.8616 11.3927 34.8311 11.4151 34.8048L12.1764 35.4532C12.2395 35.3792 12.2873 35.2934 12.3171 35.2007L11.3651 34.8945ZM11.4151 34.8048C11.4375 34.7785 11.4649 34.7569 11.4957 34.7412L11.9494 35.6323C12.0362 35.5882 12.1133 35.5273 12.1764 35.4532L11.4151 34.8048ZM11.4957 34.7412C11.5265 34.7255 11.5601 34.7161 11.5946 34.7134L11.6711 35.7105C11.7681 35.703 11.8627 35.6765 11.9494 35.6323L11.4957 34.7412ZM11.5543 34.7182C11.3863 34.7449 11.2054 34.75 11 34.75V35.75C11.2133 35.75 11.4607 35.7456 11.7114 35.7057L11.5543 34.7182Z" fill="#A600FF" mask="url(#path-21-outside-4_455_12499)"/>
<path d="M29.1388 13.3597L29.1385 13.3598L29.141 13.3726C29.1622 13.4796 29.2183 13.5765 29.3004 13.6482C29.3826 13.7199 29.4862 13.7622 29.5951 13.7687L29.6138 13.7698L29.6325 13.7681L29.6849 13.7634L29.6925 13.7627L29.7001 13.7615C29.8263 13.7422 29.9399 13.6741 30.0166 13.572L29.8166 13.422L30.0166 13.572C30.0931 13.4699 30.1266 13.342 30.11 13.2156C30.11 13.2154 30.1099 13.2152 30.1099 13.2151L30.0435 12.6929L30.0435 12.6929L30.0431 12.6898C29.612 9.61567 29.1509 6.34369 26.9663 3.86095L26.9655 3.85999C24.266 0.823667 19.5516 -0.67263 14.3811 -0.134C9.98424 0.315406 6.86908 2.23778 5.14336 5.59633L5.14328 5.59629L5.14036 5.60238C5.08552 5.71659 5.07726 5.84766 5.11732 5.96786C5.15719 6.08747 5.2418 6.18698 5.35338 6.24556C5.40971 6.27567 5.47145 6.29432 5.53504 6.30042C5.59928 6.30658 5.6641 6.29981 5.72568 6.28051L5.65121 6.04291L5.72568 6.28051C5.78726 6.26121 5.84435 6.22977 5.89358 6.18804L5.73225 5.9977L5.89358 6.18804C5.94245 6.14662 5.98259 6.09589 6.01167 6.03882C7.56427 3.01218 10.3872 1.2511 14.4563 0.829676L14.457 0.829602C19.3651 0.307266 23.7477 1.72355 26.2058 4.50082C28.1838 6.75597 28.6202 9.77262 29.0591 12.8067L29.0627 12.8315L29.0627 12.8317L29.1388 13.3597Z" fill="#A600FF" stroke="#A600FF" stroke-width="0.5"/>
<path d="M30.6572 30.1235L30.6384 30.1206C30.5128 30.1015 30.3994 30.0345 30.322 29.9337C30.2446 29.8328 30.2091 29.706 30.223 29.5797L30.2236 29.5748L30.2236 29.5748C30.4646 27.7214 30.1002 25.9791 29.6994 24.0849C29.3887 22.7747 29.1817 21.4422 29.0802 20.0995L29.0797 20.0931L29.0798 20.0931C29.0179 18.8469 29.0457 17.4112 29.0727 16.0126C29.075 15.894 29.0773 15.7757 29.0795 15.6577C29.0795 15.2364 29.0891 14.8228 29.0986 14.4253C29.0989 14.4124 29.0992 14.3995 29.0995 14.3867C29.1087 14.0013 29.1176 13.632 29.1176 13.2809C29.1176 13.1515 29.169 13.0274 29.2605 12.9359M30.6572 30.1235L29.2605 12.9359M30.6572 30.1235H30.6761L30.7094 30.1235L30.7126 30.1235C30.8322 30.122 30.9471 30.077 31.0359 29.9971L30.8687 29.8112L31.036 29.9971C31.1241 29.9177 31.1807 29.8092 31.1953 29.6915C31.4573 27.6685 31.0472 25.7283 30.6601 23.8966L30.6543 23.869L30.6544 23.869L30.6527 23.8623C30.3504 22.6036 30.1504 21.3224 30.0548 20.0314C29.9865 18.7617 30.0197 17.2684 30.0521 15.8073C30.0532 15.761 30.0542 15.7148 30.0552 15.6686C30.0934 14.836 30.0934 14.0186 30.0934 13.2833V13.2809C30.0934 13.1515 30.042 13.0274 29.9505 12.9359C29.859 12.8444 29.7349 12.793 29.6055 12.793C29.4761 12.793 29.352 12.8444 29.2605 12.9359M30.6572 30.1235L29.2605 12.9359" fill="#A600FF" stroke="#A600FF" stroke-width="0.5"/>
<mask id="path-25-outside-5_455_12499" maskUnits="userSpaceOnUse" x="20.1636" y="24.5605" width="11" height="11" fill="black">
<rect fill="white" x="20.1636" y="24.5605" width="11" height="11"/>
<path d="M21.4017 35.0501C21.3398 35.0489 21.2806 35.0241 21.2364 34.9808C21.1922 34.9375 21.1662 34.8788 21.1638 34.8169C21.1625 34.7859 21.1674 34.755 21.1783 34.7259C21.1891 34.6968 21.2057 34.6702 21.2269 34.6476C21.2482 34.625 21.2738 34.6069 21.3022 34.5943C21.3305 34.5817 21.3611 34.5749 21.3922 34.5743C26.0935 34.422 29.0675 31.1339 29.3435 25.7855C29.3433 25.754 29.3498 25.7228 29.3625 25.694C29.3752 25.6652 29.3938 25.6394 29.4172 25.6183C29.4405 25.5972 29.4681 25.5812 29.498 25.5715C29.528 25.5618 29.5596 25.5585 29.5909 25.5618C29.6224 25.563 29.6533 25.5705 29.6818 25.584C29.7103 25.5975 29.7358 25.6165 29.7567 25.6401C29.7776 25.6637 29.7935 25.6912 29.8034 25.7211C29.8134 25.751 29.8172 25.7826 29.8146 25.814C29.5291 31.4337 26.3838 34.8883 21.4064 35.0501H21.4017Z"/>
</mask>
<path d="M21.4017 35.0501C21.3398 35.0489 21.2806 35.0241 21.2364 34.9808C21.1922 34.9375 21.1662 34.8788 21.1638 34.8169C21.1625 34.7859 21.1674 34.755 21.1783 34.7259C21.1891 34.6968 21.2057 34.6702 21.2269 34.6476C21.2482 34.625 21.2738 34.6069 21.3022 34.5943C21.3305 34.5817 21.3611 34.5749 21.3922 34.5743C26.0935 34.422 29.0675 31.1339 29.3435 25.7855C29.3433 25.754 29.3498 25.7228 29.3625 25.694C29.3752 25.6652 29.3938 25.6394 29.4172 25.6183C29.4405 25.5972 29.4681 25.5812 29.498 25.5715C29.528 25.5618 29.5596 25.5585 29.5909 25.5618C29.6224 25.563 29.6533 25.5705 29.6818 25.584C29.7103 25.5975 29.7358 25.6165 29.7567 25.6401C29.7776 25.6637 29.7935 25.6912 29.8034 25.7211C29.8134 25.751 29.8172 25.7826 29.8146 25.814C29.5291 31.4337 26.3838 34.8883 21.4064 35.0501H21.4017Z" fill="#A600FF"/>
<path d="M21.4017 35.0501L21.3923 35.5501H21.4017V35.0501ZM21.1638 34.8169L21.6634 34.7974L21.6633 34.7964L21.1638 34.8169ZM21.3922 34.5743L21.402 35.0742L21.4084 35.074L21.3922 34.5743ZM29.3435 25.7855L29.8428 25.8112L29.8436 25.7969L29.8435 25.7826L29.3435 25.7855ZM29.5909 25.5618L29.5377 26.059L29.5549 26.0608L29.5722 26.0615L29.5909 25.5618ZM29.8146 25.814L29.3163 25.7728L29.3156 25.7807L29.3152 25.7886L29.8146 25.814ZM21.4064 35.0501V35.5501H21.4146L21.4227 35.5498L21.4064 35.0501ZM21.4111 34.5502C21.4768 34.5514 21.5395 34.5777 21.5864 34.6237L20.8864 35.3379C21.0218 35.4706 21.2028 35.5465 21.3923 35.55L21.4111 34.5502ZM21.5864 34.6237C21.6333 34.6697 21.6608 34.7318 21.6634 34.7974L20.6642 34.8365C20.6716 35.0259 20.7511 35.2052 20.8864 35.3379L21.5864 34.6237ZM21.6633 34.7964C21.6648 34.8319 21.6592 34.8673 21.6467 34.9006L20.7098 34.5511C20.6757 34.6426 20.6602 34.7399 20.6642 34.8375L21.6633 34.7964ZM21.6467 34.9006C21.6343 34.9339 21.6154 34.9644 21.591 34.9903L20.8628 34.3049C20.796 34.376 20.7439 34.4597 20.7098 34.5511L21.6467 34.9006ZM21.591 34.9903C21.5667 35.0161 21.5374 35.0369 21.505 35.0513L21.0994 34.1372C21.0101 34.1768 20.9297 34.2338 20.8628 34.3049L21.591 34.9903ZM21.505 35.0513C21.4725 35.0657 21.4374 35.0735 21.402 35.0742L21.3824 34.0744C21.2848 34.0763 21.1886 34.0976 21.0994 34.1372L21.505 35.0513ZM21.4084 35.074C23.8788 34.994 25.9313 34.0853 27.3981 32.4639C28.8593 30.8487 29.7005 28.5699 29.8428 25.8112L28.8442 25.7597C28.7105 28.3495 27.9267 30.389 26.6565 31.793C25.392 33.1908 23.6069 34.0023 21.376 34.0745L21.4084 35.074ZM29.8435 25.7826C29.8437 25.8215 29.8357 25.86 29.82 25.8956L28.9049 25.4924C28.8639 25.5856 28.8429 25.6864 28.8435 25.7883L29.8435 25.7826ZM29.82 25.8956C29.8043 25.9312 29.7813 25.9631 29.7524 25.9892L29.0819 25.2473C29.0063 25.3157 28.946 25.3992 28.9049 25.4924L29.82 25.8956ZM29.7524 25.9892C29.7236 26.0153 29.6895 26.035 29.6525 26.047L29.3435 25.096C29.2466 25.1274 29.1575 25.179 29.0819 25.2473L29.7524 25.9892ZM29.6525 26.047C29.6155 26.059 29.5764 26.0631 29.5377 26.059L29.6441 25.0647C29.5428 25.0538 29.4404 25.0645 29.3435 25.096L29.6525 26.047ZM29.5722 26.0615C29.5362 26.0601 29.5008 26.0515 29.4682 26.0361L29.8954 25.1319C29.8058 25.0896 29.7086 25.0659 29.6096 25.0622L29.5722 26.0615ZM29.4682 26.0361C29.4356 26.0207 29.4065 25.9988 29.3826 25.9719L30.1308 25.3084C30.065 25.2343 29.985 25.1742 29.8954 25.1319L29.4682 26.0361ZM29.3826 25.9719C29.3586 25.9449 29.3404 25.9133 29.329 25.8791L30.2778 25.5631C30.2465 25.4692 30.1965 25.3825 30.1308 25.3084L29.3826 25.9719ZM29.329 25.8791C29.3177 25.8449 29.3133 25.8088 29.3163 25.7728L30.3129 25.8552C30.321 25.7564 30.3091 25.6571 30.2778 25.5631L29.329 25.8791ZM29.3152 25.7886C29.1768 28.5132 28.3482 30.6615 27.0002 32.1422C25.6576 33.617 23.7604 34.4733 21.3902 34.5504L21.4227 35.5498C24.0298 35.4651 26.194 34.5132 27.7397 32.8154C29.28 31.1234 30.1669 28.7346 30.3139 25.8394L29.3152 25.7886ZM21.4064 34.5501H21.4017V35.5501H21.4064V34.5501Z" fill="#A600FF" mask="url(#path-25-outside-5_455_12499)"/>
<mask id="path-27-outside-6_455_12499" maskUnits="userSpaceOnUse" x="3.24414" y="38.4863" width="27" height="8" fill="black">
<rect fill="white" x="3.24414" y="38.4863" width="27" height="8"/>
<path d="M17.4188 45.0146C12.5594 45.0267 7.87619 43.1953 4.31412 39.8898C4.29197 39.8681 4.27436 39.8422 4.26235 39.8136C4.25033 39.785 4.24414 39.7543 4.24414 39.7233C4.24414 39.6922 4.25033 39.6615 4.26235 39.6329C4.27436 39.6043 4.29197 39.5784 4.31412 39.5567C4.33624 39.5344 4.36256 39.5167 4.39155 39.5046C4.42054 39.4925 4.45164 39.4863 4.48305 39.4863C4.51446 39.4863 4.54555 39.4925 4.57455 39.5046C4.60354 39.5167 4.62985 39.5344 4.65197 39.5567C10.9188 45.4905 21.1589 46.247 27.4924 41.2459C28.0844 40.8349 28.5638 40.2819 28.8866 39.6376C28.9108 39.5797 28.9569 39.5338 29.0148 39.5097C29.0728 39.4857 29.1378 39.4854 29.1959 39.5091C29.225 39.5206 29.2514 39.5378 29.2737 39.5597C29.296 39.5816 29.3137 39.6077 29.3257 39.6366C29.3376 39.6654 29.3437 39.6964 29.3435 39.7276C29.3433 39.7589 29.3368 39.7897 29.3244 39.8184C28.9754 40.5403 28.446 41.1598 27.7874 41.6171C24.8138 43.8874 21.1594 45.0849 17.4188 45.0146Z"/>
</mask>
<path d="M17.4188 45.0146C12.5594 45.0267 7.87619 43.1953 4.31412 39.8898C4.29197 39.8681 4.27436 39.8422 4.26235 39.8136C4.25033 39.785 4.24414 39.7543 4.24414 39.7233C4.24414 39.6922 4.25033 39.6615 4.26235 39.6329C4.27436 39.6043 4.29197 39.5784 4.31412 39.5567C4.33624 39.5344 4.36256 39.5167 4.39155 39.5046C4.42054 39.4925 4.45164 39.4863 4.48305 39.4863C4.51446 39.4863 4.54555 39.4925 4.57455 39.5046C4.60354 39.5167 4.62985 39.5344 4.65197 39.5567C10.9188 45.4905 21.1589 46.247 27.4924 41.2459C28.0844 40.8349 28.5638 40.2819 28.8866 39.6376C28.9108 39.5797 28.9569 39.5338 29.0148 39.5097C29.0728 39.4857 29.1378 39.4854 29.1959 39.5091C29.225 39.5206 29.2514 39.5378 29.2737 39.5597C29.296 39.5816 29.3137 39.6077 29.3257 39.6366C29.3376 39.6654 29.3437 39.6964 29.3435 39.7276C29.3433 39.7589 29.3368 39.7897 29.3244 39.8184C28.9754 40.5403 28.446 41.1598 27.7874 41.6171C24.8138 43.8874 21.1594 45.0849 17.4188 45.0146Z" fill="white"/>
<path d="M17.4188 45.0146L17.4282 44.5146L17.4176 44.5146L17.4188 45.0146ZM4.31412 39.8898L3.96407 40.2471L3.97402 40.2563L4.31412 39.8898ZM4.31412 39.5567L4.66409 39.9139L4.66912 39.9088L4.31412 39.5567ZM4.65197 39.5567L4.29697 39.9088L4.3025 39.9144L4.3082 39.9198L4.65197 39.5567ZM27.4924 41.2459L27.2073 40.8352L27.1946 40.844L27.1825 40.8535L27.4924 41.2459ZM28.8866 39.6376L29.3337 39.8616L29.3413 39.8463L29.3479 39.8306L28.8866 39.6376ZM29.1959 39.5091L29.0072 39.9722L29.0124 39.9742L29.1959 39.5091ZM29.3244 39.8184L29.7745 40.0361L29.7792 40.0264L29.7834 40.0166L29.3244 39.8184ZM27.7874 41.6171L27.5022 41.2064L27.493 41.2128L27.484 41.2197L27.7874 41.6171ZM17.4176 44.5146C12.6847 44.5264 8.12351 42.7426 4.65423 39.5233L3.97402 40.2563C7.62887 43.6479 12.434 45.527 17.4201 45.5146L17.4176 44.5146ZM4.66405 39.5327C4.68941 39.5575 4.70955 39.5872 4.7233 39.6199L3.80139 40.0073C3.83917 40.0972 3.89452 40.1787 3.9642 40.2469L4.66405 39.5327ZM4.7233 39.6199C4.73706 39.6526 4.74414 39.6877 4.74414 39.7233H3.74414C3.74414 39.8208 3.76361 39.9174 3.80139 40.0073L4.7233 39.6199ZM4.74414 39.7233C4.74414 39.7587 4.73706 39.7939 4.7233 39.8266L3.80139 39.4392C3.7636 39.5292 3.74414 39.6257 3.74414 39.7233H4.74414ZM4.7233 39.8266C4.70955 39.8593 4.68941 39.889 4.66405 39.9138L3.9642 39.1996C3.89452 39.2678 3.83917 39.3493 3.80139 39.4392L4.7233 39.8266ZM4.66912 39.9088C4.64475 39.9334 4.61577 39.9529 4.58384 39.9662L4.19926 39.0431C4.10935 39.0805 4.02773 39.1354 3.95912 39.2046L4.66912 39.9088ZM4.58384 39.9662C4.55189 39.9795 4.51764 39.9863 4.48305 39.9863V38.9863C4.38564 38.9863 4.28919 39.0056 4.19926 39.0431L4.58384 39.9662ZM4.48305 39.9863C4.44846 39.9863 4.4142 39.9795 4.38226 39.9662L4.76683 39.0431C4.67691 39.0056 4.58046 38.9863 4.48305 38.9863V39.9863ZM4.38226 39.9662C4.35033 39.9529 4.32134 39.9334 4.29697 39.9088L5.00697 39.2046C4.93837 39.1354 4.85675 39.0805 4.76683 39.0431L4.38226 39.9662ZM4.3082 39.9198C10.7366 46.0065 21.2542 46.8089 27.8023 41.6384L27.1825 40.8535C21.0637 45.6852 11.1011 44.9745 4.99574 39.1936L4.3082 39.9198ZM27.7776 41.6567C28.4383 41.1979 28.9733 40.5807 29.3337 39.8616L28.4396 39.4136C28.1542 39.9831 27.7305 40.4719 27.2073 40.8352L27.7776 41.6567ZM29.3479 39.8306C29.3212 39.8943 29.2704 39.945 29.2066 39.9715L28.823 39.048C28.6434 39.1226 28.5005 39.2651 28.4254 39.4446L29.3479 39.8306ZM29.2066 39.9715C29.1428 39.998 29.0712 39.9982 29.0072 39.9721L29.3847 39.0461C29.2045 38.9727 29.0027 38.9733 28.823 39.048L29.2066 39.9715ZM29.0124 39.9742C28.9791 39.9611 28.9488 39.9414 28.9233 39.9164L29.6241 39.203C29.554 39.1342 29.4709 39.0801 29.3795 39.044L29.0124 39.9742ZM28.9233 39.9164C28.8978 39.8913 28.8776 39.8614 28.8639 39.8284L29.7874 39.4448C29.7497 39.354 29.6942 39.2718 29.6241 39.203L28.9233 39.9164ZM28.8639 39.8284C28.8502 39.7954 28.8433 39.7599 28.8435 39.7242L29.8435 39.7311C29.8442 39.6328 29.8251 39.5355 29.7874 39.4448L28.8639 39.8284ZM28.8435 39.7242C28.8437 39.6884 28.8512 39.6531 28.8653 39.6202L29.7834 40.0166C29.8224 39.9264 29.8428 39.8293 29.8435 39.7311L28.8435 39.7242ZM28.8743 39.6008C28.5627 40.2451 28.0901 40.7982 27.5022 41.2064L28.0726 42.0278C28.8019 41.5214 29.3881 40.8354 29.7745 40.0361L28.8743 39.6008ZM27.484 41.2197C24.6001 43.4215 21.056 44.5828 17.4282 44.5147L17.4094 45.5145C21.2629 45.5869 25.0275 44.3533 28.0908 42.0145L27.484 41.2197Z" fill="white" mask="url(#path-27-outside-6_455_12499)"/>
<mask id="path-29-outside-7_455_12499" maskUnits="userSpaceOnUse" x="13.604" y="8.6543" width="6" height="6" fill="black">
<rect fill="white" x="13.604" y="8.6543" width="6" height="6"/>
<path d="M18.585 13.3995C18.5372 13.3992 18.4907 13.3842 18.4517 13.3566C17.0126 12.4574 15.7273 11.3328 14.645 10.0257C14.611 9.97562 14.5974 9.91442 14.607 9.85462C14.6166 9.79482 14.6486 9.74092 14.6965 9.7039C14.7445 9.66689 14.8047 9.64955 14.865 9.65542C14.9253 9.66128 14.981 9.68992 15.0209 9.73548C16.0759 11.0067 17.3292 12.0994 18.7325 12.9712C18.7586 12.9889 18.7809 13.0115 18.7982 13.0379C18.8155 13.0643 18.8273 13.0938 18.8331 13.1248C18.8388 13.1558 18.8384 13.1876 18.8317 13.2184C18.8251 13.2493 18.8124 13.2784 18.7944 13.3043C18.7707 13.3369 18.7389 13.3628 18.7022 13.3795C18.6655 13.3962 18.6251 13.4031 18.585 13.3995Z"/>
</mask>
<path d="M18.585 13.3995C18.5372 13.3992 18.4907 13.3842 18.4517 13.3566C17.0126 12.4574 15.7273 11.3328 14.645 10.0257C14.611 9.97562 14.5974 9.91442 14.607 9.85462C14.6166 9.79482 14.6486 9.74092 14.6965 9.7039C14.7445 9.66689 14.8047 9.64955 14.865 9.65542C14.9253 9.66128 14.981 9.68992 15.0209 9.73548C16.0759 11.0067 17.3292 12.0994 18.7325 12.9712C18.7586 12.9889 18.7809 13.0115 18.7982 13.0379C18.8155 13.0643 18.8273 13.0938 18.8331 13.1248C18.8388 13.1558 18.8384 13.1876 18.8317 13.2184C18.8251 13.2493 18.8124 13.2784 18.7944 13.3043C18.7707 13.3369 18.7389 13.3628 18.7022 13.3795C18.6655 13.3962 18.6251 13.4031 18.585 13.3995Z" fill="#A600FF"/>
<path d="M18.585 13.3995L18.6295 12.9014L18.6088 12.8996L18.5881 12.8995L18.585 13.3995ZM18.4517 13.3566L18.7406 12.9485L18.7289 12.9402L18.7167 12.9326L18.4517 13.3566ZM14.645 10.0257L14.2312 10.3063L14.2446 10.3262L14.2599 10.3446L14.645 10.0257ZM15.0209 9.73548L15.4058 9.41605L15.3971 9.40608L15.0209 9.73548ZM18.7325 12.9712L19.0127 12.5571L19.0046 12.5516L18.9964 12.5465L18.7325 12.9712ZM18.7944 13.3043L19.1989 13.5983L19.2046 13.5902L18.7944 13.3043ZM18.5881 12.8995C18.6427 12.8998 18.6959 12.9169 18.7406 12.9485L18.1629 13.7648C18.2855 13.8515 18.4317 13.8985 18.5819 13.8995L18.5881 12.8995ZM18.7167 12.9326C17.323 12.0618 16.0783 10.9726 15.0301 9.70685L14.2599 10.3446C15.3764 11.6929 16.7022 12.8531 18.1868 13.7807L18.7167 12.9326ZM15.0588 9.74514C15.0963 9.80035 15.1113 9.86776 15.1007 9.93364L14.1133 9.77559C14.0836 9.96107 14.1258 10.1509 14.2312 10.3063L15.0588 9.74514ZM15.1007 9.93364C15.0902 9.99951 15.0549 10.0589 15.0021 10.0997L14.3909 9.30815C14.2423 9.42295 14.143 9.59012 14.1133 9.77559L15.1007 9.93364ZM15.0021 10.0997C14.9493 10.1404 14.8829 10.1595 14.8165 10.1531L14.9134 9.15777C14.7265 9.13957 14.5396 9.19335 14.3909 9.30815L15.0021 10.0997ZM14.8165 10.1531C14.7501 10.1466 14.6887 10.1151 14.6448 10.0649L15.3971 9.40608C15.2733 9.26477 15.1004 9.17596 14.9134 9.15777L14.8165 10.1531ZM14.6362 10.0548C15.7255 11.3675 17.0197 12.4957 18.4686 13.3959L18.9964 12.5465C17.6388 11.7031 16.4263 10.646 15.4057 9.41617L14.6362 10.0548ZM18.4523 13.3853C18.4235 13.3659 18.3989 13.3409 18.3799 13.3118L19.2165 12.764C19.1629 12.6822 19.0937 12.6119 19.0127 12.5571L18.4523 13.3853ZM18.3799 13.3118C18.3609 13.2828 18.3478 13.2502 18.3415 13.2161L19.3247 13.0335C19.3068 12.9374 19.2701 12.8458 19.2165 12.764L18.3799 13.3118ZM18.3415 13.2161C18.3351 13.182 18.3357 13.1469 18.343 13.113L19.3205 13.3239C19.3411 13.2284 19.3425 13.1296 19.3247 13.0335L18.3415 13.2161ZM18.343 13.113C18.3503 13.079 18.3643 13.0469 18.3841 13.0184L19.2046 13.5902C19.2605 13.51 19.2999 13.4195 19.3205 13.3239L18.343 13.113ZM18.3899 13.0104C18.417 12.973 18.4533 12.9434 18.4953 12.9243L18.9091 13.8347C19.0245 13.7822 19.1243 13.7008 19.1988 13.5982L18.3899 13.0104ZM18.4953 12.9243C18.5373 12.9052 18.5835 12.8973 18.6295 12.9014L18.5405 13.8975C18.6667 13.9088 18.7937 13.8871 18.9091 13.8347L18.4953 12.9243Z" fill="#A600FF" mask="url(#path-29-outside-7_455_12499)"/>
<mask id="path-31-outside-8_455_12499" maskUnits="userSpaceOnUse" x="15.5093" y="8.59277" width="4" height="4" fill="black">
<rect fill="white" x="15.5093" y="8.59277" width="4" height="4"/>
<path d="M18.6656 11.4586C18.6202 11.457 18.576 11.4439 18.5371 11.4205C18.2068 11.2023 17.8891 10.9656 17.5855 10.7115C17.2864 10.4631 16.9682 10.2387 16.6338 10.0405C16.6062 10.0256 16.5819 10.0054 16.5622 9.981C16.5425 9.95663 16.5278 9.92861 16.5189 9.89854C16.5101 9.86847 16.5073 9.83695 16.5107 9.8058C16.514 9.77464 16.5235 9.74445 16.5386 9.71698C16.5531 9.68959 16.5729 9.66537 16.5968 9.64571C16.6207 9.62606 16.6484 9.61137 16.678 9.60251C16.7077 9.59365 16.7389 9.5908 16.7697 9.59411C16.8005 9.59742 16.8303 9.60684 16.8574 9.62181C17.2126 9.83125 17.5486 10.0717 17.8614 10.3403C18.1529 10.5828 18.4579 10.8084 18.7751 11.016C18.8022 11.0321 18.8257 11.0535 18.8443 11.0789C18.8629 11.1043 18.8762 11.1332 18.8833 11.1639C18.8904 11.1946 18.8912 11.2264 18.8857 11.2574C18.8802 11.2884 18.8685 11.318 18.8512 11.3444C18.8316 11.3768 18.8045 11.4041 18.7723 11.424C18.74 11.4438 18.7034 11.4557 18.6656 11.4586Z"/>
</mask>
<path d="M18.6656 11.4586C18.6202 11.457 18.576 11.4439 18.5371 11.4205C18.2068 11.2023 17.8891 10.9656 17.5855 10.7115C17.2864 10.4631 16.9682 10.2387 16.6338 10.0405C16.6062 10.0256 16.5819 10.0054 16.5622 9.981C16.5425 9.95663 16.5278 9.92861 16.5189 9.89854C16.5101 9.86847 16.5073 9.83695 16.5107 9.8058C16.514 9.77464 16.5235 9.74445 16.5386 9.71698C16.5531 9.68959 16.5729 9.66537 16.5968 9.64571C16.6207 9.62606 16.6484 9.61137 16.678 9.60251C16.7077 9.59365 16.7389 9.5908 16.7697 9.59411C16.8005 9.59742 16.8303 9.60684 16.8574 9.62181C17.2126 9.83125 17.5486 10.0717 17.8614 10.3403C18.1529 10.5828 18.4579 10.8084 18.7751 11.016C18.8022 11.0321 18.8257 11.0535 18.8443 11.0789C18.8629 11.1043 18.8762 11.1332 18.8833 11.1639C18.8904 11.1946 18.8912 11.2264 18.8857 11.2574C18.8802 11.2884 18.8685 11.318 18.8512 11.3444C18.8316 11.3768 18.8045 11.4041 18.7723 11.424C18.74 11.4438 18.7034 11.4557 18.6656 11.4586Z" fill="#A600FF"/>
<path d="M18.6656 11.4586L18.6487 11.9583L18.6762 11.9592L18.7036 11.9571L18.6656 11.4586ZM18.5371 11.4205L18.2616 11.8377L18.2702 11.8434L18.2791 11.8488L18.5371 11.4205ZM17.5855 10.7115L17.9064 10.3281L17.905 10.3269L17.5855 10.7115ZM16.6338 10.0405L16.8887 9.6104L16.8805 9.60556L16.8721 9.60103L16.6338 10.0405ZM16.5386 9.71698L16.977 9.95748L16.9806 9.95063L16.5386 9.71698ZM16.8574 9.62181L17.1114 9.19111L17.1053 9.1875L17.099 9.18407L16.8574 9.62181ZM17.8614 10.3403L17.5357 10.7197L17.5416 10.7247L17.8614 10.3403ZM18.7751 11.016L18.5012 11.4344L18.5105 11.4404L18.5201 11.4461L18.7751 11.016ZM18.8512 11.3444L18.4329 11.0704L18.428 11.078L18.4232 11.0858L18.8512 11.3444ZM18.6826 10.9588C18.7223 10.9602 18.7611 10.9717 18.7952 10.9922L18.2791 11.8488C18.391 11.9162 18.5182 11.9538 18.6487 11.9583L18.6826 10.9588ZM18.8127 11.0033C18.4981 10.7955 18.1955 10.5701 17.9064 10.3281L17.2645 11.0949C17.5826 11.3611 17.9155 11.6091 18.2616 11.8377L18.8127 11.0033ZM17.905 10.3269C17.5856 10.0616 17.2458 9.82204 16.8887 9.6104L16.3789 10.4707C16.6906 10.6554 16.9872 10.8645 17.266 11.0961L17.905 10.3269ZM16.8721 9.60103C16.9025 9.61748 16.9293 9.63977 16.951 9.66662L16.1734 10.2954C16.2345 10.371 16.31 10.4337 16.3954 10.4801L16.8721 9.60103ZM16.951 9.66662C16.9727 9.69348 16.9889 9.72435 16.9986 9.75746L16.0393 10.0396C16.0667 10.1329 16.1123 10.2198 16.1734 10.2954L16.951 9.66662ZM16.9986 9.75746C17.0084 9.79057 17.0115 9.82528 17.0078 9.85962L16.0136 9.75198C16.0031 9.84862 16.0118 9.94638 16.0393 10.0396L16.9986 9.75746ZM17.0078 9.85962C17.004 9.89394 16.9936 9.92719 16.977 9.95745L16.1002 9.4765C16.0535 9.56172 16.024 9.65534 16.0136 9.75198L17.0078 9.85962ZM16.9806 9.95063C16.9641 9.98198 16.9414 10.0097 16.914 10.0322L16.2796 9.25924C16.2043 9.32103 16.1421 9.3972 16.0966 9.48332L16.9806 9.95063ZM16.914 10.0322C16.8866 10.0547 16.855 10.0715 16.8211 10.0816L16.535 9.12341C16.4417 9.15127 16.3549 9.19744 16.2796 9.25924L16.914 10.0322ZM16.8211 10.0816C16.7871 10.0918 16.7514 10.095 16.7162 10.0912L16.8231 9.09698C16.7263 9.08656 16.6284 9.09554 16.535 9.12341L16.8211 10.0816ZM16.7162 10.0912C16.681 10.0875 16.6468 10.0767 16.6158 10.0595L17.099 9.18407C17.0138 9.137 16.92 9.10739 16.8231 9.09698L16.7162 10.0912ZM16.6035 10.0525C16.9333 10.247 17.2452 10.4702 17.5357 10.7197L18.1872 9.96099C17.852 9.67315 17.492 9.41552 17.1114 9.19111L16.6035 10.0525ZM17.5416 10.7247C17.8477 10.9793 18.1681 11.2163 18.5012 11.4344L19.0489 10.5977C18.7477 10.4005 18.458 10.1862 18.1812 9.95597L17.5416 10.7247ZM18.5201 11.4461C18.4891 11.4277 18.4621 11.4033 18.4408 11.3742L19.2478 10.7836C19.1893 10.7037 19.1152 10.6364 19.03 10.5859L18.5201 11.4461ZM18.4408 11.3742C18.4195 11.3451 18.4044 11.312 18.3962 11.2769L19.3704 11.051C19.348 10.9545 19.3063 10.8635 19.2478 10.7836L18.4408 11.3742ZM18.3962 11.2769C18.3881 11.2418 18.3871 11.2054 18.3934 11.1699L19.378 11.345C19.3953 11.2475 19.3927 11.1475 19.3704 11.051L18.3962 11.2769ZM18.3934 11.1699C18.3998 11.1344 18.4132 11.1005 18.4329 11.0704L19.2694 11.6183C19.3237 11.5355 19.3606 11.4425 19.378 11.345L18.3934 11.1699ZM18.4232 11.0858C18.4448 11.0501 18.4746 11.02 18.5102 10.9981L19.0343 11.8498C19.1344 11.7882 19.2184 11.7035 19.2792 11.6029L18.4232 11.0858ZM18.5102 10.9981C18.5458 10.9762 18.586 10.9632 18.6277 10.96L18.7036 11.9571C18.8208 11.9482 18.9342 11.9114 19.0343 11.8498L18.5102 10.9981Z" fill="#A600FF" mask="url(#path-31-outside-8_455_12499)"/>
<path d="M18.9941 10.6867L18.9941 10.6867C18.5619 10.337 18.1606 9.95971 17.8125 9.6259L17.8105 9.62404L17.8105 9.62403C17.7646 9.57905 17.7282 9.52535 17.7033 9.46609C17.6784 9.40683 17.6655 9.34319 17.6655 9.27891C17.6655 9.21464 17.6784 9.151 17.7033 9.09174C17.7279 9.03303 17.764 8.97978 17.8093 8.93505C17.8544 8.88992 17.9079 8.85406 17.9668 8.82952C18.0262 8.80475 18.09 8.79199 18.1544 8.79199C18.2188 8.79199 18.2826 8.80475 18.3421 8.82952C18.4001 8.85367 18.4528 8.88879 18.4975 8.93292C18.5088 8.94366 18.5202 8.95443 18.5317 8.96524C18.8661 9.28113 19.2313 9.62617 19.617 9.93565L18.9941 10.6867ZM18.9941 10.6867L18.9962 10.6884M18.9941 10.6867L18.9962 10.6884M18.9962 10.6884C19.0507 10.7315 19.1134 10.7624 19.18 10.7794L19.2033 10.8027M18.9962 10.6884L19.2033 10.8027M19.2033 10.8027L19.3048 10.8041M19.2033 10.8027L19.3048 10.8041M19.3048 10.8041C19.4064 10.8056 19.506 10.7753 19.5895 10.7174C19.6731 10.6595 19.7365 10.577 19.7709 10.4814C19.8053 10.3857 19.809 10.2817 19.7814 10.1839C19.7538 10.086 19.6963 9.99927 19.6171 9.93568L19.3048 10.8041Z" fill="#A600FF" stroke="#A600FF" stroke-width="0.5"/>
</g>
<defs>
<clipPath id="clip0_455_12499">
<rect width="31.6245" height="45.0147" fill="white" transform="translate(0.835938)"/>
</clipPath>
</defs>
</svg>
