<svg width="49" height="50" viewBox="0 0 49 50" fill="none" xmlns="http://www.w3.org/2000/svg">
<path d="M44.9164 41.6709V35.5459C44.9413 34.5446 44.5972 33.5691 43.9498 32.8049C43.3023 32.0407 42.3965 31.5412 41.4048 31.4013C39.4446 31.1427 37.52 30.6633 35.6677 29.9721C34.9369 29.6974 34.1427 29.638 33.3792 29.8008C32.6157 29.9636 31.9149 30.3419 31.3598 30.8909L28.7668 33.4838C23.6554 30.5773 19.4233 26.3452 16.5168 21.2338L19.1098 18.6409C19.6587 18.0857 20.037 17.3849 20.1998 16.6214C20.3627 15.8579 20.3032 15.0637 20.0285 14.3329C19.3373 12.4806 18.8579 10.556 18.5993 8.59585C18.4607 7.61472 17.97 6.71749 17.2187 6.07139C16.4674 5.4253 15.5068 5.07443 14.516 5.08418H8.39101C7.82412 5.08472 7.26356 5.20328 6.745 5.43233C6.22645 5.66138 5.76127 5.99589 5.37908 6.41458C4.99689 6.83326 4.70606 7.32693 4.52512 7.86417C4.34417 8.4014 4.27707 8.97043 4.3281 9.53502C4.99826 15.8458 7.14555 21.91 10.596 27.2363C13.7307 32.1693 17.913 36.3516 22.846 39.4863C28.1482 42.9247 34.183 45.0715 40.4656 45.7542C41.0319 45.8054 41.6026 45.7377 42.1413 45.5555C42.6799 45.3734 43.1746 45.0807 43.5936 44.6963C44.0126 44.3119 44.3467 43.8443 44.5745 43.3233C44.8023 42.8023 44.9187 42.2395 44.9164 41.6709Z" stroke="#A600FF" stroke-width="4" stroke-linecap="round" stroke-linejoin="round"/>
<path d="M30 10.1667C31.9942 10.5557 33.8269 11.531 35.2635 12.9677C36.7002 14.4044 37.6755 16.2371 38.0646 18.2313M30 2C34.1431 2.46027 38.0066 4.31561 40.9561 7.26139C43.9056 10.2072 45.7658 14.0683 46.2312 18.2108" stroke="white" stroke-width="3" stroke-linecap="round" stroke-linejoin="round"/>
</svg>
