<svg width="53" height="52" viewBox="0 0 53 52" fill="none" xmlns="http://www.w3.org/2000/svg">
<path d="M45.4102 0.644531L50.5781 7.28906C48.6094 9.11719 46.7109 11.9297 44.8828 15.7266C43.125 19.4531 42.1758 24.1641 42.0352 29.8594L52.8984 31.2305V51.0586H31.8047V41.6719C31.8047 40.8281 31.8398 39.0703 31.9102 36.3984C31.9805 33.6562 32.0508 31.8281 32.1211 30.9141C32.1914 29.9297 32.2969 28.2773 32.4375 25.957C32.5781 23.6367 32.7891 21.9492 33.0703 20.8945C33.3516 19.8398 33.7031 18.3633 34.125 16.4648C34.5469 14.5664 35.0742 13.0547 35.707 11.9297C36.4102 10.8047 37.1836 9.50391 38.0273 8.02734C38.9414 6.55078 39.9961 5.25 41.1914 4.125C42.457 2.92969 43.8633 1.76953 45.4102 0.644531ZM14.4023 0.644531L19.5703 7.28906C17.6016 9.11719 15.7031 11.9297 13.875 15.7266C12.1172 19.4531 11.168 24.1289 11.0273 29.7539L21.2578 31.2305V51.0586H0.164062V41.6719C0.164062 37.3828 0.199219 34.1133 0.269531 31.8633C0.339844 29.6133 0.621094 26.7305 1.11328 23.2148C1.60547 19.6289 2.30859 16.7109 3.22266 14.4609C4.20703 12.2109 5.61328 9.82031 7.44141 7.28906C9.33984 4.75781 11.6602 2.54297 14.4023 0.644531Z" fill="#C9DAEB"/>
</svg>
