<svg width="98" height="74" viewBox="0 0 98 74" fill="none" xmlns="http://www.w3.org/2000/svg">
<g opacity="0.4" clip-path="url(#clip0_2_25621)">
<path d="M75.754 35.6496C76.4051 34.3752 81.8921 35.8169 88.0202 38.8677C94.1483 41.9184 98.5866 45.4218 97.9603 46.6962C97.3341 47.9707 91.8223 46.5339 85.6991 43.4831C79.576 40.4324 75.1079 36.9044 75.754 35.6496Z" fill="url(#paint0_linear_2_25621)"/>
<path d="M5.05449 0.462851C5.70557 -0.811569 11.2025 0.630149 17.3306 3.6858C23.4587 6.74146 27.9119 10.2498 27.2707 11.5242C26.6296 12.7986 21.1277 11.3569 14.9946 8.30619C8.86156 5.25546 4.40838 1.74219 5.05449 0.462851Z" fill="url(#paint1_linear_2_25621)"/>
<path d="M75.8335 35.5365C75.911 35.4453 76.0125 35.3772 76.1267 35.3397C76.0195 35.3902 75.9206 35.4566 75.8335 35.5365Z" fill="#5D5D5D"/>
<path style="mix-blend-mode:color" d="M6.4212 47.3753C5.55891 45.819 4.77921 44.2193 4.08526 42.5827C3.5518 41.3263 3.07136 40.0552 2.64394 38.7693C-0.633566 28.9938 -0.862172 18.4679 1.98789 8.56206C2.37887 7.21055 2.82949 5.86232 3.33975 4.51737C3.76717 3.38565 4.2443 2.26376 4.76616 1.14188C4.78232 1.10161 4.80057 1.0622 4.82083 1.02379C4.87738 0.83974 4.9523 0.661722 5.04448 0.492371C4.47292 1.79139 8.89629 5.27514 14.9846 8.30619C21.073 11.3372 26.6097 12.7937 27.2607 11.5291C27.2813 11.4926 27.2948 11.4525 27.3005 11.411C27.2585 11.5946 27.1916 11.7717 27.1017 11.9375C24.8074 17.1435 24.2435 22.9365 25.4916 28.4804C26.7396 34.0242 29.7349 39.032 34.045 42.7806C38.3551 46.5292 43.7571 48.8248 49.4708 49.3358C55.1846 49.8468 60.9146 48.5468 65.8335 45.6236C69.8912 43.248 73.2604 39.8751 75.6146 35.8317C75.6676 35.7202 75.7419 35.62 75.8333 35.5365L75.7538 35.6496C75.1077 36.929 79.5509 40.4324 85.6939 43.4831C91.837 46.5339 97.2792 47.9608 97.9502 46.711C97.9377 46.7472 97.921 46.7819 97.9005 46.8143C97.4034 47.7 96.9064 48.5562 96.3746 49.4075C95.7633 50.3916 95.1222 51.3265 94.4562 52.2466C93.6709 53.3242 92.8558 54.3674 91.996 55.381C88.9413 58.9738 85.4104 62.1418 81.4992 64.7989C77.4025 67.5871 72.9304 69.7917 68.2142 71.3482C66.8126 71.8107 65.3978 72.2142 63.9697 72.5586C61.5953 73.1263 59.184 73.5308 56.7532 73.7691C52.6927 74.1723 48.5981 74.093 44.5566 73.5329C39.0173 72.7724 33.6434 71.1098 28.6524 68.6123C19.2267 63.9451 11.469 56.5344 6.4212 47.3753Z" fill="url(#paint2_linear_2_25621)"/>
<path style="mix-blend-mode:color" d="M75.7538 35.6496L75.8333 35.5365C75.9204 35.4565 76.0193 35.3902 76.1265 35.3396C76.1501 35.3223 76.1773 35.3106 76.2061 35.3052C76.2482 35.2892 76.2914 35.276 76.3353 35.2658H76.39L76.5589 35.2363C76.6085 35.231 76.6585 35.231 76.708 35.2363C78.6464 35.0493 83.1294 36.4615 88.0199 38.8972C92.7614 41.2541 96.4939 43.8915 97.6321 45.5547C97.8048 45.779 97.9269 46.0374 97.9899 46.3124C97.9951 46.3582 97.9951 46.4044 97.9899 46.4502C98.0001 46.4873 98.0001 46.5263 97.9899 46.5634C97.9847 46.6086 97.9747 46.6531 97.9601 46.6962C97.9584 46.7077 97.9584 46.7193 97.9601 46.7307C97.2891 47.9805 91.8121 46.5388 85.7039 43.5028C79.5957 40.4668 75.1077 36.929 75.7538 35.6496Z" fill="url(#paint3_linear_2_25621)"/>
<path style="mix-blend-mode:color" d="M5.04461 0.491963C5.09016 0.3996 5.15445 0.317523 5.23347 0.250856C5.28412 0.214551 5.33923 0.184788 5.39748 0.162286C6.81396 -0.492145 11.8238 0.934811 17.3356 3.68539C22.9617 6.4901 27.1615 9.67369 27.3354 11.1646C27.3454 11.2381 27.3454 11.3126 27.3354 11.386C27.3354 11.386 27.3354 11.386 27.3354 11.4106C27.3297 11.4521 27.3162 11.4922 27.2956 11.5287C26.6446 12.7982 21.1477 11.3614 15.0196 8.30578C8.89145 5.25012 4.47305 1.79099 5.04461 0.491963Z" fill="url(#paint4_linear_2_25621)"/>
</g>
<defs>
<linearGradient id="paint0_linear_2_25621" x1="91.7457" y1="41.0762" x2="64.6117" y2="41.4571" gradientUnits="userSpaceOnUse">
<stop stop-color="#F1F2F2"/>
<stop offset="0.18" stop-color="#EDEEEE"/>
<stop offset="0.38" stop-color="#E0E0E0"/>
<stop offset="0.59" stop-color="#CBCACA"/>
<stop offset="0.8" stop-color="#AEACAC"/>
<stop offset="1" stop-color="#8A8787"/>
</linearGradient>
<linearGradient id="paint1_linear_2_25621" x1="26.9538" y1="2.85266" x2="-1.38429" y2="10.5769" gradientUnits="userSpaceOnUse">
<stop offset="0.01" stop-color="#F1F2F2"/>
<stop offset="0.22" stop-color="#EEEFEF"/>
<stop offset="0.41" stop-color="#E4E4E4"/>
<stop offset="0.59" stop-color="#D2D2D2"/>
<stop offset="0.76" stop-color="#BAB9B9"/>
<stop offset="0.92" stop-color="#9C9999"/>
<stop offset="1" stop-color="#8A8787"/>
</linearGradient>
<linearGradient id="paint2_linear_2_25621" x1="71.2898" y1="11.7549" x2="12.6529" y2="56.4508" gradientUnits="userSpaceOnUse">
<stop stop-color="#03ECFA"/>
<stop offset="1" stop-color="#EC24A1"/>
</linearGradient>
<linearGradient id="paint3_linear_2_25621" x1="91.6206" y1="37.6265" x2="82.1608" y2="44.8372" gradientUnits="userSpaceOnUse">
<stop stop-color="#5F1BBA"/>
<stop offset="1" stop-color="#EC24A1"/>
</linearGradient>
<linearGradient id="paint4_linear_2_25621" x1="20.9388" y1="2.43733" x2="11.4633" y2="9.65999" gradientUnits="userSpaceOnUse">
<stop stop-color="#5F1BBA"/>
<stop offset="1" stop-color="#EC24A1"/>
</linearGradient>
<clipPath id="clip0_2_25621">
<rect width="98" height="74" fill="white"/>
</clipPath>
</defs>
</svg>
