<svg width="43" height="41" viewBox="0 0 43 41" fill="none" xmlns="http://www.w3.org/2000/svg">
<path d="M24.54 15.2283C25.6178 14.7972 28.032 14.5816 29.0667 17.1683C30.6184 21.0475 27.5578 22.7722 26.48 23.6342" stroke="#C377FC"/>
<path d="M32.9138 16.5762C33.7115 19.9091 33.921 23.0262 33.6301 25.3636C33.4844 26.5342 33.2164 27.4817 32.8551 28.1584C32.4934 28.8358 32.0693 29.1892 31.6253 29.2954C31.1814 29.4017 30.6432 29.2786 30.014 28.8384C29.3855 28.3986 28.7176 27.6751 28.0576 26.6973C26.74 24.745 25.5155 21.8708 24.7178 18.5379C23.9201 15.205 23.7105 12.0879 24.0015 9.75059C24.1472 8.57997 24.4152 7.63244 24.7765 6.95573C25.1382 6.27834 25.5623 5.925 26.0063 5.81874C26.4502 5.71248 26.9884 5.83551 27.6176 6.27574C28.2461 6.71552 28.914 7.43905 29.574 8.41684C30.8916 10.3692 32.1161 13.2434 32.9138 16.5762Z" stroke="#2C51A2"/>
<path d="M25.8343 6.17188L7.08105 18.4585L10.961 29.4518H31.6543" stroke="#2C51A2"/>
<path d="M7.07849 18.4609C5.56961 18.4609 2.29318 18.8489 1.25851 20.4009C-0.0348129 22.3409 3.84684 33.3342 5.78683 32.6875C7.33882 32.1702 9.66586 29.8853 10.9595 29.4542" stroke="#2C51A2"/>
<path d="M10.3138 30.0998L9.02048 38.5064C8.80493 39.1531 8.76182 40.4464 10.3138 40.4464C11.8658 40.4464 12.6844 39.1531 12.8997 38.5064L14.8397 29.4531" stroke="#2C51A2"/>
<path d="M31.6533 5.52665L34.8866 1" stroke="#2C51A2" stroke-linecap="round"/>
<path d="M35.5332 9.40697L39.4132 6.82031" stroke="#2C51A2" stroke-linecap="round"/>
<path d="M37.4736 16.5234H41.3536" stroke="#2C51A2" stroke-linecap="round"/>
<path d="M38.1191 23.6328L41.9991 24.9261" stroke="#2C51A2" stroke-linecap="round"/>
<path d="M37.4736 30.1016L41.3536 32.0416" stroke="#2C51A2" stroke-linecap="round"/>
</svg>
