<svg width="34" height="34" viewBox="0 0 34 34" fill="none" xmlns="http://www.w3.org/2000/svg">
<circle cx="16.8996" cy="16.8" r="16.3" stroke="#033C81"/>
<g clip-path="url(#clip0_270_61261)">
<path d="M24.5992 10.4992C23.9289 10.9721 23.1867 11.3337 22.4012 11.5702C21.9796 11.0855 21.4194 10.7419 20.7961 10.586C20.1729 10.43 19.5169 10.4693 18.9167 10.6983C18.3165 10.9274 17.8011 11.3353 17.4403 11.8668C17.0795 12.3983 16.8906 13.0279 16.8992 13.6702V14.3702C15.6691 14.4021 14.4501 14.1293 13.3509 13.576C12.2517 13.0228 11.3064 12.2063 10.5992 11.1992C10.5992 11.1992 7.79922 17.4992 14.0992 20.2992C12.6576 21.2778 10.9402 21.7685 9.19922 21.6992C15.4992 25.1992 23.1992 21.6992 23.1992 13.6492C23.1986 13.4542 23.1798 13.2597 23.1432 13.0682C23.8576 12.3637 24.3618 11.4741 24.5992 10.4992Z" stroke="#033C81" stroke-linecap="round" stroke-linejoin="round"/>
</g>
<defs>
<clipPath id="clip0_270_61261">
<rect width="16.8" height="16.8" fill="white" transform="translate(8.5 8.39844)"/>
</clipPath>
</defs>
</svg>
