<svg width="242" height="243" viewBox="0 0 242 243" fill="none" xmlns="http://www.w3.org/2000/svg">
<g clip-path="url(#clip0_19_11952)">
<g opacity="0.1">
<path d="M72.0342 172.226L100.858 189.383L162.208 86.2822C162.384 85.9832 162.469 85.6397 162.454 85.2932C162.438 84.9467 162.322 84.6122 162.121 84.3302L157.131 77.4826C156.411 76.5062 155.995 75.339 155.936 74.1272C155.876 72.9154 156.176 71.713 156.797 70.6708L158.735 67.4675C158.795 67.3646 158.813 67.2419 158.783 67.1261C158.754 67.0103 158.68 66.9108 158.578 66.8493L152.198 63.0529C152.095 62.9923 151.972 62.9747 151.856 63.0041C151.741 63.0335 151.641 63.1075 151.58 63.2099L149.667 66.4331C149.047 67.4772 148.132 68.3153 147.038 68.8424C145.944 69.3694 144.719 69.5622 143.516 69.3965L135.188 68.2201C134.844 68.1772 134.495 68.2351 134.183 68.3867C133.871 68.5383 133.61 68.7772 133.431 69.0743L72.0342 172.226Z" fill="#D7D7D7"/>
</g>
<path d="M137.737 127.406L162.227 86.2512C162.402 85.9522 162.488 85.6087 162.472 85.2622C162.457 84.9157 162.341 84.5812 162.139 84.2992L157.131 77.4826C156.411 76.5062 155.995 75.339 155.936 74.1272C155.876 72.9154 156.176 71.713 156.797 70.6708L158.735 67.4675C158.795 67.3646 158.813 67.2419 158.783 67.1261C158.754 67.0103 158.68 66.9108 158.578 66.8493L152.198 63.0529C152.095 62.9923 151.972 62.9747 151.856 63.0041C151.741 63.0335 151.641 63.1075 151.58 63.2099L149.667 66.4331C149.047 67.4772 148.132 68.3153 147.038 68.8424C145.944 69.3694 144.719 69.5622 143.516 69.3965L135.188 68.2201C134.844 68.1772 134.495 68.2351 134.183 68.3867C133.871 68.5383 133.61 68.7772 133.431 69.0743L108.94 110.223L137.737 127.406Z" fill="#EAF3FF"/>
<path d="M125.466 136.198L107.459 125.482L52.5359 217.119L70.5437 227.835L125.466 136.198Z" fill="white" fill-opacity="0.31"/>
<path d="M120.869 133.466L115.925 130.529L61.0005 222.16L65.9462 225.103L120.869 133.466Z" fill="white" fill-opacity="0.16"/>
<path d="M117.311 131.347L115.925 130.527L61.0003 222.158L62.3879 222.984L117.311 131.347Z" fill="white" fill-opacity="0.87"/>
<path d="M122.258 134.29L120.87 133.465L65.9472 225.102L67.3286 225.929L122.258 134.29Z" fill="white" fill-opacity="0.33"/>
<path d="M133.68 131.252C133.478 131.126 133.332 130.928 133.273 130.697C133.215 130.466 133.248 130.222 133.366 130.015L134.461 128.158C134.584 127.953 134.783 127.805 135.014 127.746C135.246 127.688 135.491 127.723 135.697 127.844L109.494 112.247C109.696 112.372 109.842 112.571 109.901 112.801C109.959 113.032 109.926 113.276 109.808 113.483L108.715 115.32C108.592 115.525 108.393 115.673 108.161 115.732C107.93 115.791 107.684 115.755 107.478 115.634L106.579 115.099L134.572 131.782L133.68 131.252Z" fill="#D7F0FD"/>
<path d="M130.499 136.585C130.297 136.46 130.151 136.261 130.093 136.031C130.034 135.8 130.068 135.556 130.186 135.349L131.279 133.512C131.404 133.31 131.603 133.164 131.834 133.105C132.064 133.047 132.309 133.08 132.515 133.198L106.304 117.596C106.507 117.721 106.652 117.92 106.711 118.151C106.77 118.381 106.736 118.626 106.618 118.832L105.525 120.669C105.4 120.872 105.201 121.018 104.97 121.076C104.74 121.135 104.495 121.101 104.289 120.983L103.397 120.453L131.382 137.131L130.499 136.585Z" fill="#D7F0FD"/>
<path d="M134.564 131.802L106.564 115.141C106.435 115.043 106.301 114.954 106.16 114.875L105.012 116.805L133.84 133.954L134.984 132.031L134.571 131.781L134.564 131.802Z" fill="#C4E6FF"/>
<path d="M138.163 126.697L109.336 109.543L108.188 111.472L137.015 128.626L138.163 126.697Z" fill="#C4E6FF"/>
<path d="M131.384 137.14L103.384 120.478C103.256 120.38 103.121 120.291 102.98 120.212L101.838 122.141L130.661 139.298L131.81 137.367L131.399 137.123L131.384 137.14Z" fill="#C4E6FF"/>
<path d="M44.2858 217.103L74.5184 235.093C75.0634 235.396 75.7049 235.475 76.307 235.313C76.909 235.151 77.4244 234.761 77.7437 234.225C78.063 233.69 78.1613 233.051 78.0176 232.444C77.8739 231.837 77.4996 231.31 76.974 230.975L46.7414 212.985C46.1965 212.682 45.555 212.603 44.9529 212.765C44.3508 212.927 43.8355 213.317 43.5162 213.853C43.1968 214.388 43.0986 215.027 43.2423 215.634C43.3859 216.24 43.7602 216.767 44.2858 217.103Z" fill="white" fill-opacity="0.45"/>
<path d="M46.7532 212.982L76.9858 230.972C77.5296 231.299 77.9224 231.827 78.0785 232.442C78.2346 233.057 78.1414 233.709 77.8192 234.255C77.7346 234.397 77.6361 234.53 77.5252 234.652C77.7052 234.131 77.7003 233.564 77.5113 233.047C77.3224 232.529 76.9608 232.092 76.4876 231.809L46.255 213.819C45.781 213.538 45.2246 213.429 44.6794 213.51C44.1342 213.591 43.6335 213.857 43.2616 214.264C43.3126 214.108 43.3805 213.958 43.4641 213.817C43.6252 213.546 43.838 213.31 44.0905 213.121C44.343 212.933 44.6301 212.796 44.9356 212.718C45.241 212.641 45.5588 212.624 45.8707 212.669C46.1825 212.715 46.4824 212.821 46.7532 212.982Z" fill="white"/>
<path d="M44.9019 216.059L75.1345 234.049C75.5888 234.318 76.1195 234.429 76.6437 234.365C77.1679 234.301 77.6561 234.065 78.0323 233.695C77.9791 233.892 77.9013 234.082 77.8008 234.26C77.6398 234.531 77.4269 234.768 77.1744 234.956C76.922 235.145 76.6348 235.282 76.3293 235.359C76.0239 235.437 75.7061 235.453 75.3942 235.408C75.0824 235.363 74.7825 235.256 74.5117 235.095L44.2791 217.105C43.7353 216.779 43.3425 216.25 43.1864 215.635C43.0303 215.02 43.1235 214.369 43.4457 213.822C43.5537 213.645 43.6853 213.483 43.8369 213.341C43.6885 213.848 43.7126 214.39 43.9054 214.882C44.0981 215.374 44.4486 215.788 44.9019 216.059Z" fill="white"/>
<path d="M141.289 78.1221L131.467 72.304C131.434 72.2847 131.406 72.2592 131.383 72.2288C131.36 72.1985 131.344 72.1639 131.334 72.1271C131.325 72.0903 131.323 72.052 131.329 72.0145C131.334 71.9769 131.347 71.9408 131.367 71.9083C131.406 71.8441 131.468 71.7978 131.541 71.7793C131.614 71.7608 131.691 71.7716 131.756 71.8094L141.547 77.6354C141.58 77.6546 141.608 77.6802 141.631 77.7105C141.654 77.7409 141.67 77.7755 141.68 77.8123C141.689 77.8491 141.691 77.8874 141.685 77.9249C141.68 77.9625 141.667 77.9986 141.647 78.0311C141.608 78.0861 141.55 78.1254 141.485 78.1421C141.419 78.1587 141.35 78.1517 141.289 78.1221Z" fill="white" fill-opacity="0.49"/>
<path d="M138.816 82.2766L129.025 76.4506C128.993 76.4314 128.964 76.4059 128.941 76.3755C128.918 76.3451 128.902 76.3106 128.892 76.2738C128.883 76.237 128.881 76.1987 128.887 76.1611C128.892 76.1236 128.905 76.0875 128.925 76.055C128.966 75.9913 129.03 75.9456 129.103 75.927C129.176 75.9083 129.254 75.9182 129.321 75.9545L139.105 81.7821C139.138 81.8013 139.166 81.8268 139.189 81.8572C139.212 81.8876 139.229 81.9221 139.238 81.9589C139.247 81.9957 139.249 82.034 139.244 82.0716C139.238 82.1091 139.225 82.1452 139.205 82.1778C139.166 82.2419 139.104 82.2882 139.031 82.3067C138.958 82.3252 138.881 82.3144 138.816 82.2766Z" fill="white" fill-opacity="0.49"/>
<path d="M136.367 86.4186L126.561 80.636C126.497 80.5949 126.451 80.5313 126.433 80.4579C126.414 80.3845 126.424 80.3067 126.46 80.2403C126.479 80.2076 126.505 80.179 126.535 80.1562C126.566 80.1334 126.6 80.1168 126.637 80.1075C126.674 80.0981 126.712 80.0962 126.75 80.1017C126.787 80.1073 126.823 80.1202 126.856 80.1398L136.646 85.9658C136.711 86.0049 136.757 86.0676 136.775 86.1404C136.794 86.2132 136.783 86.2904 136.745 86.3553C136.701 86.4108 136.638 86.448 136.568 86.4596C136.498 86.4713 136.426 86.4567 136.367 86.4186Z" fill="white" fill-opacity="0.49"/>
<path d="M133.87 90.5777L124.098 84.747C124.034 84.7079 123.988 84.6452 123.969 84.5724C123.951 84.4996 123.961 84.4224 123.999 84.3575C124.018 84.3247 124.044 84.2961 124.074 84.2733C124.105 84.2505 124.139 84.234 124.176 84.2246C124.213 84.2153 124.251 84.2134 124.289 84.2189C124.326 84.2245 124.362 84.2374 124.395 84.257L134.186 90.083C134.25 90.1221 134.296 90.1848 134.314 90.2576C134.333 90.3304 134.322 90.4076 134.284 90.4725C134.266 90.5082 134.24 90.5396 134.208 90.5646C134.176 90.5896 134.14 90.6076 134.101 90.6176C134.062 90.6275 134.021 90.6291 133.981 90.6222C133.941 90.6153 133.904 90.6002 133.87 90.5777Z" fill="white" fill-opacity="0.49"/>
<path d="M128.931 98.8896L119.137 93.0512C119.083 93.0079 119.047 92.9466 119.035 92.8785C119.023 92.8105 119.035 92.7404 119.071 92.681C119.106 92.6217 119.162 92.577 119.227 92.5553C119.293 92.5336 119.364 92.5363 119.428 92.5629L129.219 98.3889C129.251 98.4081 129.28 98.4336 129.303 98.464C129.326 98.4944 129.342 98.5289 129.351 98.5657C129.361 98.6025 129.363 98.6408 129.357 98.6784C129.352 98.7159 129.339 98.752 129.319 98.7845C129.281 98.8494 129.219 98.8967 129.147 98.9163C129.074 98.9359 128.997 98.9264 128.931 98.8896Z" fill="white" fill-opacity="0.49"/>
<path d="M126.457 103.038L116.668 97.218C116.636 97.1988 116.607 97.1733 116.584 97.1429C116.561 97.1126 116.545 97.078 116.535 97.0412C116.526 97.0044 116.524 96.9661 116.53 96.9285C116.535 96.891 116.548 96.8549 116.568 96.8224C116.607 96.7582 116.67 96.7119 116.742 96.6934C116.815 96.6749 116.892 96.6857 116.957 96.7235L126.748 102.549C126.781 102.569 126.809 102.594 126.832 102.625C126.855 102.655 126.872 102.69 126.881 102.726C126.89 102.763 126.892 102.801 126.887 102.839C126.881 102.877 126.868 102.913 126.849 102.945C126.808 103.009 126.745 103.054 126.672 103.071C126.599 103.089 126.522 103.077 126.457 103.038Z" fill="white" fill-opacity="0.49"/>
<path d="M123.986 107.199L114.195 101.373C114.162 101.353 114.134 101.328 114.111 101.297C114.088 101.267 114.072 101.232 114.062 101.196C114.053 101.159 114.051 101.121 114.057 101.083C114.062 101.045 114.075 101.009 114.095 100.977C114.136 100.913 114.199 100.867 114.273 100.849C114.346 100.83 114.424 100.84 114.49 100.876L124.275 106.704C124.308 106.723 124.336 106.749 124.359 106.779C124.382 106.809 124.398 106.844 124.408 106.881C124.417 106.918 124.419 106.956 124.414 106.993C124.408 107.031 124.395 107.067 124.375 107.1C124.336 107.164 124.274 107.21 124.201 107.229C124.128 107.247 124.051 107.236 123.986 107.199Z" fill="white" fill-opacity="0.49"/>
<path d="M121.512 111.346L111.722 105.526C111.657 105.487 111.609 105.423 111.59 105.349C111.571 105.275 111.583 105.196 111.622 105.13C111.661 105.064 111.725 105.017 111.799 104.998C111.873 104.979 111.952 104.991 112.018 105.03L121.808 110.856C121.873 110.895 121.919 110.958 121.937 111.03C121.956 111.103 121.945 111.18 121.907 111.245C121.888 111.278 121.863 111.307 121.832 111.329C121.802 111.352 121.767 111.369 121.73 111.378C121.694 111.387 121.655 111.389 121.618 111.384C121.58 111.378 121.544 111.365 121.512 111.346Z" fill="white" fill-opacity="0.49"/>
<path d="M116.567 119.655L106.783 113.828C106.729 113.784 106.693 113.723 106.681 113.655C106.668 113.587 106.681 113.517 106.716 113.458C106.752 113.398 106.807 113.354 106.873 113.332C106.939 113.31 107.01 113.313 107.074 113.339L116.864 119.165C116.928 119.205 116.975 119.267 116.993 119.34C117.012 119.413 117.001 119.49 116.963 119.555C116.944 119.588 116.918 119.616 116.888 119.639C116.858 119.662 116.823 119.678 116.786 119.688C116.749 119.697 116.711 119.699 116.674 119.693C116.636 119.688 116.6 119.675 116.567 119.655Z" fill="white" fill-opacity="0.49"/>
<path d="M114.102 123.811L104.311 117.985C104.257 117.941 104.221 117.88 104.209 117.812C104.197 117.744 104.209 117.674 104.245 117.615C104.28 117.555 104.335 117.511 104.401 117.489C104.467 117.467 104.538 117.47 104.602 117.496L114.391 123.316C114.424 123.336 114.452 123.361 114.475 123.391C114.498 123.422 114.514 123.456 114.524 123.493C114.533 123.53 114.535 123.568 114.529 123.606C114.524 123.643 114.511 123.679 114.491 123.712C114.452 123.776 114.39 123.822 114.317 123.841C114.244 123.859 114.167 123.849 114.102 123.811Z" fill="white" fill-opacity="0.49"/>
<path d="M111.629 127.964L101.839 122.138C101.806 122.119 101.777 122.094 101.754 122.063C101.732 122.033 101.715 121.998 101.706 121.961C101.696 121.925 101.694 121.886 101.7 121.849C101.706 121.811 101.719 121.775 101.738 121.743C101.777 121.678 101.84 121.632 101.913 121.614C101.985 121.595 102.063 121.606 102.128 121.644L111.912 127.471C111.945 127.491 111.973 127.516 111.996 127.546C112.019 127.577 112.036 127.611 112.045 127.648C112.054 127.685 112.056 127.723 112.051 127.761C112.045 127.798 112.032 127.835 112.013 127.867C111.973 127.929 111.912 127.974 111.84 127.992C111.769 128.01 111.693 128 111.629 127.964Z" fill="white" fill-opacity="0.49"/>
<path d="M109.145 132.122L99.3539 126.296C99.3211 126.277 99.2925 126.251 99.2697 126.221C99.2469 126.191 99.2304 126.156 99.221 126.119C99.2117 126.082 99.2097 126.044 99.2153 126.007C99.2209 125.969 99.2338 125.933 99.2534 125.9C99.2925 125.836 99.3551 125.79 99.428 125.772C99.5008 125.753 99.578 125.764 99.6429 125.802L109.434 131.628C109.466 131.647 109.495 131.672 109.518 131.703C109.541 131.733 109.557 131.768 109.566 131.804C109.576 131.841 109.578 131.88 109.572 131.917C109.567 131.955 109.554 131.991 109.534 132.023C109.495 132.087 109.432 132.134 109.36 132.152C109.287 132.171 109.21 132.16 109.145 132.122Z" fill="white" fill-opacity="0.49"/>
<path d="M104.209 140.425L94.4183 134.599C94.3542 134.559 94.3079 134.497 94.2894 134.424C94.2709 134.351 94.2817 134.274 94.3194 134.209C94.3387 134.176 94.3642 134.148 94.3946 134.125C94.4249 134.102 94.4595 134.086 94.4963 134.076C94.5331 134.067 94.5714 134.065 94.609 134.07C94.6465 134.076 94.6826 134.089 94.7151 134.109L104.506 139.935C104.57 139.974 104.616 140.036 104.635 140.109C104.653 140.182 104.642 140.259 104.605 140.324C104.585 140.357 104.56 140.385 104.53 140.408C104.499 140.431 104.465 140.448 104.428 140.457C104.391 140.466 104.353 140.468 104.315 140.463C104.278 140.457 104.242 140.444 104.209 140.425Z" fill="white" fill-opacity="0.49"/>
<path d="M101.738 144.579L91.9535 138.778C91.8893 138.739 91.843 138.676 91.8245 138.604C91.806 138.531 91.8168 138.454 91.8546 138.389C91.8738 138.356 91.8994 138.327 91.9297 138.305C91.9601 138.282 91.9947 138.265 92.0315 138.256C92.0683 138.247 92.1066 138.245 92.1441 138.25C92.1817 138.256 92.2178 138.269 92.2503 138.288L102.041 144.114C102.105 144.153 102.151 144.216 102.17 144.289C102.188 144.362 102.178 144.439 102.14 144.504C102.119 144.535 102.091 144.562 102.06 144.583C102.028 144.604 101.992 144.619 101.955 144.626C101.917 144.633 101.879 144.632 101.842 144.624C101.804 144.616 101.769 144.601 101.738 144.579Z" fill="white" fill-opacity="0.49"/>
<path d="M99.2727 148.767L89.5051 142.903C89.4513 142.859 89.415 142.798 89.4028 142.73C89.3906 142.662 89.4033 142.592 89.4386 142.532C89.4739 142.473 89.5295 142.428 89.5951 142.407C89.6607 142.385 89.7319 142.388 89.7957 142.414L99.5848 148.234C99.6506 148.273 99.6982 148.337 99.717 148.411C99.7359 148.485 99.7244 148.564 99.6853 148.63C99.6461 148.696 99.5825 148.743 99.5083 148.762C99.4341 148.781 99.3554 148.769 99.2896 148.73L99.2727 148.767Z" fill="white" fill-opacity="0.49"/>
<path d="M96.7989 152.888L87.0082 147.062C86.9754 147.043 86.9468 147.017 86.924 146.987C86.9012 146.956 86.8847 146.922 86.8753 146.885C86.866 146.848 86.864 146.81 86.8696 146.772C86.8752 146.735 86.8881 146.699 86.9077 146.666C86.9468 146.602 87.0094 146.556 87.0823 146.537C87.1551 146.519 87.2323 146.529 87.2972 146.567L97.0879 152.393C97.1207 152.412 97.1492 152.438 97.172 152.468C97.1948 152.499 97.2114 152.533 97.2207 152.57C97.2301 152.607 97.232 152.645 97.2265 152.683C97.2209 152.72 97.208 152.756 97.1884 152.789C97.1493 152.853 97.0866 152.899 97.0138 152.918C96.941 152.936 96.8638 152.926 96.7989 152.888Z" fill="white" fill-opacity="0.49"/>
<path d="M153.406 80.0381L133.824 68.3861C133.704 68.3035 133.62 68.1783 133.589 68.036C133.558 67.8937 133.582 67.7449 133.656 67.6197C133.731 67.4945 133.85 67.4024 133.99 67.3619C134.13 67.3214 134.28 67.3356 134.41 67.4016L153.99 79.0474C154.121 79.1263 154.215 79.2536 154.253 79.4018C154.29 79.55 154.268 79.707 154.191 79.8388C154.113 79.9691 153.986 80.0632 153.839 80.1005C153.692 80.1379 153.536 80.1154 153.406 80.0381Z" fill="white" fill-opacity="0.49"/>
<path d="M141.04 100.808L121.468 89.167C121.348 89.0844 121.264 88.9592 121.233 88.8169C121.202 88.6746 121.226 88.5258 121.3 88.4006C121.375 88.2754 121.494 88.1832 121.634 88.1427C121.774 88.1022 121.924 88.1164 122.054 88.1825L141.631 99.8422C141.697 99.8796 141.754 99.9298 141.8 99.99C141.846 100.05 141.879 100.119 141.898 100.192C141.916 100.266 141.92 100.342 141.908 100.417C141.897 100.492 141.87 100.563 141.83 100.627C141.749 100.756 141.621 100.847 141.472 100.881C141.324 100.915 141.169 100.889 141.04 100.808Z" fill="white" fill-opacity="0.49"/>
<path d="M128.678 121.559L109.103 109.906C109.037 109.868 108.979 109.818 108.933 109.758C108.887 109.698 108.854 109.629 108.835 109.556C108.817 109.482 108.813 109.406 108.825 109.331C108.837 109.256 108.863 109.185 108.903 109.12C108.981 108.99 109.107 108.896 109.255 108.859C109.402 108.821 109.558 108.844 109.688 108.921L129.25 120.598C129.37 120.681 129.454 120.806 129.485 120.948C129.516 121.09 129.492 121.239 129.417 121.364C129.343 121.49 129.224 121.582 129.084 121.622C128.944 121.663 128.794 121.649 128.664 121.582L128.678 121.559Z" fill="white" fill-opacity="0.49"/>
<path d="M116.343 142.338L96.7617 130.686C96.6417 130.603 96.5576 130.478 96.5265 130.336C96.4953 130.194 96.5195 130.045 96.5939 129.92C96.6684 129.794 96.7877 129.702 96.9277 129.662C97.0676 129.621 97.2177 129.635 97.3475 129.701L116.929 141.353C116.999 141.389 117.061 141.439 117.111 141.499C117.161 141.56 117.198 141.63 117.22 141.706C117.242 141.781 117.248 141.86 117.238 141.938C117.228 142.016 117.202 142.091 117.162 142.159C117.122 142.226 117.068 142.285 117.004 142.331C116.941 142.377 116.868 142.409 116.791 142.426C116.715 142.443 116.635 142.444 116.558 142.428C116.481 142.413 116.408 142.383 116.343 142.338Z" fill="white" fill-opacity="0.49"/>
<path d="M103.968 163.111L84.3884 151.466C84.2581 151.388 84.1639 151.261 84.1266 151.114C84.0892 150.967 84.1117 150.811 84.189 150.68C84.2264 150.615 84.2766 150.557 84.3368 150.511C84.3969 150.465 84.4658 150.432 84.5391 150.413C84.6124 150.395 84.6888 150.391 84.7636 150.403C84.8383 150.414 84.91 150.441 84.9742 150.481L104.554 162.127C104.624 162.163 104.686 162.212 104.736 162.273C104.786 162.333 104.823 162.403 104.845 162.479C104.867 162.554 104.873 162.634 104.863 162.712C104.853 162.79 104.827 162.865 104.787 162.932C104.747 163 104.693 163.058 104.63 163.104C104.566 163.15 104.493 163.183 104.417 163.199C104.34 163.216 104.26 163.217 104.183 163.202C104.106 163.187 104.033 163.156 103.968 163.111Z" fill="white" fill-opacity="0.49"/>
<path d="M147.082 101.093L145.376 100.078L144.517 101.126C144.648 101.18 144.775 101.244 144.895 101.319C145.238 101.51 145.523 101.79 145.72 102.13C145.852 102.366 145.918 102.634 145.91 102.905C145.902 103.176 145.821 103.439 145.676 103.668C145.547 103.878 145.376 104.06 145.174 104.202C144.972 104.344 144.743 104.443 144.501 104.493C144.259 104.544 144.01 104.544 143.768 104.494C143.526 104.445 143.297 104.346 143.094 104.205C142.697 103.983 142.368 103.657 142.144 103.261L142.57 102.89C142.766 103.227 143.043 103.51 143.377 103.712C143.506 103.802 143.652 103.865 143.806 103.897C143.96 103.929 144.119 103.929 144.274 103.896C144.428 103.864 144.574 103.8 144.702 103.709C144.83 103.618 144.939 103.502 145.02 103.367C145.36 102.787 145.217 102.146 144.324 101.609C144.113 101.488 143.894 101.381 143.67 101.288L145.241 99.3098L147.388 100.588L147.082 101.093Z" fill="#C4E6FF"/>
<path d="M133.329 121.108L132.283 121.057L132.445 120.529L133.73 120.585L134.249 120.894L131.583 125.375L130.995 125.03L133.329 121.108Z" fill="#C4E6FF"/>
<path d="M137.22 125.626C136.298 127.177 135.247 127.654 134.243 127.04C133.367 126.519 133.259 125.316 134.131 123.851C135.002 122.386 136.17 121.905 137.065 122.448C137.959 122.991 138.061 124.195 137.22 125.626ZM134.743 124.241C134.047 125.412 134.011 126.283 134.563 126.617C135.115 126.95 135.913 126.439 136.596 125.291C137.278 124.144 137.405 123.296 136.771 122.924C136.137 122.552 135.467 123.024 134.743 124.241Z" fill="#C4E6FF"/>
<path d="M120.973 141.881L119.933 141.829L120.088 141.296L121.38 141.357L121.897 141.66L119.233 146.146L118.644 145.796L120.973 141.881Z" fill="#C4E6FF"/>
<path d="M125.561 144.529L123.849 143.515L122.99 144.563C123.122 144.618 123.25 144.682 123.374 144.755C123.714 144.948 123.996 145.229 124.192 145.567C124.326 145.803 124.393 146.071 124.385 146.342C124.377 146.613 124.295 146.877 124.148 147.105C124.019 147.315 123.848 147.497 123.646 147.639C123.444 147.781 123.215 147.88 122.974 147.931C122.732 147.981 122.482 147.981 122.24 147.932C121.998 147.882 121.769 147.783 121.567 147.642C121.172 147.418 120.844 147.092 120.617 146.698L121.042 146.327C121.241 146.664 121.521 146.946 121.856 147.147C121.984 147.237 122.129 147.3 122.283 147.332C122.436 147.364 122.595 147.365 122.748 147.333C122.902 147.301 123.047 147.239 123.175 147.149C123.304 147.059 123.412 146.944 123.495 146.81C123.833 146.224 123.696 145.581 122.789 145.015C122.58 144.894 122.363 144.786 122.141 144.693L123.712 142.714L125.853 143.994L125.561 144.529Z" fill="#C4E6FF"/>
<path d="M104.968 165.778L105.19 165.406L105.938 165.216C107.729 164.807 108.596 164.541 109.004 163.865C109.088 163.754 109.146 163.625 109.174 163.488C109.201 163.351 109.198 163.21 109.163 163.074C109.129 162.939 109.065 162.813 108.975 162.706C108.885 162.599 108.773 162.513 108.646 162.456C108.286 162.259 107.869 162.192 107.466 162.268L107.532 161.725C108.058 161.633 108.599 161.729 109.062 161.995C109.25 162.084 109.417 162.213 109.552 162.372C109.687 162.531 109.785 162.718 109.842 162.918C109.899 163.119 109.911 163.33 109.88 163.536C109.848 163.742 109.773 163.939 109.659 164.113C109.165 164.943 108.166 165.256 106.68 165.6L106.13 165.74L108.124 166.984L107.822 167.482L104.968 165.778Z" fill="#C7E7FF"/>
<path d="M112.827 167.371C111.904 168.921 110.856 169.405 109.855 168.784C108.981 168.268 108.873 167.092 109.739 165.602C110.604 164.112 111.778 163.656 112.673 164.199C113.568 164.742 113.694 165.94 112.827 167.371ZM110.351 165.992C109.661 167.161 109.619 168.034 110.176 168.36C110.732 168.686 111.519 168.183 112.204 167.042C112.888 165.901 113.012 165.041 112.378 164.669C111.744 164.296 111.094 164.771 110.37 165.988L110.351 165.992Z" fill="#C7E7FF"/>
<path d="M102.603 169.866C102.804 169.518 102.969 169.233 103.111 168.94L103.64 169.26L103.347 169.815C103.566 169.689 103.815 169.625 104.067 169.629C104.32 169.633 104.566 169.706 104.781 169.839C104.991 169.959 105.157 170.143 105.256 170.364C105.355 170.585 105.38 170.832 105.33 171.068C105.53 170.96 105.749 170.891 105.976 170.865C106.283 170.829 106.592 170.901 106.851 171.071C107.293 171.334 107.748 172.014 107.087 173.169L105.916 175.138L105.325 174.781L106.45 172.89C106.827 172.248 106.813 171.725 106.337 171.431C106.17 171.343 105.981 171.307 105.793 171.33C105.606 171.353 105.43 171.433 105.29 171.559C105.201 171.639 105.125 171.731 105.064 171.834L103.837 173.896L103.24 173.541L104.43 171.541C104.75 171.012 104.741 170.487 104.283 170.209C104.103 170.116 103.899 170.082 103.698 170.11C103.498 170.139 103.312 170.229 103.165 170.368C103.075 170.443 103 170.533 102.943 170.635L101.743 172.65L101.154 172.3L102.603 169.866Z" fill="#C7E7FF"/>
<path d="M109.817 170.826L110.421 171.185L107.506 176.085L106.9 175.719L109.817 170.826Z" fill="#C7E7FF"/>
<path d="M101.455 191.735L69.6725 172.823L131.924 68.2163C132.277 67.617 132.8 67.1363 133.427 66.8354C134.053 66.5344 134.756 66.4269 135.444 66.5265L143.777 67.7012C144.641 67.811 145.518 67.6658 146.3 67.2837C147.082 66.9015 147.736 66.299 148.18 65.5503L150.099 62.3255C150.394 61.8302 150.873 61.4723 151.432 61.3305C151.991 61.1886 152.583 61.2744 153.079 61.5689L159.459 65.3653C159.954 65.6603 160.312 66.1399 160.454 66.6987C160.595 67.2574 160.51 67.8497 160.215 68.3452L158.264 71.5717C157.826 72.3247 157.619 73.1892 157.666 74.0587C157.714 74.9282 158.015 75.7648 158.532 76.4655L163.538 83.2232C163.954 83.7805 164.194 84.449 164.229 85.1434C164.263 85.8378 164.09 86.5268 163.732 87.1226L101.455 191.735ZM72.0341 172.223L100.857 189.38L162.208 86.2788C162.384 85.9799 162.469 85.6363 162.454 85.2898C162.438 84.9433 162.322 84.6088 162.12 84.3268L157.131 77.4793C156.411 76.5029 155.995 75.3356 155.936 74.1238C155.876 72.912 156.176 71.7096 156.797 70.6674L158.734 67.4642C158.795 67.3612 158.813 67.2385 158.783 67.1227C158.754 67.0069 158.68 66.9074 158.578 66.8459L152.198 63.0496C152.095 62.9889 151.972 62.9713 151.856 63.0007C151.74 63.0301 151.641 63.1041 151.579 63.2065L149.667 66.4298C149.046 67.4739 148.132 68.3119 147.038 68.839C145.944 69.3661 144.719 69.5588 143.516 69.3931L135.188 68.2167C134.844 68.1738 134.495 68.2317 134.183 68.3833C133.871 68.5349 133.61 68.7738 133.431 69.0709L72.0341 172.223Z" fill="white" fill-opacity="0.55"/>
<g style="mix-blend-mode:screen" opacity="0.7">
<path d="M85.6571 178.474L154.072 64.1625L152.196 63.0462C152.093 62.9855 151.971 62.968 151.855 62.9974C151.739 63.0268 151.64 63.1007 151.578 63.2032L149.665 66.4264C149.045 67.4705 148.131 68.3085 147.037 68.8356C145.943 69.3627 144.717 69.5554 143.514 69.3897L142.974 69.3097L79.7191 174.941L85.6571 178.474Z" fill="#EEEEEE"/>
</g>
<g style="mix-blend-mode:multiply" opacity="0.1">
<path d="M101.853 187.708L162.226 86.2501C162.402 85.9512 162.487 85.6076 162.472 85.2612C162.456 84.9147 162.34 84.5801 162.138 84.2981L159.911 81.2772L97.6084 185.192L101.853 187.708Z" fill="#86D4E6"/>
</g>
<path d="M63.9913 171.544L105.14 196.035C105.761 196.365 106.485 196.444 107.162 196.255C107.839 196.065 108.417 195.623 108.777 195.019C109.136 194.414 109.249 193.695 109.093 193.01C108.936 192.324 108.522 191.726 107.936 191.338L66.7805 166.848C66.4721 166.629 66.1215 166.476 65.751 166.399C65.3804 166.322 64.9979 166.323 64.6278 166.402C64.2577 166.481 63.908 166.636 63.601 166.858C63.294 167.079 63.0364 167.362 62.8445 167.688C62.6526 168.014 62.5306 168.377 62.4863 168.752C62.4419 169.128 62.4762 169.509 62.587 169.871C62.6977 170.233 62.8825 170.568 63.1295 170.855C63.3766 171.141 63.6806 171.373 64.0222 171.536L63.9913 171.544Z" fill="white" fill-opacity="0.48"/>
<path d="M64.6122 170.49L105.76 194.975C106.292 195.291 106.915 195.418 107.529 195.334C108.142 195.249 108.709 194.96 109.137 194.512C109.01 194.902 108.797 195.259 108.513 195.556C108.23 195.853 107.884 196.082 107.501 196.228C107.117 196.373 106.705 196.431 106.297 196.396C105.888 196.361 105.492 196.235 105.138 196.027L63.991 171.543C63.3687 171.171 62.9191 170.568 62.7408 169.866C62.5625 169.164 62.67 168.419 63.0399 167.796C63.1429 167.62 63.2676 167.458 63.4109 167.314C63.223 167.901 63.2395 168.534 63.4576 169.111C63.6757 169.688 64.0827 170.174 64.6122 170.49Z" fill="white"/>
<path d="M107.352 192.305L66.2152 167.811C65.677 167.492 65.0459 167.368 64.4269 167.458C63.808 167.548 63.2386 167.847 62.8135 168.306C62.8752 168.124 62.9565 167.949 63.056 167.784C63.4274 167.172 64.0243 166.73 64.7181 166.554C65.4119 166.378 66.1472 166.481 66.7655 166.842L107.93 191.316C108.551 191.686 109.001 192.288 109.179 192.99C109.357 193.691 109.249 194.434 108.879 195.056C108.782 195.222 108.667 195.378 108.536 195.519C108.735 194.928 108.726 194.288 108.51 193.703C108.295 193.119 107.886 192.625 107.352 192.305Z" fill="white"/>
<path d="M162.358 68.9284L148.396 60.6207C147.972 60.3685 147.424 60.5076 147.172 60.9315L146.393 62.2415C146.14 62.6654 146.28 63.2134 146.703 63.4656L160.665 71.7733C161.089 72.0255 161.637 71.8864 161.889 71.4625L162.668 70.1525C162.921 69.7286 162.781 69.1806 162.358 68.9284Z" fill="white" fill-opacity="0.69"/>
<path d="M161.015 71.7496L161.788 70.441C161.851 70.3398 161.892 70.227 161.91 70.1093C161.929 69.9917 161.923 69.8716 161.894 69.7562C161.864 69.6408 161.812 69.5325 161.74 69.4377C161.668 69.3429 161.577 69.2636 161.474 69.2046L147.521 60.9015C147.441 60.8546 147.355 60.821 147.265 60.8019C147.402 60.6411 147.591 60.5339 147.798 60.4992C148.006 60.4645 148.22 60.5044 148.401 60.6121L162.355 68.9152C162.457 68.9755 162.546 69.0554 162.617 69.1503C162.688 69.2452 162.74 69.3532 162.769 69.4681C162.798 69.583 162.804 69.7026 162.787 69.8199C162.77 69.9372 162.73 70.0499 162.669 70.1516L161.888 71.4555C161.793 71.6198 161.647 71.7487 161.472 71.8228C161.297 71.8968 161.103 71.912 160.919 71.8659L161.015 71.7496Z" fill="#D5F1FF"/>
<path d="M164.167 53.478L161.108 51.6683C160.751 51.4519 160.332 51.3584 159.917 51.4021C159.501 51.4458 159.112 51.6242 158.807 51.9103L149.038 60.9712L161.713 68.5395L165.046 55.6174C165.153 55.2137 165.125 54.7862 164.966 54.3999C164.807 54.0136 164.527 53.6898 164.167 53.478Z" fill="#DFF1FF"/>
<path d="M161.193 53.1952L153.798 63.5486L150.698 61.7035L160.465 52.61C160.769 52.3234 161.158 52.144 161.573 52.0992C161.988 52.0544 162.407 52.1466 162.764 52.3619C162.455 52.3631 162.15 52.4396 161.876 52.5848C161.602 52.7299 161.368 52.9394 161.193 53.1952Z" fill="#E7F7FF"/>
<path d="M149.637 60.4588L161.914 67.7594L161.711 68.5414L149.051 61.0024L149.637 60.4588Z" fill="#FAFDFF"/>
<path d="M165.754 49.5144L163.845 48.3734C163.771 48.3244 163.687 48.2914 163.6 48.2765C163.512 48.2617 163.422 48.2653 163.336 48.2872C163.25 48.309 163.169 48.3487 163.1 48.4035C163.03 48.4584 162.972 48.5273 162.93 48.6057L161.122 51.6971L164.175 53.5084L165.984 50.4232C166.032 50.3493 166.065 50.2664 166.079 50.1795C166.094 50.0926 166.09 50.0036 166.068 49.9182C166.046 49.8329 166.007 49.7529 165.953 49.6834C165.899 49.6139 165.831 49.5563 165.754 49.5144Z" fill="#F0F9FF"/>
<path d="M164.557 52.8168L161.504 51L161.109 51.6633L164.162 53.4801L164.557 52.8168Z" fill="#E4F1FF"/>
<path d="M192.676 4.07665L192.74 0L163.924 48.4264L165.668 49.4643L192.676 4.07665Z" fill="#E4EDFE"/>
<path d="M192.725 1.00391L192.699 2.5108L165.001 49.0674L164.356 48.6784L192.725 1.00391Z" fill="white"/>
<path d="M165.96 48.9747L164.217 47.9375L163.927 48.4254L165.67 49.4626L165.96 48.9747Z" fill="#D2E8FF"/>
</g>
<defs>
<clipPath id="clip0_19_11952">
<rect width="199.45" height="198.015" fill="white" transform="translate(192.74) rotate(75.7549)"/>
</clipPath>
</defs>
</svg>
