<svg width="70" height="91" viewBox="0 0 70 91" fill="none" xmlns="http://www.w3.org/2000/svg">
<path d="M47.1112 26.1662L42.6452 22.5884C40.8896 21.1898 39.5111 19.3749 38.6348 17.3084L37.0713 13.5992L35.0736 14.4413L36.6372 18.1504C37.6515 20.5555 39.2485 22.6703 41.2841 24.3041L45.7532 27.8743C47.2188 29.0508 48.3688 30.5733 49.0997 32.3047L65.5902 71.4261C65.8325 72.0009 65.8366 72.6484 65.6014 73.2261C65.3663 73.8039 64.9113 74.2646 64.3365 74.5069L34.8432 86.939C34.2684 87.1813 33.6209 87.1853 33.0431 86.9502C32.4654 86.7151 32.0047 86.2601 31.7624 85.6853L15.2696 46.5586C14.5422 44.8278 14.2561 42.9435 14.437 41.0748L14.9996 35.3774C15.2562 32.779 14.8591 30.1577 13.8446 27.7518L12.2811 24.0426L10.2675 24.8914L11.831 28.6005C12.7029 30.6699 13.044 32.9243 12.8233 35.159L12.266 40.8542C12.0428 43.087 12.3832 45.3402 13.256 47.4074L29.7466 86.5288C30.214 87.6376 31.1027 88.5153 32.2173 88.9689C33.3318 89.4224 34.5809 89.4147 35.6897 88.9473L65.1831 76.5151C66.2919 76.0477 67.1696 75.159 67.6232 74.0445C68.0767 72.9299 68.069 71.6809 67.6016 70.572L51.111 31.4506C50.2407 29.3824 48.8655 27.5654 47.1112 26.1662Z" fill="white" fill-opacity="0.53"/>
<g style="mix-blend-mode:screen" opacity="0.7">
<path d="M34.841 86.9309C34.2662 87.1732 33.6188 87.1772 33.041 86.9421C32.4632 86.707 32.0025 86.252 31.7603 85.6772L15.2697 46.5558C14.5423 44.825 14.2562 42.9407 14.4371 41.072L14.9997 35.3746C15.2563 32.7762 14.8592 30.1549 13.8447 27.749L12.2812 24.0398L35.0662 14.4354L36.6297 18.1446C37.6441 20.5496 39.2411 22.6644 41.2767 24.2982L45.7533 27.8715C47.2189 29.048 48.3689 30.5705 49.0998 32.3019L65.5904 71.4233C65.8326 71.9981 65.8367 72.6456 65.6016 73.2233C65.3664 73.8011 64.9114 74.2618 64.3367 74.5041L34.841 86.9309Z" fill="white"/>
</g>
<path d="M36.1895 1.83898C35.7979 1.64754 35.3698 1.54215 34.9341 1.52992C34.4984 1.51768 34.0651 1.59886 33.6634 1.76802L4.16473 14.2024C3.44528 14.5058 2.87581 15.0825 2.58158 15.8058C2.41047 16.1416 2.31691 16.5116 2.30782 16.8884C2.29364 17.236 2.35655 17.5824 2.49204 17.9028L5.1031 24.0972C5.23781 24.4172 5.43979 24.7045 5.69533 24.9396C5.9761 25.1945 6.30808 25.3865 6.66904 25.5027C7.39222 25.797 8.20272 25.7921 8.92226 25.4889L38.4474 13.0434C39.1669 12.74 39.7364 12.1633 40.0306 11.44C40.1995 11.1005 40.2938 10.7288 40.3074 10.3498C40.3176 10.0028 40.2529 9.65755 40.1179 9.33766L37.5068 3.1433C37.253 2.55448 36.7808 2.08697 36.1895 1.83898Z" fill="white" fill-opacity="0.37"/>
<g style="mix-blend-mode:screen" opacity="0.6">
<path d="M36.9097 2.30038L2.3082 16.8857C2.313 16.5978 2.37075 16.3133 2.47857 16.0463L2.58196 15.803C2.87618 15.0798 3.44565 14.503 4.1651 14.1996L33.6903 1.75412C34.4098 1.45095 35.2203 1.44601 35.9435 1.74039L36.1898 1.83625C36.4562 1.94548 36.7002 2.10281 36.9097 2.30038Z" fill="white"/>
</g>
<g style="mix-blend-mode:multiply" opacity="0.45">
<path d="M40.3074 10.3477C40.3 10.6381 40.2413 10.9248 40.134 11.1946L40.0306 11.4379C39.7363 12.1612 39.1669 12.7379 38.4474 13.0413L8.92224 25.4868C8.2027 25.79 7.3922 25.7949 6.66902 25.5006L6.42268 25.4047C6.15456 25.2931 5.9083 25.1349 5.69531 24.9375L40.3074 10.3477Z" fill="white"/>
</g>
<g style="mix-blend-mode:screen" opacity="0.5">
<path d="M14.3737 11.8028L7.51172 14.6953L10.9023 22.739L17.7643 19.8465L14.3737 11.8028Z" fill="white"/>
</g>
<g style="mix-blend-mode:screen" opacity="0.5">
<path d="M25.9086 6.93849L21.3516 8.85938L24.7421 16.903L29.2992 14.9821L25.9086 6.93849Z" fill="white"/>
</g>
<g style="mix-blend-mode:multiply" opacity="0.3">
<path d="M35.1335 3.04883L25.9082 6.9375L29.2988 14.9812L38.5241 11.0925L35.1335 3.04883Z" fill="#FFFBFB"/>
</g>
<path d="M14.9977 35.3722L14.4374 41.075C14.2564 42.9437 14.5425 44.828 15.27 46.5588L31.7605 85.6802C32.0028 86.2549 32.4635 86.7099 33.0412 86.9451C33.619 87.1802 34.2665 87.1761 34.8413 86.9339L64.3347 74.5017C64.9094 74.2595 65.3644 73.7988 65.5996 73.221C65.8347 72.6432 65.8306 71.9958 65.5884 71.421L49.0978 32.2996C48.3668 30.5703 47.2176 29.0498 45.7536 27.8745L41.2822 24.299C39.9908 23.2622 38.8706 22.0286 37.9629 20.6435L14.7009 30.4489C15.0573 32.0643 15.1575 33.7257 14.9977 35.3722Z" fill="#E1F7FF"/>
<g style="mix-blend-mode:screen" opacity="0.5">
<path d="M34.0927 35.4719C34.4643 35.9199 34.695 36.4678 34.7558 37.0467C34.8166 37.6255 34.7048 38.2094 34.4345 38.7248C34.1643 39.2403 33.7475 39.6643 33.2368 39.9434C32.7261 40.2226 32.1443 40.3444 31.5645 40.2936C30.9847 40.2428 30.4329 40.0216 29.9785 39.6579C29.5241 39.2942 29.1875 38.8042 29.011 38.2496C28.8345 37.695 28.826 37.1005 28.9865 36.5411C29.1471 35.9817 29.4696 35.4822 29.9133 35.1057C30.2115 34.8546 30.5563 34.665 30.928 34.5475C31.2996 34.43 31.6908 34.387 32.0791 34.4211C32.4674 34.4551 32.8451 34.5654 33.1907 34.7458C33.5362 34.9261 33.8428 35.1729 34.0927 35.4719Z" fill="white"/>
</g>
<g style="mix-blend-mode:screen" opacity="0.5">
<path d="M26.9658 29.888C27.1927 30.162 27.3334 30.497 27.37 30.8508C27.4067 31.2047 27.3377 31.5615 27.1717 31.8761C27.0057 32.1907 26.7502 32.4491 26.4374 32.6186C26.1247 32.7881 25.7687 32.8612 25.4145 32.8285C25.0602 32.7958 24.7236 32.6589 24.4472 32.4351C24.1707 32.2112 23.9667 31.9105 23.8611 31.5708C23.7555 31.2311 23.7528 30.8677 23.8536 30.5265C23.9543 30.1854 24.1539 29.8817 24.4271 29.6539C24.7951 29.349 25.269 29.2025 25.7448 29.2464C26.2207 29.2902 26.6597 29.521 26.9658 29.888Z" fill="white"/>
</g>
<g style="mix-blend-mode:screen" opacity="0.5">
<path d="M24.1712 36.5097C24.4779 36.8775 24.6686 37.3281 24.7192 37.8044C24.7697 38.2806 24.6779 38.7612 24.4553 39.1853C24.2327 39.6093 23.8893 39.9578 23.4685 40.1867C23.0478 40.4155 22.5687 40.5144 22.0917 40.4709C21.6147 40.4273 21.1614 40.2433 20.7891 39.9421C20.4167 39.6408 20.1421 39.2359 20 38.7785C19.8578 38.3212 19.8545 37.8319 19.9905 37.3727C20.1265 36.9135 20.3956 36.5049 20.7639 36.1986C21.2571 35.7885 21.893 35.5908 22.5319 35.6491C23.1707 35.7075 23.7603 36.017 24.1712 36.5097Z" fill="white"/>
</g>
<path d="M49.0167 32.0901L15.1836 46.3516L30.2223 82.0287L64.0555 67.7673L49.0167 32.0901Z" fill="white"/>
<path d="M49.0167 32.0901L15.1836 46.3516L21.451 61.2201L55.2842 46.9587L49.0167 32.0901Z" fill="#E0F0FF"/>
<path d="M52.3882 44.4264L21.6602 57.3789L22.0041 58.1949L52.7322 45.2424L52.3882 44.4264Z" fill="white"/>
<g style="mix-blend-mode:screen" opacity="0.4">
<path d="M21.9206 20.0098L15.0215 22.918L40.9243 84.3687L47.8234 81.4606L21.9206 20.0098Z" fill="white"/>
</g>
<g style="mix-blend-mode:multiply" opacity="0.1">
<path d="M41.2798 24.2909C39.2442 22.6571 37.6472 20.5423 36.6329 18.1373L35.0693 14.4281L31.2383 16.043L57.1478 77.5096L64.3278 74.4831C64.9026 74.2408 65.3576 73.7801 65.5927 73.2024C65.8278 72.6246 65.8238 71.9771 65.5815 71.4024L49.0976 32.2968C48.3666 30.5676 47.2174 29.0471 45.7534 27.8718L41.2798 24.2909Z" fill="#DCB5FF"/>
</g>
</svg>
