<svg width="56" height="65" viewBox="0 0 56 65" fill="none" xmlns="http://www.w3.org/2000/svg">
<g clip-path="url(#clip0_82_11748)">
<path d="M47.3108 28.8344C47.5235 28.8204 47.7073 28.864 47.8076 29.0682C47.8721 29.2198 47.9136 29.3807 47.9306 29.5451C47.9987 29.9803 48.0358 30.4199 48.0416 30.8606C48.0593 32.1858 47.8105 33.5006 47.3108 34.7227C47.1688 35.1323 46.9664 35.5171 46.7106 35.8636C46.2032 36.4715 45.3508 36.4107 44.661 36.2392C44.635 36.2339 44.6081 36.2339 44.582 36.2392C44.974 34.2427 45.3326 32.2337 45.6015 30.2138C45.9054 29.8101 46.226 29.3332 46.6544 29.0573L46.6407 29.1025C46.6379 29.1216 46.6411 29.1412 46.65 29.1583C46.6588 29.1754 46.6727 29.1892 46.6897 29.1976C46.7067 29.2059 46.7259 29.2085 46.7444 29.2048C46.763 29.2012 46.7799 29.1916 46.7927 29.1773C46.8428 29.0916 46.8884 29.0028 46.9324 28.9139C47.054 28.8681 47.1815 28.8413 47.3108 28.8344Z" fill="white"/>
<path d="M46.9845 27.964C46.9298 28.1619 46.8706 28.3614 46.8098 28.5594C46.3539 28.7791 45.966 29.1237 45.6889 29.5553C46.0002 27.1497 46.1297 24.7231 46.0762 22.297C46.2388 23.3007 46.3512 24.3107 46.6519 25.2848C46.705 25.4531 46.9739 25.4484 46.9708 25.2505C46.9526 24.2795 46.7719 23.3288 46.6109 22.3749C46.5618 21.9326 46.4503 21.5 46.2798 21.0907C46.098 20.7312 45.8511 20.4107 45.5522 20.1462C44.8874 19.5588 44.1762 19.0291 43.4258 18.5626C42.636 18.0514 41.8295 17.5636 41.0291 17.0695C39.4464 16.0923 37.8683 15.1026 36.2249 14.2329C35.4123 13.8027 34.5739 13.4209 33.7674 12.9767C33.0312 12.5685 32.3287 12.0994 31.6668 11.574C31.5286 11.4649 31.3934 11.3526 31.2598 11.2389C30.67 10.7382 30.112 10.1994 29.589 9.62574C29.2853 9.28753 28.9663 8.95243 28.6777 8.59396C28.4708 8.34998 28.3003 8.07579 28.1719 7.78038C28.1867 7.6949 28.1953 7.60843 28.1978 7.52166C28.2008 7.48153 28.1886 7.44176 28.1636 7.41068C28.1387 7.37959 28.1031 7.3596 28.0641 7.35489C28.0641 7.32372 28.0565 7.29099 28.055 7.25982C28.055 7.24494 28.0492 7.23066 28.039 7.22014C28.0287 7.20962 28.0148 7.20371 28.0003 7.20371C27.9858 7.20371 27.9719 7.20962 27.9617 7.22014C27.9514 7.23066 27.9456 7.24494 27.9456 7.25982C27.9456 7.3019 27.9456 7.34554 27.9456 7.38762C27.9158 7.40694 27.8924 7.43524 27.8788 7.46867C27.774 7.75389 27.7193 8.05313 27.6297 8.34459C27.5423 8.62304 27.4409 8.89667 27.3259 9.1644C27.0871 9.71532 26.8041 10.245 26.4799 10.7479C26.4025 10.8679 26.3281 10.9864 26.246 11.1048C25.6348 11.9788 24.9654 12.8084 24.2427 13.5877C22.4506 15.5576 20.5418 17.4122 18.5272 19.1409C17.4108 20.1056 16.2155 20.9784 15.128 21.9759C15.1107 21.9948 15.1002 22.0193 15.0985 22.0452C15.0968 22.0711 15.1039 22.0969 15.1186 22.118C15.1333 22.1391 15.1547 22.1544 15.1791 22.1612C15.2035 22.168 15.2295 22.1658 15.2526 22.1552C15.5563 21.9666 15.8601 21.7624 16.1426 21.552C15.9555 23.9742 15.95 26.4075 16.1259 28.8306C15.8221 28.3131 15.3984 27.8377 14.847 27.6398L14.7711 27.6164C14.721 27.2533 14.6313 26.8948 14.5539 26.5363C14.4688 26.1415 14.3853 25.7472 14.3033 25.3534C14.1423 24.5772 13.9939 23.7979 13.8582 23.0155C13.7489 22.3921 13.6517 21.7577 13.5742 21.1265C13.4521 20.1881 13.376 19.2439 13.3464 18.2977C13.2613 15.3473 13.6821 12.2301 15.1098 9.62106C15.5227 8.89603 16.0255 8.22909 16.6059 7.63699C17.2134 6.98551 17.8392 6.34337 18.4528 5.69188C18.5333 5.60772 18.4148 5.47836 18.3328 5.55785C17.745 6.12049 17.1557 6.67691 16.5755 7.24735L16.5648 7.2567C16.7061 7.01979 16.8443 6.78912 16.9871 6.54599C17.3289 5.93456 17.7414 5.3678 18.2158 4.85804C19.1591 3.9229 20.4425 3.64391 21.6454 3.2153C22.3015 2.99982 22.9122 2.65929 23.4453 2.21157C23.541 2.12585 23.4088 1.9887 23.3116 2.06507C22.9508 2.33851 22.554 2.55787 22.133 2.71655C23.1764 2.11494 24.2138 1.48839 25.3347 1.06446C26.9234 0.451937 28.6276 0.476874 30.2983 0.54701C32.0212 0.615431 33.738 0.797118 35.4382 1.09095C37.0679 1.37617 38.7478 1.70192 40.2636 2.40172C42.6831 3.5239 44.5604 5.6576 45.6646 8.10457C46.1452 9.19434 46.4847 10.3439 46.6747 11.5241C47.027 13.5502 47.0559 15.6543 47.1607 17.6992C47.2534 19.4791 47.3414 21.2621 47.3961 23.0451C47.4432 24.6894 47.4204 26.3664 46.9845 27.964Z" fill="#C278FB"/>
<path d="M14.7016 35.0183C14.4676 34.6565 14.2888 34.2602 14.1713 33.8431C14.0319 33.4289 13.9197 33.0056 13.8355 32.576C13.6665 31.7041 13.6153 30.8126 13.6836 29.9264C13.7152 29.4869 13.7781 29.0504 13.872 28.6203C13.8993 28.4575 13.9505 28.2998 14.0239 28.1527C14.1379 27.9548 14.3278 27.9221 14.5344 27.9501C15.323 28.0561 15.7742 28.8603 16.1784 29.4791C16.3303 31.5052 16.5719 33.5158 16.8453 35.5201C16.7403 35.4558 16.6197 35.4234 16.4974 35.4266C16.3506 35.434 16.2098 35.4886 16.0948 35.5825C15.5645 35.5996 15.0358 35.4718 14.7016 35.0183Z" fill="white"/>
<path d="M46.0464 22.1156C46.0383 22.11 46.0288 22.1068 46.0191 22.1062C46.0093 22.1057 45.9996 22.1078 45.9909 22.1124C45.9822 22.117 45.9749 22.124 45.9697 22.1325C45.9645 22.141 45.9616 22.1508 45.9614 22.1608C45.8762 24.9087 45.6226 27.6484 45.2019 30.3636C44.8404 32.7919 44.3696 35.1952 43.8714 37.6001C43.6269 38.7862 43.3899 39.9769 43.112 41.1552C42.997 41.715 42.8058 42.2555 42.5439 42.7606C42.2833 43.2192 41.9674 43.6423 41.6038 44.0199C40.8434 44.7841 40.0099 45.4676 39.1159 46.0601L39.0703 46.0912C38.1104 46.7599 37.1444 47.4176 36.1845 48.08C35.2732 48.7034 34.374 49.3736 33.3822 49.8599C32.4633 50.3088 31.438 50.5846 30.4341 50.3197C30.3789 50.3023 30.3195 50.3062 30.267 50.3306C30.215 50.3034 30.1554 50.2957 30.0984 50.3088C29.0808 50.5114 28.0738 50.1716 27.1852 49.6651C26.2223 49.1196 25.3626 48.3979 24.4908 47.7153L23.7678 47.1495C23.0858 46.6165 22.4008 46.085 21.725 45.5473C20.882 44.8724 20.0314 44.168 19.3236 43.3279C18.9829 42.9278 18.6925 42.4853 18.4594 42.0109C18.2303 41.4879 18.0744 40.9343 17.9962 40.3666C17.7911 39.1711 17.6256 37.9695 17.4524 36.7694C17.097 34.3427 16.772 31.9097 16.5548 29.4643C16.307 26.8004 16.2162 24.1236 16.2829 21.4485C17.0119 20.9077 17.7106 20.3139 18.4002 19.7341C19.43 18.8654 20.4319 17.9651 21.406 17.0331C22.3801 16.101 23.3344 15.1259 24.269 14.1076C25.1096 13.2139 25.8862 12.2591 26.5929 11.2507C26.9775 10.6881 27.3135 10.092 27.5969 9.46928C27.7371 9.16002 27.8608 8.84316 27.9675 8.52011C28.01 8.38919 28.0525 8.25983 28.0874 8.12891C28.1481 8.2704 28.2191 8.40691 28.3001 8.53725C28.4813 8.81433 28.6775 9.08075 28.8879 9.33525C29.4183 10.0011 29.9954 10.6262 30.6148 11.2055C31.2189 11.7778 31.867 12.299 32.5529 12.7641C33.3031 13.2464 34.0812 13.6816 34.8828 14.0671C36.5536 14.9056 38.1468 15.861 39.734 16.8445C40.2459 17.1562 40.7623 17.4679 41.2787 17.7905C41.5491 17.9547 41.8179 18.1204 42.0852 18.2877C42.8826 18.7865 43.6709 19.3039 44.4197 19.8728C44.7986 20.142 45.1498 20.4501 45.4677 20.7924C45.7757 21.1563 45.9727 21.605 46.0343 22.0829C46.0376 22.0941 46.0416 22.105 46.0464 22.1156Z" fill="white"/>
<path d="M48.5235 64.7439C48.5058 64.7001 48.5005 64.652 48.5083 64.6052C48.402 64.3075 48.2987 64.0114 48.165 63.7231C47.9557 63.2455 47.6715 62.8063 47.3236 62.4232C46.6051 61.6579 45.5495 61.2901 44.6352 60.8397C43.6226 60.3389 42.6166 59.8225 41.6172 59.2905C41.117 59.0255 40.6198 58.7543 40.1257 58.4769C39.6609 58.2182 39.1825 57.9704 38.7405 57.6727C38.0859 57.2363 37.4783 56.6206 37.3614 55.8304L37.3067 56.1624C37.2748 56.3416 37.2459 56.5193 37.2156 56.6986C37.2083 56.8495 37.1503 56.9932 37.0515 57.1053C37.0312 57.1242 37.0071 57.1382 36.9808 57.1463C36.9545 57.1544 36.9268 57.1563 36.8998 57.152C36.8727 57.1476 36.8469 57.1371 36.8242 57.1213C36.8016 57.1054 36.7828 57.0845 36.769 57.0601C36.6855 56.8762 36.7326 56.7079 36.769 56.5146C36.8055 56.3214 36.8359 56.1343 36.8708 55.9426C36.9376 55.5608 37.0075 55.1789 37.0743 54.7971L37.8034 50.7089C37.9249 50.0216 38.0449 49.3327 38.1816 48.65C38.2499 48.3072 38.3167 47.9658 38.3912 47.6245C38.4261 47.4686 38.4534 47.3003 38.4929 47.1351L36.93 48.2261C36.7219 48.3711 36.5154 48.5191 36.3073 48.6672C35.4872 49.2779 34.6242 49.8254 33.7252 50.3053C32.6499 50.843 31.4652 51.1578 30.285 50.8445C30.2751 50.8418 30.2654 50.8382 30.2562 50.8336C30.2463 50.8374 30.2361 50.8406 30.2258 50.843C29.0289 51.083 27.864 50.6871 26.822 50.0886C25.7284 49.4512 24.7457 48.6064 23.7509 47.8146C22.8092 47.0681 21.8569 46.3324 20.9334 45.5609C20.6934 45.3614 20.455 45.1541 20.2211 44.9375C20.2606 45.2726 20.2803 45.6092 20.3001 45.9475C20.3304 46.4259 20.3517 46.9029 20.3532 47.3814C20.3708 48.3339 20.3114 49.2864 20.1755 50.2289C20.0725 51.0193 19.8634 51.7914 19.5543 52.5231C19.2338 53.2307 18.7159 53.77 18.1873 54.3077C17.0117 55.4891 15.8068 56.6372 14.5724 57.7521C13.4181 58.7964 12.2061 59.7783 11.0593 60.8272C10.0508 61.753 9.15771 62.7864 8.72332 64.1252C8.71468 64.1593 8.69874 64.1909 8.67667 64.2179C8.6546 64.2449 8.62695 64.2664 8.59574 64.281C8.59472 64.4395 8.61726 64.5971 8.66257 64.7486L48.5235 64.7439Z" fill="white"/>
<mask id="path-6-outside-1_82_11748" maskUnits="userSpaceOnUse" x="7.12695" y="-1" width="43" height="66" fill="black">
<rect fill="white" x="7.12695" y="-1" width="43" height="66"/>
<path d="M8.65681 64.7475C8.61171 64.5959 8.58918 64.4383 8.58999 64.2799C8.62125 64.2651 8.64899 64.2435 8.67129 64.2166C8.69358 64.1897 8.70989 64.1581 8.71909 64.124C9.15044 62.7852 10.0451 61.7519 11.0551 60.8261C12.2018 59.774 13.4124 58.7999 14.5652 57.751C15.8005 56.6351 17.006 55.4869 18.1816 54.3065C18.7177 53.7673 19.2341 53.228 19.5485 52.522C19.8574 51.7893 20.0654 51.0161 20.1667 50.2246C20.3062 49.2845 20.3687 48.3341 20.3535 47.3833C20.3535 46.9033 20.3308 46.4264 20.3019 45.9479C20.2806 45.6112 20.2624 45.273 20.2214 44.9379C20.4553 45.1457 20.6933 45.3535 20.9353 45.5613C21.8587 46.3313 22.8095 47.0654 23.7512 47.8135C24.7461 48.6052 25.7257 49.45 26.8239 50.0875C27.8643 50.6937 29.0293 51.0818 30.2261 50.8418L30.255 50.8325L30.2853 50.8434C31.4655 51.1551 32.6502 50.8434 33.7256 50.3025C34.8571 49.7352 35.8884 48.9544 36.9288 48.2265C37.4483 47.8618 37.9708 47.5018 38.4917 47.1355C38.4522 47.3007 38.4249 47.4706 38.39 47.6265C38.3171 47.9662 38.2472 48.307 38.1804 48.6489C38.0437 49.3331 37.9237 50.022 37.8022 50.7093L37.0731 54.7975C37.0048 55.1793 36.9379 55.5612 36.8696 55.943C36.8347 56.1348 36.8012 56.3249 36.7663 56.5166C36.7314 56.7083 36.6843 56.8766 36.7663 57.059C36.7797 57.0837 36.7984 57.1049 36.8209 57.1211C36.8435 57.1374 36.8693 57.1481 36.8965 57.1526C36.9237 57.1571 36.9515 57.1552 36.9779 57.1471C37.0043 57.139 37.0285 57.1249 37.0488 57.1057C37.147 56.9932 37.2049 56.8497 37.2129 56.699C37.2432 56.5197 37.2736 56.3405 37.3025 56.1628C37.3222 56.0521 37.3404 55.9415 37.3587 55.8308C37.4756 56.6195 38.0832 57.2335 38.7363 57.6746C39.1798 57.9723 39.6582 58.2201 40.123 58.4789C40.6181 58.7532 41.1148 59.0238 41.613 59.2909C42.6114 59.8239 43.6179 60.3403 44.6325 60.8401C45.5438 61.2905 46.607 61.6584 47.3224 62.4236C47.6703 62.8073 47.9545 63.247 48.1638 63.725C48.2944 64.0118 48.3992 64.3079 48.5056 64.6056C48.4978 64.6524 48.5031 64.7005 48.5207 64.7443H49.1754C49.1409 64.665 49.0981 64.5898 49.0478 64.5199C48.8435 63.7757 48.5079 63.0762 48.0575 62.4563C47.7766 62.069 47.4323 61.7347 47.0399 61.4682C46.6021 61.1926 46.1452 60.9504 45.6729 60.7435C43.6589 59.774 41.6742 58.7407 39.719 57.6435C38.8077 57.1322 37.7141 56.4776 37.5774 55.3056C37.5766 55.2909 37.5726 55.2767 37.5657 55.2638C37.5587 55.251 37.5491 55.24 37.5373 55.2316C37.5256 55.2232 37.5122 55.2176 37.4981 55.2153C37.484 55.213 37.4695 55.214 37.4559 55.2183L37.4711 55.131C37.5865 54.44 37.7024 53.7501 37.8189 53.0612C38.0497 51.6949 38.2776 50.3275 38.5024 48.959C38.5631 48.585 38.6132 48.2094 38.6649 47.8338C38.7213 47.5369 38.7573 47.2364 38.7727 46.9344C39.1388 46.6773 39.5033 46.4186 39.8633 46.1552C40.7457 45.5068 41.6084 44.8008 42.3041 43.9295C42.647 43.5071 42.9308 43.0376 43.147 42.5346C43.356 41.9958 43.5147 41.438 43.6209 40.8685C43.8336 39.8678 44.0427 38.8652 44.2482 37.8604C44.3499 38.013 44.5012 38.1234 44.675 38.1721C44.8766 38.2213 45.0889 38.1901 45.2689 38.0848C45.4441 37.9787 45.5796 37.8155 45.6539 37.6212C45.7282 37.4268 45.7371 37.2126 45.679 37.0125C45.6568 36.932 45.6252 36.8546 45.5848 36.7819C46.1923 36.7554 46.7665 36.5309 47.1538 35.9527C47.4112 35.5361 47.6212 35.0905 47.7795 34.6248C47.9553 34.1534 48.0954 33.6688 48.1987 33.1753C48.4103 32.1692 48.4702 31.1358 48.3765 30.1111C48.337 29.6888 48.3203 29.176 48.0939 28.805C47.8676 28.4341 47.4864 28.3889 47.1264 28.4606C47.3209 27.9359 47.4654 27.393 47.5578 26.8397C47.701 26.0128 47.7838 25.1761 47.8054 24.3366C47.8631 22.5583 47.7674 20.7721 47.6975 18.9953C47.6261 17.1827 47.5699 15.3654 47.4211 13.5574C47.2844 11.9131 47.0308 10.2844 46.4505 8.72585C45.4815 6.14016 43.7166 3.821 41.3654 2.42295C39.9635 1.59067 38.3945 1.17609 36.8195 0.845667C35.0876 0.483776 33.3347 0.237523 31.5718 0.108458C30.6863 0.0429979 29.7993 0.00247482 28.9123 0.00247482C28.0531 -0.0148468 27.1945 0.058796 26.35 0.222235C24.7248 0.569798 23.2819 1.48001 21.8466 2.29203C21.4562 2.51335 21.0659 2.73622 20.6816 2.97313C20.641 2.99586 20.6083 3.03108 20.5881 3.07385C20.568 3.11661 20.5613 3.16478 20.5692 3.21159C20.2882 3.2942 20.0103 3.37992 19.7414 3.47967C19.1368 3.68853 18.575 4.01033 18.0844 4.42884C17.576 4.90585 17.1371 5.45542 16.7812 6.06068C16.5625 6.4098 16.3559 6.76671 16.1463 7.12051L15.8 7.70342C15.683 7.90292 15.5312 8.09618 15.5099 8.32685C15.5086 8.34488 15.5112 8.36298 15.5175 8.37984C15.3747 8.55908 15.2395 8.73053 15.1104 8.92223C14.269 10.1597 13.7313 11.6451 13.3956 13.1039C12.6924 16.1603 12.8443 19.3382 13.3212 22.4149C13.4594 23.3095 13.625 24.201 13.8073 25.0878C13.8999 25.5445 13.9971 25.9996 14.0958 26.4547C14.1748 26.8225 14.2477 27.1981 14.3449 27.5613C14.2261 27.5635 14.1094 27.5939 14.004 27.6501C13.8986 27.7064 13.8073 27.7869 13.7374 27.8855C13.4898 28.2424 13.4427 28.7536 13.3789 29.1713C13.2247 30.1881 13.2247 31.2233 13.3789 32.2402C13.4518 32.7392 13.5625 33.2316 13.7101 33.713C13.8404 34.1882 14.0239 34.6464 14.2568 35.0783C14.6168 35.694 15.1909 35.9511 15.8152 36.0135C15.7232 36.2445 15.7066 36.4999 15.7681 36.7413C15.8108 36.9132 15.8978 37.0702 16.0199 37.1958C16.142 37.3214 16.2948 37.4109 16.4622 37.4552C16.5683 37.4831 16.6792 37.4859 16.7866 37.4635C16.8939 37.4411 16.9949 37.394 17.0819 37.3258C17.0879 37.3199 17.0934 37.3137 17.0986 37.3071C17.2313 38.2235 17.3664 39.1395 17.5042 40.0549C17.5765 40.63 17.7021 41.1968 17.8793 41.7475C18.0657 42.263 18.3213 42.7493 18.6387 43.1923C19.024 43.7296 19.46 44.2266 19.9404 44.6761C19.8797 45.4819 19.9404 46.3063 19.9404 47.1137C19.9463 47.9537 19.9011 48.7934 19.8052 49.6277C19.7212 50.4337 19.5433 51.2264 19.2751 51.9889C18.9926 52.7417 18.5157 53.2966 17.9553 53.8499C16.7918 55.0063 15.6031 56.1363 14.389 57.2398C13.2422 58.2809 12.0469 59.2659 10.8956 60.2946C9.86431 61.2188 8.82541 62.302 8.35456 63.6487C8.15695 63.9784 8.0845 64.3711 8.15104 64.7521L8.65681 64.7475ZM47.3102 28.8362C47.5229 28.8222 47.7066 28.8658 47.8069 29.07C47.8713 29.2216 47.9128 29.3824 47.9299 29.5469C47.998 29.9821 48.035 30.4217 48.0408 30.8624C48.0585 32.1876 47.8098 33.5023 47.3102 34.7245C47.1683 35.1341 46.9659 35.5188 46.7103 35.8654C46.203 36.4733 45.3509 36.4125 44.6613 36.241C44.6353 36.2357 44.6084 36.2357 44.5824 36.241C44.9742 34.2445 45.3327 32.2355 45.6015 30.2156C45.9053 29.8119 46.2258 29.335 46.6541 29.0591L46.6404 29.1043C46.6376 29.1234 46.6408 29.143 46.6496 29.1601C46.6584 29.1772 46.6724 29.191 46.6894 29.1993C46.7064 29.2077 46.7256 29.2103 46.7441 29.2066C46.7626 29.203 46.7795 29.1933 46.7923 29.1791C46.8424 29.0934 46.888 29.0045 46.932 28.9157C47.0535 28.8699 47.181 28.8431 47.3102 28.8362ZM14.3039 25.3528C14.152 24.5735 14.0002 23.7942 13.8589 23.0149C13.577 21.4571 13.4059 19.8804 13.347 18.2971C13.2605 15.3498 13.6827 12.2327 15.1104 9.62359C15.5223 8.89829 16.0248 8.23129 16.605 7.63952C17.2125 6.98959 17.8398 6.34434 18.455 5.69441C18.4694 5.67711 18.4771 5.65491 18.4766 5.63212C18.476 5.60932 18.4672 5.58756 18.4519 5.57105C18.4365 5.55454 18.4158 5.54447 18.3936 5.54278C18.3715 5.5411 18.3495 5.54792 18.3319 5.56193C17.7457 6.12302 17.1548 6.67943 16.5761 7.24987L16.5655 7.26078C16.7068 7.02232 16.8465 6.78386 16.9877 6.54851C17.3285 5.9364 17.7412 5.36952 18.2165 4.86057C19.1597 3.92542 20.4431 3.64644 21.6446 3.21783C22.3017 3.00368 22.913 2.66303 23.4459 2.2141C23.5431 2.12838 23.4095 1.99122 23.3123 2.06759C22.9515 2.34104 22.5546 2.5604 22.1336 2.71908C23.1771 2.11591 24.2145 1.49092 25.3354 1.06699C26.9241 0.456022 28.6283 0.4794 30.299 0.549537C32.0219 0.61797 33.7386 0.799657 35.4388 1.09348C37.0686 1.3787 38.7484 1.70444 40.2642 2.40425C42.6823 3.52643 44.5611 5.66012 45.6668 8.10709C47.0186 11.0996 46.9958 14.4723 47.1614 17.7002C47.254 19.4816 47.3421 21.2646 47.3953 23.0476C47.4454 24.6935 47.4211 26.3705 46.9852 27.9681C46.9305 28.166 46.8728 28.3655 46.812 28.5635C46.3551 28.7822 45.9665 29.127 45.6896 29.5594C46.0016 27.1539 46.1311 24.7272 46.0769 22.3011C46.2409 23.3048 46.3518 24.3163 46.6526 25.2889C46.7057 25.4572 46.9746 25.4525 46.9715 25.2546C46.9548 24.2852 46.7725 23.3329 46.6131 22.379C46.562 21.9371 46.4506 21.5048 46.282 21.0947C46.0992 20.7351 45.8512 20.4145 45.5514 20.1502C44.8878 19.5613 44.1764 19.0315 43.425 18.5667C42.6367 18.054 41.8302 17.5692 41.0297 17.0736C39.4471 16.0964 37.869 15.1067 36.2271 14.237C35.413 13.8068 34.5746 13.425 33.7681 12.9808C33.0316 12.5731 32.329 12.1039 31.6675 11.5781C30.9246 10.9869 30.2288 10.3359 29.5867 9.63138C29.2829 9.29473 28.9639 8.95652 28.6754 8.5996C28.4695 8.35422 28.3001 8.07903 28.1726 7.78291C28.1866 7.69731 28.1952 7.6109 28.1984 7.52418C28.2015 7.48429 28.1895 7.44473 28.1649 7.41369C28.1403 7.38264 28.105 7.36249 28.0663 7.35742C28.0612 7.32541 28.0576 7.29316 28.0557 7.26078C28.0557 7.2459 28.0499 7.23163 28.0396 7.22111C28.0294 7.21059 28.0155 7.20467 28.001 7.20467C27.9865 7.20467 27.9726 7.21059 27.9623 7.22111C27.9521 7.23163 27.9463 7.2459 27.9463 7.26078C27.9463 7.30442 27.9463 7.34806 27.9463 7.39015C27.9165 7.40914 27.8936 7.4376 27.881 7.47119C27.7747 7.75641 27.72 8.05566 27.6304 8.34711C27.5408 8.63857 27.442 8.89885 27.3266 9.16537C27.0881 9.71729 26.8046 10.2475 26.4791 10.7504C25.8138 11.7605 25.0658 12.7105 24.2433 13.5902C22.4509 15.5597 20.5422 17.4143 18.5279 19.1434C17.4115 20.1082 16.2177 20.981 15.1271 21.9785C15.1078 21.9969 15.0957 22.0219 15.0931 22.0489C15.0905 22.0759 15.0977 22.1029 15.1133 22.1248C15.1288 22.1467 15.1516 22.162 15.1774 22.1677C15.2032 22.1735 15.2302 22.1694 15.2532 22.1561C15.557 21.9676 15.8608 21.7649 16.1433 21.5545C15.9562 23.9767 15.9506 26.41 16.1266 28.8331C15.8228 28.3141 15.399 27.8403 14.8477 27.6423L14.7733 27.6205C14.7231 27.2558 14.632 26.8973 14.5545 26.5389C14.4695 26.143 14.3859 25.7476 14.3039 25.3528ZM16.4941 35.4352C16.3474 35.4427 16.2066 35.4972 16.0916 35.5911C15.5646 35.602 15.0375 35.4742 14.7034 35.0207C14.4695 34.6589 14.2907 34.2626 14.1733 33.8455C14.0338 33.4308 13.9217 33.0069 13.8376 32.5768C13.6686 31.705 13.6175 30.8134 13.6858 29.9272C13.7173 29.4877 13.7803 29.0512 13.8741 28.6211C13.9014 28.4583 13.9526 28.3006 14.026 28.1536C14.1399 27.9556 14.3297 27.9229 14.5363 27.9509C15.3246 28.0569 15.7757 28.8612 16.1797 29.4799C16.3316 31.5061 16.5731 33.5166 16.8465 35.521C16.7394 35.4585 16.6171 35.4287 16.4941 35.4352ZM19.3253 43.331C18.9831 42.9323 18.6921 42.4902 18.4595 42.0156C18.2298 41.4923 18.0738 40.9381 17.9963 40.3697C17.7912 39.1758 17.6272 37.9726 17.4525 36.7725C17.0971 34.3458 16.7706 31.9129 16.5549 29.4674C16.3056 26.8037 16.2148 24.1268 16.283 21.4517C17.012 20.9108 17.7092 20.317 18.4003 19.7372C19.428 18.8686 20.43 17.9682 21.4061 17.0362C22.3822 16.1042 23.3366 15.129 24.2692 14.1107C25.1134 13.2182 25.8922 12.2628 26.5991 11.2523C26.9845 10.6905 27.321 10.0949 27.6046 9.47241C27.7448 9.16314 27.8685 8.84628 27.9752 8.52323C28.0177 8.39387 28.0587 8.26295 28.0952 8.13203C28.3081 8.56912 28.5773 8.97486 28.8956 9.33837C29.426 10.0042 30.0032 10.6293 30.6225 11.2087C31.2266 11.7809 31.8747 12.3021 32.5606 12.7672C33.3108 13.2496 34.0889 13.6847 34.8905 14.0702C36.5613 14.9087 38.1545 15.8641 39.7402 16.8492C41.3259 17.8342 42.9435 18.7491 44.4244 19.8744C44.8036 20.1431 45.1548 20.4513 45.4724 20.7939C45.7799 21.1582 45.9768 21.6068 46.0389 22.0844V22.1187C46.0309 22.113 46.0216 22.1097 46.0118 22.1091C46.0021 22.1084 45.9924 22.1106 45.9838 22.1152C45.9751 22.1199 45.9679 22.1269 45.9629 22.1355C45.9579 22.1441 45.9553 22.1539 45.9554 22.1639C45.8697 24.9118 45.616 27.6515 45.196 30.3667C44.836 32.795 44.3652 35.1983 43.867 37.6032C43.6209 38.7893 43.3855 39.9801 43.1075 41.1583C42.9933 41.7177 42.8026 42.2576 42.541 42.7621C42.2802 43.2219 41.9632 43.6456 41.5978 44.023C40.8384 44.8226 39.9589 45.4741 39.0674 46.0944C38.1059 46.763 37.1399 47.4207 36.1816 48.0831C35.2702 48.7066 34.3711 49.3783 33.3777 49.863C32.4664 50.3119 31.4351 50.5878 30.4312 50.3212C30.3752 50.3061 30.3159 50.3105 30.2626 50.3337C30.2112 50.3062 30.1519 50.2985 30.0955 50.3119C29.0779 50.5145 28.0709 50.1747 27.1808 49.6698C26.2194 49.1227 25.3582 48.4011 24.4879 47.7169C23.5659 46.9952 22.6394 46.2783 21.7205 45.552C20.8821 44.8756 20.0315 44.1711 19.3253 43.331Z"/>
</mask>
<path d="M8.65681 64.7475C8.61171 64.5959 8.58918 64.4383 8.58999 64.2799C8.62125 64.2651 8.64899 64.2435 8.67129 64.2166C8.69358 64.1897 8.70989 64.1581 8.71909 64.124C9.15044 62.7852 10.0451 61.7519 11.0551 60.8261C12.2018 59.774 13.4124 58.7999 14.5652 57.751C15.8005 56.6351 17.006 55.4869 18.1816 54.3065C18.7177 53.7673 19.2341 53.228 19.5485 52.522C19.8574 51.7893 20.0654 51.0161 20.1667 50.2246C20.3062 49.2845 20.3687 48.3341 20.3535 47.3833C20.3535 46.9033 20.3308 46.4264 20.3019 45.9479C20.2806 45.6112 20.2624 45.273 20.2214 44.9379C20.4553 45.1457 20.6933 45.3535 20.9353 45.5613C21.8587 46.3313 22.8095 47.0654 23.7512 47.8135C24.7461 48.6052 25.7257 49.45 26.8239 50.0875C27.8643 50.6937 29.0293 51.0818 30.2261 50.8418L30.255 50.8325L30.2853 50.8434C31.4655 51.1551 32.6502 50.8434 33.7256 50.3025C34.8571 49.7352 35.8884 48.9544 36.9288 48.2265C37.4483 47.8618 37.9708 47.5018 38.4917 47.1355C38.4522 47.3007 38.4249 47.4706 38.39 47.6265C38.3171 47.9662 38.2472 48.307 38.1804 48.6489C38.0437 49.3331 37.9237 50.022 37.8022 50.7093L37.0731 54.7975C37.0048 55.1793 36.9379 55.5612 36.8696 55.943C36.8347 56.1348 36.8012 56.3249 36.7663 56.5166C36.7314 56.7083 36.6843 56.8766 36.7663 57.059C36.7797 57.0837 36.7984 57.1049 36.8209 57.1211C36.8435 57.1374 36.8693 57.1481 36.8965 57.1526C36.9237 57.1571 36.9515 57.1552 36.9779 57.1471C37.0043 57.139 37.0285 57.1249 37.0488 57.1057C37.147 56.9932 37.2049 56.8497 37.2129 56.699C37.2432 56.5197 37.2736 56.3405 37.3025 56.1628C37.3222 56.0521 37.3404 55.9415 37.3587 55.8308C37.4756 56.6195 38.0832 57.2335 38.7363 57.6746C39.1798 57.9723 39.6582 58.2201 40.123 58.4789C40.6181 58.7532 41.1148 59.0238 41.613 59.2909C42.6114 59.8239 43.6179 60.3403 44.6325 60.8401C45.5438 61.2905 46.607 61.6584 47.3224 62.4236C47.6703 62.8073 47.9545 63.247 48.1638 63.725C48.2944 64.0118 48.3992 64.3079 48.5056 64.6056C48.4978 64.6524 48.5031 64.7005 48.5207 64.7443H49.1754C49.1409 64.665 49.0981 64.5898 49.0478 64.5199C48.8435 63.7757 48.5079 63.0762 48.0575 62.4563C47.7766 62.069 47.4323 61.7347 47.0399 61.4682C46.6021 61.1926 46.1452 60.9504 45.6729 60.7435C43.6589 59.774 41.6742 58.7407 39.719 57.6435C38.8077 57.1322 37.7141 56.4776 37.5774 55.3056C37.5766 55.2909 37.5726 55.2767 37.5657 55.2638C37.5587 55.251 37.5491 55.24 37.5373 55.2316C37.5256 55.2232 37.5122 55.2176 37.4981 55.2153C37.484 55.213 37.4695 55.214 37.4559 55.2183L37.4711 55.131C37.5865 54.44 37.7024 53.7501 37.8189 53.0612C38.0497 51.6949 38.2776 50.3275 38.5024 48.959C38.5631 48.585 38.6132 48.2094 38.6649 47.8338C38.7213 47.5369 38.7573 47.2364 38.7727 46.9344C39.1388 46.6773 39.5033 46.4186 39.8633 46.1552C40.7457 45.5068 41.6084 44.8008 42.3041 43.9295C42.647 43.5071 42.9308 43.0376 43.147 42.5346C43.356 41.9958 43.5147 41.438 43.6209 40.8685C43.8336 39.8678 44.0427 38.8652 44.2482 37.8604C44.3499 38.013 44.5012 38.1234 44.675 38.1721C44.8766 38.2213 45.0889 38.1901 45.2689 38.0848C45.4441 37.9787 45.5796 37.8155 45.6539 37.6212C45.7282 37.4268 45.7371 37.2126 45.679 37.0125C45.6568 36.932 45.6252 36.8546 45.5848 36.7819C46.1923 36.7554 46.7665 36.5309 47.1538 35.9527C47.4112 35.5361 47.6212 35.0905 47.7795 34.6248C47.9553 34.1534 48.0954 33.6688 48.1987 33.1753C48.4103 32.1692 48.4702 31.1358 48.3765 30.1111C48.337 29.6888 48.3203 29.176 48.0939 28.805C47.8676 28.4341 47.4864 28.3889 47.1264 28.4606C47.3209 27.9359 47.4654 27.393 47.5578 26.8397C47.701 26.0128 47.7838 25.1761 47.8054 24.3366C47.8631 22.5583 47.7674 20.7721 47.6975 18.9953C47.6261 17.1827 47.5699 15.3654 47.4211 13.5574C47.2844 11.9131 47.0308 10.2844 46.4505 8.72585C45.4815 6.14016 43.7166 3.821 41.3654 2.42295C39.9635 1.59067 38.3945 1.17609 36.8195 0.845667C35.0876 0.483776 33.3347 0.237523 31.5718 0.108458C30.6863 0.0429979 29.7993 0.00247482 28.9123 0.00247482C28.0531 -0.0148468 27.1945 0.058796 26.35 0.222235C24.7248 0.569798 23.2819 1.48001 21.8466 2.29203C21.4562 2.51335 21.0659 2.73622 20.6816 2.97313C20.641 2.99586 20.6083 3.03108 20.5881 3.07385C20.568 3.11661 20.5613 3.16478 20.5692 3.21159C20.2882 3.2942 20.0103 3.37992 19.7414 3.47967C19.1368 3.68853 18.575 4.01033 18.0844 4.42884C17.576 4.90585 17.1371 5.45542 16.7812 6.06068C16.5625 6.4098 16.3559 6.76671 16.1463 7.12051L15.8 7.70342C15.683 7.90292 15.5312 8.09618 15.5099 8.32685C15.5086 8.34488 15.5112 8.36298 15.5175 8.37984C15.3747 8.55908 15.2395 8.73053 15.1104 8.92223C14.269 10.1597 13.7313 11.6451 13.3956 13.1039C12.6924 16.1603 12.8443 19.3382 13.3212 22.4149C13.4594 23.3095 13.625 24.201 13.8073 25.0878C13.8999 25.5445 13.9971 25.9996 14.0958 26.4547C14.1748 26.8225 14.2477 27.1981 14.3449 27.5613C14.2261 27.5635 14.1094 27.5939 14.004 27.6501C13.8986 27.7064 13.8073 27.7869 13.7374 27.8855C13.4898 28.2424 13.4427 28.7536 13.3789 29.1713C13.2247 30.1881 13.2247 31.2233 13.3789 32.2402C13.4518 32.7392 13.5625 33.2316 13.7101 33.713C13.8404 34.1882 14.0239 34.6464 14.2568 35.0783C14.6168 35.694 15.1909 35.9511 15.8152 36.0135C15.7232 36.2445 15.7066 36.4999 15.7681 36.7413C15.8108 36.9132 15.8978 37.0702 16.0199 37.1958C16.142 37.3214 16.2948 37.4109 16.4622 37.4552C16.5683 37.4831 16.6792 37.4859 16.7866 37.4635C16.8939 37.4411 16.9949 37.394 17.0819 37.3258C17.0879 37.3199 17.0934 37.3137 17.0986 37.3071C17.2313 38.2235 17.3664 39.1395 17.5042 40.0549C17.5765 40.63 17.7021 41.1968 17.8793 41.7475C18.0657 42.263 18.3213 42.7493 18.6387 43.1923C19.024 43.7296 19.46 44.2266 19.9404 44.6761C19.8797 45.4819 19.9404 46.3063 19.9404 47.1137C19.9463 47.9537 19.9011 48.7934 19.8052 49.6277C19.7212 50.4337 19.5433 51.2264 19.2751 51.9889C18.9926 52.7417 18.5157 53.2966 17.9553 53.8499C16.7918 55.0063 15.6031 56.1363 14.389 57.2398C13.2422 58.2809 12.0469 59.2659 10.8956 60.2946C9.86431 61.2188 8.82541 62.302 8.35456 63.6487C8.15695 63.9784 8.0845 64.3711 8.15104 64.7521L8.65681 64.7475ZM47.3102 28.8362C47.5229 28.8222 47.7066 28.8658 47.8069 29.07C47.8713 29.2216 47.9128 29.3824 47.9299 29.5469C47.998 29.9821 48.035 30.4217 48.0408 30.8624C48.0585 32.1876 47.8098 33.5023 47.3102 34.7245C47.1683 35.1341 46.9659 35.5188 46.7103 35.8654C46.203 36.4733 45.3509 36.4125 44.6613 36.241C44.6353 36.2357 44.6084 36.2357 44.5824 36.241C44.9742 34.2445 45.3327 32.2355 45.6015 30.2156C45.9053 29.8119 46.2258 29.335 46.6541 29.0591L46.6404 29.1043C46.6376 29.1234 46.6408 29.143 46.6496 29.1601C46.6584 29.1772 46.6724 29.191 46.6894 29.1993C46.7064 29.2077 46.7256 29.2103 46.7441 29.2066C46.7626 29.203 46.7795 29.1933 46.7923 29.1791C46.8424 29.0934 46.888 29.0045 46.932 28.9157C47.0535 28.8699 47.181 28.8431 47.3102 28.8362ZM14.3039 25.3528C14.152 24.5735 14.0002 23.7942 13.8589 23.0149C13.577 21.4571 13.4059 19.8804 13.347 18.2971C13.2605 15.3498 13.6827 12.2327 15.1104 9.62359C15.5223 8.89829 16.0248 8.23129 16.605 7.63952C17.2125 6.98959 17.8398 6.34434 18.455 5.69441C18.4694 5.67711 18.4771 5.65491 18.4766 5.63212C18.476 5.60932 18.4672 5.58756 18.4519 5.57105C18.4365 5.55454 18.4158 5.54447 18.3936 5.54278C18.3715 5.5411 18.3495 5.54792 18.3319 5.56193C17.7457 6.12302 17.1548 6.67943 16.5761 7.24987L16.5655 7.26078C16.7068 7.02232 16.8465 6.78386 16.9877 6.54851C17.3285 5.9364 17.7412 5.36952 18.2165 4.86057C19.1597 3.92542 20.4431 3.64644 21.6446 3.21783C22.3017 3.00368 22.913 2.66303 23.4459 2.2141C23.5431 2.12838 23.4095 1.99122 23.3123 2.06759C22.9515 2.34104 22.5546 2.5604 22.1336 2.71908C23.1771 2.11591 24.2145 1.49092 25.3354 1.06699C26.9241 0.456022 28.6283 0.4794 30.299 0.549537C32.0219 0.61797 33.7386 0.799657 35.4388 1.09348C37.0686 1.3787 38.7484 1.70444 40.2642 2.40425C42.6823 3.52643 44.5611 5.66012 45.6668 8.10709C47.0186 11.0996 46.9958 14.4723 47.1614 17.7002C47.254 19.4816 47.3421 21.2646 47.3953 23.0476C47.4454 24.6935 47.4211 26.3705 46.9852 27.9681C46.9305 28.166 46.8728 28.3655 46.812 28.5635C46.3551 28.7822 45.9665 29.127 45.6896 29.5594C46.0016 27.1539 46.1311 24.7272 46.0769 22.3011C46.2409 23.3048 46.3518 24.3163 46.6526 25.2889C46.7057 25.4572 46.9746 25.4525 46.9715 25.2546C46.9548 24.2852 46.7725 23.3329 46.6131 22.379C46.562 21.9371 46.4506 21.5048 46.282 21.0947C46.0992 20.7351 45.8512 20.4145 45.5514 20.1502C44.8878 19.5613 44.1764 19.0315 43.425 18.5667C42.6367 18.054 41.8302 17.5692 41.0297 17.0736C39.4471 16.0964 37.869 15.1067 36.2271 14.237C35.413 13.8068 34.5746 13.425 33.7681 12.9808C33.0316 12.5731 32.329 12.1039 31.6675 11.5781C30.9246 10.9869 30.2288 10.3359 29.5867 9.63138C29.2829 9.29473 28.9639 8.95652 28.6754 8.5996C28.4695 8.35422 28.3001 8.07903 28.1726 7.78291C28.1866 7.69731 28.1952 7.6109 28.1984 7.52418C28.2015 7.48429 28.1895 7.44473 28.1649 7.41369C28.1403 7.38264 28.105 7.36249 28.0663 7.35742C28.0612 7.32541 28.0576 7.29316 28.0557 7.26078C28.0557 7.2459 28.0499 7.23163 28.0396 7.22111C28.0294 7.21059 28.0155 7.20467 28.001 7.20467C27.9865 7.20467 27.9726 7.21059 27.9623 7.22111C27.9521 7.23163 27.9463 7.2459 27.9463 7.26078C27.9463 7.30442 27.9463 7.34806 27.9463 7.39015C27.9165 7.40914 27.8936 7.4376 27.881 7.47119C27.7747 7.75641 27.72 8.05566 27.6304 8.34711C27.5408 8.63857 27.442 8.89885 27.3266 9.16537C27.0881 9.71729 26.8046 10.2475 26.4791 10.7504C25.8138 11.7605 25.0658 12.7105 24.2433 13.5902C22.4509 15.5597 20.5422 17.4143 18.5279 19.1434C17.4115 20.1082 16.2177 20.981 15.1271 21.9785C15.1078 21.9969 15.0957 22.0219 15.0931 22.0489C15.0905 22.0759 15.0977 22.1029 15.1133 22.1248C15.1288 22.1467 15.1516 22.162 15.1774 22.1677C15.2032 22.1735 15.2302 22.1694 15.2532 22.1561C15.557 21.9676 15.8608 21.7649 16.1433 21.5545C15.9562 23.9767 15.9506 26.41 16.1266 28.8331C15.8228 28.3141 15.399 27.8403 14.8477 27.6423L14.7733 27.6205C14.7231 27.2558 14.632 26.8973 14.5545 26.5389C14.4695 26.143 14.3859 25.7476 14.3039 25.3528ZM16.4941 35.4352C16.3474 35.4427 16.2066 35.4972 16.0916 35.5911C15.5646 35.602 15.0375 35.4742 14.7034 35.0207C14.4695 34.6589 14.2907 34.2626 14.1733 33.8455C14.0338 33.4308 13.9217 33.0069 13.8376 32.5768C13.6686 31.705 13.6175 30.8134 13.6858 29.9272C13.7173 29.4877 13.7803 29.0512 13.8741 28.6211C13.9014 28.4583 13.9526 28.3006 14.026 28.1536C14.1399 27.9556 14.3297 27.9229 14.5363 27.9509C15.3246 28.0569 15.7757 28.8612 16.1797 29.4799C16.3316 31.5061 16.5731 33.5166 16.8465 35.521C16.7394 35.4585 16.6171 35.4287 16.4941 35.4352ZM19.3253 43.331C18.9831 42.9323 18.6921 42.4902 18.4595 42.0156C18.2298 41.4923 18.0738 40.9381 17.9963 40.3697C17.7912 39.1758 17.6272 37.9726 17.4525 36.7725C17.0971 34.3458 16.7706 31.9129 16.5549 29.4674C16.3056 26.8037 16.2148 24.1268 16.283 21.4517C17.012 20.9108 17.7092 20.317 18.4003 19.7372C19.428 18.8686 20.43 17.9682 21.4061 17.0362C22.3822 16.1042 23.3366 15.129 24.2692 14.1107C25.1134 13.2182 25.8922 12.2628 26.5991 11.2523C26.9845 10.6905 27.321 10.0949 27.6046 9.47241C27.7448 9.16314 27.8685 8.84628 27.9752 8.52323C28.0177 8.39387 28.0587 8.26295 28.0952 8.13203C28.3081 8.56912 28.5773 8.97486 28.8956 9.33837C29.426 10.0042 30.0032 10.6293 30.6225 11.2087C31.2266 11.7809 31.8747 12.3021 32.5606 12.7672C33.3108 13.2496 34.0889 13.6847 34.8905 14.0702C36.5613 14.9087 38.1545 15.8641 39.7402 16.8492C41.3259 17.8342 42.9435 18.7491 44.4244 19.8744C44.8036 20.1431 45.1548 20.4513 45.4724 20.7939C45.7799 21.1582 45.9768 21.6068 46.0389 22.0844V22.1187C46.0309 22.113 46.0216 22.1097 46.0118 22.1091C46.0021 22.1084 45.9924 22.1106 45.9838 22.1152C45.9751 22.1199 45.9679 22.1269 45.9629 22.1355C45.9579 22.1441 45.9553 22.1539 45.9554 22.1639C45.8697 24.9118 45.616 27.6515 45.196 30.3667C44.836 32.795 44.3652 35.1983 43.867 37.6032C43.6209 38.7893 43.3855 39.9801 43.1075 41.1583C42.9933 41.7177 42.8026 42.2576 42.541 42.7621C42.2802 43.2219 41.9632 43.6456 41.5978 44.023C40.8384 44.8226 39.9589 45.4741 39.0674 46.0944C38.1059 46.763 37.1399 47.4207 36.1816 48.0831C35.2702 48.7066 34.3711 49.3783 33.3777 49.863C32.4664 50.3119 31.4351 50.5878 30.4312 50.3212C30.3752 50.3061 30.3159 50.3105 30.2626 50.3337C30.2112 50.3062 30.1519 50.2985 30.0955 50.3119C29.0779 50.5145 28.0709 50.1747 27.1808 49.6698C26.2194 49.1227 25.3582 48.4011 24.4879 47.7169C23.5659 46.9952 22.6394 46.2783 21.7205 45.552C20.8821 44.8756 20.0315 44.1711 19.3253 43.331Z" fill="#2C51A2"/>
<path d="M8.65681 64.7475C8.61171 64.5959 8.58918 64.4383 8.58999 64.2799C8.62125 64.2651 8.64899 64.2435 8.67129 64.2166C8.69358 64.1897 8.70989 64.1581 8.71909 64.124C9.15044 62.7852 10.0451 61.7519 11.0551 60.8261C12.2018 59.774 13.4124 58.7999 14.5652 57.751C15.8005 56.6351 17.006 55.4869 18.1816 54.3065C18.7177 53.7673 19.2341 53.228 19.5485 52.522C19.8574 51.7893 20.0654 51.0161 20.1667 50.2246C20.3062 49.2845 20.3687 48.3341 20.3535 47.3833C20.3535 46.9033 20.3308 46.4264 20.3019 45.9479C20.2806 45.6112 20.2624 45.273 20.2214 44.9379C20.4553 45.1457 20.6933 45.3535 20.9353 45.5613C21.8587 46.3313 22.8095 47.0654 23.7512 47.8135C24.7461 48.6052 25.7257 49.45 26.8239 50.0875C27.8643 50.6937 29.0293 51.0818 30.2261 50.8418L30.255 50.8325L30.2853 50.8434C31.4655 51.1551 32.6502 50.8434 33.7256 50.3025C34.8571 49.7352 35.8884 48.9544 36.9288 48.2265C37.4483 47.8618 37.9708 47.5018 38.4917 47.1355C38.4522 47.3007 38.4249 47.4706 38.39 47.6265C38.3171 47.9662 38.2472 48.307 38.1804 48.6489C38.0437 49.3331 37.9237 50.022 37.8022 50.7093L37.0731 54.7975C37.0048 55.1793 36.9379 55.5612 36.8696 55.943C36.8347 56.1348 36.8012 56.3249 36.7663 56.5166C36.7314 56.7083 36.6843 56.8766 36.7663 57.059C36.7797 57.0837 36.7984 57.1049 36.8209 57.1211C36.8435 57.1374 36.8693 57.1481 36.8965 57.1526C36.9237 57.1571 36.9515 57.1552 36.9779 57.1471C37.0043 57.139 37.0285 57.1249 37.0488 57.1057C37.147 56.9932 37.2049 56.8497 37.2129 56.699C37.2432 56.5197 37.2736 56.3405 37.3025 56.1628C37.3222 56.0521 37.3404 55.9415 37.3587 55.8308C37.4756 56.6195 38.0832 57.2335 38.7363 57.6746C39.1798 57.9723 39.6582 58.2201 40.123 58.4789C40.6181 58.7532 41.1148 59.0238 41.613 59.2909C42.6114 59.8239 43.6179 60.3403 44.6325 60.8401C45.5438 61.2905 46.607 61.6584 47.3224 62.4236C47.6703 62.8073 47.9545 63.247 48.1638 63.725C48.2944 64.0118 48.3992 64.3079 48.5056 64.6056C48.4978 64.6524 48.5031 64.7005 48.5207 64.7443H49.1754C49.1409 64.665 49.0981 64.5898 49.0478 64.5199C48.8435 63.7757 48.5079 63.0762 48.0575 62.4563C47.7766 62.069 47.4323 61.7347 47.0399 61.4682C46.6021 61.1926 46.1452 60.9504 45.6729 60.7435C43.6589 59.774 41.6742 58.7407 39.719 57.6435C38.8077 57.1322 37.7141 56.4776 37.5774 55.3056C37.5766 55.2909 37.5726 55.2767 37.5657 55.2638C37.5587 55.251 37.5491 55.24 37.5373 55.2316C37.5256 55.2232 37.5122 55.2176 37.4981 55.2153C37.484 55.213 37.4695 55.214 37.4559 55.2183L37.4711 55.131C37.5865 54.44 37.7024 53.7501 37.8189 53.0612C38.0497 51.6949 38.2776 50.3275 38.5024 48.959C38.5631 48.585 38.6132 48.2094 38.6649 47.8338C38.7213 47.5369 38.7573 47.2364 38.7727 46.9344C39.1388 46.6773 39.5033 46.4186 39.8633 46.1552C40.7457 45.5068 41.6084 44.8008 42.3041 43.9295C42.647 43.5071 42.9308 43.0376 43.147 42.5346C43.356 41.9958 43.5147 41.438 43.6209 40.8685C43.8336 39.8678 44.0427 38.8652 44.2482 37.8604C44.3499 38.013 44.5012 38.1234 44.675 38.1721C44.8766 38.2213 45.0889 38.1901 45.2689 38.0848C45.4441 37.9787 45.5796 37.8155 45.6539 37.6212C45.7282 37.4268 45.7371 37.2126 45.679 37.0125C45.6568 36.932 45.6252 36.8546 45.5848 36.7819C46.1923 36.7554 46.7665 36.5309 47.1538 35.9527C47.4112 35.5361 47.6212 35.0905 47.7795 34.6248C47.9553 34.1534 48.0954 33.6688 48.1987 33.1753C48.4103 32.1692 48.4702 31.1358 48.3765 30.1111C48.337 29.6888 48.3203 29.176 48.0939 28.805C47.8676 28.4341 47.4864 28.3889 47.1264 28.4606C47.3209 27.9359 47.4654 27.393 47.5578 26.8397C47.701 26.0128 47.7838 25.1761 47.8054 24.3366C47.8631 22.5583 47.7674 20.7721 47.6975 18.9953C47.6261 17.1827 47.5699 15.3654 47.4211 13.5574C47.2844 11.9131 47.0308 10.2844 46.4505 8.72585C45.4815 6.14016 43.7166 3.821 41.3654 2.42295C39.9635 1.59067 38.3945 1.17609 36.8195 0.845667C35.0876 0.483776 33.3347 0.237523 31.5718 0.108458C30.6863 0.0429979 29.7993 0.00247482 28.9123 0.00247482C28.0531 -0.0148468 27.1945 0.058796 26.35 0.222235C24.7248 0.569798 23.2819 1.48001 21.8466 2.29203C21.4562 2.51335 21.0659 2.73622 20.6816 2.97313C20.641 2.99586 20.6083 3.03108 20.5881 3.07385C20.568 3.11661 20.5613 3.16478 20.5692 3.21159C20.2882 3.2942 20.0103 3.37992 19.7414 3.47967C19.1368 3.68853 18.575 4.01033 18.0844 4.42884C17.576 4.90585 17.1371 5.45542 16.7812 6.06068C16.5625 6.4098 16.3559 6.76671 16.1463 7.12051L15.8 7.70342C15.683 7.90292 15.5312 8.09618 15.5099 8.32685C15.5086 8.34488 15.5112 8.36298 15.5175 8.37984C15.3747 8.55908 15.2395 8.73053 15.1104 8.92223C14.269 10.1597 13.7313 11.6451 13.3956 13.1039C12.6924 16.1603 12.8443 19.3382 13.3212 22.4149C13.4594 23.3095 13.625 24.201 13.8073 25.0878C13.8999 25.5445 13.9971 25.9996 14.0958 26.4547C14.1748 26.8225 14.2477 27.1981 14.3449 27.5613C14.2261 27.5635 14.1094 27.5939 14.004 27.6501C13.8986 27.7064 13.8073 27.7869 13.7374 27.8855C13.4898 28.2424 13.4427 28.7536 13.3789 29.1713C13.2247 30.1881 13.2247 31.2233 13.3789 32.2402C13.4518 32.7392 13.5625 33.2316 13.7101 33.713C13.8404 34.1882 14.0239 34.6464 14.2568 35.0783C14.6168 35.694 15.1909 35.9511 15.8152 36.0135C15.7232 36.2445 15.7066 36.4999 15.7681 36.7413C15.8108 36.9132 15.8978 37.0702 16.0199 37.1958C16.142 37.3214 16.2948 37.4109 16.4622 37.4552C16.5683 37.4831 16.6792 37.4859 16.7866 37.4635C16.8939 37.4411 16.9949 37.394 17.0819 37.3258C17.0879 37.3199 17.0934 37.3137 17.0986 37.3071C17.2313 38.2235 17.3664 39.1395 17.5042 40.0549C17.5765 40.63 17.7021 41.1968 17.8793 41.7475C18.0657 42.263 18.3213 42.7493 18.6387 43.1923C19.024 43.7296 19.46 44.2266 19.9404 44.6761C19.8797 45.4819 19.9404 46.3063 19.9404 47.1137C19.9463 47.9537 19.9011 48.7934 19.8052 49.6277C19.7212 50.4337 19.5433 51.2264 19.2751 51.9889C18.9926 52.7417 18.5157 53.2966 17.9553 53.8499C16.7918 55.0063 15.6031 56.1363 14.389 57.2398C13.2422 58.2809 12.0469 59.2659 10.8956 60.2946C9.86431 61.2188 8.82541 62.302 8.35456 63.6487C8.15695 63.9784 8.0845 64.3711 8.15104 64.7521L8.65681 64.7475ZM47.3102 28.8362C47.5229 28.8222 47.7066 28.8658 47.8069 29.07C47.8713 29.2216 47.9128 29.3824 47.9299 29.5469C47.998 29.9821 48.035 30.4217 48.0408 30.8624C48.0585 32.1876 47.8098 33.5023 47.3102 34.7245C47.1683 35.1341 46.9659 35.5188 46.7103 35.8654C46.203 36.4733 45.3509 36.4125 44.6613 36.241C44.6353 36.2357 44.6084 36.2357 44.5824 36.241C44.9742 34.2445 45.3327 32.2355 45.6015 30.2156C45.9053 29.8119 46.2258 29.335 46.6541 29.0591L46.6404 29.1043C46.6376 29.1234 46.6408 29.143 46.6496 29.1601C46.6584 29.1772 46.6724 29.191 46.6894 29.1993C46.7064 29.2077 46.7256 29.2103 46.7441 29.2066C46.7626 29.203 46.7795 29.1933 46.7923 29.1791C46.8424 29.0934 46.888 29.0045 46.932 28.9157C47.0535 28.8699 47.181 28.8431 47.3102 28.8362ZM14.3039 25.3528C14.152 24.5735 14.0002 23.7942 13.8589 23.0149C13.577 21.4571 13.4059 19.8804 13.347 18.2971C13.2605 15.3498 13.6827 12.2327 15.1104 9.62359C15.5223 8.89829 16.0248 8.23129 16.605 7.63952C17.2125 6.98959 17.8398 6.34434 18.455 5.69441C18.4694 5.67711 18.4771 5.65491 18.4766 5.63212C18.476 5.60932 18.4672 5.58756 18.4519 5.57105C18.4365 5.55454 18.4158 5.54447 18.3936 5.54278C18.3715 5.5411 18.3495 5.54792 18.3319 5.56193C17.7457 6.12302 17.1548 6.67943 16.5761 7.24987L16.5655 7.26078C16.7068 7.02232 16.8465 6.78386 16.9877 6.54851C17.3285 5.9364 17.7412 5.36952 18.2165 4.86057C19.1597 3.92542 20.4431 3.64644 21.6446 3.21783C22.3017 3.00368 22.913 2.66303 23.4459 2.2141C23.5431 2.12838 23.4095 1.99122 23.3123 2.06759C22.9515 2.34104 22.5546 2.5604 22.1336 2.71908C23.1771 2.11591 24.2145 1.49092 25.3354 1.06699C26.9241 0.456022 28.6283 0.4794 30.299 0.549537C32.0219 0.61797 33.7386 0.799657 35.4388 1.09348C37.0686 1.3787 38.7484 1.70444 40.2642 2.40425C42.6823 3.52643 44.5611 5.66012 45.6668 8.10709C47.0186 11.0996 46.9958 14.4723 47.1614 17.7002C47.254 19.4816 47.3421 21.2646 47.3953 23.0476C47.4454 24.6935 47.4211 26.3705 46.9852 27.9681C46.9305 28.166 46.8728 28.3655 46.812 28.5635C46.3551 28.7822 45.9665 29.127 45.6896 29.5594C46.0016 27.1539 46.1311 24.7272 46.0769 22.3011C46.2409 23.3048 46.3518 24.3163 46.6526 25.2889C46.7057 25.4572 46.9746 25.4525 46.9715 25.2546C46.9548 24.2852 46.7725 23.3329 46.6131 22.379C46.562 21.9371 46.4506 21.5048 46.282 21.0947C46.0992 20.7351 45.8512 20.4145 45.5514 20.1502C44.8878 19.5613 44.1764 19.0315 43.425 18.5667C42.6367 18.054 41.8302 17.5692 41.0297 17.0736C39.4471 16.0964 37.869 15.1067 36.2271 14.237C35.413 13.8068 34.5746 13.425 33.7681 12.9808C33.0316 12.5731 32.329 12.1039 31.6675 11.5781C30.9246 10.9869 30.2288 10.3359 29.5867 9.63138C29.2829 9.29473 28.9639 8.95652 28.6754 8.5996C28.4695 8.35422 28.3001 8.07903 28.1726 7.78291C28.1866 7.69731 28.1952 7.6109 28.1984 7.52418C28.2015 7.48429 28.1895 7.44473 28.1649 7.41369C28.1403 7.38264 28.105 7.36249 28.0663 7.35742C28.0612 7.32541 28.0576 7.29316 28.0557 7.26078C28.0557 7.2459 28.0499 7.23163 28.0396 7.22111C28.0294 7.21059 28.0155 7.20467 28.001 7.20467C27.9865 7.20467 27.9726 7.21059 27.9623 7.22111C27.9521 7.23163 27.9463 7.2459 27.9463 7.26078C27.9463 7.30442 27.9463 7.34806 27.9463 7.39015C27.9165 7.40914 27.8936 7.4376 27.881 7.47119C27.7747 7.75641 27.72 8.05566 27.6304 8.34711C27.5408 8.63857 27.442 8.89885 27.3266 9.16537C27.0881 9.71729 26.8046 10.2475 26.4791 10.7504C25.8138 11.7605 25.0658 12.7105 24.2433 13.5902C22.4509 15.5597 20.5422 17.4143 18.5279 19.1434C17.4115 20.1082 16.2177 20.981 15.1271 21.9785C15.1078 21.9969 15.0957 22.0219 15.0931 22.0489C15.0905 22.0759 15.0977 22.1029 15.1133 22.1248C15.1288 22.1467 15.1516 22.162 15.1774 22.1677C15.2032 22.1735 15.2302 22.1694 15.2532 22.1561C15.557 21.9676 15.8608 21.7649 16.1433 21.5545C15.9562 23.9767 15.9506 26.41 16.1266 28.8331C15.8228 28.3141 15.399 27.8403 14.8477 27.6423L14.7733 27.6205C14.7231 27.2558 14.632 26.8973 14.5545 26.5389C14.4695 26.143 14.3859 25.7476 14.3039 25.3528ZM16.4941 35.4352C16.3474 35.4427 16.2066 35.4972 16.0916 35.5911C15.5646 35.602 15.0375 35.4742 14.7034 35.0207C14.4695 34.6589 14.2907 34.2626 14.1733 33.8455C14.0338 33.4308 13.9217 33.0069 13.8376 32.5768C13.6686 31.705 13.6175 30.8134 13.6858 29.9272C13.7173 29.4877 13.7803 29.0512 13.8741 28.6211C13.9014 28.4583 13.9526 28.3006 14.026 28.1536C14.1399 27.9556 14.3297 27.9229 14.5363 27.9509C15.3246 28.0569 15.7757 28.8612 16.1797 29.4799C16.3316 31.5061 16.5731 33.5166 16.8465 35.521C16.7394 35.4585 16.6171 35.4287 16.4941 35.4352ZM19.3253 43.331C18.9831 42.9323 18.6921 42.4902 18.4595 42.0156C18.2298 41.4923 18.0738 40.9381 17.9963 40.3697C17.7912 39.1758 17.6272 37.9726 17.4525 36.7725C17.0971 34.3458 16.7706 31.9129 16.5549 29.4674C16.3056 26.8037 16.2148 24.1268 16.283 21.4517C17.012 20.9108 17.7092 20.317 18.4003 19.7372C19.428 18.8686 20.43 17.9682 21.4061 17.0362C22.3822 16.1042 23.3366 15.129 24.2692 14.1107C25.1134 13.2182 25.8922 12.2628 26.5991 11.2523C26.9845 10.6905 27.321 10.0949 27.6046 9.47241C27.7448 9.16314 27.8685 8.84628 27.9752 8.52323C28.0177 8.39387 28.0587 8.26295 28.0952 8.13203C28.3081 8.56912 28.5773 8.97486 28.8956 9.33837C29.426 10.0042 30.0032 10.6293 30.6225 11.2087C31.2266 11.7809 31.8747 12.3021 32.5606 12.7672C33.3108 13.2496 34.0889 13.6847 34.8905 14.0702C36.5613 14.9087 38.1545 15.8641 39.7402 16.8492C41.3259 17.8342 42.9435 18.7491 44.4244 19.8744C44.8036 20.1431 45.1548 20.4513 45.4724 20.7939C45.7799 21.1582 45.9768 21.6068 46.0389 22.0844V22.1187C46.0309 22.113 46.0216 22.1097 46.0118 22.1091C46.0021 22.1084 45.9924 22.1106 45.9838 22.1152C45.9751 22.1199 45.9679 22.1269 45.9629 22.1355C45.9579 22.1441 45.9553 22.1539 45.9554 22.1639C45.8697 24.9118 45.616 27.6515 45.196 30.3667C44.836 32.795 44.3652 35.1983 43.867 37.6032C43.6209 38.7893 43.3855 39.9801 43.1075 41.1583C42.9933 41.7177 42.8026 42.2576 42.541 42.7621C42.2802 43.2219 41.9632 43.6456 41.5978 44.023C40.8384 44.8226 39.9589 45.4741 39.0674 46.0944C38.1059 46.763 37.1399 47.4207 36.1816 48.0831C35.2702 48.7066 34.3711 49.3783 33.3777 49.863C32.4664 50.3119 31.4351 50.5878 30.4312 50.3212C30.3752 50.3061 30.3159 50.3105 30.2626 50.3337C30.2112 50.3062 30.1519 50.2985 30.0955 50.3119C29.0779 50.5145 28.0709 50.1747 27.1808 49.6698C26.2194 49.1227 25.3582 48.4011 24.4879 47.7169C23.5659 46.9952 22.6394 46.2783 21.7205 45.552C20.8821 44.8756 20.0315 44.1711 19.3253 43.331Z" stroke="#2C51A2" stroke-width="0.4" mask="url(#path-6-outside-1_82_11748)"/>
<path d="M31.6882 33.0176C31.6456 32.9564 31.5848 32.9111 31.515 32.8882C31.44 32.8608 31.3619 32.8435 31.2826 32.8368C31.138 32.8178 30.9921 32.8121 30.8465 32.8196C30.6965 32.826 30.5471 32.8442 30.3998 32.8742C30.2476 32.8955 30.1027 32.9543 29.9775 33.0456C29.9617 33.0613 29.9508 33.0813 29.9461 33.1033C29.9413 33.1252 29.9429 33.1481 29.9506 33.1691C29.9584 33.1902 29.9719 33.2084 29.9897 33.2216C30.0074 33.2349 30.0285 33.2425 30.0504 33.2436C30.1925 33.2347 30.3334 33.2117 30.4712 33.175C30.5967 33.1518 30.7237 33.1388 30.8511 33.136C30.9829 33.1335 31.1148 33.1387 31.2461 33.1516C31.3099 33.1516 31.3752 33.1719 31.4406 33.1734C31.5136 33.1841 31.5882 33.1744 31.6563 33.1454C31.6759 33.1317 31.6899 33.1112 31.6958 33.0877C31.7017 33.0641 31.699 33.0392 31.6882 33.0176Z" fill="#FCF3ED"/>
<path d="M29.3348 29.7901C29.3348 29.5376 29.3348 29.2851 29.3242 29.0326C29.3044 28.5261 29.2664 28.0227 29.2148 27.5193C29.1185 26.5277 28.9515 25.5447 28.7149 24.5782C28.711 24.566 28.7027 24.5558 28.6918 24.5495C28.6809 24.5432 28.6681 24.5414 28.6559 24.5443C28.6437 24.5473 28.633 24.5548 28.6259 24.5654C28.6189 24.576 28.6159 24.5889 28.6177 24.6016C28.7499 25.5913 28.8532 26.5872 28.9064 27.5847C28.9307 28.0632 28.9413 28.5417 28.9428 29.0202C28.9428 29.2727 28.9428 29.5252 28.9428 29.7776C28.9199 30.0193 28.9364 30.2632 28.9914 30.4993C28.9997 30.5284 29.0168 30.554 29.0402 30.5725C29.0636 30.5911 29.0921 30.6015 29.1216 30.6024C29.1512 30.6033 29.1802 30.5945 29.2046 30.5774C29.229 30.5602 29.2474 30.5356 29.2573 30.5071C29.3266 30.2751 29.3529 30.032 29.3348 29.7901Z" fill="#2C51A2"/>
<path d="M28.8142 36.2077C28.789 36.1728 28.7545 36.1461 28.7149 36.1309C28.6752 36.1157 28.6321 36.1126 28.5908 36.122C28.5535 36.1287 28.5179 36.143 28.486 36.1641H28.4769L28.4222 36.1796H28.3903H28.3234H28.2794L28.2292 36.1687L28.1715 36.1609L28.1426 36.1485C28.1229 36.1376 28.1031 36.1267 28.0849 36.1142L28.0363 36.0799L28.0165 36.0612C27.9863 36.0318 27.9584 36 27.9329 35.9661C27.9255 35.9527 27.9174 35.9397 27.9086 35.9272C27.8965 35.9053 27.8858 35.8851 27.8752 35.8617L27.8615 35.829C27.853 35.8055 27.8459 35.7816 27.8403 35.7573C27.8403 35.737 27.8311 35.7168 27.8266 35.6965C27.822 35.6762 27.8266 35.6684 27.8266 35.6606C27.8235 35.615 27.8235 35.5692 27.8266 35.5235C27.8266 35.5235 27.8266 35.4939 27.8266 35.4876C27.8307 35.4639 27.8363 35.4405 27.8433 35.4175C27.9026 35.2595 27.9884 35.1133 28.097 34.9858C28.1548 34.9032 28.0651 34.8143 27.9846 34.8299C27.8938 34.8517 27.8085 34.8926 27.734 34.95C27.6594 35.0075 27.5973 35.0801 27.5516 35.1635C27.446 35.3392 27.4001 35.5458 27.4209 35.751C27.4379 35.9535 27.5148 36.1457 27.6414 36.302C27.7679 36.4583 27.9381 36.5711 28.1289 36.6254C28.3568 36.6815 28.6729 36.669 28.8263 36.4695C28.852 36.4303 28.8646 36.3837 28.8625 36.3366C28.8603 36.2894 28.8433 36.2442 28.8142 36.2077Z" fill="#2C51A2"/>
<path d="M32.9389 35.8595C32.711 35.487 32.2613 35.6366 31.9954 35.8595C31.8294 36.0193 31.6298 36.1377 31.412 36.2055C31.2132 36.2621 31.0098 36.2997 30.8042 36.3177C30.6159 36.3423 30.4246 36.3199 30.2466 36.2523C30.0643 36.1697 29.9853 35.9858 29.8455 35.8533C29.5751 35.5946 29.1223 35.4371 28.782 35.6382C28.754 35.6551 28.732 35.6807 28.7192 35.7114C28.7065 35.742 28.7036 35.776 28.7111 35.8085C28.7186 35.8409 28.736 35.87 28.7608 35.8915C28.7856 35.9131 28.8164 35.9259 28.8489 35.9281C29.05 35.9237 29.2488 35.9725 29.4262 36.0699C29.5873 36.1775 29.6602 36.3583 29.7939 36.4923C30.0886 36.7853 30.514 36.8274 30.9045 36.7884C31.3239 36.7479 31.7705 36.6606 32.12 36.391C32.2279 36.3068 32.4011 36.0528 32.5576 36.0886C32.632 36.1042 32.67 36.1775 32.7551 36.1806C32.7931 36.1817 32.8307 36.1727 32.8643 36.1544C32.8979 36.1361 32.9262 36.1091 32.9465 36.0762C32.9637 36.0425 32.9721 36.0048 32.9708 35.9668C32.9695 35.9288 32.9585 35.8918 32.9389 35.8595Z" fill="#2C51A2"/>
<path d="M34.8548 35.3899C34.8348 35.2716 34.8032 35.1556 34.7606 35.0439C34.716 34.9035 34.6596 34.7674 34.5919 34.6371C34.5281 34.528 34.4066 34.3893 34.2729 34.408C34.0905 34.4329 34.0951 34.6464 34.1209 34.7883C34.1589 34.9189 34.2099 35.0453 34.2729 35.1654C34.3144 35.2782 34.3465 35.3945 34.3686 35.513C34.3874 35.5996 34.3886 35.6893 34.3721 35.7765C34.3556 35.8636 34.3218 35.9464 34.2729 36.0195C34.1468 36.1754 33.893 36.2549 33.6864 36.2938C33.5555 36.3172 33.4226 36.3266 33.2898 36.3219C33.1552 36.323 33.0208 36.3099 32.8887 36.2829C32.8638 36.2768 32.8376 36.2797 32.8145 36.2912C32.7914 36.3027 32.7729 36.322 32.7622 36.3459C32.7514 36.3698 32.7491 36.3967 32.7555 36.4222C32.762 36.4477 32.7768 36.4701 32.7976 36.4855C32.9974 36.651 33.2473 36.7398 33.5041 36.7365C33.7417 36.7436 33.9785 36.7061 34.203 36.6258C34.3241 36.5859 34.4364 36.5218 34.5334 36.4373C34.6304 36.3528 34.7101 36.2495 34.7682 36.1333C34.8706 35.9004 34.9008 35.6409 34.8548 35.3899Z" fill="#2C51A2"/>
<path d="M33.0323 26.1876C32.9053 26.418 32.8155 26.668 32.7665 26.9279C32.7026 27.182 32.654 27.4392 32.6145 27.6979C32.5278 28.2294 32.4856 28.7675 32.4884 29.3063C32.4908 29.3222 32.4986 29.3366 32.5104 29.347C32.5223 29.3574 32.5374 29.3632 32.553 29.3632C32.5686 29.3632 32.5837 29.3574 32.5955 29.347C32.6074 29.3366 32.6152 29.3222 32.6176 29.3063C32.6545 28.7718 32.722 28.2399 32.8196 27.7135C32.8682 27.461 32.926 27.2101 32.9868 26.9607C33.0615 26.7182 33.1124 26.4686 33.1387 26.2157C33.1379 26.2032 33.1333 26.1913 33.1256 26.1816C33.1178 26.172 33.1073 26.1651 33.0954 26.162C33.0836 26.1589 33.0712 26.1597 33.0598 26.1643C33.0485 26.1689 33.0389 26.1771 33.0323 26.1876Z" fill="#2C51A2"/>
<path d="M27.2885 27.5622L27.2581 27.5451C27.2804 27.5267 27.2948 27.5001 27.2982 27.4709C27.3016 27.4418 27.2938 27.4125 27.2764 27.3892C27.0819 27.1305 26.7706 26.9668 26.5048 26.7954C26.201 26.6052 25.92 26.4011 25.6299 26.1984C25.0588 25.7979 24.4756 25.4114 23.8073 25.2025C23.1827 25.0114 22.5182 25.0055 21.8905 25.1854C21.5786 25.2743 21.2739 25.3879 20.9792 25.5251C20.6921 25.6545 20.3245 25.787 20.1165 26.0364C20.0754 26.0847 20.0906 26.1922 20.1711 26.1922C20.4521 26.1673 20.7179 25.9943 20.9685 25.8805C21.2596 25.739 21.5607 25.6202 21.8692 25.5251C22.4932 25.3249 23.162 25.3249 23.786 25.5251C24.4021 25.7541 24.9859 26.0659 25.5221 26.4525C25.797 26.638 26.0673 26.8266 26.3468 27.0027C26.4501 27.0681 26.5488 27.1367 26.6506 27.2069C26.2587 26.9949 25.8608 26.7954 25.4613 26.6084C24.8422 26.3022 24.18 26.0982 23.499 26.0036C22.8474 25.9258 22.1872 26.0175 21.5791 26.2701C20.9268 26.5429 20.3004 26.8768 19.7079 27.2676C19.6757 27.2871 19.6495 27.3156 19.6326 27.3498C19.6157 27.384 19.6086 27.4225 19.6123 27.4607C19.6159 27.4988 19.6302 27.5352 19.6533 27.5653C19.6765 27.5954 19.7075 27.6182 19.7428 27.6308C20.3078 27.7976 20.806 27.4048 21.286 27.1445C21.6459 26.9481 22.0181 26.7845 22.3917 26.6224C22.2342 26.8404 22.1641 27.112 22.1958 27.3814C22.2244 27.5806 22.2996 27.7696 22.4149 27.9325C22.5302 28.0953 22.6822 28.2271 22.858 28.3166C22.9338 28.3708 23.018 28.4114 23.1071 28.4366C23.1492 28.457 23.1923 28.4752 23.2362 28.4911C23.3861 28.5378 23.5441 28.5511 23.6994 28.5301C23.8848 28.5382 24.0694 28.5019 24.2386 28.4241C24.348 28.3666 24.4437 28.2851 24.519 28.1854C24.5943 28.0858 24.6474 27.9704 24.6745 27.8474C24.7003 27.8015 24.7211 27.7529 24.7368 27.7025C24.78 27.5144 24.78 27.3186 24.7368 27.1305C24.7137 26.9234 24.6518 26.7228 24.5546 26.5398C25.475 26.8328 26.3498 27.3082 27.249 27.651C27.2605 27.6564 27.2736 27.6569 27.2854 27.6524C27.2972 27.6478 27.3068 27.6387 27.312 27.6269C27.3173 27.6151 27.3177 27.6017 27.3133 27.5895C27.3089 27.5774 27.3 27.5676 27.2885 27.5622Z" fill="#2C51A2"/>
<path d="M27.3301 23.5611L27.2678 23.3086C27.2726 23.2188 27.2664 23.1287 27.2496 23.0405C27.1953 22.7398 27.1093 22.4461 26.9929 22.1646C26.8957 21.9136 26.7484 21.658 26.4856 21.5676C26.4668 21.5644 26.4475 21.5677 26.4307 21.577C26.414 21.5864 26.4008 21.6012 26.3932 21.6192C26.3857 21.6372 26.3843 21.6573 26.3892 21.6762C26.3941 21.6951 26.4051 21.7118 26.4203 21.7235C26.4998 21.7792 26.5676 21.8506 26.6198 21.9336C26.672 22.0166 26.7074 22.1094 26.7241 22.2067C26.6345 22.1287 26.5358 22.0633 26.437 21.9931C26.2563 21.8684 26.0695 21.7609 25.8826 21.6471C25.8668 21.6377 25.8482 21.6345 25.8302 21.6381C25.8122 21.6417 25.7961 21.6518 25.7849 21.6666C25.7736 21.6814 25.7679 21.6999 25.7688 21.7186C25.7698 21.7374 25.7773 21.7552 25.79 21.7687L25.9009 21.8825C25.1696 21.7205 24.4219 21.6504 23.6742 21.6736C22.1447 21.7064 20.6092 22.1272 19.3455 23.0327C18.69 23.502 18.1237 24.0904 17.6747 24.769C17.5396 24.9716 17.8661 25.1726 17.9952 24.9638C18.0848 24.8188 18.1836 24.677 18.2868 24.5414C18.6262 24.2442 18.9878 23.9748 19.3683 23.7356C19.8908 23.4114 20.4907 23.0608 21.1134 23.0311C21.7569 23.0192 22.4002 23.0635 23.0363 23.1636C23.7016 23.2509 24.3608 23.3678 25.0215 23.4753C25.7408 23.5984 26.4657 23.6842 27.1934 23.7325C27.2143 23.7334 27.2351 23.7292 27.2542 23.7204C27.2733 23.7116 27.2902 23.6984 27.3034 23.6817C27.3167 23.6651 27.326 23.6456 27.3306 23.6246C27.3352 23.6037 27.3351 23.5819 27.3301 23.5611Z" fill="#2C51A2"/>
<path d="M33.9962 27.7746L34.0266 27.7606C34.0056 27.7409 33.993 27.7137 33.9913 27.6846C33.9896 27.6555 33.999 27.6269 34.0175 27.6047C34.2286 27.3585 34.5475 27.2167 34.8225 27.0608C35.1262 26.8894 35.43 26.7039 35.7338 26.52C36.3276 26.1568 36.9321 25.8061 37.6111 25.6394C38.2462 25.4875 38.9102 25.5232 39.5264 25.7422C39.8337 25.8505 40.1324 25.9834 40.4194 26.1397C40.6974 26.2862 41.0558 26.4405 41.2487 26.7023C41.2882 26.7538 41.2654 26.8582 41.1849 26.8473C40.907 26.8052 40.6518 26.6166 40.4088 26.481C40.1266 26.322 39.8331 26.185 39.5309 26.0711C38.9192 25.8338 38.2515 25.7941 37.6171 25.9573C36.9885 26.1467 36.3873 26.4214 35.8295 26.774C35.5439 26.9408 35.2629 27.1122 34.9743 27.2712C34.8665 27.3304 34.7632 27.3928 34.6599 27.4567C35.0624 27.2697 35.4725 27.0951 35.875 26.9346C36.5108 26.6668 37.1839 26.5043 37.8693 26.453C38.5241 26.4155 39.1776 26.5479 39.7694 26.8379C40.4044 27.1517 41.0099 27.5247 41.5783 27.9523C41.6099 27.9734 41.6347 28.0033 41.65 28.0386C41.6652 28.0739 41.6702 28.113 41.6642 28.1511C41.6583 28.1892 41.6417 28.2247 41.6165 28.2533C41.5913 28.2819 41.5585 28.3024 41.5221 28.3123C40.948 28.4433 40.4696 28.0193 40.0109 27.7294C39.663 27.5097 39.3016 27.3242 38.9386 27.1403C39.0832 27.367 39.1375 27.642 39.0904 27.9087C39.0497 28.1053 38.9633 28.289 38.8384 28.4439C38.7136 28.5989 38.5541 28.7206 38.3735 28.7986C38.2949 28.8477 38.2086 28.8825 38.1184 28.9015C37.9299 28.9833 37.7213 29.0029 37.5215 28.9576C37.3356 28.9549 37.153 28.9073 36.9883 28.8189C36.8828 28.7543 36.7923 28.6668 36.7231 28.5627C36.6538 28.4585 36.6075 28.3401 36.5874 28.2157C36.5647 28.1657 36.5469 28.1135 36.5342 28.0599C36.5002 27.8701 36.5095 27.6748 36.5615 27.4894C36.5969 27.2836 36.6707 27.0867 36.7787 26.9096C35.8416 27.145 34.9409 27.5658 34.0235 27.8448C34.0164 27.8433 34.0097 27.84 34.0041 27.8352C33.9985 27.8304 33.9941 27.8242 33.9914 27.8173C33.9887 27.8103 33.9877 27.8028 33.9886 27.7953C33.9894 27.7879 33.992 27.7808 33.9962 27.7746Z" fill="#2C51A2"/>
<path d="M34.192 23.7773C34.2178 23.6963 34.2421 23.6215 34.2695 23.5295C34.2697 23.4396 34.2809 23.3501 34.3029 23.263C34.3726 22.966 34.4744 22.6779 34.6067 22.4042C34.6509 22.2755 34.7222 22.1583 34.8153 22.0608C34.9085 21.9633 35.0213 21.888 35.1458 21.84C35.164 21.8389 35.182 21.8437 35.1972 21.8538C35.2125 21.8639 35.2242 21.8787 35.2307 21.8961C35.2371 21.9135 35.238 21.9326 35.2331 21.9506C35.2282 21.9685 35.2179 21.9844 35.2036 21.9959C35.1194 22.0461 35.0462 22.1135 34.9884 22.1939C34.9307 22.2743 34.8897 22.3661 34.8679 22.4634C34.9654 22.3931 35.0669 22.3285 35.1717 22.2702C35.3585 22.1564 35.5529 22.0613 35.7458 21.9585C35.7623 21.9496 35.7813 21.9473 35.7994 21.952C35.8174 21.9566 35.8331 21.9679 35.8436 21.9836C35.8541 21.9994 35.8586 22.0185 35.8562 22.0374C35.8539 22.0564 35.8449 22.0737 35.8309 22.0863L35.7124 22.1923C36.4521 22.0763 37.2029 22.0528 37.9481 22.1221C39.467 22.2515 40.9859 22.7674 42.1888 23.7493C42.8145 24.259 43.3442 24.8817 43.7517 25.5868C43.8747 25.7972 43.5375 25.978 43.4206 25.763C43.3388 25.6114 43.2496 25.4641 43.1533 25.3219C42.8323 25.0041 42.4875 24.7128 42.122 24.4506C41.6207 24.0937 41.0421 23.7072 40.4224 23.6371C39.7807 23.5848 39.1358 23.5895 38.4949 23.6511C37.8266 23.6947 37.1614 23.7711 36.4946 23.8366C35.7695 23.9145 35.0411 23.955 34.312 23.9581C34.2915 23.9568 34.2716 23.9506 34.2537 23.9402C34.2359 23.9297 34.2206 23.9152 34.209 23.8978C34.1974 23.8804 34.1899 23.8604 34.1869 23.8396C34.184 23.8187 34.1857 23.7974 34.192 23.7773Z" fill="#2C51A2"/>
<path d="M35.8372 41.7707C35.7914 41.7207 35.7346 41.6828 35.6716 41.66C35.6694 41.6451 35.6624 41.6315 35.6519 41.621C35.3392 41.3383 35.0021 41.0853 34.6448 40.8651C34.2803 40.6111 33.9219 40.3414 33.5467 40.1045C32.8936 39.6931 32.0689 39.7819 31.3565 39.9861C31.3641 39.8516 31.3641 39.7169 31.3565 39.5824C31.3825 39.557 31.4015 39.525 31.4116 39.4896C31.4216 39.4542 31.4224 39.4167 31.4137 39.3809C31.4051 39.3452 31.3874 39.3124 31.3624 39.2859C31.3374 39.2594 31.306 39.2402 31.2715 39.2302C30.79 39.0915 30.465 38.6317 29.9622 38.546C29.4093 38.4524 28.9309 38.8218 28.539 39.1694C28.0515 39.6089 27.5579 40.0375 27.0293 40.4256C26.7681 40.6173 26.4992 40.8012 26.2289 40.9773C25.9531 41.1347 25.6858 41.3075 25.4284 41.4948L25.3753 41.473C25.3593 41.468 25.3421 41.4686 25.3265 41.4747C25.3109 41.4807 25.2976 41.4919 25.2888 41.5064C25.28 41.521 25.2761 41.5381 25.2777 41.5552C25.2793 41.5722 25.2864 41.5883 25.2978 41.6008C25.6201 41.9062 26.0214 42.1097 26.4537 42.1868C26.4501 42.1995 26.4501 42.213 26.4537 42.2258C26.573 42.3957 26.7199 42.5434 26.888 42.6622C27.0597 42.8071 27.2328 42.949 27.4136 43.0845C27.7726 43.3624 28.1485 43.6164 28.539 43.8451C28.9112 44.055 29.3209 44.1854 29.7435 44.2285C29.9778 44.257 30.2138 44.269 30.4498 44.2644C30.6442 44.2644 30.9343 44.2987 31.0983 44.1787C31.1394 44.1464 31.1675 44.0998 31.1773 44.0477C31.1959 44.0352 31.2112 44.018 31.2218 43.9979C31.2324 43.9778 31.238 43.9553 31.2381 43.9324C31.2381 43.828 31.2381 43.722 31.2472 43.6207L31.2624 43.6285C31.6381 43.722 32.0279 43.7411 32.4106 43.6846C32.7932 43.6499 33.1672 43.5482 33.5163 43.3838C33.8611 43.2031 34.1791 42.9733 34.4611 42.7011C34.6302 42.5474 34.7977 42.3915 34.9638 42.2336C35.1071 42.1197 35.2412 41.9941 35.3648 41.8579C35.4975 41.9215 35.6441 41.9484 35.7901 41.9359C35.8065 41.9316 35.8216 41.9231 35.8338 41.911C35.846 41.899 35.855 41.8838 35.8597 41.8671C35.8645 41.8504 35.8649 41.8327 35.861 41.8158C35.857 41.7989 35.8488 41.7833 35.8372 41.7707ZM30.9449 43.8436C30.8075 43.8363 30.6698 43.8416 30.5333 43.8592C30.3207 43.867 30.1095 43.8701 29.8984 43.8592C29.4587 43.8376 29.0288 43.7174 28.6393 43.5069C28.2741 43.3014 27.9193 43.0772 27.5761 42.8352C27.4014 42.7136 27.2268 42.5936 27.0551 42.4689C26.9458 42.3894 26.8349 42.2975 26.7164 42.2242C27.1044 42.2045 27.4874 42.1251 27.8525 41.9889C28.8093 41.6994 29.8082 41.5849 30.8037 41.6507C30.8341 41.6538 30.8645 41.6448 30.8887 41.6257H30.8963H30.9054L30.9236 41.6366C30.955 41.654 30.9849 41.6738 31.0133 41.6959L31.0315 41.7036C31.0072 42.4206 30.9707 43.1329 30.9449 43.8436ZM31.0831 40.4287C31.0695 40.7623 31.0573 41.0974 31.0452 41.4309C31.0007 41.4114 30.9536 41.3987 30.9054 41.3935C30.8812 41.3691 30.8496 41.3537 30.8158 41.3498C29.8879 41.2676 28.9531 41.3541 28.0545 41.6055C27.6095 41.7286 27.1645 41.9296 26.6982 41.9281C26.282 41.9281 25.9388 41.7286 25.5651 41.5665C25.8166 41.4571 26.0585 41.3257 26.2881 41.1737C26.5463 41.0179 26.7984 40.862 27.0475 40.6875C27.5434 40.35 28.0215 39.9858 28.4798 39.5964C28.8595 39.2723 29.3562 38.7377 29.9045 38.9029C30.3602 39.0416 30.6472 39.506 31.1196 39.6416C31.0831 39.9004 31.0938 40.1747 31.0831 40.4287ZM31.3353 40.4365C31.3353 40.3944 31.3353 40.3508 31.3353 40.3072C31.3463 40.3087 31.3576 40.3087 31.3687 40.3072C31.7362 40.2199 32.0917 40.089 32.4729 40.0796C32.8734 40.0727 33.265 40.2008 33.5877 40.4443L34.5719 41.1239C34.7709 41.2626 34.9699 41.4122 35.1795 41.5447C35.0458 41.5151 34.9122 41.4901 34.777 41.4714C34.3672 41.4223 33.9543 41.4067 33.5422 41.4247C33.126 41.4356 32.7083 41.4449 32.2921 41.4574C32.0704 41.4574 31.8486 41.4667 31.6284 41.4761C31.5183 41.4767 31.4082 41.4834 31.2988 41.4964C31.314 41.1472 31.3261 40.7903 31.3353 40.4365ZM34.9122 41.9515L34.4459 42.3832C34.1669 42.6629 33.8557 42.9068 33.5194 43.1095C33.192 43.2848 32.8355 43.3959 32.4683 43.4368C32.0734 43.4867 31.6816 43.4368 31.2882 43.4648C31.2747 43.4666 31.2617 43.4714 31.2502 43.4789C31.2669 42.8897 31.2791 42.3006 31.2958 41.7114C31.3926 41.7216 31.4901 41.7247 31.5874 41.7208C31.7955 41.7208 32.0051 41.7208 32.2132 41.7099L33.4662 41.6834C33.8552 41.6662 34.2449 41.6756 34.6327 41.7114C34.7846 41.7286 34.9365 41.7551 35.0884 41.7863C35.0246 41.8408 34.9684 41.8985 34.9122 41.9515Z" fill="#2C51A2"/>
<path d="M42.2077 3.85938L42.9291 5.2607L44.5423 5.48679L43.375 6.57696L43.6505 8.11707L42.2077 7.38955L40.7649 8.11707L41.0404 6.57696L39.873 5.48679L41.4863 5.2607L42.2077 3.85938Z" fill="white"/>
</g>
<path d="M31.0117 1.64453V64.7757" stroke="#2C51A2" stroke-dasharray="2 2"/>
<path d="M3.19972 7.58203L4.18844 9.52581L6.39945 9.83943L4.79958 11.3516L5.17715 13.4879L3.19972 12.4787L1.22229 13.4879L1.59986 11.3516L0 9.83943L2.21101 9.52581L3.19972 7.58203Z" fill="white"/>
<path d="M53.5998 40.3359L54.3415 41.7496L56.0003 41.9777L54.8 43.0774L55.0833 44.6311L53.5998 43.8972L52.1162 44.6311L52.3995 43.0774L51.1992 41.9777L52.858 41.7496L53.5998 40.3359Z" fill="white"/>
<path d="M5.60172 27.4492L6.34349 28.8629L8.00227 29.091L6.80199 30.1907L7.08526 31.7444L5.60172 31.0105L4.11818 31.7444L4.40145 30.1907L3.20117 29.091L4.85995 28.8629L5.60172 27.4492Z" fill="white"/>
<defs>
<clipPath id="clip0_82_11748">
<rect width="41.0547" height="64.745" fill="white" transform="translate(8.12305)"/>
</clipPath>
</defs>
</svg>
