<svg width="34" height="34" viewBox="0 0 34 34" fill="none" xmlns="http://www.w3.org/2000/svg">
<circle cx="16.9992" cy="16.8" r="16.3" stroke="#033C81"/>
<path d="M19.7996 14C20.9135 14 21.9818 14.4425 22.7695 15.2302C23.5571 16.0178 23.9996 17.0861 23.9996 18.2V23.1H21.1996V18.2C21.1996 17.8287 21.0521 17.4726 20.7896 17.2101C20.527 16.9475 20.1709 16.8 19.7996 16.8C19.4283 16.8 19.0722 16.9475 18.8097 17.2101C18.5471 17.4726 18.3996 17.8287 18.3996 18.2V23.1H15.5996V18.2C15.5996 17.0861 16.0421 16.0178 16.8298 15.2302C17.6174 14.4425 18.6857 14 19.7996 14Z" stroke="#033C81" stroke-linecap="round" stroke-linejoin="round"/>
<path d="M12.8 14.6953H10V23.0953H12.8V14.6953Z" stroke="#033C81" stroke-linecap="round" stroke-linejoin="round"/>
<path d="M11.4 12.5969C12.1732 12.5969 12.8 11.9701 12.8 11.1969C12.8 10.4237 12.1732 9.79688 11.4 9.79688C10.6268 9.79688 10 10.4237 10 11.1969C10 11.9701 10.6268 12.5969 11.4 12.5969Z" stroke="#033C81" stroke-linecap="round" stroke-linejoin="round"/>
</svg>
