<svg width="65" height="54" viewBox="0 0 65 54" fill="none" xmlns="http://www.w3.org/2000/svg">
<path d="M26.709 29.5V40.5C26.709 42.7091 28.4998 44.5 30.709 44.5H40.8192L48.3783 52V44.5H60.0003C62.2095 44.5 64.0003 42.7091 64.0003 40.5V19.5C64.0003 17.2909 62.2095 15.5 60.0003 15.5H38.2995" stroke="#2C51A2"/>
<path d="M43.3379 25H58.456" stroke="#2C51A2"/>
<path d="M47.3691 31L58.4558 31" stroke="#2C51A2"/>
<path d="M52.4102 36L58.4574 36" stroke="#2C51A2"/>
<path d="M24.189 29.5H24.001L23.8596 29.6238L16.122 36.3977V30V29.5H15.622H4C2.067 29.5 0.5 27.933 0.5 26V4C0.5 2.067 2.067 0.5 4 0.5H34.2992C36.2322 0.5 37.7992 2.067 37.7992 4V26C37.7992 27.933 36.2322 29.5 34.2992 29.5H24.189Z" stroke="#2C51A2"/>
<rect x="10.5781" y="5.5" width="17.2449" height="16.9609" rx="1.5" fill="#C377FC" stroke="#C377FC"/>
<path d="M18.0932 16.593V16.5224C18.1011 15.7727 18.1802 15.1761 18.3306 14.7326C18.4809 14.289 18.6945 13.9299 18.9714 13.6552C19.2483 13.3804 19.5806 13.1272 19.9683 12.8957C20.2017 12.7544 20.4114 12.5875 20.5973 12.3952C20.7832 12.199 20.9296 11.9733 21.0364 11.7181C21.1472 11.463 21.2026 11.1804 21.2026 10.8703C21.2026 10.4857 21.1116 10.1521 20.9296 9.86946C20.7476 9.58686 20.5043 9.36902 20.1997 9.21594C19.8951 9.06287 19.5569 8.98633 19.185 8.98633C18.8607 8.98633 18.5481 9.05305 18.2475 9.18651C17.9468 9.31996 17.6956 9.52995 17.4939 9.81647C17.2921 10.103 17.1754 10.4778 17.1438 10.941H15.6484C15.6801 10.2737 15.8541 9.70265 16.1706 9.22772C16.4911 8.75279 16.9124 8.38972 17.4345 8.13852C17.9607 7.88732 18.5442 7.76172 19.185 7.76172C19.8813 7.76172 20.4865 7.89909 21.0008 8.17385C21.519 8.4486 21.9186 8.8254 22.1995 9.30426C22.4843 9.78311 22.6267 10.3287 22.6267 10.941C22.6267 11.3727 22.5595 11.7633 22.425 12.1126C22.2944 12.4619 22.1045 12.774 21.8553 13.0487C21.61 13.3235 21.3133 13.5668 20.9652 13.7788C20.6171 13.9947 20.3382 14.2223 20.1285 14.4617C19.9189 14.6972 19.7666 14.9779 19.6716 15.3037C19.5767 15.6294 19.5253 16.0357 19.5173 16.5224V16.593H18.0932ZM18.8527 20.0785C18.56 20.0785 18.3088 19.9745 18.0991 19.7664C17.8895 19.5584 17.7846 19.3092 17.7846 19.0187C17.7846 18.7283 17.8895 18.479 18.0991 18.271C18.3088 18.063 18.56 17.9589 18.8527 17.9589C19.1455 17.9589 19.3967 18.063 19.6064 18.271C19.816 18.479 19.9208 18.7283 19.9208 19.0187C19.9208 19.211 19.8714 19.3877 19.7725 19.5486C19.6776 19.7095 19.549 19.839 19.3868 19.9372C19.2286 20.0314 19.0505 20.0785 18.8527 20.0785Z" fill="#DCE9F7"/>
</svg>
