<svg width="27" height="27" viewBox="0 0 27 27" fill="none" xmlns="http://www.w3.org/2000/svg">
<circle cx="13.5" cy="13.5" r="13" fill="white" stroke="black"/>
<g clip-path="url(#clip0_753_59345)">
<path d="M16.916 8.74887C17.0692 8.59567 17.2511 8.47413 17.4513 8.39122C17.6515 8.3083 17.866 8.26563 18.0827 8.26562C18.2993 8.26562 18.5139 8.3083 18.7141 8.39122C18.9143 8.47413 19.0961 8.59567 19.2493 8.74887C19.4026 8.90208 19.5241 9.08397 19.607 9.28415C19.6899 9.48432 19.7326 9.69887 19.7326 9.91554C19.7326 10.1322 19.6899 10.3468 19.607 10.5469C19.5241 10.7471 19.4026 10.929 19.2493 11.0822L11.3743 18.9572L8.16602 19.8322L9.04102 16.6239L16.916 8.74887Z" stroke="black" stroke-linecap="round" stroke-linejoin="round"/>
</g>
<defs>
<clipPath id="clip0_753_59345">
<rect width="14" height="14" fill="white" transform="translate(7 7)"/>
</clipPath>
</defs>
</svg>
