<svg width="34" height="34" viewBox="0 0 34 34" fill="none" xmlns="http://www.w3.org/2000/svg">
<circle cx="17.2004" cy="16.8" r="16.3" stroke="#033C81"/>
<g clip-path="url(#clip0_270_61280)">
<path d="M24.5784 12.8893C24.4952 12.5571 24.3259 12.2527 24.0875 12.0069C23.849 11.7611 23.5499 11.5825 23.2204 11.4893C22.0164 11.1953 17.2004 11.1953 17.2004 11.1953C17.2004 11.1953 12.3844 11.1953 11.1804 11.5173C10.8509 11.6105 10.5518 11.7891 10.3133 12.0349C10.0749 12.2807 9.90555 12.5851 9.8224 12.9173C9.60205 14.1392 9.49427 15.3787 9.5004 16.6203C9.49255 17.8712 9.60034 19.1202 9.8224 20.3513C9.91407 20.6732 10.0872 20.966 10.3251 21.2014C10.563 21.4369 10.8576 21.607 11.1804 21.6953C12.3844 22.0173 17.2004 22.0173 17.2004 22.0173C17.2004 22.0173 22.0164 22.0173 23.2204 21.6953C23.5499 21.6021 23.849 21.4235 24.0875 21.1777C24.3259 20.9319 24.4952 20.6275 24.5784 20.2953C24.797 19.0826 24.9048 17.8525 24.9004 16.6203C24.9083 15.3694 24.8005 14.1204 24.5784 12.8893Z" stroke="#033C81" stroke-linecap="round" stroke-linejoin="round"/>
<path d="M15.625 18.9139L19.65 16.6249L15.625 14.3359V18.9139Z" stroke="#033C81" stroke-linecap="round" stroke-linejoin="round"/>
</g>
<defs>
<clipPath id="clip0_270_61280">
<rect width="16.8" height="16.8" fill="white" transform="translate(8.80078 8.39844)"/>
</clipPath>
</defs>
</svg>
