<svg width="1366" height="1717" viewBox="0 0 1366 1717" fill="none" xmlns="http://www.w3.org/2000/svg">
<g opacity="0.43">
<mask id="mask0_376_9" style="mask-type:luminance" maskUnits="userSpaceOnUse" x="1190" y="578" width="35" height="35">
<path d="M1207.5 613C1217.17 613 1225 605.165 1225 595.5C1225 585.835 1217.17 578 1207.5 578C1197.84 578 1190 585.835 1190 595.5C1190 605.165 1197.84 613 1207.5 613Z" fill="white"/>
</mask>
<g mask="url(#mask0_376_9)">
<path d="M1207.5 613C1217.17 613 1225 605.165 1225 595.5C1225 585.835 1217.17 578 1207.5 578C1197.84 578 1190 585.835 1190 595.5C1190 605.165 1197.84 613 1207.5 613Z" fill="url(#paint0_linear_376_9)"/>
</g>
<mask id="mask1_376_9" style="mask-type:luminance" maskUnits="userSpaceOnUse" x="1190" y="578" width="35" height="35">
<path d="M1207.5 613C1217.17 613 1225 605.165 1225 595.5C1225 585.835 1217.17 578 1207.5 578C1197.84 578 1190 585.835 1190 595.5C1190 605.165 1197.84 613 1207.5 613Z" fill="white"/>
</mask>
<g mask="url(#mask1_376_9)">
<path d="M1209.48 618.977C1220.98 618.977 1230.3 609.652 1230.3 598.15C1230.3 586.647 1220.98 577.322 1209.48 577.322C1197.97 577.322 1188.65 586.647 1188.65 598.15C1188.65 609.652 1197.97 618.977 1209.48 618.977Z" fill="url(#paint1_linear_376_9)"/>
</g>
<mask id="mask2_376_9" style="mask-type:luminance" maskUnits="userSpaceOnUse" x="1190" y="578" width="35" height="35">
<path d="M1207.5 613C1217.17 613 1225 605.165 1225 595.5C1225 585.835 1217.17 578 1207.5 578C1197.84 578 1190 585.835 1190 595.5C1190 605.165 1197.84 613 1207.5 613Z" fill="white"/>
</mask>
<g mask="url(#mask2_376_9)">
<path opacity="0.6" d="M1217.42 617.868C1205.1 623.413 1192.09 621.134 1188.27 612.753C1184.45 604.373 1191.35 593.035 1203.68 587.489C1216 581.943 1229 584.223 1232.82 592.604C1236.58 600.984 1229.68 612.26 1217.42 617.868Z" fill="url(#paint2_radial_376_9)"/>
</g>
<path opacity="0.6" d="M1203.25 584.223C1203.18 585.887 1204.48 587.243 1206.14 587.304C1207.81 587.366 1209.16 586.072 1209.22 584.408C1209.29 582.745 1207.99 581.389 1206.33 581.327C1204.66 581.266 1203.31 582.56 1203.25 584.223Z" fill="url(#paint3_radial_376_9)"/>
</g>
<g opacity="0.28" filter="url(#filter0_f_376_9)">
<mask id="mask3_376_9" style="mask-type:luminance" maskUnits="userSpaceOnUse" x="-43" y="445" width="83" height="83">
<path d="M-1.49995 528C21.4199 528 40 509.42 40 486.5C40 463.58 21.4199 445 -1.49995 445C-24.4198 445 -43 463.58 -43 486.5C-43 509.42 -24.4198 528 -1.49995 528Z" fill="white"/>
</mask>
<g mask="url(#mask3_376_9)">
<path d="M-1.49995 528C21.4199 528 40 509.42 40 486.5C40 463.58 21.4199 445 -1.49995 445C-24.4198 445 -43 463.58 -43 486.5C-43 509.42 -24.4198 528 -1.49995 528Z" fill="url(#paint4_linear_376_9)"/>
</g>
<mask id="mask4_376_9" style="mask-type:luminance" maskUnits="userSpaceOnUse" x="-43" y="445" width="83" height="83">
<path d="M-1.49995 528C21.4199 528 40 509.42 40 486.5C40 463.58 21.4199 445 -1.49995 445C-24.4198 445 -43 463.58 -43 486.5C-43 509.42 -24.4198 528 -1.49995 528Z" fill="white"/>
</mask>
<g mask="url(#mask4_376_9)">
<path d="M3.18723 542.174C30.465 542.174 52.5781 520.06 52.5781 492.783C52.5781 465.505 30.465 443.392 3.18723 443.392C-24.0906 443.392 -46.2036 465.505 -46.2036 492.783C-46.2036 520.06 -24.0906 542.174 3.18723 542.174Z" fill="url(#paint5_linear_376_9)"/>
</g>
<mask id="mask5_376_9" style="mask-type:luminance" maskUnits="userSpaceOnUse" x="-43" y="445" width="83" height="83">
<path d="M-1.49995 528C21.4199 528 40 509.42 40 486.5C40 463.58 21.4199 445 -1.49995 445C-24.4198 445 -43 463.58 -43 486.5C-43 509.42 -24.4198 528 -1.49995 528Z" fill="white"/>
</mask>
<g mask="url(#mask5_376_9)">
<path opacity="0.6" d="M22.0231 539.543C-7.2023 552.695 -38.035 547.288 -47.0949 527.415C-56.1548 507.542 -39.7886 480.654 -10.5632 467.503C18.6622 454.351 49.4949 459.758 58.5548 479.631C67.4685 499.505 51.1023 526.246 22.0231 539.543Z" fill="url(#paint6_radial_376_9)"/>
</g>
<path opacity="0.6" d="M-11.5868 459.759C-11.7329 463.704 -8.66423 466.919 -4.71881 467.065C-0.773388 467.211 2.4414 464.143 2.58753 460.197C2.73366 456.252 -0.335026 453.037 -4.28045 452.891C-8.22587 452.745 -11.4407 455.813 -11.5868 459.759Z" fill="url(#paint7_radial_376_9)"/>
</g>
<mask id="mask6_376_9" style="mask-type:luminance" maskUnits="userSpaceOnUse" x="731" y="914" width="13" height="13">
<path d="M737.5 927C741.09 927 744 924.09 744 920.5C744 916.91 741.09 914 737.5 914C733.91 914 731 916.91 731 920.5C731 924.09 733.91 927 737.5 927Z" fill="white"/>
</mask>
<g mask="url(#mask6_376_9)">
<path d="M737.5 927C741.09 927 744 924.09 744 920.5C744 916.91 741.09 914 737.5 914C733.91 914 731 916.91 731 920.5C731 924.09 733.91 927 737.5 927Z" fill="url(#paint8_linear_376_9)"/>
</g>
<mask id="mask7_376_9" style="mask-type:luminance" maskUnits="userSpaceOnUse" x="731" y="914" width="13" height="13">
<path d="M737.5 927C741.09 927 744 924.09 744 920.5C744 916.91 741.09 914 737.5 914C733.91 914 731 916.91 731 920.5C731 924.09 733.91 927 737.5 927Z" fill="white"/>
</mask>
<g mask="url(#mask7_376_9)">
<path d="M738.234 929.22C742.506 929.22 745.97 925.757 745.97 921.484C745.97 917.212 742.506 913.748 738.234 913.748C733.962 913.748 730.498 917.212 730.498 921.484C730.498 925.757 733.962 929.22 738.234 929.22Z" fill="url(#paint9_linear_376_9)"/>
</g>
<mask id="mask8_376_9" style="mask-type:luminance" maskUnits="userSpaceOnUse" x="731" y="914" width="13" height="13">
<path d="M737.5 927C741.09 927 744 924.09 744 920.5C744 916.91 741.09 914 737.5 914C733.91 914 731 916.91 731 920.5C731 924.09 733.91 927 737.5 927Z" fill="white"/>
</mask>
<g mask="url(#mask8_376_9)">
<path opacity="0.6" d="M741.184 928.808C736.606 930.868 731.777 930.021 730.358 926.908C728.939 923.796 731.502 919.584 736.08 917.525C740.657 915.465 745.486 916.312 746.905 919.424C748.302 922.537 745.738 926.725 741.184 928.808Z" fill="url(#paint10_radial_376_9)"/>
</g>
<path opacity="0.6" d="M735.92 916.312C735.897 916.93 736.378 917.433 736.996 917.456C737.614 917.479 738.117 916.998 738.14 916.38C738.163 915.762 737.682 915.259 737.064 915.236C736.446 915.213 735.943 915.694 735.92 916.312Z" fill="url(#paint11_radial_376_9)"/>
<mask id="mask9_376_9" style="mask-type:luminance" maskUnits="userSpaceOnUse" x="405" y="266" width="13" height="13">
<path d="M411.5 279C415.09 279 418 276.09 418 272.5C418 268.91 415.09 266 411.5 266C407.91 266 405 268.91 405 272.5C405 276.09 407.91 279 411.5 279Z" fill="white"/>
</mask>
<g mask="url(#mask9_376_9)">
<path d="M411.5 279C415.09 279 418 276.09 418 272.5C418 268.91 415.09 266 411.5 266C407.91 266 405 268.91 405 272.5C405 276.09 407.91 279 411.5 279Z" fill="url(#paint12_linear_376_9)"/>
</g>
<mask id="mask10_376_9" style="mask-type:luminance" maskUnits="userSpaceOnUse" x="405" y="266" width="13" height="13">
<path d="M411.5 279C415.09 279 418 276.09 418 272.5C418 268.91 415.09 266 411.5 266C407.91 266 405 268.91 405 272.5C405 276.09 407.91 279 411.5 279Z" fill="white"/>
</mask>
<g mask="url(#mask10_376_9)">
<path d="M412.234 281.22C416.506 281.22 419.97 277.756 419.97 273.484C419.97 269.212 416.506 265.748 412.234 265.748C407.962 265.748 404.498 269.212 404.498 273.484C404.498 277.756 407.962 281.22 412.234 281.22Z" fill="url(#paint13_linear_376_9)"/>
</g>
<mask id="mask11_376_9" style="mask-type:luminance" maskUnits="userSpaceOnUse" x="405" y="266" width="13" height="13">
<path d="M411.5 279C415.09 279 418 276.09 418 272.5C418 268.91 415.09 266 411.5 266C407.91 266 405 268.91 405 272.5C405 276.09 407.91 279 411.5 279Z" fill="white"/>
</mask>
<g mask="url(#mask11_376_9)">
<path opacity="0.6" d="M415.184 280.808C410.606 282.868 405.777 282.021 404.358 278.908C402.939 275.796 405.502 271.584 410.08 269.525C414.657 267.465 419.486 268.312 420.905 271.424C422.302 274.537 419.738 278.725 415.184 280.808Z" fill="url(#paint14_radial_376_9)"/>
</g>
<path opacity="0.6" d="M539.92 288.312C539.897 288.93 540.378 289.433 540.996 289.456C541.614 289.479 542.117 288.998 542.14 288.38C542.163 287.762 541.682 287.259 541.064 287.236C540.446 287.213 539.943 287.694 539.92 288.312Z" fill="url(#paint15_radial_376_9)"/>
<g opacity="0.3" filter="url(#filter1_f_376_9)">
<circle cx="790" cy="1110" r="5" fill="#55AEA2"/>
</g>
<g filter="url(#filter2_f_376_9)">
<circle cx="924" cy="1016" r="2" fill="#55AEA2"/>
</g>
<g filter="url(#filter3_f_376_9)">
<circle cx="83" cy="1132" r="2" fill="#55AEA2"/>
</g>
<g filter="url(#filter4_f_376_9)">
<circle cx="465" cy="1012" r="2" fill="#64FFEA"/>
</g>
<path d="M1018.5 238.5V347C1018.5 351.971 1014.47 356 1009.5 356H964.5C959.529 356 955.5 360.029 955.5 365V435" stroke="url(#paint16_radial_376_9)"/>
<path d="M474 380L292.249 380C287.279 380 283.249 375.971 283.249 371L283.249 287C283.249 282.029 279.22 278 274.249 278L155 278" stroke="url(#paint17_radial_376_9)"/>
<g filter="url(#filter5_f_376_9)">
<ellipse cx="496" cy="314.5" rx="334" ry="342.5" fill="#8F00FF" fill-opacity="0.51"/>
</g>
<circle cx="706.5" cy="760.5" r="9" fill="url(#paint18_radial_376_9)" stroke="white"/>
<circle cx="587.5" cy="808.5" r="5" fill="url(#paint19_radial_376_9)" stroke="white"/>
<circle opacity="0.2" cx="841.5" cy="835.5" r="24" fill="url(#paint20_radial_376_9)" stroke="white"/>
<g filter="url(#filter6_f_376_9)">
<ellipse cx="666" cy="978" rx="228" ry="222" fill="#8F00FF"/>
</g>
<g filter="url(#filter7_f_376_9)">
<ellipse cx="1081" cy="438.5" rx="296" ry="286.5" fill="#0085FF"/>
</g>
<defs>
<filter id="filter0_f_376_9" x="-57" y="431" width="111" height="111" filterUnits="userSpaceOnUse" color-interpolation-filters="sRGB">
<feFlood flood-opacity="0" result="BackgroundImageFix"/>
<feBlend mode="normal" in="SourceGraphic" in2="BackgroundImageFix" result="shape"/>
<feGaussianBlur stdDeviation="7" result="effect1_foregroundBlur_376_9"/>
</filter>
<filter id="filter1_f_376_9" x="781" y="1101" width="18" height="18" filterUnits="userSpaceOnUse" color-interpolation-filters="sRGB">
<feFlood flood-opacity="0" result="BackgroundImageFix"/>
<feBlend mode="normal" in="SourceGraphic" in2="BackgroundImageFix" result="shape"/>
<feGaussianBlur stdDeviation="2" result="effect1_foregroundBlur_376_9"/>
</filter>
<filter id="filter2_f_376_9" x="918" y="1010" width="12" height="12" filterUnits="userSpaceOnUse" color-interpolation-filters="sRGB">
<feFlood flood-opacity="0" result="BackgroundImageFix"/>
<feBlend mode="normal" in="SourceGraphic" in2="BackgroundImageFix" result="shape"/>
<feGaussianBlur stdDeviation="2" result="effect1_foregroundBlur_376_9"/>
</filter>
<filter id="filter3_f_376_9" x="77" y="1126" width="12" height="12" filterUnits="userSpaceOnUse" color-interpolation-filters="sRGB">
<feFlood flood-opacity="0" result="BackgroundImageFix"/>
<feBlend mode="normal" in="SourceGraphic" in2="BackgroundImageFix" result="shape"/>
<feGaussianBlur stdDeviation="2" result="effect1_foregroundBlur_376_9"/>
</filter>
<filter id="filter4_f_376_9" x="459" y="1006" width="12" height="12" filterUnits="userSpaceOnUse" color-interpolation-filters="sRGB">
<feFlood flood-opacity="0" result="BackgroundImageFix"/>
<feBlend mode="normal" in="SourceGraphic" in2="BackgroundImageFix" result="shape"/>
<feGaussianBlur stdDeviation="2" result="effect1_foregroundBlur_376_9"/>
</filter>
<filter id="filter5_f_376_9" x="-355" y="-545" width="1702" height="1719" filterUnits="userSpaceOnUse" color-interpolation-filters="sRGB">
<feFlood flood-opacity="0" result="BackgroundImageFix"/>
<feBlend mode="normal" in="SourceGraphic" in2="BackgroundImageFix" result="shape"/>
<feGaussianBlur stdDeviation="258.5" result="effect1_foregroundBlur_376_9"/>
</filter>
<filter id="filter6_f_376_9" x="-79" y="239" width="1490" height="1478" filterUnits="userSpaceOnUse" color-interpolation-filters="sRGB">
<feFlood flood-opacity="0" result="BackgroundImageFix"/>
<feBlend mode="normal" in="SourceGraphic" in2="BackgroundImageFix" result="shape"/>
<feGaussianBlur stdDeviation="258.5" result="effect1_foregroundBlur_376_9"/>
</filter>
<filter id="filter7_f_376_9" x="268" y="-365" width="1626" height="1607" filterUnits="userSpaceOnUse" color-interpolation-filters="sRGB">
<feFlood flood-opacity="0" result="BackgroundImageFix"/>
<feBlend mode="normal" in="SourceGraphic" in2="BackgroundImageFix" result="shape"/>
<feGaussianBlur stdDeviation="258.5" result="effect1_foregroundBlur_376_9"/>
</filter>
<linearGradient id="paint0_linear_376_9" x1="1195.14" y1="583.142" x2="1219.91" y2="607.914" gradientUnits="userSpaceOnUse">
<stop offset="0.0524877" stop-color="#D90C9D"/>
<stop offset="0.6" stop-color="#C50C95"/>
<stop offset="1" stop-color="#BB0C92"/>
</linearGradient>
<linearGradient id="paint1_linear_376_9" x1="1194.77" y1="583.442" x2="1216.99" y2="607.654" gradientUnits="userSpaceOnUse">
<stop offset="0.0524877" stop-color="#D90C9D"/>
<stop offset="0.6" stop-color="#C50C95"/>
<stop offset="1" stop-color="#E86631"/>
</linearGradient>
<radialGradient id="paint2_radial_376_9" cx="0" cy="0" r="1" gradientUnits="userSpaceOnUse" gradientTransform="translate(1210.52 602.679) rotate(65.6277) scale(16.6572 24.4453)">
<stop offset="0.1113" stop-color="#8100FF"/>
<stop offset="1" stop-color="#8100FF" stop-opacity="0"/>
</radialGradient>
<radialGradient id="paint3_radial_376_9" cx="0" cy="0" r="1" gradientUnits="userSpaceOnUse" gradientTransform="translate(1206.22 584.306) rotate(-178.097) scale(2.98201 2.982)">
<stop offset="0.1119" stop-color="white"/>
<stop offset="0.1914" stop-color="white" stop-opacity="0.8529"/>
<stop offset="0.6525" stop-color="white" stop-opacity="0"/>
</radialGradient>
<linearGradient id="paint4_linear_376_9" x1="-30.8054" y1="457.194" x2="27.9406" y2="515.94" gradientUnits="userSpaceOnUse">
<stop offset="0.0524877" stop-color="#D90C9D"/>
<stop offset="0.6" stop-color="#C50C95"/>
<stop offset="1" stop-color="#BB0C92"/>
</linearGradient>
<linearGradient id="paint5_linear_376_9" x1="-31.6904" y1="457.905" x2="21.0088" y2="515.322" gradientUnits="userSpaceOnUse">
<stop offset="0.0524877" stop-color="#D90C9D"/>
<stop offset="0.6" stop-color="#C50C95"/>
<stop offset="1" stop-color="#E86631"/>
</linearGradient>
<radialGradient id="paint6_radial_376_9" cx="0" cy="0" r="1" gradientUnits="userSpaceOnUse" gradientTransform="translate(5.66128 503.524) rotate(65.6277) scale(39.5014 57.9704)">
<stop offset="0.1113" stop-color="#8100FF"/>
<stop offset="1" stop-color="#8100FF" stop-opacity="0"/>
</radialGradient>
<radialGradient id="paint7_radial_376_9" cx="0" cy="0" r="1" gradientUnits="userSpaceOnUse" gradientTransform="translate(-4.53316 459.954) rotate(-178.097) scale(7.07162 7.07159)">
<stop offset="0.1119" stop-color="white"/>
<stop offset="0.1914" stop-color="white" stop-opacity="0.8529"/>
<stop offset="0.6525" stop-color="white" stop-opacity="0"/>
</radialGradient>
<linearGradient id="paint8_linear_376_9" x1="732.91" y1="915.91" x2="742.111" y2="925.111" gradientUnits="userSpaceOnUse">
<stop offset="0.0524877" stop-color="#D90C9D"/>
<stop offset="0.6" stop-color="#C50C95"/>
<stop offset="1" stop-color="#BB0C92"/>
</linearGradient>
<linearGradient id="paint9_linear_376_9" x1="732.771" y1="916.021" x2="741.025" y2="925.014" gradientUnits="userSpaceOnUse">
<stop offset="0.0524877" stop-color="#D90C9D"/>
<stop offset="0.6" stop-color="#C50C95"/>
<stop offset="1" stop-color="#E86631"/>
</linearGradient>
<radialGradient id="paint10_radial_376_9" cx="0" cy="0" r="1" gradientUnits="userSpaceOnUse" gradientTransform="translate(738.621 923.166) rotate(65.6277) scale(6.18696 9.0797)">
<stop offset="0.1113" stop-color="#8100FF"/>
<stop offset="1" stop-color="#8100FF" stop-opacity="0"/>
</radialGradient>
<radialGradient id="paint11_radial_376_9" cx="0" cy="0" r="1" gradientUnits="userSpaceOnUse" gradientTransform="translate(737.025 916.342) rotate(-178.097) scale(1.1076 1.1076)">
<stop offset="0.1119" stop-color="white"/>
<stop offset="0.1914" stop-color="white" stop-opacity="0.8529"/>
<stop offset="0.6525" stop-color="white" stop-opacity="0"/>
</radialGradient>
<linearGradient id="paint12_linear_376_9" x1="406.91" y1="267.91" x2="416.111" y2="277.111" gradientUnits="userSpaceOnUse">
<stop offset="0.0524877" stop-color="#D90C9D"/>
<stop offset="0.6" stop-color="#C50C95"/>
<stop offset="1" stop-color="#BB0C92"/>
</linearGradient>
<linearGradient id="paint13_linear_376_9" x1="406.771" y1="268.021" x2="415.025" y2="277.014" gradientUnits="userSpaceOnUse">
<stop offset="0.0524877" stop-color="#D90C9D"/>
<stop offset="0.6" stop-color="#C50C95"/>
<stop offset="1" stop-color="#E86631"/>
</linearGradient>
<radialGradient id="paint14_radial_376_9" cx="0" cy="0" r="1" gradientUnits="userSpaceOnUse" gradientTransform="translate(412.621 275.166) rotate(65.6277) scale(6.18696 9.0797)">
<stop offset="0.1113" stop-color="#8100FF"/>
<stop offset="1" stop-color="#8100FF" stop-opacity="0"/>
</radialGradient>
<radialGradient id="paint15_radial_376_9" cx="0" cy="0" r="1" gradientUnits="userSpaceOnUse" gradientTransform="translate(541.025 288.342) rotate(-178.097) scale(1.1076 1.1076)">
<stop offset="0.1119" stop-color="white"/>
<stop offset="0.1914" stop-color="white" stop-opacity="0.8529"/>
<stop offset="0.6525" stop-color="white" stop-opacity="0"/>
</radialGradient>
<radialGradient id="paint16_radial_376_9" cx="0" cy="0" r="1" gradientUnits="userSpaceOnUse" gradientTransform="translate(1019 325) rotate(-41.5467) scale(82.1736 36.9957)">
<stop stop-color="#00C2FF"/>
<stop offset="1" stop-color="white" stop-opacity="0"/>
</radialGradient>
<radialGradient id="paint17_radial_376_9" cx="0" cy="0" r="1" gradientUnits="userSpaceOnUse" gradientTransform="translate(333.575 380.81) rotate(48.3768) scale(133.201 59.9881)">
<stop stop-color="#00C2FF"/>
<stop offset="1" stop-color="white" stop-opacity="0"/>
</radialGradient>
<radialGradient id="paint18_radial_376_9" cx="0" cy="0" r="1" gradientUnits="userSpaceOnUse" gradientTransform="translate(706.5 760.5) rotate(90) scale(9.5)">
<stop stop-color="white" stop-opacity="0"/>
<stop offset="1" stop-color="white"/>
</radialGradient>
<radialGradient id="paint19_radial_376_9" cx="0" cy="0" r="1" gradientUnits="userSpaceOnUse" gradientTransform="translate(587.5 808.5) rotate(90) scale(5.5)">
<stop stop-color="white" stop-opacity="0"/>
<stop offset="1" stop-color="white"/>
</radialGradient>
<radialGradient id="paint20_radial_376_9" cx="0" cy="0" r="1" gradientUnits="userSpaceOnUse" gradientTransform="translate(841.5 835.5) rotate(90) scale(24.5)">
<stop stop-color="white" stop-opacity="0"/>
<stop offset="1" stop-color="white"/>
</radialGradient>
</defs>
</svg>
