<svg width="111" height="111" viewBox="0 0 111 111" fill="none" xmlns="http://www.w3.org/2000/svg">
<g opacity="0.28" filter="url(#filter0_f_625_211)">
<mask id="mask0_625_211" style="mask-type:luminance" maskUnits="userSpaceOnUse" x="14" y="14" width="83" height="83">
<path d="M55.5 97C78.4199 97 97 78.4198 97 55.5C97 32.5802 78.4199 14 55.5 14C32.5802 14 14 32.5802 14 55.5C14 78.4198 32.5802 97 55.5 97Z" fill="white"/>
</mask>
<g mask="url(#mask0_625_211)">
<path d="M55.5 97C78.4199 97 97 78.4198 97 55.5C97 32.5802 78.4199 14 55.5 14C32.5802 14 14 32.5802 14 55.5C14 78.4198 32.5802 97 55.5 97Z" fill="url(#paint0_linear_625_211)"/>
</g>
<mask id="mask1_625_211" style="mask-type:luminance" maskUnits="userSpaceOnUse" x="14" y="14" width="83" height="83">
<path d="M55.5 97C78.4199 97 97 78.4198 97 55.5C97 32.5802 78.4199 14 55.5 14C32.5802 14 14 32.5802 14 55.5C14 78.4198 32.5802 97 55.5 97Z" fill="white"/>
</mask>
<g mask="url(#mask1_625_211)">
<path d="M60.1877 111.173C87.4655 111.173 109.579 89.0603 109.579 61.7824C109.579 34.5046 87.4655 12.3916 60.1877 12.3916C32.9099 12.3916 10.7969 34.5046 10.7969 61.7824C10.7969 89.0603 32.9099 111.173 60.1877 111.173Z" fill="url(#paint1_linear_625_211)"/>
</g>
<mask id="mask2_625_211" style="mask-type:luminance" maskUnits="userSpaceOnUse" x="14" y="14" width="83" height="83">
<path d="M55.5 97C78.4199 97 97 78.4198 97 55.5C97 32.5802 78.4199 14 55.5 14C32.5802 14 14 32.5802 14 55.5C14 78.4198 32.5802 97 55.5 97Z" fill="white"/>
</mask>
<g mask="url(#mask2_625_211)">
<path opacity="0.6" d="M79.0236 108.543C49.7982 121.695 18.9655 116.288 9.90559 96.4148C0.845733 76.5416 17.2119 49.6543 46.4373 36.5029C75.6627 23.3515 106.495 28.7581 115.555 48.6314C124.469 68.5046 108.103 95.2458 79.0236 108.543Z" fill="url(#paint2_radial_625_211)"/>
</g>
<path opacity="0.6" d="M45.4132 28.7587C45.2671 32.7041 48.3358 35.9189 52.2812 36.065C56.2266 36.2112 59.4414 33.1425 59.5875 29.1971C59.7337 25.2517 56.665 22.0369 52.7196 21.8908C48.7741 21.7446 45.5593 24.8133 45.4132 28.7587Z" fill="url(#paint3_radial_625_211)"/>
</g>
<defs>
<filter id="filter0_f_625_211" x="0" y="0" width="111" height="111" filterUnits="userSpaceOnUse" color-interpolation-filters="sRGB">
<feFlood flood-opacity="0" result="BackgroundImageFix"/>
<feBlend mode="normal" in="SourceGraphic" in2="BackgroundImageFix" result="shape"/>
<feGaussianBlur stdDeviation="7" result="effect1_foregroundBlur_625_211"/>
</filter>
<linearGradient id="paint0_linear_625_211" x1="26.1946" y1="26.1941" x2="84.9406" y2="84.94" gradientUnits="userSpaceOnUse">
<stop offset="0.0524877" stop-color="#D90C9D"/>
<stop offset="0.6" stop-color="#C50C95"/>
<stop offset="1" stop-color="#BB0C92"/>
</linearGradient>
<linearGradient id="paint1_linear_625_211" x1="25.3101" y1="26.9043" x2="78.0093" y2="84.3223" gradientUnits="userSpaceOnUse">
<stop offset="0.0524877" stop-color="#B6E9ED"/>
<stop offset="0.6" stop-color="#43A7B0"/>
<stop offset="1" stop-color="#2BA4AE"/>
</linearGradient>
<radialGradient id="paint2_radial_625_211" cx="0" cy="0" r="1" gradientUnits="userSpaceOnUse" gradientTransform="translate(62.6618 72.5238) rotate(65.6277) scale(39.5014 57.9704)">
<stop offset="0.1113" stop-color="#ADD1DC"/>
<stop offset="1" stop-color="#ADD1DC" stop-opacity="0"/>
</radialGradient>
<radialGradient id="paint3_radial_625_211" cx="0" cy="0" r="1" gradientUnits="userSpaceOnUse" gradientTransform="translate(52.4668 28.9537) rotate(-178.097) scale(7.07162 7.07159)">
<stop offset="0.1119" stop-color="white"/>
<stop offset="0.1914" stop-color="white" stop-opacity="0.8529"/>
<stop offset="0.6525" stop-color="white" stop-opacity="0"/>
</radialGradient>
</defs>
</svg>
