<svg width="35" height="35" viewBox="0 0 35 35" fill="none" xmlns="http://www.w3.org/2000/svg">
<g opacity="0.43">
<mask id="mask0_625_181" style="mask-type:luminance" maskUnits="userSpaceOnUse" x="0" y="0" width="35" height="35">
<path d="M17.5 35C27.165 35 35 27.165 35 17.5C35 7.83501 27.165 0 17.5 0C7.83503 0 0 7.83501 0 17.5C0 27.165 7.83503 35 17.5 35Z" fill="white"/>
</mask>
<g mask="url(#mask0_625_181)">
<path d="M17.5 35C27.165 35 35 27.165 35 17.5C35 7.83501 27.165 0 17.5 0C7.83503 0 0 7.83501 0 17.5C0 27.165 7.83503 35 17.5 35Z" fill="url(#paint0_linear_625_181)"/>
</g>
<mask id="mask1_625_181" style="mask-type:luminance" maskUnits="userSpaceOnUse" x="0" y="0" width="35" height="35">
<path d="M17.5 35C27.165 35 35 27.165 35 17.5C35 7.83501 27.165 0 17.5 0C7.83503 0 0 7.83501 0 17.5C0 27.165 7.83503 35 17.5 35Z" fill="white"/>
</mask>
<g mask="url(#mask1_625_181)">
<path d="M19.4759 40.9772C30.9786 40.9772 40.3034 31.6524 40.3034 20.1497C40.3034 8.64703 30.9786 -0.677734 19.4759 -0.677734C7.97321 -0.677734 -1.35156 8.64703 -1.35156 20.1497C-1.35156 31.6524 7.97321 40.9772 19.4759 40.9772Z" fill="url(#paint1_linear_625_181)"/>
</g>
<mask id="mask2_625_181" style="mask-type:luminance" maskUnits="userSpaceOnUse" x="0" y="0" width="35" height="35">
<path d="M17.5 35C27.165 35 35 27.165 35 17.5C35 7.83501 27.165 0 17.5 0C7.83503 0 0 7.83501 0 17.5C0 27.165 7.83503 35 17.5 35Z" fill="white"/>
</mask>
<g mask="url(#mask2_625_181)">
<path opacity="0.6" d="M27.4199 39.8677C15.096 45.4135 2.09424 43.1335 -1.72618 34.7533C-5.5466 26.373 1.35481 15.0349 13.6788 9.48916C26.0027 3.94338 39.0045 6.22331 42.8249 14.6036C46.5837 22.9839 39.6823 34.2603 27.4199 39.8677Z" fill="url(#paint2_radial_625_181)"/>
</g>
<path opacity="0.6" d="M13.2463 6.22342C13.1846 7.88716 14.4787 9.24279 16.1424 9.30441C17.8061 9.36603 19.1618 8.07203 19.2234 6.40829C19.285 4.74456 17.991 3.38893 16.3272 3.32731C14.6635 3.26569 13.3079 4.55969 13.2463 6.22342Z" fill="url(#paint3_radial_625_181)"/>
</g>
<defs>
<linearGradient id="paint0_linear_625_181" x1="5.14229" y1="5.1421" x2="29.9147" y2="29.9145" gradientUnits="userSpaceOnUse">
<stop offset="0.0524877" stop-color="#D90C9D"/>
<stop offset="0.6" stop-color="#C50C95"/>
<stop offset="1" stop-color="#BB0C92"/>
</linearGradient>
<linearGradient id="paint1_linear_625_181" x1="4.76849" y1="5.4421" x2="26.991" y2="29.6545" gradientUnits="userSpaceOnUse">
<stop offset="0.0524877" stop-color="#CBEFF2"/>
<stop offset="0.6" stop-color="#8FDAE0"/>
<stop offset="1" stop-color="#23B6C2"/>
</linearGradient>
<radialGradient id="paint2_radial_625_181" cx="0" cy="0" r="1" gradientUnits="userSpaceOnUse" gradientTransform="translate(20.5204 24.6787) rotate(65.6277) scale(16.6572 24.4453)">
<stop offset="0.1113" stop-color="#8100FF"/>
<stop offset="1" stop-color="#8100FF" stop-opacity="0"/>
</radialGradient>
<radialGradient id="paint3_radial_625_181" cx="0" cy="0" r="1" gradientUnits="userSpaceOnUse" gradientTransform="translate(16.2207 6.30566) rotate(-178.097) scale(2.98201 2.982)">
<stop offset="0.1119" stop-color="white"/>
<stop offset="0.1914" stop-color="white" stop-opacity="0.8529"/>
<stop offset="0.6525" stop-color="white" stop-opacity="0"/>
</radialGradient>
</defs>
</svg>
