<svg width="98" height="74" viewBox="0 0 98 74" fill="none" xmlns="http://www.w3.org/2000/svg">
<g clip-path="url(#clip0_331_385)">
<path d="M75.7535 35.6497C76.4046 34.3753 81.8916 35.817 88.0197 38.8677C94.1478 41.9185 98.5861 45.4219 97.9598 46.6963C97.3336 47.9707 91.8218 46.5339 85.6987 43.4832C79.5755 40.4325 75.1074 36.9044 75.7535 35.6497Z" fill="url(#paint0_linear_331_385)"/>
<path d="M5.05449 0.462851C5.70557 -0.811569 11.2025 0.630149 17.3306 3.6858C23.4587 6.74146 27.9119 10.2498 27.2707 11.5242C26.6296 12.7986 21.1277 11.3569 14.9946 8.30619C8.86156 5.25546 4.40838 1.74219 5.05449 0.462851Z" fill="url(#paint1_linear_331_385)"/>
<path d="M75.833 35.5364C75.9105 35.4452 76.012 35.3771 76.1262 35.3396C76.019 35.3901 75.9201 35.4565 75.833 35.5364Z" fill="#5D5D5D"/>
<path style="mix-blend-mode:color" d="M6.42095 47.3753C5.55867 45.8191 4.77897 44.2194 4.08501 42.5827C3.55156 41.3264 3.07112 40.0552 2.64369 38.7693C-0.63381 28.9939 -0.862416 18.468 1.98764 8.56212C2.37862 7.21061 2.82924 5.86238 3.3395 4.51743C3.76693 3.38571 4.24406 2.26383 4.76592 1.14194C4.78208 1.10167 4.80032 1.06226 4.82059 1.02385C4.87714 0.839801 4.95206 0.661783 5.04424 0.492432C4.47268 1.79145 8.89605 5.2752 14.9844 8.30625C21.0727 11.3373 26.6094 12.7938 27.2605 11.5292C27.2811 11.4926 27.2946 11.4526 27.3002 11.4111C27.2583 11.5947 27.1914 11.7718 27.1014 11.9376C24.8071 17.1435 24.2433 22.9366 25.4913 28.4804C26.7393 34.0243 29.7346 39.032 34.0448 42.7807C38.3549 46.5293 43.7568 48.8248 49.4706 49.3358C55.1844 49.8468 60.9144 48.5469 65.8333 45.6236C69.891 43.2481 73.2601 39.8752 75.6144 35.8318C75.6674 35.7203 75.7416 35.62 75.8331 35.5365L75.7535 35.6497C75.1074 36.929 79.5507 40.4325 85.6937 43.4832C91.8367 46.5339 97.279 47.9609 97.9499 46.7111C97.9375 46.7473 97.9208 46.782 97.9002 46.8144C97.4032 47.7001 96.9062 48.5563 96.3744 49.4075C95.7631 50.3916 95.1219 51.3265 94.4559 52.2467C93.6707 53.3243 92.8556 54.3674 91.9958 55.3811C88.941 58.9739 85.4102 62.1418 81.4989 64.799C77.4022 67.5871 72.9302 69.7918 68.2139 71.3482C66.8124 71.8107 65.3976 72.2142 63.9695 72.5587C61.595 73.1264 59.1838 73.5308 56.7529 73.7691C52.6925 74.1724 48.5978 74.0931 44.5564 73.5329C39.0171 72.7725 33.6431 71.1098 28.6521 68.6124C19.2264 63.9452 11.4688 56.5344 6.42095 47.3753Z" fill="url(#paint2_linear_331_385)"/>
<path style="mix-blend-mode:color" d="M75.7533 35.6496L75.8328 35.5364C75.9199 35.4565 76.0188 35.3901 76.1261 35.3396C76.1496 35.3223 76.1768 35.3105 76.2056 35.3051C76.2477 35.2891 76.2909 35.276 76.3348 35.2658H76.3895L76.5584 35.2362C76.608 35.2309 76.658 35.2309 76.7075 35.2362C78.6459 35.0493 83.1289 36.4615 88.0195 38.8971C92.7609 41.2541 96.4934 43.8915 97.6316 45.5546C97.8043 45.7789 97.9264 46.0373 97.9894 46.3124C97.9946 46.3582 97.9946 46.4044 97.9894 46.4502C97.9996 46.4872 97.9996 46.5263 97.9894 46.5633C97.9843 46.6085 97.9743 46.6531 97.9596 46.6962C97.9579 46.7076 97.9579 46.7192 97.9596 46.7306C97.2886 47.9804 91.8116 46.5387 85.7034 43.5027C79.5952 40.4668 75.1072 36.9289 75.7533 35.6496Z" fill="url(#paint3_linear_331_385)"/>
<path style="mix-blend-mode:color" d="M5.04388 0.491963C5.08943 0.3996 5.15372 0.317523 5.23274 0.250856C5.28338 0.214551 5.3385 0.184788 5.39675 0.162286C6.81322 -0.492145 11.8231 0.934811 17.3349 3.68539C22.961 6.4901 27.1607 9.67369 27.3347 11.1646C27.3446 11.2381 27.3446 11.3126 27.3347 11.386C27.3347 11.386 27.3347 11.386 27.3347 11.4106C27.329 11.4521 27.3155 11.4922 27.2949 11.5287C26.6438 12.7982 21.1469 11.3614 15.0188 8.30578C8.89072 5.25012 4.47232 1.79099 5.04388 0.491963Z" fill="url(#paint4_linear_331_385)"/>
</g>
<defs>
<linearGradient id="paint0_linear_331_385" x1="91.7452" y1="41.0763" x2="64.6112" y2="41.4572" gradientUnits="userSpaceOnUse">
<stop stop-color="#F1F2F2"/>
<stop offset="0.18" stop-color="#EDEEEE"/>
<stop offset="0.38" stop-color="#E0E0E0"/>
<stop offset="0.59" stop-color="#CBCACA"/>
<stop offset="0.8" stop-color="#AEACAC"/>
<stop offset="1" stop-color="#8A8787"/>
</linearGradient>
<linearGradient id="paint1_linear_331_385" x1="26.9538" y1="2.85266" x2="-1.38429" y2="10.5769" gradientUnits="userSpaceOnUse">
<stop offset="0.01" stop-color="#F1F2F2"/>
<stop offset="0.22" stop-color="#EEEFEF"/>
<stop offset="0.41" stop-color="#E4E4E4"/>
<stop offset="0.59" stop-color="#D2D2D2"/>
<stop offset="0.76" stop-color="#BAB9B9"/>
<stop offset="0.92" stop-color="#9C9999"/>
<stop offset="1" stop-color="#8A8787"/>
</linearGradient>
<linearGradient id="paint2_linear_331_385" x1="71.2896" y1="11.755" x2="12.6526" y2="56.4508" gradientUnits="userSpaceOnUse">
<stop stop-color="#03ECFA"/>
<stop offset="1" stop-color="#EC24A1"/>
</linearGradient>
<linearGradient id="paint3_linear_331_385" x1="91.6201" y1="37.6265" x2="82.1604" y2="44.8371" gradientUnits="userSpaceOnUse">
<stop stop-color="#5F1BBA"/>
<stop offset="1" stop-color="#EC24A1"/>
</linearGradient>
<linearGradient id="paint4_linear_331_385" x1="20.938" y1="2.43733" x2="11.4626" y2="9.65999" gradientUnits="userSpaceOnUse">
<stop stop-color="#5F1BBA"/>
<stop offset="1" stop-color="#EC24A1"/>
</linearGradient>
<clipPath id="clip0_331_385">
<rect width="98" height="74" fill="white"/>
</clipPath>
</defs>
</svg>
