<svg width="138" height="51" viewBox="0 0 138 51" fill="none" xmlns="http://www.w3.org/2000/svg">
<g clip-path="url(#clip0_571_422)">
<path d="M13.2461 11.9843V49.9897H23.8627V12.114C20.4939 9.83899 14.2367 11.3414 13.2461 11.9843Z" fill="black"/>
<path d="M43.3604 31.4189C43.3381 32.9687 43.5355 34.5139 43.9469 36.008C44.2828 37.2376 44.8599 38.3877 45.6446 39.3912C46.3717 40.297 47.3043 41.0155 48.3647 41.4868C49.5205 41.9863 50.7692 42.2333 52.0277 42.2114C53.0614 42.2304 54.0896 42.0563 55.0597 41.6981C55.9019 41.3791 56.6728 40.8963 57.328 40.2774C57.9727 39.6534 58.4992 38.9175 58.8821 38.1054C59.2968 37.2221 59.5947 36.2884 59.7681 35.3278H69.7982C69.6179 36.8087 69.2744 38.265 68.7739 39.67C68.2969 41.0067 67.6621 42.2814 66.8831 43.467C66.122 44.6225 65.2188 45.6774 64.1948 46.6069C63.1647 47.5428 62.0173 48.3404 60.7818 48.9795C59.4894 49.6443 58.1206 50.1477 56.706 50.4784C55.1696 50.8335 53.5973 51.0088 52.0206 51.0006C49.4202 51.031 46.8386 50.5564 44.4183 49.6029C42.1809 48.7159 40.1552 47.3665 38.4729 45.6425C36.7753 43.874 35.4596 41.7737 34.608 39.4729C33.6901 37.0647 33.2311 34.3788 33.2311 31.4154C33.2175 29.5441 33.4239 27.6778 33.846 25.8549C34.2325 24.1931 34.8336 22.5889 35.6341 21.0829C36.393 19.662 37.3474 18.3552 38.4694 17.2007C39.5753 16.0632 40.8366 15.0885 42.2156 14.3059C43.6448 13.4976 45.176 12.886 46.7681 12.4873C48.4821 12.0578 50.2431 11.8454 52.0099 11.855C54.3349 11.8258 56.646 12.2168 58.8325 13.0094C62.8126 14.4528 66.0774 17.3897 67.9375 21.2001C68.9119 23.1885 69.5429 25.328 69.8035 27.5278H59.7735C59.5976 26.5678 59.2999 25.6344 58.8874 24.7502C58.5083 23.9359 57.9813 23.1994 57.3333 22.5782C56.6737 21.9607 55.9002 21.4781 55.0562 21.1575C54.0858 20.7999 53.0578 20.6259 52.0241 20.6442C50.7669 20.6206 49.5188 20.8627 48.3612 21.3546C47.299 21.8228 46.3657 22.5419 45.641 23.4502C44.8594 24.4577 44.2837 25.6098 43.9469 26.8405C43.535 28.3309 43.3375 29.8726 43.3604 31.4189Z" fill="black"/>
<path d="M72.4272 26.462C72.4272 24.2124 72.8407 22.1867 73.6677 20.3847C74.4765 18.5948 75.6899 17.0182 77.2118 15.7796C78.7476 14.5163 80.6154 13.5455 82.8152 12.8671C85.0149 12.1886 87.49 11.8488 90.2402 11.8477C93.0614 11.8477 95.5866 12.21 97.8159 12.9345C100.045 13.6591 101.931 14.7134 103.472 16.0975C105.028 17.4902 106.241 19.225 107.017 21.1661C107.828 23.1646 108.234 25.4319 108.234 27.968V49.9898H98.1633V40.492C97.7788 42.0514 97.1341 43.5345 96.2565 44.8786C95.4201 46.153 94.369 47.2719 93.15 48.1854C91.8958 49.1141 90.4921 49.8205 88.9998 50.2739C87.363 50.7695 85.6608 51.0138 83.9511 50.9985C82.1982 51.02 80.4535 50.7555 78.7855 50.2153C77.325 49.7441 75.9718 48.9885 74.8036 47.9918C73.7069 47.0411 72.8326 45.8599 72.2429 44.5323C71.6231 43.1162 71.3137 41.5834 71.3356 40.0373C71.3068 38.4022 71.6664 36.7836 72.3847 35.3151C73.0957 33.9154 74.1334 32.7085 75.4096 31.7969C76.7245 30.8355 78.3342 30.1003 80.2386 29.5912C82.358 29.0535 84.5384 28.7956 86.7244 28.824H98.1633V27.9662C98.1819 26.7975 97.9941 25.6347 97.6086 24.5315C97.2701 23.5692 96.7258 22.6927 96.0137 21.9635C95.2897 21.2431 94.4142 20.694 93.4513 20.3562C92.342 19.9695 91.1735 19.7813 89.9992 19.8004C88.8597 19.7778 87.7236 19.9342 86.6323 20.2639C85.7608 20.5297 84.9581 20.9838 84.2807 21.5941C83.6594 22.1708 83.1869 22.8899 82.9038 23.6897C82.5946 24.5806 82.4435 25.5188 82.4572 26.462H72.4272ZM87.7646 34.9475C85.67 34.9475 84.0852 35.2985 83.0101 36.0006C81.935 36.7027 81.3975 37.7381 81.3975 39.1067C81.3975 40.5097 81.9604 41.5901 83.0863 42.3478C84.2122 43.1056 85.8224 43.4839 87.917 43.4827C89.3005 43.4964 90.6785 43.3068 92.007 42.9197C93.1674 42.5861 94.2636 42.0596 95.2499 41.3622C96.1255 40.7414 96.8559 39.9373 97.3906 39.0055C97.9025 38.1061 98.169 37.0875 98.1633 36.0521V34.9581L87.7646 34.9475Z" fill="black"/>
<path d="M122.757 49.9902H112.693V0.155273L122.757 6.00348V49.9902Z" fill="black"/>
<path d="M137.417 49.9902H127.354V0.155273L137.417 6.00348V49.9902Z" fill="black"/>
<path d="M9.13158 13.7363H0V15.5798H9.13158V13.7363Z" fill="black"/>
<path d="M0.248803 12.2985C-0.195992 8.29547 1.29788 5.19466 4.47524 3.52704C8.94976 1.18634 13.605 0 18.3135 0C22.8323 0 27.438 1.09221 32.0029 3.24644C35.2653 4.79507 36.8868 7.96159 36.5979 12.2097H27.9147C26.7132 6.72198 22.5399 5.97075 18.597 5.97075C18.0778 5.97075 17.5249 5.98496 16.8551 6.0116C12.4248 6.18919 9.90492 8.25107 9.14292 12.2985H0.248803Z" fill="black"/>
<path d="M36.8015 13.9346H27.6699V15.778H36.8015V13.9346Z" fill="black"/>
</g>
<defs>
<clipPath id="clip0_571_422">
<rect width="137.417" height="51" fill="white"/>
</clipPath>
</defs>
</svg>
