<svg width="97" height="36" viewBox="0 0 97 36" fill="none" xmlns="http://www.w3.org/2000/svg">
<g clip-path="url(#clip0_529_4773)">
<path d="M9.34961 8.45948V35.2868H16.8437V8.55099C14.4657 6.94511 10.0489 8.00567 9.34961 8.45948Z" fill="#333333"/>
<path d="M30.6075 22.1781C30.5918 23.272 30.7312 24.3627 31.0216 25.4174C31.2587 26.2854 31.6661 27.0972 32.2199 27.8055C32.7332 28.445 33.3915 28.9522 34.14 29.2848C34.9559 29.6374 35.8373 29.8118 36.7256 29.7963C37.4553 29.8097 38.1811 29.6868 38.8659 29.434C39.4604 29.2088 40.0046 28.868 40.467 28.4311C40.9221 27.9906 41.2938 27.4712 41.5641 26.8979C41.8568 26.2744 42.0671 25.6153 42.1895 24.9373H49.2695C49.1423 25.9826 48.8998 27.0106 48.5465 28.0024C48.2098 28.9459 47.7617 29.8457 47.2118 30.6826C46.6746 31.4982 46.037 32.2429 45.3142 32.899C44.5871 33.5596 43.7772 34.1226 42.905 34.5738C41.9928 35.043 41.0265 35.3984 40.028 35.6318C38.9435 35.8825 37.8336 36.0062 36.7206 36.0004C34.8851 36.0219 33.0627 35.6869 31.3543 35.0138C29.775 34.3877 28.345 33.4352 27.1576 32.2183C25.9592 30.9699 25.0305 29.4873 24.4294 27.8632C23.7815 26.1633 23.4575 24.2674 23.4575 22.1756C23.4479 20.8547 23.5936 19.5372 23.8915 18.2505C24.1643 17.0775 24.5886 15.9451 25.1537 14.882C25.6894 13.8791 26.3631 12.9566 27.1551 12.1416C27.9358 11.3387 28.8261 10.6507 29.7995 10.0983C30.8083 9.52775 31.8892 9.09597 33.013 8.81455C34.2229 8.5114 35.466 8.36147 36.7131 8.36827C38.3542 8.34759 39.9856 8.62362 41.529 9.18312C44.3385 10.202 46.6431 12.2751 47.9561 14.9648C48.6439 16.3683 49.0893 17.8786 49.2733 19.4314H42.1933C42.0692 18.7538 41.859 18.0949 41.5678 17.4708C41.3002 16.8959 40.9282 16.376 40.4708 15.9376C40.0052 15.5017 39.4592 15.161 38.8634 14.9347C38.1785 14.6823 37.4528 14.5595 36.7231 14.5724C35.8357 14.5557 34.9547 14.7266 34.1375 15.0738C33.3877 15.4044 32.7289 15.9119 32.2174 16.5531C31.6657 17.2643 31.2593 18.0775 31.0216 18.9463C30.7308 19.9983 30.5914 21.0865 30.6075 22.1781Z" fill="#333333"/>
<path d="M51.1252 18.6793C51.1252 17.0914 51.4171 15.6614 52.0008 14.3894C52.5718 13.126 53.4283 12.0131 54.5026 11.1388C55.5867 10.247 56.9051 9.56173 58.4579 9.08285C60.0107 8.60397 61.7577 8.36412 63.6991 8.36328C65.6905 8.36328 67.473 8.61902 69.0466 9.13049C70.6203 9.64197 71.9512 10.3862 73.0395 11.3632C74.1378 12.3462 74.9941 13.5708 75.5413 14.941C76.1142 16.3517 76.4006 17.9522 76.4006 19.7423V35.2871H69.2918V28.5828C69.0204 29.6836 68.5654 30.7304 67.9459 31.6792C67.3555 32.5788 66.6135 33.3687 65.7531 34.0135C64.8678 34.669 63.8769 35.1677 62.8235 35.4877C61.6681 35.8375 60.4666 36.01 59.2597 35.9992C58.0224 36.0143 56.7908 35.8276 55.6134 35.4463C54.5825 35.1137 53.6273 34.5803 52.8026 33.8768C52.0285 33.2057 51.4114 32.3719 50.9951 31.4348C50.5576 30.4352 50.3392 29.3532 50.3546 28.2619C50.3343 27.1076 50.5881 25.9651 51.0952 24.9285C51.5971 23.9405 52.3296 23.0886 53.2304 22.4451C54.1586 21.7665 55.2948 21.2475 56.6391 20.8881C58.1351 20.5086 59.6742 20.3265 61.2174 20.3466H69.2918V19.7411C69.305 18.9161 69.1724 18.0953 68.9003 17.3166C68.6614 16.6373 68.2771 16.0186 67.7745 15.5039C67.2634 14.9954 66.6454 14.6077 65.9657 14.3693C65.1827 14.0963 64.3579 13.9635 63.529 13.977C62.7246 13.9611 61.9226 14.0715 61.1523 14.3042C60.5372 14.4918 59.9706 14.8123 59.4924 15.2431C59.0538 15.6502 58.7203 16.1578 58.5204 16.7224C58.3022 17.3512 58.1955 18.0135 58.2052 18.6793H51.1252ZM61.9516 24.669C60.4731 24.669 59.3544 24.9168 58.5955 25.4124C57.8366 25.908 57.4572 26.6389 57.4572 27.605C57.4572 28.5953 57.8545 29.358 58.6493 29.8928C59.444 30.4277 60.5806 30.6947 62.0592 30.6939C63.0358 30.7036 64.0085 30.5697 64.9462 30.2965C65.7653 30.061 66.5391 29.6894 67.2354 29.1971C67.8534 28.7588 68.369 28.1912 68.7464 27.5335C69.1078 26.8987 69.2959 26.1796 69.2918 25.4488V24.6765L61.9516 24.669Z" fill="#333333"/>
<path d="M86.6526 35.287H79.5488V0.109375L86.6526 4.23752V35.287Z" fill="#333333"/>
<path d="M97.0003 35.287H89.8965V0.109375L97.0003 4.23752V35.287Z" fill="#333333"/>
<path d="M6.44582 9.69629H0V10.9975H6.44582V9.69629Z" fill="#333333"/>
<path d="M0.175396 8.68127C-0.138577 5.85563 0.91592 3.66682 3.15876 2.48968C6.31725 0.837413 9.60333 0 12.9269 0C16.1167 0 19.3677 0.770972 22.59 2.2916C24.8929 3.38475 26.0375 5.61995 25.8336 8.61859H19.7042C18.8561 4.74492 15.9103 4.21465 13.1271 4.21465C12.7606 4.21465 12.3703 4.22467 11.8975 4.24348C8.77024 4.36884 6.99148 5.82429 6.4536 8.68127H0.175396Z" fill="#333333"/>
<path d="M25.9771 9.83594H19.5312V11.1372H25.9771V9.83594Z" fill="#333333"/>
</g>
<defs>
<clipPath id="clip0_529_4773">
<rect width="97" height="36" fill="white"/>
</clipPath>
</defs>
</svg>
