<svg width="372" height="356" viewBox="0 0 372 356" fill="none" xmlns="http://www.w3.org/2000/svg">
<path d="M0.0078125 33.8916C0.0078125 15.6663 14.7824 0.891602 33.0078 0.891602H338.945C357.171 0.891602 371.945 15.6662 371.945 33.8916V354.455H0.0078125V33.8916Z" fill="url(#paint0_linear_3378_166)"/>
<path d="M3.97656 353.933V36.9264C4.47248 26.1332 11.3161 4.54688 34.7234 4.54688C58.1307 4.54688 246.81 4.54688 338.224 4.54688C348.308 5.76546 368.475 13.8429 368.475 36.4042C368.475 58.9654 368.475 258.535 368.475 355.5" stroke="url(#paint1_linear_3378_166)"/>
<path d="M7.94141 38.2032C7.94141 21.6346 21.3729 8.20312 37.9414 8.20312H335.001C351.57 8.20312 365.001 21.6346 365.001 38.2031V354.456H7.94141V38.2032Z" fill="url(#paint2_linear_3378_166)"/>
<rect opacity="0.35" x="330.48" y="22.9033" width="21" height="10.3333" rx="2.16667" stroke="#191919"/>
<path opacity="0.4" d="M352.98 26.0703V30.0703C353.785 29.7315 354.309 28.9434 354.309 28.0703C354.309 27.1972 353.785 26.4091 352.98 26.0703" fill="#191919"/>
<rect x="331.98" y="24.4033" width="18" height="7.33333" rx="1.33333" fill="#191919"/>
<path fill-rule="evenodd" clip-rule="evenodd" d="M318.539 25.5505C320.702 25.5506 322.782 26.44 324.349 28.0347C324.467 28.1578 324.656 28.1563 324.772 28.0312L325.9 26.8127C325.959 26.7492 325.992 26.6633 325.991 26.5739C325.991 26.4845 325.957 26.399 325.898 26.3364C321.784 22.117 315.294 22.117 311.18 26.3364C311.12 26.399 311.086 26.4845 311.086 26.5739C311.085 26.6632 311.118 26.7492 311.177 26.8127L312.306 28.0312C312.422 28.1565 312.61 28.158 312.728 28.0347C314.296 26.4399 316.376 25.5505 318.539 25.5505ZM318.539 29.5152C319.727 29.5151 320.873 29.9877 321.754 30.8413C321.873 30.9625 322.06 30.9598 322.177 30.8354L323.303 29.6168C323.363 29.5529 323.396 29.4662 323.395 29.3761C323.394 29.286 323.359 29.2 323.299 29.1374C320.617 26.4673 316.463 26.4673 313.781 29.1374C313.72 29.2 313.686 29.286 313.685 29.3762C313.684 29.4663 313.717 29.553 313.777 29.6168L314.903 30.8354C315.019 30.9598 315.207 30.9625 315.326 30.8413C316.206 29.9883 317.351 29.5157 318.539 29.5152ZM320.796 32.1826C320.798 32.273 320.765 32.3601 320.705 32.4234L318.755 34.5287C318.698 34.5906 318.62 34.6254 318.539 34.6254C318.458 34.6254 318.38 34.5906 318.323 34.5287L316.373 32.4234C316.313 32.36 316.28 32.2729 316.281 32.1825C316.283 32.0922 316.32 32.0066 316.382 31.946C317.627 30.8191 319.451 30.8191 320.696 31.946C320.758 32.0066 320.795 32.0922 320.796 32.1826Z" fill="#191919"/>
<path fill-rule="evenodd" clip-rule="evenodd" d="M305.205 23.5234H304.229C303.69 23.5234 303.253 23.9911 303.253 24.5679V33.6203C303.253 34.1971 303.69 34.6648 304.229 34.6648H305.205C305.744 34.6648 306.181 34.1971 306.181 33.6203V24.5679C306.181 23.9911 305.744 23.5234 305.205 23.5234ZM299.674 25.9606H300.65C301.189 25.9606 301.626 26.4283 301.626 27.0052V33.6203C301.626 34.1972 301.189 34.6648 300.65 34.6648H299.674C299.135 34.6648 298.699 34.1972 298.699 33.6203V27.0052C298.699 26.4283 299.135 25.9606 299.674 25.9606ZM296.097 28.3977H295.121C294.582 28.3977 294.145 28.8654 294.145 29.4422V33.6202C294.145 34.1971 294.582 34.6647 295.121 34.6647H296.097C296.636 34.6647 297.073 34.1971 297.073 33.6202V29.4422C297.073 28.8654 296.636 28.3977 296.097 28.3977ZM291.542 30.4868H290.566C290.027 30.4868 289.59 30.9544 289.59 31.5313V33.6203C289.59 34.1972 290.027 34.6648 290.566 34.6648H291.542C292.081 34.6648 292.518 34.1972 292.518 33.6203V31.5313C292.518 30.9544 292.081 30.4868 291.542 30.4868Z" fill="#191919"/>
<path d="M40.1951 23.5679C37.9026 23.5679 36.2693 25.1353 36.2693 27.2812V27.2959C36.2693 29.3027 37.6902 30.7822 39.719 30.7822C41.1692 30.7822 42.0921 30.0425 42.4803 29.2075H42.6268C42.6268 29.2881 42.6194 29.3687 42.6194 29.4492C42.5389 31.4707 41.8284 33.1113 40.1512 33.1113C39.221 33.1113 38.5691 32.6279 38.2908 31.8882L38.2688 31.8149H36.4085L36.4231 31.8955C36.7601 33.5142 38.2103 34.6641 40.1512 34.6641C42.8099 34.6641 44.4139 32.5547 44.4139 28.9951V28.9805C44.4139 25.1719 42.451 23.5679 40.1951 23.5679ZM40.1878 29.332C38.9866 29.332 38.115 28.4531 38.115 27.23V27.2153C38.115 26.0361 39.0452 25.106 40.2098 25.106C41.3816 25.106 42.2972 26.0508 42.2972 27.2593V27.2739C42.2972 28.4678 41.3816 29.332 40.1878 29.332ZM47.4391 27.5522C48.1129 27.5522 48.6036 27.0396 48.6036 26.395C48.6036 25.7432 48.1129 25.2378 47.4391 25.2378C46.7726 25.2378 46.2745 25.7432 46.2745 26.395C46.2745 27.0396 46.7726 27.5522 47.4391 27.5522ZM47.4391 32.9868C48.1129 32.9868 48.6036 32.4814 48.6036 31.8296C48.6036 31.1777 48.1129 30.6724 47.4391 30.6724C46.7726 30.6724 46.2745 31.1777 46.2745 31.8296C46.2745 32.4814 46.7726 32.9868 47.4391 32.9868ZM55.5912 34.4004H57.4003V32.3716H58.8212V30.8115H57.4003V23.8315H54.727C53.2914 26.0142 51.7899 28.4458 50.4203 30.8262V32.3716H55.5912V34.4004ZM52.1781 30.8555V30.7456C53.2035 28.9512 54.4267 26.9956 55.5106 25.3403H55.6205V30.8555H52.1781ZM62.9011 34.4004H64.7907V23.8315H62.9084L60.1472 25.7725V27.5522L62.7766 25.6919H62.9011V34.4004Z" fill="#191919"/>
<rect x="145.805" y="17.6035" width="82.3222" height="20.89" rx="10.445" fill="black"/>
<defs>
<linearGradient id="paint0_linear_3378_166" x1="185.977" y1="0.891602" x2="185.977" y2="354.456" gradientUnits="userSpaceOnUse">
<stop/>
<stop offset="1" stop-opacity="0"/>
</linearGradient>
<linearGradient id="paint1_linear_3378_166" x1="186.226" y1="4.54687" x2="186.226" y2="355.5" gradientUnits="userSpaceOnUse">
<stop stop-color="white"/>
<stop offset="1" stop-color="white" stop-opacity="0"/>
</linearGradient>
<linearGradient id="paint2_linear_3378_166" x1="186.471" y1="312.153" x2="186.471" y2="354.456" gradientUnits="userSpaceOnUse">
<stop stop-color="white"/>
<stop offset="1" stop-color="white" stop-opacity="0"/>
</linearGradient>
</defs>
</svg>
