<svg width="140" height="115" viewBox="0 0 140 115" fill="none" xmlns="http://www.w3.org/2000/svg">
<g clip-path="url(#clip0_967_235)">
<path fill-rule="evenodd" clip-rule="evenodd" d="M53.3353 45.1253C53.2589 44.7461 53.0589 44.4029 52.7667 44.1494C52.5376 43.9353 52.2505 43.7937 51.9412 43.7422C51.9952 44.0492 52.138 44.3337 52.3521 44.5603C52.6077 44.853 52.9538 45.0518 53.3353 45.1253ZM53.2143 43.6578C53.4022 43.8235 53.5642 44.0164 53.6949 44.2301C53.8256 44.0164 53.9876 43.8235 54.1755 43.6578C54.5429 43.3145 55.0167 43.1074 55.5182 43.0708C55.6231 43.0597 55.7289 43.0597 55.8337 43.0708C55.9037 43.0826 55.968 43.1163 56.0175 43.1671C56.067 43.2179 56.099 43.2831 56.1089 43.3533C56.1242 43.454 56.1304 43.5559 56.1272 43.6578C56.0871 44.158 55.879 44.63 55.5366 44.9969C55.172 45.4081 54.6797 45.6847 54.1388 45.782C53.9921 45.8053 53.8433 45.814 53.6949 45.8077C53.5452 45.8141 53.3953 45.8055 53.2473 45.782C52.7075 45.6847 52.2162 45.4081 51.8532 44.9969C51.5093 44.6309 51.3009 44.1585 51.2625 43.6578C51.2594 43.5559 51.2655 43.454 51.2809 43.3533C51.2908 43.2831 51.3228 43.2179 51.3723 43.1671C51.4217 43.1163 51.4861 43.0826 51.556 43.0708C51.6609 43.0597 51.7666 43.0597 51.8715 43.0708C52.373 43.1074 52.8469 43.3145 53.2143 43.6578ZM54.6194 44.1567C54.3291 44.4082 54.1304 44.7488 54.0544 45.1253C54.4356 45.0508 54.7813 44.8521 55.0376 44.5603C55.2503 44.3327 55.393 44.0487 55.4485 43.7422C55.138 43.7955 54.8499 43.9383 54.6194 44.1531V44.1567Z" fill="#7732BC"/>
<path fill-rule="evenodd" clip-rule="evenodd" d="M65.9277 35.9862C65.9277 35.8977 65.9628 35.8127 66.0254 35.7501C66.0881 35.6875 66.173 35.6523 66.2615 35.6523C66.3501 35.6523 66.435 35.6875 66.4976 35.7501C66.5602 35.8127 66.5954 35.8977 66.5954 35.9862C66.5954 36.5622 66.566 37.1859 66.5293 37.7802C66.478 38.5947 66.4119 39.3688 66.3606 39.8787C65.946 43.94 56.6055 46.409 53.9456 47.1134H53.9163C53.8722 47.1298 53.8251 47.1369 53.7781 47.134C53.7311 47.1312 53.6852 47.1186 53.6434 47.0969C53.6016 47.0753 53.5648 47.0452 53.5353 47.0084C53.5058 46.9717 53.4843 46.9293 53.4722 46.8837C53.4602 46.8382 53.4577 46.7907 53.4651 46.7442C53.4725 46.6977 53.4895 46.6533 53.5151 46.6137C53.5407 46.5742 53.5742 46.5405 53.6136 46.5147C53.653 46.4889 53.6974 46.4717 53.7439 46.4641H53.7769C56.345 45.789 65.326 43.408 65.6929 39.82C65.7442 39.3174 65.8103 38.558 65.858 37.7472C65.8946 37.1492 65.924 36.5328 65.9277 35.9862Z" fill="#7732BC"/>
<path fill-rule="evenodd" clip-rule="evenodd" d="M69.5828 17.8327C69.6032 17.7461 69.6572 17.6711 69.7329 17.6243C69.8086 17.5776 69.8998 17.5628 69.9864 17.5832C70.073 17.6036 70.1479 17.6576 70.1947 17.7333C70.2415 17.809 70.2563 17.9001 70.2358 17.9867C70.009 18.8666 69.5489 19.6689 68.9041 20.309C68.3607 20.8796 67.6151 21.2142 66.8276 21.2409C63.8926 21.2409 63.6909 22.0407 63.4377 23.0753C63.1846 24.1098 62.8837 25.3022 60.7302 26.2817C60.3633 26.4505 60.4734 26.7953 60.5541 26.9751C60.5681 27.0097 60.5853 27.0428 60.6055 27.0742C60.6183 27.0977 60.6293 27.1223 60.6385 27.1475C60.6691 27.2307 60.6655 27.3227 60.6283 27.4032C60.5912 27.4837 60.5236 27.5461 60.4404 27.5768C60.3572 27.6074 60.2652 27.6038 60.1847 27.5666C60.1042 27.5295 60.0418 27.4618 60.0111 27.3787C59.9868 27.3371 59.9647 27.2942 59.9451 27.2502V27.2319C59.7653 26.8357 59.5379 26.0653 60.4514 25.6507C62.3114 24.8032 62.5682 23.7723 62.7884 22.8918C63.1112 21.5931 63.3643 20.5659 66.8239 20.5659C67.4349 20.5409 68.0118 20.2775 68.4308 19.8321C68.9881 19.2837 69.3851 18.5937 69.5791 17.8363L69.5828 17.8327Z" fill="#7732BC"/>
<path fill-rule="evenodd" clip-rule="evenodd" d="M68.0985 15.9507C68.118 15.8641 68.1711 15.7888 68.2461 15.7413C68.321 15.6939 68.4118 15.6781 68.4984 15.6976C68.585 15.7171 68.6603 15.7701 68.7078 15.8451C68.7553 15.9201 68.771 16.0109 68.7516 16.0975C68.6056 16.8225 68.2299 17.4811 67.6803 17.9759C67.1837 18.3939 66.5994 18.6949 65.9707 18.8564C65.3108 19.0254 64.6385 19.1419 63.9602 19.2049C63.4811 19.2408 63.0067 19.3244 62.5441 19.4544C61.726 19.7479 61.5352 20.3495 61.2821 21.1493C60.9126 22.5634 60.125 23.8332 59.0221 24.7923C58.6893 25.0461 58.4532 25.406 58.3531 25.8125C58.253 26.2189 58.2949 26.6473 58.4718 27.0266C58.6179 27.3503 58.8162 27.6478 59.0588 27.9071C59.7552 28.7062 60.7166 29.2273 61.7663 29.3746C61.8437 29.3915 61.9127 29.4351 61.9612 29.4978C62.0097 29.5604 62.0345 29.6382 62.0315 29.7173C62.0284 29.7965 61.9976 29.8721 61.9444 29.9308C61.8913 29.9895 61.8191 30.0277 61.7407 30.0386C60.5201 29.878 59.3978 29.2843 58.5782 28.3657C58.2887 28.0499 58.052 27.6894 57.8775 27.2981C57.6405 26.7911 57.5823 26.2189 57.7122 25.6746C57.8421 25.1303 58.1525 24.646 58.5929 24.3007C59.5947 23.4154 60.3078 22.2499 60.64 20.9549C60.9482 19.9753 61.1793 19.2379 62.313 18.8307C62.8239 18.6814 63.3489 18.5855 63.8795 18.5445C64.5194 18.4859 65.1536 18.3767 65.7762 18.218C66.3078 18.0841 66.8028 17.8334 67.2254 17.4843C67.6723 17.0791 67.9782 16.5419 68.0985 15.9507Z" fill="#7732BC"/>
<path fill-rule="evenodd" clip-rule="evenodd" d="M69.8814 12.7381C69.9252 12.7336 69.9696 12.7377 70.0119 12.7504C70.0541 12.7631 70.0934 12.784 70.1275 12.812C70.1617 12.84 70.1899 12.8745 70.2106 12.9134C70.2313 12.9524 70.2441 12.995 70.2482 13.0389C70.2564 13.1274 70.2295 13.2155 70.1732 13.2842C70.1168 13.3528 70.0357 13.3965 69.9474 13.4058C69.9474 13.4058 64.1985 13.9121 62.7971 19.0777C62.786 19.1204 62.7665 19.1606 62.7398 19.1958C62.7131 19.231 62.6797 19.2606 62.6415 19.2827C62.6032 19.3049 62.561 19.3193 62.5172 19.325C62.4733 19.3308 62.4288 19.3277 62.3862 19.3161C62.3 19.2921 62.2268 19.2352 62.1822 19.1576C62.1376 19.0801 62.1252 18.9881 62.1477 18.9016C63.6739 13.2848 69.863 12.7381 69.8814 12.7381Z" fill="#7732BC"/>
<path fill-rule="evenodd" clip-rule="evenodd" d="M61.0048 25.6813C61.0135 25.5983 61.0526 25.5215 61.1146 25.4656C61.1765 25.4098 61.257 25.3789 61.3405 25.3789C61.4239 25.3789 61.5044 25.4098 61.5664 25.4656C61.6283 25.5215 61.6675 25.5983 61.6761 25.6813C61.6628 26.1469 61.6836 26.6128 61.7385 27.0754C61.8119 27.6477 61.9513 28.4035 62.2265 29.6435C62.531 31.0119 64.0021 33.2755 65.7337 35.0549C67.1462 36.5223 68.7164 37.623 69.9197 37.623C69.9668 37.618 70.0143 37.623 70.0593 37.6377C70.1043 37.6523 70.1456 37.6762 70.1808 37.7079C70.2159 37.7395 70.244 37.7782 70.2632 37.8214C70.2825 37.8646 70.2924 37.9114 70.2924 37.9586C70.2924 38.0059 70.2825 38.0527 70.2632 38.0959C70.244 38.1391 70.2159 38.1778 70.1808 38.2094C70.1456 38.2411 70.1043 38.265 70.0593 38.2796C70.0143 38.2942 69.9668 38.2993 69.9197 38.2943C68.5183 38.2943 66.7793 37.0873 65.2531 35.5171C63.4445 33.6571 61.8999 31.2577 61.5844 29.7792C61.3019 28.5099 61.1589 27.7358 61.0892 27.1561C61.0267 26.6671 60.9985 26.1743 61.0048 25.6813Z" fill="#7732BC"/>
<path fill-rule="evenodd" clip-rule="evenodd" d="M58.636 28.2267C58.6559 28.1401 58.7095 28.0649 58.7848 28.0178C58.8601 27.9707 58.9511 27.9554 59.0377 27.9753C59.1243 27.9953 59.1994 28.0488 59.2466 28.1242C59.2937 28.1995 59.309 28.2905 59.289 28.3771C59.0357 29.3899 58.6599 30.3681 58.17 31.29C57.5244 32.6144 57.0181 33.649 57.7775 35.2192C58.3095 36.3198 59.9347 36.6574 61.5783 37.0059C63.6878 37.4498 65.8267 37.9011 66.2669 39.9409C66.2766 39.984 66.2776 40.0286 66.2699 40.0722C66.2622 40.1157 66.246 40.1573 66.2221 40.1945C66.1982 40.2317 66.1672 40.2638 66.1308 40.2889C66.0944 40.314 66.0534 40.3316 66.0101 40.3408C65.9231 40.3583 65.8327 40.3414 65.7581 40.2934C65.6834 40.2455 65.6304 40.1703 65.6102 40.0839C65.2617 38.4697 63.3356 38.0625 61.4425 37.6626C59.6339 37.2957 57.8509 36.9032 57.1722 35.5127C56.2733 33.6784 56.842 32.508 57.572 31.0149C58.037 30.1314 58.3942 29.1953 58.636 28.2267Z" fill="#7732BC"/>
<path fill-rule="evenodd" clip-rule="evenodd" d="M61.5852 30.007C61.5729 29.9646 61.5691 29.9202 61.5741 29.8763C61.5791 29.8325 61.5927 29.79 61.6142 29.7515C61.6357 29.7129 61.6647 29.679 61.6993 29.6517C61.734 29.6244 61.7738 29.6043 61.8163 29.5924C61.9019 29.5686 61.9935 29.5795 62.0711 29.6228C62.1487 29.6661 62.2061 29.7382 62.2309 29.8235C62.4186 30.6656 62.3985 31.5408 62.1722 32.3733C61.9117 33.7087 61.6806 34.9047 64.19 35.9833C64.2344 35.9967 64.2755 36.0193 64.3108 36.0495C64.346 36.0797 64.3746 36.1169 64.3946 36.1588C64.4146 36.2006 64.4257 36.2462 64.4272 36.2926C64.4286 36.339 64.4203 36.3852 64.4029 36.4282C64.3855 36.4712 64.3593 36.5101 64.326 36.5424C64.2927 36.5748 64.2531 36.5998 64.2095 36.6159C64.166 36.6321 64.1196 36.639 64.0733 36.6362C64.027 36.6334 63.9817 36.6209 63.9405 36.5997C60.9358 35.3083 61.2146 33.8628 61.5301 32.2486C61.7264 31.5164 61.7452 30.7479 61.5852 30.007Z" fill="#7732BC"/>
<path fill-rule="evenodd" clip-rule="evenodd" d="M59.8837 29.2473C59.8823 29.2031 59.8896 29.1591 59.9052 29.1178C59.9209 29.0765 59.9446 29.0387 59.975 29.0067C60.0053 28.9746 60.0418 28.9489 60.0822 28.931C60.1225 28.9131 60.1661 28.9034 60.2102 28.9024C60.2991 28.9004 60.3852 28.9336 60.4498 28.9948C60.5144 29.0559 60.5522 29.1401 60.5551 29.2289C60.5733 29.6549 60.5375 30.0814 60.4487 30.4983C60.3398 30.9513 60.1747 31.3888 59.9571 31.8007C59.9177 31.88 59.8484 31.9404 59.7645 31.9686C59.6805 31.9968 59.5888 31.9905 59.5095 31.9511C59.4302 31.9117 59.3698 31.8424 59.3416 31.7585C59.3134 31.6746 59.3197 31.5828 59.3591 31.5035C59.5507 31.1387 59.6973 30.7518 59.7957 30.3516C59.8712 29.9886 59.9008 29.6176 59.8837 29.2473Z" fill="#7732BC"/>
<path fill-rule="evenodd" clip-rule="evenodd" d="M66.6459 15.4381C66.6905 15.3611 66.7637 15.3047 66.8495 15.2814C66.9354 15.258 67.0271 15.2695 67.1045 15.3134C67.1451 15.3334 67.1812 15.3616 67.2105 15.3961C67.2397 15.4307 67.2616 15.4709 67.2747 15.5142C67.2877 15.5576 67.2918 15.6032 67.2865 15.6481C67.2812 15.6931 67.2667 15.7365 67.2439 15.7756C66.6826 16.7662 65.7764 17.1037 64.8886 17.4339C64.0815 17.7311 63.3037 18.0209 63.0029 18.85C62.9715 18.9327 62.909 18.9997 62.8287 19.0368C62.7485 19.0738 62.6569 19.0779 62.5736 19.0481C62.5321 19.0334 62.4939 19.0105 62.4612 18.9809C62.4285 18.9513 62.402 18.9155 62.3833 18.8756C62.3645 18.8357 62.3539 18.7924 62.3519 18.7484C62.3499 18.7043 62.3567 18.6603 62.3719 18.6189C62.7791 17.5183 63.6999 17.1514 64.6538 16.8066C65.4096 16.5094 66.2057 16.2159 66.6459 15.4381Z" fill="#7732BC"/>
<path fill-rule="evenodd" clip-rule="evenodd" d="M63.9979 23.9049C63.9597 23.9269 63.9175 23.941 63.8738 23.9465C63.8301 23.9519 63.7858 23.9486 63.7434 23.9366C63.701 23.9246 63.6614 23.9043 63.627 23.8768C63.5926 23.8493 63.564 23.8152 63.543 23.7765C63.4994 23.6986 63.4884 23.6067 63.5125 23.5207C63.5366 23.4348 63.5937 23.3619 63.6714 23.3179C64.496 22.8814 65.4259 22.6832 66.3569 22.7456C67.2225 22.7954 68.0482 23.1264 68.7085 23.6885C68.743 23.7179 68.7713 23.7537 68.7919 23.7941C68.8124 23.8344 68.8249 23.8784 68.8285 23.9235C68.832 23.9687 68.8267 24.0141 68.8127 24.0572C68.7987 24.1002 68.7764 24.1401 68.747 24.1746C68.7176 24.209 68.6818 24.2373 68.6414 24.2579C68.6011 24.2785 68.5571 24.2909 68.512 24.2945C68.4668 24.2981 68.4214 24.2927 68.3784 24.2788C68.3353 24.2648 68.2954 24.2425 68.2609 24.2131C67.7114 23.7509 67.0262 23.4804 66.3092 23.4427C65.5107 23.3781 64.7101 23.5382 63.9979 23.9049Z" fill="#7732BC"/>
<path fill-rule="evenodd" clip-rule="evenodd" d="M64.6947 26.0659C64.6611 26.0945 64.6221 26.1163 64.58 26.1298C64.538 26.1433 64.4936 26.1483 64.4496 26.1445C64.4056 26.1408 64.3627 26.1283 64.3236 26.1079C64.2844 26.0875 64.2497 26.0595 64.2214 26.0255C64.1648 25.9568 64.1377 25.8684 64.146 25.7798C64.1542 25.6912 64.1972 25.6094 64.2654 25.5522C64.7934 25.0736 65.4825 24.8116 66.1952 24.8185C66.9255 24.8732 67.6147 25.1776 68.1469 25.6806C68.2141 25.739 68.2553 25.8217 68.2615 25.9104C68.2676 25.9992 68.2383 26.0868 68.1799 26.1539C68.1216 26.221 68.0389 26.2622 67.9502 26.2684C67.8614 26.2746 67.7738 26.2453 67.7067 26.1869C67.2899 25.7872 66.7486 25.5424 66.1732 25.4935C65.6263 25.494 65.0993 25.6981 64.6947 26.0659Z" fill="#7732BC"/>
<path fill-rule="evenodd" clip-rule="evenodd" d="M75.9949 23.2236C76.0343 23.2434 76.0694 23.2708 76.0982 23.3043C76.1269 23.3378 76.1487 23.3766 76.1624 23.4186C76.176 23.4605 76.1812 23.5048 76.1777 23.5488C76.1741 23.5927 76.1619 23.6356 76.1416 23.6748C76.1001 23.754 76.0292 23.8137 75.9442 23.8412C75.8591 23.8686 75.7666 23.8616 75.6867 23.8216C75.0318 23.499 74.3006 23.3632 73.5735 23.429C72.9015 23.4806 72.2614 23.7367 71.7392 24.1627C70.3964 25.2854 71.1522 27.3985 71.5191 28.4295C71.7025 28.9504 71.8236 29.2879 71.5191 29.464C71.4408 29.5423 71.3707 29.6283 71.3099 29.7208L71.2916 29.7429C71.0964 30.0055 70.8792 30.251 70.6422 30.4766C70.5757 30.5283 70.4922 30.5532 70.4083 30.5465C70.3243 30.5398 70.2458 30.5019 70.1884 30.4403C70.1309 30.3787 70.0985 30.2978 70.0977 30.2136C70.0968 30.1293 70.1275 30.0478 70.1836 29.985C70.3991 29.7915 70.5967 29.5791 70.7743 29.3503C70.7733 29.343 70.7733 29.3356 70.7743 29.3283C70.8796 29.1625 71.0153 29.0181 71.1742 28.9027C71.3503 28.7963 70.9467 28.8734 70.8734 28.6643C70.4551 27.4903 69.5966 25.0799 71.2989 23.6601C71.9232 23.1425 72.6918 22.8299 73.5002 22.765C74.358 22.6882 75.2205 22.8467 75.9949 23.2236Z" fill="#7732BC"/>
<path fill-rule="evenodd" clip-rule="evenodd" d="M69.7192 32.5892C69.6385 32.5341 69.5724 32.4791 69.5137 32.4314C69.3743 32.3214 69.2826 32.2443 69.1028 32.314C68.9231 32.3837 68.4608 32.5855 68.105 32.7469C69.2903 33.0306 70.5259 33.0306 71.7113 32.7469C71.3444 32.5855 70.9189 32.3801 70.7134 32.314C70.508 32.248 70.4383 32.314 70.3025 32.4314C70.2438 32.4791 70.1778 32.5341 70.0971 32.5892L70.0347 32.6295C69.9969 32.6573 69.9513 32.6722 69.9045 32.6722C69.8576 32.6722 69.812 32.6573 69.7742 32.6295L69.7192 32.5892ZM69.8109 32.0866L69.921 32.1746L70.0347 32.0866C70.1377 31.9671 70.2765 31.884 70.4305 31.8496C70.5845 31.8153 70.7455 31.8315 70.8895 31.8958C71.2564 32.0425 72.357 32.5488 72.4561 32.5855C72.4852 32.5982 72.5113 32.6168 72.5328 32.6402C72.5543 32.6636 72.5706 32.6912 72.5808 32.7213C72.5995 32.7772 72.5953 32.8383 72.5692 32.8912C72.5431 32.9441 72.4972 32.9845 72.4414 33.0037C70.8024 33.5491 69.0317 33.5542 67.3896 33.0184C67.3473 33.004 67.3104 32.9772 67.2835 32.9416C67.2566 32.906 67.241 32.8631 67.2386 32.8186C67.2362 32.774 67.2472 32.7297 67.2702 32.6915C67.2932 32.6532 67.3271 32.6227 67.3675 32.6039C67.3675 32.6039 68.5489 32.0646 68.9414 31.9105C69.0857 31.8409 69.2488 31.8204 69.4058 31.8522C69.5628 31.884 69.7051 31.9663 69.8109 32.0866Z" fill="#7732BC"/>
<path fill-rule="evenodd" clip-rule="evenodd" d="M68.0754 34.0978C68.0504 34.0824 68.0286 34.0622 68.0113 34.0383C67.994 34.0145 67.9817 33.9875 67.9748 33.9589C67.968 33.9303 67.9669 33.9006 67.9716 33.8715C67.9763 33.8425 67.9866 33.8146 68.0021 33.7896C68.0337 33.7396 68.084 33.7041 68.1417 33.6911C68.1995 33.678 68.2601 33.6884 68.3102 33.7199L68.3432 33.7529C68.7653 34.0687 69.2843 34.227 69.8107 34.2005C69.8701 34.2005 69.927 34.2241 69.969 34.266C70.0109 34.308 70.0345 34.3649 70.0345 34.4243C70.0345 34.4836 70.0109 34.5406 69.969 34.5825C69.927 34.6245 69.8701 34.6481 69.8107 34.6481C69.2028 34.6735 68.6049 34.4867 68.1195 34.1198L68.0754 34.0978Z" fill="#7732BC"/>
<path fill-rule="evenodd" clip-rule="evenodd" d="M71.3396 33.7184C71.3631 33.6947 71.3917 33.6766 71.4231 33.6654C71.4545 33.6541 71.4881 33.6501 71.5213 33.6535C71.5545 33.657 71.5865 33.6678 71.615 33.6852C71.6435 33.7026 71.6677 33.7262 71.6859 33.7542C71.7041 33.7822 71.7158 33.8139 71.7202 33.847C71.7245 33.8801 71.7214 33.9137 71.7111 33.9455C71.7007 33.9772 71.6834 34.0062 71.6604 34.0304C71.6374 34.0546 71.6092 34.0733 71.578 34.0852L71.5304 34.1146C71.0371 34.4881 70.4276 34.6752 69.8097 34.6429C69.7504 34.6429 69.6935 34.6193 69.6515 34.5773C69.6095 34.5354 69.5859 34.4784 69.5859 34.4191C69.5869 34.36 69.6108 34.3037 69.6525 34.2619C69.6943 34.2201 69.7507 34.1962 69.8097 34.1953C70.3361 34.2215 70.8551 34.0632 71.2772 33.7477L71.3396 33.7184Z" fill="#7732BC"/>
<path fill-rule="evenodd" clip-rule="evenodd" d="M59.5391 45.1518C59.5477 45.0688 59.5869 44.992 59.6489 44.9361C59.7108 44.8803 59.7913 44.8494 59.8748 44.8494C59.9582 44.8494 60.0387 44.8803 60.1006 44.9361C60.1626 44.992 60.2018 45.0688 60.2104 45.1518C60.2103 45.522 60.2509 45.891 60.3315 46.2524C60.4149 46.624 60.5379 46.9856 60.6984 47.331C61.4858 48.9023 62.7492 50.1849 64.3084 50.996C66.0534 51.9714 68.0143 52.496 70.0132 52.5222C72.0073 52.4937 73.9628 51.9692 75.7034 50.996C77.2605 50.1827 78.5212 48.8989 79.3061 47.3273C79.4665 46.9819 79.5895 46.6203 79.673 46.2487C79.7535 45.8874 79.7941 45.5183 79.794 45.1481C79.8027 45.0651 79.8418 44.9883 79.9038 44.9324C79.9658 44.8766 80.0463 44.8457 80.1297 44.8457C80.2132 44.8457 80.2936 44.8766 80.3556 44.9324C80.4176 44.9883 80.4567 45.0651 80.4654 45.1481C80.4652 45.5702 80.4184 45.9909 80.326 46.4028C80.2335 46.8196 80.097 47.2255 79.9188 47.6135C79.082 49.3163 77.7269 50.7099 76.0483 51.594C74.1983 52.6247 72.1198 53.1758 70.0022 53.1972C67.8875 53.1706 65.8129 52.6157 63.9672 51.583C62.2858 50.7007 60.927 49.3085 60.0857 47.6061C59.9069 47.2171 59.7704 46.81 59.6785 46.3918C59.5867 45.9848 59.5399 45.569 59.5391 45.1518Z" fill="#7732BC"/>
<path fill-rule="evenodd" clip-rule="evenodd" d="M73.2266 35.9899C73.2352 35.9069 73.2744 35.8301 73.3364 35.7742C73.3983 35.7184 73.4788 35.6875 73.5622 35.6875C73.6457 35.6875 73.7262 35.7184 73.7881 35.7742C73.8501 35.8301 73.8893 35.9069 73.8979 35.9899C73.8979 36.5365 73.9273 37.1529 73.964 37.7509C74.0153 38.5617 74.0814 39.3211 74.1327 39.8237C74.4996 43.4117 83.488 45.7927 86.0487 46.4677L86.2395 46.5191C86.3256 46.5415 86.3993 46.5971 86.4444 46.6739C86.4894 46.7506 86.5022 46.842 86.4798 46.9282C86.4574 47.0143 86.4017 47.088 86.325 47.133C86.2483 47.1781 86.1568 47.1908 86.0707 47.1685L85.8763 47.1171C83.2201 46.4127 73.8796 43.9437 73.465 39.8861C73.4137 39.3761 73.344 38.602 73.2963 37.7876C73.2596 37.1895 73.2302 36.5659 73.2266 35.9899Z" fill="#7732BC"/>
<path fill-rule="evenodd" clip-rule="evenodd" d="M69.5828 17.9773C69.5629 17.8908 69.5779 17.7998 69.6246 17.7243C69.6713 17.6488 69.7459 17.5947 69.8323 17.5738C69.8751 17.5634 69.9197 17.5617 69.9632 17.5686C70.0068 17.5756 70.0485 17.5911 70.0861 17.6143C70.1236 17.6375 70.1561 17.6679 70.1818 17.7038C70.2075 17.7396 70.2259 17.7802 70.2358 17.8232C70.4329 18.5793 70.8295 19.2686 71.3841 19.819C71.8049 20.264 72.3828 20.5272 72.9947 20.5528C76.4543 20.5528 76.7111 21.58 77.0303 22.8787C77.2467 23.7592 77.5035 24.7901 79.3636 25.6376C80.2771 26.0522 80.0533 26.8226 79.8735 27.2188V27.2372C79.8515 27.2922 79.8258 27.3362 79.8112 27.3656C79.7825 27.4507 79.7211 27.5209 79.6406 27.5608C79.5601 27.6008 79.4671 27.607 79.3819 27.5783C79.2968 27.5496 79.2265 27.4883 79.1866 27.4078C79.1467 27.3273 79.1404 27.2342 79.1691 27.1491C79.1803 27.1199 79.1938 27.0917 79.2095 27.0647C79.2095 27.0427 79.2388 27.0097 79.2572 26.9657C79.3379 26.7859 79.448 26.441 79.0811 26.2723C76.9275 25.2927 76.6304 24.071 76.3736 23.0658C76.1168 22.0606 75.926 21.2315 72.9873 21.2315C72.2014 21.2077 71.4561 20.8771 70.9109 20.3106C70.2673 19.6658 69.8086 18.8599 69.5828 17.9773Z" fill="#7732BC"/>
<path fill-rule="evenodd" clip-rule="evenodd" d="M69.8822 13.4055C69.8384 13.4014 69.7958 13.3887 69.7569 13.3681C69.7179 13.3476 69.6834 13.3196 69.6553 13.2857C69.6272 13.2518 69.6061 13.2127 69.5931 13.1706C69.5801 13.1285 69.5755 13.0843 69.5796 13.0404C69.5837 12.9966 69.5964 12.954 69.6169 12.9151C69.6375 12.8761 69.6655 12.8416 69.6994 12.8135C69.7333 12.7854 69.7724 12.7643 69.8145 12.7513C69.8566 12.7383 69.9008 12.7337 69.9446 12.7378C69.9446 12.7378 76.1521 13.2844 77.6746 18.8902C77.6904 18.9341 77.697 18.9808 77.6939 19.0273C77.6907 19.0738 77.678 19.1192 77.6565 19.1606C77.6349 19.2019 77.6051 19.2384 77.5687 19.2676C77.5324 19.2969 77.4904 19.3183 77.4454 19.3305C77.4004 19.3427 77.3534 19.3454 77.3072 19.3385C77.2611 19.3316 77.2169 19.3153 77.1775 19.2905C77.138 19.2656 77.1041 19.2329 77.0779 19.1943C77.0517 19.1558 77.0337 19.1122 77.0252 19.0663C75.6275 13.9118 69.8969 13.4055 69.8822 13.4055Z" fill="#7732BC"/>
<path fill-rule="evenodd" clip-rule="evenodd" d="M69.6947 8.02673C69.7302 7.9454 69.7963 7.88132 69.8787 7.84836C69.9611 7.8154 70.0531 7.81622 70.1349 7.85064C70.1752 7.86817 70.2116 7.89348 70.2421 7.92511C70.2726 7.95674 70.2965 7.99408 70.3125 8.03498C70.3285 8.07587 70.3363 8.11953 70.3354 8.16344C70.3345 8.20735 70.325 8.25066 70.3074 8.29088C70.0909 8.79716 69.3388 9.25575 68.3263 9.87577C65.549 11.5707 60.6623 14.557 61.0365 21.8615C61.0329 21.9455 60.998 22.0252 60.9387 22.0849C60.8794 22.1446 60.7999 22.18 60.7159 22.1841C60.6318 22.1882 60.5493 22.1608 60.4844 22.1072C60.4195 22.0537 60.377 21.9778 60.3651 21.8945C59.9726 14.1938 65.0758 11.0754 67.9777 9.30345C68.8839 8.7458 69.5589 8.33491 69.6947 8.02673Z" fill="#7732BC"/>
<path fill-rule="evenodd" clip-rule="evenodd" d="M69.6922 8.29088C69.6746 8.25066 69.665 8.20735 69.6641 8.16344C69.6632 8.11953 69.671 8.07587 69.6871 8.03498C69.7031 7.99408 69.727 7.95674 69.7575 7.92511C69.7879 7.89348 69.8244 7.86817 69.8646 7.85064C69.9464 7.81622 70.0385 7.8154 70.1209 7.84836C70.2033 7.88132 70.2694 7.9454 70.3049 8.02673C70.4406 8.33491 71.1157 8.76048 72.0218 9.30345C74.766 10.9764 79.473 13.8527 79.6491 20.6765C79.6491 20.9333 79.6124 21.4102 79.5757 21.8358C79.5537 22.0779 79.5317 22.3017 79.5244 22.4595C79.5222 22.5033 79.5114 22.5463 79.4926 22.586C79.4738 22.6256 79.4474 22.6612 79.4149 22.6907C79.3824 22.7202 79.3443 22.7429 79.303 22.7577C79.2617 22.7725 79.2178 22.779 79.174 22.7768C79.1302 22.7746 79.0872 22.7639 79.0475 22.7451C79.0078 22.7263 78.9722 22.6999 78.9428 22.6673C78.9133 22.6348 78.8905 22.5968 78.8757 22.5555C78.861 22.5141 78.8545 22.4703 78.8567 22.4264C78.8567 22.2797 78.886 22.0376 78.908 21.7771C78.9447 21.3699 78.9851 20.9113 78.9814 20.6765C78.8126 14.2159 74.3001 11.457 71.6733 9.85375C70.6607 9.25575 69.9087 8.8045 69.6922 8.29088Z" fill="#7732BC"/>
<path fill-rule="evenodd" clip-rule="evenodd" d="M78.1632 25.703C78.1632 25.6144 78.1983 25.5295 78.261 25.4669C78.3236 25.4043 78.4085 25.3691 78.497 25.3691C78.5856 25.3691 78.6705 25.4043 78.7331 25.4669C78.7957 25.5295 78.8309 25.6144 78.8309 25.703C78.8427 26.1934 78.817 26.684 78.7538 27.1705C78.6805 27.7538 78.5374 28.5242 78.2586 29.7753C77.932 31.2428 76.3875 33.6531 74.5898 35.5131C73.06 37.0833 71.3247 38.2904 69.9196 38.2904C69.8366 38.2817 69.7598 38.2426 69.7039 38.1806C69.6481 38.1186 69.6172 38.0381 69.6172 37.9547C69.6172 37.8712 69.6481 37.7908 69.7039 37.7288C69.7598 37.6668 69.8366 37.6277 69.9196 37.619C71.1229 37.619 72.6931 36.5184 74.1092 35.0509C75.8409 33.2716 77.312 31.0153 77.6165 29.6395C77.888 28.4105 78.0311 27.6547 78.1008 27.0934C78.1543 26.632 78.1752 26.1674 78.1632 25.703Z" fill="#7732BC"/>
<path fill-rule="evenodd" clip-rule="evenodd" d="M80.5313 28.377C80.5226 28.295 80.5442 28.2126 80.5921 28.1455C80.64 28.0783 80.7108 28.031 80.7912 28.0125C80.8716 27.994 80.9559 28.0056 81.0284 28.045C81.1008 28.0845 81.1563 28.1491 81.1843 28.2266C81.4244 29.1899 81.7817 30.1202 82.2483 30.9965C82.982 32.4897 83.547 33.6526 82.6482 35.4943C81.9658 36.8848 80.1864 37.2627 78.3778 37.6442C76.481 38.0441 74.555 38.4513 74.2064 40.0656C74.1871 40.1524 74.1343 40.2282 74.0594 40.2763C73.9845 40.3244 73.8936 40.3409 73.8066 40.3224C73.7202 40.3022 73.645 40.2491 73.5971 40.1745C73.5491 40.0998 73.5322 40.0094 73.5497 39.9225C73.99 37.8827 76.1178 37.4314 78.242 36.9875C79.8856 36.639 81.5072 36.2978 82.0428 35.2008C82.7986 33.649 82.296 32.6327 81.6466 31.29C81.1596 30.3671 80.7851 29.3892 80.5313 28.377Z" fill="#7732BC"/>
<path fill-rule="evenodd" clip-rule="evenodd" d="M77.5924 29.822C77.6168 29.7364 77.6741 29.6639 77.7519 29.6206C77.8296 29.5773 77.9214 29.5666 78.007 29.5909C78.0926 29.6152 78.1651 29.6726 78.2084 29.7503C78.2518 29.8281 78.2625 29.9198 78.2381 30.0055C78.0829 30.7476 78.1068 31.516 78.3078 32.2471C78.6233 33.8613 78.9022 35.3068 75.8975 36.5981C75.8157 36.6326 75.7236 36.6334 75.6412 36.6004C75.5588 36.5675 75.4927 36.5034 75.4572 36.422C75.4397 36.3816 75.4304 36.3381 75.4297 36.294C75.4291 36.2499 75.4372 36.2062 75.4536 36.1652C75.4699 36.1243 75.4943 36.087 75.5251 36.0555C75.556 36.0241 75.5928 35.999 75.6333 35.9818C78.1391 34.9032 77.9079 33.7072 77.6475 32.3718C77.4206 31.5392 77.4017 30.6636 77.5924 29.822Z" fill="#7732BC"/>
<path fill-rule="evenodd" clip-rule="evenodd" d="M79.2708 29.2284C79.2708 29.1845 79.2795 29.1411 79.2962 29.1006C79.313 29.0601 79.3376 29.0233 79.3686 28.9923C79.3996 28.9613 79.4364 28.9367 79.4769 28.9199C79.5174 28.9032 79.5608 28.8945 79.6047 28.8945C79.6485 28.8945 79.6919 28.9032 79.7324 28.9199C79.7729 28.9367 79.8098 28.9613 79.8408 28.9923C79.8718 29.0233 79.8963 29.0601 79.9131 29.1006C79.9299 29.1411 79.9385 29.1845 79.9385 29.2284C79.9211 29.5977 79.952 29.9677 80.0303 30.329C80.1205 30.7366 80.2623 31.1311 80.4522 31.503C80.4916 31.5828 80.4977 31.6749 80.4691 31.7592C80.4406 31.8435 80.3797 31.913 80.2999 31.9524C80.2201 31.9918 80.1279 31.9979 80.0437 31.9694C79.9594 31.9408 79.8899 31.8799 79.8505 31.8002C79.6345 31.3875 79.4694 30.9502 79.3589 30.4978C79.2745 30.0803 79.2449 29.6535 79.2708 29.2284Z" fill="#7732BC"/>
<path fill-rule="evenodd" clip-rule="evenodd" d="M72.688 15.7756C72.6442 15.6983 72.633 15.6067 72.6567 15.521C72.6804 15.4354 72.7372 15.3627 72.8146 15.3189C72.8919 15.2751 72.9835 15.2638 73.0692 15.2876C73.1548 15.3113 73.2276 15.3681 73.2713 15.4454C73.7153 16.2232 74.5114 16.5167 75.2781 16.8065C76.2357 17.1734 77.1528 17.4999 77.5601 18.6189C77.5907 18.7021 77.5871 18.794 77.5499 18.8745C77.5128 18.955 77.4452 19.0175 77.362 19.0481C77.2788 19.0788 77.1868 19.0751 77.1063 19.038C77.0258 19.0008 76.9634 18.9332 76.9327 18.85C76.6282 18.0209 75.8541 17.7494 75.047 17.4339C74.1628 17.0964 73.253 16.7588 72.688 15.7756Z" fill="#7732BC"/>
<path fill-rule="evenodd" clip-rule="evenodd" d="M53.3344 42.1271C53.2579 41.7469 53.058 41.4025 52.7657 41.1476C52.5367 40.9335 52.2495 40.7918 51.9403 40.7403C51.995 41.0482 52.1377 41.3336 52.3512 41.5621C52.6089 41.8522 52.954 42.0505 53.3344 42.1271ZM53.2133 40.6596C53.4005 40.8274 53.5624 41.0214 53.6939 41.2356C53.8255 41.0214 53.9874 40.8274 54.1745 40.6596C54.5377 40.317 55.0054 40.1064 55.5026 40.0616C55.6076 40.0524 55.7131 40.0524 55.8181 40.0616C55.8886 40.0736 55.9533 40.1078 56.0028 40.1593C56.0524 40.2109 56.0841 40.2769 56.0933 40.3478C56.1087 40.4485 56.1149 40.5504 56.1116 40.6523C56.0709 41.1524 55.8628 41.6241 55.5209 41.9914C55.1562 42.4017 54.6637 42.677 54.1232 42.7728C53.9765 42.7974 53.8278 42.8072 53.6793 42.8021C53.5295 42.8073 53.3795 42.7975 53.2317 42.7728C52.6916 42.6784 52.1999 42.4028 51.8376 41.9914C51.4957 41.6241 51.2876 41.1524 51.2469 40.6523C51.2437 40.5504 51.2499 40.4485 51.2652 40.3478C51.2744 40.2769 51.3061 40.2109 51.3557 40.1593C51.4052 40.1078 51.4699 40.0736 51.5404 40.0616C51.6454 40.0524 51.7509 40.0524 51.8559 40.0616C52.3563 40.1024 52.8288 40.309 53.1987 40.6486L53.2133 40.6596ZM54.6184 41.1622C54.3261 41.415 54.1271 41.7587 54.0535 42.1381C54.4344 42.0608 54.7797 41.8611 55.0367 41.5695C55.2494 41.3419 55.392 41.0578 55.4476 40.7513C55.1379 40.8003 54.8495 40.9394 54.6184 41.1512V41.1622Z" fill="#7732BC"/>
<path fill-rule="evenodd" clip-rule="evenodd" d="M53.3344 39.1224C53.2564 38.7458 53.0566 38.4054 52.7657 38.1538C52.5367 37.9398 52.2495 37.7981 51.9403 37.7466C51.9942 38.0537 52.1371 38.3381 52.3512 38.5647C52.6068 38.8574 52.9528 39.0563 53.3344 39.1297V39.1224ZM53.2133 37.6549C53.4012 37.8206 53.5632 38.0135 53.6939 38.2272C53.8246 38.0135 53.9866 37.8206 54.1745 37.6549C54.536 37.3093 55.0044 37.0971 55.5026 37.0532C55.6075 37.0422 55.7132 37.0422 55.8181 37.0532C55.888 37.065 55.9524 37.0987 56.0019 37.1495C56.0513 37.2003 56.0833 37.2655 56.0933 37.3357C56.1086 37.4364 56.1148 37.5384 56.1116 37.6402C56.0715 38.1404 55.8633 38.6124 55.5209 38.9793C55.1564 39.3905 54.664 39.6671 54.1232 39.7644C53.9764 39.7878 53.8277 39.7964 53.6793 39.7901C53.5296 39.7965 53.3796 39.7879 53.2317 39.7644C52.6918 39.6671 52.2006 39.3905 51.8376 38.9793C51.4937 38.6134 51.2853 38.1409 51.2469 37.6402C51.2437 37.5384 51.2499 37.4364 51.2652 37.3357C51.2752 37.2655 51.3072 37.2003 51.3567 37.1495C51.4061 37.0987 51.4705 37.065 51.5404 37.0532C51.6453 37.0422 51.751 37.0422 51.8559 37.0532C52.3574 37.0898 52.8312 37.2969 53.1987 37.6402L53.2133 37.6549ZM54.6184 38.1538C54.3267 38.4072 54.1279 38.7506 54.0535 39.1297C54.4346 39.0552 54.7804 38.8565 55.0367 38.5647C55.2494 38.3371 55.392 38.0531 55.4476 37.7466C55.1375 37.7989 54.8494 37.9404 54.6184 38.1538Z" fill="#7732BC"/>
<path fill-rule="evenodd" clip-rule="evenodd" d="M53.3354 36.3689C53.2579 35.9901 53.0581 35.6473 52.7667 35.3931C52.5377 35.179 52.2505 35.0374 51.9413 34.9858C51.9952 35.2929 52.1381 35.5774 52.3522 35.804C52.6078 36.0966 52.9538 36.2955 53.3354 36.3689ZM53.2143 34.9015C53.4023 35.0684 53.5643 35.2626 53.6949 35.4774C53.8246 35.2619 53.9867 35.0676 54.1755 34.9015C54.5381 34.5585 55.0063 34.349 55.5036 34.3071C55.6085 34.2961 55.7142 34.2961 55.8191 34.3071C55.889 34.3189 55.9534 34.3526 56.0029 34.4034C56.0523 34.4542 56.0843 34.5194 56.0943 34.5896C56.1096 34.6903 56.1158 34.7923 56.1126 34.8941C56.0742 35.3948 55.8658 35.8673 55.5219 36.2332C55.1667 36.6552 54.6793 36.9448 54.1388 37.055C53.992 37.0778 53.8435 37.0876 53.6949 37.0843C53.5452 37.0876 53.3954 37.0778 53.2473 37.055C52.7084 36.9576 52.2176 36.6825 51.8532 36.2736C51.5113 35.9063 51.3032 35.4346 51.2626 34.9345C51.2593 34.8314 51.2655 34.7283 51.2809 34.6263C51.2908 34.5561 51.3228 34.4909 51.3723 34.4401C51.4218 34.3893 51.4861 34.3556 51.5561 34.3438C51.6609 34.3327 51.7667 34.3327 51.8716 34.3438C52.3731 34.3804 52.8469 34.5875 53.2143 34.9308V34.9015ZM54.6194 35.4004C54.3286 35.6544 54.13 35.9976 54.0545 36.3763C54.4356 36.3018 54.7814 36.1031 55.0377 35.8113C55.2504 35.5837 55.393 35.2997 55.4486 34.9932C55.1393 35.0434 54.8513 35.1823 54.6194 35.3931V35.4004Z" fill="#7732BC"/>
<path fill-rule="evenodd" clip-rule="evenodd" d="M53.4929 34.2114C53.38 34.1084 53.278 33.994 53.1884 33.8702C52.8776 33.4189 52.7276 32.8761 52.7629 32.3293C52.7827 31.8253 52.9728 31.3429 53.3022 30.9609C53.3745 30.8834 53.4544 30.8134 53.5406 30.7518C53.5982 30.71 53.6676 30.6875 53.7387 30.6875C53.8099 30.6875 53.8792 30.71 53.9368 30.7518C54.0203 30.8113 54.0966 30.8802 54.1643 30.9572C54.4901 31.3376 54.6765 31.8177 54.6926 32.3183C54.7268 32.8661 54.5742 33.4093 54.2597 33.8592C54.1713 33.9918 54.0692 34.1147 53.9552 34.226C53.8926 34.282 53.8117 34.3129 53.7277 34.3129C53.6438 34.3129 53.5628 34.282 53.5003 34.226L53.4929 34.2114ZM53.4306 32.377C53.4021 32.7659 53.5041 33.1532 53.7204 33.4776C53.938 33.1535 54.0424 32.7666 54.0176 32.377C54.0074 32.0652 53.9067 31.7631 53.7277 31.5075C53.5492 31.7583 53.4461 32.0549 53.4306 32.3623V32.377Z" fill="#7732BC"/>
<path fill-rule="evenodd" clip-rule="evenodd" d="M86.3211 44.2262C86.4505 44.0126 86.6113 43.8197 86.7981 43.6539C87.1655 43.3106 87.6393 43.1035 88.1408 43.0669C88.2457 43.0558 88.3515 43.0558 88.4563 43.0669C88.5263 43.0787 88.5906 43.1124 88.6401 43.1632C88.6896 43.214 88.7216 43.2792 88.7315 43.3494C88.7426 43.4506 88.7426 43.5527 88.7315 43.6539C88.6931 44.1545 88.4847 44.627 88.1408 44.993C87.7778 45.4042 87.2866 45.6808 86.7467 45.7781C86.4505 45.8123 86.1514 45.8123 85.8552 45.7781C85.3144 45.6807 84.822 45.4042 84.4574 44.993C84.1185 44.626 83.913 44.1556 83.8741 43.6576C83.8649 43.5563 83.8649 43.4543 83.8741 43.353C83.8842 43.2823 83.9168 43.2167 83.967 43.1659C84.0172 43.115 84.0823 43.0816 84.1529 43.0706C84.2578 43.0592 84.3636 43.0592 84.4684 43.0706C84.9686 43.1079 85.4411 43.315 85.8075 43.6576C86.0067 43.8198 86.1799 44.0116 86.3211 44.2262ZM87.2457 44.1528C86.9501 44.4037 86.7462 44.7457 86.666 45.125C87.0476 45.0516 87.3936 44.8527 87.6492 44.5601C87.8646 44.3343 88.0077 44.0495 88.0601 43.7419C87.7509 43.7935 87.4637 43.9351 87.2347 44.1492L87.2457 44.1528ZM85.9543 45.125C85.8768 44.7462 85.677 44.4034 85.3856 44.1492C85.1547 43.9357 84.8666 43.7942 84.5565 43.7419C84.612 44.0484 84.7547 44.3325 84.9674 44.5601C85.2245 44.8528 85.5717 45.0516 85.9543 45.125Z" fill="#7732BC"/>
<path fill-rule="evenodd" clip-rule="evenodd" d="M86.3208 41.2248C86.451 41.0107 86.6117 40.8167 86.7977 40.6488C87.1675 40.3091 87.64 40.1026 88.1404 40.0618C88.2454 40.0525 88.351 40.0525 88.4559 40.0618C88.5264 40.0737 88.5911 40.108 88.6407 40.1595C88.6902 40.211 88.7219 40.2771 88.7311 40.3479C88.7422 40.4491 88.7422 40.5512 88.7311 40.6524C88.6904 41.1525 88.4823 41.6243 88.1404 41.9915C87.7781 42.403 87.2864 42.6786 86.7463 42.7729C86.4504 42.8121 86.1507 42.8121 85.8548 42.7729C85.3142 42.6772 84.8218 42.4018 84.457 41.9915C84.1152 41.6243 83.9071 41.1525 83.8664 40.6524C83.857 40.5511 83.857 40.4492 83.8664 40.3479C83.8758 40.2765 83.908 40.2101 83.9583 40.1585C84.0085 40.107 84.0741 40.073 84.1452 40.0618C84.2502 40.0523 84.3558 40.0523 84.4607 40.0618C84.9604 40.1012 85.4322 40.308 85.7998 40.6488C86.0011 40.8138 86.1766 41.008 86.3208 41.2248ZM87.2453 41.1477C86.953 41.4027 86.7531 41.747 86.6766 42.1273C87.057 42.0507 87.4021 41.8524 87.6598 41.5623C87.8748 41.3348 88.0177 41.0489 88.0707 40.7405C87.7615 40.792 87.4743 40.9337 87.2453 41.1477ZM85.9539 42.1273C85.8774 41.7481 85.6774 41.4049 85.3852 41.1514C85.1555 40.9355 84.867 40.7926 84.5561 40.7405C84.6116 41.047 84.7543 41.331 84.967 41.5586C85.2248 41.8512 85.5715 42.051 85.9539 42.1273Z" fill="#7732BC"/>
<path fill-rule="evenodd" clip-rule="evenodd" d="M86.3207 38.2206C86.4501 38.007 86.6108 37.814 86.7976 37.6482C87.165 37.305 87.6389 37.0978 88.1404 37.0612C88.2452 37.0502 88.351 37.0502 88.4559 37.0612C88.5258 37.073 88.5901 37.1067 88.6396 37.1575C88.6891 37.2083 88.7211 37.2735 88.731 37.3437C88.7421 37.4449 88.7421 37.547 88.731 37.6482C88.6926 38.1489 88.4842 38.6214 88.1404 38.9873C87.7773 39.3985 87.2861 39.6751 86.7462 39.7724C86.4501 39.8067 86.1509 39.8067 85.8547 39.7724C85.3139 39.6751 84.8215 39.3985 84.457 38.9873C84.1146 38.6204 83.9064 38.1485 83.8663 37.6482C83.8571 37.5469 83.8571 37.445 83.8663 37.3437C83.8764 37.273 83.909 37.2074 83.9592 37.1566C84.0094 37.1057 84.0745 37.0723 84.1451 37.0612C84.25 37.0499 84.3558 37.0499 84.4606 37.0612C84.9608 37.0986 85.4333 37.3057 85.7997 37.6482C86.0018 37.8111 86.1775 38.0041 86.3207 38.2206ZM87.2452 38.1472C86.953 38.4007 86.753 38.7439 86.6765 39.1231C87.0581 39.0496 87.4042 38.8508 87.6598 38.5581C87.8751 38.3324 88.0182 38.0475 88.0707 37.74C87.7614 37.7915 87.4743 37.9331 87.2452 38.1472ZM85.9538 39.1231C85.8738 38.7464 85.6728 38.4063 85.3815 38.1545C85.1506 37.9411 84.8624 37.7996 84.5524 37.7473C84.6079 38.0538 84.7505 38.3378 84.9633 38.5654C85.2224 38.8561 85.5709 39.0523 85.9538 39.1231Z" fill="#7732BC"/>
<path fill-rule="evenodd" clip-rule="evenodd" d="M86.3216 35.4701C86.4509 35.2554 86.6117 35.0612 86.7986 34.8941C87.166 34.5508 87.6398 34.3437 88.1413 34.3071C88.2462 34.2961 88.3519 34.2961 88.4568 34.3071C88.5267 34.3189 88.5911 34.3526 88.6406 34.4034C88.69 34.4542 88.722 34.5194 88.732 34.5896C88.7431 34.692 88.7431 34.7954 88.732 34.8978C88.6994 35.4025 88.4963 35.8811 88.156 36.2552C87.7917 36.6642 87.3008 36.9393 86.7619 37.0366C86.466 37.0758 86.1662 37.0758 85.8704 37.0366C85.3295 36.9393 84.8371 36.6628 84.4726 36.2515C84.1287 35.8856 83.9203 35.4131 83.8819 34.9125C83.8727 34.8112 83.8727 34.7092 83.8819 34.608C83.8921 34.5372 83.9246 34.4716 83.9748 34.4208C84.025 34.3699 84.0902 34.3365 84.1608 34.3255C84.2656 34.3141 84.3714 34.3141 84.4763 34.3255C84.9765 34.3628 85.4489 34.5699 85.8153 34.9125C86.0117 35.0713 86.1825 35.2594 86.3216 35.4701ZM87.2461 35.3931C86.9548 35.6473 86.755 35.9901 86.6775 36.3689C87.0591 36.2955 87.4051 36.0966 87.6607 35.804C87.8761 35.5782 88.0192 35.2934 88.0716 34.9858C87.7624 35.0374 87.4752 35.179 87.2461 35.3931ZM85.9548 36.3689C85.8765 35.9904 85.6768 35.6478 85.3861 35.3931C85.1552 35.1796 84.8671 35.0381 84.557 34.9858C84.6125 35.2923 84.7552 35.5764 84.9679 35.804C85.2249 36.0967 85.5722 36.2955 85.9548 36.3689Z" fill="#7732BC"/>
<path fill-rule="evenodd" clip-rule="evenodd" d="M86.8104 33.8653C86.7222 33.9891 86.6213 34.1035 86.5096 34.2065C86.447 34.2624 86.366 34.2934 86.2821 34.2934C86.1982 34.2934 86.1172 34.2624 86.0546 34.2065C85.9406 34.0952 85.8385 33.9722 85.7501 33.8396C85.4356 33.3898 85.283 32.8466 85.3172 32.2988C85.3333 31.7982 85.5197 31.3181 85.8455 30.9377C85.9141 30.8616 85.9903 30.7927 86.073 30.7322C86.1306 30.6905 86.1999 30.668 86.2711 30.668C86.3423 30.668 86.4116 30.6905 86.4692 30.7322C86.5562 30.7929 86.6362 30.863 86.7077 30.9413C87.0336 31.3234 87.221 31.8043 87.2396 32.3061C87.2784 32.8533 87.1281 33.3972 86.8141 33.847L86.8104 33.8653ZM86.2784 33.4544C86.4947 33.13 86.5967 32.7427 86.5683 32.3538C86.558 32.0397 86.4545 31.7358 86.2711 31.4806C86.0921 31.7362 85.9914 32.0383 85.9813 32.3501C85.9556 32.741 86.0601 33.1293 86.2784 33.4544Z" fill="#7732BC"/>
<path fill-rule="evenodd" clip-rule="evenodd" d="M59.537 45.15C59.5321 45.103 59.5371 45.0554 59.5517 45.0105C59.5663 44.9655 59.5902 44.9241 59.6219 44.889C59.6535 44.8538 59.6922 44.8257 59.7354 44.8065C59.7786 44.7873 59.8254 44.7773 59.8727 44.7773C59.92 44.7773 59.9667 44.7873 60.0099 44.8065C60.0531 44.8257 60.0918 44.8538 60.1235 44.889C60.1551 44.9241 60.179 44.9655 60.1936 45.0105C60.2083 45.0554 60.2133 45.103 60.2084 45.15C60.2084 45.4582 60.2084 45.7664 60.2377 46.0672C60.3959 49.0531 61.5596 51.8977 63.5396 54.1384C65.6527 56.4386 68.8812 58.0455 73.5148 58.0455C73.9734 58.0455 74.4393 58.0455 74.9126 57.9978C74.9971 58 75.0777 58.0338 75.1385 58.0925C75.1993 58.1512 75.2359 58.2306 75.2409 58.315C75.246 58.3994 75.2192 58.4826 75.1659 58.5482C75.1126 58.6138 75.0366 58.657 74.9529 58.6692C74.454 58.7022 73.9734 58.7169 73.5148 58.7169C68.6648 58.7169 65.2749 57.0183 63.0443 54.5933C60.9636 52.2425 59.7391 49.257 59.57 46.1222C59.537 45.781 59.537 45.4582 59.537 45.15Z" fill="#7732BC"/>
<path fill-rule="evenodd" clip-rule="evenodd" d="M88.7893 46.7798C88.8204 46.647 88.8989 46.5303 89.0102 46.4515C89.1215 46.3728 89.2578 46.3375 89.3933 46.3524C89.5288 46.3673 89.6542 46.4314 89.7457 46.5324C89.8372 46.6335 89.8885 46.7645 89.8899 46.9009C89.3763 51.4757 86.8889 55.3132 83.4183 58.0648C79.5852 61.0615 74.8672 62.7038 70.0018 62.735C65.1301 62.7039 60.4063 61.0575 56.5707 58.0538C53.1001 55.3022 50.6127 51.4501 50.0991 46.8899C50.0811 46.813 50.0796 46.7333 50.0948 46.6559C50.1099 46.5785 50.1413 46.5052 50.1868 46.4408C50.2324 46.3764 50.2911 46.3224 50.359 46.2824C50.427 46.2424 50.5027 46.2172 50.5811 46.2086C50.6595 46.2 50.7388 46.2081 50.8139 46.2324C50.8889 46.2567 50.9579 46.2966 51.0164 46.3496C51.0748 46.4025 51.1214 46.4672 51.153 46.5395C51.1846 46.6118 51.2005 46.6899 51.1997 46.7688C51.6876 51.0318 54.0356 54.6125 57.2641 57.1879C60.901 60.0386 65.3809 61.6025 70.0018 61.6344C74.6207 61.6037 79.099 60.0426 82.7359 57.1953C85.9828 54.6272 88.3124 51.0392 88.7893 46.7871V46.7798ZM51.1006 29.236C51.0792 29.3665 51.0121 29.4852 50.9113 29.5708C50.8105 29.6565 50.6826 29.7035 50.5503 29.7035C50.418 29.7035 50.2901 29.6565 50.1893 29.5708C50.0885 29.4852 50.0214 29.3665 50 29.236V17.6098C50 12.613 52.3296 8.38301 55.8223 5.31964C59.7678 1.9201 64.7938 0.034543 70.0018 0C75.2068 0.0310057 80.2312 1.91127 84.1777 5.30496C87.6704 8.36834 89.989 12.5984 89.989 17.6098V29.236C90.0021 29.3158 89.9976 29.3975 89.976 29.4754C89.9544 29.5533 89.916 29.6256 89.8637 29.6872C89.8113 29.7488 89.7462 29.7983 89.6728 29.8323C89.5994 29.8662 89.5195 29.8838 89.4387 29.8838C89.3578 29.8838 89.2779 29.8662 89.2046 29.8323C89.1312 29.7983 89.066 29.7488 89.0137 29.6872C88.9613 29.6256 88.923 29.5533 88.9014 29.4754C88.8797 29.3975 88.8753 29.3158 88.8884 29.236V17.6098C88.8884 12.9652 86.7128 9.02137 83.4477 6.15977C79.7052 2.93843 74.9397 1.15186 70.0018 1.11896C65.0658 1.14777 60.3006 2.92906 56.556 6.1451C53.3018 9.0067 51.119 12.9506 51.1006 17.6098V29.236Z" fill="#7732BC"/>
<path fill-rule="evenodd" clip-rule="evenodd" d="M53.3594 33.9758C53.3594 33.8872 53.3945 33.8023 53.4572 33.7397C53.5198 33.6771 53.6047 33.6419 53.6932 33.6419C53.7818 33.6419 53.8667 33.6771 53.9293 33.7397C53.9919 33.8023 54.0271 33.8872 54.0271 33.9758V45.1507C54.0271 48.9038 55.8614 52.1983 58.69 54.5976C61.86 57.2533 65.8635 58.7087 69.9988 58.7087C74.1342 58.7087 78.1377 57.2533 81.3076 54.5976C84.1252 52.1983 85.9706 48.9038 85.9706 45.1507V38.9359V33.9354C85.9706 33.8469 86.0058 33.762 86.0684 33.6993C86.131 33.6367 86.2159 33.6016 86.3044 33.6016C86.393 33.6016 86.4779 33.6367 86.5405 33.6993C86.6031 33.762 86.6383 33.8469 86.6383 33.9354V35.4029C86.6383 44.6921 86.6383 26.0477 86.6383 38.9542V45.169C86.6383 49.1349 84.7012 52.6055 81.7442 55.1259C78.455 57.8862 74.2983 59.3992 70.0043 59.3992C65.7104 59.3992 61.5537 57.8862 58.2644 55.1259C55.3075 52.6055 53.3704 49.1349 53.3704 45.169V33.9758H53.3594Z" fill="#7732BC"/>
<path fill-rule="evenodd" clip-rule="evenodd" d="M54.0349 28.771C54.0349 28.8595 53.9997 28.9445 53.9371 29.0071C53.8745 29.0697 53.7896 29.1049 53.701 29.1049C53.6125 29.1049 53.5276 29.0697 53.465 29.0071C53.4024 28.9445 53.3672 28.8595 53.3672 28.771V17.6108C53.3672 13.6449 55.3043 10.1743 58.2613 7.65755C61.5495 4.89521 65.7066 3.38086 70.0011 3.38086C74.2957 3.38086 78.4527 4.89521 81.741 7.65755C84.7017 10.1596 86.6388 13.6302 86.6388 17.6108V23.8109C86.6388 36.7174 86.6388 18.073 86.6388 27.3622V28.8297C86.6388 28.9182 86.6036 29.0032 86.541 29.0658C86.4784 29.1284 86.3934 29.1636 86.3049 29.1636C86.2164 29.1636 86.1314 29.1284 86.0688 29.0658C86.0062 29.0032 85.9711 28.9182 85.9711 28.8297V23.8109V17.6108C85.9711 13.8577 84.1367 10.5632 81.3081 8.16383C78.1381 5.50814 74.1347 4.05277 69.9993 4.05277C65.8639 4.05277 61.8605 5.50814 58.6905 8.16383C55.8693 10.5485 54.0349 13.843 54.0349 17.6108V28.771Z" fill="#7732BC"/>
<path fill-rule="evenodd" clip-rule="evenodd" d="M66.1413 24.9141C66.2591 24.9134 66.3758 24.9361 66.4847 24.9808C66.5937 25.0255 66.6927 25.0914 66.776 25.1746L66.798 25.2002C66.9535 25.3649 67.0401 25.5828 67.0402 25.8092C67.0385 26.0472 66.9437 26.2751 66.776 26.4439C66.6935 26.5284 66.5947 26.5954 66.4856 26.6408C66.3766 26.6862 66.2595 26.7091 66.1413 26.7081C65.9034 26.7064 65.6755 26.6116 65.5066 26.4439C65.3397 26.2756 65.2461 26.0481 65.2461 25.8111C65.2461 25.574 65.3397 25.3466 65.5066 25.1782C65.5897 25.0944 65.6886 25.0279 65.7975 24.9825C65.9065 24.9372 66.0233 24.9139 66.1413 24.9141ZM66.2991 25.6478C66.2786 25.6267 66.2541 25.61 66.227 25.5985C66.1999 25.5871 66.1707 25.5812 66.1413 25.5812C66.1119 25.5812 66.0828 25.5871 66.0557 25.5985C66.0286 25.61 66.0041 25.6267 65.9836 25.6478C65.9439 25.6908 65.9216 25.7471 65.9212 25.8056C65.9213 25.8659 65.945 25.9239 65.9873 25.967C66.0061 25.9902 66.0295 26.0093 66.056 26.0232C66.0825 26.0371 66.1115 26.0454 66.1413 26.0477C66.1707 26.048 66.1999 26.0423 66.227 26.0309C66.2541 26.0196 66.2787 26.0028 66.2991 25.9817C66.3403 25.9382 66.3627 25.8802 66.3615 25.8202C66.3618 25.7669 66.3437 25.715 66.3101 25.6735L66.2991 25.6478Z" fill="#7732BC"/>
<path fill-rule="evenodd" clip-rule="evenodd" d="M75.5503 25.5525C75.5842 25.5808 75.6122 25.6155 75.6327 25.6547C75.6531 25.6938 75.6656 25.7367 75.6693 25.7807C75.6731 25.8247 75.668 25.869 75.6545 25.9111C75.641 25.9532 75.6193 25.9921 75.5906 26.0258C75.5627 26.0596 75.5283 26.0875 75.4894 26.1079C75.4506 26.1283 75.408 26.1407 75.3643 26.1445C75.3206 26.1482 75.2765 26.1433 75.2348 26.1298C75.193 26.1163 75.1543 26.0947 75.121 26.0661C74.7192 25.7009 74.1966 25.497 73.6536 25.4938C73.0768 25.5419 72.5341 25.7867 72.1164 26.1872C72.0831 26.2166 72.0444 26.2391 72.0025 26.2536C71.9605 26.268 71.9161 26.274 71.8718 26.2713C71.8275 26.2686 71.7842 26.2571 71.7443 26.2377C71.7045 26.2182 71.6688 26.1911 71.6394 26.1578C71.61 26.1246 71.5875 26.0859 71.5731 26.0439C71.5586 26.002 71.5526 25.9576 71.5553 25.9133C71.5581 25.869 71.5695 25.8257 71.5889 25.7858C71.6084 25.7459 71.6355 25.7103 71.6688 25.6809C72.2001 25.1792 72.8881 24.876 73.6169 24.8224C74.33 24.815 75.02 25.0755 75.5503 25.5525Z" fill="#7732BC"/>
<path fill-rule="evenodd" clip-rule="evenodd" d="M73.6837 25.5854C73.6234 25.5855 73.5654 25.6092 73.5223 25.6515C73.4877 25.6927 73.4683 25.7445 73.4673 25.7982C73.4674 25.8586 73.4911 25.9165 73.5333 25.9597C73.5764 26.0019 73.6344 26.0256 73.6947 26.0257C73.7241 26.0258 73.7532 26.02 73.7803 26.0086C73.8074 25.9973 73.8319 25.9806 73.8525 25.9597C73.8947 25.9165 73.9184 25.8586 73.9185 25.7982C73.9186 25.7689 73.9128 25.7398 73.9015 25.7127C73.8901 25.6856 73.8735 25.661 73.8525 25.6405C73.8319 25.6195 73.8074 25.6029 73.7803 25.5915C73.7532 25.5802 73.7241 25.5744 73.6947 25.5744L73.6837 25.5854ZM73.049 25.1746C73.1324 25.0914 73.2314 25.0255 73.3403 24.9808C73.4493 24.9361 73.566 24.9134 73.6837 24.9141C73.9201 24.9149 74.1466 25.0085 74.3148 25.1746C74.3983 25.2574 74.4646 25.356 74.5098 25.4646C74.5551 25.5732 74.5783 25.6897 74.5783 25.8074C74.5783 25.9251 74.5551 26.0416 74.5098 26.1502C74.4646 26.2588 74.3983 26.3574 74.3148 26.4403C74.2319 26.5238 74.1333 26.5901 74.0247 26.6353C73.9161 26.6806 73.7996 26.7039 73.6819 26.7039C73.5642 26.7039 73.4477 26.6806 73.3391 26.6353C73.2305 26.5901 73.1319 26.5238 73.049 26.4403C72.884 26.2767 72.7894 26.0552 72.7853 25.8229C72.7812 25.5906 72.8679 25.3659 73.027 25.1966L73.049 25.1746Z" fill="#7732BC"/>
<path fill-rule="evenodd" clip-rule="evenodd" d="M70.8255 16.0976C70.8152 16.0547 70.8136 16.0102 70.8209 15.9667C70.8281 15.9232 70.844 15.8815 70.8676 15.8443C70.8912 15.807 70.922 15.7748 70.9583 15.7496C70.9945 15.7245 71.0354 15.7068 71.0786 15.6978C71.1215 15.688 71.1659 15.6868 71.2092 15.6943C71.2526 15.7018 71.294 15.7177 71.3312 15.7412C71.3683 15.7647 71.4005 15.7954 71.4257 15.8314C71.451 15.8673 71.469 15.908 71.4785 15.9509C71.5929 16.5417 71.8953 17.0797 72.3406 17.4844C72.7617 17.8337 73.2556 18.0844 73.7861 18.2182C74.4112 18.377 75.0479 18.4862 75.6902 18.5447C76.2208 18.5857 76.7458 18.6816 77.2567 18.8308C78.3903 19.2381 78.6251 19.9755 78.9333 20.955C79.2701 22.2533 79.9913 23.4196 81.0025 24.3009C81.4703 24.6881 81.7935 25.222 81.9197 25.8161C82.0012 26.2742 81.9516 26.746 81.7766 27.1772V27.2065C81.6015 27.6328 81.3531 28.0251 81.0428 28.3658C80.3019 29.1842 79.325 29.7521 78.2473 29.9911C78.1641 29.9975 78.0815 29.9729 78.0154 29.922C77.9493 29.8711 77.9044 29.7975 77.8893 29.7154C77.8743 29.6333 77.8901 29.5486 77.9339 29.4776C77.9776 29.4065 78.0461 29.3542 78.1262 29.3307C79.0591 29.1199 79.9037 28.6252 80.5439 27.9146C80.802 27.6361 81.0094 27.3145 81.1566 26.9644C81.1581 26.9559 81.1581 26.9472 81.1566 26.9387C81.2873 26.622 81.3267 26.2751 81.2703 25.9371C81.1699 25.4906 80.9233 25.0903 80.5696 24.7998C79.4667 23.8406 78.6791 22.5709 78.3096 21.1568C78.0565 20.357 77.8657 19.7554 77.0513 19.4619C76.5885 19.3325 76.1142 19.249 75.6351 19.2124C74.9568 19.15 74.2845 19.0335 73.6247 18.8639C72.9882 18.7045 72.3969 18.4007 71.8967 17.976C71.3458 17.4823 70.9699 16.8232 70.8255 16.0976Z" fill="#7732BC"/>
<path fill-rule="evenodd" clip-rule="evenodd" d="M61.7764 14.9568C61.8552 14.9131 61.9482 14.9024 62.0349 14.9271C62.1215 14.9519 62.1948 15.0101 62.2386 15.0889C62.2824 15.1677 62.2931 15.2607 62.2683 15.3474C62.2436 15.4341 62.1854 15.5074 62.1066 15.5512C61.5306 15.8679 61.0264 16.3003 60.6255 16.8211C60.2246 17.342 59.9357 17.9401 59.7769 18.5779C59.3548 20.2013 59.3788 21.9087 59.8466 23.5196C59.8703 23.6057 59.8589 23.6977 59.8149 23.7754C59.7709 23.8531 59.6978 23.9102 59.6118 23.9342C59.5679 23.9506 59.5209 23.9575 59.4741 23.9545C59.4273 23.9515 59.3816 23.9387 59.3401 23.9169C59.2986 23.8951 59.2621 23.8648 59.233 23.828C59.204 23.7911 59.1831 23.7485 59.1716 23.7031C58.6707 21.9708 58.6467 20.1355 59.1019 18.3908C59.2883 17.6656 59.622 16.9865 60.0821 16.3957C60.5422 15.805 61.1189 15.3152 61.7764 14.9568Z" fill="#7732BC"/>
<path fill-rule="evenodd" clip-rule="evenodd" d="M77.9101 15.5507C77.8711 15.5302 77.8365 15.5023 77.8083 15.4684C77.7801 15.4346 77.7588 15.3955 77.7457 15.3534C77.7192 15.2685 77.7275 15.1764 77.7689 15.0976C77.8102 15.0188 77.8812 14.9597 77.9662 14.9332C78.0512 14.9067 78.1432 14.915 78.222 14.9564C78.9076 15.3342 79.5048 15.8539 79.9736 16.4809C80.4424 17.1078 80.772 17.8276 80.9405 18.5921C81.3719 20.4357 81.2804 22.3631 80.6763 24.1575C80.6442 24.2377 80.5826 24.3025 80.5042 24.3386C80.4257 24.3747 80.3364 24.3794 80.2546 24.3517C80.1729 24.3239 80.1048 24.2659 80.0645 24.1895C80.0242 24.1132 80.0147 24.0242 80.038 23.9411C80.6048 22.2719 80.6925 20.4773 80.2911 18.7608C80.1447 18.0875 79.8566 17.453 79.4461 16.8995C79.0356 16.3461 78.512 15.8863 77.9101 15.5507Z" fill="#7732BC"/>
<path fill-rule="evenodd" clip-rule="evenodd" d="M69.8891 11.4876C69.948 11.4814 70.0069 11.4988 70.0529 11.5359C70.099 11.573 70.1285 11.6269 70.1349 11.6857C70.1401 11.7443 70.1224 11.8027 70.0855 11.8485C70.0485 11.8944 69.9952 11.9241 69.9368 11.9315C69.9185 11.9315 64.1146 12.5038 62.6911 18.3444C62.6864 18.3751 62.6754 18.4045 62.6587 18.4307C62.642 18.4569 62.6201 18.4794 62.5942 18.4967C62.5684 18.5139 62.5393 18.5256 62.5086 18.531C62.478 18.5364 62.4467 18.5354 62.4165 18.5279C62.3863 18.5205 62.358 18.5069 62.3334 18.4879C62.3087 18.469 62.2883 18.4451 62.2735 18.4178C62.2586 18.3906 62.2495 18.3605 62.2469 18.3295C62.2443 18.2986 62.2481 18.2674 62.2582 18.238C63.755 12.1076 69.8708 11.4876 69.8891 11.4876Z" fill="#7732BC"/>
<path fill-rule="evenodd" clip-rule="evenodd" d="M69.8868 11.9299C69.828 11.9234 69.7742 11.894 69.7371 11.8479C69.6999 11.8018 69.6825 11.7429 69.6887 11.6841C69.6914 11.6548 69.7 11.6263 69.7139 11.6004C69.7279 11.5745 69.7468 11.5516 69.7698 11.5331C69.7927 11.5146 69.8191 11.501 69.8474 11.4929C69.8757 11.4848 69.9053 11.4824 69.9345 11.486C69.9345 11.486 76.065 12.106 77.5655 18.2364C77.5726 18.2651 77.5739 18.2949 77.5695 18.3241C77.565 18.3533 77.5548 18.3813 77.5395 18.4066C77.5241 18.4318 77.5039 18.4537 77.48 18.4711C77.4562 18.4885 77.4291 18.501 77.4004 18.5079C77.3451 18.5179 77.288 18.5064 77.241 18.4757C77.1939 18.445 77.1604 18.3974 77.1472 18.3428C75.7054 12.5022 69.9015 11.9299 69.8868 11.9299Z" fill="#7732BC"/>
<path fill-rule="evenodd" clip-rule="evenodd" d="M83.1099 45.9871C83.1141 45.9433 83.127 45.9007 83.1478 45.8618C83.1686 45.823 83.1969 45.7887 83.231 45.7608C83.2651 45.7329 83.3044 45.7121 83.3467 45.6995C83.3889 45.6869 83.4332 45.6828 83.477 45.6874C83.5208 45.692 83.5633 45.7052 83.602 45.7263C83.6407 45.7474 83.6748 45.7759 83.7024 45.8103C83.73 45.8446 83.7505 45.8841 83.7628 45.9264C83.7751 45.9687 83.7788 46.013 83.7739 46.0568C83.6352 47.8714 83.0436 49.6222 82.0533 51.149C81.0145 52.6028 79.679 53.8195 78.1351 54.7187C78.0597 54.7673 77.968 54.784 77.8803 54.7651C77.7926 54.7462 77.716 54.6932 77.6673 54.6178C77.6187 54.5424 77.602 54.4507 77.6209 54.363C77.6398 54.2753 77.6928 54.1987 77.7682 54.15C79.2319 53.3005 80.4986 52.1501 81.4846 50.7748C82.4192 49.3404 82.9781 47.694 83.1099 45.9871Z" fill="#7732BC"/>
<path fill-rule="evenodd" clip-rule="evenodd" d="M56.2359 46.0575C56.2274 45.9699 56.2539 45.8824 56.3096 45.8141C56.3653 45.7459 56.4458 45.7024 56.5334 45.6932C56.621 45.684 56.7087 45.7098 56.7774 45.765C56.846 45.8202 56.8901 45.9003 56.9 45.9878C57.0249 47.538 57.4909 49.0413 58.2647 50.3903C59.0455 51.6491 60.0816 52.7302 61.3061 53.5637C61.7789 53.856 62.2689 54.1194 62.7736 54.3525C63.1974 54.5575 63.6365 54.7292 64.087 54.8661C64.1726 54.8895 64.2455 54.9459 64.2895 55.0229C64.3335 55.1 64.3451 55.1914 64.3218 55.277C64.2984 55.3626 64.242 55.4355 64.165 55.4795C64.0879 55.5235 63.9965 55.5352 63.9109 55.5118C63.4235 55.3656 62.9487 55.1804 62.4911 54.9578C61.9461 54.7111 61.419 54.4267 60.9136 54.1067C59.5614 53.2215 58.4344 52.0329 57.6224 50.6356C56.8103 49.2382 56.3356 47.6706 56.2359 46.0575Z" fill="#7732BC"/>
</g>
<path d="M40.4609 86.7031C40.4349 86.7448 40.3698 86.7552 40.2656 86.7344C40.1667 86.7083 40.0495 86.6953 39.9141 86.6953C39.7786 86.6953 39.5859 86.724 39.3359 86.7812C39.0911 86.8333 38.7031 86.9167 38.1719 87.0312C37.6406 87.151 37.1562 87.2109 36.7188 87.2109C35.7292 87.2109 34.7682 86.9792 33.8359 86.5156C32.9089 86.0469 32.1667 85.3854 31.6094 84.5312C31.0521 83.6719 30.7734 82.6771 30.7734 81.5469C30.7734 80.4167 31.0521 79.3932 31.6094 78.4766C32.4219 77.1328 33.6458 76.2578 35.2812 75.8516C35.8021 75.7214 36.3229 75.6562 36.8438 75.6562C37.5573 75.6562 38.4036 75.776 39.3828 76.0156C39.6797 76.0885 39.9297 76.1641 40.1328 76.2422C40.3411 76.3203 40.4688 76.3594 40.5156 76.3594L40.75 76.2969H40.9922C41.0547 76.2969 41.0859 76.3411 41.0859 76.4297V78.8594C41.0859 78.9115 41.0391 78.9375 40.9453 78.9375C40.8516 78.9375 40.7969 78.9271 40.7812 78.9062C40.7656 78.8802 40.75 78.8516 40.7344 78.8203C40.7188 78.7839 40.7005 78.7474 40.6797 78.7109C40.6641 78.6745 40.6458 78.6406 40.625 78.6094C40.6094 78.5781 40.599 78.5547 40.5938 78.5391C39.8125 76.9714 38.6276 76.1875 37.0391 76.1875C35.6068 76.1875 34.487 76.6432 33.6797 77.5547C32.8724 78.4661 32.4688 79.6745 32.4688 81.1797C32.4688 82.6797 32.9115 83.9688 33.7969 85.0469C34.6875 86.125 35.8958 86.6641 37.4219 86.6641C38.2552 86.6641 39.013 86.4167 39.6953 85.9219C40.3828 85.4271 40.9219 84.8203 41.3125 84.1016C41.3229 84.0703 41.3542 84.0547 41.4062 84.0547H41.5078C41.5599 84.0547 41.5859 84.0859 41.5859 84.1484C41.5859 84.2109 41.5703 84.2708 41.5391 84.3281L40.4609 86.7031ZM42.7734 83.4922C42.7734 82.4661 43.1354 81.5859 43.8594 80.8516C44.5885 80.112 45.4609 79.7422 46.4766 79.7422C47.4922 79.7422 48.375 80.1016 49.125 80.8203C49.875 81.5339 50.25 82.4167 50.25 83.4688C50.25 84.5208 49.8932 85.4089 49.1797 86.1328C48.4714 86.8516 47.5807 87.2109 46.5078 87.2109C45.4349 87.2109 44.5443 86.8464 43.8359 86.1172C43.1276 85.388 42.7734 84.513 42.7734 83.4922ZM44.7188 85.5C45.2292 86.3594 45.9245 86.7891 46.8047 86.7891C47.487 86.7891 48.0078 86.5156 48.3672 85.9688C48.7318 85.4219 48.9141 84.75 48.9141 83.9531C48.9141 83.1562 48.6589 82.3385 48.1484 81.5C47.6432 80.6615 46.9609 80.2422 46.1016 80.2422C45.4714 80.2422 44.974 80.5156 44.6094 81.0625C44.25 81.6042 44.0703 82.2943 44.0703 83.1328C44.0703 83.9661 44.2865 84.7552 44.7188 85.5ZM55.1797 81.6562C55.1797 81.7708 55.1354 81.8281 55.0469 81.8281C54.9635 81.8281 54.8984 81.7656 54.8516 81.6406C54.7266 81.2969 54.5391 80.9922 54.2891 80.7266C54.0443 80.4609 53.7396 80.3281 53.375 80.3281C52.8958 80.3281 52.5729 80.5677 52.4062 81.0469C52.3542 81.2083 52.3281 81.375 52.3281 81.5469C52.3281 81.7188 52.4375 81.9115 52.6562 82.125C52.875 82.3333 53.2344 82.5833 53.7344 82.875C54.2344 83.1667 54.599 83.4141 54.8281 83.6172C55.349 84.0807 55.6094 84.6172 55.6094 85.2266C55.6094 85.8359 55.3854 86.3203 54.9375 86.6797C54.4896 87.0339 53.9688 87.2109 53.375 87.2109C53.0573 87.2109 52.7682 87.1667 52.5078 87.0781C52.2526 86.9948 52.1042 86.9531 52.0625 86.9531C52.026 86.9531 51.9635 86.9948 51.875 87.0781C51.7917 87.1667 51.724 87.2109 51.6719 87.2109H51.5391C51.5078 87.2109 51.4688 86.9297 51.4219 86.3672C51.375 85.8047 51.3516 85.4714 51.3516 85.3672C51.3516 85.263 51.3594 85.2057 51.375 85.1953C51.3958 85.1849 51.4271 85.1797 51.4688 85.1797C51.5104 85.1797 51.5443 85.1927 51.5703 85.2188C51.6016 85.2448 51.6276 85.2786 51.6484 85.3203C51.6693 85.3568 51.6849 85.3958 51.6953 85.4375C51.7109 85.4792 51.7448 85.5573 51.7969 85.6719C52.151 86.4271 52.6979 86.8047 53.4375 86.8047C53.7656 86.8047 54.0286 86.6849 54.2266 86.4453C54.4245 86.2005 54.5234 85.9297 54.5234 85.6328C54.5234 85.3359 54.4453 85.0859 54.2891 84.8828C54.1328 84.6797 53.9375 84.4948 53.7031 84.3281C53.474 84.1615 53.224 84 52.9531 83.8438C51.901 83.2292 51.375 82.5495 51.375 81.8047C51.375 81.2474 51.6146 80.7682 52.0938 80.3672C52.5729 79.9609 53.0651 79.7578 53.5703 79.7578C54.0755 79.7578 54.4479 79.8125 54.6875 79.9219C54.9323 80.0312 55.0755 80.125 55.1172 80.2031C55.1589 80.276 55.1797 80.5208 55.1797 80.9375V81.6562ZM67.0469 84.5391L67.0312 82.8906C67.0312 82.2188 66.974 81.7474 66.8594 81.4766C66.7448 81.2057 66.599 81.0026 66.4219 80.8672C66.2448 80.7266 66.0052 80.6562 65.7031 80.6562C65.4062 80.6562 64.7734 80.8906 63.8047 81.3594C63.6745 81.4375 63.6068 81.5104 63.6016 81.5781V85.7812C63.6016 86.3073 63.8828 86.6094 64.4453 86.6875C64.6901 86.724 64.8125 86.7839 64.8125 86.8672C64.8125 86.9453 64.7865 86.9896 64.7344 87H61.25C61.1979 86.9896 61.1719 86.9531 61.1719 86.8906C61.1719 86.7917 61.2943 86.724 61.5391 86.6875C62.1016 86.6094 62.3828 86.3073 62.3828 85.7812V81.8906C62.3828 81.0729 61.8776 80.6641 60.8672 80.6641C60.4974 80.6641 59.9844 80.8828 59.3281 81.3203C59.1615 81.4297 59.0391 81.5312 58.9609 81.625V85.7812C58.9609 86.3073 59.2422 86.6094 59.8047 86.6875C60.0495 86.724 60.1719 86.7839 60.1719 86.8672C60.1719 86.9453 60.1458 86.9896 60.0938 87H56.6094C56.5573 86.9896 56.5312 86.9531 56.5312 86.8906C56.5312 86.7917 56.6536 86.724 56.8984 86.6875C57.4609 86.6094 57.7422 86.3125 57.7422 85.7969V81.2969C57.7422 81.0781 57.6224 80.9271 57.3828 80.8438C57.2786 80.8073 57.1667 80.7786 57.0469 80.7578C56.9271 80.7318 56.8307 80.7083 56.7578 80.6875C56.6901 80.6667 56.6458 80.6484 56.625 80.6328C56.6094 80.612 56.6016 80.5729 56.6016 80.5156C56.6016 80.4531 56.6406 80.401 56.7188 80.3594L58.7109 79.4219C58.7734 79.3906 58.8125 79.375 58.8281 79.375C58.9167 79.375 58.9609 79.4375 58.9609 79.5625V80.8594C58.9661 80.8906 58.9844 80.9062 59.0156 80.9062C59.0521 80.9062 59.138 80.8698 59.2734 80.7969C59.4141 80.724 59.5964 80.6224 59.8203 80.4922C60.0443 80.3568 60.3385 80.2005 60.7031 80.0234C61.0729 79.8464 61.4635 79.7578 61.875 79.7578C62.5365 79.7578 63.0104 80.0417 63.2969 80.6094C63.4062 80.8385 63.5052 80.9375 63.5938 80.9062C63.6823 80.8698 63.8203 80.8047 64.0078 80.7109C64.4505 80.4922 64.8984 80.2786 65.3516 80.0703C65.8047 79.862 66.1797 79.7578 66.4766 79.7578C67.6797 79.7578 68.2812 80.8542 68.2812 83.0469L68.2109 85.3281V85.7812C68.2109 86.1875 68.4141 86.4531 68.8203 86.5781C68.9922 86.6354 69.1562 86.6771 69.3125 86.7031C69.474 86.724 69.5781 86.7448 69.625 86.7656C69.6771 86.7865 69.7031 86.8281 69.7031 86.8906C69.7031 86.9531 69.6771 86.9896 69.625 87H65.8594C65.8073 86.9896 65.7812 86.9531 65.7812 86.8906C65.7812 86.7917 65.9036 86.724 66.1484 86.6875C66.7057 86.6094 66.9844 86.2865 66.9844 85.7188C67.026 85.4583 67.0469 85.0651 67.0469 84.5391ZM71.5391 82.8828C71.4505 82.8828 71.4062 83.0729 71.4062 83.4531C71.4062 84.2604 71.6458 84.9375 72.125 85.4844C72.6042 86.0312 73.1979 86.3047 73.9062 86.3047C74.6198 86.3047 75.3047 85.9974 75.9609 85.3828C75.9714 85.3724 75.9844 85.3672 76 85.3672H76.0391C76.0703 85.3672 76.099 85.3932 76.125 85.4453C76.1562 85.4922 76.1849 85.5234 76.2109 85.5391C75.6068 86.2734 74.8958 86.7812 74.0781 87.0625C73.7969 87.1615 73.4792 87.2109 73.125 87.2109C72.7708 87.2109 72.4115 87.1146 72.0469 86.9219C71.6823 86.724 71.3698 86.4661 71.1094 86.1484C70.5573 85.487 70.2812 84.6641 70.2812 83.6797C70.2812 82.6901 70.5807 81.7891 71.1797 80.9766C71.7839 80.1641 72.612 79.7578 73.6641 79.7578C74.4193 79.7578 75.0365 80.0964 75.5156 80.7734C75.9948 81.4453 76.2344 82.0365 76.2344 82.5469C76.2344 82.7708 76.1797 82.8828 76.0703 82.8828H71.5391ZM71.625 82.1328C71.625 82.2318 71.6719 82.2812 71.7656 82.2812H74.7109C74.8464 82.2812 74.9141 82.2005 74.9141 82.0391C74.9141 81.6641 74.7448 81.2812 74.4062 80.8906C74.0729 80.4948 73.7057 80.2969 73.3047 80.2969C72.9141 80.2969 72.5573 80.474 72.2344 80.8281C71.9167 81.1823 71.7135 81.5859 71.625 82.0391V82.1328ZM79.4453 80.9922C79.4141 80.9922 79.3984 81.0156 79.3984 81.0625V85.375C79.3984 85.6875 79.4661 85.9323 79.6016 86.1094C79.7422 86.2865 79.9193 86.375 80.1328 86.375C80.3464 86.375 80.5312 86.3411 80.6875 86.2734C80.849 86.2005 80.987 86.1224 81.1016 86.0391C81.2214 85.9557 81.3281 85.8802 81.4219 85.8125C81.5156 85.7396 81.599 85.7031 81.6719 85.7031C81.7448 85.7031 81.7812 85.7214 81.7812 85.7578C81.7812 85.8828 81.7682 85.9635 81.7422 86C81.1172 86.8073 80.513 87.2109 79.9297 87.2109C79.3516 87.2109 78.9141 87.0286 78.6172 86.6641C78.3255 86.2943 78.1797 85.8542 78.1797 85.3438V80.9922H77.5938C77.4479 80.9922 77.3698 80.9453 77.3594 80.8516C77.3542 80.7578 77.3698 80.6979 77.4062 80.6719C77.6823 80.4948 78.0625 80.1771 78.5469 79.7188C78.599 79.6615 78.6693 79.5755 78.7578 79.4609C78.8464 79.3464 78.974 79.1901 79.1406 78.9922C79.3125 78.7943 79.4427 78.6953 79.5312 78.6953C79.6198 78.6953 79.6641 78.7318 79.6641 78.8047C79.6641 78.8151 79.5755 79.1562 79.3984 79.8281C79.3984 79.9219 79.4401 79.9714 79.5234 79.9766H81.5156C81.7448 79.9766 81.8594 80.2995 81.8594 80.9453C81.8594 80.9766 81.8385 80.9922 81.7969 80.9922H79.4453ZM82.6094 87C82.5573 86.9896 82.5312 86.9531 82.5312 86.8906C82.5312 86.7969 82.6536 86.7344 82.8984 86.7031C83.4609 86.6198 83.7422 86.3229 83.7422 85.8125V81.6797C83.7422 81.4609 83.6224 81.3099 83.3828 81.2266C83.2786 81.1901 83.1667 81.1615 83.0469 81.1406C82.9271 81.1146 82.8307 81.0911 82.7578 81.0703C82.6901 81.0495 82.6458 81.0312 82.625 81.0156C82.6094 80.9948 82.6016 80.9557 82.6016 80.8984C82.6016 80.8359 82.6406 80.7839 82.7188 80.7422L84.7109 79.8047C84.7734 79.7734 84.8125 79.7578 84.8281 79.7578C84.9167 79.7578 84.9609 79.8203 84.9609 79.9453V85.8125C84.9609 86.3229 85.2422 86.6198 85.8047 86.7031C86.0495 86.7344 86.1719 86.7891 86.1719 86.8672C86.1719 86.9453 86.1458 86.9896 86.0938 87H82.6094ZM84.2344 77.5625C84.0208 77.5625 83.8307 77.4948 83.6641 77.3594C83.5026 77.224 83.4219 77.0365 83.4219 76.7969C83.4219 76.5521 83.5 76.3594 83.6562 76.2188C83.8125 76.0781 83.9974 76.0078 84.2109 76.0078C84.4297 76.0078 84.612 76.0911 84.7578 76.2578C84.9089 76.4245 84.9844 76.6042 84.9844 76.7969C84.9844 76.9896 84.9141 77.1667 84.7734 77.3281C84.6328 77.4844 84.4531 77.5625 84.2344 77.5625ZM93.2422 80.6953C93.2422 81.0599 93.0312 81.2422 92.6094 81.2422C92.3958 81.2422 92.2135 81.1823 92.0625 81.0625C91.9167 80.9375 91.8021 80.8333 91.7188 80.75C91.6406 80.6615 91.5573 80.5807 91.4688 80.5078C91.0938 80.2005 90.6354 80.1667 90.0938 80.4062C89.5573 80.6458 89.1432 81.1562 88.8516 81.9375C88.6901 82.3698 88.6094 82.7995 88.6094 83.2266C88.6094 84.1432 88.8177 84.8932 89.2344 85.4766C89.651 86.0547 90.2891 86.3438 91.1484 86.3438C91.7891 86.3438 92.3646 86.0573 92.875 85.4844C93.0312 85.3125 93.125 85.2266 93.1562 85.2266C93.1875 85.2266 93.2214 85.2422 93.2578 85.2734C93.2943 85.3047 93.3125 85.3516 93.3125 85.4141C93.3125 85.4714 93.2969 85.5156 93.2656 85.5469C92.4688 86.6562 91.4661 87.2109 90.2578 87.2109C89.3828 87.2109 88.6641 86.8854 88.1016 86.2344C87.5443 85.5833 87.2656 84.8385 87.2656 84C87.2708 82.4479 87.6458 81.3307 88.3906 80.6484C89.0469 80.0495 89.9818 79.75 91.1953 79.75C91.9453 79.75 92.4427 79.8255 92.6875 79.9766C92.9323 80.1276 93.1042 80.3177 93.2031 80.5469C93.2292 80.599 93.2422 80.6484 93.2422 80.6953ZM109.07 86.25C109.112 86.25 109.133 86.2995 109.133 86.3984C109.133 86.4922 109.117 86.5443 109.086 86.5547C108.378 87.013 107.768 87.2422 107.258 87.2422C106.753 87.2422 106.318 87.0052 105.953 86.5312C105.776 86.3125 105.604 86.0703 105.438 85.8047C105.271 85.5391 105.13 85.3359 105.016 85.1953C103.552 86.5391 102.253 87.2109 101.117 87.2109C100.362 87.2109 99.7083 86.901 99.1562 86.2812C98.6094 85.6562 98.3359 84.9531 98.3359 84.1719C98.3359 83.0781 98.9323 82.1953 100.125 81.5234C100.484 81.3203 100.872 81.1354 101.289 80.9688C100.695 80.3906 100.328 79.8542 100.188 79.3594C100.135 79.1615 100.109 78.9219 100.109 78.6406C100.109 78.0781 100.344 77.625 100.812 77.2812C101.281 76.9323 101.812 76.7578 102.406 76.7578C103 76.7578 103.516 76.9323 103.953 77.2812C104.396 77.625 104.617 78.0807 104.617 78.6484C104.617 79.3203 104.125 79.9557 103.141 80.5547C103.026 80.6224 102.964 80.6615 102.953 80.6719C102.943 80.6823 102.938 80.7057 102.938 80.7422C102.938 80.7734 102.966 80.8177 103.023 80.875C103.086 80.9271 103.154 80.987 103.227 81.0547C103.305 81.1224 103.417 81.224 103.562 81.3594C103.714 81.4948 103.862 81.6224 104.008 81.7422C104.154 81.862 104.451 82.2057 104.898 82.7734C105.346 83.3411 105.583 83.625 105.609 83.625C105.667 83.625 105.706 83.6042 105.727 83.5625L107.516 80.8594C107.646 80.6615 107.711 80.4922 107.711 80.3516C107.711 80.2109 107.667 80.1146 107.578 80.0625C107.49 80.0052 107.391 79.9661 107.281 79.9453C107.177 79.9193 107.081 79.8958 106.992 79.875C106.904 79.849 106.859 79.7917 106.859 79.7031C106.859 79.6094 106.885 79.5625 106.938 79.5625H109.805C109.826 79.599 109.836 79.6562 109.836 79.7344C109.836 79.8073 109.823 79.8542 109.797 79.875C109.766 79.8958 109.594 79.9219 109.281 79.9531C108.771 80 108.417 80.1797 108.219 80.4922L105.914 84.1406L106.891 85.8203C107.182 86.3307 107.539 86.5859 107.961 86.5859C108.185 86.5859 108.406 86.5365 108.625 86.4375C108.844 86.3385 108.992 86.276 109.07 86.25ZM101.781 86.2812C102.302 86.2812 102.789 86.1589 103.242 85.9141C103.695 85.6641 104.148 85.349 104.602 84.9688C104.69 84.8854 104.732 84.8203 104.727 84.7734C104.727 84.7266 104.727 84.6979 104.727 84.6875C104.721 84.6771 104.719 84.6641 104.719 84.6484C104.016 83.4401 103.151 82.4245 102.125 81.6016C102.068 81.5547 102 81.4974 101.922 81.4297C101.844 81.362 101.768 81.3281 101.695 81.3281C101.602 81.3281 101.451 81.3906 101.242 81.5156C100.799 81.776 100.438 82.1432 100.156 82.6172C99.8802 83.0911 99.7422 83.526 99.7422 83.9219C99.7422 84.6094 99.9531 85.1745 100.375 85.6172C100.797 86.0599 101.266 86.2812 101.781 86.2812ZM103.578 78.6797C103.578 77.7109 103.169 77.2266 102.352 77.2266C101.826 77.2266 101.484 77.4635 101.328 77.9375C101.281 78.0833 101.258 78.2969 101.258 78.5781C101.258 78.8542 101.365 79.1667 101.578 79.5156C101.792 79.8646 102.081 80.151 102.445 80.375C102.768 80.3177 103.036 80.1068 103.25 79.7422C103.469 79.3776 103.578 79.0234 103.578 78.6797ZM17.4844 108.938C17.4844 108.979 17.4635 109 17.4219 109H13.4297C13.388 109 13.3672 108.979 13.3672 108.938V108.75C13.3672 108.708 13.401 108.688 13.4688 108.688C14.1823 108.656 14.6641 108.276 14.9141 107.547L18.1016 98.3203C18.1068 98.3099 18.1094 98.2969 18.1094 98.2812L18.0234 98.0234C18.0234 97.9974 18.0339 97.9844 18.0547 97.9844H19.6172C19.6276 97.9896 19.6406 97.9948 19.6562 98C19.6771 98.0052 19.6927 98.0208 19.7031 98.0469L23.0078 107.32C23.0807 107.461 23.138 107.589 23.1797 107.703C23.2266 107.818 23.2786 107.922 23.3359 108.016C23.4609 108.229 23.6667 108.393 23.9531 108.508C24.1927 108.628 24.4115 108.688 24.6094 108.688C24.651 108.688 24.6719 108.711 24.6719 108.758V108.938C24.6719 108.979 24.651 109 24.6094 109H19.8281C19.7865 109 19.7656 108.979 19.7656 108.938V108.75C19.7656 108.708 19.862 108.682 20.0547 108.672C20.2474 108.661 20.4062 108.651 20.5312 108.641C21.2552 108.562 21.6172 108.318 21.6172 107.906C21.6172 107.875 21.612 107.839 21.6016 107.797L20.4219 104.469C20.4167 104.458 20.4062 104.435 20.3906 104.398C20.3281 104.221 20.2188 104.133 20.0625 104.133H17.2891C17.1328 104.133 17.0104 104.219 16.9219 104.391C16.9062 104.427 16.8984 104.448 16.8984 104.453L15.7266 107.883V107.953C15.7266 108.089 15.7969 108.211 15.9375 108.32C16.2552 108.565 16.6823 108.688 17.2188 108.688H17.4219C17.4635 108.688 17.4844 108.708 17.4844 108.75V108.938ZM19.7969 103.266C19.8906 103.266 19.9375 103.227 19.9375 103.148C19.9375 103.107 19.9271 103.06 19.9062 103.008L18.7422 99.8047C18.6901 99.6641 18.651 99.5938 18.625 99.5938C18.599 99.5938 18.5573 99.6667 18.5 99.8125L17.4062 103.008C17.3854 103.06 17.375 103.117 17.375 103.18C17.375 103.237 17.4141 103.266 17.4922 103.266H19.7969ZM26.5234 104.883C26.4349 104.883 26.3906 105.073 26.3906 105.453C26.3906 106.26 26.6302 106.938 27.1094 107.484C27.5885 108.031 28.1823 108.305 28.8906 108.305C29.6042 108.305 30.2891 107.997 30.9453 107.383C30.9557 107.372 30.9688 107.367 30.9844 107.367H31.0234C31.0547 107.367 31.0833 107.393 31.1094 107.445C31.1406 107.492 31.1693 107.523 31.1953 107.539C30.5911 108.273 29.8802 108.781 29.0625 109.062C28.7812 109.161 28.4635 109.211 28.1094 109.211C27.7552 109.211 27.3958 109.115 27.0312 108.922C26.6667 108.724 26.3542 108.466 26.0938 108.148C25.5417 107.487 25.2656 106.664 25.2656 105.68C25.2656 104.69 25.5651 103.789 26.1641 102.977C26.7682 102.164 27.5964 101.758 28.6484 101.758C29.4036 101.758 30.0208 102.096 30.5 102.773C30.9792 103.445 31.2188 104.036 31.2188 104.547C31.2188 104.771 31.1641 104.883 31.0547 104.883H26.5234ZM26.6094 104.133C26.6094 104.232 26.6562 104.281 26.75 104.281H29.6953C29.8307 104.281 29.8984 104.201 29.8984 104.039C29.8984 103.664 29.7292 103.281 29.3906 102.891C29.0573 102.495 28.6901 102.297 28.2891 102.297C27.8984 102.297 27.5417 102.474 27.2188 102.828C26.901 103.182 26.6979 103.586 26.6094 104.039V104.133ZM36.3203 103.656C36.3203 103.771 36.276 103.828 36.1875 103.828C36.1042 103.828 36.0391 103.766 35.9922 103.641C35.8672 103.297 35.6797 102.992 35.4297 102.727C35.1849 102.461 34.8802 102.328 34.5156 102.328C34.0365 102.328 33.7135 102.568 33.5469 103.047C33.4948 103.208 33.4688 103.375 33.4688 103.547C33.4688 103.719 33.5781 103.911 33.7969 104.125C34.0156 104.333 34.375 104.583 34.875 104.875C35.375 105.167 35.7396 105.414 35.9688 105.617C36.4896 106.081 36.75 106.617 36.75 107.227C36.75 107.836 36.526 108.32 36.0781 108.68C35.6302 109.034 35.1094 109.211 34.5156 109.211C34.1979 109.211 33.9089 109.167 33.6484 109.078C33.3932 108.995 33.2448 108.953 33.2031 108.953C33.1667 108.953 33.1042 108.995 33.0156 109.078C32.9323 109.167 32.8646 109.211 32.8125 109.211H32.6797C32.6484 109.211 32.6094 108.93 32.5625 108.367C32.5156 107.805 32.4922 107.471 32.4922 107.367C32.4922 107.263 32.5 107.206 32.5156 107.195C32.5365 107.185 32.5677 107.18 32.6094 107.18C32.651 107.18 32.6849 107.193 32.7109 107.219C32.7422 107.245 32.7682 107.279 32.7891 107.32C32.8099 107.357 32.8255 107.396 32.8359 107.438C32.8516 107.479 32.8854 107.557 32.9375 107.672C33.2917 108.427 33.8385 108.805 34.5781 108.805C34.9062 108.805 35.1693 108.685 35.3672 108.445C35.5651 108.201 35.6641 107.93 35.6641 107.633C35.6641 107.336 35.5859 107.086 35.4297 106.883C35.2734 106.68 35.0781 106.495 34.8438 106.328C34.6146 106.161 34.3646 106 34.0938 105.844C33.0417 105.229 32.5156 104.549 32.5156 103.805C32.5156 103.247 32.7552 102.768 33.2344 102.367C33.7135 101.961 34.2057 101.758 34.7109 101.758C35.2161 101.758 35.5885 101.812 35.8281 101.922C36.0729 102.031 36.2161 102.125 36.2578 102.203C36.2995 102.276 36.3203 102.521 36.3203 102.938V103.656ZM39.7891 102.992C39.7578 102.992 39.7422 103.016 39.7422 103.062V107.375C39.7422 107.688 39.8099 107.932 39.9453 108.109C40.0859 108.286 40.263 108.375 40.4766 108.375C40.6901 108.375 40.875 108.341 41.0312 108.273C41.1927 108.201 41.3307 108.122 41.4453 108.039C41.5651 107.956 41.6719 107.88 41.7656 107.812C41.8594 107.74 41.9427 107.703 42.0156 107.703C42.0885 107.703 42.125 107.721 42.125 107.758C42.125 107.883 42.112 107.964 42.0859 108C41.4609 108.807 40.8568 109.211 40.2734 109.211C39.6953 109.211 39.2578 109.029 38.9609 108.664C38.6693 108.294 38.5234 107.854 38.5234 107.344V102.992H37.9375C37.7917 102.992 37.7135 102.945 37.7031 102.852C37.6979 102.758 37.7135 102.698 37.75 102.672C38.026 102.495 38.4062 102.177 38.8906 101.719C38.9427 101.661 39.013 101.576 39.1016 101.461C39.1901 101.346 39.3177 101.19 39.4844 100.992C39.6562 100.794 39.7865 100.695 39.875 100.695C39.9635 100.695 40.0078 100.732 40.0078 100.805C40.0078 100.815 39.9193 101.156 39.7422 101.828C39.7422 101.922 39.7839 101.971 39.8672 101.977H41.8594C42.0885 101.977 42.2031 102.299 42.2031 102.945C42.2031 102.977 42.1823 102.992 42.1406 102.992H39.7891ZM45.0703 102.953C45.0703 103.078 45.0885 103.141 45.125 103.141C45.1615 103.141 45.1875 103.133 45.2031 103.117C45.2188 103.096 45.3281 102.974 45.5312 102.75C46.1198 102.094 46.7161 101.766 47.3203 101.766C48.112 101.766 48.6927 101.943 49.0625 102.297C49.5156 102.745 49.7422 103.497 49.7422 104.555V107.812C49.7422 108.323 50.0234 108.62 50.5859 108.703C50.8307 108.734 50.9531 108.789 50.9531 108.867C50.9531 108.945 50.9271 108.99 50.875 109H47.3906C47.3385 108.99 47.3125 108.953 47.3125 108.891C47.3125 108.797 47.4349 108.734 47.6797 108.703C48.2422 108.62 48.5234 108.323 48.5234 107.812V104.633C48.5234 103.867 48.4688 103.37 48.3594 103.141C48.151 102.682 47.7161 102.453 47.0547 102.453C46.6484 102.453 46.2161 102.628 45.7578 102.977C45.2995 103.32 45.0703 103.701 45.0703 104.117V107.812C45.0703 108.323 45.3516 108.62 45.9141 108.703C46.1589 108.734 46.2812 108.789 46.2812 108.867C46.2812 108.945 46.2552 108.99 46.2031 109H42.7188C42.6667 108.99 42.6406 108.953 42.6406 108.891C42.6406 108.797 42.763 108.734 43.0078 108.703C43.5703 108.62 43.8516 108.323 43.8516 107.812V98.0703C43.8516 97.8516 43.7318 97.7005 43.4922 97.6172C43.388 97.5807 43.276 97.5521 43.1562 97.5312C43.0365 97.5052 42.9401 97.4818 42.8672 97.4609C42.7995 97.4401 42.7552 97.4219 42.7344 97.4062C42.7188 97.3854 42.7109 97.3464 42.7109 97.2891C42.7109 97.2266 42.75 97.1745 42.8281 97.1328L44.8203 96.1953C44.8828 96.1641 44.9219 96.1484 44.9375 96.1484C45.026 96.1484 45.0703 96.2109 45.0703 96.3359V102.953ZM52.9922 104.883C52.9036 104.883 52.8594 105.073 52.8594 105.453C52.8594 106.26 53.099 106.938 53.5781 107.484C54.0573 108.031 54.651 108.305 55.3594 108.305C56.0729 108.305 56.7578 107.997 57.4141 107.383C57.4245 107.372 57.4375 107.367 57.4531 107.367H57.4922C57.5234 107.367 57.5521 107.393 57.5781 107.445C57.6094 107.492 57.638 107.523 57.6641 107.539C57.0599 108.273 56.349 108.781 55.5312 109.062C55.25 109.161 54.9323 109.211 54.5781 109.211C54.224 109.211 53.8646 109.115 53.5 108.922C53.1354 108.724 52.8229 108.466 52.5625 108.148C52.0104 107.487 51.7344 106.664 51.7344 105.68C51.7344 104.69 52.0339 103.789 52.6328 102.977C53.237 102.164 54.0651 101.758 55.1172 101.758C55.8724 101.758 56.4896 102.096 56.9688 102.773C57.4479 103.445 57.6875 104.036 57.6875 104.547C57.6875 104.771 57.6328 104.883 57.5234 104.883H52.9922ZM53.0781 104.133C53.0781 104.232 53.125 104.281 53.2188 104.281H56.1641C56.2995 104.281 56.3672 104.201 56.3672 104.039C56.3672 103.664 56.1979 103.281 55.8594 102.891C55.526 102.495 55.1589 102.297 54.7578 102.297C54.3672 102.297 54.0104 102.474 53.6875 102.828C53.3698 103.182 53.1667 103.586 53.0781 104.039V104.133ZM60.8984 102.992C60.8672 102.992 60.8516 103.016 60.8516 103.062V107.375C60.8516 107.688 60.9193 107.932 61.0547 108.109C61.1953 108.286 61.3724 108.375 61.5859 108.375C61.7995 108.375 61.9844 108.341 62.1406 108.273C62.3021 108.201 62.4401 108.122 62.5547 108.039C62.6745 107.956 62.7812 107.88 62.875 107.812C62.9688 107.74 63.0521 107.703 63.125 107.703C63.1979 107.703 63.2344 107.721 63.2344 107.758C63.2344 107.883 63.2214 107.964 63.1953 108C62.5703 108.807 61.9661 109.211 61.3828 109.211C60.8047 109.211 60.3672 109.029 60.0703 108.664C59.7786 108.294 59.6328 107.854 59.6328 107.344V102.992H59.0469C58.901 102.992 58.8229 102.945 58.8125 102.852C58.8073 102.758 58.8229 102.698 58.8594 102.672C59.1354 102.495 59.5156 102.177 60 101.719C60.0521 101.661 60.1224 101.576 60.2109 101.461C60.2995 101.346 60.4271 101.19 60.5938 100.992C60.7656 100.794 60.8958 100.695 60.9844 100.695C61.0729 100.695 61.1172 100.732 61.1172 100.805C61.1172 100.815 61.0286 101.156 60.8516 101.828C60.8516 101.922 60.8932 101.971 60.9766 101.977H62.9688C63.1979 101.977 63.3125 102.299 63.3125 102.945C63.3125 102.977 63.2917 102.992 63.25 102.992H60.8984ZM64.0625 109C64.0104 108.99 63.9844 108.953 63.9844 108.891C63.9844 108.797 64.1068 108.734 64.3516 108.703C64.9141 108.62 65.1953 108.323 65.1953 107.812V103.68C65.1953 103.461 65.0755 103.31 64.8359 103.227C64.7318 103.19 64.6198 103.161 64.5 103.141C64.3802 103.115 64.2839 103.091 64.2109 103.07C64.1432 103.049 64.099 103.031 64.0781 103.016C64.0625 102.995 64.0547 102.956 64.0547 102.898C64.0547 102.836 64.0938 102.784 64.1719 102.742L66.1641 101.805C66.2266 101.773 66.2656 101.758 66.2812 101.758C66.3698 101.758 66.4141 101.82 66.4141 101.945V107.812C66.4141 108.323 66.6953 108.62 67.2578 108.703C67.5026 108.734 67.625 108.789 67.625 108.867C67.625 108.945 67.599 108.99 67.5469 109H64.0625ZM65.6875 99.5625C65.474 99.5625 65.2839 99.4948 65.1172 99.3594C64.9557 99.224 64.875 99.0365 64.875 98.7969C64.875 98.5521 64.9531 98.3594 65.1094 98.2188C65.2656 98.0781 65.4505 98.0078 65.6641 98.0078C65.8828 98.0078 66.0651 98.0911 66.2109 98.2578C66.362 98.4245 66.4375 98.6042 66.4375 98.7969C66.4375 98.9896 66.3672 99.1667 66.2266 99.3281C66.0859 99.4844 65.9062 99.5625 65.6875 99.5625ZM74.6953 102.695C74.6953 103.06 74.4844 103.242 74.0625 103.242C73.849 103.242 73.6667 103.182 73.5156 103.062C73.3698 102.938 73.2552 102.833 73.1719 102.75C73.0938 102.661 73.0104 102.581 72.9219 102.508C72.5469 102.201 72.0885 102.167 71.5469 102.406C71.0104 102.646 70.5964 103.156 70.3047 103.938C70.1432 104.37 70.0625 104.799 70.0625 105.227C70.0625 106.143 70.2708 106.893 70.6875 107.477C71.1042 108.055 71.7422 108.344 72.6016 108.344C73.2422 108.344 73.8177 108.057 74.3281 107.484C74.4844 107.312 74.5781 107.227 74.6094 107.227C74.6406 107.227 74.6745 107.242 74.7109 107.273C74.7474 107.305 74.7656 107.352 74.7656 107.414C74.7656 107.471 74.75 107.516 74.7188 107.547C73.9219 108.656 72.9193 109.211 71.7109 109.211C70.8359 109.211 70.1172 108.885 69.5547 108.234C68.9974 107.583 68.7188 106.839 68.7188 106C68.724 104.448 69.099 103.331 69.8438 102.648C70.5 102.049 71.4349 101.75 72.6484 101.75C73.3984 101.75 73.8958 101.826 74.1406 101.977C74.3854 102.128 74.5573 102.318 74.6562 102.547C74.6823 102.599 74.6953 102.648 74.6953 102.695ZM90.1172 108.703C90.0911 108.745 90.026 108.755 89.9219 108.734C89.8229 108.708 89.7057 108.695 89.5703 108.695C89.4349 108.695 89.2422 108.724 88.9922 108.781C88.7474 108.833 88.3594 108.917 87.8281 109.031C87.2969 109.151 86.8125 109.211 86.375 109.211C85.3854 109.211 84.4245 108.979 83.4922 108.516C82.5651 108.047 81.8229 107.385 81.2656 106.531C80.7083 105.672 80.4297 104.677 80.4297 103.547C80.4297 102.417 80.7083 101.393 81.2656 100.477C82.0781 99.1328 83.3021 98.2578 84.9375 97.8516C85.4583 97.7214 85.9792 97.6562 86.5 97.6562C87.2135 97.6562 88.0599 97.776 89.0391 98.0156C89.3359 98.0885 89.5859 98.1641 89.7891 98.2422C89.9974 98.3203 90.125 98.3594 90.1719 98.3594L90.4062 98.2969H90.6484C90.7109 98.2969 90.7422 98.3411 90.7422 98.4297V100.859C90.7422 100.911 90.6953 100.938 90.6016 100.938C90.5078 100.938 90.4531 100.927 90.4375 100.906C90.4219 100.88 90.4062 100.852 90.3906 100.82C90.375 100.784 90.3568 100.747 90.3359 100.711C90.3203 100.674 90.3021 100.641 90.2812 100.609C90.2656 100.578 90.2552 100.555 90.25 100.539C89.4688 98.9714 88.2839 98.1875 86.6953 98.1875C85.263 98.1875 84.1432 98.6432 83.3359 99.5547C82.5286 100.466 82.125 101.674 82.125 103.18C82.125 104.68 82.5677 105.969 83.4531 107.047C84.3438 108.125 85.5521 108.664 87.0781 108.664C87.9115 108.664 88.6693 108.417 89.3516 107.922C90.0391 107.427 90.5781 106.82 90.9688 106.102C90.9792 106.07 91.0104 106.055 91.0625 106.055H91.1641C91.2161 106.055 91.2422 106.086 91.2422 106.148C91.2422 106.211 91.2266 106.271 91.1953 106.328L90.1172 108.703ZM95.2734 108.703C95.5182 108.734 95.6406 108.797 95.6406 108.891C95.6406 108.953 95.6146 108.99 95.5625 109H92.0781C92.026 108.99 92 108.953 92 108.891C92 108.797 92.1224 108.734 92.3672 108.703C92.9297 108.62 93.2109 108.323 93.2109 107.812V98.0703C93.2109 97.8516 93.0911 97.7005 92.8516 97.6172C92.7474 97.5807 92.6354 97.5521 92.5156 97.5312C92.3958 97.5052 92.2995 97.4818 92.2266 97.4609C92.1589 97.4401 92.1146 97.4219 92.0938 97.4062C92.0781 97.3854 92.0703 97.3464 92.0703 97.2891C92.0703 97.2266 92.1094 97.1745 92.1875 97.1328L94.1797 96.1953C94.2422 96.1641 94.2812 96.1484 94.2969 96.1484C94.3854 96.1484 94.4297 96.2109 94.4297 96.3359V107.812C94.4297 108.323 94.7109 108.62 95.2734 108.703ZM96.4688 109C96.4167 108.99 96.3906 108.953 96.3906 108.891C96.3906 108.797 96.513 108.734 96.7578 108.703C97.3203 108.62 97.6016 108.323 97.6016 107.812V103.68C97.6016 103.461 97.4818 103.31 97.2422 103.227C97.138 103.19 97.026 103.161 96.9062 103.141C96.7865 103.115 96.6901 103.091 96.6172 103.07C96.5495 103.049 96.5052 103.031 96.4844 103.016C96.4688 102.995 96.4609 102.956 96.4609 102.898C96.4609 102.836 96.5 102.784 96.5781 102.742L98.5703 101.805C98.6328 101.773 98.6719 101.758 98.6875 101.758C98.776 101.758 98.8203 101.82 98.8203 101.945V107.812C98.8203 108.323 99.1016 108.62 99.6641 108.703C99.9089 108.734 100.031 108.789 100.031 108.867C100.031 108.945 100.005 108.99 99.9531 109H96.4688ZM98.0938 99.5625C97.8802 99.5625 97.6901 99.4948 97.5234 99.3594C97.362 99.224 97.2812 99.0365 97.2812 98.7969C97.2812 98.5521 97.3594 98.3594 97.5156 98.2188C97.6719 98.0781 97.8568 98.0078 98.0703 98.0078C98.2891 98.0078 98.4714 98.0911 98.6172 98.2578C98.7682 98.4245 98.8438 98.6042 98.8438 98.7969C98.8438 98.9896 98.7734 99.1667 98.6328 99.3281C98.4922 99.4844 98.3125 99.5625 98.0938 99.5625ZM106.703 106.539L106.688 104.891C106.688 104.219 106.63 103.747 106.516 103.477C106.401 103.206 106.255 103.003 106.078 102.867C105.901 102.727 105.661 102.656 105.359 102.656C105.062 102.656 104.43 102.891 103.461 103.359C103.331 103.438 103.263 103.51 103.258 103.578V107.781C103.258 108.307 103.539 108.609 104.102 108.688C104.346 108.724 104.469 108.784 104.469 108.867C104.469 108.945 104.443 108.99 104.391 109H100.906C100.854 108.99 100.828 108.953 100.828 108.891C100.828 108.792 100.951 108.724 101.195 108.688C101.758 108.609 102.039 108.307 102.039 107.781V103.297C102.039 103.078 101.919 102.927 101.68 102.844C101.576 102.807 101.464 102.779 101.344 102.758C101.224 102.732 101.128 102.708 101.055 102.688C100.987 102.667 100.943 102.648 100.922 102.633C100.906 102.612 100.898 102.573 100.898 102.516C100.898 102.453 100.938 102.401 101.016 102.359L103.008 101.422C103.07 101.391 103.109 101.375 103.125 101.375C103.214 101.375 103.258 101.438 103.258 101.562V102.781C103.273 102.833 103.294 102.859 103.32 102.859C103.352 102.859 103.464 102.812 103.656 102.719C104.104 102.495 104.555 102.279 105.008 102.07C105.461 101.862 105.836 101.758 106.133 101.758C107.336 101.758 107.938 102.854 107.938 105.047L107.867 107.328V107.781C107.867 108.188 108.07 108.453 108.477 108.578C108.648 108.635 108.812 108.677 108.969 108.703C109.13 108.724 109.234 108.745 109.281 108.766C109.333 108.786 109.359 108.828 109.359 108.891C109.359 108.953 109.333 108.99 109.281 109H105.516C105.464 108.99 105.438 108.953 105.438 108.891C105.438 108.792 105.56 108.724 105.805 108.688C106.362 108.609 106.641 108.286 106.641 107.719C106.682 107.458 106.703 107.065 106.703 106.539ZM110.062 109C110.01 108.99 109.984 108.953 109.984 108.891C109.984 108.797 110.107 108.734 110.352 108.703C110.914 108.62 111.195 108.323 111.195 107.812V103.68C111.195 103.461 111.076 103.31 110.836 103.227C110.732 103.19 110.62 103.161 110.5 103.141C110.38 103.115 110.284 103.091 110.211 103.07C110.143 103.049 110.099 103.031 110.078 103.016C110.062 102.995 110.055 102.956 110.055 102.898C110.055 102.836 110.094 102.784 110.172 102.742L112.164 101.805C112.227 101.773 112.266 101.758 112.281 101.758C112.37 101.758 112.414 101.82 112.414 101.945V107.812C112.414 108.323 112.695 108.62 113.258 108.703C113.503 108.734 113.625 108.789 113.625 108.867C113.625 108.945 113.599 108.99 113.547 109H110.062ZM111.688 99.5625C111.474 99.5625 111.284 99.4948 111.117 99.3594C110.956 99.224 110.875 99.0365 110.875 98.7969C110.875 98.5521 110.953 98.3594 111.109 98.2188C111.266 98.0781 111.451 98.0078 111.664 98.0078C111.883 98.0078 112.065 98.0911 112.211 98.2578C112.362 98.4245 112.438 98.6042 112.438 98.7969C112.438 98.9896 112.367 99.1667 112.227 99.3281C112.086 99.4844 111.906 99.5625 111.688 99.5625ZM120.695 102.695C120.695 103.06 120.484 103.242 120.062 103.242C119.849 103.242 119.667 103.182 119.516 103.062C119.37 102.938 119.255 102.833 119.172 102.75C119.094 102.661 119.01 102.581 118.922 102.508C118.547 102.201 118.089 102.167 117.547 102.406C117.01 102.646 116.596 103.156 116.305 103.938C116.143 104.37 116.062 104.799 116.062 105.227C116.062 106.143 116.271 106.893 116.688 107.477C117.104 108.055 117.742 108.344 118.602 108.344C119.242 108.344 119.818 108.057 120.328 107.484C120.484 107.312 120.578 107.227 120.609 107.227C120.641 107.227 120.674 107.242 120.711 107.273C120.747 107.305 120.766 107.352 120.766 107.414C120.766 107.471 120.75 107.516 120.719 107.547C119.922 108.656 118.919 109.211 117.711 109.211C116.836 109.211 116.117 108.885 115.555 108.234C114.997 107.583 114.719 106.839 114.719 106C114.724 104.448 115.099 103.331 115.844 102.648C116.5 102.049 117.435 101.75 118.648 101.75C119.398 101.75 119.896 101.826 120.141 101.977C120.385 102.128 120.557 102.318 120.656 102.547C120.682 102.599 120.695 102.648 120.695 102.695ZM125.648 103.656C125.648 103.771 125.604 103.828 125.516 103.828C125.432 103.828 125.367 103.766 125.32 103.641C125.195 103.297 125.008 102.992 124.758 102.727C124.513 102.461 124.208 102.328 123.844 102.328C123.365 102.328 123.042 102.568 122.875 103.047C122.823 103.208 122.797 103.375 122.797 103.547C122.797 103.719 122.906 103.911 123.125 104.125C123.344 104.333 123.703 104.583 124.203 104.875C124.703 105.167 125.068 105.414 125.297 105.617C125.818 106.081 126.078 106.617 126.078 107.227C126.078 107.836 125.854 108.32 125.406 108.68C124.958 109.034 124.438 109.211 123.844 109.211C123.526 109.211 123.237 109.167 122.977 109.078C122.721 108.995 122.573 108.953 122.531 108.953C122.495 108.953 122.432 108.995 122.344 109.078C122.26 109.167 122.193 109.211 122.141 109.211H122.008C121.977 109.211 121.938 108.93 121.891 108.367C121.844 107.805 121.82 107.471 121.82 107.367C121.82 107.263 121.828 107.206 121.844 107.195C121.865 107.185 121.896 107.18 121.938 107.18C121.979 107.18 122.013 107.193 122.039 107.219C122.07 107.245 122.096 107.279 122.117 107.32C122.138 107.357 122.154 107.396 122.164 107.438C122.18 107.479 122.214 107.557 122.266 107.672C122.62 108.427 123.167 108.805 123.906 108.805C124.234 108.805 124.497 108.685 124.695 108.445C124.893 108.201 124.992 107.93 124.992 107.633C124.992 107.336 124.914 107.086 124.758 106.883C124.602 106.68 124.406 106.495 124.172 106.328C123.943 106.161 123.693 106 123.422 105.844C122.37 105.229 121.844 104.549 121.844 103.805C121.844 103.247 122.083 102.768 122.562 102.367C123.042 101.961 123.534 101.758 124.039 101.758C124.544 101.758 124.917 101.812 125.156 101.922C125.401 102.031 125.544 102.125 125.586 102.203C125.628 102.276 125.648 102.521 125.648 102.938V103.656Z" fill="#835AA1"/>
<defs>
<clipPath id="clip0_967_235">
<rect width="40" height="62.746" fill="white" transform="translate(50)"/>
</clipPath>
</defs>
</svg>
