<svg width="140" height="121" viewBox="0 0 140 121" fill="none" xmlns="http://www.w3.org/2000/svg">
<g clip-path="url(#clip0_967_237)">
<path fill-rule="evenodd" clip-rule="evenodd" d="M58.3185 30.0949C58.3243 30.0426 58.3403 29.992 58.3656 29.9459C58.391 29.8998 58.4252 29.8591 58.4662 29.8262C58.5073 29.7933 58.5545 29.7689 58.605 29.7542C58.6555 29.7395 58.7084 29.7349 58.7607 29.7407C58.813 29.7465 58.8637 29.7625 58.9098 29.7879C58.9559 29.8132 58.9966 29.8474 59.0295 29.8885C59.0623 29.9295 59.0868 29.9767 59.1015 30.0272C59.1162 30.0777 59.1208 30.1307 59.115 30.183C59.115 30.2668 59.115 30.6022 59.115 30.904C59.115 31.0969 59.115 31.2645 59.115 31.3232C58.9599 34.4254 60.2091 38.0725 62.3219 40.9902C64.2503 43.6522 66.8871 45.698 69.809 46.1507C69.9124 46.1668 70.0052 46.2234 70.0669 46.3079C70.1286 46.3924 70.1542 46.498 70.1381 46.6014C70.122 46.7048 70.0655 46.7975 69.981 46.8592C69.8964 46.9209 69.7909 46.9466 69.6875 46.9304C66.5392 46.4484 63.7221 44.2768 61.6805 41.4556C59.4713 38.3995 58.1592 34.5637 58.3269 31.2855C58.3269 31.2142 58.3269 31.0633 58.3269 30.8914C58.3185 30.5728 58.3185 30.2039 58.3185 30.0949Z" fill="#7732BC"/>
<path fill-rule="evenodd" clip-rule="evenodd" d="M63.7995 44.0162C63.8025 43.9645 63.8157 43.9138 63.8383 43.8672C63.8609 43.8205 63.8924 43.7788 63.9312 43.7443C63.9699 43.7099 64.0151 43.6834 64.064 43.6664C64.113 43.6494 64.1648 43.6422 64.2166 43.6452C64.2683 43.6482 64.319 43.6614 64.3656 43.684C64.4123 43.7066 64.454 43.7382 64.4885 43.7769C64.5229 43.8157 64.5494 43.8608 64.5664 43.9098C64.5834 43.9587 64.5906 44.0106 64.5876 44.0623C64.508 45.8491 64.2009 47.6185 63.6737 49.3276C63.1951 50.8694 62.3821 52.2865 61.2926 53.4778C61.2563 53.5149 61.2129 53.5444 61.165 53.5646C61.1172 53.5847 61.0657 53.5951 61.0138 53.5951C60.9619 53.5951 60.9105 53.5847 60.8626 53.5646C60.8147 53.5444 60.7713 53.5149 60.735 53.4778C60.6667 53.401 60.6289 53.3018 60.6289 53.199C60.6289 53.0962 60.6667 52.997 60.735 52.9202C61.7455 51.8123 62.4997 50.4956 62.9443 49.0635C63.4419 47.4241 63.7293 45.7281 63.7995 44.0162Z" fill="#7732BC"/>
<path fill-rule="evenodd" clip-rule="evenodd" d="M61.8141 18.1394C61.8054 18.0876 61.807 18.0346 61.8191 17.9835C61.8311 17.9323 61.8532 17.8841 61.8842 17.8417C61.9151 17.7993 61.9542 17.7634 61.9992 17.7363C62.0441 17.7092 62.0941 17.6913 62.146 17.6838C62.198 17.6762 62.251 17.6792 62.3018 17.6924C62.3526 17.7056 62.4003 17.7288 62.442 17.7607C62.4837 17.7926 62.5187 17.8325 62.5447 17.8781C62.5708 17.9237 62.5875 17.9741 62.5938 18.0262C63.3107 22.5746 68.0436 24.4401 72.8268 26.3182C75.9834 27.5758 79.1527 28.8041 81.2822 30.8499C81.5044 31.0636 81.7392 31.2691 81.9656 31.4787C83.1561 32.5518 84.0616 33.3735 84.1916 35.5031C84.4138 39.3263 83.1184 41.7493 81.3032 45.1449C80.0213 47.4638 78.8831 49.8592 77.895 52.3176C77.8572 52.4155 77.7821 52.4943 77.6862 52.5367C77.5903 52.5792 77.4814 52.5818 77.3836 52.544C77.2857 52.5062 77.2069 52.4311 77.1645 52.3352C77.122 52.2393 77.1194 52.1304 77.1572 52.0326C78.1576 49.544 79.3098 47.1192 80.6073 44.7718C82.3638 41.481 83.6089 39.1418 83.4035 35.5492C83.2986 33.7466 82.4896 33.0339 81.4374 32.0698C81.2194 31.8727 80.9888 31.6505 80.7331 31.4242C78.7209 29.4874 75.6229 28.2717 72.5417 27.056C67.5405 25.0899 62.6022 23.1406 61.8141 18.1394Z" fill="#7732BC"/>
<path fill-rule="evenodd" clip-rule="evenodd" d="M80.432 31.3358C80.4416 31.2338 80.491 31.1397 80.5694 31.0738C80.6479 31.0079 80.7491 30.9755 80.8512 30.9837C80.9528 30.9943 81.0463 31.0439 81.112 31.1221C81.1777 31.2003 81.2104 31.301 81.2034 31.4029C80.7829 35.1904 79.4083 38.8093 77.2083 41.9209C75.326 44.4864 72.8233 46.4442 69.7757 46.9137C69.6723 46.9298 69.5667 46.9042 69.4822 46.8425C69.3977 46.7807 69.3411 46.688 69.325 46.5846C69.3089 46.4812 69.3345 46.3756 69.3962 46.2911C69.4579 46.2066 69.5507 46.1501 69.6541 46.1339C72.4712 45.7147 74.802 43.8618 76.5711 41.4555C78.6928 38.4629 80.0212 34.9812 80.432 31.3358Z" fill="#7732BC"/>
<path fill-rule="evenodd" clip-rule="evenodd" d="M74.8449 44.0794C74.8409 44.0275 74.8474 43.9753 74.8639 43.926C74.8803 43.8766 74.9066 43.831 74.9409 43.792C74.9753 43.7529 75.0172 43.7211 75.064 43.6985C75.1109 43.6758 75.1618 43.6628 75.2138 43.6602C75.3174 43.6595 75.4176 43.6973 75.495 43.7662C75.5725 43.8351 75.6216 43.9303 75.633 44.0333C75.9348 48.829 76.9829 51.5162 78.8987 53.2224C80.8145 54.9285 83.6902 55.7125 87.5638 56.6557C87.6655 56.6796 87.7535 56.7429 87.8086 56.8318C87.8636 56.9206 87.8811 57.0277 87.8572 57.1294C87.8278 57.2287 87.7628 57.3136 87.6745 57.3678C87.5863 57.422 87.4811 57.4416 87.3793 57.4229C83.3884 56.4545 80.4414 55.6496 78.3746 53.8134C76.3079 51.9773 75.1593 49.1141 74.8449 44.0794Z" fill="#7732BC"/>
<path fill-rule="evenodd" clip-rule="evenodd" d="M60.6722 53.3315C60.6493 53.2842 60.6361 53.2329 60.6334 53.1804C60.6306 53.128 60.6383 53.0755 60.6561 53.0261C60.6739 52.9767 60.7015 52.9313 60.737 52.8927C60.7726 52.8541 60.8156 52.823 60.8633 52.8012C60.9111 52.7794 60.9628 52.7673 61.0153 52.7658C61.0678 52.7642 61.12 52.7732 61.169 52.7922C61.218 52.8111 61.2627 52.8396 61.3005 52.8761C61.3383 52.9126 61.3684 52.9562 61.3891 53.0045C62.086 54.3451 63.1977 55.4245 64.5583 56.0815C66.1461 56.9329 67.9133 57.3956 69.7146 57.4314C71.5167 57.3951 73.2848 56.9341 74.8751 56.0857C76.2268 55.4215 77.3302 54.3416 78.0234 53.0045C78.0711 52.9129 78.151 52.8421 78.2477 52.8057C78.3444 52.7693 78.4511 52.77 78.5474 52.8075C78.5945 52.8291 78.6369 52.8599 78.6721 52.898C78.7074 52.9361 78.7347 52.9807 78.7526 53.0294C78.7705 53.0781 78.7787 53.1299 78.7765 53.1817C78.7744 53.2335 78.7621 53.2844 78.7402 53.3315C78.0737 54.7945 76.7657 55.9557 75.2314 56.7816C73.5263 57.6917 71.6302 58.1858 69.6978 58.2237C67.774 58.1814 65.8871 57.6874 64.1894 56.7816C62.6764 56.0399 61.4429 54.83 60.6722 53.3315Z" fill="#7732BC"/>
<path fill-rule="evenodd" clip-rule="evenodd" d="M49.8287 46.5524C49.8215 46.4619 49.833 46.3708 49.8627 46.2849C49.8924 46.1991 49.9395 46.1203 50.0012 46.0535C50.0628 45.9868 50.1376 45.9335 50.2208 45.897C50.304 45.8606 50.3939 45.8418 50.4848 45.8418C50.5756 45.8418 50.6655 45.8606 50.7487 45.897C50.8319 45.9335 50.9067 45.9868 50.9684 46.0535C51.03 46.1203 51.0771 46.1991 51.1068 46.2849C51.1365 46.3708 51.1481 46.4619 51.1408 46.5524V51.6375C51.1408 55.9805 53.283 59.7911 56.5486 62.5747C60.2375 65.6697 64.8987 67.3661 69.714 67.3661C74.5292 67.3661 79.1905 65.6697 82.8793 62.5747C86.1407 59.7911 88.2829 55.9805 88.2829 51.6375V46.9172C88.2829 46.7426 88.3522 46.5752 88.4757 46.4518C88.5991 46.3283 88.7665 46.259 88.9411 46.259C89.1156 46.259 89.283 46.3283 89.4065 46.4518C89.5299 46.5752 89.5992 46.7426 89.5992 46.9172V51.6375C89.5992 56.3997 87.2768 60.5583 83.7303 63.5766C79.8031 66.8753 74.8385 68.6836 69.7098 68.6836C64.581 68.6836 59.6165 66.8753 55.6893 63.5766C52.1469 60.5583 49.8203 56.3997 49.8203 51.6375L49.8287 46.5524Z" fill="#7732BC"/>
<path fill-rule="evenodd" clip-rule="evenodd" d="M53.8346 60.2618C53.7898 60.2876 53.7402 60.3044 53.6889 60.3112C53.6375 60.3179 53.5854 60.3144 53.5353 60.301C53.4343 60.2739 53.3482 60.2078 53.296 60.1171C53.2437 60.0265 53.2296 59.9189 53.2567 59.8178C53.2838 59.7168 53.35 59.6307 53.4406 59.5785C53.8081 59.3676 54.1536 59.1204 54.4718 58.8406C55.7071 57.7549 56.4908 56.2458 56.6685 54.6108C56.8823 52.825 56.4631 50.708 55.1216 48.3897C54.497 47.3236 53.7697 46.3211 52.9501 45.3966C48.6783 40.496 51.4787 35.5912 54.4173 30.4517C57.0626 25.8194 59.8335 20.9859 57.247 15.9302C57.2236 15.884 57.2096 15.8336 57.2056 15.7819C57.2017 15.7302 57.208 15.6783 57.2242 15.629C57.2403 15.5798 57.266 15.5342 57.2998 15.4949C57.3336 15.4556 57.3747 15.4233 57.421 15.3999C57.5144 15.3527 57.6227 15.3445 57.7222 15.3771C57.7714 15.3932 57.817 15.4189 57.8563 15.4527C57.8956 15.4865 57.9279 15.5277 57.9513 15.5739C60.7307 21.0027 57.8591 26.0206 55.1048 30.8374C52.3087 35.7254 49.6551 40.3912 53.5454 44.8683C54.3966 45.8348 55.1532 46.8807 55.8049 47.9915C57.2386 50.4774 57.6872 52.7579 57.4566 54.6988C57.255 56.529 56.3757 58.2174 54.9917 59.4317C54.6344 59.7461 54.2469 60.0241 53.8346 60.2618Z" fill="#7732BC"/>
<path fill-rule="evenodd" clip-rule="evenodd" d="M50.8822 31.2231C50.8721 31.3211 50.826 31.4119 50.7528 31.478C50.6796 31.544 50.5846 31.5805 50.486 31.5805C50.3874 31.5805 50.2924 31.544 50.2192 31.478C50.146 31.4119 50.0999 31.3211 50.0898 31.2231V28.385C50.0898 23.7066 52.3745 19.6151 55.8582 16.6471C59.6102 13.495 64.3249 11.7164 69.2241 11.6052C74.1232 11.4939 78.9138 13.0565 82.8051 16.0351C86.2593 18.6971 88.7117 22.3945 89.2316 26.683C89.2387 26.7843 89.2065 26.8844 89.1417 26.9625C89.0769 27.0405 88.9844 27.0906 88.8836 27.1022C88.7828 27.1105 88.6827 27.0793 88.6045 27.0152C88.5263 26.951 88.476 26.859 88.4644 26.7585C87.9739 22.6963 85.6389 19.1834 82.3439 16.6429C78.5957 13.7774 73.9832 12.2741 69.2663 12.3808C64.5494 12.4875 60.0096 14.1978 56.3948 17.2298C53.0746 20.0595 50.8989 23.9372 50.8989 28.3725L50.8822 31.2231Z" fill="#7732BC"/>
<path fill-rule="evenodd" clip-rule="evenodd" d="M52.5173 57.969C52.4556 58.0411 52.3699 58.0885 52.276 58.1025C52.1821 58.1165 52.0863 58.0961 52.0062 58.0451C51.9261 57.9941 51.8672 57.9159 51.8401 57.8249C51.8131 57.7339 51.8199 57.6362 51.8591 57.5498C52.3827 56.7212 52.7328 55.7952 52.8884 54.8275C53.0441 53.8598 53.0019 52.8707 52.7646 51.9198C52.3454 49.9579 51.2387 47.757 49.193 45.4136C44.9044 40.4963 47.7173 35.5915 50.6602 30.452C52.8694 26.6246 55.1164 22.6589 54.3912 18.5716C54.3729 18.4687 54.3961 18.3628 54.4559 18.2771C54.5156 18.1915 54.6069 18.133 54.7098 18.1146C54.813 18.1016 54.9173 18.1275 55.0026 18.1871C55.0878 18.2468 55.1478 18.336 55.1709 18.4374C55.9464 22.8014 53.6072 26.8929 51.3477 30.846C48.5474 35.734 45.898 40.3999 49.7882 44.877C51.9262 47.3294 53.0916 49.6518 53.5611 51.7395C53.8176 52.7945 53.8574 53.8905 53.678 54.9613C53.4986 56.0321 53.1037 57.0553 52.5173 57.969Z" fill="#7732BC"/>
<path fill-rule="evenodd" clip-rule="evenodd" d="M74.8449 44.0794C74.8409 44.0275 74.8474 43.9753 74.8639 43.926C74.8803 43.8766 74.9066 43.831 74.9409 43.792C74.9753 43.7529 75.0172 43.7211 75.064 43.6985C75.1109 43.6758 75.1618 43.6628 75.2138 43.6602C75.3174 43.6595 75.4176 43.6973 75.495 43.7662C75.5725 43.8351 75.6216 43.9303 75.633 44.0333C75.7072 45.9049 76.0517 47.7561 76.6559 49.5291C77.2006 51.0804 78.1243 52.4709 79.343 53.5745C79.4209 53.6445 79.4677 53.7426 79.4732 53.8472C79.4787 53.9518 79.4424 54.0542 79.3724 54.1321C79.3023 54.2099 79.2042 54.2567 79.0997 54.2622C78.9951 54.2677 78.8926 54.2314 78.8148 54.1614C77.5046 52.9708 76.5118 51.4724 75.9265 49.8016C75.2904 47.9567 74.926 46.0291 74.8449 44.0794Z" fill="#7732BC"/>
<path fill-rule="evenodd" clip-rule="evenodd" d="M87.0824 56.6472C87.1039 56.6945 87.1158 56.7457 87.1175 56.7976C87.1192 56.8496 87.1107 56.9014 87.0924 56.95C87.0741 56.9987 87.0464 57.0432 87.0109 57.0812C86.9754 57.1192 86.9327 57.1497 86.8854 57.1712C86.838 57.1927 86.7869 57.2046 86.7349 57.2063C86.683 57.208 86.6312 57.1995 86.5825 57.1812C86.5339 57.1629 86.4893 57.1352 86.4514 57.0997C86.4134 57.0642 86.3828 57.0215 86.3613 56.9742C85.5578 55.1187 85.4448 53.0368 86.0427 51.1052C86.5709 49.1811 87.7196 47.0724 89.6438 44.8548C91.5679 42.6372 92.5363 39.2458 92.1087 35.7453C91.6566 32.2668 89.9855 29.0613 87.3926 26.6988C87.3231 26.6217 87.2846 26.5217 87.2846 26.4179C87.2846 26.3141 87.3231 26.2141 87.3926 26.137C87.4292 26.1004 87.4727 26.0713 87.5205 26.0515C87.5683 26.0317 87.6196 26.0215 87.6714 26.0215C87.7232 26.0215 87.7744 26.0317 87.8223 26.0515C87.8701 26.0713 87.9136 26.1004 87.9502 26.137C90.674 28.6318 92.4265 32.0105 92.8968 35.6741C93.3496 39.3925 92.3435 42.9851 90.2349 45.3956C88.3861 47.4916 87.3004 49.5206 86.8015 51.3358C86.2584 53.0831 86.358 54.967 87.0824 56.6472Z" fill="#7732BC"/>
<path fill-rule="evenodd" clip-rule="evenodd" d="M60.6621 14.8152C60.6359 14.769 60.6192 14.718 60.6132 14.6653C60.6072 14.6125 60.6119 14.5591 60.6271 14.5082C60.6422 14.4573 60.6675 14.41 60.7014 14.3691C60.7353 14.3282 60.7771 14.2946 60.8243 14.2703C60.8716 14.246 60.9232 14.2315 60.9762 14.2276C61.0291 14.2237 61.0823 14.2306 61.1325 14.2479C61.1828 14.2651 61.229 14.2923 61.2685 14.3278C61.3079 14.3634 61.3398 14.4065 61.3622 14.4547C64.435 20.4159 61.4879 25.8069 58.7169 30.8752C56.0005 35.8386 53.4642 40.4835 57.3 44.8768C61.2951 49.4546 62.0371 53.4035 61.3454 56.6147C60.6537 59.8259 58.5325 62.2196 56.797 63.7413C56.7186 63.8108 56.6158 63.8463 56.5112 63.84C56.4067 63.8337 56.3089 63.7861 56.2394 63.7077C56.1699 63.6294 56.1344 63.5266 56.1407 63.422C56.147 63.3175 56.1946 63.2197 56.2729 63.1502C57.9163 61.6997 59.9243 59.4192 60.574 56.4428C61.2238 53.4664 60.5028 49.7355 56.7047 45.405C52.5126 40.5925 55.1704 35.717 58.0211 30.5063C60.6956 25.6057 63.5421 20.4033 60.6621 14.8152Z" fill="#7732BC"/>
<path fill-rule="evenodd" clip-rule="evenodd" d="M63.7972 12.8982C63.795 12.8451 63.8033 12.7921 63.8216 12.7421C63.8399 12.6922 63.8678 12.6464 63.9039 12.6073C63.9399 12.5681 63.9832 12.5365 64.0315 12.5141C64.0797 12.4918 64.1319 12.4791 64.185 12.4769C64.2381 12.4747 64.2912 12.483 64.3411 12.5013C64.391 12.5196 64.4368 12.5475 64.476 12.5835C64.5151 12.6195 64.5467 12.6629 64.5691 12.7111C64.5915 12.7594 64.6041 12.8116 64.6063 12.8647C64.8536 18.9642 70.6681 21.5423 76.4406 24.0995C78.0294 24.8038 79.6182 25.5039 81.1022 26.2878C87.2856 29.5409 91.4819 34.0139 85.8184 44.7792C84.8626 46.5738 84.0224 48.4277 83.3031 50.3295C82.7002 51.8925 82.2427 53.5077 81.9365 55.1547C81.9187 55.2581 81.8605 55.3502 81.7749 55.4107C81.6892 55.4712 81.5829 55.4952 81.4795 55.4775C81.3761 55.4597 81.284 55.4015 81.2235 55.3158C81.163 55.2301 81.139 55.1239 81.1567 55.0205C81.4701 53.3247 81.9402 51.6617 82.5611 50.0529C83.2974 48.1202 84.1542 46.2356 85.1267 44.4103C90.4758 34.2486 86.5436 30.0397 80.7417 26.9879C79.2913 26.2249 77.7108 25.5248 76.1304 24.8206C70.1063 22.167 64.0613 19.4882 63.7972 12.8982Z" fill="#7732BC"/>
<path fill-rule="evenodd" clip-rule="evenodd" d="M66.1617 12.7179C66.125 12.6195 66.1289 12.5106 66.1725 12.415C66.2161 12.3195 66.2959 12.2452 66.3943 12.2085C66.4927 12.1719 66.6017 12.1758 66.6972 12.2194C66.7927 12.263 66.867 12.3428 66.9037 12.4412C68.6937 17.2244 73.7242 19.2827 78.7841 21.3201C83.844 23.3575 88.9458 25.4451 91.1089 30.287C91.1461 30.3838 91.1461 30.4909 91.1089 30.5877C91.0718 30.6844 91.0001 30.764 90.9077 30.811C90.8104 30.8464 90.7036 30.8446 90.6076 30.8059C90.5116 30.7672 90.4334 30.6944 90.3879 30.6014C88.3547 26.0614 83.408 24.0533 78.4865 22.0537C73.2673 19.9367 68.0775 17.8281 66.1617 12.7179Z" fill="#7732BC"/>
<path fill-rule="evenodd" clip-rule="evenodd" d="M69.4122 12.2452C69.3789 12.2053 69.3538 12.1592 69.3383 12.1096C69.3228 12.0599 69.3172 12.0078 69.3219 11.956C69.3313 11.8514 69.3819 11.7549 69.4625 11.6876C69.5431 11.6204 69.6472 11.5879 69.7517 11.5973C69.8035 11.602 69.8539 11.6168 69.8999 11.6409C69.9459 11.6651 69.9868 11.698 70.0201 11.7379C72.4599 14.6724 75.7507 15.93 78.9828 17.1877C82.718 18.6381 86.3819 20.0551 88.7337 23.895C88.7612 23.9394 88.7797 23.9887 88.7882 24.0401C88.7967 24.0916 88.7949 24.1443 88.783 24.1951C88.7712 24.2459 88.7494 24.2938 88.719 24.3362C88.6886 24.3786 88.6501 24.4146 88.6058 24.4421C88.5615 24.4696 88.5122 24.4882 88.4607 24.4966C88.4092 24.5051 88.3566 24.5034 88.3058 24.4915C88.255 24.4796 88.207 24.4579 88.1646 24.4274C88.1222 24.397 88.0863 24.3586 88.0587 24.3143C85.8453 20.709 82.3072 19.3382 78.7019 17.9381C75.3692 16.6343 71.982 15.3222 69.4122 12.2452Z" fill="#7732BC"/>
<path fill-rule="evenodd" clip-rule="evenodd" d="M55.2692 17.7829C55.2438 17.8283 55.2098 17.8683 55.169 17.9006C55.1283 17.9329 55.0815 17.9568 55.0315 17.971C54.9815 17.9852 54.9292 17.9894 54.8775 17.9834C54.8259 17.9774 54.7759 17.9613 54.7305 17.9359C54.6851 17.9106 54.6451 17.8766 54.6128 17.8358C54.5805 17.795 54.5566 17.7483 54.5424 17.6983C54.5282 17.6483 54.524 17.5959 54.53 17.5443C54.536 17.4926 54.5521 17.4427 54.5775 17.3972L60.656 6.47261C60.681 6.42711 60.7147 6.38699 60.7552 6.35454C60.7957 6.3221 60.8422 6.29798 60.8921 6.28357C60.942 6.26916 60.9942 6.26474 61.0457 6.27056C61.0973 6.27638 61.1472 6.29234 61.1926 6.31751L61.2471 6.35524L64.1816 8.71958L69.3714 0.197029C69.3876 0.167029 69.4089 0.140076 69.4343 0.117379C69.463 0.0863929 69.4971 0.0608327 69.5349 0.0419211H69.5559C69.6044 0.0180772 69.6571 0.00384213 69.711 0C69.7643 0.00120173 69.817 0.0125846 69.8661 0.0335369C69.9032 0.0534873 69.9371 0.0789261 69.9667 0.108995C70.0003 0.133794 70.0299 0.163466 70.0547 0.197029L75.2278 8.71958L78.1623 6.35524L78.2168 6.31751C78.3101 6.2717 78.4171 6.26221 78.517 6.29087C78.617 6.31954 78.7027 6.38431 78.7576 6.47261L84.8445 17.3972C84.8907 17.4901 84.9008 17.5968 84.8729 17.6966C84.8451 17.7965 84.7812 17.8825 84.6936 17.938C84.6482 17.9632 84.5983 17.9792 84.5467 17.985C84.4951 17.9908 84.4429 17.9864 84.3931 17.972C84.3432 17.9576 84.2967 17.9334 84.2562 17.901C84.2156 17.8686 84.1819 17.8284 84.157 17.7829L78.288 7.26492L75.3536 9.6167C75.2723 9.68214 75.1685 9.71272 75.0648 9.70172C74.961 9.69072 74.8659 9.63904 74.8002 9.55801C74.7838 9.53725 74.7698 9.51476 74.7583 9.49093L69.711 1.15283L64.6511 9.49093C64.6382 9.51487 64.6227 9.53736 64.605 9.55801C64.5393 9.63904 64.4442 9.69072 64.3404 9.70172C64.2367 9.71272 64.1329 9.68214 64.0516 9.6167L61.1172 7.26492L55.2692 17.7829Z" fill="#7732BC"/>
<path fill-rule="evenodd" clip-rule="evenodd" d="M69.0943 36.1739C69.1546 36.1976 69.2041 36.2426 69.2334 36.3004C69.2626 36.3582 69.2697 36.4247 69.2531 36.4873C69.2365 36.5499 69.1976 36.6043 69.1435 36.64C69.0895 36.6758 69.0243 36.6904 68.9601 36.6812L67.8241 36.3794C67.768 36.3644 67.7185 36.3311 67.6836 36.2847C67.6486 36.2384 67.6302 36.1817 67.6312 36.1236V28.0874C67.5348 27.7436 66.5329 24.7337 61.1293 27.0561C61.0674 27.0737 61.0013 27.0681 60.9433 27.0404C60.8852 27.0127 60.8393 26.9648 60.8141 26.9056C60.7889 26.8464 60.7861 26.7801 60.8064 26.7191C60.8266 26.658 60.8683 26.6065 60.9239 26.574C66.9773 23.9791 68.0505 27.6807 68.1427 27.9742C68.147 28.002 68.147 28.0302 68.1427 28.058V35.9224L69.0943 36.1739Z" fill="#7732BC"/>
<path fill-rule="evenodd" clip-rule="evenodd" d="M71.7642 28.2043C71.7291 28.2648 71.6714 28.309 71.6039 28.3271C71.5363 28.3451 71.4643 28.3357 71.4036 28.3007C71.3736 28.2834 71.3473 28.2602 71.3263 28.2326C71.3054 28.205 71.2901 28.1735 71.2815 28.1399C71.273 28.1063 71.2712 28.0713 71.2763 28.037C71.2814 28.0027 71.2934 27.9698 71.3114 27.9402C71.3114 27.9402 71.7306 27.1814 73.1685 26.7161C73.2352 26.6944 73.3078 26.7001 73.3703 26.7319C73.4328 26.7638 73.4801 26.8191 73.5018 26.8859C73.5235 26.9526 73.5178 27.0252 73.4859 27.0877C73.4541 27.1502 73.3987 27.1974 73.332 27.2191C72.0953 27.6216 71.7642 28.2043 71.7642 28.2043Z" fill="#7732BC"/>
<path fill-rule="evenodd" clip-rule="evenodd" d="M65.6406 30.7581C65.6629 30.7113 65.6942 30.6694 65.7327 30.6347C65.7712 30.6 65.8162 30.5732 65.865 30.5559C65.9139 30.5386 65.9657 30.531 66.0174 30.5337C66.0692 30.5364 66.1199 30.5493 66.1667 30.5716C66.2135 30.5939 66.2555 30.6252 66.2902 30.6637C66.3249 30.7022 66.3516 30.7471 66.369 30.796C66.3863 30.8449 66.3938 30.8966 66.3911 30.9484C66.3884 31.0002 66.3756 31.0509 66.3533 31.0977C66.1396 31.4786 65.7912 31.7657 65.3765 31.9026C64.4152 32.2604 63.3572 32.2604 62.3959 31.9026C61.9803 31.7655 61.6305 31.4786 61.415 31.0977C61.3808 31.0044 61.3827 30.9017 61.4203 30.8098C61.4579 30.7178 61.5286 30.6432 61.6184 30.6007C61.7082 30.5582 61.8106 30.5507 61.9056 30.5799C62.0006 30.609 62.0813 30.6726 62.1318 30.7581C62.2614 30.9601 62.4593 31.1089 62.6894 31.1773C63.4613 31.4569 64.3069 31.4569 65.0789 31.1773C65.3106 31.1101 65.5102 30.9612 65.6406 30.7581Z" fill="#7732BC"/>
<path fill-rule="evenodd" clip-rule="evenodd" d="M76.7637 30.7573C76.7828 30.7053 76.8125 30.6579 76.8509 30.618C76.8893 30.5782 76.9356 30.5467 76.9868 30.5258C77.038 30.5048 77.093 30.4947 77.1484 30.4962C77.2037 30.4977 77.2581 30.5107 77.3081 30.5344C77.3582 30.5581 77.4027 30.592 77.4389 30.6339C77.4751 30.6757 77.5022 30.7247 77.5184 30.7776C77.5346 30.8305 77.5396 30.8862 77.5331 30.9412C77.5266 30.9962 77.5087 31.0492 77.4806 31.0968C77.2641 31.4769 76.9147 31.7636 76.4996 31.9017C75.5383 32.2596 74.4804 32.2596 73.519 31.9017C73.1044 31.7648 72.7559 31.4777 72.5423 31.0968C72.52 31.05 72.5071 30.9993 72.5044 30.9475C72.5017 30.8958 72.5093 30.844 72.5266 30.7951C72.5439 30.7463 72.5707 30.7013 72.6054 30.6628C72.6401 30.6243 72.682 30.593 72.7288 30.5707C72.7756 30.5484 72.8264 30.5356 72.8781 30.5329C72.9299 30.5302 72.9817 30.5377 73.0305 30.555C73.0794 30.5724 73.1243 30.5991 73.1629 30.6338C73.2014 30.6685 73.2327 30.7105 73.2549 30.7573C73.3846 30.9593 73.5824 31.108 73.8125 31.1765C74.5859 31.456 75.4328 31.456 76.2062 31.1765C76.4363 31.108 76.6341 30.9593 76.7637 30.7573Z" fill="#7732BC"/>
<path fill-rule="evenodd" clip-rule="evenodd" d="M78.6455 53.8858C78.6411 53.7813 78.6783 53.6793 78.7491 53.6022C78.8198 53.5252 78.9183 53.4794 79.0228 53.475C79.1273 53.4705 79.2293 53.5078 79.3064 53.5785C79.3834 53.6493 79.4292 53.7477 79.4336 53.8523C79.4982 54.9997 79.4392 56.1508 79.2576 57.2856C78.8406 60.1763 77.3424 62.8011 75.0655 64.6302C72.9149 66.3405 70.1104 67.3047 66.9537 67.464C65.5135 67.5311 64.0702 67.444 62.6484 67.2041C62.5972 67.1959 62.5482 67.1776 62.504 67.1504C62.4599 67.1232 62.4215 67.0875 62.3912 67.0455C62.3608 67.0034 62.339 66.9558 62.3271 66.9054C62.3151 66.8549 62.3132 66.8026 62.3214 66.7514C62.3297 66.7002 62.348 66.6511 62.3752 66.607C62.4024 66.5628 62.4381 66.5245 62.4801 66.4941C62.5221 66.4637 62.5698 66.442 62.6202 66.43C62.6707 66.418 62.723 66.4161 62.7742 66.4244C64.1419 66.6551 65.5304 66.7394 66.916 66.6759C69.905 66.525 72.5502 65.6195 74.5708 64.0097C76.6868 62.3009 78.0756 59.8528 78.4569 57.1598C78.6366 56.0784 78.6998 54.9807 78.6455 53.8858Z" fill="#7732BC"/>
<path fill-rule="evenodd" clip-rule="evenodd" d="M69.4782 39.1492C69.385 39.0829 69.2955 39.0115 69.21 38.9355C69.0255 38.7803 68.8997 38.6714 68.6566 38.7678C68.4135 38.8642 67.7259 39.187 67.2439 39.4217C68.8634 39.8512 70.5668 39.8512 72.1864 39.4217C71.7001 39.1912 71.0587 38.8851 70.7694 38.7678C70.4802 38.6504 70.4005 38.7678 70.2161 38.9355C70.1364 39.0025 70.0526 39.078 69.952 39.1492L69.8723 39.2121C69.8264 39.2468 69.7705 39.2656 69.713 39.2656C69.6555 39.2656 69.5996 39.2468 69.5537 39.2121L69.4782 39.1534V39.1492ZM69.5537 38.5372L69.713 38.6713L69.8723 38.5372C70.2035 38.2563 70.4299 38.0635 70.9664 38.2815C71.503 38.4995 72.8906 39.1744 73.008 39.2289C73.0413 39.2434 73.0711 39.2647 73.0957 39.2914C73.1202 39.3181 73.1389 39.3496 73.1505 39.384C73.1625 39.4165 73.1678 39.451 73.1662 39.4855C73.1646 39.52 73.1562 39.5539 73.1413 39.5852C73.1265 39.6164 73.1056 39.6443 73.0798 39.6674C73.054 39.6904 73.0239 39.7081 72.9912 39.7194C70.8695 40.4573 68.5607 40.4573 66.439 39.7194C66.4055 39.7094 66.3747 39.6922 66.3486 39.669C66.3226 39.6459 66.3019 39.6172 66.2881 39.5852C66.2577 39.5224 66.2534 39.4501 66.2762 39.3841C66.299 39.3181 66.3469 39.2638 66.4096 39.2331C66.4096 39.2331 67.9397 38.4953 68.4596 38.2815C68.9794 38.0677 69.2183 38.2563 69.5537 38.5372Z" fill="#7732BC"/>
<path fill-rule="evenodd" clip-rule="evenodd" d="M67.3312 41.23C67.2935 41.2158 67.2596 41.1932 67.232 41.1639C67.2044 41.1346 67.1838 41.0994 67.1719 41.0609C67.1601 41.0224 67.1571 40.9818 67.1633 40.942C67.1696 40.9022 67.1848 40.8644 67.2079 40.8314C67.231 40.7984 67.2613 40.7712 67.2965 40.7517C67.3318 40.7322 67.371 40.7211 67.4112 40.7191C67.4514 40.7171 67.4916 40.7243 67.5286 40.7402C67.5655 40.7561 67.5984 40.7803 67.6246 40.8108L67.6833 40.8485C68.2288 41.2807 68.9123 41.5011 69.6075 41.469C69.6775 41.469 69.7447 41.4968 69.7942 41.5463C69.8438 41.5958 69.8716 41.663 69.8716 41.7331C69.8716 41.8031 69.8438 41.8703 69.7942 41.9198C69.7447 41.9693 69.6775 41.9972 69.6075 41.9972C68.8071 42.0356 68.0197 41.7841 67.3899 41.2887L67.3312 41.23Z" fill="#7732BC"/>
<path fill-rule="evenodd" clip-rule="evenodd" d="M71.5907 40.7932C71.6169 40.7627 71.6498 40.7385 71.6868 40.7226C71.7238 40.7067 71.7639 40.6995 71.8041 40.7015C71.8443 40.7035 71.8836 40.7146 71.9188 40.7341C71.954 40.7536 71.9844 40.7808 72.0075 40.8138C72.0305 40.8468 72.0458 40.8846 72.052 40.9244C72.0582 40.9642 72.0553 41.0048 72.0434 41.0433C72.0315 41.0818 72.011 41.117 71.9834 41.1463C71.9558 41.1756 71.9218 41.1982 71.8842 41.2124L71.8255 41.2544C71.1956 41.7497 70.4082 42.0013 69.6079 41.9628C69.5378 41.9628 69.4706 41.935 69.4211 41.8855C69.3716 41.8359 69.3438 41.7688 69.3438 41.6987C69.3438 41.6287 69.3716 41.5615 69.4211 41.512C69.4706 41.4624 69.5378 41.4346 69.6079 41.4346C70.3032 41.4675 70.9869 41.2471 71.532 40.8142L71.5907 40.7932Z" fill="#7732BC"/>
<path fill-rule="evenodd" clip-rule="evenodd" d="M55.3497 17.8755C55.288 17.9476 55.2023 17.995 55.1084 18.009C55.0145 18.023 54.9187 18.0026 54.8386 17.9516C54.7585 17.9006 54.6996 17.8224 54.6725 17.7314C54.6455 17.6404 54.6523 17.5427 54.6915 17.4563C56.3453 15.0275 58.5634 13.036 61.1556 11.6525C63.7477 10.2689 66.6368 9.5345 69.575 9.51224C72.5132 9.48998 75.413 10.1805 78.0259 11.5247C80.6387 12.8688 82.8867 14.8265 84.5771 17.2299C84.6065 17.2726 84.6273 17.3206 84.6382 17.3713C84.6491 17.422 84.6499 17.4743 84.6405 17.5253C84.6312 17.5763 84.6119 17.625 84.5837 17.6685C84.5556 17.712 84.5191 17.7496 84.4765 17.7791C84.4338 17.8085 84.3858 17.8293 84.3351 17.8402C84.2844 17.851 84.232 17.8518 84.181 17.8425C84.1301 17.8332 84.0814 17.8139 84.0379 17.7857C83.9943 17.7576 83.9568 17.7211 83.9273 17.6785C82.3103 15.3809 80.1605 13.5096 77.662 12.2249C75.1635 10.9401 72.3908 10.2802 69.5814 10.3016C66.772 10.323 64.0097 11.0252 61.5311 12.3479C59.0524 13.6707 56.9314 15.5745 55.3497 17.8964V17.8755Z" fill="#7732BC"/>
<path fill-rule="evenodd" clip-rule="evenodd" d="M62.3622 51.5631C62.2961 51.4819 62.2649 51.3778 62.2755 51.2737C62.2861 51.1695 62.3376 51.0738 62.4188 51.0077C62.5 50.9415 62.6041 50.9103 62.7083 50.9209C62.8124 50.9315 62.9081 50.9831 62.9743 51.0642C63.792 52.0382 64.8158 52.8185 65.9716 53.3489C67.138 53.9174 68.4137 54.2263 69.711 54.2544C71.0485 54.2232 72.3626 53.8969 73.5593 53.2986C74.7338 52.7417 75.765 51.9228 76.5735 50.9049C76.6403 50.8266 76.7337 50.7756 76.8357 50.7617C76.9378 50.7477 77.0414 50.7719 77.1268 50.8295C77.1687 50.8604 77.2039 50.8995 77.2304 50.9443C77.2569 50.989 77.2742 51.0387 77.2813 51.0903C77.2883 51.1418 77.2849 51.1943 77.2714 51.2445C77.2578 51.2948 77.2343 51.3418 77.2023 51.3828C76.3211 52.5001 75.1933 53.3983 73.9073 54.0071C72.6044 54.6605 71.1724 55.0157 69.7152 55.0468C68.3004 55.0204 66.9079 54.6902 65.6321 54.0784C64.3695 53.4921 63.2527 52.633 62.3622 51.5631Z" fill="#7732BC"/>
<path fill-rule="evenodd" clip-rule="evenodd" d="M59.0747 35.9091C59.1127 35.8131 59.1869 35.7358 59.2813 35.694C59.3757 35.6521 59.4827 35.649 59.5794 35.6852C59.6761 35.7215 59.7547 35.7943 59.7983 35.8879C59.8419 35.9815 59.847 36.0884 59.8125 36.1858C59.2314 37.5887 58.9763 39.1052 59.0663 40.621C59.2321 42.2122 59.912 43.706 61.0031 44.876C61.5399 45.4872 62.0437 46.1267 62.5122 46.7918C62.9322 47.3807 63.3171 47.9938 63.665 48.6279C63.6913 48.6734 63.7081 48.7237 63.7146 48.7758C63.7211 48.828 63.7171 48.8808 63.7029 48.9314C63.6887 48.9819 63.6645 49.0291 63.6317 49.0702C63.599 49.1113 63.5584 49.1454 63.5123 49.1705C63.4662 49.1957 63.4155 49.2114 63.3632 49.2167C63.311 49.2219 63.2582 49.2167 63.208 49.2013C63.1578 49.1859 63.1112 49.1606 63.0709 49.127C63.0306 49.0933 62.9974 49.0519 62.9734 49.0052C62.6408 48.3971 62.2727 47.8092 61.8708 47.2445C61.4432 46.6409 60.9569 46.0246 60.412 45.3958C59.209 44.1011 58.4601 42.4502 58.2782 40.6923C58.1777 39.0581 58.45 37.4225 59.0747 35.9091Z" fill="#7732BC"/>
<path fill-rule="evenodd" clip-rule="evenodd" d="M79.3717 36.5559C79.3791 36.4499 79.4265 36.3506 79.5044 36.2783C79.5822 36.2059 79.6846 36.1658 79.7909 36.166C79.8441 36.167 79.8966 36.1788 79.9451 36.2007C79.9937 36.2226 80.0373 36.254 80.0733 36.2932C80.1093 36.3324 80.1371 36.3785 80.1548 36.4286C80.1726 36.4788 80.18 36.5321 80.1766 36.5852C80.1179 39.8257 78.9189 42.0979 77.2672 45.1707C76.9235 45.8121 76.563 46.4954 76.1396 47.3254C76.088 47.4126 76.0052 47.4769 75.908 47.5052C75.8107 47.5335 75.7063 47.5237 75.6161 47.4777C75.5258 47.4318 75.4564 47.3532 75.4221 47.2579C75.3877 47.1627 75.3909 47.0579 75.4311 46.9649C75.7958 46.248 76.1941 45.5018 76.5713 44.7976C78.1434 41.8044 79.3172 39.6035 79.3717 36.5559Z" fill="#7732BC"/>
</g>
<path d="M21.9297 91.5859C21.9297 92.2891 22.4167 92.6562 23.3906 92.6875C23.4323 92.6875 23.4531 92.7083 23.4531 92.75V92.9375C23.4531 92.9792 23.4323 93 23.3906 93H18.4219C18.3802 93 18.3594 92.9792 18.3594 92.9375V92.75C18.3594 92.7083 18.4896 92.6875 18.75 92.6875C19.0104 92.6875 19.3073 92.6302 19.6406 92.5156C20.151 92.349 20.4062 92.0677 20.4062 91.6719V87.9453C20.4062 87.8932 20.3984 87.8594 20.3828 87.8438C20.3672 87.8281 20.3333 87.8203 20.2812 87.8203H14.125C14.0729 87.8203 14.0391 87.8281 14.0234 87.8438C14.0078 87.8594 14 87.8932 14 87.9453V91.75C14 92.375 14.4609 92.6875 15.3828 92.6875C15.4245 92.6875 15.4453 92.7083 15.4453 92.75V92.9375C15.4453 92.9792 15.4271 93 15.3906 93H11.0781C11.0365 93 11.0156 92.9792 11.0156 92.9375V92.75C11.0156 92.7083 11.0677 92.6875 11.1719 92.6875C12.0417 92.6875 12.4766 92.3151 12.4766 91.5703V83.2344C12.4766 82.625 12.1146 82.3021 11.3906 82.2656C11.2812 82.2604 11.2266 82.237 11.2266 82.1953V82.0469C11.2266 82.0052 11.2448 81.9844 11.2812 81.9844H15.2031C15.2448 81.9844 15.2656 82.0052 15.2656 82.0469V82.1953C15.2656 82.2266 15.2161 82.2422 15.1172 82.2422C14.3724 82.2422 14 82.6094 14 83.3438V86.9531C14 87.0052 14.0078 87.0391 14.0234 87.0547C14.0391 87.0703 14.0729 87.0781 14.125 87.0781H20.2812C20.3333 87.0781 20.3672 87.0703 20.3828 87.0547C20.3984 87.0391 20.4062 87.0052 20.4062 86.9531V83.2188C20.3958 83.1719 20.388 83.1302 20.3828 83.0938C20.3828 83.0521 20.375 82.9896 20.3594 82.9062C20.3229 82.7292 20.138 82.5859 19.8047 82.4766C19.4714 82.362 19.0938 82.2891 18.6719 82.2578C18.6302 82.2578 18.6094 82.237 18.6094 82.1953V82.0469C18.6094 82.0052 18.6276 81.9844 18.6641 81.9844H23.1719C23.2135 81.9844 23.2344 82.0052 23.2344 82.0469V82.1953C23.2344 82.2266 23.1849 82.2422 23.0859 82.2422C22.3151 82.2422 21.9297 82.6094 21.9297 83.3438V91.5859ZM25.7266 88.8828C25.638 88.8828 25.5938 89.0729 25.5938 89.4531C25.5938 90.2604 25.8333 90.9375 26.3125 91.4844C26.7917 92.0312 27.3854 92.3047 28.0938 92.3047C28.8073 92.3047 29.4922 91.9974 30.1484 91.3828C30.1589 91.3724 30.1719 91.3672 30.1875 91.3672H30.2266C30.2578 91.3672 30.2865 91.3932 30.3125 91.4453C30.3438 91.4922 30.3724 91.5234 30.3984 91.5391C29.7943 92.2734 29.0833 92.7812 28.2656 93.0625C27.9844 93.1615 27.6667 93.2109 27.3125 93.2109C26.9583 93.2109 26.599 93.1146 26.2344 92.9219C25.8698 92.724 25.5573 92.4661 25.2969 92.1484C24.7448 91.487 24.4688 90.6641 24.4688 89.6797C24.4688 88.6901 24.7682 87.7891 25.3672 86.9766C25.9714 86.1641 26.7995 85.7578 27.8516 85.7578C28.6068 85.7578 29.224 86.0964 29.7031 86.7734C30.1823 87.4453 30.4219 88.0365 30.4219 88.5469C30.4219 88.7708 30.3672 88.8828 30.2578 88.8828H25.7266ZM25.8125 88.1328C25.8125 88.2318 25.8594 88.2812 25.9531 88.2812H28.8984C29.0339 88.2812 29.1016 88.2005 29.1016 88.0391C29.1016 87.6641 28.9323 87.2812 28.5938 86.8906C28.2604 86.4948 27.8932 86.2969 27.4922 86.2969C27.1016 86.2969 26.7448 86.474 26.4219 86.8281C26.1042 87.1823 25.901 87.5859 25.8125 88.0391V88.1328ZM36.4844 87.3984C36.4219 87.388 36.3307 87.3542 36.2109 87.2969C35.7786 87.099 35.4401 87 35.1953 87C34.9505 87 34.6927 87.1536 34.4219 87.4609C34.1562 87.763 34.0234 88.0365 34.0234 88.2812V91.8125C34.0234 92.2031 34.25 92.4635 34.7031 92.5938C34.901 92.6458 35.0859 92.6849 35.2578 92.7109C35.4297 92.7318 35.5391 92.7526 35.5859 92.7734C35.638 92.7943 35.6641 92.8359 35.6641 92.8984C35.6641 92.9557 35.638 92.9896 35.5859 93H31.6719C31.6198 92.9896 31.5938 92.9531 31.5938 92.8906C31.5938 92.7969 31.7161 92.7344 31.9609 92.7031C32.5234 92.6198 32.8047 92.3229 32.8047 91.8125V87.6797C32.8047 87.4609 32.6849 87.3099 32.4453 87.2266C32.3411 87.1901 32.2292 87.1615 32.1094 87.1406C31.9896 87.1146 31.8932 87.0911 31.8203 87.0703C31.7526 87.0495 31.7083 87.0312 31.6875 87.0156C31.6719 86.9948 31.6641 86.9557 31.6641 86.8984C31.6641 86.8359 31.7031 86.7839 31.7812 86.7422L33.7734 85.8047C33.8359 85.7734 33.875 85.7578 33.8906 85.7578C33.9792 85.7578 34.0234 85.8203 34.0234 85.9453V87.2109C34.0234 87.2734 34.0391 87.3047 34.0703 87.3047C34.112 87.3047 34.2188 87.1823 34.3906 86.9375C34.8854 86.2448 35.2943 85.8984 35.6172 85.8984C35.7995 85.8984 36.0781 85.9714 36.4531 86.1172C36.8333 86.263 37.0234 86.3854 37.0234 86.4844C37.0234 86.6042 36.9635 86.7865 36.8438 87.0312C36.724 87.276 36.6042 87.3984 36.4844 87.3984ZM47.875 90.5391L47.8594 88.8906C47.8594 88.2188 47.8021 87.7474 47.6875 87.4766C47.5729 87.2057 47.4271 87.0026 47.25 86.8672C47.0729 86.7266 46.8333 86.6562 46.5312 86.6562C46.2344 86.6562 45.6016 86.8906 44.6328 87.3594C44.5026 87.4375 44.4349 87.5104 44.4297 87.5781V91.7812C44.4297 92.3073 44.7109 92.6094 45.2734 92.6875C45.5182 92.724 45.6406 92.7839 45.6406 92.8672C45.6406 92.9453 45.6146 92.9896 45.5625 93H42.0781C42.026 92.9896 42 92.9531 42 92.8906C42 92.7917 42.1224 92.724 42.3672 92.6875C42.9297 92.6094 43.2109 92.3073 43.2109 91.7812V87.8906C43.2109 87.0729 42.7057 86.6641 41.6953 86.6641C41.3255 86.6641 40.8125 86.8828 40.1562 87.3203C39.9896 87.4297 39.8672 87.5312 39.7891 87.625V91.7812C39.7891 92.3073 40.0703 92.6094 40.6328 92.6875C40.8776 92.724 41 92.7839 41 92.8672C41 92.9453 40.974 92.9896 40.9219 93H37.4375C37.3854 92.9896 37.3594 92.9531 37.3594 92.8906C37.3594 92.7917 37.4818 92.724 37.7266 92.6875C38.2891 92.6094 38.5703 92.3125 38.5703 91.7969V87.2969C38.5703 87.0781 38.4505 86.9271 38.2109 86.8438C38.1068 86.8073 37.9948 86.7786 37.875 86.7578C37.7552 86.7318 37.6589 86.7083 37.5859 86.6875C37.5182 86.6667 37.474 86.6484 37.4531 86.6328C37.4375 86.612 37.4297 86.5729 37.4297 86.5156C37.4297 86.4531 37.4688 86.401 37.5469 86.3594L39.5391 85.4219C39.6016 85.3906 39.6406 85.375 39.6562 85.375C39.7448 85.375 39.7891 85.4375 39.7891 85.5625V86.8594C39.7943 86.8906 39.8125 86.9062 39.8438 86.9062C39.8802 86.9062 39.9661 86.8698 40.1016 86.7969C40.2422 86.724 40.4245 86.6224 40.6484 86.4922C40.8724 86.3568 41.1667 86.2005 41.5312 86.0234C41.901 85.8464 42.2917 85.7578 42.7031 85.7578C43.3646 85.7578 43.8385 86.0417 44.125 86.6094C44.2344 86.8385 44.3333 86.9375 44.4219 86.9062C44.5104 86.8698 44.6484 86.8047 44.8359 86.7109C45.2786 86.4922 45.7266 86.2786 46.1797 86.0703C46.6328 85.862 47.0078 85.7578 47.3047 85.7578C48.5078 85.7578 49.1094 86.8542 49.1094 89.0469L49.0391 91.3281V91.7812C49.0391 92.1875 49.2422 92.4531 49.6484 92.5781C49.8203 92.6354 49.9844 92.6771 50.1406 92.7031C50.3021 92.724 50.4062 92.7448 50.4531 92.7656C50.5052 92.7865 50.5312 92.8281 50.5312 92.8906C50.5312 92.9531 50.5052 92.9896 50.4531 93H46.6875C46.6354 92.9896 46.6094 92.9531 46.6094 92.8906C46.6094 92.7917 46.7318 92.724 46.9766 92.6875C47.5339 92.6094 47.8125 92.2865 47.8125 91.7188C47.8542 91.4583 47.875 91.0651 47.875 90.5391ZM51.1484 89.4922C51.1484 88.4661 51.5104 87.5859 52.2344 86.8516C52.9635 86.112 53.8359 85.7422 54.8516 85.7422C55.8672 85.7422 56.75 86.1016 57.5 86.8203C58.25 87.5339 58.625 88.4167 58.625 89.4688C58.625 90.5208 58.2682 91.4089 57.5547 92.1328C56.8464 92.8516 55.9557 93.2109 54.8828 93.2109C53.8099 93.2109 52.9193 92.8464 52.2109 92.1172C51.5026 91.388 51.1484 90.513 51.1484 89.4922ZM53.0938 91.5C53.6042 92.3594 54.2995 92.7891 55.1797 92.7891C55.862 92.7891 56.3828 92.5156 56.7422 91.9688C57.1068 91.4219 57.2891 90.75 57.2891 89.9531C57.2891 89.1562 57.0339 88.3385 56.5234 87.5C56.0182 86.6615 55.3359 86.2422 54.4766 86.2422C53.8464 86.2422 53.349 86.5156 52.9844 87.0625C52.625 87.6042 52.4453 88.2943 52.4453 89.1328C52.4453 89.9661 52.6615 90.7552 53.0938 91.5ZM63.5547 87.6562C63.5547 87.7708 63.5104 87.8281 63.4219 87.8281C63.3385 87.8281 63.2734 87.7656 63.2266 87.6406C63.1016 87.2969 62.9141 86.9922 62.6641 86.7266C62.4193 86.4609 62.1146 86.3281 61.75 86.3281C61.2708 86.3281 60.9479 86.5677 60.7812 87.0469C60.7292 87.2083 60.7031 87.375 60.7031 87.5469C60.7031 87.7188 60.8125 87.9115 61.0312 88.125C61.25 88.3333 61.6094 88.5833 62.1094 88.875C62.6094 89.1667 62.974 89.4141 63.2031 89.6172C63.724 90.0807 63.9844 90.6172 63.9844 91.2266C63.9844 91.8359 63.7604 92.3203 63.3125 92.6797C62.8646 93.0339 62.3438 93.2109 61.75 93.2109C61.4323 93.2109 61.1432 93.1667 60.8828 93.0781C60.6276 92.9948 60.4792 92.9531 60.4375 92.9531C60.401 92.9531 60.3385 92.9948 60.25 93.0781C60.1667 93.1667 60.099 93.2109 60.0469 93.2109H59.9141C59.8828 93.2109 59.8438 92.9297 59.7969 92.3672C59.75 91.8047 59.7266 91.4714 59.7266 91.3672C59.7266 91.263 59.7344 91.2057 59.75 91.1953C59.7708 91.1849 59.8021 91.1797 59.8438 91.1797C59.8854 91.1797 59.9193 91.1927 59.9453 91.2188C59.9766 91.2448 60.0026 91.2786 60.0234 91.3203C60.0443 91.3568 60.0599 91.3958 60.0703 91.4375C60.0859 91.4792 60.1198 91.5573 60.1719 91.6719C60.526 92.4271 61.0729 92.8047 61.8125 92.8047C62.1406 92.8047 62.4036 92.6849 62.6016 92.4453C62.7995 92.2005 62.8984 91.9297 62.8984 91.6328C62.8984 91.3359 62.8203 91.0859 62.6641 90.8828C62.5078 90.6797 62.3125 90.4948 62.0781 90.3281C61.849 90.1615 61.599 90 61.3281 89.8438C60.276 89.2292 59.75 88.5495 59.75 87.8047C59.75 87.2474 59.9896 86.7682 60.4688 86.3672C60.9479 85.9609 61.4401 85.7578 61.9453 85.7578C62.4505 85.7578 62.8229 85.8125 63.0625 85.9219C63.3073 86.0312 63.4505 86.125 63.4922 86.2031C63.5339 86.276 63.5547 86.5208 63.5547 86.9375V87.6562ZM69.9531 91.7109C69.9531 91.8464 70.0156 91.9557 70.1406 92.0391C70.2708 92.1172 70.4193 92.1562 70.5859 92.1562C70.7526 92.1562 70.8906 92.1146 71 92.0312C71.1146 91.9427 71.1927 91.8984 71.2344 91.8984C71.276 91.8984 71.2969 91.9557 71.2969 92.0703C71.2969 92.1797 71.2448 92.2734 71.1406 92.3516C70.3594 92.9245 69.8307 93.2109 69.5547 93.2109C69.2214 93.2109 68.9505 92.8646 68.7422 92.1719C68.7266 92.1198 68.7135 92.0964 68.7031 92.1016C68.0573 92.5859 67.651 92.8776 67.4844 92.9766C67.0573 93.2214 66.6276 93.2604 66.1953 93.0938C65.7682 92.9271 65.4583 92.651 65.2656 92.2656C65.1719 92.0677 65.125 91.8568 65.125 91.6328C65.125 91.1901 65.2891 90.8385 65.6172 90.5781C65.9453 90.3177 66.5703 90.0677 67.4922 89.8281C67.8047 89.7448 68.0833 89.638 68.3281 89.5078C68.5729 89.3776 68.7005 89.2943 68.7109 89.2578C68.7266 89.2214 68.7344 89.1875 68.7344 89.1562V87.6562C68.7344 87.0677 68.5052 86.6536 68.0469 86.4141C67.8958 86.3359 67.7135 86.2969 67.5 86.2969C67.2917 86.2969 67.0781 86.3802 66.8594 86.5469C66.6458 86.7135 66.5391 86.9505 66.5391 87.2578L66.5781 87.5625C66.5469 87.625 66.3594 87.7292 66.0156 87.875C65.6719 88.0208 65.474 88.099 65.4219 88.1094C65.3385 88.1094 65.2969 88.0104 65.2969 87.8125C65.2969 87.6094 65.3568 87.3854 65.4766 87.1406C65.5964 86.8958 65.7656 86.6719 65.9844 86.4688C66.4948 85.9948 67.0781 85.7578 67.7344 85.7578C68.3906 85.7578 68.9245 85.9401 69.3359 86.3047C69.7474 86.6641 69.9531 87.0938 69.9531 87.5938V91.7109ZM66.3516 91.4844C66.3516 91.7344 66.4479 91.9531 66.6406 92.1406C66.8333 92.3229 67.0521 92.4141 67.2969 92.4141C67.5469 92.4141 67.849 92.3099 68.2031 92.1016C68.5573 91.888 68.7344 91.6693 68.7344 91.4453V89.8594C68.7344 89.8021 68.7214 89.7734 68.6953 89.7734C68.6693 89.7734 68.651 89.776 68.6406 89.7812L66.8281 90.625C66.6406 90.7604 66.513 90.875 66.4453 90.9688C66.3828 91.0625 66.3516 91.2344 66.3516 91.4844ZM79.7109 92.6875C79.7422 92.6875 79.7578 92.7083 79.7578 92.75V92.9375C79.7578 92.9792 79.7422 93 79.7109 93H76.0625C76.0208 93 76 92.9792 76 92.9375V92.75C76 92.7083 76.0208 92.6875 76.0625 92.6875C76.9167 92.6875 77.3802 92.3203 77.4531 91.5859C77.474 91.3724 77.4948 91.0182 77.5156 90.5234C77.5417 90.0234 77.612 88.9531 77.7266 87.3125C77.8411 85.6667 77.8984 84.3359 77.8984 83.3203V83.0312C77.8984 82.8229 77.7786 82.6484 77.5391 82.5078C77.3047 82.3672 77.1328 82.2969 77.0234 82.2969C76.9141 82.2969 76.8594 82.276 76.8594 82.2344V82.0469C76.8594 82.0052 76.8802 81.9844 76.9219 81.9844H79.1797C79.2786 82 79.3594 82.0573 79.4219 82.1562L83.0859 90.3203C83.112 90.3568 83.1328 90.388 83.1484 90.4141C83.1641 90.4401 83.2031 90.4531 83.2656 90.4531C83.3281 90.4479 83.375 90.401 83.4062 90.3125L87.0312 82.2969C87.1406 82.0885 87.2396 81.9844 87.3281 81.9844H89.6016C89.6432 81.9844 89.6641 82.0052 89.6641 82.0469V82.2344C89.6641 82.276 89.651 82.2969 89.625 82.2969C89.4688 82.2969 89.276 82.349 89.0469 82.4531C88.6979 82.6094 88.5234 82.8411 88.5234 83.1484L88.9922 91.7812C89.0026 92.0521 89.1432 92.2708 89.4141 92.4375C89.6849 92.6042 90.0391 92.6875 90.4766 92.6875C90.5182 92.6875 90.5391 92.7083 90.5391 92.75V92.9375C90.5391 92.9792 90.5182 93 90.4766 93H86.0391C85.9974 93 85.9766 92.9792 85.9766 92.9375V92.75C85.9766 92.7083 85.9974 92.6875 86.0391 92.6875C86.9714 92.6875 87.4375 92.4609 87.4375 92.0078L87.0234 84.5469C87.0182 84.4948 87.0026 84.4688 86.9766 84.4688C86.9557 84.4688 86.9375 84.4922 86.9219 84.5391L83.0391 92.9453C83.0182 92.9818 82.9583 93 82.8594 93C82.7604 93 82.7031 92.9792 82.6875 92.9375L78.8594 84.5156C78.8281 84.4427 78.7969 84.4062 78.7656 84.4062C78.7396 84.4062 78.7266 84.4635 78.7266 84.5781C78.7266 84.8177 78.6641 85.9479 78.5391 87.9688C78.4141 89.9896 78.3516 91.25 78.3516 91.75V92.0703C78.4141 92.3672 78.7083 92.5599 79.2344 92.6484C79.3854 92.6745 79.5443 92.6875 79.7109 92.6875ZM92.6797 88.8828C92.5911 88.8828 92.5469 89.0729 92.5469 89.4531C92.5469 90.2604 92.7865 90.9375 93.2656 91.4844C93.7448 92.0312 94.3385 92.3047 95.0469 92.3047C95.7604 92.3047 96.4453 91.9974 97.1016 91.3828C97.112 91.3724 97.125 91.3672 97.1406 91.3672H97.1797C97.2109 91.3672 97.2396 91.3932 97.2656 91.4453C97.2969 91.4922 97.3255 91.5234 97.3516 91.5391C96.7474 92.2734 96.0365 92.7812 95.2188 93.0625C94.9375 93.1615 94.6198 93.2109 94.2656 93.2109C93.9115 93.2109 93.5521 93.1146 93.1875 92.9219C92.8229 92.724 92.5104 92.4661 92.25 92.1484C91.6979 91.487 91.4219 90.6641 91.4219 89.6797C91.4219 88.6901 91.7214 87.7891 92.3203 86.9766C92.9245 86.1641 93.7526 85.7578 94.8047 85.7578C95.5599 85.7578 96.1771 86.0964 96.6562 86.7734C97.1354 87.4453 97.375 88.0365 97.375 88.5469C97.375 88.7708 97.3203 88.8828 97.2109 88.8828H92.6797ZM92.7656 88.1328C92.7656 88.2318 92.8125 88.2812 92.9062 88.2812H95.8516C95.987 88.2812 96.0547 88.2005 96.0547 88.0391C96.0547 87.6641 95.8854 87.2812 95.5469 86.8906C95.2135 86.4948 94.8464 86.2969 94.4453 86.2969C94.0547 86.2969 93.6979 86.474 93.375 86.8281C93.0573 87.1823 92.8542 87.5859 92.7656 88.0391V88.1328ZM103.508 86.0859C103.737 86.1641 103.878 86.2031 103.93 86.2031C103.982 86.2031 104.013 86.2031 104.023 86.2031C104.039 86.1979 104.057 86.1641 104.078 86.1016V82.0703C104.078 81.8516 103.958 81.7005 103.719 81.6172C103.615 81.5807 103.503 81.5521 103.383 81.5312C103.263 81.5052 103.167 81.4818 103.094 81.4609C103.026 81.4401 102.982 81.4219 102.961 81.4062C102.945 81.3854 102.938 81.3464 102.938 81.2891C102.938 81.2266 102.977 81.1745 103.055 81.1328L105.047 80.1953C105.109 80.1641 105.148 80.1484 105.164 80.1484C105.253 80.1484 105.297 80.2109 105.297 80.3359V91.4609C105.323 91.6901 105.388 91.8542 105.492 91.9531C105.596 92.0521 105.766 92.1016 106 92.1016L106.453 92.0703C106.484 92.0703 106.5 92.1016 106.5 92.1641C106.5 92.2214 106.461 92.2682 106.383 92.3047L104.305 93.1641C104.242 93.1953 104.188 93.2109 104.141 93.2109C104.099 93.2109 104.078 93.1458 104.078 93.0156V92.3047C104.078 92.2526 104.065 92.2266 104.039 92.2266C104.003 92.2266 103.786 92.3438 103.391 92.5781C102.177 93.2969 101.154 93.4036 100.32 92.8984C99.6536 92.4922 99.2031 91.849 98.9688 90.9688C98.8594 90.5573 98.8047 90.1224 98.8047 89.6641C98.8047 89.2005 98.8984 88.7422 99.0859 88.2891C99.2786 87.8307 99.5417 87.4297 99.875 87.0859C100.609 86.3359 101.495 85.9609 102.531 85.9609C102.953 85.9609 103.279 86.0026 103.508 86.0859ZM99.9844 89.4375C99.9844 90.224 100.203 90.9141 100.641 91.5078C101.078 92.0964 101.688 92.3906 102.469 92.3906C102.812 92.3906 103.167 92.3073 103.531 92.1406C103.896 91.9688 104.078 91.8385 104.078 91.75V87.7188C104.078 87.6198 104.01 87.5026 103.875 87.3672C103.458 86.7943 102.904 86.5078 102.211 86.5078C101.523 86.5078 100.979 86.7995 100.578 87.3828C100.182 87.9609 99.9844 88.6458 99.9844 89.4375ZM107.203 93C107.151 92.9896 107.125 92.9531 107.125 92.8906C107.125 92.7969 107.247 92.7344 107.492 92.7031C108.055 92.6198 108.336 92.3229 108.336 91.8125V87.6797C108.336 87.4609 108.216 87.3099 107.977 87.2266C107.872 87.1901 107.76 87.1615 107.641 87.1406C107.521 87.1146 107.424 87.0911 107.352 87.0703C107.284 87.0495 107.24 87.0312 107.219 87.0156C107.203 86.9948 107.195 86.9557 107.195 86.8984C107.195 86.8359 107.234 86.7839 107.312 86.7422L109.305 85.8047C109.367 85.7734 109.406 85.7578 109.422 85.7578C109.51 85.7578 109.555 85.8203 109.555 85.9453V91.8125C109.555 92.3229 109.836 92.6198 110.398 92.7031C110.643 92.7344 110.766 92.7891 110.766 92.8672C110.766 92.9453 110.74 92.9896 110.688 93H107.203ZM108.828 83.5625C108.615 83.5625 108.424 83.4948 108.258 83.3594C108.096 83.224 108.016 83.0365 108.016 82.7969C108.016 82.5521 108.094 82.3594 108.25 82.2188C108.406 82.0781 108.591 82.0078 108.805 82.0078C109.023 82.0078 109.206 82.0911 109.352 82.2578C109.503 82.4245 109.578 82.6042 109.578 82.7969C109.578 82.9896 109.508 83.1667 109.367 83.3281C109.227 83.4844 109.047 83.5625 108.828 83.5625ZM117.836 86.6953C117.836 87.0599 117.625 87.2422 117.203 87.2422C116.99 87.2422 116.807 87.1823 116.656 87.0625C116.51 86.9375 116.396 86.8333 116.312 86.75C116.234 86.6615 116.151 86.5807 116.062 86.5078C115.688 86.2005 115.229 86.1667 114.688 86.4062C114.151 86.6458 113.737 87.1562 113.445 87.9375C113.284 88.3698 113.203 88.7995 113.203 89.2266C113.203 90.1432 113.411 90.8932 113.828 91.4766C114.245 92.0547 114.883 92.3438 115.742 92.3438C116.383 92.3438 116.958 92.0573 117.469 91.4844C117.625 91.3125 117.719 91.2266 117.75 91.2266C117.781 91.2266 117.815 91.2422 117.852 91.2734C117.888 91.3047 117.906 91.3516 117.906 91.4141C117.906 91.4714 117.891 91.5156 117.859 91.5469C117.062 92.6562 116.06 93.2109 114.852 93.2109C113.977 93.2109 113.258 92.8854 112.695 92.2344C112.138 91.5833 111.859 90.8385 111.859 90C111.865 88.4479 112.24 87.3307 112.984 86.6484C113.641 86.0495 114.576 85.75 115.789 85.75C116.539 85.75 117.036 85.8255 117.281 85.9766C117.526 86.1276 117.698 86.3177 117.797 86.5469C117.823 86.599 117.836 86.6484 117.836 86.6953ZM123.828 91.7109C123.828 91.8464 123.891 91.9557 124.016 92.0391C124.146 92.1172 124.294 92.1562 124.461 92.1562C124.628 92.1562 124.766 92.1146 124.875 92.0312C124.99 91.9427 125.068 91.8984 125.109 91.8984C125.151 91.8984 125.172 91.9557 125.172 92.0703C125.172 92.1797 125.12 92.2734 125.016 92.3516C124.234 92.9245 123.706 93.2109 123.43 93.2109C123.096 93.2109 122.826 92.8646 122.617 92.1719C122.602 92.1198 122.589 92.0964 122.578 92.1016C121.932 92.5859 121.526 92.8776 121.359 92.9766C120.932 93.2214 120.503 93.2604 120.07 93.0938C119.643 92.9271 119.333 92.651 119.141 92.2656C119.047 92.0677 119 91.8568 119 91.6328C119 91.1901 119.164 90.8385 119.492 90.5781C119.82 90.3177 120.445 90.0677 121.367 89.8281C121.68 89.7448 121.958 89.638 122.203 89.5078C122.448 89.3776 122.576 89.2943 122.586 89.2578C122.602 89.2214 122.609 89.1875 122.609 89.1562V87.6562C122.609 87.0677 122.38 86.6536 121.922 86.4141C121.771 86.3359 121.589 86.2969 121.375 86.2969C121.167 86.2969 120.953 86.3802 120.734 86.5469C120.521 86.7135 120.414 86.9505 120.414 87.2578L120.453 87.5625C120.422 87.625 120.234 87.7292 119.891 87.875C119.547 88.0208 119.349 88.099 119.297 88.1094C119.214 88.1094 119.172 88.0104 119.172 87.8125C119.172 87.6094 119.232 87.3854 119.352 87.1406C119.471 86.8958 119.641 86.6719 119.859 86.4688C120.37 85.9948 120.953 85.7578 121.609 85.7578C122.266 85.7578 122.799 85.9401 123.211 86.3047C123.622 86.6641 123.828 87.0938 123.828 87.5938V91.7109ZM120.227 91.4844C120.227 91.7344 120.323 91.9531 120.516 92.1406C120.708 92.3229 120.927 92.4141 121.172 92.4141C121.422 92.4141 121.724 92.3099 122.078 92.1016C122.432 91.888 122.609 91.6693 122.609 91.4453V89.8594C122.609 89.8021 122.596 89.7734 122.57 89.7734C122.544 89.7734 122.526 89.776 122.516 89.7812L120.703 90.625C120.516 90.7604 120.388 90.875 120.32 90.9688C120.258 91.0625 120.227 91.2344 120.227 91.4844ZM128.805 92.7031C129.049 92.7344 129.172 92.7969 129.172 92.8906C129.172 92.9531 129.146 92.9896 129.094 93H125.609C125.557 92.9896 125.531 92.9531 125.531 92.8906C125.531 92.7969 125.654 92.7344 125.898 92.7031C126.461 92.6198 126.742 92.3229 126.742 91.8125V82.0703C126.742 81.8516 126.622 81.7005 126.383 81.6172C126.279 81.5807 126.167 81.5521 126.047 81.5312C125.927 81.5052 125.831 81.4818 125.758 81.4609C125.69 81.4401 125.646 81.4219 125.625 81.4062C125.609 81.3854 125.602 81.3464 125.602 81.2891C125.602 81.2266 125.641 81.1745 125.719 81.1328L127.711 80.1953C127.773 80.1641 127.812 80.1484 127.828 80.1484C127.917 80.1484 127.961 80.2109 127.961 80.3359V91.8125C127.961 92.3229 128.242 92.6198 128.805 92.7031ZM54.9766 114.703C54.9505 114.745 54.8854 114.755 54.7812 114.734C54.6823 114.708 54.5651 114.695 54.4297 114.695C54.2943 114.695 54.1016 114.724 53.8516 114.781C53.6068 114.833 53.2188 114.917 52.6875 115.031C52.1562 115.151 51.6719 115.211 51.2344 115.211C50.2448 115.211 49.2839 114.979 48.3516 114.516C47.4245 114.047 46.6823 113.385 46.125 112.531C45.5677 111.672 45.2891 110.677 45.2891 109.547C45.2891 108.417 45.5677 107.393 46.125 106.477C46.9375 105.133 48.1615 104.258 49.7969 103.852C50.3177 103.721 50.8385 103.656 51.3594 103.656C52.0729 103.656 52.9193 103.776 53.8984 104.016C54.1953 104.089 54.4453 104.164 54.6484 104.242C54.8568 104.32 54.9844 104.359 55.0312 104.359L55.2656 104.297H55.5078C55.5703 104.297 55.6016 104.341 55.6016 104.43V106.859C55.6016 106.911 55.5547 106.938 55.4609 106.938C55.3672 106.938 55.3125 106.927 55.2969 106.906C55.2812 106.88 55.2656 106.852 55.25 106.82C55.2344 106.784 55.2161 106.747 55.1953 106.711C55.1797 106.674 55.1615 106.641 55.1406 106.609C55.125 106.578 55.1146 106.555 55.1094 106.539C54.3281 104.971 53.1432 104.188 51.5547 104.188C50.1224 104.188 49.0026 104.643 48.1953 105.555C47.388 106.466 46.9844 107.674 46.9844 109.18C46.9844 110.68 47.4271 111.969 48.3125 113.047C49.2031 114.125 50.4115 114.664 51.9375 114.664C52.7708 114.664 53.5286 114.417 54.2109 113.922C54.8984 113.427 55.4375 112.82 55.8281 112.102C55.8385 112.07 55.8698 112.055 55.9219 112.055H56.0234C56.0755 112.055 56.1016 112.086 56.1016 112.148C56.1016 112.211 56.0859 112.271 56.0547 112.328L54.9766 114.703ZM58.5078 110.883C58.4193 110.883 58.375 111.073 58.375 111.453C58.375 112.26 58.6146 112.938 59.0938 113.484C59.5729 114.031 60.1667 114.305 60.875 114.305C61.5885 114.305 62.2734 113.997 62.9297 113.383C62.9401 113.372 62.9531 113.367 62.9688 113.367H63.0078C63.0391 113.367 63.0677 113.393 63.0938 113.445C63.125 113.492 63.1536 113.523 63.1797 113.539C62.5755 114.273 61.8646 114.781 61.0469 115.062C60.7656 115.161 60.4479 115.211 60.0938 115.211C59.7396 115.211 59.3802 115.115 59.0156 114.922C58.651 114.724 58.3385 114.466 58.0781 114.148C57.526 113.487 57.25 112.664 57.25 111.68C57.25 110.69 57.5495 109.789 58.1484 108.977C58.7526 108.164 59.5807 107.758 60.6328 107.758C61.388 107.758 62.0052 108.096 62.4844 108.773C62.9635 109.445 63.2031 110.036 63.2031 110.547C63.2031 110.771 63.1484 110.883 63.0391 110.883H58.5078ZM58.5938 110.133C58.5938 110.232 58.6406 110.281 58.7344 110.281H61.6797C61.8151 110.281 61.8828 110.201 61.8828 110.039C61.8828 109.664 61.7135 109.281 61.375 108.891C61.0417 108.495 60.6745 108.297 60.2734 108.297C59.8828 108.297 59.526 108.474 59.2031 108.828C58.8854 109.182 58.6823 109.586 58.5938 110.039V110.133ZM70.25 112.539L70.2344 110.891C70.2344 110.219 70.1771 109.747 70.0625 109.477C69.9479 109.206 69.8021 109.003 69.625 108.867C69.4479 108.727 69.2083 108.656 68.9062 108.656C68.6094 108.656 67.9766 108.891 67.0078 109.359C66.8776 109.438 66.8099 109.51 66.8047 109.578V113.781C66.8047 114.307 67.0859 114.609 67.6484 114.688C67.8932 114.724 68.0156 114.784 68.0156 114.867C68.0156 114.945 67.9896 114.99 67.9375 115H64.4531C64.401 114.99 64.375 114.953 64.375 114.891C64.375 114.792 64.4974 114.724 64.7422 114.688C65.3047 114.609 65.5859 114.307 65.5859 113.781V109.297C65.5859 109.078 65.4661 108.927 65.2266 108.844C65.1224 108.807 65.0104 108.779 64.8906 108.758C64.7708 108.732 64.6745 108.708 64.6016 108.688C64.5339 108.667 64.4896 108.648 64.4688 108.633C64.4531 108.612 64.4453 108.573 64.4453 108.516C64.4453 108.453 64.4844 108.401 64.5625 108.359L66.5547 107.422C66.6172 107.391 66.6562 107.375 66.6719 107.375C66.7604 107.375 66.8047 107.438 66.8047 107.562V108.781C66.8203 108.833 66.8411 108.859 66.8672 108.859C66.8984 108.859 67.0104 108.812 67.2031 108.719C67.651 108.495 68.1016 108.279 68.5547 108.07C69.0078 107.862 69.3828 107.758 69.6797 107.758C70.8828 107.758 71.4844 108.854 71.4844 111.047L71.4141 113.328V113.781C71.4141 114.188 71.6172 114.453 72.0234 114.578C72.1953 114.635 72.3594 114.677 72.5156 114.703C72.6771 114.724 72.7812 114.745 72.8281 114.766C72.8802 114.786 72.9062 114.828 72.9062 114.891C72.9062 114.953 72.8802 114.99 72.8281 115H69.0625C69.0104 114.99 68.9844 114.953 68.9844 114.891C68.9844 114.792 69.1068 114.724 69.3516 114.688C69.9089 114.609 70.1875 114.286 70.1875 113.719C70.2292 113.458 70.25 113.065 70.25 112.539ZM75.5078 108.992C75.4766 108.992 75.4609 109.016 75.4609 109.062V113.375C75.4609 113.688 75.5286 113.932 75.6641 114.109C75.8047 114.286 75.9818 114.375 76.1953 114.375C76.4089 114.375 76.5938 114.341 76.75 114.273C76.9115 114.201 77.0495 114.122 77.1641 114.039C77.2839 113.956 77.3906 113.88 77.4844 113.812C77.5781 113.74 77.6615 113.703 77.7344 113.703C77.8073 113.703 77.8438 113.721 77.8438 113.758C77.8438 113.883 77.8307 113.964 77.8047 114C77.1797 114.807 76.5755 115.211 75.9922 115.211C75.4141 115.211 74.9766 115.029 74.6797 114.664C74.388 114.294 74.2422 113.854 74.2422 113.344V108.992H73.6562C73.5104 108.992 73.4323 108.945 73.4219 108.852C73.4167 108.758 73.4323 108.698 73.4688 108.672C73.7448 108.495 74.125 108.177 74.6094 107.719C74.6615 107.661 74.7318 107.576 74.8203 107.461C74.9089 107.346 75.0365 107.19 75.2031 106.992C75.375 106.794 75.5052 106.695 75.5938 106.695C75.6823 106.695 75.7266 106.732 75.7266 106.805C75.7266 106.815 75.638 107.156 75.4609 107.828C75.4609 107.922 75.5026 107.971 75.5859 107.977H77.5781C77.8073 107.977 77.9219 108.299 77.9219 108.945C77.9219 108.977 77.901 108.992 77.8594 108.992H75.5078ZM79.9297 110.883C79.8411 110.883 79.7969 111.073 79.7969 111.453C79.7969 112.26 80.0365 112.938 80.5156 113.484C80.9948 114.031 81.5885 114.305 82.2969 114.305C83.0104 114.305 83.6953 113.997 84.3516 113.383C84.362 113.372 84.375 113.367 84.3906 113.367H84.4297C84.4609 113.367 84.4896 113.393 84.5156 113.445C84.5469 113.492 84.5755 113.523 84.6016 113.539C83.9974 114.273 83.2865 114.781 82.4688 115.062C82.1875 115.161 81.8698 115.211 81.5156 115.211C81.1615 115.211 80.8021 115.115 80.4375 114.922C80.0729 114.724 79.7604 114.466 79.5 114.148C78.9479 113.487 78.6719 112.664 78.6719 111.68C78.6719 110.69 78.9714 109.789 79.5703 108.977C80.1745 108.164 81.0026 107.758 82.0547 107.758C82.8099 107.758 83.4271 108.096 83.9062 108.773C84.3854 109.445 84.625 110.036 84.625 110.547C84.625 110.771 84.5703 110.883 84.4609 110.883H79.9297ZM80.0156 110.133C80.0156 110.232 80.0625 110.281 80.1562 110.281H83.1016C83.237 110.281 83.3047 110.201 83.3047 110.039C83.3047 109.664 83.1354 109.281 82.7969 108.891C82.4635 108.495 82.0964 108.297 81.6953 108.297C81.3047 108.297 80.9479 108.474 80.625 108.828C80.3073 109.182 80.1042 109.586 80.0156 110.039V110.133ZM90.6875 109.398C90.625 109.388 90.5339 109.354 90.4141 109.297C89.9818 109.099 89.6432 109 89.3984 109C89.1536 109 88.8958 109.154 88.625 109.461C88.3594 109.763 88.2266 110.036 88.2266 110.281V113.812C88.2266 114.203 88.4531 114.464 88.9062 114.594C89.1042 114.646 89.2891 114.685 89.4609 114.711C89.6328 114.732 89.7422 114.753 89.7891 114.773C89.8411 114.794 89.8672 114.836 89.8672 114.898C89.8672 114.956 89.8411 114.99 89.7891 115H85.875C85.8229 114.99 85.7969 114.953 85.7969 114.891C85.7969 114.797 85.9193 114.734 86.1641 114.703C86.7266 114.62 87.0078 114.323 87.0078 113.812V109.68C87.0078 109.461 86.888 109.31 86.6484 109.227C86.5443 109.19 86.4323 109.161 86.3125 109.141C86.1927 109.115 86.0964 109.091 86.0234 109.07C85.9557 109.049 85.9115 109.031 85.8906 109.016C85.875 108.995 85.8672 108.956 85.8672 108.898C85.8672 108.836 85.9062 108.784 85.9844 108.742L87.9766 107.805C88.0391 107.773 88.0781 107.758 88.0938 107.758C88.1823 107.758 88.2266 107.82 88.2266 107.945V109.211C88.2266 109.273 88.2422 109.305 88.2734 109.305C88.3151 109.305 88.4219 109.182 88.5938 108.938C89.0885 108.245 89.4974 107.898 89.8203 107.898C90.0026 107.898 90.2812 107.971 90.6562 108.117C91.0365 108.263 91.2266 108.385 91.2266 108.484C91.2266 108.604 91.1667 108.786 91.0469 109.031C90.9271 109.276 90.8073 109.398 90.6875 109.398Z" fill="#835AA1"/>
<defs>
<clipPath id="clip0_967_237">
<rect width="46" height="68.6877" fill="white" transform="translate(47)"/>
</clipPath>
</defs>
</svg>
