<svg width="140" height="123" viewBox="0 0 140 123" fill="none" xmlns="http://www.w3.org/2000/svg">
<g clip-path="url(#clip0_967_236)">
<path fill-rule="evenodd" clip-rule="evenodd" d="M70.2611 21.5881C70.2442 21.5111 70.2567 21.4305 70.296 21.3622C70.3353 21.2939 70.3987 21.2426 70.4737 21.2184C70.5487 21.1942 70.6301 21.1989 70.7019 21.2314C70.7737 21.2639 70.8309 21.322 70.8622 21.3944C71.6637 23.849 71.1961 25.068 70.8288 26.0699C70.7348 26.3014 70.6567 26.5391 70.595 26.7812C70.4948 27.1887 72.512 30.2244 72.5186 30.2344C72.5537 30.2855 72.5724 30.3461 72.5721 30.4081C72.5721 30.8622 72.2548 30.9858 71.0025 31.4734L70.9524 31.4934L71.1527 31.8908C71.1516 31.8986 71.1516 31.9065 71.1527 31.9142C71.1509 31.9208 71.1509 31.9277 71.1527 31.9343C71.1821 32.0438 71.1763 32.1598 71.1362 32.2659C71.096 32.372 71.0235 32.4627 70.929 32.5254C70.8462 32.5982 70.7567 32.663 70.6618 32.7191C70.8522 33.1365 71.0559 33.6375 70.2343 34.0716C70.1642 34.1084 70.3278 34.2386 70.3612 34.4924C70.4748 35.3373 70.6318 36.5162 69.3994 36.7433C67.8116 37.057 66.1689 36.9417 64.6405 36.4094C63.2243 35.8815 61.9358 35.0597 60.86 33.9982C60.83 33.9696 60.8058 33.9355 60.789 33.8977C60.7721 33.8598 60.7629 33.8191 60.7618 33.7777C60.7607 33.7363 60.7678 33.695 60.7827 33.6564C60.7975 33.6177 60.8198 33.5824 60.8483 33.5523C60.8768 33.5223 60.911 33.4981 60.9488 33.4813C60.9866 33.4644 61.0274 33.4552 61.0688 33.4541C61.1102 33.453 61.1514 33.4601 61.1901 33.475C61.2288 33.4898 61.2641 33.5121 61.2942 33.5406C62.3093 34.5499 63.5289 35.33 64.8709 35.8283C66.296 36.3219 67.8268 36.4268 69.3059 36.1322C69.9505 36.0153 69.8369 35.177 69.7601 34.5792C69.6933 34.085 69.6399 33.6909 69.9571 33.5239C70.2744 33.3569 70.1776 33.1399 70.0974 32.9595C70.0455 32.8535 70.0073 32.7413 69.9839 32.6256C69.9662 32.5513 69.9766 32.4731 70.0129 32.4059C70.0492 32.3388 70.1091 32.2874 70.1809 32.2615L70.2611 32.2248C70.3581 32.177 70.4489 32.1175 70.5316 32.0478L70.241 31.4701V31.43C70.2259 31.3914 70.2187 31.3502 70.2196 31.3088C70.2205 31.2674 70.2296 31.2266 70.2464 31.1887C70.2631 31.1509 70.2872 31.1167 70.3173 31.0881C70.3473 31.0596 70.3827 31.0373 70.4214 31.0225L70.7921 30.8789C71.5134 30.5984 71.8173 30.4782 71.9175 30.4281C71.5001 29.7902 69.857 27.2187 69.9972 26.6243C70.0669 26.3573 70.1539 26.0951 70.2577 25.8394C70.5917 24.9344 71.0125 23.8357 70.2778 21.5714L70.2611 21.5881ZM70.595 32.168V32.148C70.585 32.1714 70.5917 32.1847 70.585 32.168H70.595Z" fill="#7732BC"/>
<path fill-rule="evenodd" clip-rule="evenodd" d="M53.7185 37.7373C53.6658 37.8019 53.5895 37.843 53.5066 37.8515C53.4236 37.8599 53.3406 37.8351 53.276 37.7824C53.2113 37.7297 53.1702 37.6534 53.1618 37.5704C53.1533 37.4875 53.1782 37.4045 53.2309 37.3399L57.3854 32.2402L57.352 32.2236C56.6939 31.9418 56.1511 31.4449 55.8124 30.8142C55.4464 30.2078 55.2407 29.5183 55.2146 28.8105C55.2102 28.5677 55.2475 28.3259 55.3248 28.0958C55.4173 27.8132 55.5931 27.5652 55.8291 27.3844C55.9599 27.2935 56.1087 27.2318 56.2655 27.2036C56.4222 27.1754 56.5832 27.1812 56.7375 27.2208C57.0441 27.2961 57.331 27.4362 57.5791 27.6316C57.8301 27.8239 58.0547 28.0485 58.247 28.2995C58.4674 27.5754 58.8766 26.923 59.4326 26.4093C59.9211 25.9748 60.2629 25.3996 60.4111 24.7628C60.4155 24.7195 60.4288 24.6777 60.4503 24.6398C60.4718 24.602 60.5009 24.569 60.5358 24.543C60.5706 24.517 60.6105 24.4985 60.6529 24.4888C60.6953 24.479 60.7393 24.4781 60.782 24.4863C60.8248 24.4944 60.8654 24.5113 60.9012 24.536C60.9371 24.5606 60.9674 24.5925 60.9903 24.6295C61.0132 24.6664 61.0282 24.7078 61.0342 24.7509C61.0403 24.794 61.0374 24.8378 61.0256 24.8797C60.8608 25.6345 60.4623 26.3181 59.8868 26.8334C59.1936 27.4543 58.7646 28.3172 58.6878 29.2446C58.6804 29.3163 58.6485 29.3832 58.5975 29.4341C58.5466 29.4851 58.4797 29.5169 58.408 29.5244C58.3363 29.5318 58.2643 29.5144 58.204 29.475C58.1436 29.4356 58.0987 29.3767 58.0767 29.3081C57.8999 28.8361 57.5916 28.4247 57.1883 28.1225C57.0143 27.9831 56.8129 27.8818 56.5972 27.8253C56.5271 27.8055 56.4536 27.8009 56.3816 27.8119C56.3096 27.8228 56.2408 27.849 56.1798 27.8887C56.0426 27.9999 55.9425 28.1502 55.8926 28.3195C55.8408 28.4802 55.816 28.6483 55.8191 28.8171C55.8485 29.4079 56.0253 29.982 56.3334 30.4869C56.5957 30.9905 57.0206 31.3907 57.539 31.6224C57.6673 31.6699 57.8029 31.6948 57.9398 31.6959H57.9765C58.1226 31.709 58.2683 31.666 58.3839 31.5757L58.4941 31.5055C58.565 31.4612 58.6505 31.4469 58.732 31.4657C58.8134 31.4845 58.884 31.5349 58.9283 31.6057C58.9726 31.6766 58.9869 31.7621 58.9681 31.8435C58.9493 31.925 58.8989 31.9956 58.8281 32.0399L58.7312 32.1033C58.5553 32.2407 58.3399 32.318 58.1168 32.3237L53.7185 37.7373ZM61.1258 22.6555C61.1182 22.7388 61.0779 22.8156 61.0137 22.8692C60.9495 22.9227 60.8667 22.9486 60.7834 22.9411C60.7002 22.9335 60.6233 22.8932 60.5698 22.829C60.5162 22.7648 60.4904 22.682 60.4979 22.5988C60.5812 21.6976 60.7914 20.8128 61.1224 19.9705C61.4262 19.1981 61.8611 18.484 62.4082 17.8598C62.4635 17.7974 62.5414 17.7595 62.6247 17.7545C62.708 17.7495 62.7899 17.7777 62.8523 17.8331C62.9148 17.8885 62.9527 17.9664 62.9577 18.0497C62.9627 18.133 62.9344 18.2148 62.8791 18.2773C62.3741 18.8453 61.9728 19.4975 61.6935 20.2042C61.3896 20.9905 61.1985 21.8157 61.1258 22.6555Z" fill="#7732BC"/>
<path fill-rule="evenodd" clip-rule="evenodd" d="M71.6933 17.5627C71.6888 17.5185 71.6935 17.4739 71.7073 17.4316C71.7211 17.3894 71.7436 17.3506 71.7733 17.3176C71.8031 17.2847 71.8394 17.2583 71.88 17.2403C71.9206 17.2222 71.9645 17.2129 72.0089 17.2129C72.0533 17.2129 72.0972 17.2222 72.1378 17.2403C72.1784 17.2583 72.2147 17.2847 72.2445 17.3176C72.2742 17.3506 72.2967 17.3894 72.3105 17.4316C72.3243 17.4739 72.329 17.5185 72.3245 17.5627C72.3245 25.0468 61.5041 24.9933 57.6869 24.98H57.1225C57.0398 24.98 56.9605 24.9474 56.9017 24.8892C56.8429 24.8311 56.8095 24.7521 56.8086 24.6694C56.8084 24.5842 56.8409 24.5021 56.8992 24.44C56.9576 24.378 57.0375 24.3405 57.1225 24.3354H57.6869C61.3405 24.3788 71.6933 24.4022 71.6933 17.5627Z" fill="#7732BC"/>
<path fill-rule="evenodd" clip-rule="evenodd" d="M66.5183 14.2492C66.4032 14.1992 66.3099 14.1095 66.2553 13.9965C66.2007 13.8835 66.1885 13.7546 66.2208 13.6334C66.2532 13.5121 66.3279 13.4065 66.4315 13.3356C66.5351 13.2648 66.6607 13.2335 66.7854 13.2474C68.1392 13.6332 69.4176 14.2464 70.5659 15.0608C71.7214 15.8823 72.5363 16.8241 72.5363 17.5622C72.5257 17.6944 72.4657 17.8179 72.3682 17.9079C72.2708 17.9979 72.143 18.0479 72.0103 18.0479C71.8776 18.0479 71.7498 17.9979 71.6523 17.9079C71.5548 17.8179 71.4948 17.6944 71.4843 17.5622C71.4843 17.1848 70.8531 16.5603 69.9581 15.9124C68.9136 15.1677 67.7506 14.6053 66.5183 14.2492Z" fill="#7732BC"/>
<path fill-rule="evenodd" clip-rule="evenodd" d="M53.5873 37.0701C53.6725 37.1726 53.7155 37.3038 53.7074 37.437C53.6993 37.5701 53.6408 37.6951 53.5438 37.7866C53.4467 37.8781 53.3185 37.9292 53.1851 37.9295C53.0517 37.9298 52.9233 37.8792 52.8259 37.7881C50.0465 34.874 48.2533 31.1602 47.6995 27.1714C47.4238 25.1472 47.5774 23.0876 48.1504 21.1267C48.7172 19.2162 49.7768 17.4885 51.2228 16.1173C53.0596 14.384 55.6078 13.165 58.904 12.7476C59.0379 12.7375 59.1705 12.7792 59.2746 12.864C59.3787 12.9488 59.4462 13.0704 59.4633 13.2035C59.4805 13.3367 59.4459 13.4714 59.3666 13.5798C59.2874 13.6882 59.1696 13.7621 59.0376 13.7862C55.9685 14.1736 53.6174 15.2924 51.9342 16.882C50.6264 18.1299 49.6674 19.6979 49.1523 21.4306C48.6199 23.2541 48.4788 25.1694 48.7382 27.0512C49.2654 30.8162 50.9616 34.3207 53.5873 37.0701Z" fill="#7732BC"/>
<path fill-rule="evenodd" clip-rule="evenodd" d="M70.4185 32.3936C70.4458 32.3899 70.4735 32.3916 70.5 32.3987C70.5266 32.4057 70.5515 32.418 70.5732 32.4348C70.595 32.4516 70.6132 32.4725 70.6267 32.4964C70.6403 32.5203 70.649 32.5467 70.6523 32.574C70.6561 32.6014 70.6544 32.6293 70.6474 32.656C70.6403 32.6828 70.6281 32.7079 70.6113 32.7299C70.5946 32.752 70.5736 32.7705 70.5497 32.7844C70.5258 32.7983 70.4994 32.8074 70.472 32.8111C69.8781 32.889 69.2758 32.8778 68.6853 32.7777C68.2431 32.7003 67.8076 32.5887 67.3828 32.4437C67.3566 32.4354 67.3322 32.4219 67.3112 32.4041C67.2903 32.3863 67.2731 32.3644 67.2606 32.3399C67.2482 32.3153 67.2408 32.2885 67.2388 32.261C67.2368 32.2335 67.2404 32.206 67.2492 32.1799C67.2661 32.1268 67.3034 32.0825 67.3528 32.0569C67.4023 32.0312 67.4599 32.0262 67.5131 32.043C67.9167 32.1866 68.3309 32.2983 68.7521 32.3769C69.3039 32.4625 69.8651 32.4682 70.4185 32.3936Z" fill="#7732BC"/>
<path fill-rule="evenodd" clip-rule="evenodd" d="M69.9991 1.975e-05C75.3194 0.00058019 80.4749 1.84581 84.5872 5.22131C88.6995 8.59682 91.5142 13.2938 92.5518 18.5119C93.5894 23.73 92.7856 29.1464 90.2773 33.8384C87.7691 38.5303 83.7117 42.2074 78.7963 44.2432C73.881 46.2789 68.4118 46.5475 63.3206 45.003C58.2295 43.4585 53.8314 40.1965 50.8756 35.7728C47.9198 31.3492 46.5893 26.0375 47.1107 20.7429C47.6322 15.4482 49.9733 10.4981 53.7351 6.73604C55.8687 4.59722 58.4039 2.90108 61.195 1.74509C63.9861 0.589105 66.9781 -0.00394515 69.9991 1.975e-05ZM85.5184 7.48078C81.9281 3.89117 77.2044 1.65744 72.1519 1.16018C67.0994 0.662917 62.0307 1.93288 57.8096 4.7537C53.5885 7.57452 50.476 11.7717 49.0024 16.63C47.5289 21.4884 47.7855 26.7074 49.7284 31.3978C51.6714 36.0882 55.1806 39.9598 59.6581 42.353C64.1355 44.7461 69.3043 45.5128 74.2836 44.5224C79.263 43.5319 83.7449 40.8456 86.9657 36.9212C90.1865 32.9967 91.947 28.0769 91.9471 23C91.9516 20.1171 91.3859 17.2618 90.2826 14.5984C89.1793 11.935 87.5601 9.51602 85.5184 7.48078Z" fill="#7732BC"/>
<path fill-rule="evenodd" clip-rule="evenodd" d="M63.8677 35.6504C63.9377 35.6077 64.021 35.5922 64.1017 35.607C64.1824 35.6218 64.2548 35.6658 64.3052 35.7305C64.3291 35.7643 64.3461 35.8026 64.3551 35.8431C64.364 35.8836 64.3648 35.9254 64.3573 35.9662C64.3499 36.0069 64.3343 36.0458 64.3116 36.0805C64.2889 36.1151 64.2594 36.1449 64.225 36.168C63.8629 36.4194 63.5331 36.7144 63.2432 37.0463C62.465 37.9502 61.9886 39.0746 61.8806 40.2624C61.7581 41.3819 62.031 42.509 62.6521 43.4484C62.8415 43.7215 63.0661 43.9686 63.32 44.1831C63.3752 44.2401 63.407 44.3158 63.4091 44.3951C63.4113 44.4744 63.3837 44.5517 63.3317 44.6116C63.2797 44.6716 63.2072 44.7099 63.1283 44.7189C63.0495 44.728 62.9701 44.7072 62.9059 44.6607C62.6176 44.4083 62.3619 44.1212 62.1444 43.8057C61.4396 42.7454 61.1288 41.4715 61.2661 40.2056C61.3855 38.8869 61.9145 37.6386 62.779 36.6356C63.1 36.2637 63.4657 35.9328 63.8677 35.6504Z" fill="#7732BC"/>
<path fill-rule="evenodd" clip-rule="evenodd" d="M72.0173 18.738C71.9515 18.716 71.8907 18.6814 71.8383 18.6359C71.7859 18.5905 71.743 18.5352 71.712 18.4732C71.681 18.4112 71.6625 18.3436 71.6576 18.2745C71.6527 18.2053 71.6614 18.1358 71.6833 18.07C71.7276 17.9372 71.8229 17.8274 71.9481 17.7647C72.0102 17.7337 72.0777 17.7152 72.1469 17.7103C72.216 17.7054 72.2855 17.7142 72.3513 17.7361C74.1146 18.3272 76.0249 20.1707 78.1388 22.1845C82.1731 26.0484 86.8953 30.587 91.6443 27.0837C91.699 27.0369 91.7628 27.002 91.8317 26.9809C91.9005 26.9599 91.973 26.9533 92.0445 26.9615C92.116 26.9697 92.1851 26.9925 92.2474 27.0286C92.3097 27.0646 92.3639 27.1131 92.4066 27.171C92.4494 27.229 92.4798 27.2951 92.4959 27.3652C92.5119 27.4354 92.5134 27.5081 92.5002 27.5789C92.4869 27.6496 92.4592 27.7169 92.4189 27.7765C92.3785 27.8361 92.3263 27.8867 92.2655 27.9253C86.8052 31.9562 81.7323 27.1004 77.4108 22.9492C75.387 21.039 73.5569 19.2556 72.0173 18.738Z" fill="#7732BC"/>
<path fill-rule="evenodd" clip-rule="evenodd" d="M61.7163 40.3798C61.633 40.3798 61.5532 40.3467 61.4943 40.2879C61.4354 40.229 61.4023 40.1491 61.4023 40.0659C61.4023 39.9826 61.4354 39.9028 61.4943 39.8439C61.5532 39.785 61.633 39.752 61.7163 39.752C63.72 39.752 65.9843 41.926 68.5024 44.3439L69.4074 45.2056C69.4677 45.2631 69.5025 45.3423 69.5044 45.4256C69.5063 45.5089 69.475 45.5895 69.4174 45.6497C69.3599 45.71 69.2807 45.7449 69.1974 45.7467C69.1141 45.7486 69.0335 45.7173 68.9733 45.6598C68.676 45.3792 68.3688 45.0853 68.0682 44.7948C65.6437 42.4737 63.4629 40.3831 61.7163 40.3798Z" fill="#7732BC"/>
<path fill-rule="evenodd" clip-rule="evenodd" d="M58.355 19.1462C58.3107 19.2791 58.2154 19.3889 58.0902 19.4515C57.9649 19.5142 57.8199 19.5245 57.6871 19.4802C57.5542 19.4359 57.4444 19.3407 57.3817 19.2154C57.3191 19.0901 57.3088 18.9451 57.3531 18.8123C59.3001 13.3052 64.2995 13.1349 66.2265 13.185C66.4227 11.9736 66.4069 10.7374 66.1797 9.53145L66.1463 9.28766C64.5734 11.1679 62.6564 12.0228 61.0601 12.7609C60.4268 13.0213 59.8159 13.3329 59.2333 13.6926C58.507 14.1508 57.8521 14.7135 57.2896 15.3624C56.6162 16.2161 56.1128 17.1911 55.8069 18.2345C54.2639 22.9434 56.8522 27.2281 56.8588 27.2515C56.9297 27.3715 56.95 27.5148 56.9152 27.6497C56.8805 27.7847 56.7935 27.9003 56.6735 27.9712C56.5535 28.042 56.4102 28.0623 56.2753 28.0276C56.1403 27.9928 56.0247 27.9059 55.9538 27.7858C55.9538 27.7858 53.1151 23.0836 54.8083 17.9206C55.1544 16.7518 55.7212 15.6601 56.4781 14.7045C57.1046 13.981 57.8337 13.3532 58.6422 12.841C59.2737 12.4445 59.9372 12.1015 60.6259 11.8158C62.3792 11.0209 64.5466 10.019 66.0595 7.60115C66.1165 7.50685 66.2019 7.43305 66.3034 7.39035C66.405 7.34764 66.5175 7.33823 66.6247 7.36346C66.732 7.38869 66.8284 7.44727 66.9003 7.53078C66.9722 7.61429 67.0157 7.71844 67.0247 7.82824C67.0781 8.39598 67.1482 8.90026 67.215 9.36447C67.4873 10.8245 67.4771 12.3232 67.185 13.7795C67.1675 13.9104 67.1016 14.0301 67.0002 14.1149C66.8988 14.1996 66.7693 14.2432 66.6373 14.237H66.5938C65.2814 14.1702 60.1951 13.9097 58.355 19.1462Z" fill="#7732BC"/>
<path fill-rule="evenodd" clip-rule="evenodd" d="M57.1402 24.8367C57.0621 24.8286 56.9898 24.7919 56.9372 24.7336C56.8846 24.6753 56.8555 24.5996 56.8555 24.5211C56.8555 24.4426 56.8846 24.3669 56.9372 24.3086C56.9898 24.2503 57.0621 24.2136 57.1402 24.2055C57.8549 24.2055 59.9422 23.2036 61.9192 21.4436C63.3518 20.2259 64.493 18.7024 65.2589 16.9852C65.2742 16.9472 65.297 16.9125 65.3259 16.8833C65.3548 16.8541 65.3891 16.8309 65.427 16.815C65.4649 16.7992 65.5056 16.791 65.5466 16.791C65.5877 16.791 65.6284 16.7991 65.6663 16.8149C65.7432 16.8461 65.8047 16.9064 65.8372 16.9828C65.8698 17.0591 65.8707 17.1453 65.8399 17.2223C65.0453 19.0212 63.8573 20.6189 62.3634 21.8978L62.3434 21.9179C60.2461 23.758 57.9584 24.8367 57.1402 24.8367Z" fill="#7732BC"/>
<path fill-rule="evenodd" clip-rule="evenodd" d="M57.1186 24.8199C57.0774 24.8199 57.0366 24.8118 56.9985 24.796C56.9604 24.7802 56.9258 24.7571 56.8966 24.7279C56.8675 24.6988 56.8444 24.6642 56.8286 24.6261C56.8128 24.588 56.8047 24.5472 56.8047 24.5059C56.8047 24.4647 56.8128 24.4239 56.8286 24.3858C56.8444 24.3477 56.8675 24.3131 56.8966 24.284C56.9258 24.2548 56.9604 24.2317 56.9985 24.2159C57.0366 24.2001 57.0774 24.192 57.1186 24.192C57.9368 24.192 61.6004 23.6009 64.6127 21.4235C66.4878 20.1399 67.8399 18.2261 68.4232 16.03C68.4441 15.9489 68.4962 15.8795 68.5682 15.8369C68.6403 15.7943 68.7263 15.7821 68.8073 15.8029C68.8883 15.8237 68.9578 15.8759 69.0004 15.9479C69.043 16.0199 69.0552 16.1059 69.0344 16.1869C68.4161 18.5234 66.9813 20.5612 64.9901 21.9311C61.8509 24.202 57.9869 24.8299 57.1186 24.8199Z" fill="#7732BC"/>
<path fill-rule="evenodd" clip-rule="evenodd" d="M56.6858 33.691C56.7068 33.7086 56.7241 33.7303 56.7367 33.7547C56.7492 33.7791 56.7568 33.8057 56.759 33.833C56.7612 33.8604 56.7579 33.8879 56.7493 33.914C56.7408 33.94 56.7272 33.9641 56.7092 33.9849C56.6918 34.0063 56.6703 34.0239 56.6459 34.0367C56.6215 34.0496 56.5947 34.0573 56.5673 34.0595C56.5398 34.0617 56.5122 34.0583 56.486 34.0494C56.4599 34.0406 56.4359 34.0266 56.4153 34.0083C55.006 32.8194 53.5599 30.4916 53.1759 27.8967C52.9996 26.8455 53.0365 25.7696 53.2843 24.7329C53.5322 23.6962 53.9859 22.7199 54.6186 21.862C54.6519 21.8174 54.7015 21.7877 54.7566 21.7796C54.8117 21.7715 54.8677 21.7855 54.9125 21.8186C54.9572 21.8519 54.9868 21.9015 54.9949 21.9566C55.0031 22.0117 54.989 22.0678 54.9559 22.1125C54.3555 22.926 53.9251 23.8521 53.6904 24.8356C53.4557 25.819 53.4216 26.8397 53.59 27.8366C53.9674 30.3247 55.35 32.5555 56.6858 33.691Z" fill="#7732BC"/>
<path fill-rule="evenodd" clip-rule="evenodd" d="M55.6814 16.7986C55.7081 16.787 55.737 16.7811 55.7661 16.7813C55.7953 16.7814 55.8241 16.7876 55.8507 16.7994C55.8773 16.8113 55.9012 16.8285 55.9208 16.85C55.9404 16.8716 55.9553 16.897 55.9646 16.9246C55.9739 16.9522 55.9773 16.9815 55.9747 17.0105C55.9721 17.0395 55.9635 17.0677 55.9494 17.0932C55.9354 17.1187 55.9162 17.141 55.893 17.1587C55.8699 17.1765 55.8433 17.1892 55.815 17.1961C54.6743 17.5979 53.6837 18.3391 52.9763 19.3201C51.921 20.7327 51.3065 22.6296 51.1262 24.6468C50.9415 26.7084 51.186 28.7858 51.8442 30.7483C52.5121 32.6719 53.5708 34.3584 55.0302 35.4471C55.0748 35.4804 55.1045 35.53 55.1126 35.5851C55.1208 35.6402 55.1067 35.6962 55.0736 35.741C55.0403 35.7857 54.9907 35.8153 54.9356 35.8234C54.8805 35.8316 54.8245 35.8175 54.7797 35.7844C53.2468 34.6423 52.1314 32.8823 51.4401 30.8818C50.7635 28.8647 50.5122 26.7292 50.702 24.61C50.8924 22.5161 51.5303 20.5457 52.6323 19.0696C53.3913 18.0174 54.4559 17.2245 55.6814 16.7986Z" fill="#7732BC"/>
<path fill-rule="evenodd" clip-rule="evenodd" d="M70.7103 21.5913C70.6834 21.5805 70.6591 21.5643 70.6388 21.5438C70.6185 21.5232 70.6027 21.4987 70.5922 21.4717C70.5818 21.4447 70.5771 21.4159 70.5783 21.387C70.5795 21.3582 70.5867 21.3299 70.5993 21.3039C70.612 21.2779 70.6299 21.2548 70.6518 21.236C70.6738 21.2172 70.6994 21.2032 70.7271 21.1947C70.7547 21.1863 70.7838 21.1836 70.8125 21.1869C70.8412 21.1902 70.8689 21.1994 70.894 21.2139C72.5638 22.0187 74.3705 23.7687 76.3442 25.6589C80.6624 29.8 85.6952 34.6225 90.885 31.3062C90.9078 31.291 90.9335 31.2805 90.9605 31.2754C90.9875 31.2703 91.0153 31.2707 91.0421 31.2767C91.0689 31.2826 91.0943 31.2939 91.1166 31.3099C91.139 31.3259 91.1579 31.3462 91.1722 31.3697C91.187 31.3927 91.1971 31.4184 91.2019 31.4453C91.2067 31.4722 91.2062 31.4998 91.2003 31.5265C91.1944 31.5532 91.1833 31.5785 91.1675 31.6009C91.1518 31.6232 91.1318 31.6423 91.1087 31.6569C85.6284 35.1535 80.4653 30.2075 76.0537 25.9628C74.09 24.096 72.2899 22.3761 70.7103 21.5913Z" fill="#7732BC"/>
<path fill-rule="evenodd" clip-rule="evenodd" d="M72.0054 31.0289C71.9669 30.9891 71.9453 30.9358 71.9453 30.8803C71.9453 30.8248 71.9669 30.7716 72.0054 30.7317C72.0447 30.6933 72.0975 30.6719 72.1524 30.6719C72.2073 30.6719 72.26 30.6933 72.2993 30.7317C72.9038 31.266 73.5417 31.8638 74.1996 32.4783C77.6628 35.7178 81.7237 39.5149 85.7346 38.9038C85.7869 38.9007 85.8385 38.9173 85.8792 38.9502C85.92 38.9832 85.9469 39.0301 85.9549 39.0819C85.9628 39.1337 85.9511 39.1866 85.9221 39.2302C85.8931 39.2739 85.8489 39.3051 85.7981 39.3179C81.5902 39.9624 77.449 36.0851 73.9157 32.7856C73.2478 32.1611 72.6199 31.5733 72.0054 31.0289Z" fill="#7732BC"/>
<path fill-rule="evenodd" clip-rule="evenodd" d="M70.4585 33.5694C70.4143 33.5335 70.386 33.4815 70.3801 33.4248C70.3741 33.3681 70.3909 33.3114 70.4268 33.2671C70.4627 33.2228 70.5147 33.1946 70.5714 33.1887C70.628 33.1827 70.6848 33.1995 70.7291 33.2354C71.6308 34.0002 72.5759 34.9052 73.5577 35.8437C75.9923 38.1814 78.6607 40.7362 81.4492 41.855C81.5005 41.8765 81.5414 41.9171 81.5632 41.9682C81.585 42.0193 81.5861 42.0769 81.5661 42.1288C81.5558 42.1545 81.5406 42.1779 81.5213 42.1977C81.5019 42.2174 81.4789 42.2332 81.4534 42.244C81.428 42.2549 81.4007 42.2606 81.373 42.2609C81.3454 42.2612 81.3179 42.256 81.2923 42.2457C78.4302 41.0969 75.7318 38.512 73.2772 36.1509C72.292 35.2258 71.3536 34.3275 70.4585 33.5694Z" fill="#7732BC"/>
<path fill-rule="evenodd" clip-rule="evenodd" d="M62.8604 37.4912C62.8341 37.4826 62.8097 37.4689 62.7887 37.451C62.7677 37.433 62.7504 37.4111 62.7378 37.3864C62.7252 37.3618 62.7177 37.3349 62.7155 37.3073C62.7133 37.2797 62.7166 37.252 62.7252 37.2256C62.7337 37.1993 62.7474 37.175 62.7653 37.1539C62.7833 37.1329 62.8052 37.1156 62.8299 37.103C62.8546 37.0905 62.8814 37.0829 62.909 37.0807C62.9366 37.0786 62.9643 37.0818 62.9907 37.0904C65.5388 37.922 68.2873 40.3599 71.0291 42.7845C71.9542 43.6027 72.876 44.4209 73.7877 45.1723C73.8093 45.1898 73.8272 45.2113 73.8404 45.2358C73.8536 45.2602 73.8618 45.287 73.8646 45.3146C73.8674 45.3423 73.8647 45.3702 73.8567 45.3968C73.8486 45.4233 73.8354 45.4481 73.8177 45.4695C73.7815 45.5119 73.7301 45.5383 73.6745 45.5433C73.619 45.5483 73.5637 45.5314 73.5205 45.4962C72.6054 44.7381 71.677 43.9199 70.752 43.0984C68.0402 40.7005 65.3251 38.296 62.8604 37.4912Z" fill="#7732BC"/>
<path fill-rule="evenodd" clip-rule="evenodd" d="M65.1836 26.4536C66.1153 27.0948 67.6616 26.7876 68.4464 26.4336C68.6168 26.5965 68.8198 26.7216 69.042 26.8004C69.2641 26.8793 69.5005 26.9102 69.7355 26.8911C69.6636 26.9494 69.5807 26.9927 69.4919 27.0185C69.403 27.0443 69.3098 27.0521 69.2179 27.0414C68.8839 27.0414 68.6234 26.9546 68.6167 26.978C68.6101 27.0013 68.777 27.1316 69.0609 27.2351C69.3448 27.3386 69.652 27.3186 69.5785 27.3653C69.3548 27.5056 68.7236 27.4054 68.5065 27.3653C68.4397 27.3653 68.0523 27.2251 68.1525 27.2919L68.7971 27.7193C67.9655 27.6659 65.4073 27.342 65.1836 26.4536Z" fill="#7732BC"/>
<path fill-rule="evenodd" clip-rule="evenodd" d="M70.9136 25.6386C70.8675 25.6119 70.8333 25.5688 70.8178 25.518C70.8022 25.4671 70.8065 25.4122 70.8298 25.3644C70.8531 25.3166 70.8936 25.2794 70.9432 25.2602C70.9928 25.2411 71.0479 25.2414 71.0972 25.2612C72.5767 25.9825 74.2064 27.5488 75.9697 29.2353C79.9372 33.0392 84.586 37.4909 89.3583 33.9676C89.4028 33.9423 89.455 33.934 89.5052 33.9444C89.5553 33.9549 89.6 33.9832 89.6307 34.0242C89.6614 34.0652 89.6762 34.116 89.6721 34.167C89.6681 34.2181 89.6456 34.2659 89.6088 34.3015C84.5492 38.0352 79.7669 33.4499 75.6792 29.5326C73.9426 27.8728 72.3362 26.3332 70.9136 25.6386Z" fill="#7732BC"/>
<path fill-rule="evenodd" clip-rule="evenodd" d="M69.6846 37.4034C69.6633 37.3846 69.646 37.3618 69.6338 37.3362C69.6216 37.3106 69.6147 37.2829 69.6135 37.2545C69.6123 37.2262 69.6168 37.1979 69.6268 37.1714C69.6368 37.1449 69.652 37.1206 69.6716 37.1002C69.6912 37.0797 69.7147 37.0633 69.7408 37.0522C69.7668 37.041 69.7949 37.0352 69.8232 37.0352C69.8516 37.0351 69.8796 37.0408 69.9057 37.0518C69.9318 37.0629 69.9554 37.0791 69.9751 37.0995L70.7733 37.8643C73.2112 40.202 75.8796 42.7568 78.6648 43.8756C78.7162 43.896 78.7574 43.9359 78.7793 43.9866C78.8012 44.0374 78.8021 44.0947 78.7817 44.1461C78.7613 44.1975 78.7214 44.2386 78.6706 44.2606C78.6199 44.2825 78.5626 44.2833 78.5112 44.263C75.6491 43.1175 72.9474 40.5293 70.4961 38.1682L69.6846 37.4034Z" fill="#7732BC"/>
<path fill-rule="evenodd" clip-rule="evenodd" d="M69.0216 24.6891C68.2134 24.4419 66.4634 23.8475 65.2578 25.1399C66.7974 24.5188 67.4486 24.8494 68.5974 25.3637C68.7177 25.4205 68.9147 25.3169 69.0349 25.1333C69.1552 24.9496 69.1418 24.7492 69.0216 24.6891Z" fill="#7732BC"/>
<path fill-rule="evenodd" clip-rule="evenodd" d="M51.7292 16.6038C51.7156 16.6429 51.6944 16.6789 51.6669 16.7097C51.6394 16.7406 51.6061 16.7657 51.5689 16.7837C51.5317 16.8017 51.4913 16.8122 51.45 16.8145C51.4088 16.8169 51.3674 16.8111 51.3284 16.7975C51.2894 16.7839 51.2534 16.7628 51.2225 16.7353C51.1917 16.7078 51.1665 16.6745 51.1486 16.6373C51.1306 16.6001 51.1201 16.5597 51.1177 16.5184C51.1153 16.4771 51.1211 16.4358 51.1347 16.3968C52.783 11.7073 56.1195 7.8003 60.4932 5.43818C64.8668 3.07606 69.9636 2.42835 74.789 3.62146C79.6144 4.81457 83.8221 7.76287 86.591 11.891C89.3598 16.0191 90.4911 21.0309 89.7642 25.9481C89.621 26.9202 89.4056 27.8802 89.1196 28.8202C89.1075 28.8597 89.0878 28.8964 89.0616 28.9282C89.0353 28.9601 89.0031 28.9864 88.9666 29.0058C88.9302 29.0252 88.8903 29.0372 88.8492 29.0412C88.8081 29.0452 88.7667 29.041 88.7272 29.0289C88.6877 29.0169 88.651 28.9971 88.6192 28.9709C88.5873 28.9446 88.5609 28.9124 88.5416 28.8759C88.5222 28.8395 88.5102 28.7996 88.5062 28.7585C88.5022 28.7174 88.5064 28.676 88.5185 28.6365C88.7964 27.7263 89.0051 26.7963 89.143 25.8546C89.2816 24.9091 89.3508 23.9548 89.35 22.9992C89.3285 18.4407 87.6998 14.0358 84.7506 10.5597C81.8015 7.08355 77.7208 4.75898 73.2266 3.99499C68.7325 3.23101 64.1129 4.07657 60.1807 6.38289C56.2486 8.6892 53.2558 12.3085 51.7292 16.6038Z" fill="#7732BC"/>
</g>
<path d="M23.0781 72.9375V72.7188C23.0781 72.6771 23.099 72.6562 23.1406 72.6562H23.3125C23.5312 72.6406 23.7552 72.6328 23.9844 72.6328C24.2135 72.6276 24.4219 72.599 24.6094 72.5469C25.0365 72.4219 25.25 72.1094 25.25 71.6094V63.375C25.25 62.8594 24.9453 62.5312 24.3359 62.3906C24.1641 62.3542 23.9896 62.3229 23.8125 62.2969H23.6484C23.6068 62.2969 23.5859 62.276 23.5859 62.2344V62.0469C23.5859 62.0052 23.6068 61.9844 23.6484 61.9844H31.0781C31.1719 61.9844 31.2396 62.0026 31.2812 62.0391C31.3229 62.0703 31.349 62.1432 31.3594 62.2578L31.5 64.5234C31.5 64.5755 31.4609 64.6016 31.3828 64.6016C31.3047 64.6016 31.2474 64.5781 31.2109 64.5312C31.1797 64.4792 31.138 64.2891 31.0859 63.9609C31.0391 63.6328 30.9505 63.3594 30.8203 63.1406C30.6901 62.9219 30.4609 62.7839 30.1328 62.7266H26.875C26.8073 62.7266 26.7734 62.7604 26.7734 62.8281V66.8672C26.7734 66.9193 26.7995 66.9453 26.8516 66.9453H29.5547C30.2526 66.9453 30.6016 66.5391 30.6016 65.7266C30.6016 65.6849 30.6224 65.6641 30.6641 65.6641H30.8516C30.8932 65.6641 30.9141 65.6849 30.9141 65.7266V69.0703C30.9141 69.112 30.8932 69.1328 30.8516 69.1328H30.6641C30.6224 69.1328 30.6016 69.112 30.6016 69.0703C30.6016 68.2995 30.3776 67.8542 29.9297 67.7344C29.8047 67.7031 29.6719 67.6875 29.5312 67.6875H26.8516C26.7995 67.6875 26.7734 67.7135 26.7734 67.7656V71.5703C26.7734 71.9609 26.9531 72.1823 27.3125 72.2344C27.4167 72.25 27.526 72.2578 27.6406 72.2578H30.2422C30.7786 72.2578 31.1953 72.0208 31.4922 71.5469C31.7057 71.2083 31.8359 70.8203 31.8828 70.3828C31.8984 70.237 31.9766 70.1641 32.1172 70.1641C32.1797 70.1641 32.2109 70.1979 32.2109 70.2656L31.9531 72.8906C31.9219 72.9635 31.8854 73 31.8438 73H23.1406C23.099 73 23.0781 72.9792 23.0781 72.9375ZM36.3281 72.7031C36.5729 72.7344 36.6953 72.7969 36.6953 72.8906C36.6953 72.9531 36.6693 72.9896 36.6172 73H33.1328C33.0807 72.9896 33.0547 72.9531 33.0547 72.8906C33.0547 72.7969 33.1771 72.7344 33.4219 72.7031C33.9844 72.6198 34.2656 72.3229 34.2656 71.8125V62.0703C34.2656 61.8516 34.1458 61.7005 33.9062 61.6172C33.8021 61.5807 33.6901 61.5521 33.5703 61.5312C33.4505 61.5052 33.3542 61.4818 33.2812 61.4609C33.2135 61.4401 33.1693 61.4219 33.1484 61.4062C33.1328 61.3854 33.125 61.3464 33.125 61.2891C33.125 61.2266 33.1641 61.1745 33.2422 61.1328L35.2344 60.1953C35.2969 60.1641 35.3359 60.1484 35.3516 60.1484C35.4401 60.1484 35.4844 60.2109 35.4844 60.3359V71.8125C35.4844 72.3229 35.7656 72.6198 36.3281 72.7031ZM37.5234 73C37.4714 72.9896 37.4453 72.9531 37.4453 72.8906C37.4453 72.7969 37.5677 72.7344 37.8125 72.7031C38.375 72.6198 38.6562 72.3229 38.6562 71.8125V67.6797C38.6562 67.4609 38.5365 67.3099 38.2969 67.2266C38.1927 67.1901 38.0807 67.1615 37.9609 67.1406C37.8411 67.1146 37.7448 67.0911 37.6719 67.0703C37.6042 67.0495 37.5599 67.0312 37.5391 67.0156C37.5234 66.9948 37.5156 66.9557 37.5156 66.8984C37.5156 66.8359 37.5547 66.7839 37.6328 66.7422L39.625 65.8047C39.6875 65.7734 39.7266 65.7578 39.7422 65.7578C39.8307 65.7578 39.875 65.8203 39.875 65.9453V71.8125C39.875 72.3229 40.1562 72.6198 40.7188 72.7031C40.9635 72.7344 41.0859 72.7891 41.0859 72.8672C41.0859 72.9453 41.0599 72.9896 41.0078 73H37.5234ZM39.1484 63.5625C38.9349 63.5625 38.7448 63.4948 38.5781 63.3594C38.4167 63.224 38.3359 63.0365 38.3359 62.7969C38.3359 62.5521 38.4141 62.3594 38.5703 62.2188C38.7266 62.0781 38.9115 62.0078 39.125 62.0078C39.3438 62.0078 39.526 62.0911 39.6719 62.2578C39.8229 62.4245 39.8984 62.6042 39.8984 62.7969C39.8984 62.9896 39.8281 63.1667 39.6875 63.3281C39.5469 63.4844 39.3672 63.5625 39.1484 63.5625ZM43.9219 66.9922C43.8906 66.9922 43.875 67.0156 43.875 67.0625V71.375C43.875 71.6875 43.9427 71.9323 44.0781 72.1094C44.2188 72.2865 44.3958 72.375 44.6094 72.375C44.8229 72.375 45.0078 72.3411 45.1641 72.2734C45.3255 72.2005 45.4635 72.1224 45.5781 72.0391C45.6979 71.9557 45.8047 71.8802 45.8984 71.8125C45.9922 71.7396 46.0755 71.7031 46.1484 71.7031C46.2214 71.7031 46.2578 71.7214 46.2578 71.7578C46.2578 71.8828 46.2448 71.9635 46.2188 72C45.5938 72.8073 44.9896 73.2109 44.4062 73.2109C43.8281 73.2109 43.3906 73.0286 43.0938 72.6641C42.8021 72.2943 42.6562 71.8542 42.6562 71.3438V66.9922H42.0703C41.9245 66.9922 41.8464 66.9453 41.8359 66.8516C41.8307 66.7578 41.8464 66.6979 41.8828 66.6719C42.1589 66.4948 42.5391 66.1771 43.0234 65.7188C43.0755 65.6615 43.1458 65.5755 43.2344 65.4609C43.3229 65.3464 43.4505 65.1901 43.6172 64.9922C43.7891 64.7943 43.9193 64.6953 44.0078 64.6953C44.0964 64.6953 44.1406 64.7318 44.1406 64.8047C44.1406 64.8151 44.0521 65.1562 43.875 65.8281C43.875 65.9219 43.9167 65.9714 44 65.9766H45.9922C46.2214 65.9766 46.3359 66.2995 46.3359 66.9453C46.3359 66.9766 46.3151 66.9922 46.2734 66.9922H43.9219ZM48.3438 68.8828C48.2552 68.8828 48.2109 69.0729 48.2109 69.4531C48.2109 70.2604 48.4505 70.9375 48.9297 71.4844C49.4089 72.0312 50.0026 72.3047 50.7109 72.3047C51.4245 72.3047 52.1094 71.9974 52.7656 71.3828C52.776 71.3724 52.7891 71.3672 52.8047 71.3672H52.8438C52.875 71.3672 52.9036 71.3932 52.9297 71.4453C52.9609 71.4922 52.9896 71.5234 53.0156 71.5391C52.4115 72.2734 51.7005 72.7812 50.8828 73.0625C50.6016 73.1615 50.2839 73.2109 49.9297 73.2109C49.5755 73.2109 49.2161 73.1146 48.8516 72.9219C48.487 72.724 48.1745 72.4661 47.9141 72.1484C47.362 71.487 47.0859 70.6641 47.0859 69.6797C47.0859 68.6901 47.3854 67.7891 47.9844 66.9766C48.5885 66.1641 49.4167 65.7578 50.4688 65.7578C51.224 65.7578 51.8411 66.0964 52.3203 66.7734C52.7995 67.4453 53.0391 68.0365 53.0391 68.5469C53.0391 68.7708 52.9844 68.8828 52.875 68.8828H48.3438ZM48.4297 68.1328C48.4297 68.2318 48.4766 68.2812 48.5703 68.2812H51.5156C51.651 68.2812 51.7188 68.2005 51.7188 68.0391C51.7188 67.6641 51.5495 67.2812 51.2109 66.8906C50.8776 66.4948 50.5104 66.2969 50.1094 66.2969C49.7188 66.2969 49.362 66.474 49.0391 66.8281C48.7214 67.1823 48.5182 67.5859 48.4297 68.0391V68.1328ZM58.8828 73C58.8411 73 58.8203 72.9479 58.8203 72.8438V72.75C58.8203 72.7083 58.8464 72.6875 58.8984 72.6875C58.9505 72.6875 59.026 72.6719 59.125 72.6406C59.2292 72.6094 59.3073 72.5885 59.3594 72.5781C59.8906 72.4583 60.1562 72.1562 60.1562 71.6719V63.4219C60.1562 62.9427 60.0677 62.638 59.8906 62.5078C59.7135 62.3724 59.3932 62.3047 58.9297 62.3047H58.5781C58.4688 62.3047 58.4141 62.2422 58.4141 62.1172C58.4141 62.0443 58.4479 62 58.5156 61.9844H58.5703L62.9531 61.8672H63.7422C64.6745 61.9297 65.4505 62.2656 66.0703 62.875C66.6901 63.4844 67 64.2161 67 65.0703C67 65.9193 66.6953 66.6901 66.0859 67.3828C65.8203 67.6901 65.5208 67.9401 65.1875 68.1328C64.8542 68.3203 64.526 68.4167 64.2031 68.4219L61.8594 68.3281H61.7969C61.7188 68.3281 61.6797 68.3646 61.6797 68.4375V71.6484C61.6797 71.9349 61.7578 72.1458 61.9141 72.2812C62.0703 72.4167 62.401 72.5234 62.9062 72.6016C62.974 72.612 63.0833 72.6302 63.2344 72.6562C63.3854 72.6771 63.487 72.6875 63.5391 72.6875C63.5911 72.6875 63.6172 72.7083 63.6172 72.75V72.9375C63.6172 72.9792 63.5964 73 63.5547 73H58.8828ZM62.3125 62.2656C62.25 62.2656 62.1823 62.2682 62.1094 62.2734C62.0417 62.2734 61.9531 62.276 61.8438 62.2812C61.7344 62.2812 61.6797 62.3229 61.6797 62.4062V67.4453L61.6953 67.6797C61.7109 67.7891 61.7604 67.8464 61.8438 67.8516L62.6406 67.8984C63.4792 67.8984 64.1536 67.6172 64.6641 67.0547C65.1797 66.4922 65.4375 65.7865 65.4375 64.9375C65.4375 64.0833 65.1875 63.4219 64.6875 62.9531C64.1927 62.4844 63.5312 62.25 62.7031 62.25C62.6302 62.25 62.5625 62.2526 62.5 62.2578C62.4375 62.2578 62.375 62.2604 62.3125 62.2656ZM71 72.7031C71.2448 72.7344 71.3672 72.7969 71.3672 72.8906C71.3672 72.9531 71.3411 72.9896 71.2891 73H67.8047C67.7526 72.9896 67.7266 72.9531 67.7266 72.8906C67.7266 72.7969 67.849 72.7344 68.0938 72.7031C68.6562 72.6198 68.9375 72.3229 68.9375 71.8125V62.0703C68.9375 61.8516 68.8177 61.7005 68.5781 61.6172C68.474 61.5807 68.362 61.5521 68.2422 61.5312C68.1224 61.5052 68.026 61.4818 67.9531 61.4609C67.8854 61.4401 67.8411 61.4219 67.8203 61.4062C67.8047 61.3854 67.7969 61.3464 67.7969 61.2891C67.7969 61.2266 67.8359 61.1745 67.9141 61.1328L69.9062 60.1953C69.9688 60.1641 70.0078 60.1484 70.0234 60.1484C70.112 60.1484 70.1562 60.2109 70.1562 60.3359V71.8125C70.1562 72.3229 70.4375 72.6198 71 72.7031ZM77.0234 71.7109C77.0234 71.8464 77.0859 71.9557 77.2109 72.0391C77.3411 72.1172 77.4896 72.1562 77.6562 72.1562C77.8229 72.1562 77.9609 72.1146 78.0703 72.0312C78.1849 71.9427 78.263 71.8984 78.3047 71.8984C78.3464 71.8984 78.3672 71.9557 78.3672 72.0703C78.3672 72.1797 78.3151 72.2734 78.2109 72.3516C77.4297 72.9245 76.901 73.2109 76.625 73.2109C76.2917 73.2109 76.0208 72.8646 75.8125 72.1719C75.7969 72.1198 75.7839 72.0964 75.7734 72.1016C75.1276 72.5859 74.7214 72.8776 74.5547 72.9766C74.1276 73.2214 73.6979 73.2604 73.2656 73.0938C72.8385 72.9271 72.5286 72.651 72.3359 72.2656C72.2422 72.0677 72.1953 71.8568 72.1953 71.6328C72.1953 71.1901 72.3594 70.8385 72.6875 70.5781C73.0156 70.3177 73.6406 70.0677 74.5625 69.8281C74.875 69.7448 75.1536 69.638 75.3984 69.5078C75.6432 69.3776 75.7708 69.2943 75.7812 69.2578C75.7969 69.2214 75.8047 69.1875 75.8047 69.1562V67.6562C75.8047 67.0677 75.5755 66.6536 75.1172 66.4141C74.9661 66.3359 74.7839 66.2969 74.5703 66.2969C74.362 66.2969 74.1484 66.3802 73.9297 66.5469C73.7161 66.7135 73.6094 66.9505 73.6094 67.2578L73.6484 67.5625C73.6172 67.625 73.4297 67.7292 73.0859 67.875C72.7422 68.0208 72.5443 68.099 72.4922 68.1094C72.4089 68.1094 72.3672 68.0104 72.3672 67.8125C72.3672 67.6094 72.4271 67.3854 72.5469 67.1406C72.6667 66.8958 72.8359 66.6719 73.0547 66.4688C73.5651 65.9948 74.1484 65.7578 74.8047 65.7578C75.4609 65.7578 75.9948 65.9401 76.4062 66.3047C76.8177 66.6641 77.0234 67.0938 77.0234 67.5938V71.7109ZM73.4219 71.4844C73.4219 71.7344 73.5182 71.9531 73.7109 72.1406C73.9036 72.3229 74.1224 72.4141 74.3672 72.4141C74.6172 72.4141 74.9193 72.3099 75.2734 72.1016C75.6276 71.888 75.8047 71.6693 75.8047 71.4453V69.8594C75.8047 69.8021 75.7917 69.7734 75.7656 69.7734C75.7396 69.7734 75.7214 69.776 75.7109 69.7812L73.8984 70.625C73.7109 70.7604 73.5833 70.875 73.5156 70.9688C73.4531 71.0625 73.4219 71.2344 73.4219 71.4844ZM82.9062 67.6562C82.9062 67.7708 82.862 67.8281 82.7734 67.8281C82.6901 67.8281 82.625 67.7656 82.5781 67.6406C82.4531 67.2969 82.2656 66.9922 82.0156 66.7266C81.7708 66.4609 81.4661 66.3281 81.1016 66.3281C80.6224 66.3281 80.2995 66.5677 80.1328 67.0469C80.0807 67.2083 80.0547 67.375 80.0547 67.5469C80.0547 67.7188 80.1641 67.9115 80.3828 68.125C80.6016 68.3333 80.9609 68.5833 81.4609 68.875C81.9609 69.1667 82.3255 69.4141 82.5547 69.6172C83.0755 70.0807 83.3359 70.6172 83.3359 71.2266C83.3359 71.8359 83.112 72.3203 82.6641 72.6797C82.2161 73.0339 81.6953 73.2109 81.1016 73.2109C80.7839 73.2109 80.4948 73.1667 80.2344 73.0781C79.9792 72.9948 79.8307 72.9531 79.7891 72.9531C79.7526 72.9531 79.6901 72.9948 79.6016 73.0781C79.5182 73.1667 79.4505 73.2109 79.3984 73.2109H79.2656C79.2344 73.2109 79.1953 72.9297 79.1484 72.3672C79.1016 71.8047 79.0781 71.4714 79.0781 71.3672C79.0781 71.263 79.0859 71.2057 79.1016 71.1953C79.1224 71.1849 79.1536 71.1797 79.1953 71.1797C79.237 71.1797 79.2708 71.1927 79.2969 71.2188C79.3281 71.2448 79.3542 71.2786 79.375 71.3203C79.3958 71.3568 79.4115 71.3958 79.4219 71.4375C79.4375 71.4792 79.4714 71.5573 79.5234 71.6719C79.8776 72.4271 80.4245 72.8047 81.1641 72.8047C81.4922 72.8047 81.7552 72.6849 81.9531 72.4453C82.151 72.2005 82.25 71.9297 82.25 71.6328C82.25 71.3359 82.1719 71.0859 82.0156 70.8828C81.8594 70.6797 81.6641 70.4948 81.4297 70.3281C81.2005 70.1615 80.9505 70 80.6797 69.8438C79.6276 69.2292 79.1016 68.5495 79.1016 67.8047C79.1016 67.2474 79.3411 66.7682 79.8203 66.3672C80.2995 65.9609 80.7917 65.7578 81.2969 65.7578C81.8021 65.7578 82.1745 65.8125 82.4141 65.9219C82.6589 66.0312 82.8021 66.125 82.8438 66.2031C82.8854 66.276 82.9062 66.5208 82.9062 66.9375V67.6562ZM86.375 66.9922C86.3438 66.9922 86.3281 67.0156 86.3281 67.0625V71.375C86.3281 71.6875 86.3958 71.9323 86.5312 72.1094C86.6719 72.2865 86.849 72.375 87.0625 72.375C87.276 72.375 87.4609 72.3411 87.6172 72.2734C87.7786 72.2005 87.9167 72.1224 88.0312 72.0391C88.151 71.9557 88.2578 71.8802 88.3516 71.8125C88.4453 71.7396 88.5286 71.7031 88.6016 71.7031C88.6745 71.7031 88.7109 71.7214 88.7109 71.7578C88.7109 71.8828 88.6979 71.9635 88.6719 72C88.0469 72.8073 87.4427 73.2109 86.8594 73.2109C86.2812 73.2109 85.8438 73.0286 85.5469 72.6641C85.2552 72.2943 85.1094 71.8542 85.1094 71.3438V66.9922H84.5234C84.3776 66.9922 84.2995 66.9453 84.2891 66.8516C84.2839 66.7578 84.2995 66.6979 84.3359 66.6719C84.612 66.4948 84.9922 66.1771 85.4766 65.7188C85.5286 65.6615 85.599 65.5755 85.6875 65.4609C85.776 65.3464 85.9036 65.1901 86.0703 64.9922C86.2422 64.7943 86.3724 64.6953 86.4609 64.6953C86.5495 64.6953 86.5938 64.7318 86.5938 64.8047C86.5938 64.8151 86.5052 65.1562 86.3281 65.8281C86.3281 65.9219 86.3698 65.9714 86.4531 65.9766H88.4453C88.6745 65.9766 88.7891 66.2995 88.7891 66.9453C88.7891 66.9766 88.7682 66.9922 88.7266 66.9922H86.375ZM89.5391 73C89.487 72.9896 89.4609 72.9531 89.4609 72.8906C89.4609 72.7969 89.5833 72.7344 89.8281 72.7031C90.3906 72.6198 90.6719 72.3229 90.6719 71.8125V67.6797C90.6719 67.4609 90.5521 67.3099 90.3125 67.2266C90.2083 67.1901 90.0964 67.1615 89.9766 67.1406C89.8568 67.1146 89.7604 67.0911 89.6875 67.0703C89.6198 67.0495 89.5755 67.0312 89.5547 67.0156C89.5391 66.9948 89.5312 66.9557 89.5312 66.8984C89.5312 66.8359 89.5703 66.7839 89.6484 66.7422L91.6406 65.8047C91.7031 65.7734 91.7422 65.7578 91.7578 65.7578C91.8464 65.7578 91.8906 65.8203 91.8906 65.9453V71.8125C91.8906 72.3229 92.1719 72.6198 92.7344 72.7031C92.9792 72.7344 93.1016 72.7891 93.1016 72.8672C93.1016 72.9453 93.0755 72.9896 93.0234 73H89.5391ZM91.1641 63.5625C90.9505 63.5625 90.7604 63.4948 90.5938 63.3594C90.4323 63.224 90.3516 63.0365 90.3516 62.7969C90.3516 62.5521 90.4297 62.3594 90.5859 62.2188C90.7422 62.0781 90.9271 62.0078 91.1406 62.0078C91.3594 62.0078 91.5417 62.0911 91.6875 62.2578C91.8385 62.4245 91.9141 62.6042 91.9141 62.7969C91.9141 62.9896 91.8438 63.1667 91.7031 63.3281C91.5625 63.4844 91.3828 63.5625 91.1641 63.5625ZM100.172 66.6953C100.172 67.0599 99.9609 67.2422 99.5391 67.2422C99.3255 67.2422 99.1432 67.1823 98.9922 67.0625C98.8464 66.9375 98.7318 66.8333 98.6484 66.75C98.5703 66.6615 98.487 66.5807 98.3984 66.5078C98.0234 66.2005 97.5651 66.1667 97.0234 66.4062C96.487 66.6458 96.0729 67.1562 95.7812 67.9375C95.6198 68.3698 95.5391 68.7995 95.5391 69.2266C95.5391 70.1432 95.7474 70.8932 96.1641 71.4766C96.5807 72.0547 97.2188 72.3438 98.0781 72.3438C98.7188 72.3438 99.2943 72.0573 99.8047 71.4844C99.9609 71.3125 100.055 71.2266 100.086 71.2266C100.117 71.2266 100.151 71.2422 100.188 71.2734C100.224 71.3047 100.242 71.3516 100.242 71.4141C100.242 71.4714 100.227 71.5156 100.195 71.5469C99.3984 72.6562 98.3958 73.2109 97.1875 73.2109C96.3125 73.2109 95.5938 72.8854 95.0312 72.2344C94.474 71.5833 94.1953 70.8385 94.1953 70C94.2005 68.4479 94.5755 67.3307 95.3203 66.6484C95.9766 66.0495 96.9115 65.75 98.125 65.75C98.875 65.75 99.3724 65.8255 99.6172 65.9766C99.862 66.1276 100.034 66.3177 100.133 66.5469C100.159 66.599 100.172 66.6484 100.172 66.6953ZM116 72.25C116.042 72.25 116.062 72.2995 116.062 72.3984C116.062 72.4922 116.047 72.5443 116.016 72.5547C115.307 73.013 114.698 73.2422 114.188 73.2422C113.682 73.2422 113.247 73.0052 112.883 72.5312C112.706 72.3125 112.534 72.0703 112.367 71.8047C112.201 71.5391 112.06 71.3359 111.945 71.1953C110.482 72.5391 109.182 73.2109 108.047 73.2109C107.292 73.2109 106.638 72.901 106.086 72.2812C105.539 71.6562 105.266 70.9531 105.266 70.1719C105.266 69.0781 105.862 68.1953 107.055 67.5234C107.414 67.3203 107.802 67.1354 108.219 66.9688C107.625 66.3906 107.258 65.8542 107.117 65.3594C107.065 65.1615 107.039 64.9219 107.039 64.6406C107.039 64.0781 107.273 63.625 107.742 63.2812C108.211 62.9323 108.742 62.7578 109.336 62.7578C109.93 62.7578 110.445 62.9323 110.883 63.2812C111.326 63.625 111.547 64.0807 111.547 64.6484C111.547 65.3203 111.055 65.9557 110.07 66.5547C109.956 66.6224 109.893 66.6615 109.883 66.6719C109.872 66.6823 109.867 66.7057 109.867 66.7422C109.867 66.7734 109.896 66.8177 109.953 66.875C110.016 66.9271 110.083 66.987 110.156 67.0547C110.234 67.1224 110.346 67.224 110.492 67.3594C110.643 67.4948 110.792 67.6224 110.938 67.7422C111.083 67.862 111.38 68.2057 111.828 68.7734C112.276 69.3411 112.513 69.625 112.539 69.625C112.596 69.625 112.635 69.6042 112.656 69.5625L114.445 66.8594C114.576 66.6615 114.641 66.4922 114.641 66.3516C114.641 66.2109 114.596 66.1146 114.508 66.0625C114.419 66.0052 114.32 65.9661 114.211 65.9453C114.107 65.9193 114.01 65.8958 113.922 65.875C113.833 65.849 113.789 65.7917 113.789 65.7031C113.789 65.6094 113.815 65.5625 113.867 65.5625H116.734C116.755 65.599 116.766 65.6562 116.766 65.7344C116.766 65.8073 116.753 65.8542 116.727 65.875C116.695 65.8958 116.523 65.9219 116.211 65.9531C115.701 66 115.346 66.1797 115.148 66.4922L112.844 70.1406L113.82 71.8203C114.112 72.3307 114.469 72.5859 114.891 72.5859C115.115 72.5859 115.336 72.5365 115.555 72.4375C115.773 72.3385 115.922 72.276 116 72.25ZM108.711 72.2812C109.232 72.2812 109.719 72.1589 110.172 71.9141C110.625 71.6641 111.078 71.349 111.531 70.9688C111.62 70.8854 111.661 70.8203 111.656 70.7734C111.656 70.7266 111.656 70.6979 111.656 70.6875C111.651 70.6771 111.648 70.6641 111.648 70.6484C110.945 69.4401 110.081 68.4245 109.055 67.6016C108.997 67.5547 108.93 67.4974 108.852 67.4297C108.773 67.362 108.698 67.3281 108.625 67.3281C108.531 67.3281 108.38 67.3906 108.172 67.5156C107.729 67.776 107.367 68.1432 107.086 68.6172C106.81 69.0911 106.672 69.526 106.672 69.9219C106.672 70.6094 106.883 71.1745 107.305 71.6172C107.727 72.0599 108.195 72.2812 108.711 72.2812ZM110.508 64.6797C110.508 63.7109 110.099 63.2266 109.281 63.2266C108.755 63.2266 108.414 63.4635 108.258 63.9375C108.211 64.0833 108.188 64.2969 108.188 64.5781C108.188 64.8542 108.294 65.1667 108.508 65.5156C108.721 65.8646 109.01 66.151 109.375 66.375C109.698 66.3177 109.966 66.1068 110.18 65.7422C110.398 65.3776 110.508 65.0234 110.508 64.6797ZM19.8203 94.7031C19.7943 94.7448 19.7292 94.7552 19.625 94.7344C19.526 94.7083 19.4089 94.6953 19.2734 94.6953C19.138 94.6953 18.9453 94.724 18.6953 94.7812C18.4505 94.8333 18.0625 94.9167 17.5312 95.0312C17 95.151 16.5156 95.2109 16.0781 95.2109C15.0885 95.2109 14.1276 94.9792 13.1953 94.5156C12.2682 94.0469 11.526 93.3854 10.9688 92.5312C10.4115 91.6719 10.1328 90.6771 10.1328 89.5469C10.1328 88.4167 10.4115 87.3932 10.9688 86.4766C11.7812 85.1328 13.0052 84.2578 14.6406 83.8516C15.1615 83.7214 15.6823 83.6562 16.2031 83.6562C16.9167 83.6562 17.763 83.776 18.7422 84.0156C19.0391 84.0885 19.2891 84.1641 19.4922 84.2422C19.7005 84.3203 19.8281 84.3594 19.875 84.3594L20.1094 84.2969H20.3516C20.4141 84.2969 20.4453 84.3411 20.4453 84.4297V86.8594C20.4453 86.9115 20.3984 86.9375 20.3047 86.9375C20.2109 86.9375 20.1562 86.9271 20.1406 86.9062C20.125 86.8802 20.1094 86.8516 20.0938 86.8203C20.0781 86.7839 20.0599 86.7474 20.0391 86.7109C20.0234 86.6745 20.0052 86.6406 19.9844 86.6094C19.9688 86.5781 19.9583 86.5547 19.9531 86.5391C19.1719 84.9714 17.987 84.1875 16.3984 84.1875C14.9661 84.1875 13.8464 84.6432 13.0391 85.5547C12.2318 86.4661 11.8281 87.6745 11.8281 89.1797C11.8281 90.6797 12.2708 91.9688 13.1562 93.0469C14.0469 94.125 15.2552 94.6641 16.7812 94.6641C17.6146 94.6641 18.3724 94.4167 19.0547 93.9219C19.7422 93.4271 20.2812 92.8203 20.6719 92.1016C20.6823 92.0703 20.7135 92.0547 20.7656 92.0547H20.8672C20.9193 92.0547 20.9453 92.0859 20.9453 92.1484C20.9453 92.2109 20.9297 92.2708 20.8984 92.3281L19.8203 94.7031ZM22.1328 91.4922C22.1328 90.4661 22.4948 89.5859 23.2188 88.8516C23.9479 88.112 24.8203 87.7422 25.8359 87.7422C26.8516 87.7422 27.7344 88.1016 28.4844 88.8203C29.2344 89.5339 29.6094 90.4167 29.6094 91.4688C29.6094 92.5208 29.2526 93.4089 28.5391 94.1328C27.8307 94.8516 26.9401 95.2109 25.8672 95.2109C24.7943 95.2109 23.9036 94.8464 23.1953 94.1172C22.487 93.388 22.1328 92.513 22.1328 91.4922ZM24.0781 93.5C24.5885 94.3594 25.2839 94.7891 26.1641 94.7891C26.8464 94.7891 27.3672 94.5156 27.7266 93.9688C28.0911 93.4219 28.2734 92.75 28.2734 91.9531C28.2734 91.1562 28.0182 90.3385 27.5078 89.5C27.0026 88.6615 26.3203 88.2422 25.4609 88.2422C24.8307 88.2422 24.3333 88.5156 23.9688 89.0625C23.6094 89.6042 23.4297 90.2943 23.4297 91.1328C23.4297 91.9661 23.6458 92.7552 24.0781 93.5ZM34.5391 89.6562C34.5391 89.7708 34.4948 89.8281 34.4062 89.8281C34.3229 89.8281 34.2578 89.7656 34.2109 89.6406C34.0859 89.2969 33.8984 88.9922 33.6484 88.7266C33.4036 88.4609 33.099 88.3281 32.7344 88.3281C32.2552 88.3281 31.9323 88.5677 31.7656 89.0469C31.7135 89.2083 31.6875 89.375 31.6875 89.5469C31.6875 89.7188 31.7969 89.9115 32.0156 90.125C32.2344 90.3333 32.5938 90.5833 33.0938 90.875C33.5938 91.1667 33.9583 91.4141 34.1875 91.6172C34.7083 92.0807 34.9688 92.6172 34.9688 93.2266C34.9688 93.8359 34.7448 94.3203 34.2969 94.6797C33.849 95.0339 33.3281 95.2109 32.7344 95.2109C32.4167 95.2109 32.1276 95.1667 31.8672 95.0781C31.612 94.9948 31.4635 94.9531 31.4219 94.9531C31.3854 94.9531 31.3229 94.9948 31.2344 95.0781C31.151 95.1667 31.0833 95.2109 31.0312 95.2109H30.8984C30.8672 95.2109 30.8281 94.9297 30.7812 94.3672C30.7344 93.8047 30.7109 93.4714 30.7109 93.3672C30.7109 93.263 30.7188 93.2057 30.7344 93.1953C30.7552 93.1849 30.7865 93.1797 30.8281 93.1797C30.8698 93.1797 30.9036 93.1927 30.9297 93.2188C30.9609 93.2448 30.987 93.2786 31.0078 93.3203C31.0286 93.3568 31.0443 93.3958 31.0547 93.4375C31.0703 93.4792 31.1042 93.5573 31.1562 93.6719C31.5104 94.4271 32.0573 94.8047 32.7969 94.8047C33.125 94.8047 33.388 94.6849 33.5859 94.4453C33.7839 94.2005 33.8828 93.9297 33.8828 93.6328C33.8828 93.3359 33.8047 93.0859 33.6484 92.8828C33.4922 92.6797 33.2969 92.4948 33.0625 92.3281C32.8333 92.1615 32.5833 92 32.3125 91.8438C31.2604 91.2292 30.7344 90.5495 30.7344 89.8047C30.7344 89.2474 30.974 88.7682 31.4531 88.3672C31.9323 87.9609 32.4245 87.7578 32.9297 87.7578C33.4349 87.7578 33.8073 87.8125 34.0469 87.9219C34.2917 88.0312 34.4349 88.125 34.4766 88.2031C34.5182 88.276 34.5391 88.5208 34.5391 88.9375V89.6562ZM46.4062 92.5391L46.3906 90.8906C46.3906 90.2188 46.3333 89.7474 46.2188 89.4766C46.1042 89.2057 45.9583 89.0026 45.7812 88.8672C45.6042 88.7266 45.3646 88.6562 45.0625 88.6562C44.7656 88.6562 44.1328 88.8906 43.1641 89.3594C43.0339 89.4375 42.9661 89.5104 42.9609 89.5781V93.7812C42.9609 94.3073 43.2422 94.6094 43.8047 94.6875C44.0495 94.724 44.1719 94.7839 44.1719 94.8672C44.1719 94.9453 44.1458 94.9896 44.0938 95H40.6094C40.5573 94.9896 40.5312 94.9531 40.5312 94.8906C40.5312 94.7917 40.6536 94.724 40.8984 94.6875C41.4609 94.6094 41.7422 94.3073 41.7422 93.7812V89.8906C41.7422 89.0729 41.237 88.6641 40.2266 88.6641C39.8568 88.6641 39.3438 88.8828 38.6875 89.3203C38.5208 89.4297 38.3984 89.5312 38.3203 89.625V93.7812C38.3203 94.3073 38.6016 94.6094 39.1641 94.6875C39.4089 94.724 39.5312 94.7839 39.5312 94.8672C39.5312 94.9453 39.5052 94.9896 39.4531 95H35.9688C35.9167 94.9896 35.8906 94.9531 35.8906 94.8906C35.8906 94.7917 36.013 94.724 36.2578 94.6875C36.8203 94.6094 37.1016 94.3125 37.1016 93.7969V89.2969C37.1016 89.0781 36.9818 88.9271 36.7422 88.8438C36.638 88.8073 36.526 88.7786 36.4062 88.7578C36.2865 88.7318 36.1901 88.7083 36.1172 88.6875C36.0495 88.6667 36.0052 88.6484 35.9844 88.6328C35.9688 88.612 35.9609 88.5729 35.9609 88.5156C35.9609 88.4531 36 88.401 36.0781 88.3594L38.0703 87.4219C38.1328 87.3906 38.1719 87.375 38.1875 87.375C38.276 87.375 38.3203 87.4375 38.3203 87.5625V88.8594C38.3255 88.8906 38.3438 88.9062 38.375 88.9062C38.4115 88.9062 38.4974 88.8698 38.6328 88.7969C38.7734 88.724 38.9557 88.6224 39.1797 88.4922C39.4036 88.3568 39.6979 88.2005 40.0625 88.0234C40.4323 87.8464 40.8229 87.7578 41.2344 87.7578C41.8958 87.7578 42.3698 88.0417 42.6562 88.6094C42.7656 88.8385 42.8646 88.9375 42.9531 88.9062C43.0417 88.8698 43.1797 88.8047 43.3672 88.7109C43.8099 88.4922 44.2578 88.2786 44.7109 88.0703C45.1641 87.862 45.5391 87.7578 45.8359 87.7578C47.0391 87.7578 47.6406 88.8542 47.6406 91.0469L47.5703 93.3281V93.7812C47.5703 94.1875 47.7734 94.4531 48.1797 94.5781C48.3516 94.6354 48.5156 94.6771 48.6719 94.7031C48.8333 94.724 48.9375 94.7448 48.9844 94.7656C49.0365 94.7865 49.0625 94.8281 49.0625 94.8906C49.0625 94.9531 49.0365 94.9896 48.9844 95H45.2188C45.1667 94.9896 45.1406 94.9531 45.1406 94.8906C45.1406 94.7917 45.263 94.724 45.5078 94.6875C46.0651 94.6094 46.3438 94.2865 46.3438 93.7188C46.3854 93.4583 46.4062 93.0651 46.4062 92.5391ZM50.8984 90.8828C50.8099 90.8828 50.7656 91.0729 50.7656 91.4531C50.7656 92.2604 51.0052 92.9375 51.4844 93.4844C51.9635 94.0312 52.5573 94.3047 53.2656 94.3047C53.9792 94.3047 54.6641 93.9974 55.3203 93.3828C55.3307 93.3724 55.3438 93.3672 55.3594 93.3672H55.3984C55.4297 93.3672 55.4583 93.3932 55.4844 93.4453C55.5156 93.4922 55.5443 93.5234 55.5703 93.5391C54.9661 94.2734 54.2552 94.7812 53.4375 95.0625C53.1562 95.1615 52.8385 95.2109 52.4844 95.2109C52.1302 95.2109 51.7708 95.1146 51.4062 94.9219C51.0417 94.724 50.7292 94.4661 50.4688 94.1484C49.9167 93.487 49.6406 92.6641 49.6406 91.6797C49.6406 90.6901 49.9401 89.7891 50.5391 88.9766C51.1432 88.1641 51.9714 87.7578 53.0234 87.7578C53.7786 87.7578 54.3958 88.0964 54.875 88.7734C55.3542 89.4453 55.5938 90.0365 55.5938 90.5469C55.5938 90.7708 55.5391 90.8828 55.4297 90.8828H50.8984ZM50.9844 90.1328C50.9844 90.2318 51.0312 90.2812 51.125 90.2812H54.0703C54.2057 90.2812 54.2734 90.2005 54.2734 90.0391C54.2734 89.6641 54.1042 89.2812 53.7656 88.8906C53.4323 88.4948 53.0651 88.2969 52.6641 88.2969C52.2734 88.2969 51.9167 88.474 51.5938 88.8281C51.276 89.1823 51.0729 89.5859 50.9844 90.0391V90.1328ZM58.8047 88.9922C58.7734 88.9922 58.7578 89.0156 58.7578 89.0625V93.375C58.7578 93.6875 58.8255 93.9323 58.9609 94.1094C59.1016 94.2865 59.2786 94.375 59.4922 94.375C59.7057 94.375 59.8906 94.3411 60.0469 94.2734C60.2083 94.2005 60.3464 94.1224 60.4609 94.0391C60.5807 93.9557 60.6875 93.8802 60.7812 93.8125C60.875 93.7396 60.9583 93.7031 61.0312 93.7031C61.1042 93.7031 61.1406 93.7214 61.1406 93.7578C61.1406 93.8828 61.1276 93.9635 61.1016 94C60.4766 94.8073 59.8724 95.2109 59.2891 95.2109C58.7109 95.2109 58.2734 95.0286 57.9766 94.6641C57.6849 94.2943 57.5391 93.8542 57.5391 93.3438V88.9922H56.9531C56.8073 88.9922 56.7292 88.9453 56.7188 88.8516C56.7135 88.7578 56.7292 88.6979 56.7656 88.6719C57.0417 88.4948 57.4219 88.1771 57.9062 87.7188C57.9583 87.6615 58.0286 87.5755 58.1172 87.4609C58.2057 87.3464 58.3333 87.1901 58.5 86.9922C58.6719 86.7943 58.8021 86.6953 58.8906 86.6953C58.9792 86.6953 59.0234 86.7318 59.0234 86.8047C59.0234 86.8151 58.9349 87.1562 58.7578 87.8281C58.7578 87.9219 58.7995 87.9714 58.8828 87.9766H60.875C61.1042 87.9766 61.2188 88.2995 61.2188 88.9453C61.2188 88.9766 61.1979 88.9922 61.1562 88.9922H58.8047ZM61.9688 95C61.9167 94.9896 61.8906 94.9531 61.8906 94.8906C61.8906 94.7969 62.013 94.7344 62.2578 94.7031C62.8203 94.6198 63.1016 94.3229 63.1016 93.8125V89.6797C63.1016 89.4609 62.9818 89.3099 62.7422 89.2266C62.638 89.1901 62.526 89.1615 62.4062 89.1406C62.2865 89.1146 62.1901 89.0911 62.1172 89.0703C62.0495 89.0495 62.0052 89.0312 61.9844 89.0156C61.9688 88.9948 61.9609 88.9557 61.9609 88.8984C61.9609 88.8359 62 88.7839 62.0781 88.7422L64.0703 87.8047C64.1328 87.7734 64.1719 87.7578 64.1875 87.7578C64.276 87.7578 64.3203 87.8203 64.3203 87.9453V93.8125C64.3203 94.3229 64.6016 94.6198 65.1641 94.7031C65.4089 94.7344 65.5312 94.7891 65.5312 94.8672C65.5312 94.9453 65.5052 94.9896 65.4531 95H61.9688ZM63.5938 85.5625C63.3802 85.5625 63.1901 85.4948 63.0234 85.3594C62.862 85.224 62.7812 85.0365 62.7812 84.7969C62.7812 84.5521 62.8594 84.3594 63.0156 84.2188C63.1719 84.0781 63.3568 84.0078 63.5703 84.0078C63.7891 84.0078 63.9714 84.0911 64.1172 84.2578C64.2682 84.4245 64.3438 84.6042 64.3438 84.7969C64.3438 84.9896 64.2734 85.1667 64.1328 85.3281C63.9922 85.4844 63.8125 85.5625 63.5938 85.5625ZM72.6016 88.6953C72.6016 89.0599 72.3906 89.2422 71.9688 89.2422C71.7552 89.2422 71.5729 89.1823 71.4219 89.0625C71.276 88.9375 71.1615 88.8333 71.0781 88.75C71 88.6615 70.9167 88.5807 70.8281 88.5078C70.4531 88.2005 69.9948 88.1667 69.4531 88.4062C68.9167 88.6458 68.5026 89.1562 68.2109 89.9375C68.0495 90.3698 67.9688 90.7995 67.9688 91.2266C67.9688 92.1432 68.1771 92.8932 68.5938 93.4766C69.0104 94.0547 69.6484 94.3438 70.5078 94.3438C71.1484 94.3438 71.724 94.0573 72.2344 93.4844C72.3906 93.3125 72.4844 93.2266 72.5156 93.2266C72.5469 93.2266 72.5807 93.2422 72.6172 93.2734C72.6536 93.3047 72.6719 93.3516 72.6719 93.4141C72.6719 93.4714 72.6562 93.5156 72.625 93.5469C71.8281 94.6562 70.8255 95.2109 69.6172 95.2109C68.7422 95.2109 68.0234 94.8854 67.4609 94.2344C66.9036 93.5833 66.625 92.8385 66.625 92C66.6302 90.4479 67.0052 89.3307 67.75 88.6484C68.4062 88.0495 69.3411 87.75 70.5547 87.75C71.3047 87.75 71.8021 87.8255 72.0469 87.9766C72.2917 88.1276 72.4635 88.3177 72.5625 88.5469C72.5885 88.599 72.6016 88.6484 72.6016 88.6953ZM84.1094 84.0781C84.1615 84.0781 84.1875 84.1354 84.1875 84.25L84.3906 85.9141C84.4115 86.0182 84.4219 86.0859 84.4219 86.1172C84.4219 86.1432 84.3802 86.1562 84.2969 86.1562C84.2188 86.1562 84.1693 86.1458 84.1484 86.125C84.1276 86.1042 84.1068 86.0703 84.0859 86.0234C84.0651 85.9714 84.0391 85.9141 84.0078 85.8516C83.9818 85.7891 83.9531 85.7266 83.9219 85.6641C83.8125 85.4245 83.6406 85.1875 83.4062 84.9531C82.8333 84.401 82.1875 84.125 81.4688 84.125C81.0365 84.125 80.6276 84.2656 80.2422 84.5469C79.8568 84.8281 79.6641 85.1615 79.6641 85.5469C79.6641 85.9271 79.7344 86.2578 79.875 86.5391C80.0208 86.8203 80.2109 87.0807 80.4453 87.3203C80.6797 87.5599 80.9479 87.7891 81.25 88.0078C81.5521 88.2266 81.8594 88.4479 82.1719 88.6719C83 89.25 83.5885 89.7448 83.9375 90.1562C84.4844 90.7917 84.7812 91.5052 84.8281 92.2969C84.8281 93.1823 84.487 93.8906 83.8047 94.4219C83.1276 94.9479 82.3385 95.2109 81.4375 95.2109C80.8594 95.2109 80.3984 95.151 80.0547 95.0312C79.7161 94.9167 79.4818 94.8333 79.3516 94.7812C79.2214 94.7292 79.125 94.7031 79.0625 94.7031C79.0052 94.7031 78.9688 94.7057 78.9531 94.7109L78.5703 94.7891C78.5026 94.7891 78.4609 94.7344 78.4453 94.625C78.2943 93.3333 78.2188 92.6484 78.2188 92.5703C78.2188 92.487 78.224 92.4323 78.2344 92.4062C78.25 92.375 78.2865 92.3594 78.3438 92.3594C78.4896 92.3594 78.6224 92.5677 78.7422 92.9844C79.2891 94.1562 80.1979 94.7422 81.4688 94.7422C82.0521 94.7422 82.5495 94.5651 82.9609 94.2109C83.3776 93.8568 83.5859 93.3958 83.5859 92.8281C83.5859 91.9219 83.0443 91.0781 81.9609 90.2969C81.6536 90.0781 81.2109 89.7734 80.6328 89.3828C80.0547 88.9922 79.5938 88.6016 79.25 88.2109C78.7135 87.6068 78.4453 86.9349 78.4453 86.1953C78.4453 85.4505 78.7396 84.8411 79.3281 84.3672C79.9219 83.8932 80.6016 83.6562 81.3672 83.6562C81.763 83.6562 82.1979 83.724 82.6719 83.8594C83.151 83.9948 83.4844 84.0859 83.6719 84.1328L84.1094 84.0781ZM91.4219 94.3125C91.3958 94.224 91.362 94.1953 91.3203 94.2266C91.2786 94.2526 91.1094 94.3411 90.8125 94.4922C89.8385 94.9766 89.026 95.2188 88.375 95.2188C87.724 95.2188 87.2552 95.0104 86.9688 94.5938C86.8646 94.4375 86.8125 94.2448 86.8125 94.0156V89.25C86.7969 89.099 86.7292 88.9688 86.6094 88.8594C86.4479 88.724 86.2786 88.651 86.1016 88.6406C85.9297 88.6302 85.8438 88.5781 85.8438 88.4844C85.8438 88.3854 85.8854 88.3255 85.9688 88.3047L87.7578 87.7891C87.8203 87.7682 87.8802 87.7578 87.9375 87.7578C88 87.7578 88.0312 87.8021 88.0312 87.8906V93.1328C88.0312 93.4974 88.1927 93.7786 88.5156 93.9766C88.8385 94.1745 89.25 94.2734 89.75 94.2734C90.2552 94.2734 90.7083 94.1198 91.1094 93.8125C91.2344 93.7135 91.3385 93.6042 91.4219 93.4844V89.25C91.4062 89.099 91.3385 88.9688 91.2188 88.8594C91.0573 88.724 90.888 88.651 90.7109 88.6406C90.5391 88.6302 90.4531 88.5781 90.4531 88.4844C90.4531 88.3854 90.4948 88.3255 90.5781 88.3047L92.3672 87.7891C92.4297 87.7682 92.4896 87.7578 92.5469 87.7578C92.6094 87.7578 92.6406 87.8099 92.6406 87.9141V93.4609C92.6667 93.6901 92.7318 93.8542 92.8359 93.9531C92.9401 94.0521 93.1094 94.1016 93.3438 94.1016L93.7969 94.0703C93.8281 94.0703 93.8438 94.1016 93.8438 94.1641C93.8438 94.2214 93.8047 94.2682 93.7266 94.3047L91.6484 95.1641C91.5859 95.1953 91.5312 95.2109 91.4844 95.2109C91.4427 95.2109 91.4219 95.1458 91.4219 95.0156V94.3125ZM99.6094 89.3984C99.5469 89.388 99.4557 89.3542 99.3359 89.2969C98.9036 89.099 98.5651 89 98.3203 89C98.0755 89 97.8177 89.1536 97.5469 89.4609C97.2812 89.763 97.1484 90.0365 97.1484 90.2812V93.8125C97.1484 94.2031 97.375 94.4635 97.8281 94.5938C98.026 94.6458 98.2109 94.6849 98.3828 94.7109C98.5547 94.7318 98.6641 94.7526 98.7109 94.7734C98.763 94.7943 98.7891 94.8359 98.7891 94.8984C98.7891 94.9557 98.763 94.9896 98.7109 95H94.7969C94.7448 94.9896 94.7188 94.9531 94.7188 94.8906C94.7188 94.7969 94.8411 94.7344 95.0859 94.7031C95.6484 94.6198 95.9297 94.3229 95.9297 93.8125V89.6797C95.9297 89.4609 95.8099 89.3099 95.5703 89.2266C95.4661 89.1901 95.3542 89.1615 95.2344 89.1406C95.1146 89.1146 95.0182 89.0911 94.9453 89.0703C94.8776 89.0495 94.8333 89.0312 94.8125 89.0156C94.7969 88.9948 94.7891 88.9557 94.7891 88.8984C94.7891 88.8359 94.8281 88.7839 94.9062 88.7422L96.8984 87.8047C96.9609 87.7734 97 87.7578 97.0156 87.7578C97.1042 87.7578 97.1484 87.8203 97.1484 87.9453V89.2109C97.1484 89.2734 97.1641 89.3047 97.1953 89.3047C97.237 89.3047 97.3438 89.1823 97.5156 88.9375C98.0104 88.2448 98.4193 87.8984 98.7422 87.8984C98.9245 87.8984 99.2031 87.9714 99.5781 88.1172C99.9583 88.263 100.148 88.3854 100.148 88.4844C100.148 88.6042 100.089 88.7865 99.9688 89.0312C99.849 89.276 99.7292 89.3984 99.6094 89.3984ZM106.555 88.5078C106.555 88.5078 107.253 88.4766 108.648 88.4141C108.768 88.4141 108.846 88.4271 108.883 88.4531C108.919 88.4792 108.958 88.5703 109 88.7266C109.042 88.8776 109.062 89.0208 109.062 89.1562C109.062 89.2917 109.049 89.3698 109.023 89.3906C108.997 89.4115 108.945 89.4219 108.867 89.4219H107.133C107.164 89.4792 107.198 89.5391 107.234 89.6016C107.271 89.6641 107.318 89.7682 107.375 89.9141C107.432 90.0599 107.461 90.2865 107.461 90.5938C107.461 90.8958 107.385 91.2135 107.234 91.5469C107.089 91.875 106.872 92.1667 106.586 92.4219C105.951 92.9948 105.128 93.2812 104.117 93.2812C103.852 93.2812 103.56 93.2318 103.242 93.1328C103.164 93.2161 103.06 93.2943 102.93 93.3672C102.799 93.4349 102.672 93.5052 102.547 93.5781C102.234 93.7552 102.078 93.9323 102.078 94.1094C102.078 94.5521 102.812 94.7786 104.281 94.7891C105.75 94.7995 106.714 94.849 107.172 94.9375C107.635 95.0208 107.995 95.1901 108.25 95.4453C108.651 95.8464 108.852 96.3047 108.852 96.8203C108.852 97.263 108.661 97.7188 108.281 98.1875C107.62 99.0156 106.609 99.5677 105.25 99.8438C104.766 99.9427 104.253 99.9922 103.711 99.9922C102.727 99.9922 101.979 99.8125 101.469 99.4531C100.958 99.099 100.703 98.6693 100.703 98.1641C100.703 97.888 100.768 97.6589 100.898 97.4766C101.029 97.2995 101.193 97.1302 101.391 96.9688C101.594 96.8125 101.815 96.6458 102.055 96.4688C102.294 96.2969 102.523 96.0755 102.742 95.8047C102.242 95.763 101.812 95.6042 101.453 95.3281C101.099 95.0521 100.922 94.7812 100.922 94.5156C100.922 94.25 100.992 94.0547 101.133 93.9297C101.273 93.7995 101.445 93.6901 101.648 93.6016C101.852 93.5078 102.065 93.4219 102.289 93.3438C102.513 93.2656 102.708 93.1641 102.875 93.0391C102.292 92.8099 101.841 92.4948 101.523 92.0938C101.206 91.6875 101.047 91.2448 101.047 90.7656C101.047 89.875 101.37 89.1484 102.016 88.5859C102.667 88.0234 103.451 87.7422 104.367 87.7422C105.284 87.7422 106.013 87.9974 106.555 88.5078ZM102.305 96.6562C102.185 96.776 102.086 96.9036 102.008 97.0391C101.93 97.1745 101.891 97.3438 101.891 97.5469C101.891 97.7552 101.964 97.9714 102.109 98.1953C102.26 98.4245 102.464 98.6302 102.719 98.8125C103.281 99.2292 103.958 99.4375 104.75 99.4375C105.542 99.4375 106.258 99.2057 106.898 98.7422C107.544 98.2839 107.867 97.7786 107.867 97.2266C107.867 96.6797 107.602 96.3125 107.07 96.125C106.82 96.0417 106.177 95.9896 105.141 95.9688C104.104 95.9479 103.432 95.9193 103.125 95.8828C102.99 96.0391 102.849 96.1771 102.703 96.2969C102.562 96.4167 102.43 96.5365 102.305 96.6562ZM106.18 90.5859C106.18 89.8516 105.995 89.2552 105.625 88.7969C105.26 88.3333 104.776 88.1016 104.172 88.1016C103.391 88.1016 102.839 88.4688 102.516 89.2031C102.391 89.4844 102.328 89.8073 102.328 90.1719C102.328 90.9167 102.482 91.5365 102.789 92.0312C103.164 92.625 103.656 92.9219 104.266 92.9219C104.875 92.9219 105.346 92.7161 105.68 92.3047C106.013 91.8932 106.18 91.3203 106.18 90.5859ZM110.93 90.8828C110.841 90.8828 110.797 91.0729 110.797 91.4531C110.797 92.2604 111.036 92.9375 111.516 93.4844C111.995 94.0312 112.589 94.3047 113.297 94.3047C114.01 94.3047 114.695 93.9974 115.352 93.3828C115.362 93.3724 115.375 93.3672 115.391 93.3672H115.43C115.461 93.3672 115.49 93.3932 115.516 93.4453C115.547 93.4922 115.576 93.5234 115.602 93.5391C114.997 94.2734 114.286 94.7812 113.469 95.0625C113.188 95.1615 112.87 95.2109 112.516 95.2109C112.161 95.2109 111.802 95.1146 111.438 94.9219C111.073 94.724 110.76 94.4661 110.5 94.1484C109.948 93.487 109.672 92.6641 109.672 91.6797C109.672 90.6901 109.971 89.7891 110.57 88.9766C111.174 88.1641 112.003 87.7578 113.055 87.7578C113.81 87.7578 114.427 88.0964 114.906 88.7734C115.385 89.4453 115.625 90.0365 115.625 90.5469C115.625 90.7708 115.57 90.8828 115.461 90.8828H110.93ZM111.016 90.1328C111.016 90.2318 111.062 90.2812 111.156 90.2812H114.102C114.237 90.2812 114.305 90.2005 114.305 90.0391C114.305 89.6641 114.135 89.2812 113.797 88.8906C113.464 88.4948 113.096 88.2969 112.695 88.2969C112.305 88.2969 111.948 88.474 111.625 88.8281C111.307 89.1823 111.104 89.5859 111.016 90.0391V90.1328ZM121.688 89.3984C121.625 89.388 121.534 89.3542 121.414 89.2969C120.982 89.099 120.643 89 120.398 89C120.154 89 119.896 89.1536 119.625 89.4609C119.359 89.763 119.227 90.0365 119.227 90.2812V93.8125C119.227 94.2031 119.453 94.4635 119.906 94.5938C120.104 94.6458 120.289 94.6849 120.461 94.7109C120.633 94.7318 120.742 94.7526 120.789 94.7734C120.841 94.7943 120.867 94.8359 120.867 94.8984C120.867 94.9557 120.841 94.9896 120.789 95H116.875C116.823 94.9896 116.797 94.9531 116.797 94.8906C116.797 94.7969 116.919 94.7344 117.164 94.7031C117.727 94.6198 118.008 94.3229 118.008 93.8125V89.6797C118.008 89.4609 117.888 89.3099 117.648 89.2266C117.544 89.1901 117.432 89.1615 117.312 89.1406C117.193 89.1146 117.096 89.0911 117.023 89.0703C116.956 89.0495 116.911 89.0312 116.891 89.0156C116.875 88.9948 116.867 88.9557 116.867 88.8984C116.867 88.8359 116.906 88.7839 116.984 88.7422L118.977 87.8047C119.039 87.7734 119.078 87.7578 119.094 87.7578C119.182 87.7578 119.227 87.8203 119.227 87.9453V89.2109C119.227 89.2734 119.242 89.3047 119.273 89.3047C119.315 89.3047 119.422 89.1823 119.594 88.9375C120.089 88.2448 120.497 87.8984 120.82 87.8984C121.003 87.8984 121.281 87.9714 121.656 88.1172C122.036 88.263 122.227 88.3854 122.227 88.4844C122.227 88.6042 122.167 88.7865 122.047 89.0312C121.927 89.276 121.807 89.3984 121.688 89.3984ZM130.406 87.9688C130.464 87.9844 130.492 88.0208 130.492 88.0781C130.492 88.1354 130.487 88.1745 130.477 88.1953C130.466 88.2109 130.44 88.2266 130.398 88.2422C130.362 88.2526 130.307 88.263 130.234 88.2734C130.167 88.2839 130.057 88.3047 129.906 88.3359C129.755 88.362 129.62 88.4661 129.5 88.6484C129.38 88.8307 129.253 89.0833 129.117 89.4062L125.445 98.5078L124.938 99.5859C124.807 99.862 124.534 100 124.117 100C123.935 100 123.789 99.9401 123.68 99.8203C123.57 99.7005 123.516 99.5573 123.516 99.3906C123.516 99.2292 123.555 99.1094 123.633 99.0312C123.716 98.9583 123.812 98.8984 123.922 98.8516C124.031 98.8047 124.143 98.7604 124.258 98.7188C124.378 98.6823 124.51 98.5938 124.656 98.4531C124.802 98.3177 124.888 98.2161 124.914 98.1484C125.789 96.1901 126.227 95.1667 126.227 95.0781C126.227 94.9896 126.174 94.8802 126.07 94.75L123.492 89.3672C123.299 88.8411 122.969 88.5026 122.5 88.3516C122.464 88.3411 122.419 88.3333 122.367 88.3281C122.148 88.3073 122.039 88.2422 122.039 88.1328C122.039 88.0234 122.102 87.9688 122.227 87.9688H125.703C125.745 87.9688 125.766 88.0104 125.766 88.0938C125.766 88.1719 125.729 88.2266 125.656 88.2578C125.583 88.2839 125.422 88.2969 125.172 88.2969C124.771 88.2969 124.57 88.4531 124.57 88.7656L124.641 88.9531L126.664 93.2891C126.768 93.5547 126.872 93.5469 126.977 93.2656C126.987 93.2396 127.052 93.0703 127.172 92.7578C127.88 90.9609 128.276 89.9219 128.359 89.6406C128.448 89.3594 128.492 89.1484 128.492 89.0078C128.492 88.8672 128.417 88.7188 128.266 88.5625C128.12 88.4062 127.917 88.3281 127.656 88.3281C127.401 88.3281 127.273 88.2526 127.273 88.1016C127.273 88.013 127.331 87.9688 127.445 87.9688H130.406ZM59.9531 112.156C60.0104 112.156 60.0391 112.198 60.0391 112.281C60.0391 112.359 60.0104 112.414 59.9531 112.445C59.8125 112.503 59.6667 112.552 59.5156 112.594C59.3698 112.635 59.2344 112.69 59.1094 112.758C58.8229 112.914 58.6797 113.167 58.6797 113.516V116.055C58.6797 116.169 58.4036 116.323 57.8516 116.516C57.3047 116.708 56.8594 116.849 56.5156 116.938C54.9062 117.333 53.4688 117.292 52.2031 116.812C50.75 116.255 49.7214 115.258 49.1172 113.82C48.8151 113.102 48.6641 112.388 48.6641 111.68C48.6641 110.966 48.7344 110.367 48.875 109.883C49.3021 108.404 50.1979 107.266 51.5625 106.469C52.4531 105.948 53.388 105.688 54.3672 105.688C55.3516 105.688 56.3958 105.885 57.5 106.281C57.7031 106.354 57.8177 106.391 57.8438 106.391H57.9375L58.25 106.312H58.4453C58.5026 106.312 58.5312 106.341 58.5312 106.398V109C58.5312 109.099 58.474 109.148 58.3594 109.148H58.3281C58.2292 109.138 58.1615 109.005 58.125 108.75C58.1146 108.698 58.1068 108.659 58.1016 108.633C57.5807 107.003 56.4818 106.188 54.8047 106.188C53.4609 106.188 52.388 106.695 51.5859 107.711C50.7891 108.727 50.3906 109.935 50.3906 111.336C50.3906 112.737 50.7917 113.977 51.5938 115.055C52.401 116.128 53.5078 116.664 54.9141 116.664C55.638 116.664 56.2344 116.552 56.7031 116.328C56.8854 116.24 57.026 116.128 57.125 115.992V113.852C57.125 113.367 56.987 113.013 56.7109 112.789C56.4349 112.56 55.9271 112.445 55.1875 112.445C55.1302 112.445 55.1016 112.398 55.1016 112.305C55.1016 112.206 55.1302 112.156 55.1875 112.156H59.9531ZM65.7344 111.398C65.6719 111.388 65.5807 111.354 65.4609 111.297C65.0286 111.099 64.6901 111 64.4453 111C64.2005 111 63.9427 111.154 63.6719 111.461C63.4062 111.763 63.2734 112.036 63.2734 112.281V115.812C63.2734 116.203 63.5 116.464 63.9531 116.594C64.151 116.646 64.3359 116.685 64.5078 116.711C64.6797 116.732 64.7891 116.753 64.8359 116.773C64.888 116.794 64.9141 116.836 64.9141 116.898C64.9141 116.956 64.888 116.99 64.8359 117H60.9219C60.8698 116.99 60.8438 116.953 60.8438 116.891C60.8438 116.797 60.9661 116.734 61.2109 116.703C61.7734 116.62 62.0547 116.323 62.0547 115.812V111.68C62.0547 111.461 61.9349 111.31 61.6953 111.227C61.5911 111.19 61.4792 111.161 61.3594 111.141C61.2396 111.115 61.1432 111.091 61.0703 111.07C61.0026 111.049 60.9583 111.031 60.9375 111.016C60.9219 110.995 60.9141 110.956 60.9141 110.898C60.9141 110.836 60.9531 110.784 61.0312 110.742L63.0234 109.805C63.0859 109.773 63.125 109.758 63.1406 109.758C63.2292 109.758 63.2734 109.82 63.2734 109.945V111.211C63.2734 111.273 63.2891 111.305 63.3203 111.305C63.362 111.305 63.4688 111.182 63.6406 110.938C64.1354 110.245 64.5443 109.898 64.8672 109.898C65.0495 109.898 65.3281 109.971 65.7031 110.117C66.0833 110.263 66.2734 110.385 66.2734 110.484C66.2734 110.604 66.2135 110.786 66.0938 111.031C65.974 111.276 65.8542 111.398 65.7344 111.398ZM66.8672 113.492C66.8672 112.466 67.2292 111.586 67.9531 110.852C68.6823 110.112 69.5547 109.742 70.5703 109.742C71.5859 109.742 72.4688 110.102 73.2188 110.82C73.9688 111.534 74.3438 112.417 74.3438 113.469C74.3438 114.521 73.987 115.409 73.2734 116.133C72.5651 116.852 71.6745 117.211 70.6016 117.211C69.5286 117.211 68.638 116.846 67.9297 116.117C67.2214 115.388 66.8672 114.513 66.8672 113.492ZM68.8125 115.5C69.3229 116.359 70.0182 116.789 70.8984 116.789C71.5807 116.789 72.1016 116.516 72.4609 115.969C72.8255 115.422 73.0078 114.75 73.0078 113.953C73.0078 113.156 72.7526 112.339 72.2422 111.5C71.737 110.661 71.0547 110.242 70.1953 110.242C69.5651 110.242 69.0677 110.516 68.7031 111.062C68.3438 111.604 68.1641 112.294 68.1641 113.133C68.1641 113.966 68.3802 114.755 68.8125 115.5ZM80.8281 116.312C80.8021 116.224 80.7682 116.195 80.7266 116.227C80.6849 116.253 80.5156 116.341 80.2188 116.492C79.2448 116.977 78.4323 117.219 77.7812 117.219C77.1302 117.219 76.6615 117.01 76.375 116.594C76.2708 116.438 76.2188 116.245 76.2188 116.016V111.25C76.2031 111.099 76.1354 110.969 76.0156 110.859C75.8542 110.724 75.6849 110.651 75.5078 110.641C75.3359 110.63 75.25 110.578 75.25 110.484C75.25 110.385 75.2917 110.326 75.375 110.305L77.1641 109.789C77.2266 109.768 77.2865 109.758 77.3438 109.758C77.4062 109.758 77.4375 109.802 77.4375 109.891V115.133C77.4375 115.497 77.599 115.779 77.9219 115.977C78.2448 116.174 78.6562 116.273 79.1562 116.273C79.6615 116.273 80.1146 116.12 80.5156 115.812C80.6406 115.714 80.7448 115.604 80.8281 115.484V111.25C80.8125 111.099 80.7448 110.969 80.625 110.859C80.4635 110.724 80.2943 110.651 80.1172 110.641C79.9453 110.63 79.8594 110.578 79.8594 110.484C79.8594 110.385 79.901 110.326 79.9844 110.305L81.7734 109.789C81.8359 109.768 81.8958 109.758 81.9531 109.758C82.0156 109.758 82.0469 109.81 82.0469 109.914V115.461C82.0729 115.69 82.138 115.854 82.2422 115.953C82.3464 116.052 82.5156 116.102 82.75 116.102L83.2031 116.07C83.2344 116.07 83.25 116.102 83.25 116.164C83.25 116.221 83.2109 116.268 83.1328 116.305L81.0547 117.164C80.9922 117.195 80.9375 117.211 80.8906 117.211C80.849 117.211 80.8281 117.146 80.8281 117.016V116.312ZM90.1484 116.18C89.4297 116.867 88.6224 117.211 87.7266 117.211C87.4036 117.211 86.9635 117.151 86.4062 117.031C86.3177 117.031 86.2682 117.062 86.2578 117.125C86.2526 117.188 86.2474 117.253 86.2422 117.32V120.656C86.2422 121.047 86.4688 121.307 86.9219 121.438C87.1198 121.49 87.3047 121.526 87.4766 121.547C87.6484 121.573 87.7578 121.596 87.8047 121.617C87.8568 121.638 87.8828 121.677 87.8828 121.734C87.8828 121.797 87.8568 121.833 87.8047 121.844H83.8906C83.8385 121.833 83.8125 121.797 83.8125 121.734C83.8125 121.641 83.9349 121.578 84.1797 121.547C84.7422 121.464 85.0234 121.167 85.0234 120.656V111.289C85.0234 111.07 84.9036 110.919 84.6641 110.836C84.5599 110.799 84.4479 110.771 84.3281 110.75C84.2083 110.724 84.112 110.701 84.0391 110.68C83.9714 110.659 83.9271 110.641 83.9062 110.625C83.8906 110.604 83.8828 110.565 83.8828 110.508C83.8828 110.445 83.9219 110.393 84 110.352L85.9922 109.398C86.0339 109.378 86.0755 109.367 86.1172 109.367C86.2005 109.367 86.2422 109.43 86.2422 109.555V110.547C86.2422 110.604 86.2708 110.633 86.3281 110.633C86.3906 110.633 86.5365 110.557 86.7656 110.406C87.4271 109.979 88.1146 109.766 88.8281 109.766C89.3281 109.766 89.7865 109.969 90.2031 110.375C90.75 110.906 91.1146 111.646 91.2969 112.594C91.349 112.865 91.375 113.154 91.375 113.461C91.375 113.763 91.3255 114.083 91.2266 114.422C91.0286 115.094 90.6693 115.68 90.1484 116.18ZM87.9141 110.578C87.2057 110.578 86.6484 110.781 86.2422 111.188V115.578C86.2422 115.839 86.2865 116.008 86.375 116.086C86.6042 116.284 86.9557 116.438 87.4297 116.547C88.3672 116.76 89.0964 116.536 89.6172 115.875C89.987 115.401 90.1719 114.828 90.1719 114.156C90.1719 112.849 89.8776 111.87 89.2891 111.219C88.9349 110.823 88.4766 110.609 87.9141 110.578Z" fill="#835AA1"/>
<defs>
<clipPath id="clip0_967_236">
<rect width="46" height="46" fill="white" transform="translate(47)"/>
</clipPath>
</defs>
</svg>
