<svg width="73" height="73" viewBox="0 0 73 73" fill="none" xmlns="http://www.w3.org/2000/svg">
<path d="M18.2637 4.14583V43.6458C18.2637 46.8485 19.6758 47.5 21.6758 48C35.5091 52.8333 63.1635 62.3424 66.7635 63.1424C70.3635 63.9424 72.2635 61 72.2635 59V23.6424C72.2635 18.0424 70.6758 16.3269 68.7635 15.6424C55.2636 10.8102 27.1637 0.945826 22.7637 0.145825C18.3637 -0.654175 18.2638 2 18.2637 4.14583Z" fill="url(#paint0_linear_1265_368111)"/>
<path d="M21.1758 1L68.6758 18C69.3424 18.3333 70.6758 19.5 70.6758 21.5C70.6758 23.5 70.6758 47.6667 70.6758 59.5" stroke="url(#paint1_linear_1265_368111)"/>
<path d="M12.1758 7.14583V46.6458C12.1758 49.8485 13.5879 50.5 15.5879 51C29.4212 55.8333 57.0756 65.3424 60.6756 66.1424C64.2756 66.9424 66.1756 64 66.1756 62V26.6424C66.1756 21.0424 64.5879 19.3269 62.6756 18.6424C49.1757 13.8102 21.0758 3.94583 16.6758 3.14583C12.2758 2.34583 12.1759 5 12.1758 7.14583Z" fill="url(#paint2_linear_1265_368111)"/>
<path d="M15.0879 4L62.5879 21C63.2546 21.3333 64.5879 22.5 64.5879 24.5C64.5879 26.5 64.5879 50.6667 64.5879 62.5" stroke="url(#paint3_linear_1265_368111)"/>
<path d="M6.08789 10.1458V49.6458C6.08789 52.8485 7.5 53.5 9.5 54C23.3333 58.8333 50.9877 68.3424 54.5877 69.1424C58.1877 69.9424 60.0877 67 60.0877 65V29.6424C60.0877 24.0424 58.5 22.3269 56.5877 21.6424C43.0878 16.8102 14.9879 6.94583 10.5879 6.14583C6.18789 5.34583 6.08803 8 6.08789 10.1458Z" fill="url(#paint4_linear_1265_368111)"/>
<path d="M9 7L56.5 24C57.1667 24.3333 58.5 25.5 58.5 27.5C58.5 29.5 58.5 53.6667 58.5 65.5" stroke="url(#paint5_linear_1265_368111)"/>
<path d="M0 13.1458V52.6458C0 55.8485 1.41211 56.5 3.41211 57C17.2454 61.8333 44.8999 71.3424 48.4999 72.1424C52.0999 72.9424 53.9999 70 53.9999 68V32.6424C53.9999 27.0424 52.4121 25.3269 50.4999 24.6424C36.9999 19.8102 8.9 9.94583 4.5 9.14583C0.0999999 8.34583 0.000143811 11 0 13.1458Z" fill="url(#paint6_linear_1265_368111)"/>
<path d="M2.91211 10L50.4121 27C51.0788 27.3333 52.4121 28.5 52.4121 30.5C52.4121 32.5 52.4121 56.6667 52.4121 68.5" stroke="url(#paint7_linear_1265_368111)"/>
<path d="M58.0127 44.5811L57.5099 45.0256L56.621 43.9487C56.5586 43.8702 56.5028 43.7941 56.4537 43.7204C56.4061 43.6421 56.3704 43.558 56.3467 43.468C56.3586 43.6504 56.3333 43.8321 56.2711 44.0133L55.8184 45.331L55.1889 45.1037L55.6393 43.7927C55.6704 43.7022 55.7036 43.62 55.7389 43.5462C55.7801 43.4695 55.8316 43.399 55.8934 43.3348C55.823 43.3807 55.7484 43.4173 55.6694 43.4448C55.5905 43.4723 55.5057 43.4951 55.415 43.5133L54.0731 43.7769L53.953 43.1075L55.2949 42.8438C55.39 42.8273 55.4797 42.8189 55.5642 42.8189C55.6501 42.8143 55.7367 42.8227 55.8237 42.8439C55.6636 42.7606 55.527 42.6452 55.4139 42.4974L54.525 41.4206L55.0278 40.9761L55.9167 42.0529C55.9791 42.1314 56.0319 42.209 56.0751 42.2857C56.1227 42.364 56.1583 42.4481 56.182 42.5381C56.1731 42.4484 56.1746 42.3573 56.1865 42.2649C56.2028 42.174 56.2265 42.0834 56.2576 41.9928L56.7126 40.6683L57.3421 40.8956L56.8918 42.2065C56.8607 42.2971 56.8237 42.383 56.7809 42.4642C56.7441 42.5426 56.697 42.6146 56.6396 42.6804C56.7115 42.6301 56.787 42.5911 56.8659 42.5637C56.9449 42.5362 57.0305 42.5111 57.1227 42.4884L58.4623 42.2315L58.5824 42.901L57.2428 43.1578C57.1522 43.176 57.0638 43.1874 56.9778 43.1919C56.8963 43.1981 56.8142 43.1914 56.7315 43.1717C56.8755 43.2441 57.0063 43.3549 57.1238 43.5042L58.0127 44.5811Z" fill="#0B8DAE"/>
<path d="M52.3827 42.5481L51.88 42.9926L50.9911 41.9158C50.9287 41.8373 50.8729 41.7611 50.8237 41.6874C50.7761 41.6091 50.7405 41.525 50.7168 41.435C50.7286 41.6174 50.7034 41.7992 50.6412 41.9803L50.1885 43.298L49.559 43.0707L50.0093 41.7598C50.0404 41.6692 50.0736 41.5871 50.1089 41.5133C50.1502 41.4365 50.2017 41.3661 50.2635 41.3019C50.1931 41.3477 50.1184 41.3844 50.0395 41.4118C49.9605 41.4393 49.8757 41.4621 49.7851 41.4803L48.4431 41.744L48.323 41.0745L49.6649 40.8109C49.76 40.7943 49.8498 40.786 49.9342 40.7859C50.0202 40.7814 50.1067 40.7897 50.1938 40.811C50.0337 40.7277 49.8971 40.6122 49.7839 40.4645L48.8951 39.3876L49.3979 38.9431L50.2867 40.02C50.3491 40.0985 50.4019 40.1761 50.4451 40.2528C50.4927 40.331 50.5284 40.4152 50.5521 40.5052C50.5432 40.4154 50.5447 40.3243 50.5565 40.2319C50.5729 40.1411 50.5966 40.0504 50.6277 39.9598L51.0827 38.6353L51.7122 38.8627L51.2619 40.1736C51.2307 40.2641 51.1938 40.35 51.151 40.4313C51.1141 40.5096 51.067 40.5817 51.0097 40.6475C51.0816 40.5971 51.157 40.5582 51.236 40.5307C51.315 40.5032 51.4005 40.4781 51.4928 40.4555L52.8323 40.1986L52.9525 40.868L51.6129 41.1249C51.5222 41.143 51.4339 41.1544 51.3479 41.159C51.2663 41.1652 51.1842 41.1584 51.1016 41.1388C51.2456 41.2111 51.3763 41.322 51.4939 41.4713L52.3827 42.5481Z" fill="#0B8DAE"/>
<path d="M46.7528 40.5152L46.25 40.9597L45.3611 39.8828C45.2987 39.8043 45.2429 39.7282 45.1938 39.6545C45.1462 39.5762 45.1105 39.4921 45.0868 39.4021C45.0987 39.5845 45.0735 39.7662 45.0112 39.9474L44.5586 41.2651L43.929 41.0377L44.3794 39.7268C44.4105 39.6363 44.4437 39.5541 44.479 39.4803C44.5202 39.4036 44.5717 39.3331 44.6335 39.2689C44.5632 39.3148 44.4885 39.3514 44.4095 39.3789C44.3306 39.4064 44.2458 39.4292 44.1551 39.4474L42.8132 39.711L42.6931 39.0416L44.035 38.7779C44.1301 38.7614 44.2198 38.753 44.3043 38.753C44.3903 38.7484 44.4768 38.7568 44.5638 38.778C44.4037 38.6947 44.2671 38.5793 44.154 38.4315L43.2651 37.3547L43.7679 36.9102L44.6568 37.987C44.7192 38.0655 44.772 38.1431 44.8152 38.2198C44.8628 38.2981 44.8984 38.3822 44.9221 38.4722C44.9132 38.3825 44.9147 38.2914 44.9266 38.199C44.9429 38.1081 44.9666 38.0175 44.9977 37.9269L45.4527 36.6024L46.0823 36.8297L45.6319 38.1406C45.6008 38.2312 45.5638 38.3171 45.521 38.3983C45.4842 38.4767 45.4371 38.5487 45.3797 38.6145C45.4517 38.5642 45.5271 38.5252 45.6061 38.4978C45.685 38.4703 45.7706 38.4452 45.8628 38.4225L47.2024 38.1656L47.3225 38.8351L45.9829 39.0919C45.8923 39.1101 45.8039 39.1215 45.718 39.126C45.6364 39.1322 45.5543 39.1255 45.4717 39.1058C45.6156 39.1782 45.7464 39.289 45.8639 39.4383L46.7528 40.5152Z" fill="#0B8DAE"/>
<path d="M41.1229 38.4822L40.6201 38.9267L39.7312 37.8499C39.6688 37.7714 39.613 37.6952 39.5639 37.6215C39.5163 37.5432 39.4806 37.4591 39.4569 37.3691C39.4687 37.5515 39.4435 37.7333 39.3813 37.9144L38.9286 39.2321L38.2991 39.0048L38.7494 37.6939C38.7806 37.6033 38.8137 37.5212 38.849 37.4474C38.8903 37.3706 38.9418 37.3002 39.0036 37.236C38.9332 37.2818 38.8585 37.3185 38.7796 37.3459C38.7006 37.3734 38.6158 37.3962 38.5252 37.4144L37.1832 37.6781L37.0631 37.0086L38.4051 36.745C38.5001 36.7284 38.5899 36.7201 38.6743 36.72C38.7603 36.7155 38.8468 36.7238 38.9339 36.7451C38.7738 36.6618 38.6372 36.5463 38.5241 36.3986L37.6352 35.3217L38.138 34.8772L39.0268 35.9541C39.0893 36.0326 39.142 36.1102 39.1852 36.1869C39.2328 36.2651 39.2685 36.3493 39.2922 36.4393C39.2833 36.3495 39.2848 36.2584 39.2967 36.166C39.313 36.0752 39.3367 35.9845 39.3678 35.8939L39.8228 34.5694L40.4523 34.7968L40.002 36.1077C39.9709 36.1982 39.9339 36.2841 39.8911 36.3654C39.8543 36.4437 39.8071 36.5158 39.7498 36.5816C39.8217 36.5312 39.8972 36.4923 39.9761 36.4648C40.0551 36.4373 40.1407 36.4122 40.2329 36.3896L41.5725 36.1327L41.6926 36.8021L40.353 37.059C40.2623 37.0771 40.174 37.0885 40.088 37.0931C40.0064 37.0993 39.9243 37.0925 39.8417 37.0729C39.9857 37.1452 40.1164 37.2561 40.234 37.4054L41.1229 38.4822Z" fill="#0B8DAE"/>
<path d="M35.4929 36.4493L34.9901 36.8938L34.1012 35.8169C34.0388 35.7384 33.9831 35.6623 33.9339 35.5885C33.8863 35.5103 33.8507 35.4262 33.827 35.3362C33.8388 35.5186 33.8136 35.7003 33.7513 35.8815L33.2987 37.1992L32.6692 36.9718L33.1195 35.6609C33.1506 35.5704 33.1838 35.4882 33.2191 35.4144C33.2603 35.3377 33.3119 35.2672 33.3736 35.203C33.3033 35.2489 33.2286 35.2855 33.1496 35.313C33.0707 35.3405 32.9859 35.3633 32.8952 35.3815L31.5533 35.6451L31.4332 34.9757L32.7751 34.712C32.8702 34.6955 32.9599 34.6871 33.0444 34.6871C33.1304 34.6825 33.2169 34.6909 33.3039 34.7121C33.1438 34.6288 33.0072 34.5134 32.8941 34.3656L32.0052 33.2888L32.508 32.8443L33.3969 33.9211C33.4593 33.9996 33.5121 34.0772 33.5553 34.1539C33.6029 34.2322 33.6385 34.3163 33.6622 34.4063C33.6533 34.3166 33.6548 34.2255 33.6667 34.1331C33.683 34.0422 33.7067 33.9516 33.7378 33.861L34.1929 32.5365L34.8224 32.7638L34.372 34.0747C34.3409 34.1653 34.304 34.2512 34.2611 34.3324C34.2243 34.4108 34.1772 34.4828 34.1198 34.5486C34.1918 34.4983 34.2672 34.4593 34.3462 34.4319C34.4251 34.4044 34.5107 34.3793 34.6029 34.3566L35.9425 34.0997L36.0626 34.7692L34.723 35.026C34.6324 35.0442 34.5441 35.0556 34.4581 35.0601C34.3765 35.0663 34.2944 35.0596 34.2118 35.0399C34.3557 35.1123 34.4865 35.2231 34.604 35.3724L35.4929 36.4493Z" fill="#0B8DAE"/>
<path d="M29.863 34.4163L29.3602 34.8608L28.4713 33.784C28.4089 33.7055 28.3531 33.6293 28.304 33.5556C28.2564 33.4773 28.2207 33.3932 28.197 33.3032C28.2088 33.4856 28.1836 33.6674 28.1214 33.8485L27.6687 35.1662L27.0392 34.9389L27.4896 33.628C27.5207 33.5374 27.5539 33.4553 27.5891 33.3815C27.6304 33.3047 27.6819 33.2343 27.7437 33.1701C27.6733 33.2159 27.5987 33.2526 27.5197 33.28C27.4407 33.3075 27.3559 33.3303 27.2653 33.3485L25.9234 33.6122L25.8032 32.9427L27.1452 32.6791C27.2402 32.6625 27.33 32.6542 27.4144 32.6541C27.5004 32.6496 27.5869 32.6579 27.674 32.6792C27.5139 32.5959 27.3773 32.4804 27.2642 32.3327L26.3753 31.2558L26.8781 30.8113L27.767 31.8882C27.8294 31.9667 27.8822 32.0443 27.9253 32.121C27.9729 32.1992 28.0086 32.2834 28.0323 32.3734C28.0234 32.2836 28.0249 32.1925 28.0368 32.1001C28.0531 32.0093 28.0768 31.9186 28.1079 31.828L28.5629 30.5035L29.1924 30.7309L28.7421 32.0418C28.711 32.1323 28.674 32.2182 28.6312 32.2995C28.5944 32.3778 28.5473 32.4499 28.4899 32.5157C28.5618 32.4653 28.6373 32.4264 28.7162 32.3989C28.7952 32.3714 28.8808 32.3463 28.973 32.3237L30.3126 32.0668L30.4327 32.7362L29.0931 32.9931C29.0024 33.0112 28.9141 33.0226 28.8281 33.0272C28.7466 33.0334 28.6644 33.0266 28.5818 33.007C28.7258 33.0793 28.8566 33.1902 28.9741 33.3395L29.863 34.4163Z" fill="#0B8DAE"/>
<path d="M24.233 32.3834L23.7302 32.8279L22.8414 31.751C22.779 31.6725 22.7232 31.5964 22.674 31.5226C22.6264 31.4444 22.5908 31.3603 22.5671 31.2703C22.5789 31.4527 22.5537 31.6344 22.4915 31.8156L22.0388 33.1333L21.4093 32.9059L21.8596 31.595C21.8907 31.5045 21.9239 31.4223 21.9592 31.3485C22.0005 31.2718 22.052 31.2013 22.1138 31.1371C22.0434 31.183 21.9687 31.2196 21.8898 31.2471C21.8108 31.2746 21.726 31.2974 21.6353 31.3156L20.2934 31.5792L20.1733 30.9098L21.5152 30.6461C21.6103 30.6296 21.7001 30.6212 21.7845 30.6212C21.8705 30.6166 21.957 30.625 22.044 30.6462C21.884 30.5629 21.7473 30.4475 21.6342 30.2997L20.7454 29.2229L21.2481 28.7784L22.137 29.8552C22.1994 29.9337 22.2522 30.0113 22.2954 30.088C22.343 30.1663 22.3786 30.2504 22.4024 30.3404C22.3935 30.2507 22.3949 30.1596 22.4068 30.0672C22.4231 29.9763 22.4468 29.8857 22.478 29.7951L22.933 28.4706L23.5625 28.6979L23.1121 30.0088C23.081 30.0994 23.0441 30.1853 23.0013 30.2665C22.9644 30.3449 22.9173 30.4169 22.86 30.4827C22.9319 30.4324 23.0073 30.3934 23.0863 30.366C23.1652 30.3385 23.2508 30.3134 23.343 30.2907L24.6826 30.0338L24.8027 30.7033L23.4631 30.9601C23.3725 30.9783 23.2842 30.9897 23.1982 30.9942C23.1166 31.0004 23.0345 30.9937 22.9519 30.974C23.0959 31.0464 23.2266 31.1572 23.3441 31.3065L24.233 32.3834Z" fill="#0B8DAE"/>
<path d="M18.6031 30.3504L18.1003 30.7949L17.2114 29.7181C17.149 29.6396 17.0932 29.5634 17.0441 29.4897C16.9965 29.4114 16.9608 29.3273 16.9371 29.2373C16.9489 29.4197 16.9237 29.6015 16.8615 29.7826L16.4088 31.1003L15.7793 30.873L16.2297 29.5621C16.2608 29.4715 16.294 29.3894 16.3293 29.3156C16.3705 29.2388 16.422 29.1684 16.4838 29.1042C16.4134 29.15 16.3388 29.1867 16.2598 29.2141C16.1809 29.2416 16.0961 29.2644 16.0054 29.2826L14.6635 29.5463L14.5434 28.8768L15.8853 28.6132C15.9804 28.5966 16.0701 28.5883 16.1545 28.5882C16.2405 28.5837 16.3271 28.592 16.4141 28.6133C16.254 28.53 16.1174 28.4145 16.0043 28.2668L15.1154 27.1899L15.6182 26.7454L16.5071 27.8223C16.5695 27.9008 16.6223 27.9784 16.6655 28.0551C16.7131 28.1333 16.7487 28.2175 16.7724 28.3075C16.7635 28.2177 16.765 28.1266 16.7769 28.0342C16.7932 27.9434 16.8169 27.8527 16.848 27.7621L17.303 26.4376L17.9325 26.665L17.4822 27.9759C17.4511 28.0664 17.4141 28.1523 17.3713 28.2336C17.3345 28.3119 17.2874 28.384 17.23 28.4498C17.3019 28.3994 17.3774 28.3605 17.4563 28.333C17.5353 28.3055 17.6209 28.2804 17.7131 28.2578L19.0527 28.0009L19.1728 28.6703L17.8332 28.9272C17.7425 28.9453 17.6542 28.9567 17.5682 28.9613C17.4867 28.9675 17.4046 28.9607 17.3219 28.9411C17.4659 29.0134 17.5967 29.1243 17.7142 29.2736L18.6031 30.3504Z" fill="#0B8DAE"/>
<defs>
<linearGradient id="paint0_linear_1265_368111" x1="72.1758" y1="15" x2="45.2197" y2="63.2812" gradientUnits="userSpaceOnUse">
<stop stop-color="#06F6DD"/>
<stop offset="1" stop-color="#0C5FD0"/>
</linearGradient>
<linearGradient id="paint1_linear_1265_368111" x1="69.6758" y1="17" x2="53.1758" y2="37" gradientUnits="userSpaceOnUse">
<stop stop-color="#00FFE9"/>
<stop offset="1" stop-color="#00FFE9" stop-opacity="0"/>
</linearGradient>
<linearGradient id="paint2_linear_1265_368111" x1="66.0879" y1="18" x2="39.1318" y2="66.2812" gradientUnits="userSpaceOnUse">
<stop stop-color="#06F6DD"/>
<stop offset="1" stop-color="#0C5FD0"/>
</linearGradient>
<linearGradient id="paint3_linear_1265_368111" x1="63.5879" y1="20" x2="47.0879" y2="40" gradientUnits="userSpaceOnUse">
<stop stop-color="#00FFE9"/>
<stop offset="1" stop-color="#00FFE9" stop-opacity="0"/>
</linearGradient>
<linearGradient id="paint4_linear_1265_368111" x1="60" y1="21" x2="33.044" y2="69.2812" gradientUnits="userSpaceOnUse">
<stop stop-color="#06F6DD"/>
<stop offset="1" stop-color="#0C5FD0"/>
</linearGradient>
<linearGradient id="paint5_linear_1265_368111" x1="57.5" y1="23" x2="41" y2="43" gradientUnits="userSpaceOnUse">
<stop stop-color="#00FFE9"/>
<stop offset="1" stop-color="#00FFE9" stop-opacity="0"/>
</linearGradient>
<linearGradient id="paint6_linear_1265_368111" x1="53.9121" y1="24" x2="26.9561" y2="72.2812" gradientUnits="userSpaceOnUse">
<stop stop-color="#06F6DD"/>
<stop offset="1" stop-color="#0C5FD0"/>
</linearGradient>
<linearGradient id="paint7_linear_1265_368111" x1="51.4121" y1="26" x2="34.9121" y2="46" gradientUnits="userSpaceOnUse">
<stop stop-color="#00FFE9"/>
<stop offset="1" stop-color="#00FFE9" stop-opacity="0"/>
</linearGradient>
</defs>
</svg>
