<svg width="67" height="59" viewBox="0 0 67 59" fill="none" xmlns="http://www.w3.org/2000/svg">
<g clip-path="url(#clip0_29_91715)">
<path d="M2.44116 28.2503V13.3945L33.4974 20.6631V36.8556L2.44116 28.2503Z" fill="url(#paint0_linear_29_91715)"/>
<path d="M53.0889 4.95586C39.9914 -0.521701 21.6049 0.15712 9.81142 6.97144C6.53054 8.86692 4.07378 11.0548 2.44116 13.3941L33.4974 20.6627L53.0889 4.95586Z" fill="url(#paint1_linear_29_91715)"/>
<path d="M33.4974 15.707V50.1494L46.6575 54.5095V33.513L33.4974 15.707Z" fill="url(#paint2_linear_29_91715)"/>
<path d="M64.8823 9.01758L46.6575 21.7063V57.4384C50.3422 56.5647 53.8869 55.1798 57.1887 53.3237C63.7296 49.5432 67 44.5878 67 39.6324V15.7849C66.9684 13.3707 66.2323 11.0184 64.8823 9.01758Z" fill="url(#paint3_linear_29_91715)"/>
<path d="M46.6575 33.5129C50.3422 32.6392 53.8869 31.2542 57.1887 29.3982C70.2705 21.8372 70.2705 9.55571 57.1887 2.01558C55.866 1.2576 54.4967 0.584385 53.0889 0L33.4974 15.7069L46.6575 33.5129Z" fill="url(#paint4_linear_29_91715)"/>
<path d="M0 39.6848C0.0260802 44.6193 3.29654 49.5538 9.81137 53.3187C12.3963 54.7848 15.1404 55.9499 17.9901 56.7911V39.4603L0 26.5V39.6848Z" fill="url(#paint5_linear_29_91715)"/>
<path d="M9.81134 40.1279C12.3963 41.594 15.1404 42.7591 17.9901 43.6003L33.4974 26.4366L2.44108 19.168C-2.44635 26.1598 -2.83466e-05 34.4623 9.81134 40.1279Z" fill="url(#paint6_linear_29_91715)"/>
<path d="M17.9901 56.8074C27.3365 59.501 37.221 59.7223 46.6783 57.4497V40.1032L17.9901 39.4609V56.8074Z" fill="url(#paint7_linear_29_91715)"/>
<path d="M17.9901 39.4606C27.3365 42.1542 37.221 42.3755 46.6783 40.1029L33.4974 22.2969L17.9901 39.4606Z" fill="url(#paint8_linear_29_91715)"/>
</g>
<defs>
<linearGradient id="paint0_linear_29_91715" x1="33.447" y1="18.956" x2="25.9647" y2="39.7441" gradientUnits="userSpaceOnUse">
<stop stop-color="#06F6DD"/>
<stop offset="1" stop-color="#0C5FD0"/>
</linearGradient>
<linearGradient id="paint1_linear_29_91715" x1="53.0066" y1="5.8891" x2="49.5896" y2="24.6471" gradientUnits="userSpaceOnUse">
<stop stop-color="#06F6DD"/>
<stop offset="1" stop-color="#0C5FD0"/>
</linearGradient>
<linearGradient id="paint2_linear_29_91715" x1="46.6361" y1="24.9053" x2="28.2885" y2="37.9656" gradientUnits="userSpaceOnUse">
<stop stop-color="#06F6DD"/>
<stop offset="1" stop-color="#0C5FD0"/>
</linearGradient>
<linearGradient id="paint3_linear_29_91715" x1="66.967" y1="20.4959" x2="42.9265" y2="41.6938" gradientUnits="userSpaceOnUse">
<stop stop-color="#06F6DD"/>
<stop offset="1" stop-color="#0C5FD0"/>
</linearGradient>
<linearGradient id="paint4_linear_29_91715" x1="66.9456" y1="7.94432" x2="53.9187" y2="35.2772" gradientUnits="userSpaceOnUse">
<stop stop-color="#06F6DD"/>
<stop offset="1" stop-color="#0C5FD0"/>
</linearGradient>
<linearGradient id="paint5_linear_29_91715" x1="0" y1="41.6534" x2="17.9901" y2="41.6534" gradientUnits="userSpaceOnUse">
<stop stop-color="#53E1FA"/>
<stop offset="1" stop-color="#3581C4"/>
</linearGradient>
<linearGradient id="paint6_linear_29_91715" x1="-2.80134e-05" y1="31.3867" x2="33.4974" y2="31.3867" gradientUnits="userSpaceOnUse">
<stop stop-color="#53E1FA"/>
<stop offset="1" stop-color="#3581C4"/>
</linearGradient>
<linearGradient id="paint7_linear_29_91715" x1="46.6317" y1="44.0939" x2="40.8877" y2="61.7902" gradientUnits="userSpaceOnUse">
<stop stop-color="#06F6DD"/>
<stop offset="1" stop-color="#0C5FD0"/>
</linearGradient>
<linearGradient id="paint8_linear_29_91715" x1="46.6317" y1="26.8865" x2="40.9846" y2="44.4485" gradientUnits="userSpaceOnUse">
<stop stop-color="#06F6DD"/>
<stop offset="1" stop-color="#0C5FD0"/>
</linearGradient>
<clipPath id="clip0_29_91715">
<rect width="67" height="59" fill="white"/>
</clipPath>
</defs>
</svg>
