<svg width="40" height="38" viewBox="0 0 40 38" fill="none" xmlns="http://www.w3.org/2000/svg">
<path d="M25.8346 36.2188H5C2.79086 36.2188 1 34.4279 1 32.2187V9.34375C1 7.13461 2.79086 5.34375 5 5.34375H26.7323" stroke="#2C51A2"/>
<path d="M33.6152 5.34375H37.0011C38.1056 5.34375 39.0011 6.23918 39.0011 7.34375V34.2188C39.0011 35.3233 38.1056 36.2188 37.0011 36.2188H34.5129" stroke="#2C51A2"/>
<rect x="27.8301" y="10.5938" width="4.98425" height="18.5938" stroke="#2C51A2"/>
<path d="M30.9199 13.9531H33.0144" stroke="#2C51A2"/>
<path d="M30.9199 17.8125H33.0144" stroke="#2C51A2"/>
<path d="M30.9199 21.6719H33.0144" stroke="#2C51A2"/>
<path d="M30.9199 25.5312H33.0144" stroke="#2C51A2"/>
<path d="M30.3223 10.0938V0" stroke="#2C51A2"/>
<rect x="26.0352" y="29.5938" width="8.5748" height="1.96875" stroke="#2C51A2"/>
<path d="M30.6211 31.7656V36.5156" stroke="#2C51A2"/>
<rect x="28.9727" y="36.6641" width="3.29835" height="0.890625" stroke="#2C51A2" stroke-width="0.890625"/>
<rect x="6.88477" y="11.7812" width="4.98425" height="4.9375" rx="1.5" stroke="#2C51A2"/>
<rect x="13.9688" y="9.40625" width="9.6875" height="9.6875" rx="1.5" fill="#C377FC" stroke="#C377FC"/>
<rect x="6.88477" y="21.875" width="4.98425" height="4.9375" rx="1.5" stroke="#2C51A2"/>
<rect x="16.4609" y="21.875" width="4.98425" height="4.9375" rx="1.5" stroke="#2C51A2"/>
</svg>
