<svg width="91" height="20" viewBox="0 0 91 20" fill="none" xmlns="http://www.w3.org/2000/svg">
<path fill-rule="evenodd" clip-rule="evenodd" d="M90.1696 9.27812C89.34 9.26831 88.512 9.2763 87.6831 9.27812L84.8689 9.26576C84.2387 9.24372 83.6084 9.22228 82.9781 9.20145C82.9655 9.20145 82.9526 9.22434 82.9397 9.23779L82.7695 9.23379C82.7502 9.20327 82.7311 9.14623 82.7108 9.1455C81.7746 9.11571 80.8366 9.0939 79.902 9.06484C79.3741 9.04849 78.8462 9.0285 78.319 8.99435C78.186 8.98563 77.9924 8.82903 77.934 8.88862C77.5536 9.27485 77.2581 8.99762 76.9689 8.7738L76.6002 9.10335L75.8936 8.68624L75.5596 9.19491C75.1872 8.45879 74.8077 8.87699 74.4197 9.13787C74.3441 8.97546 74.283 8.84502 74.2117 8.69242L73.4067 8.99181L73.1302 8.66989C72.9811 9.07138 72.6312 8.45552 72.4677 8.84356C72.4653 8.84901 72.2785 8.70186 72.1814 8.70767C72.0748 8.71422 71.9725 8.81668 71.8496 8.8868C71.8142 8.73129 71.782 8.58741 71.7543 8.46569C71.4944 8.39775 71.314 8.42936 71.2861 8.76218C71.071 8.56198 71.0636 9.00598 70.8531 8.92132C70.8224 8.83194 70.7849 8.71167 70.7444 8.59141C70.7259 8.59715 70.7079 8.60444 70.6903 8.61321V9.37949C70.6611 9.38274 70.6318 9.38213 70.6027 9.37767C70.5871 9.01179 70.5699 8.64627 70.5539 8.28039C70.258 8.61502 69.9968 8.81595 69.6208 8.57106C69.5753 8.41519 69.5218 8.23315 69.4757 8.07474L68.9258 8.75346C68.7682 8.53727 68.6062 8.31745 68.452 8.10671C68.279 8.3298 68.1613 8.48967 67.9585 8.74038V9.37368C67.9357 9.37625 67.9126 9.37625 67.8897 9.37368C67.8525 8.94094 67.8163 8.50857 67.7668 7.94793C67.6547 8.24951 67.5954 8.41046 67.521 8.60885L67.3059 7.87527L67.2052 7.90179C67.1834 8.07983 67.1612 8.2575 67.1274 8.53109C67.077 8.33416 67.0546 8.24769 67.0303 8.15249L66.7984 8.3774C66.7778 7.94648 66.7615 7.60712 66.7452 7.26813H66.6792L66.4948 8.60085C66.383 8.2208 66.3089 7.97591 66.2367 7.73138C66.2131 7.73429 66.1959 7.7372 66.1639 7.7401V8.65463L66.1043 8.65862C66.0674 8.41119 66.0318 8.16412 65.9949 7.91705L65.9172 7.93703C65.8666 8.25822 65.816 8.57954 65.7654 8.90097C65.7233 8.20009 65.8554 7.48177 65.6062 6.74855C65.5617 7.34079 65.5208 7.88253 65.48 8.42391L65.3786 8.41737C65.3239 8.1921 65.2677 7.96719 65.213 7.74192L65.118 7.75464V8.68333L64.9899 8.68079C64.9733 8.31745 64.9576 7.95702 64.9398 7.57079L64.7862 7.73211C64.7303 7.16748 64.6771 6.62938 64.612 5.97101C64.5588 6.64173 64.5158 7.18747 64.4728 7.7332L64.353 8.55435L64.274 8.54345C64.2605 8.27639 64.2476 8.00934 64.2307 7.67434C64.1259 8.04967 64.05 8.33961 63.9646 8.62992V7.56897C63.6337 7.69977 63.6537 7.44544 63.6512 7.23034C63.646 6.73801 63.6494 6.24533 63.6494 5.75264C63.4976 6.57088 63.4226 7.38766 63.3523 8.20445C63.3363 8.38794 63.3363 8.57288 63.3289 8.75745L63.2911 8.75273L63.1658 7.71649L63.0644 7.73211L63.0312 8.41882H62.9657L62.9243 7.30301L62.7866 7.30882C62.7626 7.63243 62.7389 7.95629 62.7153 8.28039L62.5774 8.27312V5.39257L62.4683 5.39511C62.3968 6.60067 62.3259 7.80599 62.2557 9.01106L62.1506 9.00452V8.07292C61.7346 7.97809 61.5512 7.7441 61.5447 7.30192C61.537 6.77726 61.5416 6.25223 61.5416 5.72757C61.298 6.49857 61.4055 7.36986 60.9244 8.03986C60.8807 7.81422 60.8371 7.58859 60.7929 7.36041C60.7314 7.48577 60.6669 7.61221 60.6042 7.73901C60.5763 7.73356 60.5498 7.72848 60.5179 7.72303V5.57606C60.3793 6.25368 60.2414 6.87318 60.0794 7.62783C60.0404 7.35642 60.0226 7.22634 59.9928 7.0167C59.8392 7.33752 59.7144 7.5944 59.546 7.94321C59.4975 7.1802 59.5682 6.52328 59.4957 5.88272L59.3568 5.8878C59.3406 6.24702 59.3239 6.60661 59.3067 6.96656L59.2145 6.9582V5.84347L59.1681 5.84129C59.1337 6.0662 59.0999 6.29111 59.0535 6.59668L58.8867 6.3318C58.7785 6.82776 58.6716 7.32844 58.5487 7.88726C57.9766 6.76745 58.3687 5.55353 58.161 4.44607C58.1133 4.44934 58.0623 4.45225 58.0196 4.45552V6.72457C57.9889 6.72275 57.9699 6.72094 57.9459 6.71948C57.9244 6.43099 57.9023 6.1425 57.8811 5.85401L57.7244 5.86346C57.6553 6.91738 57.5864 7.97107 57.5176 9.02451C57.4847 8.77744 57.4254 8.53073 57.4233 8.28293C57.4122 7.31064 57.4205 6.33834 57.4205 5.36605H57.3154V8.65027H57.2269C57.1776 7.32239 57.1278 5.99462 57.0776 4.66698H57.0217C56.9916 5.45034 56.9614 6.2337 56.931 7.01706C56.9055 7.0563 56.8797 7.09518 56.8539 7.13442C56.8453 7.11916 56.829 7.1039 56.829 7.08864C56.829 6.66607 56.829 6.24387 56.829 5.82167L56.7 5.81768C56.6708 6.22171 56.645 6.62647 56.6115 7.03014C56.5531 7.72993 56.4886 8.42972 56.4272 9.12915C56.4184 7.86957 56.4095 6.61 56.4007 5.35042L56.2311 5.34388C56.1826 6.23733 56.2311 7.14023 56.1989 8.0355L56.0883 8.03041V3.36914C55.9709 4.47114 55.9411 5.57315 55.9039 6.67552C55.8962 6.90442 55.8425 7.13115 55.8117 7.35896V6.54218L55.6787 6.53455C55.6209 6.9255 55.5631 7.31669 55.5051 7.70813C55.4725 7.51992 55.4268 7.33353 55.4102 7.1435C55.3576 6.54835 55.3137 5.95175 55.2679 5.35624C55.251 5.35624 55.2372 5.35842 55.2141 5.35914V9.38894H55.0912C55.0952 7.71249 55.1048 6.03604 55.0995 4.3596C55.0995 4.1416 55.0298 3.92614 54.992 3.70922C54.9053 4.67425 54.9121 5.62038 54.8998 6.56616C54.8971 6.79361 54.8384 7.02033 54.8036 7.24742L54.697 6.30092L54.6236 6.314C54.5849 6.73983 54.5463 7.16554 54.5078 7.59113C54.4752 7.36405 54.423 7.13805 54.4156 6.90951C54.4002 6.50693 54.4113 6.10326 54.4113 5.69996L54.2776 5.69596C54.128 6.79433 54.2638 7.91632 54.148 9.01942L54.0014 3.83239C53.9092 4.88099 53.9136 5.92704 53.9037 6.97309C53.9013 7.22453 53.8466 7.47559 53.8158 7.72702C53.7799 7.52573 53.7197 7.32735 53.7123 7.12352C53.6963 6.6846 53.7074 6.24424 53.7074 5.80423H53.6014C53.6014 6.09163 53.6091 6.3794 53.5928 6.66535C53.5903 6.7064 53.4699 6.73801 53.4057 6.77435C53.3722 6.54654 53.3135 6.31981 53.3104 6.09127C53.2972 5.44852 53.3058 4.80542 53.3058 4.16231H53.2324C53.1789 5.42018 53.1256 6.67794 53.0723 7.93558L53.001 7.93267V7.34842C53.001 5.82458 53.0029 4.3011 52.9973 2.77762C52.9973 2.59123 52.954 2.4052 52.9313 2.21917L52.7998 2.24061V2.82195C52.7998 4.00898 52.8053 5.19637 52.7961 6.38267C52.7961 6.58977 52.7346 6.79651 52.7011 7.00325C52.6753 6.12543 52.6496 5.2476 52.624 4.36977H52.5251C52.4841 5.40601 52.4422 6.44238 52.3994 7.47886C52.3653 7.25214 52.3039 7.02614 52.3023 6.79942C52.2934 5.33407 52.2983 3.86836 52.2983 2.40302V1.66871C52.1702 2.7511 52.1204 3.83203 52.1017 4.91369C52.083 5.99535 52.0974 7.07992 52.0974 8.16339L52.0286 8.16158C51.9776 6.15304 51.9264 4.14462 51.875 2.13633H51.7858V7.21217H51.7201C51.6675 6.19482 51.6148 5.17651 51.5622 4.15722H51.5361C51.4898 4.90497 51.4436 5.65284 51.3975 6.40084C51.2024 5.29992 51.4374 4.17284 51.1385 3.09118C51.1085 3.16344 51.0931 3.24289 51.0933 3.32336C51.0583 4.56634 51.0263 5.80968 50.9852 7.0523C50.9802 7.20164 50.9216 7.34806 50.8896 7.49594V3.10499H50.7904C50.7904 3.71613 50.8106 4.32835 50.7876 4.9384C50.7645 5.54844 50.9 6.18974 50.5906 6.77944V3.66744H50.5329C50.4837 4.34567 50.435 5.0233 50.3866 5.70032C50.2106 4.9126 50.4198 4.08855 50.0677 3.32517V7.4309L49.8969 7.43345C49.8686 5.87472 49.9003 4.31273 49.8253 2.75473C49.7436 3.73865 49.7178 4.72221 49.6815 5.70541C49.6729 5.93431 49.62 6.1614 49.5893 6.38921V4.5191L49.4612 4.52201V6.97818C49.0129 5.99717 49.2609 4.93149 49.0989 3.91415C48.9109 5.53863 49.0332 7.17439 48.9183 8.80178C48.8773 7.36804 48.835 5.93443 48.7914 4.50094H48.6716V6.42663C48.5861 6.23116 48.5794 6.03822 48.5794 5.84529C48.5794 4.71894 48.5861 3.58896 48.5751 2.46079C48.5723 2.18938 48.5136 1.91832 48.4786 1.64727L48.4132 1.65963C48.3722 3.09021 48.3312 4.52056 48.2903 5.95066H48.2162C48.1685 4.9149 48.121 3.87902 48.0737 2.84302H47.9769V3.40293C47.9769 5.10517 47.9812 6.80705 47.9735 8.50929C47.9735 8.80178 47.9188 9.09427 47.8893 9.38676C47.8781 9.42325 47.8781 9.46326 47.8893 9.49975C47.8739 9.55825 47.8586 9.61675 47.8162 9.78134C47.7882 9.56952 47.7753 9.4765 47.7649 9.38167V4.05512H47.6579V6.64137C47.5086 5.45361 47.7003 4.24696 47.4069 3.07483C47.3728 4.23752 47.3783 5.4002 47.3688 6.55998C47.367 6.78598 47.3074 7.01161 47.2766 7.23724C47.2766 6.70241 47.2972 6.16576 47.2702 5.63274C47.2127 4.49476 47.1304 3.3586 47.0585 2.22135C47.001 2.29729 46.9706 2.39667 46.9737 2.49858C46.9436 4.8317 46.9143 7.1647 46.8858 9.49757L46.849 10.0062H46.7943C46.7829 9.79951 46.7728 9.59241 46.762 9.3853V5.36278H46.6554V6.16794L46.5445 6.16576C46.5099 4.42173 46.4747 2.6777 46.4391 0.933676H46.3672V6.66825H46.271V2.36523L46.1752 2.36341V3.56243C46.079 3.39384 46.0458 3.32299 46.0074 3.25214L45.8977 3.2496V5.44307L45.8095 5.43363C45.7613 5.07538 45.7097 4.71676 45.6617 4.35814C45.628 4.36142 45.6003 4.36469 45.5564 4.36796V7.02033H45.4494V2.03278L45.3428 2.03532V2.95893C45.3216 2.95893 45.3121 2.95638 45.2964 2.95493C45.2419 2.28057 45.1874 1.6061 45.1327 0.931496H45.0632V1.51756C45.0632 3.1217 45.0669 4.72548 45.0583 6.32962C45.0583 6.55562 44.9969 6.78089 44.9618 7.00652L44.9581 5.23161L44.8183 5.22689C44.7594 5.78788 44.7006 6.349 44.642 6.91024C44.6156 6.90806 44.5851 6.90624 44.5639 6.90406V5.20109L44.5025 5.18801C44.4745 5.28575 44.446 5.38349 44.418 5.48159H44.3436C44.2724 3.85044 44.2007 2.21953 44.1286 0.588867C44.1003 2.39466 44.1015 4.19537 43.6748 5.92268C43.6631 5.82204 43.644 5.68143 43.6152 5.42709C43.5537 5.99063 43.5061 6.43063 43.4529 6.87027V1.68034H43.2821V6.42155H43.1432V3.53555C43.0154 4.73456 43.1687 5.96156 42.7822 7.08464C42.7346 5.44962 42.6882 3.77426 42.6393 2.1069H42.5352V6.05276H42.4286V4.63247L42.3831 4.63501C42.33 5.31034 42.2771 5.98554 42.2242 6.66062C42.1456 6.46297 42.1573 6.26822 42.1425 6.07638C42.1278 5.88453 42.0878 5.70141 42.0586 5.51393L41.9456 5.52483C41.895 5.71594 41.8438 5.90706 41.7919 6.09818L41.6945 6.09563C41.6681 5.59665 41.6418 5.09766 41.6156 4.59868C41.54 5.32535 41.5474 6.04912 41.536 6.77326C41.5323 7.0018 41.4789 7.22925 41.4484 7.45706C41.4122 5.42406 41.3754 3.39118 41.3381 1.35842C41.3326 1.25911 41.3223 1.16025 41.3074 1.0623L41.2315 1.06884V6.41246H41.1747C41.1384 4.94215 41.1025 3.47148 41.0668 2.00044L40.9541 2.00262V9.38785C40.943 9.42388 40.943 9.46336 40.9541 9.49939C40.9387 9.56043 40.9233 9.62184 40.8794 9.79442C40.8511 9.57642 40.8382 9.47904 40.8259 9.38349C40.8299 8.88898 40.8364 8.39448 40.8373 7.89961C40.8373 7.16748 40.8176 6.43463 40.841 5.70323C40.865 4.95693 40.3608 4.37704 40.4001 3.63219C40.4016 3.59804 40.3362 3.55953 40.2296 3.45052V6.90224H40.1475C40.0969 5.46633 40.0466 4.03066 39.9964 2.59522H39.969C39.9158 3.82525 39.863 5.05503 39.8108 6.28457L39.7186 6.28093V1.04885H39.6572C39.604 2.20355 39.5506 3.35824 39.4925 4.61939C39.431 4.06566 39.3837 3.6242 39.3358 3.18274C39.298 2.7104 39.42 2.21227 39.1103 1.64836V5.68143L39.0248 5.67961V1.89834L38.9659 1.89471C38.9136 2.65312 38.861 3.41128 38.8079 4.16921L38.7597 4.17321C38.7361 4.00752 38.7126 3.84172 38.689 3.67579C38.6091 4.06021 38.7197 4.50784 38.583 4.79161C38.3802 5.21671 38.4331 5.62256 38.4251 6.03931C38.4097 6.85101 38.4269 7.66344 38.4186 8.47586C38.4165 8.68769 38.3701 8.89879 38.3437 9.11062C38.3366 8.538 38.3406 7.96501 38.3188 7.39312C38.2976 6.8343 38.2521 6.2773 38.2162 5.71921L38.1151 5.72648V7.48831L38.0558 7.49122C37.9997 6.92756 37.9435 6.3639 37.8874 5.80024L37.8164 5.8046V7.85928H37.7608C37.7104 6.73535 37.6604 5.61142 37.6106 4.48749H37.507V6.18574L37.4428 6.18138C37.4262 6.10544 37.409 6.02914 37.3927 5.9532C37.3682 5.71958 37.347 5.48522 37.3172 5.25269C37.2864 5.00198 37.2428 4.75237 37.2062 4.50239C37.1688 4.50711 37.1334 4.51147 37.0907 4.5162V6.51456L37.0532 6.50984C37.0024 5.57121 36.9522 4.63259 36.9027 3.69396C36.8142 5.08155 36.8206 6.46515 36.8105 7.84802C36.8105 8.04531 36.7377 8.24187 36.7057 8.4388V4.87372H36.6348C36.6222 5.15713 36.6089 5.44053 36.5905 5.85474C36.5266 5.62402 36.4983 5.52773 36.4716 5.42818L36.388 5.43181C36.3229 6.39781 36.2576 7.36381 36.192 8.3298L36.094 8.34252C36.0181 7.88944 35.9425 7.43635 35.8596 6.94221L35.7447 7.34188C35.6878 6.10653 35.6365 4.95329 35.5833 3.80006L35.5105 3.80296V6.1683C35.0518 6.15413 35.3114 5.63673 35.1372 5.40529C35.0976 5.45834 35.0377 5.50048 35.0374 5.54336C35.0275 6.82376 35.0229 8.10417 35.018 9.38458C35.0051 9.5815 34.9921 9.77843 34.979 9.97536L34.9225 9.96955L34.8917 9.38458C34.893 7.6609 34.893 5.93746 34.8917 4.21426C34.8917 4.16013 34.861 4.10526 34.8398 4.05294C34.8301 4.03704 34.8163 4.0253 34.8005 4.01951C34.768 4.00891 34.7349 4.00102 34.7015 3.9959C34.7015 4.8541 34.708 5.70359 34.6972 6.54944C34.6942 6.77689 34.6373 7.00362 34.6051 7.2307C34.6029 6.77653 34.6207 6.32054 34.59 5.86927C34.5746 5.644 34.4693 5.42709 34.4057 5.20618C34.3611 5.21817 34.3135 5.23016 34.2714 5.24251V7.26013C34.2312 7.21365 34.2045 7.15339 34.1949 7.08791C34.1821 7.04521 34.1665 7.00378 34.1482 6.96401L34.0757 6.97164L33.9623 8.31164L33.9337 8.30655C33.8821 7.47257 33.8309 6.63882 33.7801 5.80532C33.6978 6.65299 33.7045 7.49776 33.6935 8.34216C33.6904 8.56815 33.632 8.7927 33.5991 9.0176L33.507 5.81077L33.3607 5.8046C33.3384 6.2033 33.3158 6.60164 33.2931 6.99962C33.0064 6.9473 33.0992 6.67261 33.0949 6.48259C33.0817 5.90742 33.09 5.33153 33.09 4.75564L32.9462 4.7491C32.9186 5.22871 32.8912 5.70819 32.8642 6.18756H32.7987V4.02787H32.7106C32.6583 5.33589 32.6062 6.64294 32.5542 7.94902L32.5311 7.94575C32.4813 6.75449 32.4317 5.56298 32.3821 4.37123L32.2365 4.36396C32.1249 5.12152 32.2438 5.90524 32.0828 6.6668V5.58623L32.0214 5.58841C31.9864 6.30491 31.9538 7.02142 31.9191 7.73792L31.7848 7.73247V5.09827C31.6462 5.90524 31.6619 6.73802 31.3789 7.4963C31.3412 7.49085 31.3049 7.48577 31.2622 7.48032V6.29765C31.2087 6.08255 31.1165 5.87218 31.088 5.65163C31.0336 5.23452 31.0124 4.81123 30.9774 4.39085C30.8892 4.56488 30.8923 4.87045 30.8388 4.88462C30.4431 4.99145 30.6093 5.32862 30.5964 5.59204C30.5475 5.60912 30.4572 5.64545 30.4557 5.64073C30.3921 5.44489 30.2971 5.24796 30.2873 5.04558C30.2633 4.55544 30.2796 4.06239 30.2796 3.57043C30.2469 3.59465 30.2204 3.62881 30.2027 3.66933C30.185 3.70986 30.1769 3.75526 30.1791 3.80078C30.1721 4.31491 30.2934 4.89407 30.134 5.32935C29.8405 6.13742 29.8943 6.94875 29.8713 7.76844C29.8673 7.92795 29.8307 8.08637 29.8098 8.24551C29.7643 8.24151 29.7256 8.23751 29.6725 8.23352V5.94957L29.5871 5.95175V9.38312H29.4589V8.04785C29.3843 8.23751 29.3628 8.2902 29.3121 8.41591C29.2457 7.94357 29.1892 7.53191 29.132 7.1217C29.1056 7.12424 29.0749 7.12679 29.0534 7.12933V8.30764C28.9683 7.83167 28.9858 7.35823 28.9664 6.88698C28.9483 6.44262 29.0534 5.97464 28.8893 5.55208L28.7664 5.56152V6.90079H28.7099C28.6103 6.11331 28.5112 5.32608 28.4124 4.53909L28.3608 4.54236V6.78053C28.2647 6.43208 28.2856 6.08146 28.2647 5.73375C28.245 5.40202 28.186 5.07356 28.1335 4.65754C27.9202 5.50557 28.3178 6.35578 27.8112 7.10571C27.7771 6.94039 27.7531 6.82667 27.7328 6.7282C27.3712 7.24306 27.4735 7.84838 27.4637 8.43117C27.4584 8.74764 27.4597 9.06447 27.4578 9.38131C27.4286 9.3857 27.3989 9.3831 27.3706 9.37368C27.2792 8.71967 27.1876 8.06626 27.0959 7.41346L26.973 7.41564V9.01433L26.8449 9.01034V6.06366H26.7892C26.7137 6.45655 26.6375 6.84847 26.5607 7.23942C26.556 7.12134 26.5914 6.95856 26.5404 6.89171C26.2946 6.5756 26.3926 6.19482 26.3517 5.83802C26.3173 5.53609 26.2101 5.24651 26.1625 4.94494C26.1336 4.76327 26.1572 4.57106 26.1572 4.38358L26.0423 4.37341C26.0141 4.59686 25.9652 4.82031 25.9615 5.04486C25.9489 5.83584 25.952 6.6272 25.9465 7.41855C25.9465 7.44108 25.9136 7.4636 25.912 7.46506L25.6282 7.05121C25.539 7.53191 25.4776 7.87309 25.406 8.25677C25.3486 7.76227 25.2954 7.31463 25.2435 6.867C25.2088 6.86991 25.182 6.87281 25.1381 6.87608V8.08891H25.0422V6.88626L24.9949 6.88844C24.9516 7.20963 24.9095 7.53118 24.8662 7.85238L24.7328 7.83421V6.77617L24.6714 6.77944C24.6554 7.01452 24.6406 7.2496 24.6262 7.48468C24.5955 7.48286 24.5623 7.48104 24.5408 7.47923V6.29038L24.4717 6.2922C24.4572 6.57306 24.4409 6.85356 24.4265 7.13442C24.3445 6.66426 24.3054 6.19628 24.2375 5.73447C24.2246 5.64582 24.0953 5.58078 24.02 5.50521C23.9739 5.58986 23.9278 5.67416 23.8796 5.76281C23.8154 5.61348 23.7533 5.47214 23.6919 5.32681C23.6691 5.33226 23.6445 5.33807 23.6233 5.34388V7.12243L23.5653 7.12025C23.5501 6.95529 23.5352 6.79034 23.5204 6.62538C23.2402 7.53373 23.3726 8.46533 23.3548 9.38676C23.3434 9.4231 23.3434 9.46305 23.3548 9.49939C23.345 9.77359 23.3347 10.0479 23.3241 10.3224C23.2915 10.0092 23.2591 9.69608 23.2267 9.38312V6.34452L23.0749 6.33435C23.0559 6.7626 23.0369 7.19086 23.0181 7.61911L22.9744 7.61548C22.9495 7.51738 22.9244 7.41928 22.8902 7.28484C22.8488 7.42691 22.8211 7.52392 22.7929 7.62129L22.7249 7.61039V5.09972C22.6942 5.095 22.6684 5.08991 22.6401 5.08519C22.5033 5.56964 22.3665 6.05518 22.2297 6.54181C21.8997 5.74973 22.1286 4.86464 21.9965 3.9919C21.9313 4.24333 21.8754 4.45443 21.8207 4.66517L21.7236 4.64773V2.83721L21.6063 2.82849C21.5814 3.07047 21.5368 3.31246 21.5356 3.55517C21.5282 4.8432 21.5322 6.13088 21.5322 7.41891V7.95266C21.5015 7.95266 21.4575 7.95011 21.4148 7.94866V4.50021H21.3691C21.3214 5.6629 21.2769 6.82558 21.2259 8.03513C20.7484 7.73829 21.0391 7.23579 20.8762 6.88335C20.8129 7.10135 20.7533 7.29574 20.6962 7.49194C20.6694 7.48831 20.6467 7.48504 20.6148 7.48177V5.45398L20.549 5.44853C20.4488 5.68724 20.3478 5.92632 20.2092 6.26277V5.22071C19.7609 5.27739 20.0393 4.76363 19.9019 4.63937C19.8055 4.65354 19.693 4.6757 19.6918 4.66989C19.6611 4.49839 19.6303 4.32472 19.6263 4.15032C19.6177 3.71831 19.6236 3.28557 19.6236 2.8532L19.5581 2.85719C19.5044 3.49304 19.4503 4.12888 19.3919 4.81922L19.2383 4.52855C19.1851 5.83984 19.1354 7.07192 19.0847 8.30328L19.0321 8.30037C19.0233 8.06905 19.0145 7.83748 19.0057 7.60567L18.9442 7.60349C18.9305 7.92541 18.9166 8.24708 18.9025 8.56852H18.841C18.8263 8.28366 18.8114 7.99892 18.7965 7.71431H18.7153V8.90388H18.6084V6.20354L18.5488 6.20718C18.4947 6.90769 18.4403 7.60833 18.3854 8.30909L18.3469 8.30292C18.154 6.6054 17.9602 4.90788 17.7656 3.21036H17.6993V8.0751C17.6703 8.0479 17.6472 8.01307 17.6316 7.97338C17.6161 7.9337 17.6086 7.89026 17.6099 7.84656C17.5752 5.79006 17.5412 3.73369 17.5079 1.67743C17.5057 1.55535 17.4891 1.43363 17.479 1.31155C17.4098 1.80787 17.4138 2.30019 17.4074 2.79215C17.4055 2.92477 17.3816 3.16748 17.3496 3.17148C16.9944 3.21871 17.114 3.53482 17.1124 3.75282C17.1038 5.0801 17.1087 6.40774 17.1066 7.73538C17.1066 7.88508 17.0921 8.03477 17.0842 8.18447C17.0073 7.98172 17.0138 7.78479 17.0055 7.58968C16.9972 7.39457 16.9748 7.20999 16.9573 7.02033L16.8242 7.03632V8.43481C16.2589 7.6093 16.6429 6.72203 16.419 5.94739V9.38312C16.4082 9.6262 16.3959 9.86927 16.3842 10.1123H16.3228C16.3134 9.86842 16.3027 9.62535 16.2908 9.38312C16.2936 8.73093 16.3468 8.0751 16.257 7.43018L16.1311 7.43381C16.1139 7.57551 16.0954 7.71721 16.0779 7.85855L15.9919 7.85092V4.49331H15.9068V5.47723L15.8499 5.47905C15.7995 5.11571 15.751 4.756 15.7006 4.39448L15.5971 4.40756V5.81731H15.5381C15.4846 4.5558 15.4305 3.29417 15.3758 2.03241L15.2877 2.03641V6.0593C15.1064 5.40238 15.3454 4.68479 15.0268 4.05439C14.9961 5.14441 15.0016 6.23443 14.9924 7.32117C14.9906 7.52864 14.9334 7.73574 14.9021 7.94285C14.8849 7.78903 14.8678 7.63546 14.8508 7.48213C14.5183 8.14523 14.6117 8.83303 14.6034 9.50775C14.5619 9.46633 14.5195 9.42491 14.4768 9.38312V5.36169H14.3936C14.3475 5.91106 14.3005 6.46079 14.2525 7.01088H14.2175L14.1641 6.29474L14.1121 6.29947C14.0998 6.58432 14.0876 6.8693 14.0756 7.1544L13.9994 7.19873C13.9659 7.08973 13.933 6.98073 13.8995 6.87427C13.8608 6.90442 13.8162 6.93494 13.7843 6.9651V7.83711L13.7007 7.84038C13.6188 6.42191 13.5375 5.00344 13.4568 3.58496C13.4313 3.58496 13.4002 3.5875 13.379 3.58896V6.54072H13.3041V5.39875C13.1335 5.26867 13.0275 5.18074 12.888 5.0761V7.94139C12.8026 7.35133 12.7224 6.76127 12.6352 6.1316C12.4923 6.62647 12.7172 7.1613 12.3759 7.58132V4.27785C12.2904 4.56198 12.374 4.95584 12.2459 5.11135C12.0001 5.41074 12.013 5.72721 12.0022 6.06656V7.55625C11.4581 7.42037 11.8111 6.90624 11.6077 6.59704C11.5887 6.92077 11.5709 7.20636 11.554 7.49194L11.4474 7.48686C11.4139 6.21226 11.3801 4.93767 11.3515 3.84547L10.7782 8.34434L10.706 8.33598C10.683 8.1204 10.6598 7.90482 10.6362 7.68924L10.4989 7.68669L10.4629 9.50956L10.3923 9.50012C10.3815 9.46378 10.3704 9.42563 10.3597 9.38821C10.3511 8.81704 10.442 8.23533 10.305 7.67725L10.1775 7.68161V9.04195L10.0816 9.03904V8.0057C9.9323 8.07038 9.83921 8.11471 9.72675 8.16521C9.68312 7.91778 9.64503 7.70668 9.60785 7.49521L9.49908 7.50684C9.48126 7.8531 9.4616 8.19973 9.43763 8.65935C9.26865 8.086 9.51567 7.55298 9.14236 7.13914V7.95411L9.08091 7.95048C9.06985 7.7441 9.05941 7.53736 9.04835 7.33062L8.95924 7.31899C8.87752 7.80805 8.79609 8.29674 8.71344 8.79815L8.42524 8.65971C8.3893 8.83048 8.36011 8.96855 8.33061 9.10698C8.30818 9.0652 8.28575 9.02342 8.26302 8.982L8.04118 9.06847C7.94286 8.92604 7.87066 8.71858 7.7665 8.69351C7.59229 8.65099 7.5459 8.21063 7.28904 8.48168C7.15323 7.98136 6.93539 8.33017 6.82232 8.46097C6.49602 8.83957 6.21213 9.10153 5.95342 9.15422L5.63235 8.75745L5.50146 9.02959C5.14505 8.81159 5.04519 8.83085 4.63962 8.99326C4.38245 9.09572 4.09671 9.1931 3.83401 9.16367C3.2401 9.0979 2.65694 9.13351 2.06979 9.22471C1.90384 9.24858 1.73587 9.24478 1.57081 9.21344C1.22823 9.15131 0.894864 9.02632 0.548901 9.22979C0.46963 9.27412 0.328295 9.17747 0.22168 9.14622V9.62147C0.713279 9.80823 1.19505 9.81259 1.69648 9.65781C1.91432 9.58986 2.1595 9.62511 2.39055 9.64545C2.49563 9.6549 2.64281 9.70831 2.68828 9.79951C2.80841 10.0404 2.96972 9.95974 3.12304 9.92632C3.51447 9.84057 3.90345 9.73847 4.29397 9.64727C4.50904 9.59713 4.67373 9.64255 4.78249 9.91905C4.82551 10.028 5.05902 10.1621 5.09681 10.1262C5.37948 9.8511 5.73343 10.2148 6.01518 9.96083C6.05205 9.9274 6.19308 10.0553 6.22841 10.0753L6.72892 9.53863C6.85182 9.96119 6.94092 10.2719 7.03617 10.5985C7.05061 10.4575 7.06505 10.3162 7.09024 10.0687C7.14248 10.2675 7.16644 10.3572 7.1984 10.4786C7.33144 10.4655 7.51548 10.1033 7.61073 10.6683L7.68785 10.1501L7.76619 10.0916C7.77111 10.1719 7.77756 10.2522 7.78279 10.3325C7.80921 10.3104 7.83102 10.2882 7.86298 10.266V9.97536C7.91644 10.2264 7.96898 10.4779 8.05132 10.863C8.12383 10.5629 8.16715 10.3805 8.24028 10.0767C8.26179 10.4426 8.27561 10.6813 8.2876 10.8844L8.9021 10.04C8.97553 10.3947 9.04159 10.7242 9.1098 11.0541L9.17585 11.0407V9.51029H9.2201L9.26404 9.51465C9.32057 10.028 9.15435 10.5771 9.48526 11.0541V10.0767H9.52458C9.57528 10.5611 9.62567 11.0454 9.68097 11.5711C9.78913 11.1584 9.87915 10.8129 9.96948 10.4677C10.0177 10.9426 10.0675 11.4178 10.1157 11.8927H10.1772V10.6828L10.2386 10.6806C10.2948 11.1166 10.3508 11.5526 10.4067 11.9886C10.4681 11.6198 10.4556 11.2532 10.4728 10.8884C10.4872 10.5854 10.5376 10.2849 10.5723 9.98336C10.6276 10.4433 10.4113 10.9735 10.8329 11.3528C10.8958 11.0934 10.9558 10.8376 11.0172 10.5818C11.0436 10.5869 11.0728 10.592 11.094 10.5967V12.3916C11.4034 11.9349 11.1822 11.4004 11.3324 10.8626C11.3924 11.6336 11.448 12.3454 11.5033 13.0568L11.5954 13.0507V11.8764L11.6913 11.8789V13.4391H11.7875V11.6402H11.8643C11.876 11.8469 11.887 12.0537 11.8987 12.2604C11.9823 12.0322 11.9706 11.8037 11.9847 11.577C12.0053 11.25 12.0434 10.923 12.0769 10.5959V13.1895H12.2112C12.2317 11.9221 12.2521 10.6548 12.2726 9.38748C12.2852 9.26031 12.2981 9.13315 12.3107 9.0067H12.3663L12.3971 9.37731C12.4201 10.6127 12.2901 11.856 12.5562 13.0794C12.5814 12.8884 12.5917 12.6952 12.5869 12.502C12.5869 11.5937 12.5851 10.6821 12.5897 9.77189C12.5897 9.60004 12.6174 9.42854 12.6324 9.25704C12.6524 9.27967 12.671 9.30395 12.688 9.32971C12.6956 9.34727 12.7007 9.36617 12.7031 9.38567C12.7291 10.023 12.7551 10.66 12.7811 11.2968H12.8549C12.912 10.8192 12.9689 10.3415 13.0254 9.86382L13.1142 9.87254V12.3988C13.2315 11.8934 13.3357 11.4618 13.4279 11.0719C13.5867 11.6943 13.752 12.3436 13.9176 12.9933C14.027 12.806 14.0874 12.5849 14.0912 12.3574C14.1026 11.8629 14.0869 11.367 14.1017 10.8724C14.1103 10.584 14.1601 10.2966 14.192 10.0088V14.1309H14.2701C14.3238 13.1789 14.3751 12.2266 14.4289 11.2747H14.5014V13.1764H14.6114C14.6415 12.315 14.6722 11.4537 14.7036 10.5923C14.7859 11.0625 14.8689 11.5326 14.9577 12.0384C15.0041 11.1242 15.048 10.2519 15.0923 9.37949C15.1041 9.18571 15.1162 8.99193 15.1285 8.79815L15.1847 8.80178C15.1944 8.99556 15.2046 9.18934 15.2155 9.38312V13.6742C15.3543 12.9148 15.2665 12.1449 15.4757 11.3775C15.6435 10.7598 15.5842 10.0578 15.6256 9.3933L15.6542 9.39511H15.6831C15.6902 10.0277 15.6895 10.661 15.7098 11.2932C15.715 11.4567 15.7574 11.7317 15.8327 11.7579C16.057 11.8364 15.9999 12.0159 16.0023 12.175C16.0088 12.591 16.0045 13.0074 16.0045 13.4238L16.0758 13.4162L16.1372 13.1673L16.2386 13.1782V16.2902H16.3879V11.8967L16.516 11.8996V15.4447L16.5849 15.4505C16.6807 14.6904 16.776 13.9303 16.8703 13.1847L17.0089 13.4551C17.063 12.8599 17.1075 12.365 17.1524 11.8727H17.1889C17.2024 12.1956 17.2159 12.5185 17.2292 12.8414C17.5057 11.6976 17.3846 10.5367 17.4003 9.38385L17.431 8.65172H17.4925L17.5232 9.38603C17.5383 10.5004 17.5558 11.6147 17.5705 12.7287H17.7202V10.0836H17.816V13.18L17.9309 13.1836C17.9712 12.5878 18.009 11.9923 18.0492 11.3967H18.115V14.1283H18.1844C18.205 13.9336 18.2287 13.7385 18.2492 13.5437L18.339 13.551V15.186L18.3755 15.1791C18.4228 14.8263 18.4677 14.4735 18.5147 14.1207L18.6272 14.1312V15.1965L18.7338 15.1944V13.5205C18.8084 13.7138 18.8364 13.7799 18.868 13.8591L18.974 13.5855L19.0638 13.854L19.1765 13.8449C19.2785 12.6183 19.1821 11.3815 19.2291 10.1519C19.2598 10.3601 19.3123 10.568 19.3145 10.7769C19.324 11.6631 19.3185 12.5493 19.3185 13.4354C19.6687 12.3392 19.4291 11.1936 19.5677 9.95684C19.7262 10.9437 19.4703 11.8535 19.8116 12.6957V7.9661L19.9397 7.96828V13.1702L20.0513 13.1727C20.0922 12.5163 20.1343 11.8598 20.1775 11.2031C20.4276 11.7056 20.1745 12.2778 20.5373 12.8708V11.0516C20.6224 11.5239 20.6126 11.9963 20.6366 12.4661C20.6596 12.9159 20.5158 13.3944 20.8252 13.8104V12.4639C21.1242 13.3915 21.1417 14.3558 21.1359 15.3237L21.2415 15.3183V13.4409C21.327 13.6393 21.3718 13.7279 21.4502 13.9009C21.4923 13.7312 21.5233 13.6607 21.5251 13.5899C21.5602 12.1888 21.5929 10.7878 21.6235 9.38676L21.7464 9.5023C21.7657 10.7351 21.6268 11.9766 21.9362 13.1982V10.5709H22.0324V14.2726C22.0751 14.2744 22.1246 14.2758 22.1713 14.2773C22.2174 12.9598 22.2665 11.6424 22.3126 10.3249L22.4484 10.3293V13.3141H22.4939C22.5341 13.1477 22.5735 12.9809 22.6137 12.8141C22.6515 12.8196 22.6832 12.825 22.7259 12.8305V14.6236H22.8432V12.1082L22.924 12.1063C22.9367 12.3118 22.9494 12.5176 22.9621 12.724H23.046V11.634L23.1425 11.6358V15.5512H23.2691C23.2924 14.3725 23.3146 13.1938 23.345 12.0155C23.3508 11.7852 23.3984 11.5559 23.4304 11.3252V13.6705L23.5103 13.6723C23.6114 12.9943 23.7118 12.3167 23.8209 11.5864C23.8387 11.9901 23.8562 12.3494 23.8722 12.7128L23.9644 12.7077V10.3278H24.0498V14.2635L24.1282 14.2693C24.207 13.6652 24.2859 13.061 24.3647 12.4566L24.4348 12.47C24.4455 12.5874 24.456 12.7048 24.4655 12.8221C24.499 13.1437 24.5303 13.4656 24.5638 13.7872L24.656 13.7799V11.8865C24.8373 13.1858 24.6026 14.5084 24.9547 15.7942V14.2682C25.0401 14.4092 25.068 14.4633 25.1479 14.6039C25.1479 13.6814 25.1427 12.8563 25.1538 12.0311C25.1565 11.8248 25.2152 11.6198 25.2493 11.4135C25.3003 12.4552 25.0708 13.5444 25.6552 14.5981C25.8316 13.1618 25.9919 11.8139 26.1535 10.5233V13.3174H26.2055C26.2571 12.9177 26.3083 12.518 26.3591 12.1183C26.6196 12.2637 26.5407 12.5489 26.5597 12.7941C26.5828 13.0881 26.6095 13.3817 26.6335 13.6756L26.7822 13.6633V10.9571L26.878 10.9604V15.0723C26.9954 14.7322 27.0317 14.3863 27.0642 14.0411C27.0771 13.9092 27.0931 13.7777 27.1082 13.6458C27.1279 13.6688 27.1466 13.6931 27.1641 13.7185C27.1718 13.7359 27.1773 13.7547 27.1804 13.7741C27.2459 14.338 27.3113 14.9016 27.3764 15.4651L27.4495 15.4574L27.4827 14.9487H27.5254C27.5561 15.1075 27.5893 15.2663 27.6204 15.4254L27.7433 15.42V12.0115H27.8336C27.8864 13.2367 27.9365 14.4619 27.9894 15.6871H28.0739V10.8103C28.2127 11.5177 28.1046 12.247 28.2647 12.946C28.5169 11.965 28.1273 10.8986 28.6715 9.85764V13.2004H28.7676V12.3382L28.8235 12.3327C28.8832 12.5868 28.9427 12.8411 29.0021 13.0957L29.0595 13.0859L29.0982 12.1412H29.2325C29.2905 13.0079 29.3482 13.8745 29.4058 14.7409H29.4718V13.402C29.5253 13.3969 29.5695 13.3922 29.6178 13.3871C29.6497 13.836 29.6817 14.2841 29.7136 14.7315L29.7677 14.7257C29.8187 13.8929 29.8699 13.0601 29.9213 12.2273H29.941C29.9797 12.8225 30.0209 13.4176 30.0596 14.0128L30.2089 14.0026V11.8902L30.2944 11.8931V13.4656L30.4191 13.4787C30.4787 12.7435 30.5385 12.0086 30.5985 11.2739L30.66 11.2768C30.7126 12.146 30.766 13.0165 30.8201 13.8885L30.8686 13.886V9.38312C30.8686 9.10408 30.8671 8.82503 30.8671 8.54744C30.9095 8.82649 30.9516 9.10577 30.9933 9.3853C30.9933 9.89943 30.982 10.4139 30.9915 10.9277C31.001 11.4414 30.942 11.9606 31.0447 12.5089C31.1777 12.3854 31.2527 12.3182 31.402 12.1787V15.436H31.4982V13.6669L31.586 13.6625C31.6714 14.1843 31.7571 14.7059 31.8429 15.2274C32.0733 14.4582 31.963 13.6694 31.983 12.8923C32.003 12.1151 31.9876 11.3448 31.9876 10.5709L32.0896 10.5727C32.0896 11.5581 32.0847 12.5438 32.0936 13.5292C32.0954 13.7396 32.1477 13.9496 32.1772 14.1596L32.2985 14.1429V11.8753C32.4801 13.0627 32.4801 13.0627 32.6934 13.3373V9.50884L32.7413 9.50193L32.7895 9.50702V14.2613L32.9551 14.2682C33.0455 13.1669 32.9567 12.0493 33.0129 10.9448L33.1204 10.9488V12.3658L33.1951 12.3603V11.8956C33.4716 11.8513 33.3794 12.1024 33.3908 12.2499C33.4424 12.8835 33.4854 13.5186 33.5346 14.2075C33.5961 13.9132 33.644 13.676 33.6925 13.4387C33.781 14.0201 33.8701 14.6036 33.9494 15.1253L34.2007 13.4176C34.2342 13.2414 34.2889 13.067 34.2969 12.8893C34.3123 12.5489 34.304 12.207 34.304 11.8658H34.4115V13.0892L34.4551 13.0866C34.5046 12.687 34.5504 12.2902 34.6035 11.892V15.5479H34.7166C34.7586 14.3707 34.8003 13.1935 34.8416 12.0162H34.9237V14.948L34.971 14.9448C35.0062 14.3876 35.0414 13.8299 35.0764 13.2716H35.1686L35.2328 13.5775C35.3133 13.2712 35.403 12.9297 35.4924 12.5885L35.5376 11.9854C35.6509 12.9606 35.7348 13.9281 35.8212 14.8953C35.8233 14.92 35.8491 14.9418 35.8808 14.992C35.902 14.7936 35.9198 14.6316 35.9373 14.4695C35.9656 14.4717 35.9911 14.4742 36.023 14.4764V17.5808C36.1084 17.3471 36.1026 17.1128 36.1097 16.8792C36.1404 15.8353 36.1588 14.7903 36.2154 13.7483C36.2495 13.123 36.345 12.5024 36.4129 11.88C36.4639 12.4766 36.5151 13.0733 36.5665 13.6702C36.581 13.6702 36.5997 13.6731 36.6102 13.6745V12.5845H36.7275V14.4862L36.8237 14.4815V11.7695C37.0053 12.3872 36.781 13.0659 37.1002 13.7661V8.32363L37.2284 8.32799V13.5481L37.2873 13.5506C37.3095 13.418 37.3322 13.2857 37.3657 13.0845C37.4124 13.2603 37.4379 13.3493 37.4616 13.4383C37.4898 13.4311 37.5166 13.4235 37.5485 13.4162V11.4287L37.5842 11.4331C37.6364 12.3778 37.6885 13.3224 37.7405 14.2671L37.7931 14.2609C37.8146 14.1745 37.8364 14.088 37.8579 14.0015L37.9326 14.0048V15.7198C37.9633 15.7227 37.9876 15.7259 38.0152 15.7288C38.0699 15.5922 38.1228 15.4556 38.1771 15.3194L38.242 15.3335V17.4572C38.5514 15.3321 38.3372 13.1898 38.5289 11.0625C38.5732 12.3669 38.6177 13.6715 38.6626 14.9764C39.0402 13.1273 38.8992 11.2518 38.9109 9.38494C38.9231 9.21538 38.9355 9.04449 38.948 8.87227H39.0033C39.0159 9.04304 39.0316 9.21344 39.0424 9.38421V15.2071H39.1345C39.17 14.149 39.205 13.0912 39.2396 12.0337C39.4584 11.7325 39.266 11.2343 39.6181 10.9724C39.6937 10.916 39.6455 10.6265 39.6544 10.4444C39.7281 11.4378 39.726 12.4254 39.7294 13.4129C39.7276 13.6697 39.737 13.9265 39.7576 14.1821C39.8805 15.529 40.0188 16.8741 40.1263 18.2224C40.166 18.7202 40.1346 19.226 40.1346 19.7281H40.2385V17.2124C40.2492 17.2124 40.2741 17.2105 40.2926 17.2094C40.3218 17.3046 40.3497 17.3995 40.3789 17.4943L40.4443 17.4834L40.5715 12.8436L40.6545 12.8457V15.3324L40.6852 15.327C40.8155 14.3416 40.9461 13.3564 41.077 12.3712C41.1025 12.3738 41.1224 12.3763 41.1547 12.3785V14.6152H41.2395V9.97355H41.2991C41.3507 11.5214 41.4019 13.0691 41.4527 14.6167L41.548 14.6145V12.5035C41.9855 13.0249 41.8107 13.6066 41.8337 14.1385C41.8577 14.6937 41.838 15.2514 41.838 15.808H41.9462V13.41L42.0218 13.4078C42.0832 14.0817 42.1447 14.7557 42.2061 15.4298C42.2543 15.4251 42.2983 15.4204 42.3524 15.4156V12.8312C42.3831 12.8312 42.4273 12.8334 42.4593 12.8348V16.7589H42.5066C42.5451 16.155 42.5838 15.5513 42.6227 14.9477L42.7303 14.9564C42.7422 15.1635 42.7543 15.3706 42.7668 15.5777L42.8344 15.5759C42.8446 15.3277 42.8556 15.0796 42.8652 14.8314H42.9493V15.9279L42.9902 15.9254C43.1057 14.8061 43.2215 13.6866 43.3374 12.5671L43.4603 12.5805V13.5677H43.5565V10.73C43.5872 11.137 43.6379 11.5432 43.6443 11.9505C43.6579 12.8032 43.6493 13.6564 43.6493 14.5095H43.7233L43.8865 11.7597L43.935 11.7623C43.9482 12.0108 43.9623 12.259 43.9756 12.5075L44.0677 12.5049V10.6911L44.1768 10.6933C44.2137 11.4876 44.2503 12.2816 44.2868 13.0754H44.3372C44.3489 12.869 44.3604 12.6631 44.3719 12.4577H44.4214L44.5808 15.8397C44.9406 14.4681 44.8226 13.0507 44.8681 11.6511L44.9747 11.6562V17.4569C45.0709 16.8835 44.9944 16.2942 45.081 15.7423C45.2654 14.5589 45.0746 13.3591 45.3228 12.1641C45.4974 11.3244 45.3496 10.3914 45.3459 9.49975C45.3579 9.46367 45.3585 9.42372 45.3477 9.38712C45.3594 9.10626 45.3739 8.82576 45.3855 8.5449L45.4657 8.54781V9.07319C45.4657 10.8519 45.4657 12.6306 45.4657 14.4096C45.4657 14.5654 45.4605 14.8503 45.494 14.8579C45.9441 14.9618 45.7444 15.376 45.7539 15.646C45.7813 16.4116 45.7631 17.1793 45.7631 17.9463L45.8615 17.9485V17.3272C45.8615 15.3894 45.8615 13.4523 45.8615 11.5159C45.8615 10.8833 45.8615 10.2508 45.8676 9.61857C45.8676 9.52446 45.9168 9.43145 45.9429 9.33807C45.9533 9.35333 45.9659 9.36823 45.9764 9.38349C45.8999 10.516 46.0639 11.6115 46.3945 12.6899V11.7779C46.4053 11.7797 46.4185 11.7812 46.4314 11.7826C46.4818 13.5104 46.5313 15.2381 46.5798 16.9656L46.672 16.9631V10.9182H46.7682V17.8217C46.884 17.1255 46.9488 16.4189 46.9617 15.7096C46.982 14.6403 46.9617 13.5699 46.9712 12.5002C46.9731 12.2935 47.0327 12.0878 47.0683 11.8825C47.1329 12.5296 46.884 13.24 47.387 13.8711V12.6325C47.4177 12.8428 47.4638 13.0532 47.4665 13.2643C47.4767 13.9968 47.4564 14.73 47.4754 15.4618C47.4917 16.09 47.5443 16.7164 47.5818 17.3439L47.6859 17.3384V10.5865H47.771V11.2318C47.771 13.192 47.7686 15.1519 47.7769 17.1121C47.7769 17.3904 47.8383 17.6683 47.869 17.9477L47.972 17.9365V17.3497C47.972 15.8451 47.9612 14.3402 47.9818 12.8359C47.9864 12.5184 48.1065 12.203 48.1735 11.8865C48.2073 12.8363 48.2412 13.7861 48.2752 14.7358L48.3317 14.7282C48.377 14.3075 48.4224 13.8868 48.4679 13.4663C48.5152 14.0106 48.5626 14.5548 48.6101 15.0988L48.6497 15.109C48.667 14.9351 48.6843 14.7613 48.7017 14.5876H48.7957L48.9186 15.9225C48.98 15.2892 48.9613 14.6603 48.9834 14.0331C49.0055 13.4155 48.8765 12.7803 49.1119 12.1249C49.4299 12.6797 49.1733 13.2785 49.3524 13.801C49.3832 13.5877 49.3721 13.374 49.3865 13.1633C49.4074 12.8577 49.448 12.5543 49.4787 12.2499C49.5137 13.8297 49.5489 15.4095 49.5841 16.9893C49.5824 17.0089 49.583 17.0287 49.5859 17.0481C49.6127 17.1375 49.6419 17.2254 49.6701 17.3141L49.7832 17.2941C49.7832 16.6074 49.7657 15.9196 49.7887 15.234C49.8075 14.6733 49.6624 14.0927 49.9832 13.5586C50.0938 13.3744 50.0775 13.0659 50.0815 12.8134C50.0935 12.0809 50.0834 11.3481 50.0898 10.6152C50.0898 10.4815 50.1322 10.3478 50.1544 10.2155C50.1992 10.221 50.2465 10.2261 50.2902 10.2315V14.2308L50.3968 14.2286V12.2379L50.4699 12.2335C50.5567 13.021 50.6436 13.8082 50.7304 14.5952C50.7544 14.5927 50.7808 14.5905 50.8023 14.588V10.4532C50.9624 11.7114 50.7596 12.9947 51.0905 14.2395V11.0479L51.1738 11.0367C51.3276 12.1725 51.4813 13.3084 51.6347 14.4444L51.7557 14.439C51.8153 13.7446 51.8786 13.0507 51.9367 12.3567H51.9963V14.3848H52.1088C52.1512 13.2708 52.1923 12.1565 52.2384 10.9448C52.2977 11.4847 52.3457 11.9258 52.3939 12.3661L52.4246 12.6074L52.4772 12.5972C52.4923 12.3618 52.5073 12.1265 52.522 11.8913L52.5746 11.8971C52.6512 12.9982 52.7275 14.0994 52.8035 15.2005C52.8293 15.1984 52.86 15.1962 52.8812 15.194V9.4983C52.8931 9.46193 52.8992 9.42323 52.899 9.38421L52.9488 9.38203L52.9986 9.38567V15.1729H53.1488C53.1742 13.6084 53.1993 12.044 53.2241 10.4797L53.2686 10.4833C53.303 10.9678 53.3374 11.4514 53.3716 11.9341L53.4702 11.9439C53.5316 11.7942 53.5938 11.6445 53.6567 11.4948L53.7436 11.4974C53.7748 12.2967 53.8055 13.0955 53.8358 13.8936H53.9053V11.2983C53.936 11.5036 53.9845 11.7074 54.0002 11.916C54.0533 12.6081 54.0957 13.3014 54.1418 13.9939L54.1864 13.9899L54.3093 11.6565C54.3612 11.775 54.4134 11.8934 54.5121 12.1176C54.5121 11.7488 54.4949 11.4956 54.5207 11.2489C54.5308 11.1519 54.6374 11.069 54.6998 10.9796C54.7539 11.7063 54.8074 12.433 54.8605 13.1597H54.9631V10.116H55.1017V14.0037L55.1908 14.0099C55.2452 13.5339 55.3005 13.0583 55.3552 12.5798C55.3951 12.631 55.4326 12.6779 55.4781 12.736C55.5263 12.0093 55.5736 11.3034 55.6203 10.5992C55.8455 10.5454 55.8081 10.7446 55.8111 10.8899C55.8222 11.3746 55.8256 11.8593 55.8317 12.3432C55.8337 12.3628 55.8375 12.3821 55.8431 12.4007C55.8518 12.417 55.8621 12.432 55.8738 12.4453C55.9196 12.3 56.0013 12.1547 56.0056 12.0057C56.0213 11.4582 56.0118 10.9091 56.0118 10.3609C56.1921 11.456 55.9973 12.57 56.3172 13.6484V11.4178L56.4241 11.416V13.1546L56.4548 13.144C56.5451 12.2536 56.6356 11.363 56.7261 10.472L56.8115 10.48C56.8619 10.9822 56.9138 11.4847 56.9652 11.9872H57.0122V9.38712C57.0122 9.2327 57.022 9.07828 57.0275 8.92386C57.0632 9.07828 57.0982 9.23306 57.1338 9.38785C57.1251 9.42418 57.1251 9.46269 57.1338 9.49903C57.1298 10.4506 57.0503 11.4084 57.2758 12.3876C57.3148 12.2422 57.3428 12.142 57.368 12.0417L57.4374 12.0555V13.4046L57.5406 13.4126C57.5683 13.1092 57.6021 12.8069 57.6217 12.5042C57.6601 11.9003 57.6903 11.2954 57.7241 10.6911L58.0882 11.5813C58.1121 11.0516 58.1302 10.6479 58.1496 10.2442C58.3167 11.0287 58.0304 11.8793 58.4913 12.5925C58.6053 11.9599 58.7202 11.3248 58.86 10.5556C58.9374 11.0112 58.9918 11.3186 59.0443 11.6235C59.0815 11.6184 59.1153 11.6137 59.158 11.6086V10.0139C59.158 10.0161 59.1684 10.0179 59.1752 10.0201C59.2528 10.8758 59.3302 11.7316 59.4072 12.5874H59.5488C59.6129 11.883 59.6768 11.1792 59.7405 10.476C59.853 10.4873 59.9108 10.4808 59.9151 10.4957C59.9869 10.7446 60.0521 10.9963 60.1495 11.3633C60.2109 11.0759 60.2515 10.899 60.3102 10.6257C60.3818 11.6554 60.3744 11.6554 60.7904 11.6362V10.3874L60.8786 10.3838C60.9308 10.6595 60.9818 10.9349 61.0344 11.2104C61.0866 11.3844 61.1382 11.5581 61.2034 11.7746C61.2559 11.4069 61.298 11.1083 61.3444 10.7827L61.6409 11.1824C61.6492 11.2914 61.6565 11.4022 61.6648 11.5116L61.7404 11.5094V9.87436L61.836 9.866C61.8882 10.2984 61.9414 10.7311 61.9967 11.1886C62.0292 11.1235 62.0508 11.0763 62.0766 11.0327C62.0815 11.0247 62.1048 11.0327 62.118 11.0327C62.1488 11.1653 62.177 11.299 62.2065 11.4324L62.2806 11.4225C62.3387 11.0238 62.3967 10.6254 62.4545 10.2272C62.539 10.649 62.6213 11.0712 62.7058 11.493H62.7752V10.3027C62.818 10.2987 62.8465 10.2947 62.8812 10.2904C62.9958 10.661 63.112 11.0312 63.2272 11.4033C63.6816 11.0763 63.2675 10.3819 63.6352 9.98263C63.6567 10.29 63.6776 10.5818 63.6967 10.8735L63.8168 10.8674C63.8411 10.5807 63.866 10.294 63.8841 10.0822C64.007 10.4343 64.1437 10.8241 64.305 11.2859L64.6694 10.3776C64.733 10.6257 64.7693 10.7664 64.8338 11.0167C64.8575 10.6621 64.8725 10.4393 64.8953 10.0858C64.9539 10.3129 64.9773 10.4037 65.001 10.496L65.2123 10.3554L65.3528 10.9339L65.7381 10.5872C65.7562 10.6457 65.7854 10.742 65.8302 10.8921L66.3062 10.2984C66.4063 10.48 66.5025 10.6534 66.599 10.8274C66.6297 10.8212 66.6564 10.815 66.6884 10.8092V9.90088L66.7498 9.90851C66.7692 10.1552 66.7885 10.4019 66.8113 10.6901C67.1348 10.3387 67.3336 9.99026 67.286 9.5092L67.3244 9.50557L67.3631 9.50811L67.5665 10.8416C67.8691 10.8488 67.9761 10.714 68.047 10.4401C68.098 10.2439 68.2762 10.0938 68.4157 9.89507L68.6219 10.8285C69.0929 10.5465 69.3424 10.1694 69.382 9.61094C69.5022 10.0044 69.622 10.3976 69.748 10.81C69.7768 10.6646 69.8014 10.5414 69.8275 10.4103L69.9876 10.5251L70.5149 9.74646L70.7674 10.7813C70.8903 10.5771 70.9905 10.4034 71.0974 10.2362C71.2842 9.94557 71.5629 9.96737 71.6947 10.2853C71.7494 10.4168 71.7869 10.5582 71.8176 10.6515L72.1894 9.97137L72.771 10.0622L72.8487 10.3714C72.944 10.1995 73.0291 10.0444 73.148 9.82967C73.3778 10.3329 73.682 10.084 73.9647 10.0299C74.0943 10.0044 74.2387 9.81186 74.3312 10.1025C74.3438 10.1421 74.471 10.165 74.5318 10.1432C74.758 10.0615 74.9786 9.95792 75.2265 9.85256L75.3593 10.1541C75.7587 10.1113 76.1166 9.63637 76.5575 10.0023C76.5785 10.0177 76.6021 10.0275 76.6267 10.0308C76.6512 10.0341 76.6761 10.031 76.6995 10.0215C77.1644 9.74428 77.6827 9.87617 78.1506 9.8729C79.2159 9.86891 80.2808 9.60694 81.346 9.82422C81.3956 9.82821 81.4454 9.82516 81.4944 9.81513C81.9739 9.77323 82.4536 9.7312 82.9333 9.68905C83.2098 9.66398 83.4863 9.63528 83.7628 9.60839C84.1549 9.61893 84.5473 9.64 84.9393 9.63855C86.527 9.63346 88.1144 9.62317 89.7017 9.60767C89.8467 9.60767 89.9914 9.5499 90.1364 9.51937C90.3235 9.55353 90.5051 9.58768 90.6981 9.62184V9.38312C90.5187 9.34679 90.3466 9.2803 90.1696 9.27812Z" fill="#524AB9"/>
</svg>
