<svg width="34" height="35" viewBox="0 0 34 35" fill="none" xmlns="http://www.w3.org/2000/svg">
<path d="M9.39258 29.5C10.1926 29.1 9.72591 26.6667 9.39258 25.5C10.3926 26.1667 12.8926 27.5 14.8926 27.5C16.7481 27.5 18.747 26.3524 19.6916 25.6542C19.754 25.588 19.8209 25.5359 19.8926 25.5C19.8324 25.5482 19.7652 25.5998 19.6916 25.6542C19.0583 26.326 18.8926 28.4379 18.8926 29.5H9.39258Z" fill="#C377FC"/>
<rect x="0.5" y="6.69141" width="27.2444" height="27.72" rx="3.5" stroke="#2C51A2"/>
<path d="M5 6.5V5.19141C5 2.98227 6.79086 1.19141 9 1.19141H29.2444C31.4535 1.19141 33.2444 2.98227 33.2444 5.19141V25.9114C33.2444 28.1205 31.4535 29.9114 29.2444 29.9114H27.8926" stroke="#2C51A2"/>
<path d="M19.8288 25.2131C19.637 25.0869 19.4355 24.9741 19.2252 24.8759C19.2245 24.8754 19.2239 24.875 19.2232 24.8745C19.2184 24.8713 19.2117 24.8673 19.2032 24.8639L19.8288 25.2131ZM19.8288 25.2131C19.8543 25.2239 19.8761 25.2387 19.8944 25.2552C21.0688 26.0552 21.8619 27.3547 21.9761 28.7921M19.8288 25.2131L19.2031 24.8638C19.1972 24.8614 19.1918 24.8598 19.1872 24.8587C19.0076 24.7766 18.8221 24.7024 18.6291 24.6423L18.6291 24.6423C18.175 24.501 17.7042 24.4293 17.2296 24.4293H16.1671V23.0967C16.5264 22.8713 16.8569 22.5833 17.1534 22.2499H19.0871C19.2041 22.2499 19.3019 22.1642 19.3205 22.05L19.3205 22.0499L19.6245 20.1754L19.6245 20.1754C19.8688 18.6678 19.7243 17.1573 19.2049 15.8073L19.2049 15.8072C18.2809 13.4112 16.443 11.9 14.3925 11.9C12.3422 11.9 10.5043 13.4112 9.58021 15.8073L9.58018 15.8074C9.06085 17.1573 8.91634 18.6678 9.16064 20.1754L9.16065 20.1754L9.4647 22.0499L9.4647 22.05C9.48325 22.1642 9.58109 22.2499 9.69802 22.2499H11.6318C11.9282 22.5833 12.2587 22.8713 12.6181 23.0967V24.4293H11.5556C11.081 24.4293 10.6101 24.501 10.1561 24.6423L10.156 24.6423C9.96299 24.7024 9.77747 24.7766 9.59782 24.8587C9.59331 24.8598 9.58804 24.8614 9.58234 24.8637L9.582 24.8638C9.57348 24.8673 9.56677 24.8713 9.56201 24.8745C9.56134 24.8749 9.5607 24.8754 9.56008 24.8758C9.34974 24.9741 9.14815 25.0869 8.95624 25.2131C8.93084 25.2239 8.9091 25.2387 8.89083 25.2552C7.71637 26.0551 6.9233 27.3547 6.80901 28.7921C6.79808 28.9287 6.79258 29.0674 6.79258 29.2046V29.8615C6.79258 29.9918 6.89703 30.1 7.02899 30.1H21.7562C21.8881 30.1 21.9926 29.9918 21.9926 29.8615V29.2046C21.9926 29.0674 21.9871 28.9287 21.9761 28.7921M21.9761 28.7921L21.8765 28.8M21.9761 28.7921C21.9761 28.7921 21.9761 28.7921 21.9761 28.792L21.8765 28.8M21.8765 28.8C21.7645 27.3917 20.9859 26.1169 19.8317 25.3335L21.8765 28.8ZM17.5334 21.773C18.3152 20.6764 18.7836 19.2406 18.7836 17.8831C18.7836 17.7934 18.7335 17.7106 18.6531 17.67L18.6531 17.6699C16.3002 16.4812 14.9092 15.2358 14.1204 13.6345C14.084 13.5606 14.0121 13.5106 13.9297 13.5031L13.929 13.5031C13.8478 13.4963 13.7678 13.5318 13.7187 13.5988C13.1624 14.3572 12.7235 14.9112 12.2153 15.3546C11.7089 15.7964 11.1298 16.1315 10.2904 16.444L10.2904 16.444C10.2154 16.4719 10.1601 16.5358 10.1421 16.6132C10.1421 16.6132 10.1421 16.6132 10.1421 16.6132L10.2395 16.6359M17.5334 21.773H11.2518H11.3751C10.5802 20.6863 10.1016 19.2438 10.1016 17.8831C10.1016 17.4486 10.1479 17.029 10.2395 16.6359M17.5334 21.773H18.8863L19.1579 20.0984C19.3889 18.6727 19.2522 17.2486 18.7642 15.98C17.9015 13.7429 16.2199 12.3769 14.3925 12.3769C12.5652 12.3769 10.8837 13.7429 10.0209 15.9802L17.5334 21.773ZM10.2395 16.6359C10.25 16.5907 10.2822 16.5537 10.3253 16.5377L10.2395 16.6359ZM19.7906 25.203C19.792 25.2031 19.794 25.2033 19.7961 25.2036L19.791 25.2031L19.7906 25.203ZM19.7906 25.203L19.7895 25.203L19.7891 25.2029L19.789 25.2029C19.7886 25.2029 19.7893 25.2029 19.7906 25.203ZM10.2956 25.098C10.7044 24.9707 11.1284 24.9062 11.5556 24.9062M10.2956 25.098L10.2658 25.0025L10.2956 25.098C10.2956 25.098 10.2956 25.098 10.2956 25.098ZM10.2956 25.098C10.1973 25.1286 10.1008 25.164 10.0051 25.2024M11.5556 24.9062L9.95096 25.1165C9.967 25.1441 9.98507 25.1728 10.0051 25.2024M11.5556 24.9062H12.8545C12.9869 24.9062 13.0909 24.797 13.0909 24.6672V23.3479M11.5556 24.9062L13.0909 23.3479M10.0051 25.2024C10.243 25.5543 10.7605 26.0433 11.4779 26.4591C12.2607 26.9128 13.2706 27.2727 14.3925 27.2727C15.5145 27.2727 16.5244 26.9128 17.3073 26.4591C18.0247 26.0433 18.5421 25.5543 18.78 25.2024M10.0051 25.2024L18.78 25.2024M18.78 25.2024C18.6843 25.164 18.5879 25.1286 18.4896 25.098C18.4896 25.098 18.4896 25.098 18.4896 25.098L18.5193 25.0025C18.1009 24.8723 17.6669 24.8062 17.2296 24.8062H15.9307C15.8553 24.8062 15.7943 24.7442 15.7943 24.6677L18.78 25.2024ZM13.0909 23.3479C13.4979 23.5281 13.9341 23.63 14.3925 23.63C14.851 23.63 15.2872 23.5281 15.6943 23.3479L13.0909 23.3479ZM19.2329 24.8817L19.2329 24.8817L19.2329 24.8817ZM8.99981 25.2994L9.00112 25.3029C8.98262 25.3097 8.96682 25.3204 8.9535 25.3335L8.99981 25.2994ZM11.9099 21.8577L11.9087 21.8562L11.9051 21.8519C11.903 21.8494 11.9001 21.8461 11.8965 21.8423C11.0174 20.8024 10.4744 19.2951 10.4744 17.8831C10.4744 17.5224 10.5085 17.174 10.5755 16.8454C11.3775 16.5354 11.9651 16.1909 12.48 15.7507C12.9728 15.3296 13.3957 14.8235 13.8747 14.1849C14.7242 15.703 16.1171 16.9026 18.3088 18.0289C18.2732 19.3974 17.7384 20.8368 16.8906 21.8408C16.8812 21.8502 16.8739 21.8597 16.8707 21.8639C16.1998 22.6485 15.344 23.153 14.3925 23.153C13.4389 23.153 12.5815 22.6456 11.9099 21.8577ZM8.92953 25.8172C9.25047 26.7932 9.61432 28.3232 9.32648 29.6231H7.2654V29.2046C7.2654 29.0801 7.27042 28.9542 7.28027 28.8303C7.3753 27.6355 7.99586 26.5448 8.92953 25.8172ZM19.4508 25.537C19.117 26.5157 18.6907 28.167 18.9758 29.6231H9.80932C10.0945 28.167 9.66819 26.5157 9.3344 25.537C9.41155 25.4895 9.48987 25.4442 9.56975 25.4016C9.85531 25.8633 10.4749 26.4279 11.2834 26.8861C12.1452 27.3744 13.235 27.7496 14.3925 27.7496C15.5501 27.7496 16.64 27.3744 17.5017 26.8861C18.3103 26.4279 18.9298 25.8633 19.2154 25.4016C19.2953 25.4442 19.3736 25.4895 19.4508 25.537ZM21.5198 29.6231H19.4587C19.1708 28.3232 19.5347 26.7933 19.8556 25.8172C20.7893 26.5448 21.4099 27.6355 21.5049 28.8303C21.5147 28.9542 21.5198 29.0801 21.5198 29.2046V29.6231Z" fill="#2C51A2" stroke="#2C51A2" stroke-width="0.2"/>
</svg>
