<svg width="29" height="37" viewBox="0 0 29 37" fill="none" xmlns="http://www.w3.org/2000/svg">
<rect x="0.5" y="17.7734" width="6.47657" height="18.5541" stroke="#2C51A2"/>
<path d="M7.47656 9.54688H10.1626" stroke="#C377FC" stroke-width="2" stroke-linecap="round"/>
<path d="M10.2695 3.14453L12.0772 4.9078" stroke="#C377FC" stroke-width="2" stroke-linecap="round"/>
<path d="M16.5117 1.17188V3.1848" stroke="#C377FC" stroke-width="2" stroke-linecap="round"/>
<path d="M21.2793 4.90907L22.7517 3.38281" stroke="#C377FC" stroke-width="2" stroke-linecap="round"/>
<path d="M23.5801 9.54688H25.8806" stroke="#C377FC" stroke-width="2" stroke-linecap="round"/>
<mask id="path-7-inside-1_664_96909" fill="white">
<path d="M18.2265 14.74C19.3089 14.4009 20.2499 13.7156 20.9049 12.7896C21.5598 11.8636 21.8925 10.748 21.8517 9.61452C21.8109 8.48101 21.3989 7.39229 20.679 6.51574C19.9592 5.63919 18.9713 5.02336 17.8674 4.76293C16.7635 4.5025 15.6045 4.61189 14.5688 5.07428C13.5331 5.53668 12.6779 6.32647 12.1348 7.32223C11.5917 8.31799 11.3907 9.46458 11.5627 10.5857C11.7347 11.7068 12.2702 12.7404 13.0869 13.5275L13.4233 13.1785C12.6831 12.4651 12.1978 11.5283 12.0419 10.5122C11.886 9.49606 12.0681 8.45685 12.5604 7.55435C13.0527 6.65184 13.8277 5.93602 14.7664 5.51693C15.7052 5.09784 16.7555 4.99869 17.7561 5.23473C18.7566 5.47077 19.652 6.02893 20.3044 6.82339C20.9568 7.61784 21.3302 8.60461 21.3672 9.63196C21.4042 10.6593 21.1027 11.6704 20.5091 12.5097C19.9155 13.349 19.0626 13.9701 18.0816 14.2775L18.2265 14.74Z"/>
</mask>
<path d="M18.2265 14.74C19.3089 14.4009 20.2499 13.7156 20.9049 12.7896C21.5598 11.8636 21.8925 10.748 21.8517 9.61452C21.8109 8.48101 21.3989 7.39229 20.679 6.51574C19.9592 5.63919 18.9713 5.02336 17.8674 4.76293C16.7635 4.5025 15.6045 4.61189 14.5688 5.07428C13.5331 5.53668 12.6779 6.32647 12.1348 7.32223C11.5917 8.31799 11.3907 9.46458 11.5627 10.5857C11.7347 11.7068 12.2702 12.7404 13.0869 13.5275L13.4233 13.1785C12.6831 12.4651 12.1978 11.5283 12.0419 10.5122C11.886 9.49606 12.0681 8.45685 12.5604 7.55435C13.0527 6.65184 13.8277 5.93602 14.7664 5.51693C15.7052 5.09784 16.7555 4.99869 17.7561 5.23473C18.7566 5.47077 19.652 6.02893 20.3044 6.82339C20.9568 7.61784 21.3302 8.60461 21.3672 9.63196C21.4042 10.6593 21.1027 11.6704 20.5091 12.5097C19.9155 13.349 19.0626 13.9701 18.0816 14.2775L18.2265 14.74Z" stroke="#C377FC" stroke-width="2" mask="url(#path-7-inside-1_664_96909)"/>
<path d="M14.3779 10.6614L13.2277 13.537C12.0774 12.3867 11.3351 10.6342 11.7899 8.36088C12.0775 6.92308 14.0904 4.91016 16.966 4.91016C19.8416 4.91016 20.9919 7.21064 21.2794 8.07332C21.567 8.93599 21.8545 10.9489 20.9919 12.3867C20.3017 13.537 18.7872 14.4955 18.1162 14.6872C18.4038 14.1121 18.9789 12.7893 18.9789 12.0992C18.9789 11.2365 19.2664 9.22356 18.9789 8.936C18.6913 8.64844 18.6913 7.78576 17.2535 7.21064C16.1033 6.75055 15.2406 7.40235 14.953 7.78576L14.3779 10.6614Z" fill="#C377FC"/>
<path d="M6.90039 20.6054C7.47972 20.5527 10.2217 19.4836 10.9801 18.1564C11.7385 16.8292 13.4554 12.7054 14.2191 10.8094C14.858 9.22306 14.5983 7.22276 15.7991 7.09636C17.3001 6.93836 19.2751 7.57036 19.1171 10.8094C18.9591 14.0484 17.6161 15.2334 17.6161 16.1814C17.6161 16.9398 17.6161 17.814 17.6161 18.1564C19.6701 18.1037 24.0625 18.109 25.2001 18.5514C26.6221 19.1044 27.1751 19.4994 27.2541 20.6054C27.3173 21.4902 26.7011 22.238 26.3851 22.5014C26.8064 22.5804 27.6965 23.0702 27.8861 24.3974C28.0757 25.7246 26.9644 26.6884 26.3851 27.0044C26.7801 27.294 27.5069 28.1894 27.2541 29.4534C27.0013 30.7174 25.7794 31.402 25.2001 31.5864C25.3581 32.35 25.4845 34.067 24.7261 34.8254C23.7781 35.7734 21.3291 36.0894 19.9071 36.0894C18.4851 36.0894 13.3501 36.5634 12.1651 36.0894C11.2171 35.7102 8.7154 34.246 7.58307 33.5614" stroke="#2C51A2"/>
<circle cx="3.45192" cy="31.655" r="1.22536" stroke="#2C51A2"/>
</svg>
