<svg width="39" height="39" viewBox="0 0 39 39" fill="none" xmlns="http://www.w3.org/2000/svg">
<path d="M37.0415 11.2759L25.7686 19.328L37.0415 27.3801V11.2759Z" stroke="#2C51A2" stroke-linecap="round" stroke-linejoin="round"/>
<path d="M22.5463 8.0542H4.83167C3.05286 8.0542 1.61084 9.49622 1.61084 11.275V27.3792C1.61084 29.158 3.05286 30.6 4.83167 30.6H22.5463C24.3251 30.6 25.7671 29.158 25.7671 27.3792V11.275C25.7671 9.49622 24.3251 8.0542 22.5463 8.0542Z" stroke="#2C51A2" stroke-linecap="round" stroke-linejoin="round"/>
<path d="M17.5333 14H9.46667C8.65665 14 8 14.7036 8 15.5714V23.4286C8 24.2964 8.65665 25 9.46667 25H17.5333C18.3434 25 19 24.2964 19 23.4286V15.5714C19 14.7036 18.3434 14 17.5333 14Z" fill="#C377FC"/>
</svg>
