<svg width="46" height="69" viewBox="0 0 46 69" fill="none" xmlns="http://www.w3.org/2000/svg">
<g filter="url(#filter0_d_1678_5306)">
<path d="M8.79212 6.93827C8.79212 6.93827 9.88001 5.3181 22.6741 7.6549C35.4683 9.99171 35.8002 12.2298 35.8002 12.2298L34.8117 17.2753C34.8117 17.2753 32.8474 15.5036 21.5693 13.294C10.2912 11.0843 7.80358 11.9837 7.80358 11.9837L8.79212 6.93827Z" fill="url(#paint0_linear_1678_5306)"/>
<ellipse cx="21.3075" cy="14.6297" rx="13.7608" ry="1.81461" transform="rotate(11.0853 21.3075 14.6297)" fill="url(#paint1_linear_1678_5306)"/>
<path d="M10.2999 13.395C10.2999 13.395 13.9756 12.7234 21.8406 14.2644C29.7056 15.8053 32.8561 17.8143 32.8561 17.8143L31.9895 22.2374C31.9895 22.2374 24.5588 27.8006 19.25 26.7002C14.0378 25.6198 9.43331 17.818 9.43331 17.818L10.2999 13.395Z" fill="url(#paint2_linear_1678_5306)" fill-opacity="0.8"/>
<g filter="url(#filter1_f_1678_5306)">
<path d="M13.8941 13.9392L12.352 13.9452C12.2759 18.738 16.3251 23.8151 18.3593 25.7546C14.5666 20.5737 13.8022 15.7189 13.8941 13.9392Z" fill="url(#paint3_linear_1678_5306)"/>
</g>
<path d="M13.8941 13.9392L12.352 13.9452C12.2759 18.738 16.3251 23.8151 18.3593 25.7546C14.5666 20.5737 13.8022 15.7189 13.8941 13.9392Z" fill="url(#paint4_linear_1678_5306)"/>
<g filter="url(#filter2_f_1678_5306)">
<path d="M9.38631 36.9314L7.96049 36.3438C9.69864 31.8767 15.3644 28.703 17.98 27.6745C12.5127 31.0412 9.97284 35.2485 9.38631 36.9314Z" fill="url(#paint5_linear_1678_5306)"/>
</g>
<path d="M17.9816 27.6788C12.5143 31.0455 9.00586 37.8367 8.41933 39.5195L7.05469 39.4062L7.51988 37.0319C9.25803 32.5648 15.366 28.7072 17.9816 27.6788Z" fill="url(#paint6_linear_1678_5306)"/>
<path d="M5.21342 39.3535C5.21342 39.3535 8.27639 41.8093 16.1414 43.3503C24.0064 44.8912 27.7696 43.7729 27.7696 43.7729L28.9251 37.8755C28.9251 37.8755 24.5846 27.6663 19.2492 26.7013C14.011 25.754 6.36886 33.4562 6.36886 33.4562L5.21342 39.3535Z" fill="url(#paint7_linear_1678_5306)" fill-opacity="0.8"/>
<path d="M30.6401 16.549C30.6401 16.549 30.7461 16.0078 31.9333 16.2404C33.1204 16.473 33.0144 17.0142 33.0144 17.0142L27.7126 44.0747L25.3382 43.6095L30.6401 16.549Z" fill="url(#paint8_linear_1678_5306)"/>
<path d="M9.86271 12.4787C9.86271 12.4787 9.96875 11.9375 11.1559 12.1701C12.3431 12.4027 12.2371 12.9439 12.2371 12.9439L6.93522 40.0044L4.56088 39.5392L9.86271 12.4787Z" fill="url(#paint9_linear_1678_5306)"/>
<path d="M2.33899 39.8836C2.33899 39.8836 3.42689 38.2634 16.221 40.6002C29.0151 42.937 29.3471 45.1752 29.3471 45.1752L28.3586 50.2206C28.3586 50.2206 26.3943 48.4489 15.1162 46.2393C3.83807 44.0296 1.35046 44.929 1.35046 44.929L2.33899 39.8836Z" fill="url(#paint10_linear_1678_5306)"/>
<ellipse cx="14.8544" cy="47.575" rx="13.7608" ry="1.81461" transform="rotate(11.0853 14.8544 47.575)" fill="url(#paint11_linear_1678_5306)"/>
<g style="mix-blend-mode:screen" filter="url(#filter3_f_1678_5306)">
<ellipse cx="19.6672" cy="20.578" rx="8.5474" ry="10.0737" transform="rotate(-17.4512 19.6672 20.578)" fill="#C7FF26"/>
</g>
</g>
<defs>
<filter id="filter0_d_1678_5306" x="1.34766" y="6.39062" width="44.4531" height="62.375" filterUnits="userSpaceOnUse" color-interpolation-filters="sRGB">
<feFlood flood-opacity="0" result="BackgroundImageFix"/>
<feColorMatrix in="SourceAlpha" type="matrix" values="0 0 0 0 0 0 0 0 0 0 0 0 0 0 0 0 0 0 127 0" result="hardAlpha"/>
<feOffset dx="5" dy="13"/>
<feGaussianBlur stdDeviation="2.5"/>
<feComposite in2="hardAlpha" operator="out"/>
<feColorMatrix type="matrix" values="0 0 0 0 0 0 0 0 0 0 0 0 0 0 0 0 0 0 0.25 0"/>
<feBlend mode="normal" in2="BackgroundImageFix" result="effect1_dropShadow_1678_5306"/>
<feBlend mode="normal" in="SourceGraphic" in2="effect1_dropShadow_1678_5306" result="shape"/>
</filter>
<filter id="filter1_f_1678_5306" x="8.35156" y="9.9375" width="14.0078" height="19.8203" filterUnits="userSpaceOnUse" color-interpolation-filters="sRGB">
<feFlood flood-opacity="0" result="BackgroundImageFix"/>
<feBlend mode="normal" in="SourceGraphic" in2="BackgroundImageFix" result="shape"/>
<feGaussianBlur stdDeviation="2" result="effect1_foregroundBlur_1678_5306"/>
</filter>
<filter id="filter2_f_1678_5306" x="3.96094" y="23.6719" width="18.0195" height="17.2578" filterUnits="userSpaceOnUse" color-interpolation-filters="sRGB">
<feFlood flood-opacity="0" result="BackgroundImageFix"/>
<feBlend mode="normal" in="SourceGraphic" in2="BackgroundImageFix" result="shape"/>
<feGaussianBlur stdDeviation="2" result="effect1_foregroundBlur_1678_5306"/>
</filter>
<filter id="filter3_f_1678_5306" x="0.96875" y="0.632812" width="37.3945" height="39.8906" filterUnits="userSpaceOnUse" color-interpolation-filters="sRGB">
<feFlood flood-opacity="0" result="BackgroundImageFix"/>
<feBlend mode="normal" in="SourceGraphic" in2="BackgroundImageFix" result="shape"/>
<feGaussianBlur stdDeviation="5" result="effect1_foregroundBlur_1678_5306"/>
</filter>
<linearGradient id="paint0_linear_1678_5306" x1="8.42971" y1="8.78799" x2="35.4378" y2="14.0796" gradientUnits="userSpaceOnUse">
<stop stop-color="#38B8F1"/>
<stop offset="0.25" stop-color="#5CD7F5"/>
<stop offset="0.5" stop-color="#A8E3EC"/>
<stop offset="0.75" stop-color="#62D0E5"/>
<stop offset="1" stop-color="#78DDDF"/>
</linearGradient>
<linearGradient id="paint1_linear_1678_5306" x1="7.5467" y1="14.6297" x2="35.0683" y2="14.6297" gradientUnits="userSpaceOnUse">
<stop stop-color="#3B9CBB"/>
<stop offset="1" stop-color="#177695"/>
</linearGradient>
<linearGradient id="paint2_linear_1678_5306" x1="9.23781" y1="18.8159" x2="31.794" y2="23.2352" gradientUnits="userSpaceOnUse">
<stop stop-color="#38B8F1"/>
<stop offset="0.25" stop-color="#5CD7F5"/>
<stop offset="0.5" stop-color="#A8E3EC"/>
<stop offset="0.75" stop-color="#62D0E5"/>
<stop offset="1" stop-color="#78DDDF"/>
</linearGradient>
<linearGradient id="paint3_linear_1678_5306" x1="7.95943" y1="20.6351" x2="19.6125" y2="20.1446" gradientUnits="userSpaceOnUse">
<stop stop-color="white"/>
<stop offset="1" stop-color="white" stop-opacity="0"/>
</linearGradient>
<linearGradient id="paint4_linear_1678_5306" x1="7.95943" y1="20.6351" x2="19.6125" y2="20.1446" gradientUnits="userSpaceOnUse">
<stop stop-color="white"/>
<stop offset="1" stop-color="white" stop-opacity="0"/>
</linearGradient>
<linearGradient id="paint5_linear_1678_5306" x1="6.41722" y1="28.4909" x2="17.0236" y2="33.3427" gradientUnits="userSpaceOnUse">
<stop stop-color="white"/>
<stop offset="1" stop-color="white" stop-opacity="0"/>
</linearGradient>
<linearGradient id="paint6_linear_1678_5306" x1="6.41878" y1="28.4952" x2="17.0251" y2="33.3469" gradientUnits="userSpaceOnUse">
<stop stop-color="white"/>
<stop offset="1" stop-color="white" stop-opacity="0"/>
</linearGradient>
<linearGradient id="paint7_linear_1678_5306" x1="6.62954" y1="32.1257" x2="29.1857" y2="36.545" gradientUnits="userSpaceOnUse">
<stop stop-color="#38B8F1"/>
<stop offset="0.25" stop-color="#5CD7F5"/>
<stop offset="0.5" stop-color="#A8E3EC"/>
<stop offset="0.75" stop-color="#62D0E5"/>
<stop offset="1" stop-color="#78DDDF"/>
</linearGradient>
<linearGradient id="paint8_linear_1678_5306" x1="27.8386" y1="30.8474" x2="31.5485" y2="31.5743" gradientUnits="userSpaceOnUse">
<stop stop-color="#D9D9D9"/>
<stop offset="1" stop-color="#737373"/>
</linearGradient>
<linearGradient id="paint9_linear_1678_5306" x1="7.06129" y1="26.7771" x2="15.4326" y2="28.8796" gradientUnits="userSpaceOnUse">
<stop stop-color="#D9D9D9"/>
<stop offset="1" stop-color="#737373"/>
</linearGradient>
<linearGradient id="paint10_linear_1678_5306" x1="1.97659" y1="41.7333" x2="28.9847" y2="47.0249" gradientUnits="userSpaceOnUse">
<stop stop-color="#38B8F1"/>
<stop offset="0.25" stop-color="#5CD7F5"/>
<stop offset="0.5" stop-color="#A8E3EC"/>
<stop offset="0.75" stop-color="#62D0E5"/>
<stop offset="1" stop-color="#78DDDF"/>
</linearGradient>
<linearGradient id="paint11_linear_1678_5306" x1="1.09358" y1="47.575" x2="28.6152" y2="47.575" gradientUnits="userSpaceOnUse">
<stop stop-color="#3B9CBB"/>
<stop offset="1" stop-color="#177695"/>
</linearGradient>
</defs>
</svg>
