<svg width="37" height="40" viewBox="0 0 37 40" fill="none" xmlns="http://www.w3.org/2000/svg">
<mask id="mask0_1678_8620" style="mask-type:luminance" maskUnits="userSpaceOnUse" x="0" y="2" width="37" height="38">
<path d="M18.4758 39.0172C28.6797 39.0172 36.9515 30.8985 36.9515 20.8836C36.9515 10.8687 28.6797 2.75 18.4758 2.75C8.2719 2.75 0 10.8687 0 20.8836C0 30.8985 8.2719 39.0172 18.4758 39.0172Z" fill="white"/>
</mask>
<g mask="url(#mask0_1678_8620)">
<path d="M18.4758 39.0172C28.6797 39.0172 36.9515 30.8985 36.9515 20.8836C36.9515 10.8687 28.6797 2.75 18.4758 2.75C8.2719 2.75 0 10.8687 0 20.8836C0 30.8985 8.2719 39.0172 18.4758 39.0172Z" fill="url(#paint0_linear_1678_8620)"/>
</g>
<mask id="mask1_1678_8620" style="mask-type:luminance" maskUnits="userSpaceOnUse" x="0" y="2" width="37" height="38">
<path d="M18.4758 39.0172C28.6797 39.0172 36.9515 30.8985 36.9515 20.8836C36.9515 10.8687 28.6797 2.75 18.4758 2.75C8.2719 2.75 0 10.8687 0 20.8836C0 30.8985 8.2719 39.0172 18.4758 39.0172Z" fill="white"/>
</mask>
<g mask="url(#mask1_1678_8620)">
<path d="M20.563 45.21C32.707 45.21 42.5517 35.5476 42.5517 23.6284C42.5517 11.7093 32.707 2.04688 20.563 2.04688C8.41891 2.04688 -1.42578 11.7093 -1.42578 23.6284C-1.42578 35.5476 8.41891 45.21 20.563 45.21Z" fill="url(#paint1_linear_1678_8620)"/>
</g>
<mask id="mask2_1678_8620" style="mask-type:luminance" maskUnits="userSpaceOnUse" x="0" y="2" width="37" height="38">
<path d="M18.4758 39.0172C28.6797 39.0172 36.9515 30.8985 36.9515 20.8836C36.9515 10.8687 28.6797 2.75 18.4758 2.75C8.2719 2.75 0 10.8687 0 20.8836C0 30.8985 8.2719 39.0172 18.4758 39.0172Z" fill="white"/>
</mask>
<g mask="url(#mask2_1678_8620)">
<path opacity="0.6" d="M28.9456 44.0626C15.9345 49.8092 2.20778 47.4467 -1.82566 38.763C-5.8591 30.0793 1.42711 18.3308 14.4382 12.5842C27.4493 6.83762 41.176 9.20009 45.2095 17.8838C49.1778 26.5675 41.8916 38.2522 28.9456 44.0626Z" fill="url(#paint2_radial_1678_8620)"/>
</g>
<path opacity="0.6" d="M13.9827 3.5698C13.9176 5.61905 15.2838 7.2888 17.0403 7.3647C18.7968 7.4406 20.228 5.84675 20.2931 3.79751C20.3581 1.74826 18.992 0.0785 17.2355 0.00260189C15.479 -0.0732962 14.0478 1.52055 13.9827 3.5698Z" fill="url(#paint3_radial_1678_8620)"/>
<defs>
<linearGradient id="paint0_linear_1678_8620" x1="5.42901" y1="8.07828" x2="31.0939" y2="34.2273" gradientUnits="userSpaceOnUse">
<stop offset="0.0524877" stop-color="#D90C9D"/>
<stop offset="0.6" stop-color="#C50C95"/>
<stop offset="1" stop-color="#BB0C92"/>
</linearGradient>
<linearGradient id="paint1_linear_1678_8620" x1="5.0355" y1="8.38828" x2="28.0219" y2="33.9054" gradientUnits="userSpaceOnUse">
<stop offset="0.0524877" stop-color="#D90C9D"/>
<stop offset="0.6" stop-color="#C50C95"/>
<stop offset="1" stop-color="#E86631"/>
</linearGradient>
<radialGradient id="paint2_radial_1678_8620" cx="0" cy="0" r="1" gradientUnits="userSpaceOnUse" gradientTransform="translate(21.6613 28.3237) rotate(65.2227) scale(17.3162 25.7251)">
<stop offset="0.1113" stop-color="#8100FF"/>
<stop offset="1" stop-color="#8100FF" stop-opacity="0"/>
</radialGradient>
<radialGradient id="paint3_radial_1678_8620" cx="0" cy="0" r="1" gradientUnits="userSpaceOnUse" gradientTransform="translate(17.123 3.67109) rotate(-177.781) scale(3.1489 3.67225)">
<stop offset="0.1119" stop-color="white"/>
<stop offset="0.1914" stop-color="white" stop-opacity="0.8529"/>
<stop offset="0.6525" stop-color="white" stop-opacity="0"/>
</radialGradient>
</defs>
</svg>
